%TF.GenerationSoftware,KiCad,Pcbnew,(6.0.1-0)*%
%TF.CreationDate,2022-07-13T02:22:52+02:00*%
%TF.ProjectId,tr707minus10v_kicad,74723730-376d-4696-9e75-733130765f6b,rev?*%
%TF.SameCoordinates,Original*%
%TF.FileFunction,Legend,Top*%
%TF.FilePolarity,Positive*%
%FSLAX46Y46*%
G04 Gerber Fmt 4.6, Leading zero omitted, Abs format (unit mm)*
G04 Created by KiCad (PCBNEW (6.0.1-0)) date 2022-07-13 02:22:52*
%MOMM*%
%LPD*%
G01*
G04 APERTURE LIST*
%ADD10C,0.150000*%
%ADD11C,0.300000*%
%ADD12C,0.120000*%
G04 APERTURE END LIST*
D10*
X146354761Y-108110714D02*
X146735714Y-108110714D01*
X146497619Y-107777380D02*
X146497619Y-108634523D01*
X146545238Y-108729761D01*
X146640476Y-108777380D01*
X146735714Y-108777380D01*
X147211904Y-108777380D02*
X147116666Y-108729761D01*
X147069047Y-108682142D01*
X147021428Y-108586904D01*
X147021428Y-108301190D01*
X147069047Y-108205952D01*
X147116666Y-108158333D01*
X147211904Y-108110714D01*
X147354761Y-108110714D01*
X147450000Y-108158333D01*
X147497619Y-108205952D01*
X147545238Y-108301190D01*
X147545238Y-108586904D01*
X147497619Y-108682142D01*
X147450000Y-108729761D01*
X147354761Y-108777380D01*
X147211904Y-108777380D01*
X147973809Y-108110714D02*
X147973809Y-109110714D01*
X147973809Y-108158333D02*
X148069047Y-108110714D01*
X148259523Y-108110714D01*
X148354761Y-108158333D01*
X148402380Y-108205952D01*
X148450000Y-108301190D01*
X148450000Y-108586904D01*
X148402380Y-108682142D01*
X148354761Y-108729761D01*
X148259523Y-108777380D01*
X148069047Y-108777380D01*
X147973809Y-108729761D01*
X121030952Y-136022380D02*
X121602380Y-136022380D01*
X121316666Y-137022380D02*
X121316666Y-136022380D01*
X122078571Y-137022380D02*
X121983333Y-136974761D01*
X121935714Y-136927142D01*
X121888095Y-136831904D01*
X121888095Y-136546190D01*
X121935714Y-136450952D01*
X121983333Y-136403333D01*
X122078571Y-136355714D01*
X122221428Y-136355714D01*
X122316666Y-136403333D01*
X122364285Y-136450952D01*
X122411904Y-136546190D01*
X122411904Y-136831904D01*
X122364285Y-136927142D01*
X122316666Y-136974761D01*
X122221428Y-137022380D01*
X122078571Y-137022380D01*
X122840476Y-137022380D02*
X122840476Y-136355714D01*
X122840476Y-136546190D02*
X122888095Y-136450952D01*
X122935714Y-136403333D01*
X123030952Y-136355714D01*
X123126190Y-136355714D01*
X123459523Y-137022380D02*
X123459523Y-136355714D01*
X123459523Y-136022380D02*
X123411904Y-136070000D01*
X123459523Y-136117619D01*
X123507142Y-136070000D01*
X123459523Y-136022380D01*
X123459523Y-136117619D01*
X123935714Y-136355714D02*
X123935714Y-137022380D01*
X123935714Y-136450952D02*
X123983333Y-136403333D01*
X124078571Y-136355714D01*
X124221428Y-136355714D01*
X124316666Y-136403333D01*
X124364285Y-136498571D01*
X124364285Y-137022380D01*
X124983333Y-137022380D02*
X124888095Y-136974761D01*
X124840476Y-136927142D01*
X124792857Y-136831904D01*
X124792857Y-136546190D01*
X124840476Y-136450952D01*
X124888095Y-136403333D01*
X124983333Y-136355714D01*
X125126190Y-136355714D01*
X125221428Y-136403333D01*
X125269047Y-136450952D01*
X125316666Y-136546190D01*
X125316666Y-136831904D01*
X125269047Y-136927142D01*
X125221428Y-136974761D01*
X125126190Y-137022380D01*
X124983333Y-137022380D01*
X126459523Y-136974761D02*
X126602380Y-137022380D01*
X126840476Y-137022380D01*
X126935714Y-136974761D01*
X126983333Y-136927142D01*
X127030952Y-136831904D01*
X127030952Y-136736666D01*
X126983333Y-136641428D01*
X126935714Y-136593809D01*
X126840476Y-136546190D01*
X126650000Y-136498571D01*
X126554761Y-136450952D01*
X126507142Y-136403333D01*
X126459523Y-136308095D01*
X126459523Y-136212857D01*
X126507142Y-136117619D01*
X126554761Y-136070000D01*
X126650000Y-136022380D01*
X126888095Y-136022380D01*
X127030952Y-136070000D01*
X127364285Y-136355714D02*
X127602380Y-137022380D01*
X127840476Y-136355714D02*
X127602380Y-137022380D01*
X127507142Y-137260476D01*
X127459523Y-137308095D01*
X127364285Y-137355714D01*
X128221428Y-136355714D02*
X128221428Y-137022380D01*
X128221428Y-136450952D02*
X128269047Y-136403333D01*
X128364285Y-136355714D01*
X128507142Y-136355714D01*
X128602380Y-136403333D01*
X128650000Y-136498571D01*
X128650000Y-137022380D01*
X128983333Y-136355714D02*
X129364285Y-136355714D01*
X129126190Y-136022380D02*
X129126190Y-136879523D01*
X129173809Y-136974761D01*
X129269047Y-137022380D01*
X129364285Y-137022380D01*
X129697619Y-137022380D02*
X129697619Y-136022380D01*
X130126190Y-137022380D02*
X130126190Y-136498571D01*
X130078571Y-136403333D01*
X129983333Y-136355714D01*
X129840476Y-136355714D01*
X129745238Y-136403333D01*
X129697619Y-136450952D01*
X122388095Y-138632380D02*
X122054761Y-138156190D01*
X121816666Y-138632380D02*
X121816666Y-137632380D01*
X122197619Y-137632380D01*
X122292857Y-137680000D01*
X122340476Y-137727619D01*
X122388095Y-137822857D01*
X122388095Y-137965714D01*
X122340476Y-138060952D01*
X122292857Y-138108571D01*
X122197619Y-138156190D01*
X121816666Y-138156190D01*
X123197619Y-138584761D02*
X123102380Y-138632380D01*
X122911904Y-138632380D01*
X122816666Y-138584761D01*
X122769047Y-138489523D01*
X122769047Y-138108571D01*
X122816666Y-138013333D01*
X122911904Y-137965714D01*
X123102380Y-137965714D01*
X123197619Y-138013333D01*
X123245238Y-138108571D01*
X123245238Y-138203809D01*
X122769047Y-138299047D01*
X123673809Y-137965714D02*
X123673809Y-138965714D01*
X123673809Y-138013333D02*
X123769047Y-137965714D01*
X123959523Y-137965714D01*
X124054761Y-138013333D01*
X124102380Y-138060952D01*
X124150000Y-138156190D01*
X124150000Y-138441904D01*
X124102380Y-138537142D01*
X124054761Y-138584761D01*
X123959523Y-138632380D01*
X123769047Y-138632380D01*
X123673809Y-138584761D01*
X125007142Y-138632380D02*
X125007142Y-138108571D01*
X124959523Y-138013333D01*
X124864285Y-137965714D01*
X124673809Y-137965714D01*
X124578571Y-138013333D01*
X125007142Y-138584761D02*
X124911904Y-138632380D01*
X124673809Y-138632380D01*
X124578571Y-138584761D01*
X124530952Y-138489523D01*
X124530952Y-138394285D01*
X124578571Y-138299047D01*
X124673809Y-138251428D01*
X124911904Y-138251428D01*
X125007142Y-138203809D01*
X125483333Y-138632380D02*
X125483333Y-137965714D01*
X125483333Y-137632380D02*
X125435714Y-137680000D01*
X125483333Y-137727619D01*
X125530952Y-137680000D01*
X125483333Y-137632380D01*
X125483333Y-137727619D01*
X125959523Y-138632380D02*
X125959523Y-137965714D01*
X125959523Y-138156190D02*
X126007142Y-138060952D01*
X126054761Y-138013333D01*
X126150000Y-137965714D01*
X126245238Y-137965714D01*
X127816666Y-138632380D02*
X127340476Y-138632380D01*
X127340476Y-137632380D01*
X128578571Y-138632380D02*
X128578571Y-138108571D01*
X128530952Y-138013333D01*
X128435714Y-137965714D01*
X128245238Y-137965714D01*
X128150000Y-138013333D01*
X128578571Y-138584761D02*
X128483333Y-138632380D01*
X128245238Y-138632380D01*
X128150000Y-138584761D01*
X128102380Y-138489523D01*
X128102380Y-138394285D01*
X128150000Y-138299047D01*
X128245238Y-138251428D01*
X128483333Y-138251428D01*
X128578571Y-138203809D01*
X129054761Y-138632380D02*
X129054761Y-137632380D01*
X129054761Y-138013333D02*
X129150000Y-137965714D01*
X129340476Y-137965714D01*
X129435714Y-138013333D01*
X129483333Y-138060952D01*
X129530952Y-138156190D01*
X129530952Y-138441904D01*
X129483333Y-138537142D01*
X129435714Y-138584761D01*
X129340476Y-138632380D01*
X129150000Y-138632380D01*
X129054761Y-138584761D01*
X132058333Y-138604761D02*
X132153571Y-138652380D01*
X132344047Y-138652380D01*
X132439285Y-138604761D01*
X132486904Y-138509523D01*
X132486904Y-138461904D01*
X132439285Y-138366666D01*
X132344047Y-138319047D01*
X132201190Y-138319047D01*
X132105952Y-138271428D01*
X132058333Y-138176190D01*
X132058333Y-138128571D01*
X132105952Y-138033333D01*
X132201190Y-137985714D01*
X132344047Y-137985714D01*
X132439285Y-138033333D01*
X132820238Y-137985714D02*
X133058333Y-138652380D01*
X133296428Y-137985714D02*
X133058333Y-138652380D01*
X132963095Y-138890476D01*
X132915476Y-138938095D01*
X132820238Y-138985714D01*
X133677380Y-137985714D02*
X133677380Y-138652380D01*
X133677380Y-138080952D02*
X133724999Y-138033333D01*
X133820238Y-137985714D01*
X133963095Y-137985714D01*
X134058333Y-138033333D01*
X134105952Y-138128571D01*
X134105952Y-138652380D01*
X134439285Y-137985714D02*
X134820238Y-137985714D01*
X134582142Y-137652380D02*
X134582142Y-138509523D01*
X134629761Y-138604761D01*
X134725000Y-138652380D01*
X134820238Y-138652380D01*
X135153571Y-138652380D02*
X135153571Y-137652380D01*
X135582142Y-138652380D02*
X135582142Y-138128571D01*
X135534523Y-138033333D01*
X135439285Y-137985714D01*
X135296428Y-137985714D01*
X135201190Y-138033333D01*
X135153571Y-138080952D01*
X136058333Y-138557142D02*
X136105952Y-138604761D01*
X136058333Y-138652380D01*
X136010714Y-138604761D01*
X136058333Y-138557142D01*
X136058333Y-138652380D01*
X136915476Y-138604761D02*
X136820238Y-138652380D01*
X136629761Y-138652380D01*
X136534523Y-138604761D01*
X136486904Y-138509523D01*
X136486904Y-138128571D01*
X136534523Y-138033333D01*
X136629761Y-137985714D01*
X136820238Y-137985714D01*
X136915476Y-138033333D01*
X136963095Y-138128571D01*
X136963095Y-138223809D01*
X136486904Y-138319047D01*
X137296428Y-137985714D02*
X137486904Y-138652380D01*
X137677380Y-138176190D01*
X137867857Y-138652380D01*
X138058333Y-137985714D01*
X138867857Y-138652380D02*
X138867857Y-138128571D01*
X138820238Y-138033333D01*
X138725000Y-137985714D01*
X138534523Y-137985714D01*
X138439285Y-138033333D01*
X138867857Y-138604761D02*
X138772619Y-138652380D01*
X138534523Y-138652380D01*
X138439285Y-138604761D01*
X138391666Y-138509523D01*
X138391666Y-138414285D01*
X138439285Y-138319047D01*
X138534523Y-138271428D01*
X138772619Y-138271428D01*
X138867857Y-138223809D01*
X139344047Y-137985714D02*
X139344047Y-138652380D01*
X139344047Y-138080952D02*
X139391666Y-138033333D01*
X139486904Y-137985714D01*
X139629761Y-137985714D01*
X139725000Y-138033333D01*
X139772619Y-138128571D01*
X139772619Y-138652380D01*
X140677380Y-138604761D02*
X140582142Y-138652380D01*
X140391666Y-138652380D01*
X140296428Y-138604761D01*
X140248809Y-138557142D01*
X140201190Y-138461904D01*
X140201190Y-138176190D01*
X140248809Y-138080952D01*
X140296428Y-138033333D01*
X140391666Y-137985714D01*
X140582142Y-137985714D01*
X140677380Y-138033333D01*
X141248809Y-138652380D02*
X141153571Y-138604761D01*
X141105952Y-138557142D01*
X141058333Y-138461904D01*
X141058333Y-138176190D01*
X141105952Y-138080952D01*
X141153571Y-138033333D01*
X141248809Y-137985714D01*
X141391666Y-137985714D01*
X141486904Y-138033333D01*
X141534523Y-138080952D01*
X141582142Y-138176190D01*
X141582142Y-138461904D01*
X141534523Y-138557142D01*
X141486904Y-138604761D01*
X141391666Y-138652380D01*
X141248809Y-138652380D01*
X142153571Y-138652380D02*
X142058333Y-138604761D01*
X142010714Y-138509523D01*
X142010714Y-137652380D01*
X142486904Y-138604761D02*
X142582142Y-138652380D01*
X142772619Y-138652380D01*
X142867857Y-138604761D01*
X142915476Y-138509523D01*
X142915476Y-138461904D01*
X142867857Y-138366666D01*
X142772619Y-138319047D01*
X142629761Y-138319047D01*
X142534523Y-138271428D01*
X142486904Y-138176190D01*
X142486904Y-138128571D01*
X142534523Y-138033333D01*
X142629761Y-137985714D01*
X142772619Y-137985714D01*
X142867857Y-138033333D01*
X143725000Y-138604761D02*
X143629761Y-138652380D01*
X143439285Y-138652380D01*
X143344047Y-138604761D01*
X143296428Y-138509523D01*
X143296428Y-138128571D01*
X143344047Y-138033333D01*
X143439285Y-137985714D01*
X143629761Y-137985714D01*
X143725000Y-138033333D01*
X143772619Y-138128571D01*
X143772619Y-138223809D01*
X143296428Y-138319047D01*
X144344047Y-138652380D02*
X144248809Y-138604761D01*
X144201190Y-138509523D01*
X144201190Y-137652380D01*
X144867857Y-138652380D02*
X144772619Y-138604761D01*
X144725000Y-138509523D01*
X144725000Y-137652380D01*
X145248809Y-138557142D02*
X145296428Y-138604761D01*
X145248809Y-138652380D01*
X145201190Y-138604761D01*
X145248809Y-138557142D01*
X145248809Y-138652380D01*
X146153571Y-138604761D02*
X146058333Y-138652380D01*
X145867857Y-138652380D01*
X145772619Y-138604761D01*
X145725000Y-138557142D01*
X145677380Y-138461904D01*
X145677380Y-138176190D01*
X145725000Y-138080952D01*
X145772619Y-138033333D01*
X145867857Y-137985714D01*
X146058333Y-137985714D01*
X146153571Y-138033333D01*
X146725000Y-138652380D02*
X146629761Y-138604761D01*
X146582142Y-138557142D01*
X146534523Y-138461904D01*
X146534523Y-138176190D01*
X146582142Y-138080952D01*
X146629761Y-138033333D01*
X146725000Y-137985714D01*
X146867857Y-137985714D01*
X146963095Y-138033333D01*
X147010714Y-138080952D01*
X147058333Y-138176190D01*
X147058333Y-138461904D01*
X147010714Y-138557142D01*
X146963095Y-138604761D01*
X146867857Y-138652380D01*
X146725000Y-138652380D01*
X147486904Y-138652380D02*
X147486904Y-137985714D01*
X147486904Y-138080952D02*
X147534523Y-138033333D01*
X147629761Y-137985714D01*
X147772619Y-137985714D01*
X147867857Y-138033333D01*
X147915476Y-138128571D01*
X147915476Y-138652380D01*
X147915476Y-138128571D02*
X147963095Y-138033333D01*
X148058333Y-137985714D01*
X148201190Y-137985714D01*
X148296428Y-138033333D01*
X148344047Y-138128571D01*
X148344047Y-138652380D01*
D11*
X124871428Y-116241595D02*
X125614285Y-116241595D01*
X125242857Y-117541595D02*
X125242857Y-116241595D01*
X126790476Y-117541595D02*
X126357142Y-116922547D01*
X126047619Y-117541595D02*
X126047619Y-116241595D01*
X126542857Y-116241595D01*
X126666666Y-116303500D01*
X126728571Y-116365404D01*
X126790476Y-116489214D01*
X126790476Y-116674928D01*
X126728571Y-116798738D01*
X126666666Y-116860642D01*
X126542857Y-116922547D01*
X126047619Y-116922547D01*
X127223809Y-116241595D02*
X128090476Y-116241595D01*
X127533333Y-117541595D01*
X128833333Y-116241595D02*
X128957142Y-116241595D01*
X129080952Y-116303500D01*
X129142857Y-116365404D01*
X129204761Y-116489214D01*
X129266666Y-116736833D01*
X129266666Y-117046357D01*
X129204761Y-117293976D01*
X129142857Y-117417785D01*
X129080952Y-117479690D01*
X128957142Y-117541595D01*
X128833333Y-117541595D01*
X128709523Y-117479690D01*
X128647619Y-117417785D01*
X128585714Y-117293976D01*
X128523809Y-117046357D01*
X128523809Y-116736833D01*
X128585714Y-116489214D01*
X128647619Y-116365404D01*
X128709523Y-116303500D01*
X128833333Y-116241595D01*
X129700000Y-116241595D02*
X130566666Y-116241595D01*
X130009523Y-117541595D01*
X120878571Y-119634595D02*
X120878571Y-118334595D01*
X121621428Y-119634595D01*
X121621428Y-118334595D01*
X122735714Y-119572690D02*
X122611904Y-119634595D01*
X122364285Y-119634595D01*
X122240476Y-119572690D01*
X122178571Y-119448880D01*
X122178571Y-118953642D01*
X122240476Y-118829833D01*
X122364285Y-118767928D01*
X122611904Y-118767928D01*
X122735714Y-118829833D01*
X122797619Y-118953642D01*
X122797619Y-119077452D01*
X122178571Y-119201261D01*
X123911904Y-118767928D02*
X123911904Y-119820309D01*
X123850000Y-119944119D01*
X123788095Y-120006023D01*
X123664285Y-120067928D01*
X123478571Y-120067928D01*
X123354761Y-120006023D01*
X123911904Y-119572690D02*
X123788095Y-119634595D01*
X123540476Y-119634595D01*
X123416666Y-119572690D01*
X123354761Y-119510785D01*
X123292857Y-119386976D01*
X123292857Y-119015547D01*
X123354761Y-118891738D01*
X123416666Y-118829833D01*
X123540476Y-118767928D01*
X123788095Y-118767928D01*
X123911904Y-118829833D01*
X125088095Y-119634595D02*
X125088095Y-118953642D01*
X125026190Y-118829833D01*
X124902380Y-118767928D01*
X124654761Y-118767928D01*
X124530952Y-118829833D01*
X125088095Y-119572690D02*
X124964285Y-119634595D01*
X124654761Y-119634595D01*
X124530952Y-119572690D01*
X124469047Y-119448880D01*
X124469047Y-119325071D01*
X124530952Y-119201261D01*
X124654761Y-119139357D01*
X124964285Y-119139357D01*
X125088095Y-119077452D01*
X125521428Y-118767928D02*
X126016666Y-118767928D01*
X125707142Y-118334595D02*
X125707142Y-119448880D01*
X125769047Y-119572690D01*
X125892857Y-119634595D01*
X126016666Y-119634595D01*
X126449999Y-119634595D02*
X126449999Y-118767928D01*
X126449999Y-118334595D02*
X126388095Y-118396500D01*
X126449999Y-118458404D01*
X126511904Y-118396500D01*
X126449999Y-118334595D01*
X126449999Y-118458404D01*
X126945238Y-118767928D02*
X127254761Y-119634595D01*
X127564285Y-118767928D01*
X128554761Y-119572690D02*
X128430952Y-119634595D01*
X128183333Y-119634595D01*
X128059523Y-119572690D01*
X127997619Y-119448880D01*
X127997619Y-118953642D01*
X128059523Y-118829833D01*
X128183333Y-118767928D01*
X128430952Y-118767928D01*
X128554761Y-118829833D01*
X128616666Y-118953642D01*
X128616666Y-119077452D01*
X127997619Y-119201261D01*
X129978571Y-118334595D02*
X130411904Y-119634595D01*
X130845238Y-118334595D01*
X131278571Y-119634595D02*
X131278571Y-118767928D01*
X131278571Y-118334595D02*
X131216666Y-118396500D01*
X131278571Y-118458404D01*
X131340476Y-118396500D01*
X131278571Y-118334595D01*
X131278571Y-118458404D01*
X131897619Y-119634595D02*
X131897619Y-118334595D01*
X131897619Y-118829833D02*
X132021428Y-118767928D01*
X132269047Y-118767928D01*
X132392857Y-118829833D01*
X132454761Y-118891738D01*
X132516666Y-119015547D01*
X132516666Y-119386976D01*
X132454761Y-119510785D01*
X132392857Y-119572690D01*
X132269047Y-119634595D01*
X132021428Y-119634595D01*
X131897619Y-119572690D01*
X133569047Y-119572690D02*
X133445238Y-119634595D01*
X133197619Y-119634595D01*
X133073809Y-119572690D01*
X133011904Y-119448880D01*
X133011904Y-118953642D01*
X133073809Y-118829833D01*
X133197619Y-118767928D01*
X133445238Y-118767928D01*
X133569047Y-118829833D01*
X133630952Y-118953642D01*
X133630952Y-119077452D01*
X133011904Y-119201261D01*
X134126190Y-119572690D02*
X134250000Y-119634595D01*
X134497619Y-119634595D01*
X134621428Y-119572690D01*
X134683333Y-119448880D01*
X134683333Y-119386976D01*
X134621428Y-119263166D01*
X134497619Y-119201261D01*
X134311904Y-119201261D01*
X134188095Y-119139357D01*
X134126190Y-119015547D01*
X134126190Y-118953642D01*
X134188095Y-118829833D01*
X134311904Y-118767928D01*
X134497619Y-118767928D01*
X134621428Y-118829833D01*
D10*
%TO.C,C5*%
X130597142Y-125346666D02*
X130644761Y-125394285D01*
X130692380Y-125537142D01*
X130692380Y-125632380D01*
X130644761Y-125775238D01*
X130549523Y-125870476D01*
X130454285Y-125918095D01*
X130263809Y-125965714D01*
X130120952Y-125965714D01*
X129930476Y-125918095D01*
X129835238Y-125870476D01*
X129740000Y-125775238D01*
X129692380Y-125632380D01*
X129692380Y-125537142D01*
X129740000Y-125394285D01*
X129787619Y-125346666D01*
X129692380Y-124441904D02*
X129692380Y-124918095D01*
X130168571Y-124965714D01*
X130120952Y-124918095D01*
X130073333Y-124822857D01*
X130073333Y-124584761D01*
X130120952Y-124489523D01*
X130168571Y-124441904D01*
X130263809Y-124394285D01*
X130501904Y-124394285D01*
X130597142Y-124441904D01*
X130644761Y-124489523D01*
X130692380Y-124584761D01*
X130692380Y-124822857D01*
X130644761Y-124918095D01*
X130597142Y-124965714D01*
%TO.C,C3*%
X130157142Y-132666666D02*
X130204761Y-132714285D01*
X130252380Y-132857142D01*
X130252380Y-132952380D01*
X130204761Y-133095238D01*
X130109523Y-133190476D01*
X130014285Y-133238095D01*
X129823809Y-133285714D01*
X129680952Y-133285714D01*
X129490476Y-133238095D01*
X129395238Y-133190476D01*
X129300000Y-133095238D01*
X129252380Y-132952380D01*
X129252380Y-132857142D01*
X129300000Y-132714285D01*
X129347619Y-132666666D01*
X129252380Y-132333333D02*
X129252380Y-131714285D01*
X129633333Y-132047619D01*
X129633333Y-131904761D01*
X129680952Y-131809523D01*
X129728571Y-131761904D01*
X129823809Y-131714285D01*
X130061904Y-131714285D01*
X130157142Y-131761904D01*
X130204761Y-131809523D01*
X130252380Y-131904761D01*
X130252380Y-132190476D01*
X130204761Y-132285714D01*
X130157142Y-132333333D01*
%TO.C,C2*%
X142354209Y-111157142D02*
X142306590Y-111204761D01*
X142163733Y-111252380D01*
X142068495Y-111252380D01*
X141925637Y-111204761D01*
X141830399Y-111109523D01*
X141782780Y-111014285D01*
X141735161Y-110823809D01*
X141735161Y-110680952D01*
X141782780Y-110490476D01*
X141830399Y-110395238D01*
X141925637Y-110300000D01*
X142068495Y-110252380D01*
X142163733Y-110252380D01*
X142306590Y-110300000D01*
X142354209Y-110347619D01*
X142735161Y-110347619D02*
X142782780Y-110300000D01*
X142878018Y-110252380D01*
X143116114Y-110252380D01*
X143211352Y-110300000D01*
X143258971Y-110347619D01*
X143306590Y-110442857D01*
X143306590Y-110538095D01*
X143258971Y-110680952D01*
X142687542Y-111252380D01*
X143306590Y-111252380D01*
%TO.C,C4*%
X124031809Y-133098531D02*
X124079428Y-133146150D01*
X124127047Y-133289007D01*
X124127047Y-133384245D01*
X124079428Y-133527103D01*
X123984190Y-133622341D01*
X123888952Y-133669960D01*
X123698476Y-133717579D01*
X123555619Y-133717579D01*
X123365143Y-133669960D01*
X123269905Y-133622341D01*
X123174667Y-133527103D01*
X123127047Y-133384245D01*
X123127047Y-133289007D01*
X123174667Y-133146150D01*
X123222286Y-133098531D01*
X123460381Y-132241388D02*
X124127047Y-132241388D01*
X123079428Y-132479484D02*
X123793714Y-132717579D01*
X123793714Y-132098531D01*
X125439303Y-134364783D02*
X125439303Y-134936211D01*
X125439303Y-134650497D02*
X124439303Y-134650497D01*
X124582161Y-134745735D01*
X124677399Y-134840973D01*
X124725018Y-134936211D01*
X124439303Y-133745735D02*
X124439303Y-133650497D01*
X124486923Y-133555259D01*
X124534542Y-133507640D01*
X124629780Y-133460021D01*
X124820256Y-133412402D01*
X125058351Y-133412402D01*
X125248827Y-133460021D01*
X125344065Y-133507640D01*
X125391684Y-133555259D01*
X125439303Y-133650497D01*
X125439303Y-133745735D01*
X125391684Y-133840973D01*
X125344065Y-133888592D01*
X125248827Y-133936211D01*
X125058351Y-133983830D01*
X124820256Y-133983830D01*
X124629780Y-133936211D01*
X124534542Y-133888592D01*
X124486923Y-133840973D01*
X124439303Y-133745735D01*
X124439303Y-132793354D02*
X124439303Y-132698116D01*
X124486923Y-132602878D01*
X124534542Y-132555259D01*
X124629780Y-132507640D01*
X124820256Y-132460021D01*
X125058351Y-132460021D01*
X125248827Y-132507640D01*
X125344065Y-132555259D01*
X125391684Y-132602878D01*
X125439303Y-132698116D01*
X125439303Y-132793354D01*
X125391684Y-132888592D01*
X125344065Y-132936211D01*
X125248827Y-132983830D01*
X125058351Y-133031449D01*
X124820256Y-133031449D01*
X124629780Y-132983830D01*
X124534542Y-132936211D01*
X124486923Y-132888592D01*
X124439303Y-132793354D01*
X124772637Y-132031449D02*
X125439303Y-132031449D01*
X124867875Y-132031449D02*
X124820256Y-131983830D01*
X124772637Y-131888592D01*
X124772637Y-131745735D01*
X124820256Y-131650497D01*
X124915494Y-131602878D01*
X125439303Y-131602878D01*
X124915494Y-130793354D02*
X124915494Y-131126687D01*
X125439303Y-131126687D02*
X124439303Y-131126687D01*
X124439303Y-130650497D01*
%TO.C,D1*%
X143277380Y-132388095D02*
X142277380Y-132388095D01*
X142277380Y-132150000D01*
X142325000Y-132007142D01*
X142420238Y-131911904D01*
X142515476Y-131864285D01*
X142705952Y-131816666D01*
X142848809Y-131816666D01*
X143039285Y-131864285D01*
X143134523Y-131911904D01*
X143229761Y-132007142D01*
X143277380Y-132150000D01*
X143277380Y-132388095D01*
X143277380Y-130864285D02*
X143277380Y-131435714D01*
X143277380Y-131150000D02*
X142277380Y-131150000D01*
X142420238Y-131245238D01*
X142515476Y-131340476D01*
X142563095Y-131435714D01*
X148627380Y-134317857D02*
X148627380Y-134889285D01*
X148627380Y-134603571D02*
X147627380Y-134603571D01*
X147770238Y-134698809D01*
X147865476Y-134794047D01*
X147913095Y-134889285D01*
X148627380Y-133889285D02*
X147627380Y-133889285D01*
X148627380Y-133317857D01*
X147627380Y-133317857D01*
X147960714Y-132413095D02*
X148627380Y-132413095D01*
X147579761Y-132651190D02*
X148294047Y-132889285D01*
X148294047Y-132270238D01*
X147627380Y-131698809D02*
X147627380Y-131603571D01*
X147675000Y-131508333D01*
X147722619Y-131460714D01*
X147817857Y-131413095D01*
X148008333Y-131365476D01*
X148246428Y-131365476D01*
X148436904Y-131413095D01*
X148532142Y-131460714D01*
X148579761Y-131508333D01*
X148627380Y-131603571D01*
X148627380Y-131698809D01*
X148579761Y-131794047D01*
X148532142Y-131841666D01*
X148436904Y-131889285D01*
X148246428Y-131936904D01*
X148008333Y-131936904D01*
X147817857Y-131889285D01*
X147722619Y-131841666D01*
X147675000Y-131794047D01*
X147627380Y-131698809D01*
X147627380Y-130746428D02*
X147627380Y-130651190D01*
X147675000Y-130555952D01*
X147722619Y-130508333D01*
X147817857Y-130460714D01*
X148008333Y-130413095D01*
X148246428Y-130413095D01*
X148436904Y-130460714D01*
X148532142Y-130508333D01*
X148579761Y-130555952D01*
X148627380Y-130651190D01*
X148627380Y-130746428D01*
X148579761Y-130841666D01*
X148532142Y-130889285D01*
X148436904Y-130936904D01*
X148246428Y-130984523D01*
X148008333Y-130984523D01*
X147817857Y-130936904D01*
X147722619Y-130889285D01*
X147675000Y-130841666D01*
X147627380Y-130746428D01*
X147627380Y-130079761D02*
X147627380Y-129413095D01*
X148627380Y-129841666D01*
%TO.C,D2*%
X143377380Y-124788095D02*
X142377380Y-124788095D01*
X142377380Y-124550000D01*
X142425000Y-124407142D01*
X142520238Y-124311904D01*
X142615476Y-124264285D01*
X142805952Y-124216666D01*
X142948809Y-124216666D01*
X143139285Y-124264285D01*
X143234523Y-124311904D01*
X143329761Y-124407142D01*
X143377380Y-124550000D01*
X143377380Y-124788095D01*
X142472619Y-123835714D02*
X142425000Y-123788095D01*
X142377380Y-123692857D01*
X142377380Y-123454761D01*
X142425000Y-123359523D01*
X142472619Y-123311904D01*
X142567857Y-123264285D01*
X142663095Y-123264285D01*
X142805952Y-123311904D01*
X143377380Y-123883333D01*
X143377380Y-123264285D01*
X148677380Y-126042857D02*
X148677380Y-126614285D01*
X148677380Y-126328571D02*
X147677380Y-126328571D01*
X147820238Y-126423809D01*
X147915476Y-126519047D01*
X147963095Y-126614285D01*
X148677380Y-125614285D02*
X147677380Y-125614285D01*
X148677380Y-125042857D01*
X147677380Y-125042857D01*
X148010714Y-124138095D02*
X148677380Y-124138095D01*
X147629761Y-124376190D02*
X148344047Y-124614285D01*
X148344047Y-123995238D01*
X147677380Y-123423809D02*
X147677380Y-123328571D01*
X147725000Y-123233333D01*
X147772619Y-123185714D01*
X147867857Y-123138095D01*
X148058333Y-123090476D01*
X148296428Y-123090476D01*
X148486904Y-123138095D01*
X148582142Y-123185714D01*
X148629761Y-123233333D01*
X148677380Y-123328571D01*
X148677380Y-123423809D01*
X148629761Y-123519047D01*
X148582142Y-123566666D01*
X148486904Y-123614285D01*
X148296428Y-123661904D01*
X148058333Y-123661904D01*
X147867857Y-123614285D01*
X147772619Y-123566666D01*
X147725000Y-123519047D01*
X147677380Y-123423809D01*
X147677380Y-122471428D02*
X147677380Y-122376190D01*
X147725000Y-122280952D01*
X147772619Y-122233333D01*
X147867857Y-122185714D01*
X148058333Y-122138095D01*
X148296428Y-122138095D01*
X148486904Y-122185714D01*
X148582142Y-122233333D01*
X148629761Y-122280952D01*
X148677380Y-122376190D01*
X148677380Y-122471428D01*
X148629761Y-122566666D01*
X148582142Y-122614285D01*
X148486904Y-122661904D01*
X148296428Y-122709523D01*
X148058333Y-122709523D01*
X147867857Y-122661904D01*
X147772619Y-122614285D01*
X147725000Y-122566666D01*
X147677380Y-122471428D01*
X147677380Y-121804761D02*
X147677380Y-121138095D01*
X148677380Y-121566666D01*
%TO.C,U1*%
X134238095Y-120052380D02*
X134238095Y-120861904D01*
X134285714Y-120957142D01*
X134333333Y-121004761D01*
X134428571Y-121052380D01*
X134619047Y-121052380D01*
X134714285Y-121004761D01*
X134761904Y-120957142D01*
X134809523Y-120861904D01*
X134809523Y-120052380D01*
X135809523Y-121052380D02*
X135238095Y-121052380D01*
X135523809Y-121052380D02*
X135523809Y-120052380D01*
X135428571Y-120195238D01*
X135333333Y-120290476D01*
X135238095Y-120338095D01*
X132190476Y-127852380D02*
X132190476Y-126852380D01*
X133238095Y-127757142D02*
X133190476Y-127804761D01*
X133047619Y-127852380D01*
X132952380Y-127852380D01*
X132809523Y-127804761D01*
X132714285Y-127709523D01*
X132666666Y-127614285D01*
X132619047Y-127423809D01*
X132619047Y-127280952D01*
X132666666Y-127090476D01*
X132714285Y-126995238D01*
X132809523Y-126900000D01*
X132952380Y-126852380D01*
X133047619Y-126852380D01*
X133190476Y-126900000D01*
X133238095Y-126947619D01*
X134142857Y-127852380D02*
X133666666Y-127852380D01*
X133666666Y-126852380D01*
X134380952Y-126852380D02*
X135047619Y-126852380D01*
X134619047Y-127852380D01*
X135857142Y-126852380D02*
X135666666Y-126852380D01*
X135571428Y-126900000D01*
X135523809Y-126947619D01*
X135428571Y-127090476D01*
X135380952Y-127280952D01*
X135380952Y-127661904D01*
X135428571Y-127757142D01*
X135476190Y-127804761D01*
X135571428Y-127852380D01*
X135761904Y-127852380D01*
X135857142Y-127804761D01*
X135904761Y-127757142D01*
X135952380Y-127661904D01*
X135952380Y-127423809D01*
X135904761Y-127328571D01*
X135857142Y-127280952D01*
X135761904Y-127233333D01*
X135571428Y-127233333D01*
X135476190Y-127280952D01*
X135428571Y-127328571D01*
X135380952Y-127423809D01*
X136809523Y-126852380D02*
X136619047Y-126852380D01*
X136523809Y-126900000D01*
X136476190Y-126947619D01*
X136380952Y-127090476D01*
X136333333Y-127280952D01*
X136333333Y-127661904D01*
X136380952Y-127757142D01*
X136428571Y-127804761D01*
X136523809Y-127852380D01*
X136714285Y-127852380D01*
X136809523Y-127804761D01*
X136857142Y-127757142D01*
X136904761Y-127661904D01*
X136904761Y-127423809D01*
X136857142Y-127328571D01*
X136809523Y-127280952D01*
X136714285Y-127233333D01*
X136523809Y-127233333D01*
X136428571Y-127280952D01*
X136380952Y-127328571D01*
X136333333Y-127423809D01*
X137523809Y-126852380D02*
X137619047Y-126852380D01*
X137714285Y-126900000D01*
X137761904Y-126947619D01*
X137809523Y-127042857D01*
X137857142Y-127233333D01*
X137857142Y-127471428D01*
X137809523Y-127661904D01*
X137761904Y-127757142D01*
X137714285Y-127804761D01*
X137619047Y-127852380D01*
X137523809Y-127852380D01*
X137428571Y-127804761D01*
X137380952Y-127757142D01*
X137333333Y-127661904D01*
X137285714Y-127471428D01*
X137285714Y-127233333D01*
X137333333Y-127042857D01*
X137380952Y-126947619D01*
X137428571Y-126900000D01*
X137523809Y-126852380D01*
%TO.C,C1*%
X142082142Y-126141666D02*
X142129761Y-126189285D01*
X142177380Y-126332142D01*
X142177380Y-126427380D01*
X142129761Y-126570238D01*
X142034523Y-126665476D01*
X141939285Y-126713095D01*
X141748809Y-126760714D01*
X141605952Y-126760714D01*
X141415476Y-126713095D01*
X141320238Y-126665476D01*
X141225000Y-126570238D01*
X141177380Y-126427380D01*
X141177380Y-126332142D01*
X141225000Y-126189285D01*
X141272619Y-126141666D01*
X142177380Y-125189285D02*
X142177380Y-125760714D01*
X142177380Y-125475000D02*
X141177380Y-125475000D01*
X141320238Y-125570238D01*
X141415476Y-125665476D01*
X141463095Y-125760714D01*
X140852380Y-125247619D02*
X140852380Y-125819047D01*
X140852380Y-125533333D02*
X139852380Y-125533333D01*
X139995238Y-125628571D01*
X140090476Y-125723809D01*
X140138095Y-125819047D01*
X139852380Y-124628571D02*
X139852380Y-124533333D01*
X139900000Y-124438095D01*
X139947619Y-124390476D01*
X140042857Y-124342857D01*
X140233333Y-124295238D01*
X140471428Y-124295238D01*
X140661904Y-124342857D01*
X140757142Y-124390476D01*
X140804761Y-124438095D01*
X140852380Y-124533333D01*
X140852380Y-124628571D01*
X140804761Y-124723809D01*
X140757142Y-124771428D01*
X140661904Y-124819047D01*
X140471428Y-124866666D01*
X140233333Y-124866666D01*
X140042857Y-124819047D01*
X139947619Y-124771428D01*
X139900000Y-124723809D01*
X139852380Y-124628571D01*
X139852380Y-123676190D02*
X139852380Y-123580952D01*
X139900000Y-123485714D01*
X139947619Y-123438095D01*
X140042857Y-123390476D01*
X140233333Y-123342857D01*
X140471428Y-123342857D01*
X140661904Y-123390476D01*
X140757142Y-123438095D01*
X140804761Y-123485714D01*
X140852380Y-123580952D01*
X140852380Y-123676190D01*
X140804761Y-123771428D01*
X140757142Y-123819047D01*
X140661904Y-123866666D01*
X140471428Y-123914285D01*
X140233333Y-123914285D01*
X140042857Y-123866666D01*
X139947619Y-123819047D01*
X139900000Y-123771428D01*
X139852380Y-123676190D01*
X140185714Y-122914285D02*
X140852380Y-122914285D01*
X140280952Y-122914285D02*
X140233333Y-122866666D01*
X140185714Y-122771428D01*
X140185714Y-122628571D01*
X140233333Y-122533333D01*
X140328571Y-122485714D01*
X140852380Y-122485714D01*
X140328571Y-121676190D02*
X140328571Y-122009523D01*
X140852380Y-122009523D02*
X139852380Y-122009523D01*
X139852380Y-121533333D01*
D12*
%TO.C,C5*%
X128235563Y-122920000D02*
X129300000Y-123984437D01*
X124780000Y-127440000D02*
X125980000Y-127440000D01*
X128600000Y-122180000D02*
X128600000Y-122680000D01*
X124780000Y-123984437D02*
X124780000Y-127440000D01*
X129300000Y-123984437D02*
X129300000Y-127440000D01*
X129300000Y-127440000D02*
X128100000Y-127440000D01*
X128235563Y-122920000D02*
X128100000Y-122920000D01*
X125844437Y-122920000D02*
X125980000Y-122920000D01*
X125844437Y-122920000D02*
X124780000Y-123984437D01*
X128850000Y-122430000D02*
X128350000Y-122430000D01*
%TO.C,C3*%
X131804437Y-134760000D02*
X130740000Y-133695563D01*
X135260000Y-130240000D02*
X134060000Y-130240000D01*
X131440000Y-135500000D02*
X131440000Y-135000000D01*
X135260000Y-133695563D02*
X135260000Y-130240000D01*
X130740000Y-133695563D02*
X130740000Y-130240000D01*
X130740000Y-130240000D02*
X131940000Y-130240000D01*
X131804437Y-134760000D02*
X131940000Y-134760000D01*
X134195563Y-134760000D02*
X134060000Y-134760000D01*
X134195563Y-134760000D02*
X135260000Y-133695563D01*
X131190000Y-135250000D02*
X131690000Y-135250000D01*
%TO.C,C2*%
X140260876Y-112804437D02*
X141325313Y-111740000D01*
X144780876Y-116260000D02*
X144780876Y-115060000D01*
X139520876Y-112440000D02*
X140020876Y-112440000D01*
X141325313Y-116260000D02*
X144780876Y-116260000D01*
X141325313Y-111740000D02*
X144780876Y-111740000D01*
X144780876Y-111740000D02*
X144780876Y-112940000D01*
X140260876Y-112804437D02*
X140260876Y-112940000D01*
X140260876Y-115195563D02*
X140260876Y-115060000D01*
X140260876Y-115195563D02*
X141325313Y-116260000D01*
X139770876Y-112190000D02*
X139770876Y-112690000D01*
%TO.C,C4*%
X126485000Y-133032836D02*
X126485000Y-132817164D01*
X125765000Y-133032836D02*
X125765000Y-132817164D01*
%TO.C,D1*%
X143850000Y-128600000D02*
X143850000Y-134000000D01*
X147150000Y-128600000D02*
X143850000Y-128600000D01*
X147150000Y-128600000D02*
X147150000Y-134000000D01*
%TO.C,D2*%
X147150000Y-120600000D02*
X147150000Y-126000000D01*
X143850000Y-120600000D02*
X143850000Y-126000000D01*
X147150000Y-120600000D02*
X143850000Y-120600000D01*
%TO.C,U1*%
X135000000Y-126560000D02*
X136950000Y-126560000D01*
X135000000Y-121440000D02*
X131550000Y-121440000D01*
X135000000Y-121440000D02*
X136950000Y-121440000D01*
X135000000Y-126560000D02*
X133050000Y-126560000D01*
%TO.C,C1*%
X141165000Y-122942164D02*
X141165000Y-123157836D01*
X141885000Y-122942164D02*
X141885000Y-123157836D01*
%TD*%
M02*
