M48
; DRILL file {KiCad (6.0.7-1)-1} date 2022 November 04, Friday 13:47:20
; FORMAT={-:-/ absolute / inch / decimal}
; #@! TF.CreationDate,2022-11-04T13:47:20+01:00
; #@! TF.GenerationSoftware,Kicad,Pcbnew,(6.0.7-1)-1
; #@! TF.FileFunction,Plated,1,2,PTH
FMAT,2
INCH
; #@! TA.AperFunction,Plated,PTH,ViaDrill
T1C0.0157
; #@! TA.AperFunction,Plated,PTH,ComponentDrill
T2C0.0394
%
G90
G05
T1
X3.3661Y-3.2677
X3.4252Y-2.5591
X3.5479Y-3.0784
X3.8811Y-3.0863
X3.937Y-2.4803
X3.9764Y-1.9685
X4.0945Y-2.9921
X4.1142Y-2.3031
X4.1142Y-2.7362
X4.1339Y-2.9921
X4.1732Y-2.3031
X4.1732Y-2.9528
X4.2323Y-2.7362
X4.4488Y-2.6575
X4.6063Y-2.0079
X4.6457Y-3.0709
X4.6457Y-3.3071
X4.685Y-3.0709
T2
X4.1179Y-2.9368
X4.1179Y-3.1533
X4.2126Y-2.5197
X4.3148Y-2.9368
X4.3148Y-3.1533
X4.6673Y-2.9485
X4.6673Y-3.1454
T0
M30
