%TF.GenerationSoftware,KiCad,Pcbnew,(6.0.7-1)-1*%
%TF.CreationDate,2022-10-13T12:07:10+02:00*%
%TF.ProjectId,tr707minus10v_kicad,74723730-376d-4696-9e75-733130765f6b,rev?*%
%TF.SameCoordinates,Original*%
%TF.FileFunction,Legend,Top*%
%TF.FilePolarity,Positive*%
%FSLAX46Y46*%
G04 Gerber Fmt 4.6, Leading zero omitted, Abs format (unit mm)*
G04 Created by KiCad (PCBNEW (6.0.7-1)-1) date 2022-10-13 12:07:10*
%MOMM*%
%LPD*%
G01*
G04 APERTURE LIST*
G04 Aperture macros list*
%AMRoundRect*
0 Rectangle with rounded corners*
0 $1 Rounding radius*
0 $2 $3 $4 $5 $6 $7 $8 $9 X,Y pos of 4 corners*
0 Add a 4 corners polygon primitive as box body*
4,1,4,$2,$3,$4,$5,$6,$7,$8,$9,$2,$3,0*
0 Add four circle primitives for the rounded corners*
1,1,$1+$1,$2,$3*
1,1,$1+$1,$4,$5*
1,1,$1+$1,$6,$7*
1,1,$1+$1,$8,$9*
0 Add four rect primitives between the rounded corners*
20,1,$1+$1,$2,$3,$4,$5,0*
20,1,$1+$1,$4,$5,$6,$7,0*
20,1,$1+$1,$6,$7,$8,$9,0*
20,1,$1+$1,$8,$9,$2,$3,0*%
%AMFreePoly0*
4,1,20,0.000000,0.744959,0.073905,0.744508,0.209726,0.703889,0.328688,0.626782,0.421226,0.519385,0.479903,0.390333,0.500000,0.250000,0.500000,-0.250000,0.499851,-0.262216,0.476331,-0.402017,0.414519,-0.529596,0.319384,-0.634700,0.198574,-0.708877,0.061801,-0.746166,0.000000,-0.745033,0.000000,-0.750000,-0.500000,-0.750000,-0.500000,0.750000,0.000000,0.750000,0.000000,0.744959,
0.000000,0.744959,$1*%
%AMFreePoly1*
4,1,22,0.500000,-0.750000,0.000000,-0.750000,0.000000,-0.745033,-0.079941,-0.743568,-0.215256,-0.701293,-0.333266,-0.622738,-0.424486,-0.514219,-0.481581,-0.384460,-0.499164,-0.250000,-0.500000,-0.250000,-0.500000,0.250000,-0.499164,0.250000,-0.499963,0.256109,-0.478152,0.396186,-0.417904,0.524511,-0.324060,0.630769,-0.204165,0.706417,-0.067858,0.745374,0.000000,0.744959,0.000000,0.750000,
0.500000,0.750000,0.500000,-0.750000,0.500000,-0.750000,$1*%
G04 Aperture macros list end*
%ADD10C,0.150000*%
%ADD11C,0.250000*%
%ADD12C,0.300000*%
%ADD13C,0.120000*%
%ADD14C,0.050000*%
%ADD15FreePoly0,0.000000*%
%ADD16FreePoly1,0.000000*%
%ADD17R,1.800000X2.500000*%
%ADD18RoundRect,0.250000X-0.550000X1.500000X-0.550000X-1.500000X0.550000X-1.500000X0.550000X1.500000X0*%
%ADD19RoundRect,0.250000X-1.750000X-1.000000X1.750000X-1.000000X1.750000X1.000000X-1.750000X1.000000X0*%
%ADD20RoundRect,0.250000X-0.650000X0.412500X-0.650000X-0.412500X0.650000X-0.412500X0.650000X0.412500X0*%
%ADD21RoundRect,0.150000X-0.150000X0.825000X-0.150000X-0.825000X0.150000X-0.825000X0.150000X0.825000X0*%
%ADD22R,2.000000X2.000000*%
%ADD23C,2.000000*%
%ADD24R,1.700000X1.700000*%
G04 APERTURE END LIST*
D10*
X3904761Y7833334D02*
X3952380Y7928572D01*
X3952380Y8119048D01*
X3904761Y8214286D01*
X3809523Y8261905D01*
X3761904Y8261905D01*
X3666666Y8214286D01*
X3619047Y8119048D01*
X3619047Y7976191D01*
X3571428Y7880953D01*
X3476190Y7833334D01*
X3428571Y7833334D01*
X3333333Y7880953D01*
X3285714Y7976191D01*
X3285714Y8119048D01*
X3333333Y8214286D01*
X3285714Y8595239D02*
X3952380Y8833334D01*
X3285714Y9071429D02*
X3952380Y8833334D01*
X4190476Y8738096D01*
X4238095Y8690477D01*
X4285714Y8595239D01*
X3285714Y9452381D02*
X3952380Y9452381D01*
X3380952Y9452381D02*
X3333333Y9500000D01*
X3285714Y9595239D01*
X3285714Y9738096D01*
X3333333Y9833334D01*
X3428571Y9880953D01*
X3952380Y9880953D01*
X3285714Y10214286D02*
X3285714Y10595239D01*
X2952380Y10357143D02*
X3809523Y10357143D01*
X3904761Y10404762D01*
X3952380Y10500000D01*
X3952380Y10595239D01*
X3952380Y10928572D02*
X2952380Y10928572D01*
X3952380Y11357143D02*
X3428571Y11357143D01*
X3333333Y11309524D01*
X3285714Y11214286D01*
X3285714Y11071429D01*
X3333333Y10976191D01*
X3380952Y10928572D01*
X3857142Y11833334D02*
X3904761Y11880953D01*
X3952380Y11833334D01*
X3904761Y11785715D01*
X3857142Y11833334D01*
X3952380Y11833334D01*
X3904761Y12690477D02*
X3952380Y12595239D01*
X3952380Y12404762D01*
X3904761Y12309524D01*
X3809523Y12261905D01*
X3428571Y12261905D01*
X3333333Y12309524D01*
X3285714Y12404762D01*
X3285714Y12595239D01*
X3333333Y12690477D01*
X3428571Y12738096D01*
X3523809Y12738096D01*
X3619047Y12261905D01*
X3285714Y13071429D02*
X3952380Y13261905D01*
X3476190Y13452381D01*
X3952380Y13642858D01*
X3285714Y13833334D01*
X3952380Y14642858D02*
X3428571Y14642858D01*
X3333333Y14595239D01*
X3285714Y14500000D01*
X3285714Y14309524D01*
X3333333Y14214286D01*
X3904761Y14642858D02*
X3952380Y14547620D01*
X3952380Y14309524D01*
X3904761Y14214286D01*
X3809523Y14166667D01*
X3714285Y14166667D01*
X3619047Y14214286D01*
X3571428Y14309524D01*
X3571428Y14547620D01*
X3523809Y14642858D01*
X3285714Y15119048D02*
X3952380Y15119048D01*
X3380952Y15119048D02*
X3333333Y15166667D01*
X3285714Y15261905D01*
X3285714Y15404762D01*
X3333333Y15500000D01*
X3428571Y15547620D01*
X3952380Y15547620D01*
X3904761Y16452381D02*
X3952380Y16357143D01*
X3952380Y16166667D01*
X3904761Y16071429D01*
X3857142Y16023810D01*
X3761904Y15976191D01*
X3476190Y15976191D01*
X3380952Y16023810D01*
X3333333Y16071429D01*
X3285714Y16166667D01*
X3285714Y16357143D01*
X3333333Y16452381D01*
X3952380Y17023810D02*
X3904761Y16928572D01*
X3857142Y16880953D01*
X3761904Y16833334D01*
X3476190Y16833334D01*
X3380952Y16880953D01*
X3333333Y16928572D01*
X3285714Y17023810D01*
X3285714Y17166667D01*
X3333333Y17261905D01*
X3380952Y17309524D01*
X3476190Y17357143D01*
X3761904Y17357143D01*
X3857142Y17309524D01*
X3904761Y17261905D01*
X3952380Y17166667D01*
X3952380Y17023810D01*
X3952380Y17928572D02*
X3904761Y17833334D01*
X3809523Y17785715D01*
X2952380Y17785715D01*
X3904761Y18261905D02*
X3952380Y18357143D01*
X3952380Y18547620D01*
X3904761Y18642858D01*
X3809523Y18690477D01*
X3761904Y18690477D01*
X3666666Y18642858D01*
X3619047Y18547620D01*
X3619047Y18404762D01*
X3571428Y18309524D01*
X3476190Y18261905D01*
X3428571Y18261905D01*
X3333333Y18309524D01*
X3285714Y18404762D01*
X3285714Y18547620D01*
X3333333Y18642858D01*
X3904761Y19500000D02*
X3952380Y19404762D01*
X3952380Y19214286D01*
X3904761Y19119048D01*
X3809523Y19071429D01*
X3428571Y19071429D01*
X3333333Y19119048D01*
X3285714Y19214286D01*
X3285714Y19404762D01*
X3333333Y19500000D01*
X3428571Y19547620D01*
X3523809Y19547620D01*
X3619047Y19071429D01*
X3952380Y20119048D02*
X3904761Y20023810D01*
X3809523Y19976191D01*
X2952380Y19976191D01*
X3952380Y20642858D02*
X3904761Y20547620D01*
X3809523Y20500000D01*
X2952380Y20500000D01*
X3857142Y21023810D02*
X3904761Y21071429D01*
X3952380Y21023810D01*
X3904761Y20976191D01*
X3857142Y21023810D01*
X3952380Y21023810D01*
X3904761Y21928572D02*
X3952380Y21833334D01*
X3952380Y21642858D01*
X3904761Y21547620D01*
X3857142Y21500000D01*
X3761904Y21452381D01*
X3476190Y21452381D01*
X3380952Y21500000D01*
X3333333Y21547620D01*
X3285714Y21642858D01*
X3285714Y21833334D01*
X3333333Y21928572D01*
X3952380Y22500000D02*
X3904761Y22404762D01*
X3857142Y22357143D01*
X3761904Y22309524D01*
X3476190Y22309524D01*
X3380952Y22357143D01*
X3333333Y22404762D01*
X3285714Y22500000D01*
X3285714Y22642858D01*
X3333333Y22738096D01*
X3380952Y22785715D01*
X3476190Y22833334D01*
X3761904Y22833334D01*
X3857142Y22785715D01*
X3904761Y22738096D01*
X3952380Y22642858D01*
X3952380Y22500000D01*
X3952380Y23261905D02*
X3285714Y23261905D01*
X3380952Y23261905D02*
X3333333Y23309524D01*
X3285714Y23404762D01*
X3285714Y23547620D01*
X3333333Y23642858D01*
X3428571Y23690477D01*
X3952380Y23690477D01*
X3428571Y23690477D02*
X3333333Y23738096D01*
X3285714Y23833334D01*
X3285714Y23976191D01*
X3333333Y24071429D01*
X3428571Y24119048D01*
X3952380Y24119048D01*
D11*
X24500000Y14738096D02*
X24452380Y14642858D01*
X24452380Y14500000D01*
X24500000Y14357143D01*
X24595238Y14261905D01*
X24690476Y14214286D01*
X24880952Y14166667D01*
X25023809Y14166667D01*
X25214285Y14214286D01*
X25309523Y14261905D01*
X25404761Y14357143D01*
X25452380Y14500000D01*
X25452380Y14595239D01*
X25404761Y14738096D01*
X25357142Y14785715D01*
X25023809Y14785715D01*
X25023809Y14595239D01*
X25452380Y15214286D02*
X24452380Y15214286D01*
X25452380Y15785715D01*
X24452380Y15785715D01*
X25452380Y16261905D02*
X24452380Y16261905D01*
X24452380Y16500000D01*
X24500000Y16642858D01*
X24595238Y16738096D01*
X24690476Y16785715D01*
X24880952Y16833334D01*
X25023809Y16833334D01*
X25214285Y16785715D01*
X25309523Y16738096D01*
X25404761Y16642858D01*
X25452380Y16500000D01*
X25452380Y16261905D01*
D12*
X6771428Y6657143D02*
X7457142Y6657143D01*
X7114285Y5457143D02*
X7114285Y6657143D01*
X8542857Y5457143D02*
X8142857Y6028572D01*
X7857142Y5457143D02*
X7857142Y6657143D01*
X8314285Y6657143D01*
X8428571Y6600000D01*
X8485714Y6542858D01*
X8542857Y6428572D01*
X8542857Y6257143D01*
X8485714Y6142858D01*
X8428571Y6085715D01*
X8314285Y6028572D01*
X7857142Y6028572D01*
X8942857Y6657143D02*
X9742857Y6657143D01*
X9228571Y5457143D01*
X10428571Y6657143D02*
X10542857Y6657143D01*
X10657142Y6600000D01*
X10714285Y6542858D01*
X10771428Y6428572D01*
X10828571Y6200000D01*
X10828571Y5914286D01*
X10771428Y5685715D01*
X10714285Y5571429D01*
X10657142Y5514286D01*
X10542857Y5457143D01*
X10428571Y5457143D01*
X10314285Y5514286D01*
X10257142Y5571429D01*
X10200000Y5685715D01*
X10142857Y5914286D01*
X10142857Y6200000D01*
X10200000Y6428572D01*
X10257142Y6542858D01*
X10314285Y6600000D01*
X10428571Y6657143D01*
X11228571Y6657143D02*
X12028571Y6657143D01*
X11514285Y5457143D01*
X13400000Y5457143D02*
X13400000Y6657143D01*
X14085714Y5457143D01*
X14085714Y6657143D01*
X15114285Y5514286D02*
X15000000Y5457143D01*
X14771428Y5457143D01*
X14657142Y5514286D01*
X14600000Y5628572D01*
X14600000Y6085715D01*
X14657142Y6200000D01*
X14771428Y6257143D01*
X15000000Y6257143D01*
X15114285Y6200000D01*
X15171428Y6085715D01*
X15171428Y5971429D01*
X14600000Y5857143D01*
X16200000Y6257143D02*
X16200000Y5285715D01*
X16142857Y5171429D01*
X16085714Y5114286D01*
X15971428Y5057143D01*
X15800000Y5057143D01*
X15685714Y5114286D01*
X16200000Y5514286D02*
X16085714Y5457143D01*
X15857142Y5457143D01*
X15742857Y5514286D01*
X15685714Y5571429D01*
X15628571Y5685715D01*
X15628571Y6028572D01*
X15685714Y6142858D01*
X15742857Y6200000D01*
X15857142Y6257143D01*
X16085714Y6257143D01*
X16200000Y6200000D01*
X17285714Y5457143D02*
X17285714Y6085715D01*
X17228571Y6200000D01*
X17114285Y6257143D01*
X16885714Y6257143D01*
X16771428Y6200000D01*
X17285714Y5514286D02*
X17171428Y5457143D01*
X16885714Y5457143D01*
X16771428Y5514286D01*
X16714285Y5628572D01*
X16714285Y5742858D01*
X16771428Y5857143D01*
X16885714Y5914286D01*
X17171428Y5914286D01*
X17285714Y5971429D01*
X17685714Y6257143D02*
X18142857Y6257143D01*
X17857142Y6657143D02*
X17857142Y5628572D01*
X17914285Y5514286D01*
X18028571Y5457143D01*
X18142857Y5457143D01*
X18542857Y5457143D02*
X18542857Y6257143D01*
X18542857Y6657143D02*
X18485714Y6600000D01*
X18542857Y6542858D01*
X18600000Y6600000D01*
X18542857Y6657143D01*
X18542857Y6542858D01*
X19000000Y6257143D02*
X19285714Y5457143D01*
X19571428Y6257143D01*
X20485714Y5514286D02*
X20371428Y5457143D01*
X20142857Y5457143D01*
X20028571Y5514286D01*
X19971428Y5628572D01*
X19971428Y6085715D01*
X20028571Y6200000D01*
X20142857Y6257143D01*
X20371428Y6257143D01*
X20485714Y6200000D01*
X20542857Y6085715D01*
X20542857Y5971429D01*
X19971428Y5857143D01*
X21800000Y6657143D02*
X22200000Y5457143D01*
X22600000Y6657143D01*
X23000000Y5457143D02*
X23000000Y6257143D01*
X23000000Y6657143D02*
X22942857Y6600000D01*
X23000000Y6542858D01*
X23057142Y6600000D01*
X23000000Y6657143D01*
X23000000Y6542858D01*
X23571428Y5457143D02*
X23571428Y6657143D01*
X23571428Y6200000D02*
X23685714Y6257143D01*
X23914285Y6257143D01*
X24028571Y6200000D01*
X24085714Y6142858D01*
X24142857Y6028572D01*
X24142857Y5685715D01*
X24085714Y5571429D01*
X24028571Y5514286D01*
X23914285Y5457143D01*
X23685714Y5457143D01*
X23571428Y5514286D01*
X25114285Y5514286D02*
X25000000Y5457143D01*
X24771428Y5457143D01*
X24657142Y5514286D01*
X24600000Y5628572D01*
X24600000Y6085715D01*
X24657142Y6200000D01*
X24771428Y6257143D01*
X25000000Y6257143D01*
X25114285Y6200000D01*
X25171428Y6085715D01*
X25171428Y5971429D01*
X24600000Y5857143D01*
X25628571Y5514286D02*
X25742857Y5457143D01*
X25971428Y5457143D01*
X26085714Y5514286D01*
X26142857Y5628572D01*
X26142857Y5685715D01*
X26085714Y5800000D01*
X25971428Y5857143D01*
X25800000Y5857143D01*
X25685714Y5914286D01*
X25628571Y6028572D01*
X25628571Y6085715D01*
X25685714Y6200000D01*
X25800000Y6257143D01*
X25971428Y6257143D01*
X26085714Y6200000D01*
X27457142Y6257143D02*
X27742857Y5457143D01*
X28028571Y6257143D01*
X28428571Y6542858D02*
X28485714Y6600000D01*
X28600000Y6657143D01*
X28885714Y6657143D01*
X29000000Y6600000D01*
X29057142Y6542858D01*
X29114285Y6428572D01*
X29114285Y6314286D01*
X29057142Y6142858D01*
X28371428Y5457143D01*
X29114285Y5457143D01*
D10*
X3918809Y25919286D02*
X4299761Y25919286D01*
X4061666Y26252620D02*
X4061666Y25395477D01*
X4109285Y25300239D01*
X4204523Y25252620D01*
X4299761Y25252620D01*
X4633095Y25252620D02*
X4633095Y26252620D01*
X5061666Y25252620D02*
X5061666Y25776429D01*
X5014047Y25871667D01*
X4918809Y25919286D01*
X4775952Y25919286D01*
X4680714Y25871667D01*
X4633095Y25824048D01*
X5537857Y25252620D02*
X5537857Y25919286D01*
X5537857Y26252620D02*
X5490238Y26205000D01*
X5537857Y26157381D01*
X5585476Y26205000D01*
X5537857Y26252620D01*
X5537857Y26157381D01*
X5966428Y25300239D02*
X6061666Y25252620D01*
X6252142Y25252620D01*
X6347380Y25300239D01*
X6395000Y25395477D01*
X6395000Y25443096D01*
X6347380Y25538334D01*
X6252142Y25585953D01*
X6109285Y25585953D01*
X6014047Y25633572D01*
X5966428Y25728810D01*
X5966428Y25776429D01*
X6014047Y25871667D01*
X6109285Y25919286D01*
X6252142Y25919286D01*
X6347380Y25871667D01*
X7537857Y25300239D02*
X7633095Y25252620D01*
X7823571Y25252620D01*
X7918809Y25300239D01*
X7966428Y25395477D01*
X7966428Y25443096D01*
X7918809Y25538334D01*
X7823571Y25585953D01*
X7680714Y25585953D01*
X7585476Y25633572D01*
X7537857Y25728810D01*
X7537857Y25776429D01*
X7585476Y25871667D01*
X7680714Y25919286D01*
X7823571Y25919286D01*
X7918809Y25871667D01*
X8395000Y25252620D02*
X8395000Y25919286D01*
X8395000Y26252620D02*
X8347380Y26205000D01*
X8395000Y26157381D01*
X8442619Y26205000D01*
X8395000Y26252620D01*
X8395000Y26157381D01*
X9299761Y25252620D02*
X9299761Y26252620D01*
X9299761Y25300239D02*
X9204523Y25252620D01*
X9014047Y25252620D01*
X8918809Y25300239D01*
X8871190Y25347858D01*
X8823571Y25443096D01*
X8823571Y25728810D01*
X8871190Y25824048D01*
X8918809Y25871667D01*
X9014047Y25919286D01*
X9204523Y25919286D01*
X9299761Y25871667D01*
X10156904Y25300239D02*
X10061666Y25252620D01*
X9871190Y25252620D01*
X9775952Y25300239D01*
X9728333Y25395477D01*
X9728333Y25776429D01*
X9775952Y25871667D01*
X9871190Y25919286D01*
X10061666Y25919286D01*
X10156904Y25871667D01*
X10204523Y25776429D01*
X10204523Y25681191D01*
X9728333Y25585953D01*
X11823571Y25919286D02*
X11823571Y25252620D01*
X11395000Y25919286D02*
X11395000Y25395477D01*
X11442619Y25300239D01*
X11537857Y25252620D01*
X11680714Y25252620D01*
X11775952Y25300239D01*
X11823571Y25347858D01*
X12299761Y25919286D02*
X12299761Y24919286D01*
X12299761Y25871667D02*
X12395000Y25919286D01*
X12585476Y25919286D01*
X12680714Y25871667D01*
X12728333Y25824048D01*
X12775952Y25728810D01*
X12775952Y25443096D01*
X12728333Y25347858D01*
X12680714Y25300239D01*
X12585476Y25252620D01*
X12395000Y25252620D01*
X12299761Y25300239D01*
X37547619Y38571429D02*
X37547619Y38000000D01*
X36547619Y38285715D02*
X37547619Y38285715D01*
X36547619Y37523810D02*
X36595238Y37619048D01*
X36642857Y37666667D01*
X36738095Y37714286D01*
X37023809Y37714286D01*
X37119047Y37666667D01*
X37166666Y37619048D01*
X37214285Y37523810D01*
X37214285Y37380953D01*
X37166666Y37285715D01*
X37119047Y37238096D01*
X37023809Y37190477D01*
X36738095Y37190477D01*
X36642857Y37238096D01*
X36595238Y37285715D01*
X36547619Y37380953D01*
X36547619Y37523810D01*
X36547619Y36761905D02*
X37214285Y36761905D01*
X37023809Y36761905D02*
X37119047Y36714286D01*
X37166666Y36666667D01*
X37214285Y36571429D01*
X37214285Y36476191D01*
X36547619Y36142858D02*
X37214285Y36142858D01*
X37547619Y36142858D02*
X37500000Y36190477D01*
X37452380Y36142858D01*
X37500000Y36095239D01*
X37547619Y36142858D01*
X37452380Y36142858D01*
X37214285Y35666667D02*
X36547619Y35666667D01*
X37119047Y35666667D02*
X37166666Y35619048D01*
X37214285Y35523810D01*
X37214285Y35380953D01*
X37166666Y35285715D01*
X37071428Y35238096D01*
X36547619Y35238096D01*
X36547619Y34619048D02*
X36595238Y34714286D01*
X36642857Y34761905D01*
X36738095Y34809524D01*
X37023809Y34809524D01*
X37119047Y34761905D01*
X37166666Y34714286D01*
X37214285Y34619048D01*
X37214285Y34476191D01*
X37166666Y34380953D01*
X37119047Y34333334D01*
X37023809Y34285715D01*
X36738095Y34285715D01*
X36642857Y34333334D01*
X36595238Y34380953D01*
X36547619Y34476191D01*
X36547619Y34619048D01*
X36595238Y33142858D02*
X36547619Y33000000D01*
X36547619Y32761905D01*
X36595238Y32666667D01*
X36642857Y32619048D01*
X36738095Y32571429D01*
X36833333Y32571429D01*
X36928571Y32619048D01*
X36976190Y32666667D01*
X37023809Y32761905D01*
X37071428Y32952381D01*
X37119047Y33047620D01*
X37166666Y33095239D01*
X37261904Y33142858D01*
X37357142Y33142858D01*
X37452380Y33095239D01*
X37500000Y33047620D01*
X37547619Y32952381D01*
X37547619Y32714286D01*
X37500000Y32571429D01*
X37214285Y32238096D02*
X36547619Y32000000D01*
X37214285Y31761905D02*
X36547619Y32000000D01*
X36309523Y32095239D01*
X36261904Y32142858D01*
X36214285Y32238096D01*
X37214285Y31380953D02*
X36547619Y31380953D01*
X37119047Y31380953D02*
X37166666Y31333334D01*
X37214285Y31238096D01*
X37214285Y31095239D01*
X37166666Y31000000D01*
X37071428Y30952381D01*
X36547619Y30952381D01*
X37214285Y30619048D02*
X37214285Y30238096D01*
X37547619Y30476191D02*
X36690476Y30476191D01*
X36595238Y30428572D01*
X36547619Y30333334D01*
X36547619Y30238096D01*
X36547619Y29904762D02*
X37547619Y29904762D01*
X36547619Y29476191D02*
X37071428Y29476191D01*
X37166666Y29523810D01*
X37214285Y29619048D01*
X37214285Y29761905D01*
X37166666Y29857143D01*
X37119047Y29904762D01*
X36547619Y27666667D02*
X37023809Y28000000D01*
X36547619Y28238096D02*
X37547619Y28238096D01*
X37547619Y27857143D01*
X37500000Y27761905D01*
X37452380Y27714286D01*
X37357142Y27666667D01*
X37214285Y27666667D01*
X37119047Y27714286D01*
X37071428Y27761905D01*
X37023809Y27857143D01*
X37023809Y28238096D01*
X36595238Y26857143D02*
X36547619Y26952381D01*
X36547619Y27142858D01*
X36595238Y27238096D01*
X36690476Y27285715D01*
X37071428Y27285715D01*
X37166666Y27238096D01*
X37214285Y27142858D01*
X37214285Y26952381D01*
X37166666Y26857143D01*
X37071428Y26809524D01*
X36976190Y26809524D01*
X36880952Y27285715D01*
X37214285Y26380953D02*
X36214285Y26380953D01*
X37166666Y26380953D02*
X37214285Y26285715D01*
X37214285Y26095239D01*
X37166666Y26000000D01*
X37119047Y25952381D01*
X37023809Y25904762D01*
X36738095Y25904762D01*
X36642857Y25952381D01*
X36595238Y26000000D01*
X36547619Y26095239D01*
X36547619Y26285715D01*
X36595238Y26380953D01*
X36547619Y25047620D02*
X37071428Y25047620D01*
X37166666Y25095239D01*
X37214285Y25190477D01*
X37214285Y25380953D01*
X37166666Y25476191D01*
X36595238Y25047620D02*
X36547619Y25142858D01*
X36547619Y25380953D01*
X36595238Y25476191D01*
X36690476Y25523810D01*
X36785714Y25523810D01*
X36880952Y25476191D01*
X36928571Y25380953D01*
X36928571Y25142858D01*
X36976190Y25047620D01*
X36547619Y24571429D02*
X37214285Y24571429D01*
X37547619Y24571429D02*
X37500000Y24619048D01*
X37452380Y24571429D01*
X37500000Y24523810D01*
X37547619Y24571429D01*
X37452380Y24571429D01*
X36547619Y24095239D02*
X37214285Y24095239D01*
X37023809Y24095239D02*
X37119047Y24047620D01*
X37166666Y24000000D01*
X37214285Y23904762D01*
X37214285Y23809524D01*
X36547619Y22238096D02*
X36547619Y22714286D01*
X37547619Y22714286D01*
X36547619Y21476191D02*
X37071428Y21476191D01*
X37166666Y21523810D01*
X37214285Y21619048D01*
X37214285Y21809524D01*
X37166666Y21904762D01*
X36595238Y21476191D02*
X36547619Y21571429D01*
X36547619Y21809524D01*
X36595238Y21904762D01*
X36690476Y21952381D01*
X36785714Y21952381D01*
X36880952Y21904762D01*
X36928571Y21809524D01*
X36928571Y21571429D01*
X36976190Y21476191D01*
X36547619Y21000000D02*
X37547619Y21000000D01*
X37166666Y21000000D02*
X37214285Y20904762D01*
X37214285Y20714286D01*
X37166666Y20619048D01*
X37119047Y20571429D01*
X37023809Y20523810D01*
X36738095Y20523810D01*
X36642857Y20571429D01*
X36595238Y20619048D01*
X36547619Y20714286D01*
X36547619Y20904762D01*
X36595238Y21000000D01*
D11*
X25071428Y6809524D02*
X25071428Y7571429D01*
X25452380Y8571429D02*
X25452380Y8000000D01*
X25452380Y8285715D02*
X24452380Y8285715D01*
X24595238Y8190477D01*
X24690476Y8095239D01*
X24738095Y8000000D01*
X24452380Y9190477D02*
X24452380Y9285715D01*
X24500000Y9380953D01*
X24547619Y9428572D01*
X24642857Y9476191D01*
X24833333Y9523810D01*
X25071428Y9523810D01*
X25261904Y9476191D01*
X25357142Y9428572D01*
X25404761Y9380953D01*
X25452380Y9285715D01*
X25452380Y9190477D01*
X25404761Y9095239D01*
X25357142Y9047620D01*
X25261904Y9000000D01*
X25071428Y8952381D01*
X24833333Y8952381D01*
X24642857Y9000000D01*
X24547619Y9047620D01*
X24500000Y9095239D01*
X24452380Y9190477D01*
X24452380Y9809524D02*
X25452380Y10142858D01*
X24452380Y10476191D01*
X24452380Y11000000D02*
X24452380Y11190477D01*
X24500000Y11285715D01*
X24595238Y11380953D01*
X24785714Y11428572D01*
X25119047Y11428572D01*
X25309523Y11380953D01*
X25404761Y11285715D01*
X25452380Y11190477D01*
X25452380Y11000000D01*
X25404761Y10904762D01*
X25309523Y10809524D01*
X25119047Y10761905D01*
X24785714Y10761905D01*
X24595238Y10809524D01*
X24500000Y10904762D01*
X24452380Y11000000D01*
X24452380Y11857143D02*
X25261904Y11857143D01*
X25357142Y11904762D01*
X25404761Y11952381D01*
X25452380Y12047620D01*
X25452380Y12238096D01*
X25404761Y12333334D01*
X25357142Y12380953D01*
X25261904Y12428572D01*
X24452380Y12428572D01*
X24452380Y12761905D02*
X24452380Y13333334D01*
X25452380Y13047620D02*
X24452380Y13047620D01*
X20361428Y24190715D02*
X20361428Y24952620D01*
X20742380Y24571667D02*
X19980476Y24571667D01*
X20742380Y25952620D02*
X20742380Y25381191D01*
X20742380Y25666905D02*
X19742380Y25666905D01*
X19885238Y25571667D01*
X19980476Y25476429D01*
X20028095Y25381191D01*
X19837619Y26333572D02*
X19790000Y26381191D01*
X19742380Y26476429D01*
X19742380Y26714524D01*
X19790000Y26809762D01*
X19837619Y26857381D01*
X19932857Y26905000D01*
X20028095Y26905000D01*
X20170952Y26857381D01*
X20742380Y26285953D01*
X20742380Y26905000D01*
X20075714Y27238334D02*
X20742380Y27476429D01*
X20075714Y27714524D01*
X22352380Y25381191D02*
X21352380Y25381191D01*
X22352380Y25857381D02*
X21352380Y25857381D01*
X22352380Y26428810D01*
X21352380Y26428810D01*
D10*
%TO.C,JP1*%
X31166666Y9847620D02*
X31166666Y9133334D01*
X31119047Y8990477D01*
X31023809Y8895239D01*
X30880952Y8847620D01*
X30785714Y8847620D01*
X31642857Y8847620D02*
X31642857Y9847620D01*
X32023809Y9847620D01*
X32119047Y9800000D01*
X32166666Y9752381D01*
X32214285Y9657143D01*
X32214285Y9514286D01*
X32166666Y9419048D01*
X32119047Y9371429D01*
X32023809Y9323810D01*
X31642857Y9323810D01*
X33166666Y8847620D02*
X32595238Y8847620D01*
X32880952Y8847620D02*
X32880952Y9847620D01*
X32785714Y9704762D01*
X32690476Y9609524D01*
X32595238Y9561905D01*
%TO.C,D1*%
X29952380Y12261905D02*
X28952380Y12261905D01*
X28952380Y12500000D01*
X29000000Y12642858D01*
X29095238Y12738096D01*
X29190476Y12785715D01*
X29380952Y12833334D01*
X29523809Y12833334D01*
X29714285Y12785715D01*
X29809523Y12738096D01*
X29904761Y12642858D01*
X29952380Y12500000D01*
X29952380Y12261905D01*
X29952380Y13785715D02*
X29952380Y13214286D01*
X29952380Y13500000D02*
X28952380Y13500000D01*
X29095238Y13404762D01*
X29190476Y13309524D01*
X29238095Y13214286D01*
%TO.C,C7*%
X14333333Y24142858D02*
X14285714Y24095239D01*
X14142857Y24047620D01*
X14047619Y24047620D01*
X13904761Y24095239D01*
X13809523Y24190477D01*
X13761904Y24285715D01*
X13714285Y24476191D01*
X13714285Y24619048D01*
X13761904Y24809524D01*
X13809523Y24904762D01*
X13904761Y25000000D01*
X14047619Y25047620D01*
X14142857Y25047620D01*
X14285714Y25000000D01*
X14333333Y24952381D01*
X14666666Y25047620D02*
X15333333Y25047620D01*
X14904761Y24047620D01*
%TO.C,C6*%
X12333333Y23642858D02*
X12285714Y23595239D01*
X12142857Y23547620D01*
X12047619Y23547620D01*
X11904761Y23595239D01*
X11809523Y23690477D01*
X11761904Y23785715D01*
X11714285Y23976191D01*
X11714285Y24119048D01*
X11761904Y24309524D01*
X11809523Y24404762D01*
X11904761Y24500000D01*
X12047619Y24547620D01*
X12142857Y24547620D01*
X12285714Y24500000D01*
X12333333Y24452381D01*
X13190476Y24547620D02*
X13000000Y24547620D01*
X12904761Y24500000D01*
X12857142Y24452381D01*
X12761904Y24309524D01*
X12714285Y24119048D01*
X12714285Y23738096D01*
X12761904Y23642858D01*
X12809523Y23595239D01*
X12904761Y23547620D01*
X13095238Y23547620D01*
X13190476Y23595239D01*
X13238095Y23642858D01*
X13285714Y23738096D01*
X13285714Y23976191D01*
X13238095Y24071429D01*
X13190476Y24119048D01*
X13095238Y24166667D01*
X12904761Y24166667D01*
X12809523Y24119048D01*
X12761904Y24071429D01*
X12714285Y23976191D01*
%TO.C,C2*%
X35207142Y22333334D02*
X35254761Y22285715D01*
X35302380Y22142858D01*
X35302380Y22047620D01*
X35254761Y21904762D01*
X35159523Y21809524D01*
X35064285Y21761905D01*
X34873809Y21714286D01*
X34730952Y21714286D01*
X34540476Y21761905D01*
X34445238Y21809524D01*
X34350000Y21904762D01*
X34302380Y22047620D01*
X34302380Y22142858D01*
X34350000Y22285715D01*
X34397619Y22333334D01*
X34397619Y22714286D02*
X34350000Y22761905D01*
X34302380Y22857143D01*
X34302380Y23095239D01*
X34350000Y23190477D01*
X34397619Y23238096D01*
X34492857Y23285715D01*
X34588095Y23285715D01*
X34730952Y23238096D01*
X35302380Y22666667D01*
X35302380Y23285715D01*
%TO.C,C3*%
X27833333Y39342858D02*
X27785714Y39295239D01*
X27642857Y39247620D01*
X27547619Y39247620D01*
X27404761Y39295239D01*
X27309523Y39390477D01*
X27261904Y39485715D01*
X27214285Y39676191D01*
X27214285Y39819048D01*
X27261904Y40009524D01*
X27309523Y40104762D01*
X27404761Y40200000D01*
X27547619Y40247620D01*
X27642857Y40247620D01*
X27785714Y40200000D01*
X27833333Y40152381D01*
X28166666Y40247620D02*
X28785714Y40247620D01*
X28452380Y39866667D01*
X28595238Y39866667D01*
X28690476Y39819048D01*
X28738095Y39771429D01*
X28785714Y39676191D01*
X28785714Y39438096D01*
X28738095Y39342858D01*
X28690476Y39295239D01*
X28595238Y39247620D01*
X28309523Y39247620D01*
X28214285Y39295239D01*
X28166666Y39342858D01*
%TO.C,C4*%
X21947142Y23833334D02*
X21994761Y23785715D01*
X22042380Y23642858D01*
X22042380Y23547620D01*
X21994761Y23404762D01*
X21899523Y23309524D01*
X21804285Y23261905D01*
X21613809Y23214286D01*
X21470952Y23214286D01*
X21280476Y23261905D01*
X21185238Y23309524D01*
X21090000Y23404762D01*
X21042380Y23547620D01*
X21042380Y23642858D01*
X21090000Y23785715D01*
X21137619Y23833334D01*
X21375714Y24690477D02*
X22042380Y24690477D01*
X20994761Y24452381D02*
X21709047Y24214286D01*
X21709047Y24833334D01*
%TO.C,U2*%
X19452380Y10238096D02*
X20261904Y10238096D01*
X20357142Y10285715D01*
X20404761Y10333334D01*
X20452380Y10428572D01*
X20452380Y10619048D01*
X20404761Y10714286D01*
X20357142Y10761905D01*
X20261904Y10809524D01*
X19452380Y10809524D01*
X19547619Y11238096D02*
X19500000Y11285715D01*
X19452380Y11380953D01*
X19452380Y11619048D01*
X19500000Y11714286D01*
X19547619Y11761905D01*
X19642857Y11809524D01*
X19738095Y11809524D01*
X19880952Y11761905D01*
X20452380Y11190477D01*
X20452380Y11809524D01*
%TO.C,U1*%
X11952380Y10238096D02*
X12761904Y10238096D01*
X12857142Y10285715D01*
X12904761Y10333334D01*
X12952380Y10428572D01*
X12952380Y10619048D01*
X12904761Y10714286D01*
X12857142Y10761905D01*
X12761904Y10809524D01*
X11952380Y10809524D01*
X12952380Y11809524D02*
X12952380Y11238096D01*
X12952380Y11523810D02*
X11952380Y11523810D01*
X12095238Y11428572D01*
X12190476Y11333334D01*
X12238095Y11238096D01*
%TO.C,C5*%
X34907142Y6940896D02*
X34954761Y6893277D01*
X35002380Y6750420D01*
X35002380Y6655182D01*
X34954761Y6512324D01*
X34859523Y6417086D01*
X34764285Y6369467D01*
X34573809Y6321848D01*
X34430952Y6321848D01*
X34240476Y6369467D01*
X34145238Y6417086D01*
X34050000Y6512324D01*
X34002380Y6655182D01*
X34002380Y6750420D01*
X34050000Y6893277D01*
X34097619Y6940896D01*
X34002380Y7845658D02*
X34002380Y7369467D01*
X34478571Y7321848D01*
X34430952Y7369467D01*
X34383333Y7464705D01*
X34383333Y7702801D01*
X34430952Y7798039D01*
X34478571Y7845658D01*
X34573809Y7893277D01*
X34811904Y7893277D01*
X34907142Y7845658D01*
X34954761Y7798039D01*
X35002380Y7702801D01*
X35002380Y7464705D01*
X34954761Y7369467D01*
X34907142Y7321848D01*
%TO.C,C1*%
X27833333Y17642858D02*
X27785714Y17595239D01*
X27642857Y17547620D01*
X27547619Y17547620D01*
X27404761Y17595239D01*
X27309523Y17690477D01*
X27261904Y17785715D01*
X27214285Y17976191D01*
X27214285Y18119048D01*
X27261904Y18309524D01*
X27309523Y18404762D01*
X27404761Y18500000D01*
X27547619Y18547620D01*
X27642857Y18547620D01*
X27785714Y18500000D01*
X27833333Y18452381D01*
X28785714Y17547620D02*
X28214285Y17547620D01*
X28500000Y17547620D02*
X28500000Y18547620D01*
X28404761Y18404762D01*
X28309523Y18309524D01*
X28214285Y18261905D01*
D13*
%TO.C,JP1*%
X32700000Y6500000D02*
G75*
G03*
X33400000Y7200000I0J700000D01*
G01*
X30600000Y7200000D02*
G75*
G03*
X31300000Y6500000I699999J-1D01*
G01*
X31300000Y8500000D02*
G75*
G03*
X30600000Y7800000I-1J-699999D01*
G01*
X33400000Y7800000D02*
G75*
G03*
X32700000Y8500000I-700000J0D01*
G01*
X30600000Y7200000D02*
X30600000Y7800000D01*
X33400000Y7800000D02*
X33400000Y7200000D01*
X32700000Y6500000D02*
X31300000Y6500000D01*
X31300000Y8500000D02*
X32700000Y8500000D01*
%TO.C,D1*%
X30350000Y9600000D02*
X33650000Y9600000D01*
X33650000Y9600000D02*
X33650000Y15000000D01*
X30350000Y9600000D02*
X30350000Y15000000D01*
%TO.C,C7*%
X14154437Y23410000D02*
X15440000Y23410000D01*
X18845563Y23410000D02*
X19910000Y22345563D01*
X13090000Y22345563D02*
X13090000Y16590000D01*
X13090000Y16590000D02*
X15440000Y16590000D01*
X19910000Y22345563D02*
X19910000Y16590000D01*
X18845563Y23410000D02*
X17560000Y23410000D01*
X18741250Y24043750D02*
X17953750Y24043750D01*
X19910000Y16590000D02*
X17560000Y16590000D01*
X18347500Y24437500D02*
X18347500Y23650000D01*
X14154437Y23410000D02*
X13090000Y22345563D01*
%TO.C,C6*%
X6654437Y23410000D02*
X7940000Y23410000D01*
X11345563Y23410000D02*
X12410000Y22345563D01*
X5590000Y22345563D02*
X5590000Y16590000D01*
X5590000Y16590000D02*
X7940000Y16590000D01*
X12410000Y22345563D02*
X12410000Y16590000D01*
X11345563Y23410000D02*
X10060000Y23410000D01*
X11241250Y24043750D02*
X10453750Y24043750D01*
X12410000Y16590000D02*
X10060000Y16590000D01*
X10847500Y24437500D02*
X10847500Y23650000D01*
X6654437Y23410000D02*
X5590000Y22345563D01*
%TO.C,C2*%
X28154437Y25910000D02*
X29440000Y25910000D01*
X32845563Y25910000D02*
X33910000Y24845563D01*
X27090000Y24845563D02*
X27090000Y19090000D01*
X27090000Y19090000D02*
X29440000Y19090000D01*
X33910000Y24845563D02*
X33910000Y19090000D01*
X32845563Y25910000D02*
X31560000Y25910000D01*
X32741250Y26543750D02*
X31953750Y26543750D01*
X33910000Y19090000D02*
X31560000Y19090000D01*
X32347500Y26937500D02*
X32347500Y26150000D01*
X28154437Y25910000D02*
X27090000Y24845563D01*
%TO.C,C3*%
X33260000Y28240000D02*
X33260000Y31990000D01*
X21875000Y36885000D02*
X21875000Y35635000D01*
X21250000Y36260000D02*
X22500000Y36260000D01*
X33260000Y38760000D02*
X33260000Y35010000D01*
X22740000Y37695563D02*
X23804437Y38760000D01*
X23804437Y28240000D02*
X33260000Y28240000D01*
X22740000Y29304437D02*
X22740000Y31990000D01*
X22740000Y37695563D02*
X22740000Y35010000D01*
X23804437Y38760000D02*
X33260000Y38760000D01*
X22740000Y29304437D02*
X23804437Y28240000D01*
%TO.C,C4*%
X23410000Y21211252D02*
X23410000Y19788748D01*
X21590000Y21211252D02*
X21590000Y19788748D01*
%TO.C,U2*%
X19060000Y11000000D02*
X19060000Y9050000D01*
X13940000Y11000000D02*
X13940000Y12950000D01*
X19060000Y11000000D02*
X19060000Y14450000D01*
X13940000Y11000000D02*
X13940000Y9050000D01*
%TO.C,U1*%
X6440000Y11000000D02*
X6440000Y12950000D01*
X11560000Y11000000D02*
X11560000Y9050000D01*
X11560000Y11000000D02*
X11560000Y14450000D01*
X6440000Y11000000D02*
X6440000Y9050000D01*
%TO.C,C5*%
X36550000Y6107562D02*
X36550000Y7107562D01*
X36050000Y6607562D02*
X37050000Y6607562D01*
X35688000Y17648562D02*
X37412000Y17648562D01*
X35488000Y17608562D02*
X37612000Y17608562D01*
X35951000Y17688562D02*
X37149000Y17688562D01*
D14*
X35425000Y16518562D02*
X37675000Y16518562D01*
X37675000Y16518562D02*
X37675000Y17618562D01*
X37675000Y17618562D02*
X35425000Y17618562D01*
X35425000Y17618562D02*
X35425000Y16518562D01*
G36*
X35425000Y16518562D02*
G01*
X37675000Y16518562D01*
X37675000Y17618562D01*
X35425000Y17618562D01*
X35425000Y16518562D01*
G37*
X35400000Y12607562D02*
X37650000Y12607562D01*
X37650000Y12607562D02*
X37650000Y13707562D01*
X37650000Y13707562D02*
X35400000Y13707562D01*
X35400000Y13707562D02*
X35400000Y12607562D01*
G36*
X35400000Y12607562D02*
G01*
X37650000Y12607562D01*
X37650000Y13707562D01*
X35400000Y13707562D01*
X35400000Y12607562D01*
G37*
D13*
%TO.C,C1*%
X26410000Y21211252D02*
X26410000Y19788748D01*
X24590000Y21211252D02*
X24590000Y19788748D01*
%TD*%
%LPC*%
D15*
%TO.C,JP1*%
X32650000Y7500000D03*
D16*
X31350000Y7500000D03*
%TD*%
D17*
%TO.C,D1*%
X32000000Y15000000D03*
X32000000Y11000000D03*
%TD*%
D18*
%TO.C,C7*%
X16500000Y17300000D03*
X16500000Y22700000D03*
%TD*%
%TO.C,C6*%
X9000000Y17300000D03*
X9000000Y22700000D03*
%TD*%
%TO.C,C2*%
X30500000Y19800000D03*
X30500000Y25200000D03*
%TD*%
D19*
%TO.C,C3*%
X32000000Y33500000D03*
X24000000Y33500000D03*
%TD*%
D20*
%TO.C,C4*%
X22500000Y18937500D03*
X22500000Y22062500D03*
%TD*%
D21*
%TO.C,U2*%
X18405000Y8525000D03*
X17135000Y8525000D03*
X15865000Y8525000D03*
X14595000Y8525000D03*
X14595000Y13475000D03*
X15865000Y13475000D03*
X17135000Y13475000D03*
X18405000Y13475000D03*
%TD*%
%TO.C,U1*%
X10905000Y8525000D03*
X9635000Y8525000D03*
X8365000Y8525000D03*
X7095000Y8525000D03*
X7095000Y13475000D03*
X8365000Y13475000D03*
X9635000Y13475000D03*
X10905000Y13475000D03*
%TD*%
D22*
%TO.C,C5*%
X36550000Y10107562D03*
D23*
X36550000Y15107562D03*
%TD*%
D20*
%TO.C,C1*%
X25500000Y18937500D03*
X25500000Y22062500D03*
%TD*%
D24*
%TO.C,J1*%
X22595000Y9905000D03*
%TD*%
%TO.C,J3*%
X27595000Y9905000D03*
%TD*%
%TO.C,J4*%
X27595000Y15405000D03*
%TD*%
%TO.C,J5*%
X24595000Y25905000D03*
%TD*%
%TO.C,J2*%
X22595000Y15405000D03*
%TD*%
M02*
