%TF.GenerationSoftware,KiCad,Pcbnew,(6.0.7-1)-1*%
%TF.CreationDate,2022-10-13T15:16:57+02:00*%
%TF.ProjectId,tr707minus10v_kicad,74723730-376d-4696-9e75-733130765f6b,rev?*%
%TF.SameCoordinates,Original*%
%TF.FileFunction,Soldermask,Top*%
%TF.FilePolarity,Negative*%
%FSLAX46Y46*%
G04 Gerber Fmt 4.6, Leading zero omitted, Abs format (unit mm)*
G04 Created by KiCad (PCBNEW (6.0.7-1)-1) date 2022-10-13 15:16:57*
%MOMM*%
%LPD*%
G01*
G04 APERTURE LIST*
G04 Aperture macros list*
%AMRoundRect*
0 Rectangle with rounded corners*
0 $1 Rounding radius*
0 $2 $3 $4 $5 $6 $7 $8 $9 X,Y pos of 4 corners*
0 Add a 4 corners polygon primitive as box body*
4,1,4,$2,$3,$4,$5,$6,$7,$8,$9,$2,$3,0*
0 Add four circle primitives for the rounded corners*
1,1,$1+$1,$2,$3*
1,1,$1+$1,$4,$5*
1,1,$1+$1,$6,$7*
1,1,$1+$1,$8,$9*
0 Add four rect primitives between the rounded corners*
20,1,$1+$1,$2,$3,$4,$5,0*
20,1,$1+$1,$4,$5,$6,$7,0*
20,1,$1+$1,$6,$7,$8,$9,0*
20,1,$1+$1,$8,$9,$2,$3,0*%
%AMFreePoly0*
4,1,22,0.500000,-0.750000,0.000000,-0.750000,0.000000,-0.745033,-0.079941,-0.743568,-0.215256,-0.701293,-0.333266,-0.622738,-0.424486,-0.514219,-0.481581,-0.384460,-0.499164,-0.250000,-0.500000,-0.250000,-0.500000,0.250000,-0.499164,0.250000,-0.499963,0.256109,-0.478152,0.396186,-0.417904,0.524511,-0.324060,0.630769,-0.204165,0.706417,-0.067858,0.745374,0.000000,0.744959,0.000000,0.750000,
0.500000,0.750000,0.500000,-0.750000,0.500000,-0.750000,$1*%
%AMFreePoly1*
4,1,20,0.000000,0.744959,0.073905,0.744508,0.209726,0.703889,0.328688,0.626782,0.421226,0.519385,0.479903,0.390333,0.500000,0.250000,0.500000,-0.250000,0.499851,-0.262216,0.476331,-0.402017,0.414519,-0.529596,0.319384,-0.634700,0.198574,-0.708877,0.061801,-0.746166,0.000000,-0.745033,0.000000,-0.750000,-0.500000,-0.750000,-0.500000,0.750000,0.000000,0.750000,0.000000,0.744959,
0.000000,0.744959,$1*%
G04 Aperture macros list end*
%ADD10FreePoly0,270.000000*%
%ADD11FreePoly1,270.000000*%
%ADD12FreePoly1,0.000000*%
%ADD13FreePoly0,0.000000*%
%ADD14R,1.800000X2.500000*%
%ADD15RoundRect,0.250000X-0.550000X1.500000X-0.550000X-1.500000X0.550000X-1.500000X0.550000X1.500000X0*%
%ADD16RoundRect,0.250000X-1.750000X-1.000000X1.750000X-1.000000X1.750000X1.000000X-1.750000X1.000000X0*%
%ADD17RoundRect,0.250000X-0.650000X0.412500X-0.650000X-0.412500X0.650000X-0.412500X0.650000X0.412500X0*%
%ADD18RoundRect,0.150000X-0.150000X0.825000X-0.150000X-0.825000X0.150000X-0.825000X0.150000X0.825000X0*%
%ADD19R,2.000000X2.000000*%
%ADD20C,2.000000*%
%ADD21R,1.700000X1.700000*%
G04 APERTURE END LIST*
D10*
%TO.C,JP2*%
X5500000Y7300000D03*
D11*
X5500000Y6000000D03*
%TD*%
D12*
%TO.C,JP1*%
X32650000Y7500000D03*
D13*
X31350000Y7500000D03*
%TD*%
D14*
%TO.C,D1*%
X32000000Y15000000D03*
X32000000Y11000000D03*
%TD*%
D15*
%TO.C,C7*%
X16500000Y17300000D03*
X16500000Y22700000D03*
%TD*%
%TO.C,C6*%
X9000000Y17300000D03*
X9000000Y22700000D03*
%TD*%
%TO.C,C2*%
X30500000Y19800000D03*
X30500000Y25200000D03*
%TD*%
D16*
%TO.C,C3*%
X32000000Y33500000D03*
X24000000Y33500000D03*
%TD*%
D17*
%TO.C,C4*%
X22500000Y18937500D03*
X22500000Y22062500D03*
%TD*%
D18*
%TO.C,U2*%
X19405000Y8525000D03*
X18135000Y8525000D03*
X16865000Y8525000D03*
X15595000Y8525000D03*
X15595000Y13475000D03*
X16865000Y13475000D03*
X18135000Y13475000D03*
X19405000Y13475000D03*
%TD*%
%TO.C,U1*%
X11905000Y8525000D03*
X10635000Y8525000D03*
X9365000Y8525000D03*
X8095000Y8525000D03*
X8095000Y13475000D03*
X9365000Y13475000D03*
X10635000Y13475000D03*
X11905000Y13475000D03*
%TD*%
D19*
%TO.C,C5*%
X36550000Y10107562D03*
D20*
X36550000Y15107562D03*
%TD*%
D17*
%TO.C,C1*%
X25500000Y18937500D03*
X25500000Y22062500D03*
%TD*%
D21*
%TO.C,J1*%
X22595000Y9905000D03*
%TD*%
%TO.C,J3*%
X27595000Y9905000D03*
%TD*%
%TO.C,J4*%
X27595000Y15405000D03*
%TD*%
%TO.C,J5*%
X24595000Y25905000D03*
%TD*%
%TO.C,J2*%
X22595000Y15405000D03*
%TD*%
M02*
