%TF.GenerationSoftware,KiCad,Pcbnew,(6.0.1-0)*%
%TF.CreationDate,2022-07-13T02:22:52+02:00*%
%TF.ProjectId,tr707minus10v_kicad,74723730-376d-4696-9e75-733130765f6b,rev?*%
%TF.SameCoordinates,Original*%
%TF.FileFunction,Copper,L1,Top*%
%TF.FilePolarity,Positive*%
%FSLAX46Y46*%
G04 Gerber Fmt 4.6, Leading zero omitted, Abs format (unit mm)*
G04 Created by KiCad (PCBNEW (6.0.1-0)) date 2022-07-13 02:22:52*
%MOMM*%
%LPD*%
G01*
G04 APERTURE LIST*
G04 Aperture macros list*
%AMRoundRect*
0 Rectangle with rounded corners*
0 $1 Rounding radius*
0 $2 $3 $4 $5 $6 $7 $8 $9 X,Y pos of 4 corners*
0 Add a 4 corners polygon primitive as box body*
4,1,4,$2,$3,$4,$5,$6,$7,$8,$9,$2,$3,0*
0 Add four circle primitives for the rounded corners*
1,1,$1+$1,$2,$3*
1,1,$1+$1,$4,$5*
1,1,$1+$1,$6,$7*
1,1,$1+$1,$8,$9*
0 Add four rect primitives between the rounded corners*
20,1,$1+$1,$2,$3,$4,$5,0*
20,1,$1+$1,$4,$5,$6,$7,0*
20,1,$1+$1,$6,$7,$8,$9,0*
20,1,$1+$1,$8,$9,$2,$3,0*%
G04 Aperture macros list end*
%TA.AperFunction,SMDPad,CuDef*%
%ADD10RoundRect,0.250000X-0.550000X1.050000X-0.550000X-1.050000X0.550000X-1.050000X0.550000X1.050000X0*%
%TD*%
%TA.AperFunction,SMDPad,CuDef*%
%ADD11RoundRect,0.250000X0.550000X-1.050000X0.550000X1.050000X-0.550000X1.050000X-0.550000X-1.050000X0*%
%TD*%
%TA.AperFunction,SMDPad,CuDef*%
%ADD12RoundRect,0.250000X-1.050000X-0.550000X1.050000X-0.550000X1.050000X0.550000X-1.050000X0.550000X0*%
%TD*%
%TA.AperFunction,SMDPad,CuDef*%
%ADD13RoundRect,0.140000X0.170000X-0.140000X0.170000X0.140000X-0.170000X0.140000X-0.170000X-0.140000X0*%
%TD*%
%TA.AperFunction,SMDPad,CuDef*%
%ADD14R,1.800000X2.500000*%
%TD*%
%TA.AperFunction,SMDPad,CuDef*%
%ADD15RoundRect,0.150000X-0.825000X-0.150000X0.825000X-0.150000X0.825000X0.150000X-0.825000X0.150000X0*%
%TD*%
%TA.AperFunction,SMDPad,CuDef*%
%ADD16RoundRect,0.140000X-0.170000X0.140000X-0.170000X-0.140000X0.170000X-0.140000X0.170000X0.140000X0*%
%TD*%
%TA.AperFunction,ComponentPad*%
%ADD17R,1.700000X1.700000*%
%TD*%
%TA.AperFunction,ViaPad*%
%ADD18C,0.800000*%
%TD*%
%TA.AperFunction,Conductor*%
%ADD19C,1.000000*%
%TD*%
%TA.AperFunction,Conductor*%
%ADD20C,0.800000*%
%TD*%
G04 APERTURE END LIST*
D10*
%TO.P,C5,1*%
%TO.N,Net-(C5-Pad1)*%
X127040000Y-123380000D03*
%TO.P,C5,2*%
%TO.N,Net-(C5-Pad2)*%
X127040000Y-126980000D03*
%TD*%
D11*
%TO.P,C3,1*%
%TO.N,-10V*%
X133000000Y-134300000D03*
%TO.P,C3,2*%
%TO.N,GND*%
X133000000Y-130700000D03*
%TD*%
D12*
%TO.P,C2,1*%
%TO.N,Net-(C1-Pad1)*%
X140720876Y-114000000D03*
%TO.P,C2,2*%
%TO.N,GND*%
X144320876Y-114000000D03*
%TD*%
D13*
%TO.P,C4,1*%
%TO.N,-10V*%
X126125000Y-133405000D03*
%TO.P,C4,2*%
%TO.N,GND*%
X126125000Y-132445000D03*
%TD*%
D14*
%TO.P,D1,1,K*%
%TO.N,Net-(D1-Pad1)*%
X145500000Y-130000000D03*
%TO.P,D1,2,A*%
%TO.N,+12V*%
X145500000Y-134000000D03*
%TD*%
%TO.P,D2,1,K*%
%TO.N,Net-(C1-Pad1)*%
X145500000Y-122000000D03*
%TO.P,D2,2,A*%
%TO.N,Net-(D1-Pad1)*%
X145500000Y-126000000D03*
%TD*%
D15*
%TO.P,U1,1,NC*%
%TO.N,unconnected-(U1-Pad1)*%
X132525000Y-122095000D03*
%TO.P,U1,2,CAP+*%
%TO.N,Net-(C5-Pad1)*%
X132525000Y-123365000D03*
%TO.P,U1,3,GND*%
%TO.N,GND*%
X132525000Y-124635000D03*
%TO.P,U1,4,CAP-*%
%TO.N,Net-(C5-Pad2)*%
X132525000Y-125905000D03*
%TO.P,U1,5,VOUT*%
%TO.N,-10V*%
X137475000Y-125905000D03*
%TO.P,U1,6,LV*%
%TO.N,unconnected-(U1-Pad6)*%
X137475000Y-124635000D03*
%TO.P,U1,7,OSC*%
%TO.N,unconnected-(U1-Pad7)*%
X137475000Y-123365000D03*
%TO.P,U1,8,V+*%
%TO.N,Net-(C1-Pad1)*%
X137475000Y-122095000D03*
%TD*%
D16*
%TO.P,C1,1*%
%TO.N,Net-(C1-Pad1)*%
X141525000Y-122570000D03*
%TO.P,C1,2*%
%TO.N,GND*%
X141525000Y-123530000D03*
%TD*%
D17*
%TO.P,J2,1,Pin_1*%
%TO.N,-10V*%
X140000000Y-136000000D03*
%TD*%
%TO.P,J1,1,Pin_1*%
%TO.N,+12V*%
X141000000Y-120000000D03*
%TD*%
%TO.P,J3,1,Pin_1*%
%TO.N,GND*%
X140000000Y-130000000D03*
%TD*%
D18*
%TO.N,GND*%
X134425000Y-130275000D03*
X134300000Y-124625000D03*
X145275000Y-115425000D03*
X141500000Y-124500000D03*
%TD*%
D19*
%TO.N,Net-(C5-Pad1)*%
X132425000Y-123365000D02*
X127055000Y-123365000D01*
X127055000Y-123365000D02*
X127040000Y-123380000D01*
%TO.N,Net-(C1-Pad1)*%
X137475000Y-122095000D02*
X143685000Y-122095000D01*
X143685000Y-122095000D02*
X143780000Y-122000000D01*
X143780000Y-122000000D02*
X145500000Y-122000000D01*
%TO.N,GND*%
X141500000Y-124500000D02*
X141500000Y-123555000D01*
X141500000Y-123555000D02*
X141505480Y-123549520D01*
X141505480Y-123549520D02*
X141525000Y-123549520D01*
%TO.N,-10V*%
X137575000Y-125905000D02*
X139720000Y-128050000D01*
X142075000Y-128050000D02*
X142075000Y-133925000D01*
X139720000Y-128050000D02*
X142075000Y-128050000D01*
X142075000Y-133925000D02*
X140000000Y-136000000D01*
%TO.N,GND*%
X145275000Y-115425000D02*
X145275000Y-114054124D01*
X145275000Y-114054124D02*
X145220876Y-114000000D01*
X134400000Y-130300000D02*
X133000000Y-130300000D01*
X134425000Y-130275000D02*
X134400000Y-130300000D01*
D20*
X134300000Y-124625000D02*
X134290000Y-124635000D01*
X134290000Y-124635000D02*
X132425000Y-124635000D01*
D19*
%TO.N,Net-(C1-Pad1)*%
X139820876Y-114000000D02*
X138810000Y-114000000D01*
X138810000Y-114000000D02*
X137575000Y-115235000D01*
X137575000Y-115235000D02*
X137575000Y-122095000D01*
D20*
%TO.N,GND*%
X130780000Y-132520000D02*
X133000000Y-130300000D01*
X126000000Y-132520000D02*
X130780000Y-132520000D01*
D19*
%TO.N,Net-(C5-Pad2)*%
X129015000Y-125905000D02*
X127040000Y-127880000D01*
X132425000Y-125905000D02*
X129015000Y-125905000D01*
D20*
%TO.N,-10V*%
X133000000Y-135700000D02*
X130819520Y-133519520D01*
X139700000Y-135700000D02*
X140000000Y-136000000D01*
X133000000Y-135700000D02*
X139700000Y-135700000D01*
X130819520Y-133519520D02*
X126000000Y-133519520D01*
D19*
%TO.N,Net-(D1-Pad1)*%
X146000000Y-130000000D02*
X146000000Y-126000000D01*
%TO.N,+12V*%
X141000000Y-120000000D02*
X147549022Y-120000000D01*
X147549022Y-120000000D02*
X148950000Y-121400978D01*
X148950000Y-121400978D02*
X148950000Y-131050000D01*
X148950000Y-131050000D02*
X146000000Y-134000000D01*
%TD*%
M02*
