%TF.GenerationSoftware,KiCad,Pcbnew,(6.0.7-1)-1*%
%TF.CreationDate,2022-10-13T15:16:57+02:00*%
%TF.ProjectId,tr707minus10v_kicad,74723730-376d-4696-9e75-733130765f6b,rev?*%
%TF.SameCoordinates,Original*%
%TF.FileFunction,Legend,Top*%
%TF.FilePolarity,Positive*%
%FSLAX46Y46*%
G04 Gerber Fmt 4.6, Leading zero omitted, Abs format (unit mm)*
G04 Created by KiCad (PCBNEW (6.0.7-1)-1) date 2022-10-13 15:16:57*
%MOMM*%
%LPD*%
G01*
G04 APERTURE LIST*
G04 Aperture macros list*
%AMRoundRect*
0 Rectangle with rounded corners*
0 $1 Rounding radius*
0 $2 $3 $4 $5 $6 $7 $8 $9 X,Y pos of 4 corners*
0 Add a 4 corners polygon primitive as box body*
4,1,4,$2,$3,$4,$5,$6,$7,$8,$9,$2,$3,0*
0 Add four circle primitives for the rounded corners*
1,1,$1+$1,$2,$3*
1,1,$1+$1,$4,$5*
1,1,$1+$1,$6,$7*
1,1,$1+$1,$8,$9*
0 Add four rect primitives between the rounded corners*
20,1,$1+$1,$2,$3,$4,$5,0*
20,1,$1+$1,$4,$5,$6,$7,0*
20,1,$1+$1,$6,$7,$8,$9,0*
20,1,$1+$1,$8,$9,$2,$3,0*%
%AMFreePoly0*
4,1,22,0.500000,-0.750000,0.000000,-0.750000,0.000000,-0.745033,-0.079941,-0.743568,-0.215256,-0.701293,-0.333266,-0.622738,-0.424486,-0.514219,-0.481581,-0.384460,-0.499164,-0.250000,-0.500000,-0.250000,-0.500000,0.250000,-0.499164,0.250000,-0.499963,0.256109,-0.478152,0.396186,-0.417904,0.524511,-0.324060,0.630769,-0.204165,0.706417,-0.067858,0.745374,0.000000,0.744959,0.000000,0.750000,
0.500000,0.750000,0.500000,-0.750000,0.500000,-0.750000,$1*%
%AMFreePoly1*
4,1,20,0.000000,0.744959,0.073905,0.744508,0.209726,0.703889,0.328688,0.626782,0.421226,0.519385,0.479903,0.390333,0.500000,0.250000,0.500000,-0.250000,0.499851,-0.262216,0.476331,-0.402017,0.414519,-0.529596,0.319384,-0.634700,0.198574,-0.708877,0.061801,-0.746166,0.000000,-0.745033,0.000000,-0.750000,-0.500000,-0.750000,-0.500000,0.750000,0.000000,0.750000,0.000000,0.744959,
0.000000,0.744959,$1*%
G04 Aperture macros list end*
%ADD10C,0.150000*%
%ADD11C,0.250000*%
%ADD12C,0.300000*%
%ADD13C,0.120000*%
%ADD14C,0.050000*%
%ADD15FreePoly0,270.000000*%
%ADD16FreePoly1,270.000000*%
%ADD17FreePoly1,0.000000*%
%ADD18FreePoly0,0.000000*%
%ADD19R,1.800000X2.500000*%
%ADD20RoundRect,0.250000X-0.550000X1.500000X-0.550000X-1.500000X0.550000X-1.500000X0.550000X1.500000X0*%
%ADD21RoundRect,0.250000X-1.750000X-1.000000X1.750000X-1.000000X1.750000X1.000000X-1.750000X1.000000X0*%
%ADD22RoundRect,0.250000X-0.650000X0.412500X-0.650000X-0.412500X0.650000X-0.412500X0.650000X0.412500X0*%
%ADD23RoundRect,0.150000X-0.150000X0.825000X-0.150000X-0.825000X0.150000X-0.825000X0.150000X0.825000X0*%
%ADD24R,2.000000X2.000000*%
%ADD25C,2.000000*%
%ADD26R,1.700000X1.700000*%
G04 APERTURE END LIST*
D10*
X3904761Y7833334D02*
X3952380Y7928572D01*
X3952380Y8119048D01*
X3904761Y8214286D01*
X3809523Y8261905D01*
X3761904Y8261905D01*
X3666666Y8214286D01*
X3619047Y8119048D01*
X3619047Y7976191D01*
X3571428Y7880953D01*
X3476190Y7833334D01*
X3428571Y7833334D01*
X3333333Y7880953D01*
X3285714Y7976191D01*
X3285714Y8119048D01*
X3333333Y8214286D01*
X3285714Y8595239D02*
X3952380Y8833334D01*
X3285714Y9071429D02*
X3952380Y8833334D01*
X4190476Y8738096D01*
X4238095Y8690477D01*
X4285714Y8595239D01*
X3285714Y9452381D02*
X3952380Y9452381D01*
X3380952Y9452381D02*
X3333333Y9500000D01*
X3285714Y9595239D01*
X3285714Y9738096D01*
X3333333Y9833334D01*
X3428571Y9880953D01*
X3952380Y9880953D01*
X3285714Y10214286D02*
X3285714Y10595239D01*
X2952380Y10357143D02*
X3809523Y10357143D01*
X3904761Y10404762D01*
X3952380Y10500000D01*
X3952380Y10595239D01*
X3952380Y10928572D02*
X2952380Y10928572D01*
X3952380Y11357143D02*
X3428571Y11357143D01*
X3333333Y11309524D01*
X3285714Y11214286D01*
X3285714Y11071429D01*
X3333333Y10976191D01*
X3380952Y10928572D01*
X3857142Y11833334D02*
X3904761Y11880953D01*
X3952380Y11833334D01*
X3904761Y11785715D01*
X3857142Y11833334D01*
X3952380Y11833334D01*
X3904761Y12690477D02*
X3952380Y12595239D01*
X3952380Y12404762D01*
X3904761Y12309524D01*
X3809523Y12261905D01*
X3428571Y12261905D01*
X3333333Y12309524D01*
X3285714Y12404762D01*
X3285714Y12595239D01*
X3333333Y12690477D01*
X3428571Y12738096D01*
X3523809Y12738096D01*
X3619047Y12261905D01*
X3285714Y13071429D02*
X3952380Y13261905D01*
X3476190Y13452381D01*
X3952380Y13642858D01*
X3285714Y13833334D01*
X3952380Y14642858D02*
X3428571Y14642858D01*
X3333333Y14595239D01*
X3285714Y14500000D01*
X3285714Y14309524D01*
X3333333Y14214286D01*
X3904761Y14642858D02*
X3952380Y14547620D01*
X3952380Y14309524D01*
X3904761Y14214286D01*
X3809523Y14166667D01*
X3714285Y14166667D01*
X3619047Y14214286D01*
X3571428Y14309524D01*
X3571428Y14547620D01*
X3523809Y14642858D01*
X3285714Y15119048D02*
X3952380Y15119048D01*
X3380952Y15119048D02*
X3333333Y15166667D01*
X3285714Y15261905D01*
X3285714Y15404762D01*
X3333333Y15500000D01*
X3428571Y15547620D01*
X3952380Y15547620D01*
X3904761Y16452381D02*
X3952380Y16357143D01*
X3952380Y16166667D01*
X3904761Y16071429D01*
X3857142Y16023810D01*
X3761904Y15976191D01*
X3476190Y15976191D01*
X3380952Y16023810D01*
X3333333Y16071429D01*
X3285714Y16166667D01*
X3285714Y16357143D01*
X3333333Y16452381D01*
X3952380Y17023810D02*
X3904761Y16928572D01*
X3857142Y16880953D01*
X3761904Y16833334D01*
X3476190Y16833334D01*
X3380952Y16880953D01*
X3333333Y16928572D01*
X3285714Y17023810D01*
X3285714Y17166667D01*
X3333333Y17261905D01*
X3380952Y17309524D01*
X3476190Y17357143D01*
X3761904Y17357143D01*
X3857142Y17309524D01*
X3904761Y17261905D01*
X3952380Y17166667D01*
X3952380Y17023810D01*
X3952380Y17928572D02*
X3904761Y17833334D01*
X3809523Y17785715D01*
X2952380Y17785715D01*
X3904761Y18261905D02*
X3952380Y18357143D01*
X3952380Y18547620D01*
X3904761Y18642858D01*
X3809523Y18690477D01*
X3761904Y18690477D01*
X3666666Y18642858D01*
X3619047Y18547620D01*
X3619047Y18404762D01*
X3571428Y18309524D01*
X3476190Y18261905D01*
X3428571Y18261905D01*
X3333333Y18309524D01*
X3285714Y18404762D01*
X3285714Y18547620D01*
X3333333Y18642858D01*
X3904761Y19500000D02*
X3952380Y19404762D01*
X3952380Y19214286D01*
X3904761Y19119048D01*
X3809523Y19071429D01*
X3428571Y19071429D01*
X3333333Y19119048D01*
X3285714Y19214286D01*
X3285714Y19404762D01*
X3333333Y19500000D01*
X3428571Y19547620D01*
X3523809Y19547620D01*
X3619047Y19071429D01*
X3952380Y20119048D02*
X3904761Y20023810D01*
X3809523Y19976191D01*
X2952380Y19976191D01*
X3952380Y20642858D02*
X3904761Y20547620D01*
X3809523Y20500000D01*
X2952380Y20500000D01*
X3857142Y21023810D02*
X3904761Y21071429D01*
X3952380Y21023810D01*
X3904761Y20976191D01*
X3857142Y21023810D01*
X3952380Y21023810D01*
X3904761Y21928572D02*
X3952380Y21833334D01*
X3952380Y21642858D01*
X3904761Y21547620D01*
X3857142Y21500000D01*
X3761904Y21452381D01*
X3476190Y21452381D01*
X3380952Y21500000D01*
X3333333Y21547620D01*
X3285714Y21642858D01*
X3285714Y21833334D01*
X3333333Y21928572D01*
X3952380Y22500000D02*
X3904761Y22404762D01*
X3857142Y22357143D01*
X3761904Y22309524D01*
X3476190Y22309524D01*
X3380952Y22357143D01*
X3333333Y22404762D01*
X3285714Y22500000D01*
X3285714Y22642858D01*
X3333333Y22738096D01*
X3380952Y22785715D01*
X3476190Y22833334D01*
X3761904Y22833334D01*
X3857142Y22785715D01*
X3904761Y22738096D01*
X3952380Y22642858D01*
X3952380Y22500000D01*
X3952380Y23261905D02*
X3285714Y23261905D01*
X3380952Y23261905D02*
X3333333Y23309524D01*
X3285714Y23404762D01*
X3285714Y23547620D01*
X3333333Y23642858D01*
X3428571Y23690477D01*
X3952380Y23690477D01*
X3428571Y23690477D02*
X3333333Y23738096D01*
X3285714Y23833334D01*
X3285714Y23976191D01*
X3333333Y24071429D01*
X3428571Y24119048D01*
X3952380Y24119048D01*
D11*
X24500000Y13738096D02*
X24452380Y13642858D01*
X24452380Y13500000D01*
X24500000Y13357143D01*
X24595238Y13261905D01*
X24690476Y13214286D01*
X24880952Y13166667D01*
X25023809Y13166667D01*
X25214285Y13214286D01*
X25309523Y13261905D01*
X25404761Y13357143D01*
X25452380Y13500000D01*
X25452380Y13595239D01*
X25404761Y13738096D01*
X25357142Y13785715D01*
X25023809Y13785715D01*
X25023809Y13595239D01*
X25452380Y14214286D02*
X24452380Y14214286D01*
X25452380Y14785715D01*
X24452380Y14785715D01*
X25452380Y15261905D02*
X24452380Y15261905D01*
X24452380Y15500000D01*
X24500000Y15642858D01*
X24595238Y15738096D01*
X24690476Y15785715D01*
X24880952Y15833334D01*
X25023809Y15833334D01*
X25214285Y15785715D01*
X25309523Y15738096D01*
X25404761Y15642858D01*
X25452380Y15500000D01*
X25452380Y15261905D01*
D12*
X6771428Y6657143D02*
X7457142Y6657143D01*
X7114285Y5457143D02*
X7114285Y6657143D01*
X8542857Y5457143D02*
X8142857Y6028572D01*
X7857142Y5457143D02*
X7857142Y6657143D01*
X8314285Y6657143D01*
X8428571Y6600000D01*
X8485714Y6542858D01*
X8542857Y6428572D01*
X8542857Y6257143D01*
X8485714Y6142858D01*
X8428571Y6085715D01*
X8314285Y6028572D01*
X7857142Y6028572D01*
X8942857Y6657143D02*
X9742857Y6657143D01*
X9228571Y5457143D01*
X10428571Y6657143D02*
X10542857Y6657143D01*
X10657142Y6600000D01*
X10714285Y6542858D01*
X10771428Y6428572D01*
X10828571Y6200000D01*
X10828571Y5914286D01*
X10771428Y5685715D01*
X10714285Y5571429D01*
X10657142Y5514286D01*
X10542857Y5457143D01*
X10428571Y5457143D01*
X10314285Y5514286D01*
X10257142Y5571429D01*
X10200000Y5685715D01*
X10142857Y5914286D01*
X10142857Y6200000D01*
X10200000Y6428572D01*
X10257142Y6542858D01*
X10314285Y6600000D01*
X10428571Y6657143D01*
X11228571Y6657143D02*
X12028571Y6657143D01*
X11514285Y5457143D01*
X13400000Y5457143D02*
X13400000Y6657143D01*
X14085714Y5457143D01*
X14085714Y6657143D01*
X15114285Y5514286D02*
X15000000Y5457143D01*
X14771428Y5457143D01*
X14657142Y5514286D01*
X14600000Y5628572D01*
X14600000Y6085715D01*
X14657142Y6200000D01*
X14771428Y6257143D01*
X15000000Y6257143D01*
X15114285Y6200000D01*
X15171428Y6085715D01*
X15171428Y5971429D01*
X14600000Y5857143D01*
X16200000Y6257143D02*
X16200000Y5285715D01*
X16142857Y5171429D01*
X16085714Y5114286D01*
X15971428Y5057143D01*
X15800000Y5057143D01*
X15685714Y5114286D01*
X16200000Y5514286D02*
X16085714Y5457143D01*
X15857142Y5457143D01*
X15742857Y5514286D01*
X15685714Y5571429D01*
X15628571Y5685715D01*
X15628571Y6028572D01*
X15685714Y6142858D01*
X15742857Y6200000D01*
X15857142Y6257143D01*
X16085714Y6257143D01*
X16200000Y6200000D01*
X17285714Y5457143D02*
X17285714Y6085715D01*
X17228571Y6200000D01*
X17114285Y6257143D01*
X16885714Y6257143D01*
X16771428Y6200000D01*
X17285714Y5514286D02*
X17171428Y5457143D01*
X16885714Y5457143D01*
X16771428Y5514286D01*
X16714285Y5628572D01*
X16714285Y5742858D01*
X16771428Y5857143D01*
X16885714Y5914286D01*
X17171428Y5914286D01*
X17285714Y5971429D01*
X17685714Y6257143D02*
X18142857Y6257143D01*
X17857142Y6657143D02*
X17857142Y5628572D01*
X17914285Y5514286D01*
X18028571Y5457143D01*
X18142857Y5457143D01*
X18542857Y5457143D02*
X18542857Y6257143D01*
X18542857Y6657143D02*
X18485714Y6600000D01*
X18542857Y6542858D01*
X18600000Y6600000D01*
X18542857Y6657143D01*
X18542857Y6542858D01*
X19000000Y6257143D02*
X19285714Y5457143D01*
X19571428Y6257143D01*
X20485714Y5514286D02*
X20371428Y5457143D01*
X20142857Y5457143D01*
X20028571Y5514286D01*
X19971428Y5628572D01*
X19971428Y6085715D01*
X20028571Y6200000D01*
X20142857Y6257143D01*
X20371428Y6257143D01*
X20485714Y6200000D01*
X20542857Y6085715D01*
X20542857Y5971429D01*
X19971428Y5857143D01*
X21800000Y6657143D02*
X22200000Y5457143D01*
X22600000Y6657143D01*
X23000000Y5457143D02*
X23000000Y6257143D01*
X23000000Y6657143D02*
X22942857Y6600000D01*
X23000000Y6542858D01*
X23057142Y6600000D01*
X23000000Y6657143D01*
X23000000Y6542858D01*
X23571428Y5457143D02*
X23571428Y6657143D01*
X23571428Y6200000D02*
X23685714Y6257143D01*
X23914285Y6257143D01*
X24028571Y6200000D01*
X24085714Y6142858D01*
X24142857Y6028572D01*
X24142857Y5685715D01*
X24085714Y5571429D01*
X24028571Y5514286D01*
X23914285Y5457143D01*
X23685714Y5457143D01*
X23571428Y5514286D01*
X25114285Y5514286D02*
X25000000Y5457143D01*
X24771428Y5457143D01*
X24657142Y5514286D01*
X24600000Y5628572D01*
X24600000Y6085715D01*
X24657142Y6200000D01*
X24771428Y6257143D01*
X25000000Y6257143D01*
X25114285Y6200000D01*
X25171428Y6085715D01*
X25171428Y5971429D01*
X24600000Y5857143D01*
X25628571Y5514286D02*
X25742857Y5457143D01*
X25971428Y5457143D01*
X26085714Y5514286D01*
X26142857Y5628572D01*
X26142857Y5685715D01*
X26085714Y5800000D01*
X25971428Y5857143D01*
X25800000Y5857143D01*
X25685714Y5914286D01*
X25628571Y6028572D01*
X25628571Y6085715D01*
X25685714Y6200000D01*
X25800000Y6257143D01*
X25971428Y6257143D01*
X26085714Y6200000D01*
X27457142Y6257143D02*
X27742857Y5457143D01*
X28028571Y6257143D01*
X28428571Y6542858D02*
X28485714Y6600000D01*
X28600000Y6657143D01*
X28885714Y6657143D01*
X29000000Y6600000D01*
X29057142Y6542858D01*
X29114285Y6428572D01*
X29114285Y6314286D01*
X29057142Y6142858D01*
X28371428Y5457143D01*
X29114285Y5457143D01*
D10*
X6557142Y26657143D02*
X7242857Y26657143D01*
X6900000Y25457143D02*
X6900000Y26657143D01*
X7642857Y25457143D02*
X7642857Y26657143D01*
X8157142Y25457143D02*
X8157142Y26085715D01*
X8100000Y26200000D01*
X7985714Y26257143D01*
X7814285Y26257143D01*
X7700000Y26200000D01*
X7642857Y26142858D01*
X8728571Y25457143D02*
X8728571Y26257143D01*
X8728571Y26657143D02*
X8671428Y26600000D01*
X8728571Y26542858D01*
X8785714Y26600000D01*
X8728571Y26657143D01*
X8728571Y26542858D01*
X9242857Y25514286D02*
X9357142Y25457143D01*
X9585714Y25457143D01*
X9700000Y25514286D01*
X9757142Y25628572D01*
X9757142Y25685715D01*
X9700000Y25800000D01*
X9585714Y25857143D01*
X9414285Y25857143D01*
X9300000Y25914286D01*
X9242857Y26028572D01*
X9242857Y26085715D01*
X9300000Y26200000D01*
X9414285Y26257143D01*
X9585714Y26257143D01*
X9700000Y26200000D01*
X11128571Y25514286D02*
X11300000Y25457143D01*
X11585714Y25457143D01*
X11700000Y25514286D01*
X11757142Y25571429D01*
X11814285Y25685715D01*
X11814285Y25800000D01*
X11757142Y25914286D01*
X11700000Y25971429D01*
X11585714Y26028572D01*
X11357142Y26085715D01*
X11242857Y26142858D01*
X11185714Y26200000D01*
X11128571Y26314286D01*
X11128571Y26428572D01*
X11185714Y26542858D01*
X11242857Y26600000D01*
X11357142Y26657143D01*
X11642857Y26657143D01*
X11814285Y26600000D01*
X12328571Y25457143D02*
X12328571Y26257143D01*
X12328571Y26657143D02*
X12271428Y26600000D01*
X12328571Y26542858D01*
X12385714Y26600000D01*
X12328571Y26657143D01*
X12328571Y26542858D01*
X13414285Y25457143D02*
X13414285Y26657143D01*
X13414285Y25514286D02*
X13300000Y25457143D01*
X13071428Y25457143D01*
X12957142Y25514286D01*
X12900000Y25571429D01*
X12842857Y25685715D01*
X12842857Y26028572D01*
X12900000Y26142858D01*
X12957142Y26200000D01*
X13071428Y26257143D01*
X13300000Y26257143D01*
X13414285Y26200000D01*
X14442857Y25514286D02*
X14328571Y25457143D01*
X14100000Y25457143D01*
X13985714Y25514286D01*
X13928571Y25628572D01*
X13928571Y26085715D01*
X13985714Y26200000D01*
X14100000Y26257143D01*
X14328571Y26257143D01*
X14442857Y26200000D01*
X14500000Y26085715D01*
X14500000Y25971429D01*
X13928571Y25857143D01*
X15928571Y26657143D02*
X15928571Y25685715D01*
X15985714Y25571429D01*
X16042857Y25514286D01*
X16157142Y25457143D01*
X16385714Y25457143D01*
X16500000Y25514286D01*
X16557142Y25571429D01*
X16614285Y25685715D01*
X16614285Y26657143D01*
X17185714Y26257143D02*
X17185714Y25057143D01*
X17185714Y26200000D02*
X17300000Y26257143D01*
X17528571Y26257143D01*
X17642857Y26200000D01*
X17700000Y26142858D01*
X17757142Y26028572D01*
X17757142Y25685715D01*
X17700000Y25571429D01*
X17642857Y25514286D01*
X17528571Y25457143D01*
X17300000Y25457143D01*
X17185714Y25514286D01*
X18271428Y25571429D02*
X18328571Y25514286D01*
X18271428Y25457143D01*
X18214285Y25514286D01*
X18271428Y25571429D01*
X18271428Y25457143D01*
D12*
X37266666Y40885715D02*
X37266666Y40200000D01*
X35866666Y40542858D02*
X37266666Y40542858D01*
X35866666Y39628572D02*
X35933333Y39742858D01*
X36000000Y39800000D01*
X36133333Y39857143D01*
X36533333Y39857143D01*
X36666666Y39800000D01*
X36733333Y39742858D01*
X36800000Y39628572D01*
X36800000Y39457143D01*
X36733333Y39342858D01*
X36666666Y39285715D01*
X36533333Y39228572D01*
X36133333Y39228572D01*
X36000000Y39285715D01*
X35933333Y39342858D01*
X35866666Y39457143D01*
X35866666Y39628572D01*
X35866666Y38714286D02*
X36800000Y38714286D01*
X36533333Y38714286D02*
X36666666Y38657143D01*
X36733333Y38600000D01*
X36800000Y38485715D01*
X36800000Y38371429D01*
X35866666Y37971429D02*
X36800000Y37971429D01*
X37266666Y37971429D02*
X37200000Y38028572D01*
X37133333Y37971429D01*
X37200000Y37914286D01*
X37266666Y37971429D01*
X37133333Y37971429D01*
X36800000Y37400000D02*
X35866666Y37400000D01*
X36666666Y37400000D02*
X36733333Y37342858D01*
X36800000Y37228572D01*
X36800000Y37057143D01*
X36733333Y36942858D01*
X36600000Y36885715D01*
X35866666Y36885715D01*
X35866666Y36142858D02*
X35933333Y36257143D01*
X36000000Y36314286D01*
X36133333Y36371429D01*
X36533333Y36371429D01*
X36666666Y36314286D01*
X36733333Y36257143D01*
X36800000Y36142858D01*
X36800000Y35971429D01*
X36733333Y35857143D01*
X36666666Y35800000D01*
X36533333Y35742858D01*
X36133333Y35742858D01*
X36000000Y35800000D01*
X35933333Y35857143D01*
X35866666Y35971429D01*
X35866666Y36142858D01*
X35933333Y34371429D02*
X35866666Y34200000D01*
X35866666Y33914286D01*
X35933333Y33800000D01*
X36000000Y33742858D01*
X36133333Y33685715D01*
X36266666Y33685715D01*
X36400000Y33742858D01*
X36466666Y33800000D01*
X36533333Y33914286D01*
X36600000Y34142858D01*
X36666666Y34257143D01*
X36733333Y34314286D01*
X36866666Y34371429D01*
X37000000Y34371429D01*
X37133333Y34314286D01*
X37200000Y34257143D01*
X37266666Y34142858D01*
X37266666Y33857143D01*
X37200000Y33685715D01*
X36800000Y33285715D02*
X35866666Y33000000D01*
X36800000Y32714286D02*
X35866666Y33000000D01*
X35533333Y33114286D01*
X35466666Y33171429D01*
X35400000Y33285715D01*
X36800000Y32257143D02*
X35866666Y32257143D01*
X36666666Y32257143D02*
X36733333Y32200000D01*
X36800000Y32085715D01*
X36800000Y31914286D01*
X36733333Y31800000D01*
X36600000Y31742858D01*
X35866666Y31742858D01*
X36800000Y31342858D02*
X36800000Y30885715D01*
X37266666Y31171429D02*
X36066666Y31171429D01*
X35933333Y31114286D01*
X35866666Y31000000D01*
X35866666Y30885715D01*
X35866666Y30485715D02*
X37266666Y30485715D01*
X35866666Y29971429D02*
X36600000Y29971429D01*
X36733333Y30028572D01*
X36800000Y30142858D01*
X36800000Y30314286D01*
X36733333Y30428572D01*
X36666666Y30485715D01*
X35866666Y27800000D02*
X36533333Y28200000D01*
X35866666Y28485715D02*
X37266666Y28485715D01*
X37266666Y28028572D01*
X37200000Y27914286D01*
X37133333Y27857143D01*
X37000000Y27800000D01*
X36800000Y27800000D01*
X36666666Y27857143D01*
X36600000Y27914286D01*
X36533333Y28028572D01*
X36533333Y28485715D01*
X35933333Y26828572D02*
X35866666Y26942858D01*
X35866666Y27171429D01*
X35933333Y27285715D01*
X36066666Y27342858D01*
X36600000Y27342858D01*
X36733333Y27285715D01*
X36800000Y27171429D01*
X36800000Y26942858D01*
X36733333Y26828572D01*
X36600000Y26771429D01*
X36466666Y26771429D01*
X36333333Y27342858D01*
X36800000Y26257143D02*
X35400000Y26257143D01*
X36733333Y26257143D02*
X36800000Y26142858D01*
X36800000Y25914286D01*
X36733333Y25800000D01*
X36666666Y25742858D01*
X36533333Y25685715D01*
X36133333Y25685715D01*
X36000000Y25742858D01*
X35933333Y25800000D01*
X35866666Y25914286D01*
X35866666Y26142858D01*
X35933333Y26257143D01*
X35866666Y24657143D02*
X36600000Y24657143D01*
X36733333Y24714286D01*
X36800000Y24828572D01*
X36800000Y25057143D01*
X36733333Y25171429D01*
X35933333Y24657143D02*
X35866666Y24771429D01*
X35866666Y25057143D01*
X35933333Y25171429D01*
X36066666Y25228572D01*
X36200000Y25228572D01*
X36333333Y25171429D01*
X36400000Y25057143D01*
X36400000Y24771429D01*
X36466666Y24657143D01*
X35866666Y24085715D02*
X36800000Y24085715D01*
X37266666Y24085715D02*
X37200000Y24142858D01*
X37133333Y24085715D01*
X37200000Y24028572D01*
X37266666Y24085715D01*
X37133333Y24085715D01*
X35866666Y23514286D02*
X36800000Y23514286D01*
X36533333Y23514286D02*
X36666666Y23457143D01*
X36733333Y23400000D01*
X36800000Y23285715D01*
X36800000Y23171429D01*
X35866666Y21285715D02*
X35866666Y21857143D01*
X37266666Y21857143D01*
X35866666Y20371429D02*
X36600000Y20371429D01*
X36733333Y20428572D01*
X36800000Y20542858D01*
X36800000Y20771429D01*
X36733333Y20885715D01*
X35933333Y20371429D02*
X35866666Y20485715D01*
X35866666Y20771429D01*
X35933333Y20885715D01*
X36066666Y20942858D01*
X36200000Y20942858D01*
X36333333Y20885715D01*
X36400000Y20771429D01*
X36400000Y20485715D01*
X36466666Y20371429D01*
X35866666Y19800000D02*
X37266666Y19800000D01*
X36733333Y19800000D02*
X36800000Y19685715D01*
X36800000Y19457143D01*
X36733333Y19342858D01*
X36666666Y19285715D01*
X36533333Y19228572D01*
X36133333Y19228572D01*
X36000000Y19285715D01*
X35933333Y19342858D01*
X35866666Y19457143D01*
X35866666Y19685715D01*
X35933333Y19800000D01*
D11*
X25071428Y7261905D02*
X25071428Y8023810D01*
X24452380Y8357143D02*
X25452380Y8690477D01*
X24452380Y9023810D01*
X24452380Y9547620D02*
X24452380Y9738096D01*
X24500000Y9833334D01*
X24595238Y9928572D01*
X24785714Y9976191D01*
X25119047Y9976191D01*
X25309523Y9928572D01*
X25404761Y9833334D01*
X25452380Y9738096D01*
X25452380Y9547620D01*
X25404761Y9452381D01*
X25309523Y9357143D01*
X25119047Y9309524D01*
X24785714Y9309524D01*
X24595238Y9357143D01*
X24500000Y9452381D01*
X24452380Y9547620D01*
X24452380Y10404762D02*
X25261904Y10404762D01*
X25357142Y10452381D01*
X25404761Y10500000D01*
X25452380Y10595239D01*
X25452380Y10785715D01*
X25404761Y10880953D01*
X25357142Y10928572D01*
X25261904Y10976191D01*
X24452380Y10976191D01*
X24452380Y11309524D02*
X24452380Y11880953D01*
X25452380Y11595239D02*
X24452380Y11595239D01*
X26417341Y23923290D02*
X26417341Y24685195D01*
X26798293Y24304242D02*
X26036389Y24304242D01*
X25798293Y25018528D02*
X26798293Y25351861D01*
X25798293Y25685195D01*
X26798293Y26018528D02*
X25798293Y26018528D01*
X26798293Y26494718D02*
X25798293Y26494718D01*
X26798293Y27066147D01*
X25798293Y27066147D01*
D10*
%TO.C,JP2*%
X4952380Y9166667D02*
X5666666Y9166667D01*
X5809523Y9119048D01*
X5904761Y9023810D01*
X5952380Y8880953D01*
X5952380Y8785715D01*
X5952380Y9642858D02*
X4952380Y9642858D01*
X4952380Y10023810D01*
X5000000Y10119048D01*
X5047619Y10166667D01*
X5142857Y10214286D01*
X5285714Y10214286D01*
X5380952Y10166667D01*
X5428571Y10119048D01*
X5476190Y10023810D01*
X5476190Y9642858D01*
X5047619Y10595239D02*
X5000000Y10642858D01*
X4952380Y10738096D01*
X4952380Y10976191D01*
X5000000Y11071429D01*
X5047619Y11119048D01*
X5142857Y11166667D01*
X5238095Y11166667D01*
X5380952Y11119048D01*
X5952380Y10547620D01*
X5952380Y11166667D01*
%TO.C,JP1*%
X31166666Y6047620D02*
X31166666Y5333334D01*
X31119047Y5190477D01*
X31023809Y5095239D01*
X30880952Y5047620D01*
X30785714Y5047620D01*
X31642857Y5047620D02*
X31642857Y6047620D01*
X32023809Y6047620D01*
X32119047Y6000000D01*
X32166666Y5952381D01*
X32214285Y5857143D01*
X32214285Y5714286D01*
X32166666Y5619048D01*
X32119047Y5571429D01*
X32023809Y5523810D01*
X31642857Y5523810D01*
X33166666Y5047620D02*
X32595238Y5047620D01*
X32880952Y5047620D02*
X32880952Y6047620D01*
X32785714Y5904762D01*
X32690476Y5809524D01*
X32595238Y5761905D01*
%TO.C,D1*%
X34952380Y9761905D02*
X33952380Y9761905D01*
X33952380Y10000000D01*
X34000000Y10142858D01*
X34095238Y10238096D01*
X34190476Y10285715D01*
X34380952Y10333334D01*
X34523809Y10333334D01*
X34714285Y10285715D01*
X34809523Y10238096D01*
X34904761Y10142858D01*
X34952380Y10000000D01*
X34952380Y9761905D01*
X34952380Y11285715D02*
X34952380Y10714286D01*
X34952380Y11000000D02*
X33952380Y11000000D01*
X34095238Y10904762D01*
X34190476Y10809524D01*
X34238095Y10714286D01*
%TO.C,C7*%
X19333333Y15142858D02*
X19285714Y15095239D01*
X19142857Y15047620D01*
X19047619Y15047620D01*
X18904761Y15095239D01*
X18809523Y15190477D01*
X18761904Y15285715D01*
X18714285Y15476191D01*
X18714285Y15619048D01*
X18761904Y15809524D01*
X18809523Y15904762D01*
X18904761Y16000000D01*
X19047619Y16047620D01*
X19142857Y16047620D01*
X19285714Y16000000D01*
X19333333Y15952381D01*
X19666666Y16047620D02*
X20333333Y16047620D01*
X19904761Y15047620D01*
%TO.C,C6*%
X11333333Y15142858D02*
X11285714Y15095239D01*
X11142857Y15047620D01*
X11047619Y15047620D01*
X10904761Y15095239D01*
X10809523Y15190477D01*
X10761904Y15285715D01*
X10714285Y15476191D01*
X10714285Y15619048D01*
X10761904Y15809524D01*
X10809523Y15904762D01*
X10904761Y16000000D01*
X11047619Y16047620D01*
X11142857Y16047620D01*
X11285714Y16000000D01*
X11333333Y15952381D01*
X12190476Y16047620D02*
X12000000Y16047620D01*
X11904761Y16000000D01*
X11857142Y15952381D01*
X11761904Y15809524D01*
X11714285Y15619048D01*
X11714285Y15238096D01*
X11761904Y15142858D01*
X11809523Y15095239D01*
X11904761Y15047620D01*
X12095238Y15047620D01*
X12190476Y15095239D01*
X12238095Y15142858D01*
X12285714Y15238096D01*
X12285714Y15476191D01*
X12238095Y15571429D01*
X12190476Y15619048D01*
X12095238Y15666667D01*
X11904761Y15666667D01*
X11809523Y15619048D01*
X11761904Y15571429D01*
X11714285Y15476191D01*
%TO.C,C2*%
X32833333Y17642858D02*
X32785714Y17595239D01*
X32642857Y17547620D01*
X32547619Y17547620D01*
X32404761Y17595239D01*
X32309523Y17690477D01*
X32261904Y17785715D01*
X32214285Y17976191D01*
X32214285Y18119048D01*
X32261904Y18309524D01*
X32309523Y18404762D01*
X32404761Y18500000D01*
X32547619Y18547620D01*
X32642857Y18547620D01*
X32785714Y18500000D01*
X32833333Y18452381D01*
X33214285Y18452381D02*
X33261904Y18500000D01*
X33357142Y18547620D01*
X33595238Y18547620D01*
X33690476Y18500000D01*
X33738095Y18452381D01*
X33785714Y18357143D01*
X33785714Y18261905D01*
X33738095Y18119048D01*
X33166666Y17547620D01*
X33785714Y17547620D01*
%TO.C,C3*%
X27833333Y39342858D02*
X27785714Y39295239D01*
X27642857Y39247620D01*
X27547619Y39247620D01*
X27404761Y39295239D01*
X27309523Y39390477D01*
X27261904Y39485715D01*
X27214285Y39676191D01*
X27214285Y39819048D01*
X27261904Y40009524D01*
X27309523Y40104762D01*
X27404761Y40200000D01*
X27547619Y40247620D01*
X27642857Y40247620D01*
X27785714Y40200000D01*
X27833333Y40152381D01*
X28166666Y40247620D02*
X28785714Y40247620D01*
X28452380Y39866667D01*
X28595238Y39866667D01*
X28690476Y39819048D01*
X28738095Y39771429D01*
X28785714Y39676191D01*
X28785714Y39438096D01*
X28738095Y39342858D01*
X28690476Y39295239D01*
X28595238Y39247620D01*
X28309523Y39247620D01*
X28214285Y39295239D01*
X28166666Y39342858D01*
%TO.C,C4*%
X22333333Y16642858D02*
X22285714Y16595239D01*
X22142857Y16547620D01*
X22047619Y16547620D01*
X21904761Y16595239D01*
X21809523Y16690477D01*
X21761904Y16785715D01*
X21714285Y16976191D01*
X21714285Y17119048D01*
X21761904Y17309524D01*
X21809523Y17404762D01*
X21904761Y17500000D01*
X22047619Y17547620D01*
X22142857Y17547620D01*
X22285714Y17500000D01*
X22333333Y17452381D01*
X23190476Y17214286D02*
X23190476Y16547620D01*
X22952380Y17595239D02*
X22714285Y16880953D01*
X23333333Y16880953D01*
%TO.C,U2*%
X20452380Y10238096D02*
X21261904Y10238096D01*
X21357142Y10285715D01*
X21404761Y10333334D01*
X21452380Y10428572D01*
X21452380Y10619048D01*
X21404761Y10714286D01*
X21357142Y10761905D01*
X21261904Y10809524D01*
X20452380Y10809524D01*
X20547619Y11238096D02*
X20500000Y11285715D01*
X20452380Y11380953D01*
X20452380Y11619048D01*
X20500000Y11714286D01*
X20547619Y11761905D01*
X20642857Y11809524D01*
X20738095Y11809524D01*
X20880952Y11761905D01*
X21452380Y11190477D01*
X21452380Y11809524D01*
%TO.C,U1*%
X12952380Y10238096D02*
X13761904Y10238096D01*
X13857142Y10285715D01*
X13904761Y10333334D01*
X13952380Y10428572D01*
X13952380Y10619048D01*
X13904761Y10714286D01*
X13857142Y10761905D01*
X13761904Y10809524D01*
X12952380Y10809524D01*
X13952380Y11809524D02*
X13952380Y11238096D01*
X13952380Y11523810D02*
X12952380Y11523810D01*
X13095238Y11428572D01*
X13190476Y11333334D01*
X13238095Y11238096D01*
%TO.C,C5*%
X36383333Y7642858D02*
X36335714Y7595239D01*
X36192857Y7547620D01*
X36097619Y7547620D01*
X35954761Y7595239D01*
X35859523Y7690477D01*
X35811904Y7785715D01*
X35764285Y7976191D01*
X35764285Y8119048D01*
X35811904Y8309524D01*
X35859523Y8404762D01*
X35954761Y8500000D01*
X36097619Y8547620D01*
X36192857Y8547620D01*
X36335714Y8500000D01*
X36383333Y8452381D01*
X37288095Y8547620D02*
X36811904Y8547620D01*
X36764285Y8071429D01*
X36811904Y8119048D01*
X36907142Y8166667D01*
X37145238Y8166667D01*
X37240476Y8119048D01*
X37288095Y8071429D01*
X37335714Y7976191D01*
X37335714Y7738096D01*
X37288095Y7642858D01*
X37240476Y7595239D01*
X37145238Y7547620D01*
X36907142Y7547620D01*
X36811904Y7595239D01*
X36764285Y7642858D01*
%TO.C,C1*%
X25333333Y16642858D02*
X25285714Y16595239D01*
X25142857Y16547620D01*
X25047619Y16547620D01*
X24904761Y16595239D01*
X24809523Y16690477D01*
X24761904Y16785715D01*
X24714285Y16976191D01*
X24714285Y17119048D01*
X24761904Y17309524D01*
X24809523Y17404762D01*
X24904761Y17500000D01*
X25047619Y17547620D01*
X25142857Y17547620D01*
X25285714Y17500000D01*
X25333333Y17452381D01*
X26285714Y16547620D02*
X25714285Y16547620D01*
X26000000Y16547620D02*
X26000000Y17547620D01*
X25904761Y17404762D01*
X25809523Y17309524D01*
X25714285Y17261905D01*
%TO.C,J3*%
X29952380Y9214286D02*
X28952380Y9214286D01*
X29952380Y9785715D01*
X28952380Y9785715D01*
X29857142Y10833334D02*
X29904761Y10785715D01*
X29952380Y10642858D01*
X29952380Y10547620D01*
X29904761Y10404762D01*
X29809523Y10309524D01*
X29714285Y10261905D01*
X29523809Y10214286D01*
X29380952Y10214286D01*
X29190476Y10261905D01*
X29095238Y10309524D01*
X29000000Y10404762D01*
X28952380Y10547620D01*
X28952380Y10642858D01*
X29000000Y10785715D01*
X29047619Y10833334D01*
%TO.C,J4*%
X29952380Y14714286D02*
X28952380Y14714286D01*
X29952380Y15285715D01*
X28952380Y15285715D01*
X29857142Y16333334D02*
X29904761Y16285715D01*
X29952380Y16142858D01*
X29952380Y16047620D01*
X29904761Y15904762D01*
X29809523Y15809524D01*
X29714285Y15761905D01*
X29523809Y15714286D01*
X29380952Y15714286D01*
X29190476Y15761905D01*
X29095238Y15809524D01*
X29000000Y15904762D01*
X28952380Y16047620D01*
X28952380Y16142858D01*
X29000000Y16285715D01*
X29047619Y16333334D01*
D13*
%TO.C,JP2*%
X6500000Y7350000D02*
X6500000Y5950000D01*
X4500000Y5950000D02*
X4500000Y7350000D01*
X5800000Y5250000D02*
X5200000Y5250000D01*
X5200000Y8050000D02*
X5800000Y8050000D01*
X5800000Y5250000D02*
G75*
G03*
X6500000Y5950000I0J700000D01*
G01*
X6500000Y7350000D02*
G75*
G03*
X5800000Y8050000I-699999J1D01*
G01*
X5200000Y8050000D02*
G75*
G03*
X4500000Y7350000I-1J-699999D01*
G01*
X4500000Y5950000D02*
G75*
G03*
X5200000Y5250000I700000J0D01*
G01*
%TO.C,JP1*%
X32700000Y6500000D02*
G75*
G03*
X33400000Y7200000I0J700000D01*
G01*
X30600000Y7200000D02*
G75*
G03*
X31300000Y6500000I699999J-1D01*
G01*
X31300000Y8500000D02*
G75*
G03*
X30600000Y7800000I-1J-699999D01*
G01*
X33400000Y7800000D02*
G75*
G03*
X32700000Y8500000I-700000J0D01*
G01*
X30600000Y7200000D02*
X30600000Y7800000D01*
X33400000Y7800000D02*
X33400000Y7200000D01*
X32700000Y6500000D02*
X31300000Y6500000D01*
X31300000Y8500000D02*
X32700000Y8500000D01*
%TO.C,D1*%
X30350000Y9600000D02*
X33650000Y9600000D01*
X33650000Y9600000D02*
X33650000Y15000000D01*
X30350000Y9600000D02*
X30350000Y15000000D01*
%TO.C,C7*%
X14154437Y23410000D02*
X15440000Y23410000D01*
X18845563Y23410000D02*
X19910000Y22345563D01*
X13090000Y22345563D02*
X13090000Y16590000D01*
X13090000Y16590000D02*
X15440000Y16590000D01*
X19910000Y22345563D02*
X19910000Y16590000D01*
X18845563Y23410000D02*
X17560000Y23410000D01*
X18741250Y24043750D02*
X17953750Y24043750D01*
X19910000Y16590000D02*
X17560000Y16590000D01*
X18347500Y24437500D02*
X18347500Y23650000D01*
X14154437Y23410000D02*
X13090000Y22345563D01*
%TO.C,C6*%
X6654437Y23410000D02*
X7940000Y23410000D01*
X11345563Y23410000D02*
X12410000Y22345563D01*
X5590000Y22345563D02*
X5590000Y16590000D01*
X5590000Y16590000D02*
X7940000Y16590000D01*
X12410000Y22345563D02*
X12410000Y16590000D01*
X11345563Y23410000D02*
X10060000Y23410000D01*
X11241250Y24043750D02*
X10453750Y24043750D01*
X12410000Y16590000D02*
X10060000Y16590000D01*
X10847500Y24437500D02*
X10847500Y23650000D01*
X6654437Y23410000D02*
X5590000Y22345563D01*
%TO.C,C2*%
X28154437Y25910000D02*
X29440000Y25910000D01*
X32845563Y25910000D02*
X33910000Y24845563D01*
X27090000Y24845563D02*
X27090000Y19090000D01*
X27090000Y19090000D02*
X29440000Y19090000D01*
X33910000Y24845563D02*
X33910000Y19090000D01*
X32845563Y25910000D02*
X31560000Y25910000D01*
X32741250Y26543750D02*
X31953750Y26543750D01*
X33910000Y19090000D02*
X31560000Y19090000D01*
X32347500Y26937500D02*
X32347500Y26150000D01*
X28154437Y25910000D02*
X27090000Y24845563D01*
%TO.C,C3*%
X33260000Y28240000D02*
X33260000Y31990000D01*
X21875000Y36885000D02*
X21875000Y35635000D01*
X21250000Y36260000D02*
X22500000Y36260000D01*
X33260000Y38760000D02*
X33260000Y35010000D01*
X22740000Y37695563D02*
X23804437Y38760000D01*
X23804437Y28240000D02*
X33260000Y28240000D01*
X22740000Y29304437D02*
X22740000Y31990000D01*
X22740000Y37695563D02*
X22740000Y35010000D01*
X23804437Y38760000D02*
X33260000Y38760000D01*
X22740000Y29304437D02*
X23804437Y28240000D01*
%TO.C,C4*%
X23410000Y21211252D02*
X23410000Y19788748D01*
X21590000Y21211252D02*
X21590000Y19788748D01*
%TO.C,U2*%
X20060000Y11000000D02*
X20060000Y9050000D01*
X14940000Y11000000D02*
X14940000Y12950000D01*
X20060000Y11000000D02*
X20060000Y14450000D01*
X14940000Y11000000D02*
X14940000Y9050000D01*
%TO.C,U1*%
X7440000Y11000000D02*
X7440000Y12950000D01*
X12560000Y11000000D02*
X12560000Y9050000D01*
X12560000Y11000000D02*
X12560000Y14450000D01*
X7440000Y11000000D02*
X7440000Y9050000D01*
%TO.C,C5*%
X36550000Y6107562D02*
X36550000Y7107562D01*
X36050000Y6607562D02*
X37050000Y6607562D01*
X35688000Y17648562D02*
X37412000Y17648562D01*
X35488000Y17608562D02*
X37612000Y17608562D01*
X35951000Y17688562D02*
X37149000Y17688562D01*
D14*
X35425000Y16518562D02*
X37675000Y16518562D01*
X37675000Y16518562D02*
X37675000Y17618562D01*
X37675000Y17618562D02*
X35425000Y17618562D01*
X35425000Y17618562D02*
X35425000Y16518562D01*
G36*
X35425000Y16518562D02*
G01*
X37675000Y16518562D01*
X37675000Y17618562D01*
X35425000Y17618562D01*
X35425000Y16518562D01*
G37*
X35400000Y12607562D02*
X37650000Y12607562D01*
X37650000Y12607562D02*
X37650000Y13707562D01*
X37650000Y13707562D02*
X35400000Y13707562D01*
X35400000Y13707562D02*
X35400000Y12607562D01*
G36*
X35400000Y12607562D02*
G01*
X37650000Y12607562D01*
X37650000Y13707562D01*
X35400000Y13707562D01*
X35400000Y12607562D01*
G37*
D13*
%TO.C,C1*%
X26410000Y21211252D02*
X26410000Y19788748D01*
X24590000Y21211252D02*
X24590000Y19788748D01*
%TD*%
%LPC*%
D15*
%TO.C,JP2*%
X5500000Y7300000D03*
D16*
X5500000Y6000000D03*
%TD*%
D17*
%TO.C,JP1*%
X32650000Y7500000D03*
D18*
X31350000Y7500000D03*
%TD*%
D19*
%TO.C,D1*%
X32000000Y15000000D03*
X32000000Y11000000D03*
%TD*%
D20*
%TO.C,C7*%
X16500000Y17300000D03*
X16500000Y22700000D03*
%TD*%
%TO.C,C6*%
X9000000Y17300000D03*
X9000000Y22700000D03*
%TD*%
%TO.C,C2*%
X30500000Y19800000D03*
X30500000Y25200000D03*
%TD*%
D21*
%TO.C,C3*%
X32000000Y33500000D03*
X24000000Y33500000D03*
%TD*%
D22*
%TO.C,C4*%
X22500000Y18937500D03*
X22500000Y22062500D03*
%TD*%
D23*
%TO.C,U2*%
X19405000Y8525000D03*
X18135000Y8525000D03*
X16865000Y8525000D03*
X15595000Y8525000D03*
X15595000Y13475000D03*
X16865000Y13475000D03*
X18135000Y13475000D03*
X19405000Y13475000D03*
%TD*%
%TO.C,U1*%
X11905000Y8525000D03*
X10635000Y8525000D03*
X9365000Y8525000D03*
X8095000Y8525000D03*
X8095000Y13475000D03*
X9365000Y13475000D03*
X10635000Y13475000D03*
X11905000Y13475000D03*
%TD*%
D24*
%TO.C,C5*%
X36550000Y10107562D03*
D25*
X36550000Y15107562D03*
%TD*%
D22*
%TO.C,C1*%
X25500000Y18937500D03*
X25500000Y22062500D03*
%TD*%
D26*
%TO.C,J1*%
X22595000Y9905000D03*
%TD*%
%TO.C,J3*%
X27595000Y9905000D03*
%TD*%
%TO.C,J4*%
X27595000Y15405000D03*
%TD*%
%TO.C,J5*%
X24595000Y25905000D03*
%TD*%
%TO.C,J2*%
X22595000Y15405000D03*
%TD*%
M02*
