%TF.GenerationSoftware,KiCad,Pcbnew,(6.0.7-1)-1*%
%TF.CreationDate,2022-11-04T13:47:20+01:00*%
%TF.ProjectId,tr707minus10v_kicad,74723730-376d-4696-9e75-733130765f6b,rev?*%
%TF.SameCoordinates,Original*%
%TF.FileFunction,Copper,L2,Bot*%
%TF.FilePolarity,Positive*%
%FSLAX46Y46*%
G04 Gerber Fmt 4.6, Leading zero omitted, Abs format (unit mm)*
G04 Created by KiCad (PCBNEW (6.0.7-1)-1) date 2022-11-04 13:47:20*
%MOMM*%
%LPD*%
G01*
G04 APERTURE LIST*
%TA.AperFunction,ComponentPad*%
%ADD10C,2.000000*%
%TD*%
%TA.AperFunction,ComponentPad*%
%ADD11R,2.000000X2.000000*%
%TD*%
%TA.AperFunction,ComponentPad*%
%ADD12R,1.700000X1.700000*%
%TD*%
%TA.AperFunction,ViaPad*%
%ADD13C,0.800000*%
%TD*%
G04 APERTURE END LIST*
D10*
%TO.P,C5,2*%
%TO.N,-10V*%
X36550000Y15107562D03*
D11*
%TO.P,C5,1*%
%TO.N,GND*%
X36550000Y10107562D03*
%TD*%
D12*
%TO.P,J1,1,Pin_1*%
%TO.N,-10V*%
X22595000Y9905000D03*
%TD*%
%TO.P,J3,1,Pin_1*%
%TO.N,-10V*%
X27595000Y9905000D03*
%TD*%
%TO.P,J4,1,Pin_1*%
%TO.N,unconnected-(J4-Pad1)*%
X27595000Y15405000D03*
%TD*%
%TO.P,J5,1,Pin_1*%
%TO.N,+12V*%
X25000000Y26000000D03*
%TD*%
%TO.P,J2,1,Pin_1*%
%TO.N,GND*%
X22595000Y15405000D03*
%TD*%
D13*
%TO.N,GND*%
X3500000Y7000000D03*
X23000000Y14000000D03*
X24000000Y15000000D03*
X31000000Y22500000D03*
X36000000Y6000000D03*
X18000000Y27000000D03*
X5000000Y25000000D03*
X22500000Y20500000D03*
X37000000Y12000000D03*
X25500000Y20500000D03*
X22000000Y14000000D03*
X22500000Y31500000D03*
X19000000Y40000000D03*
X16580991Y11609164D03*
X36000000Y12000000D03*
X24000000Y31500000D03*
X35000000Y39000000D03*
X8117314Y11807532D03*
%TD*%
%TA.AperFunction,Conductor*%
%TO.N,GND*%
G36*
X36055804Y41575787D02*
G01*
X36070637Y41573477D01*
X36070641Y41573477D01*
X36079510Y41572096D01*
X36094766Y41574091D01*
X36120089Y41574834D01*
X36211731Y41568281D01*
X36289056Y41562751D01*
X36306852Y41560193D01*
X36497187Y41518789D01*
X36514436Y41513724D01*
X36696935Y41445656D01*
X36713288Y41438188D01*
X36884247Y41344839D01*
X36899370Y41335120D01*
X37008164Y41253679D01*
X37055302Y41218392D01*
X37068889Y41206618D01*
X37206615Y41068892D01*
X37218388Y41055306D01*
X37335117Y40899374D01*
X37344836Y40884251D01*
X37438187Y40713293D01*
X37445653Y40696946D01*
X37476481Y40614292D01*
X37513723Y40514440D01*
X37518788Y40497191D01*
X37560192Y40306856D01*
X37562750Y40289061D01*
X37574325Y40127215D01*
X37573572Y40109109D01*
X37573472Y40100940D01*
X37572090Y40092066D01*
X37573254Y40083163D01*
X37573254Y40083161D01*
X37576339Y40059564D01*
X37577401Y40043597D01*
X37623158Y24322974D01*
X37645923Y16501705D01*
X37646135Y16428723D01*
X37626332Y16360544D01*
X37572812Y16313895D01*
X37502567Y16303587D01*
X37446073Y16326421D01*
X37443181Y16328522D01*
X37439416Y16331738D01*
X37435198Y16334323D01*
X37435195Y16334325D01*
X37241183Y16453216D01*
X37236963Y16455802D01*
X37232393Y16457695D01*
X37232389Y16457697D01*
X37022167Y16544773D01*
X37022165Y16544774D01*
X37017594Y16546667D01*
X36909546Y16572607D01*
X36791524Y16600942D01*
X36791518Y16600943D01*
X36786711Y16602097D01*
X36550000Y16620727D01*
X36313289Y16602097D01*
X36308482Y16600943D01*
X36308476Y16600942D01*
X36190454Y16572607D01*
X36082406Y16546667D01*
X36077835Y16544774D01*
X36077833Y16544773D01*
X35867611Y16457697D01*
X35867607Y16457695D01*
X35863037Y16455802D01*
X35858817Y16453216D01*
X35664798Y16334321D01*
X35664792Y16334317D01*
X35660584Y16331738D01*
X35480031Y16177531D01*
X35325824Y15996978D01*
X35323245Y15992770D01*
X35323241Y15992764D01*
X35212613Y15812236D01*
X35201760Y15794525D01*
X35199867Y15789955D01*
X35199865Y15789951D01*
X35146815Y15661876D01*
X35110895Y15575156D01*
X35055465Y15344273D01*
X35036835Y15107562D01*
X35055465Y14870851D01*
X35110895Y14639968D01*
X35112788Y14635397D01*
X35112789Y14635395D01*
X35194803Y14437396D01*
X35201760Y14420599D01*
X35204346Y14416379D01*
X35323241Y14222360D01*
X35323245Y14222354D01*
X35325824Y14218146D01*
X35348378Y14191739D01*
X35472109Y14046869D01*
X35480031Y14037593D01*
X35660584Y13883386D01*
X35664792Y13880807D01*
X35664798Y13880803D01*
X35702907Y13857450D01*
X35863037Y13759322D01*
X35867607Y13757429D01*
X35867611Y13757427D01*
X36077833Y13670351D01*
X36082406Y13668457D01*
X36162609Y13649202D01*
X36308476Y13614182D01*
X36308482Y13614181D01*
X36313289Y13613027D01*
X36550000Y13594397D01*
X36786711Y13613027D01*
X36791518Y13614181D01*
X36791524Y13614182D01*
X36937391Y13649202D01*
X37017594Y13668457D01*
X37022167Y13670351D01*
X37232389Y13757427D01*
X37232393Y13757429D01*
X37236963Y13759322D01*
X37397093Y13857450D01*
X37435202Y13880803D01*
X37435208Y13880807D01*
X37439416Y13883386D01*
X37443171Y13886593D01*
X37443175Y13886596D01*
X37445975Y13888988D01*
X37510764Y13918019D01*
X37580964Y13907414D01*
X37634287Y13860540D01*
X37653805Y13793545D01*
X37659776Y11741926D01*
X37639974Y11673750D01*
X37586454Y11627101D01*
X37533778Y11615562D01*
X36822115Y11615562D01*
X36806876Y11611087D01*
X36805671Y11609697D01*
X36804000Y11602014D01*
X36804000Y8617678D01*
X36808475Y8602439D01*
X36809865Y8601234D01*
X36817548Y8599563D01*
X37543289Y8599563D01*
X37611410Y8579561D01*
X37657903Y8525905D01*
X37669288Y8473930D01*
X37674834Y6568414D01*
X37673335Y6548663D01*
X37671966Y6539867D01*
X37669788Y6525881D01*
X37671470Y6513020D01*
X37671783Y6510629D01*
X37672526Y6485303D01*
X37668133Y6423884D01*
X37660441Y6316335D01*
X37657883Y6298541D01*
X37616479Y6108207D01*
X37611414Y6090957D01*
X37543344Y5908455D01*
X37535878Y5892107D01*
X37442525Y5721145D01*
X37432814Y5706034D01*
X37429450Y5701540D01*
X37316084Y5550102D01*
X37304311Y5536515D01*
X37166578Y5398783D01*
X37152991Y5387010D01*
X36997063Y5270285D01*
X36981940Y5260566D01*
X36810983Y5167218D01*
X36794630Y5159750D01*
X36612131Y5091683D01*
X36594882Y5086618D01*
X36513492Y5068913D01*
X36404546Y5045214D01*
X36386756Y5042657D01*
X36224820Y5031077D01*
X36207126Y5031813D01*
X36198630Y5031917D01*
X36189760Y5033298D01*
X36180858Y5032134D01*
X36157988Y5029144D01*
X36141731Y5028081D01*
X21193803Y5018802D01*
X4645066Y5008530D01*
X4625606Y5010030D01*
X4617861Y5011236D01*
X4610963Y5012310D01*
X4610961Y5012310D01*
X4602092Y5013691D01*
X4586836Y5011696D01*
X4561513Y5010953D01*
X4392544Y5023036D01*
X4374749Y5025594D01*
X4184411Y5066998D01*
X4167167Y5072061D01*
X3984665Y5140129D01*
X3968313Y5147597D01*
X3797352Y5240947D01*
X3782228Y5250666D01*
X3626297Y5367393D01*
X3612710Y5379166D01*
X3474978Y5516896D01*
X3463205Y5530482D01*
X3448518Y5550102D01*
X3346473Y5686416D01*
X3336754Y5701540D01*
X3279092Y5807140D01*
X5627440Y5807140D01*
X6089241Y5807427D01*
X6088385Y5808283D01*
X7467061Y5808283D01*
X7926579Y5808568D01*
X7925723Y5809424D01*
X9306681Y5809424D01*
X9763917Y5809708D01*
X9763059Y5810566D01*
X11146299Y5810566D01*
X11601253Y5810848D01*
X11600393Y5811708D01*
X12985920Y5811708D01*
X13438591Y5811989D01*
X13437730Y5812850D01*
X14825540Y5812850D01*
X15275929Y5813129D01*
X15275066Y5813992D01*
X16665158Y5813992D01*
X17113264Y5814270D01*
X17112400Y5815134D01*
X18504778Y5815134D01*
X18950603Y5815410D01*
X18949737Y5816276D01*
X20344397Y5816276D01*
X20787940Y5816551D01*
X20787073Y5817418D01*
X22184017Y5817418D01*
X22625276Y5817692D01*
X22624408Y5818560D01*
X24023638Y5818560D01*
X24462614Y5818832D01*
X24461744Y5819702D01*
X25863256Y5819702D01*
X26299950Y5819973D01*
X26299080Y5820843D01*
X27702875Y5820843D01*
X28137287Y5821113D01*
X28136415Y5821985D01*
X29542496Y5821985D01*
X29974626Y5822253D01*
X29973752Y5823127D01*
X31382114Y5823127D01*
X31811961Y5823394D01*
X31597171Y6038184D01*
X31382114Y5823127D01*
X29973752Y5823127D01*
X29758695Y6038184D01*
X29542496Y5821985D01*
X28136415Y5821985D01*
X27920216Y6038184D01*
X27702875Y5820843D01*
X26299080Y5820843D01*
X26081738Y6038184D01*
X25863256Y5819702D01*
X24461744Y5819702D01*
X24243262Y6038184D01*
X24023638Y5818560D01*
X22624408Y5818560D01*
X22404783Y6038184D01*
X22184017Y5817418D01*
X20787073Y5817418D01*
X20566306Y6038185D01*
X20344397Y5816276D01*
X18949737Y5816276D01*
X18727829Y6038184D01*
X18504778Y5815134D01*
X17112400Y5815134D01*
X16889350Y6038184D01*
X16665158Y5813992D01*
X15275066Y5813992D01*
X15050874Y6038184D01*
X14825540Y5812850D01*
X13437730Y5812850D01*
X13212396Y6038184D01*
X12985920Y5811708D01*
X11600393Y5811708D01*
X11373917Y6038184D01*
X11146299Y5810566D01*
X9763059Y5810566D01*
X9535441Y6038184D01*
X9306681Y5809424D01*
X7925723Y5809424D01*
X7696962Y6038184D01*
X7467061Y5808283D01*
X6088385Y5808283D01*
X5858484Y6038184D01*
X5627440Y5807140D01*
X3279092Y5807140D01*
X3243403Y5872499D01*
X3235942Y5888835D01*
X3167865Y6071352D01*
X3162804Y6088593D01*
X3121398Y6278933D01*
X3118839Y6296726D01*
X3114204Y6361521D01*
X3107525Y6454903D01*
X3108616Y6477758D01*
X3108154Y6477799D01*
X3108588Y6482643D01*
X3109397Y6487448D01*
X3109550Y6500000D01*
X3105638Y6527318D01*
X3104366Y6545304D01*
X3104423Y6602455D01*
X4584278Y6602455D01*
X4939246Y6247487D01*
X5294214Y6602456D01*
X6422756Y6602456D01*
X6777724Y6247487D01*
X7132692Y6602455D01*
X8261233Y6602455D01*
X8616201Y6247487D01*
X8971168Y6602455D01*
X10099711Y6602455D01*
X10454679Y6247487D01*
X10809647Y6602456D01*
X11938189Y6602456D01*
X12293157Y6247487D01*
X12648125Y6602455D01*
X13776666Y6602455D01*
X14131634Y6247487D01*
X14486602Y6602456D01*
X15615144Y6602456D01*
X15970112Y6247487D01*
X16325080Y6602455D01*
X16325079Y6602456D01*
X17453622Y6602456D01*
X17808590Y6247487D01*
X18163558Y6602455D01*
X19292099Y6602455D01*
X19647067Y6247487D01*
X20002035Y6602456D01*
X21130577Y6602456D01*
X21485545Y6247487D01*
X21840513Y6602455D01*
X22969054Y6602455D01*
X23324022Y6247487D01*
X23678989Y6602455D01*
X24807532Y6602455D01*
X25162500Y6247487D01*
X25517468Y6602456D01*
X26646010Y6602456D01*
X27000978Y6247487D01*
X27355946Y6602455D01*
X28484487Y6602455D01*
X28839455Y6247487D01*
X29194423Y6602456D01*
X30322965Y6602456D01*
X30677933Y6247487D01*
X31032901Y6602455D01*
X31032900Y6602456D01*
X32161443Y6602456D01*
X32516411Y6247487D01*
X32871379Y6602455D01*
X32516410Y6957423D01*
X32161443Y6602456D01*
X31032900Y6602456D01*
X30677932Y6957423D01*
X30322965Y6602456D01*
X29194423Y6602456D01*
X28839456Y6957423D01*
X28484487Y6602455D01*
X27355946Y6602455D01*
X27000977Y6957423D01*
X26646010Y6602456D01*
X25517468Y6602456D01*
X25162501Y6957423D01*
X24807532Y6602455D01*
X23678989Y6602455D01*
X23678990Y6602456D01*
X23324023Y6957423D01*
X22969054Y6602455D01*
X21840513Y6602455D01*
X21485544Y6957423D01*
X21130577Y6602456D01*
X20002035Y6602456D01*
X19647068Y6957423D01*
X19292099Y6602455D01*
X18163558Y6602455D01*
X17808589Y6957423D01*
X17453622Y6602456D01*
X16325079Y6602456D01*
X15970111Y6957423D01*
X15615144Y6602456D01*
X14486602Y6602456D01*
X14131635Y6957423D01*
X13776666Y6602455D01*
X12648125Y6602455D01*
X12293156Y6957423D01*
X11938189Y6602456D01*
X10809647Y6602456D01*
X10454680Y6957423D01*
X10099711Y6602455D01*
X8971168Y6602455D01*
X8971169Y6602456D01*
X8616202Y6957423D01*
X8261233Y6602455D01*
X7132692Y6602455D01*
X6777723Y6957423D01*
X6422756Y6602456D01*
X5294214Y6602456D01*
X4939247Y6957423D01*
X4584278Y6602455D01*
X3104423Y6602455D01*
X3104867Y7049216D01*
X33619707Y7049216D01*
X33629674Y6859038D01*
X33631485Y6852465D01*
X33631485Y6852462D01*
X33678433Y6682018D01*
X33680246Y6675436D01*
X33769064Y6506978D01*
X33773469Y6501765D01*
X33773472Y6501761D01*
X33839284Y6423884D01*
X33891985Y6361521D01*
X33897404Y6357378D01*
X33897406Y6357376D01*
X33962845Y6307344D01*
X34043272Y6245853D01*
X34049455Y6242970D01*
X34049458Y6242968D01*
X34105812Y6216690D01*
X34215869Y6165370D01*
X34401721Y6123827D01*
X34407569Y6123500D01*
X34547573Y6123500D01*
X34689325Y6138899D01*
X34695788Y6141074D01*
X34695792Y6141075D01*
X34863346Y6197464D01*
X34863348Y6197465D01*
X34869817Y6199642D01*
X35033056Y6297725D01*
X35052736Y6316335D01*
X35166466Y6423884D01*
X35166468Y6423886D01*
X35171424Y6428573D01*
X35278467Y6586082D01*
X35285016Y6602455D01*
X35346656Y6756565D01*
X35346657Y6756570D01*
X35349190Y6762902D01*
X35380293Y6950784D01*
X35370326Y7140962D01*
X35363230Y7166726D01*
X35321567Y7317982D01*
X35319754Y7324564D01*
X35230936Y7493022D01*
X35226531Y7498235D01*
X35226528Y7498239D01*
X35206708Y7521693D01*
X36757637Y7521693D01*
X36874397Y7404933D01*
X36873719Y7637776D01*
X36757637Y7521693D01*
X35206708Y7521693D01*
X35112420Y7633266D01*
X35108015Y7638479D01*
X34956728Y7754147D01*
X34950545Y7757030D01*
X34950542Y7757032D01*
X34852957Y7802536D01*
X34784131Y7834630D01*
X34598279Y7876173D01*
X34592431Y7876500D01*
X34452427Y7876500D01*
X34310675Y7861101D01*
X34304212Y7858926D01*
X34304208Y7858925D01*
X34136654Y7802536D01*
X34136652Y7802535D01*
X34130183Y7800358D01*
X33966944Y7702275D01*
X33961986Y7697587D01*
X33961984Y7697585D01*
X33893969Y7633266D01*
X33828576Y7571427D01*
X33721533Y7413918D01*
X33719000Y7407584D01*
X33718998Y7407581D01*
X33653344Y7243435D01*
X33653343Y7243430D01*
X33650810Y7237098D01*
X33619707Y7049216D01*
X3104867Y7049216D01*
X3105336Y7521693D01*
X5503517Y7521693D01*
X5858484Y7166726D01*
X6213452Y7521693D01*
X7341995Y7521693D01*
X7696962Y7166726D01*
X8051931Y7521694D01*
X9180472Y7521694D01*
X9535441Y7166726D01*
X9890408Y7521693D01*
X11018950Y7521693D01*
X11373917Y7166726D01*
X11728886Y7521694D01*
X12857427Y7521694D01*
X13212396Y7166726D01*
X13567363Y7521693D01*
X13567362Y7521694D01*
X14695905Y7521694D01*
X15050874Y7166726D01*
X15405841Y7521693D01*
X16534383Y7521693D01*
X16889350Y7166726D01*
X17244319Y7521694D01*
X18372860Y7521694D01*
X18727829Y7166726D01*
X19082796Y7521693D01*
X20211338Y7521693D01*
X20566306Y7166725D01*
X20921274Y7521693D01*
X22049816Y7521693D01*
X22404783Y7166726D01*
X22759752Y7521694D01*
X23888293Y7521694D01*
X24243262Y7166726D01*
X24598229Y7521693D01*
X25726771Y7521693D01*
X26081738Y7166726D01*
X26436706Y7521693D01*
X27565249Y7521693D01*
X27920216Y7166726D01*
X28275185Y7521694D01*
X29403726Y7521694D01*
X29758695Y7166726D01*
X30113662Y7521693D01*
X31242204Y7521693D01*
X31597171Y7166726D01*
X31952140Y7521694D01*
X31597172Y7876662D01*
X31242204Y7521693D01*
X30113662Y7521693D01*
X29758694Y7876662D01*
X29403726Y7521694D01*
X28275185Y7521694D01*
X28048379Y7748500D01*
X27792056Y7748500D01*
X27565249Y7521693D01*
X26436706Y7521693D01*
X26436707Y7521694D01*
X26081739Y7876662D01*
X25726771Y7521693D01*
X24598229Y7521693D01*
X24243261Y7876662D01*
X23888293Y7521694D01*
X22759752Y7521694D01*
X22532946Y7748500D01*
X22276623Y7748500D01*
X22049816Y7521693D01*
X20921274Y7521693D01*
X20566306Y7876661D01*
X20211338Y7521693D01*
X19082796Y7521693D01*
X18727828Y7876662D01*
X18372860Y7521694D01*
X17244319Y7521694D01*
X16889351Y7876662D01*
X16534383Y7521693D01*
X15405841Y7521693D01*
X15050873Y7876662D01*
X14695905Y7521694D01*
X13567362Y7521694D01*
X13212395Y7876662D01*
X12857427Y7521694D01*
X11728886Y7521694D01*
X11373918Y7876662D01*
X11018950Y7521693D01*
X9890408Y7521693D01*
X9535440Y7876662D01*
X9180472Y7521694D01*
X8051931Y7521694D01*
X7696963Y7876662D01*
X7341995Y7521693D01*
X6213452Y7521693D01*
X6213453Y7521694D01*
X5858485Y7876662D01*
X5503517Y7521693D01*
X3105336Y7521693D01*
X3106249Y8440933D01*
X4584278Y8440933D01*
X4939247Y8085965D01*
X5294214Y8440932D01*
X6422756Y8440932D01*
X6777723Y8085965D01*
X7132692Y8440933D01*
X8261233Y8440933D01*
X8616202Y8085965D01*
X8971169Y8440932D01*
X8971168Y8440933D01*
X10099711Y8440933D01*
X10454680Y8085965D01*
X10809647Y8440932D01*
X11938189Y8440932D01*
X12293156Y8085965D01*
X12648125Y8440933D01*
X13776666Y8440933D01*
X14131635Y8085965D01*
X14486602Y8440932D01*
X15615144Y8440932D01*
X15970111Y8085965D01*
X16325079Y8440932D01*
X17453622Y8440932D01*
X17808589Y8085965D01*
X18163558Y8440933D01*
X19292099Y8440933D01*
X19647068Y8085965D01*
X20002035Y8440932D01*
X20002034Y8440933D01*
X24807532Y8440933D01*
X25162501Y8085965D01*
X25517468Y8440932D01*
X30322965Y8440932D01*
X30677932Y8085965D01*
X31032900Y8440932D01*
X32161443Y8440932D01*
X32516410Y8085965D01*
X32871379Y8440933D01*
X32516411Y8795901D01*
X32161443Y8440932D01*
X31032900Y8440932D01*
X31032901Y8440933D01*
X30677933Y8795901D01*
X30322965Y8440932D01*
X25517468Y8440932D01*
X25162500Y8795901D01*
X24807532Y8440933D01*
X20002034Y8440933D01*
X19647067Y8795901D01*
X19292099Y8440933D01*
X18163558Y8440933D01*
X17808590Y8795901D01*
X17453622Y8440932D01*
X16325079Y8440932D01*
X16325080Y8440933D01*
X15970112Y8795901D01*
X15615144Y8440932D01*
X14486602Y8440932D01*
X14131634Y8795901D01*
X13776666Y8440933D01*
X12648125Y8440933D01*
X12293157Y8795901D01*
X11938189Y8440932D01*
X10809647Y8440932D01*
X10454679Y8795901D01*
X10099711Y8440933D01*
X8971168Y8440933D01*
X8616201Y8795901D01*
X8261233Y8440933D01*
X7132692Y8440933D01*
X6777724Y8795901D01*
X6422756Y8440932D01*
X5294214Y8440932D01*
X4939246Y8795901D01*
X4584278Y8440933D01*
X3106249Y8440933D01*
X3106622Y8816703D01*
X3106923Y9120286D01*
X3904924Y9120286D01*
X4020007Y9005203D01*
X4374975Y9360171D01*
X5503517Y9360171D01*
X5858484Y9005204D01*
X6213452Y9360171D01*
X7341995Y9360171D01*
X7696962Y9005204D01*
X8051931Y9360172D01*
X9180472Y9360172D01*
X9535441Y9005204D01*
X9890408Y9360171D01*
X11018950Y9360171D01*
X11373917Y9005204D01*
X11728886Y9360172D01*
X12857427Y9360172D01*
X13212396Y9005204D01*
X13567363Y9360171D01*
X13567362Y9360172D01*
X14695905Y9360172D01*
X15050874Y9005204D01*
X15405841Y9360171D01*
X16534383Y9360171D01*
X16889350Y9005204D01*
X17244319Y9360172D01*
X18372860Y9360172D01*
X18727829Y9005204D01*
X18729491Y9006866D01*
X21236500Y9006866D01*
X21243255Y8944684D01*
X21294385Y8808295D01*
X21381739Y8691739D01*
X21498295Y8604385D01*
X21634684Y8553255D01*
X21696866Y8546500D01*
X23493134Y8546500D01*
X23555316Y8553255D01*
X23691705Y8604385D01*
X23808261Y8691739D01*
X23895615Y8808295D01*
X23946745Y8944684D01*
X23953500Y9006866D01*
X26236500Y9006866D01*
X26243255Y8944684D01*
X26294385Y8808295D01*
X26381739Y8691739D01*
X26498295Y8604385D01*
X26634684Y8553255D01*
X26696866Y8546500D01*
X28493134Y8546500D01*
X28555316Y8553255D01*
X28691705Y8604385D01*
X28808261Y8691739D01*
X28895615Y8808295D01*
X28946745Y8944684D01*
X28953500Y9006866D01*
X28953500Y9012399D01*
X29751500Y9012399D01*
X29758695Y9005204D01*
X30113662Y9360171D01*
X31242204Y9360171D01*
X31597171Y9005204D01*
X31952140Y9360172D01*
X33080681Y9360172D01*
X33435650Y9005204D01*
X33493339Y9062893D01*
X35042001Y9062893D01*
X35042371Y9056072D01*
X35047895Y9005210D01*
X35051521Y8989958D01*
X35096676Y8869508D01*
X35105214Y8853913D01*
X35181715Y8751838D01*
X35194276Y8739277D01*
X35296351Y8662776D01*
X35311946Y8654238D01*
X35432394Y8609084D01*
X35447649Y8605457D01*
X35498514Y8599931D01*
X35505328Y8599562D01*
X36277885Y8599562D01*
X36293124Y8604037D01*
X36294329Y8605427D01*
X36296000Y8613110D01*
X36296000Y9835447D01*
X36291525Y9850686D01*
X36290135Y9851891D01*
X36282452Y9853562D01*
X35060116Y9853562D01*
X35044877Y9849087D01*
X35043672Y9847697D01*
X35042001Y9840014D01*
X35042001Y9062893D01*
X33493339Y9062893D01*
X33790617Y9360171D01*
X33435649Y9715140D01*
X33080681Y9360172D01*
X31952140Y9360172D01*
X31597172Y9715140D01*
X31242204Y9360171D01*
X30113662Y9360171D01*
X29758694Y9715140D01*
X29751500Y9707946D01*
X29751500Y9012399D01*
X28953500Y9012399D01*
X28953500Y10279411D01*
X30322965Y10279411D01*
X30677933Y9924442D01*
X31032901Y10279410D01*
X31032900Y10279411D01*
X32161443Y10279411D01*
X32516411Y9924442D01*
X32871379Y10279410D01*
X33999920Y10279410D01*
X34263568Y10015762D01*
X34270743Y10048745D01*
X34272354Y10055297D01*
X34287818Y10111665D01*
X34288514Y10113345D01*
X34271221Y10172239D01*
X34267400Y10189805D01*
X34245283Y10343630D01*
X34244000Y10361562D01*
X34244000Y10379677D01*
X35042000Y10379677D01*
X35046475Y10364438D01*
X35047865Y10363233D01*
X35055548Y10361562D01*
X36277885Y10361562D01*
X36293124Y10366037D01*
X36294329Y10367427D01*
X36296000Y10375110D01*
X36296000Y11597446D01*
X36291525Y11612685D01*
X36290135Y11613890D01*
X36282452Y11615561D01*
X35505331Y11615561D01*
X35498510Y11615191D01*
X35447648Y11609667D01*
X35432396Y11606041D01*
X35311946Y11560886D01*
X35296351Y11552348D01*
X35194276Y11475847D01*
X35181715Y11463286D01*
X35105214Y11361211D01*
X35096676Y11345616D01*
X35051522Y11225168D01*
X35047895Y11209913D01*
X35042369Y11159048D01*
X35042000Y11152234D01*
X35042000Y10379677D01*
X34244000Y10379677D01*
X34244000Y10523490D01*
X33999920Y10279410D01*
X32871379Y10279410D01*
X32516410Y10634378D01*
X32161443Y10279411D01*
X31032900Y10279411D01*
X30677932Y10634378D01*
X30322965Y10279411D01*
X28953500Y10279411D01*
X28953500Y10803134D01*
X28946745Y10865316D01*
X28895615Y11001705D01*
X28808261Y11118261D01*
X28691705Y11205615D01*
X28555316Y11256745D01*
X28493134Y11263500D01*
X26696866Y11263500D01*
X26634684Y11256745D01*
X26498295Y11205615D01*
X26381739Y11118261D01*
X26294385Y11001705D01*
X26243255Y10865316D01*
X26236500Y10803134D01*
X26236500Y9006866D01*
X23953500Y9006866D01*
X23953500Y10279410D01*
X24807532Y10279410D01*
X25162500Y9924442D01*
X25438500Y10200442D01*
X25438500Y10358379D01*
X25162501Y10634378D01*
X24807532Y10279410D01*
X23953500Y10279410D01*
X23953500Y10803134D01*
X23946745Y10865316D01*
X23895615Y11001705D01*
X23808261Y11118261D01*
X23691705Y11205615D01*
X23555316Y11256745D01*
X23493134Y11263500D01*
X21696866Y11263500D01*
X21634684Y11256745D01*
X21498295Y11205615D01*
X21381739Y11118261D01*
X21294385Y11001705D01*
X21243255Y10865316D01*
X21236500Y10803134D01*
X21236500Y9006866D01*
X18729491Y9006866D01*
X19082796Y9360171D01*
X20211338Y9360171D01*
X20438500Y9133009D01*
X20438500Y9587333D01*
X20211338Y9360171D01*
X19082796Y9360171D01*
X18727828Y9715140D01*
X18372860Y9360172D01*
X17244319Y9360172D01*
X16889351Y9715140D01*
X16534383Y9360171D01*
X15405841Y9360171D01*
X15050873Y9715140D01*
X14695905Y9360172D01*
X13567362Y9360172D01*
X13212395Y9715140D01*
X12857427Y9360172D01*
X11728886Y9360172D01*
X11373918Y9715140D01*
X11018950Y9360171D01*
X9890408Y9360171D01*
X9535440Y9715140D01*
X9180472Y9360172D01*
X8051931Y9360172D01*
X7696963Y9715140D01*
X7341995Y9360171D01*
X6213452Y9360171D01*
X6213453Y9360172D01*
X5858485Y9715140D01*
X5503517Y9360171D01*
X4374975Y9360171D01*
X4020007Y9715140D01*
X3905401Y9600534D01*
X3904924Y9120286D01*
X3106923Y9120286D01*
X3108074Y10279410D01*
X4584278Y10279410D01*
X4939246Y9924442D01*
X5294214Y10279411D01*
X6422756Y10279411D01*
X6777724Y9924442D01*
X7132692Y10279410D01*
X8261233Y10279410D01*
X8616201Y9924442D01*
X8971168Y10279410D01*
X10099711Y10279410D01*
X10454679Y9924442D01*
X10809647Y10279411D01*
X11938189Y10279411D01*
X12293157Y9924442D01*
X12648125Y10279410D01*
X13776666Y10279410D01*
X14131634Y9924442D01*
X14486602Y10279411D01*
X15615144Y10279411D01*
X15970112Y9924442D01*
X16325080Y10279410D01*
X16325079Y10279411D01*
X17453622Y10279411D01*
X17808590Y9924442D01*
X18163558Y10279410D01*
X19292099Y10279410D01*
X19647067Y9924442D01*
X20002035Y10279411D01*
X19647068Y10634378D01*
X19292099Y10279410D01*
X18163558Y10279410D01*
X17808589Y10634378D01*
X17453622Y10279411D01*
X16325079Y10279411D01*
X15970111Y10634378D01*
X15615144Y10279411D01*
X14486602Y10279411D01*
X14131635Y10634378D01*
X13776666Y10279410D01*
X12648125Y10279410D01*
X12293156Y10634378D01*
X11938189Y10279411D01*
X10809647Y10279411D01*
X10454680Y10634378D01*
X10099711Y10279410D01*
X8971168Y10279410D01*
X8971169Y10279411D01*
X8616202Y10634378D01*
X8261233Y10279410D01*
X7132692Y10279410D01*
X6777723Y10634378D01*
X6422756Y10279411D01*
X5294214Y10279411D01*
X4939247Y10634378D01*
X4584278Y10279410D01*
X3108074Y10279410D01*
X3108747Y10956940D01*
X3906748Y10956940D01*
X4020007Y10843681D01*
X4374975Y11198650D01*
X5503517Y11198650D01*
X5858485Y10843681D01*
X6213453Y11198649D01*
X9180472Y11198649D01*
X9535440Y10843681D01*
X9890408Y11198650D01*
X11018950Y11198650D01*
X11373918Y10843681D01*
X11728886Y11198649D01*
X12857427Y11198649D01*
X13212395Y10843681D01*
X13567362Y11198649D01*
X14695905Y11198649D01*
X15050873Y10843681D01*
X15405840Y11198649D01*
X18372860Y11198649D01*
X18727828Y10843681D01*
X19082796Y11198650D01*
X20211338Y11198650D01*
X20450977Y10959011D01*
X20451019Y10959311D01*
X20462635Y11026645D01*
X20464218Y11034371D01*
X20471499Y11064993D01*
X20473564Y11072607D01*
X20493500Y11137967D01*
X20496036Y11145437D01*
X20547166Y11281826D01*
X20550607Y11290098D01*
X20582944Y11360646D01*
X20586965Y11368654D01*
X20597333Y11387590D01*
X29592668Y11387590D01*
X29603035Y11368654D01*
X29607056Y11360646D01*
X29639393Y11290098D01*
X29642834Y11281826D01*
X29693964Y11145437D01*
X29696500Y11137967D01*
X29716436Y11072607D01*
X29718501Y11064993D01*
X29725782Y11034371D01*
X29727365Y11026645D01*
X29738981Y10959311D01*
X29740078Y10951499D01*
X29746833Y10889317D01*
X29747155Y10885922D01*
X29749549Y10856483D01*
X29749780Y10853084D01*
X29749808Y10852567D01*
X29758694Y10843681D01*
X30113662Y11198650D01*
X31242204Y11198650D01*
X31597172Y10843681D01*
X31952140Y11198649D01*
X33080681Y11198649D01*
X33435649Y10843681D01*
X33790617Y11198650D01*
X33435650Y11553617D01*
X33080681Y11198649D01*
X31952140Y11198649D01*
X31597171Y11553617D01*
X31242204Y11198650D01*
X30113662Y11198650D01*
X29758695Y11553617D01*
X29592668Y11387590D01*
X20597333Y11387590D01*
X20604121Y11399989D01*
X20608701Y11407689D01*
X20649253Y11470671D01*
X20566306Y11553618D01*
X20211338Y11198650D01*
X19082796Y11198650D01*
X18727829Y11553617D01*
X18372860Y11198649D01*
X15405840Y11198649D01*
X15405841Y11198650D01*
X15050874Y11553617D01*
X14695905Y11198649D01*
X13567362Y11198649D01*
X13567363Y11198650D01*
X13212396Y11553617D01*
X12857427Y11198649D01*
X11728886Y11198649D01*
X11373917Y11553617D01*
X11018950Y11198650D01*
X9890408Y11198650D01*
X9535441Y11553617D01*
X9180472Y11198649D01*
X6213453Y11198649D01*
X5858484Y11553617D01*
X5503517Y11198650D01*
X4374975Y11198650D01*
X4020007Y11553618D01*
X3907228Y11440839D01*
X3906748Y10956940D01*
X3108747Y10956940D01*
X3109900Y12117888D01*
X4584278Y12117888D01*
X4939246Y11762920D01*
X5294214Y12117889D01*
X6422756Y12117889D01*
X6777724Y11762920D01*
X7004659Y11989855D01*
X7009218Y12030495D01*
X7014331Y12054549D01*
X7034423Y12117888D01*
X10099711Y12117888D01*
X10454679Y11762920D01*
X10809647Y12117889D01*
X11938189Y12117889D01*
X12293157Y11762920D01*
X12648125Y12117888D01*
X13776666Y12117888D01*
X14131634Y11762920D01*
X14486602Y12117889D01*
X14400295Y12204196D01*
X17539929Y12204196D01*
X17621262Y12051231D01*
X17630633Y12028496D01*
X17668527Y11902983D01*
X17808590Y11762920D01*
X18163558Y12117888D01*
X19292099Y12117888D01*
X19647067Y11762920D01*
X20002035Y12117889D01*
X21130577Y12117889D01*
X21274512Y11973954D01*
X21354563Y12003964D01*
X21362033Y12006500D01*
X21427393Y12026436D01*
X21435007Y12028501D01*
X21465629Y12035782D01*
X21473355Y12037365D01*
X21540689Y12048981D01*
X21548501Y12050078D01*
X21610683Y12056833D01*
X21614078Y12057155D01*
X21643517Y12059549D01*
X21646916Y12059780D01*
X21660524Y12060517D01*
X21663930Y12060655D01*
X21693458Y12061454D01*
X21696866Y12061500D01*
X21784125Y12061500D01*
X21840513Y12117888D01*
X22969054Y12117888D01*
X23025442Y12061500D01*
X23493134Y12061500D01*
X23496542Y12061454D01*
X23526070Y12060655D01*
X23529476Y12060517D01*
X23543084Y12059780D01*
X23546483Y12059549D01*
X23575922Y12057155D01*
X23579317Y12056833D01*
X23614152Y12053049D01*
X23678991Y12117888D01*
X24807532Y12117888D01*
X25162500Y11762920D01*
X25517468Y12117889D01*
X26646010Y12117889D01*
X26702399Y12061500D01*
X27299558Y12061500D01*
X27355946Y12117888D01*
X28484487Y12117888D01*
X28542567Y12059808D01*
X28543084Y12059780D01*
X28546483Y12059549D01*
X28575922Y12057155D01*
X28579317Y12056833D01*
X28641499Y12050078D01*
X28649311Y12048981D01*
X28716645Y12037365D01*
X28724371Y12035782D01*
X28754993Y12028501D01*
X28762607Y12026436D01*
X28827967Y12006500D01*
X28835437Y12003964D01*
X28971826Y11952834D01*
X28980098Y11949393D01*
X29011524Y11934988D01*
X29194424Y12117888D01*
X29194423Y12117889D01*
X30322965Y12117889D01*
X30677933Y11762920D01*
X31032901Y12117888D01*
X31032900Y12117889D01*
X32161443Y12117889D01*
X32516411Y11762920D01*
X32871379Y12117888D01*
X33999920Y12117888D01*
X34354888Y11762920D01*
X34594371Y12002403D01*
X34604987Y12014648D01*
X34611095Y12021206D01*
X34636356Y12046467D01*
X34642910Y12052572D01*
X34655161Y12063194D01*
X34709856Y12117889D01*
X34354889Y12472856D01*
X33999920Y12117888D01*
X32871379Y12117888D01*
X32516410Y12472856D01*
X32161443Y12117889D01*
X31032900Y12117889D01*
X30677932Y12472856D01*
X30322965Y12117889D01*
X29194423Y12117889D01*
X28839456Y12472856D01*
X28484487Y12117888D01*
X27355946Y12117888D01*
X27000977Y12472856D01*
X26646010Y12117889D01*
X25517468Y12117889D01*
X25162501Y12472856D01*
X24807532Y12117888D01*
X23678991Y12117888D01*
X23324023Y12472856D01*
X22969054Y12117888D01*
X21840513Y12117888D01*
X21485544Y12472856D01*
X21130577Y12117889D01*
X20002035Y12117889D01*
X19647068Y12472856D01*
X19292099Y12117888D01*
X18163558Y12117888D01*
X17808589Y12472856D01*
X17539929Y12204196D01*
X14400295Y12204196D01*
X14131635Y12472856D01*
X13776666Y12117888D01*
X12648125Y12117888D01*
X12293156Y12472856D01*
X11938189Y12117889D01*
X10809647Y12117889D01*
X10454680Y12472856D01*
X10099711Y12117888D01*
X7034423Y12117888D01*
X7058089Y12192492D01*
X6777724Y12472857D01*
X6422756Y12117889D01*
X5294214Y12117889D01*
X4939247Y12472856D01*
X4584278Y12117888D01*
X3109900Y12117888D01*
X3110571Y12793595D01*
X3908572Y12793595D01*
X4020008Y12682159D01*
X4374975Y13037126D01*
X5503517Y13037126D01*
X5858484Y12682159D01*
X6213452Y13037126D01*
X7341995Y13037126D01*
X7581217Y12797904D01*
X7682520Y12850864D01*
X7705319Y12860075D01*
X7893450Y12915446D01*
X7917607Y12920054D01*
X7936585Y12921781D01*
X8051931Y13037127D01*
X9180472Y13037127D01*
X9535441Y12682159D01*
X9890408Y13037126D01*
X11018950Y13037126D01*
X11373917Y12682159D01*
X11728886Y13037127D01*
X12857427Y13037127D01*
X13212396Y12682159D01*
X13567363Y13037126D01*
X13567362Y13037127D01*
X14695905Y13037127D01*
X15050874Y12682159D01*
X15405841Y13037126D01*
X16534383Y13037126D01*
X16874417Y12697092D01*
X16897224Y12690032D01*
X17244319Y13037127D01*
X18372860Y13037127D01*
X18727829Y12682159D01*
X19082796Y13037126D01*
X20211338Y13037126D01*
X20566306Y12682158D01*
X20771643Y12887495D01*
X22199447Y12887495D01*
X22404783Y12682159D01*
X22651777Y12929153D01*
X22558778Y12959370D01*
X22536244Y12969215D01*
X22498547Y12990283D01*
X22420184Y12950699D01*
X22397258Y12941807D01*
X22208372Y12889069D01*
X22199447Y12887495D01*
X20771643Y12887495D01*
X20921274Y13037126D01*
X20921273Y13037127D01*
X23888293Y13037127D01*
X24243262Y12682159D01*
X24598229Y13037126D01*
X25726771Y13037126D01*
X26081738Y12682159D01*
X26436706Y13037126D01*
X27565249Y13037126D01*
X27920216Y12682159D01*
X28275185Y13037127D01*
X29403726Y13037127D01*
X29758695Y12682159D01*
X30113662Y13037126D01*
X31242204Y13037126D01*
X31597171Y12682159D01*
X31952140Y13037127D01*
X33080681Y13037127D01*
X33435650Y12682159D01*
X33790617Y13037126D01*
X33790616Y13037127D01*
X34919159Y13037127D01*
X35180781Y12775505D01*
X35200429Y12798921D01*
X35217999Y12816127D01*
X35370835Y12939010D01*
X35391412Y12952475D01*
X35539943Y13030125D01*
X35514196Y13041994D01*
X35509746Y13044152D01*
X35492129Y13053128D01*
X35487764Y13055461D01*
X35450351Y13076413D01*
X35446082Y13078915D01*
X35243629Y13202979D01*
X35239461Y13205647D01*
X35203811Y13229468D01*
X35199752Y13232298D01*
X35183756Y13243920D01*
X35179811Y13246906D01*
X35151364Y13269332D01*
X34919159Y13037127D01*
X33790616Y13037127D01*
X33435649Y13392095D01*
X33080681Y13037127D01*
X31952140Y13037127D01*
X31597172Y13392095D01*
X31242204Y13037126D01*
X30113662Y13037126D01*
X29758694Y13392095D01*
X29403726Y13037127D01*
X28275185Y13037127D01*
X28063812Y13248500D01*
X27776623Y13248500D01*
X27565249Y13037126D01*
X26436706Y13037126D01*
X26436707Y13037127D01*
X26081739Y13392095D01*
X25726771Y13037126D01*
X24598229Y13037126D01*
X24243261Y13392095D01*
X23888293Y13037127D01*
X20921273Y13037127D01*
X20566306Y13392094D01*
X20211338Y13037126D01*
X19082796Y13037126D01*
X18727828Y13392095D01*
X18372860Y13037127D01*
X17244319Y13037127D01*
X16889351Y13392095D01*
X16534383Y13037126D01*
X15405841Y13037126D01*
X15050873Y13392095D01*
X14695905Y13037127D01*
X13567362Y13037127D01*
X13212395Y13392095D01*
X12857427Y13037127D01*
X11728886Y13037127D01*
X11373918Y13392095D01*
X11018950Y13037126D01*
X9890408Y13037126D01*
X9535440Y13392095D01*
X9180472Y13037127D01*
X8051931Y13037127D01*
X7696963Y13392095D01*
X7341995Y13037126D01*
X6213452Y13037126D01*
X6213453Y13037127D01*
X5858485Y13392095D01*
X5503517Y13037126D01*
X4374975Y13037126D01*
X4020007Y13392095D01*
X3909055Y13281143D01*
X3908572Y12793595D01*
X3110571Y12793595D01*
X3111726Y13956366D01*
X4584278Y13956366D01*
X4939247Y13601398D01*
X5294214Y13956365D01*
X6422756Y13956365D01*
X6777723Y13601398D01*
X7132692Y13956366D01*
X8261233Y13956366D01*
X8616202Y13601398D01*
X8971169Y13956365D01*
X8971168Y13956366D01*
X10099711Y13956366D01*
X10454680Y13601398D01*
X10809647Y13956365D01*
X11938189Y13956365D01*
X12293156Y13601398D01*
X12648125Y13956366D01*
X13776666Y13956366D01*
X14131635Y13601398D01*
X14486602Y13956365D01*
X15615144Y13956365D01*
X15970111Y13601398D01*
X16325079Y13956365D01*
X17453622Y13956365D01*
X17808589Y13601398D01*
X18163558Y13956366D01*
X19292099Y13956366D01*
X19647068Y13601398D01*
X20002035Y13956365D01*
X20002034Y13956366D01*
X24807532Y13956366D01*
X25162501Y13601398D01*
X25517468Y13956365D01*
X30322965Y13956365D01*
X30677932Y13601398D01*
X31032900Y13956365D01*
X32161443Y13956365D01*
X32516410Y13601398D01*
X32871379Y13956366D01*
X33999920Y13956366D01*
X34354889Y13601398D01*
X34610941Y13857450D01*
X34521353Y14003644D01*
X34518851Y14007913D01*
X34497899Y14045326D01*
X34495566Y14049691D01*
X34486590Y14067308D01*
X34484432Y14071758D01*
X34466486Y14110686D01*
X34464503Y14115219D01*
X34403338Y14262884D01*
X34354888Y14311334D01*
X33999920Y13956366D01*
X32871379Y13956366D01*
X32516411Y14311334D01*
X32161443Y13956365D01*
X31032900Y13956365D01*
X31032901Y13956366D01*
X30677933Y14311334D01*
X30322965Y13956365D01*
X25517468Y13956365D01*
X25162500Y14311334D01*
X24807532Y13956366D01*
X20002034Y13956366D01*
X19647067Y14311334D01*
X19292099Y13956366D01*
X18163558Y13956366D01*
X17808590Y14311334D01*
X17453622Y13956365D01*
X16325079Y13956365D01*
X16325080Y13956366D01*
X15970112Y14311334D01*
X15615144Y13956365D01*
X14486602Y13956365D01*
X14131634Y14311334D01*
X13776666Y13956366D01*
X12648125Y13956366D01*
X12293157Y14311334D01*
X11938189Y13956365D01*
X10809647Y13956365D01*
X10454679Y14311334D01*
X10099711Y13956366D01*
X8971168Y13956366D01*
X8616201Y14311334D01*
X8261233Y13956366D01*
X7132692Y13956366D01*
X6777724Y14311334D01*
X6422756Y13956365D01*
X5294214Y13956365D01*
X4939246Y14311334D01*
X4584278Y13956366D01*
X3111726Y13956366D01*
X3112276Y14510331D01*
X21237001Y14510331D01*
X21237371Y14503510D01*
X21242895Y14452648D01*
X21246521Y14437396D01*
X21291676Y14316946D01*
X21300214Y14301351D01*
X21376715Y14199276D01*
X21389276Y14186715D01*
X21491351Y14110214D01*
X21506946Y14101676D01*
X21627394Y14056522D01*
X21642649Y14052895D01*
X21693514Y14047369D01*
X21700328Y14047000D01*
X22322885Y14047000D01*
X22338124Y14051475D01*
X22339329Y14052865D01*
X22341000Y14060548D01*
X22341000Y14065116D01*
X22849000Y14065116D01*
X22853475Y14049877D01*
X22854865Y14048672D01*
X22862548Y14047001D01*
X23489669Y14047001D01*
X23496490Y14047371D01*
X23547352Y14052895D01*
X23562604Y14056521D01*
X23683054Y14101676D01*
X23698649Y14110214D01*
X23800724Y14186715D01*
X23813285Y14199276D01*
X23889786Y14301351D01*
X23898324Y14316946D01*
X23943478Y14437394D01*
X23947105Y14452649D01*
X23952631Y14503514D01*
X23952813Y14506866D01*
X26236500Y14506866D01*
X26243255Y14444684D01*
X26294385Y14308295D01*
X26381739Y14191739D01*
X26498295Y14104385D01*
X26634684Y14053255D01*
X26696866Y14046500D01*
X28493134Y14046500D01*
X28555316Y14053255D01*
X28691705Y14104385D01*
X28808261Y14191739D01*
X28895615Y14308295D01*
X28946745Y14444684D01*
X28953500Y14506866D01*
X28953500Y14527830D01*
X29751500Y14527830D01*
X29758694Y14520636D01*
X30113662Y14875605D01*
X31242204Y14875605D01*
X31597172Y14520636D01*
X31952140Y14875604D01*
X33080681Y14875604D01*
X33435649Y14520636D01*
X33790617Y14875605D01*
X33435650Y15230572D01*
X33080681Y14875604D01*
X31952140Y14875604D01*
X31597171Y15230572D01*
X31242204Y14875605D01*
X30113662Y14875605D01*
X29758694Y15230573D01*
X29751500Y15223379D01*
X29751500Y14527830D01*
X28953500Y14527830D01*
X28953500Y15794844D01*
X30322965Y15794844D01*
X30677933Y15439875D01*
X31032901Y15794843D01*
X31032900Y15794844D01*
X32161443Y15794844D01*
X32516411Y15439875D01*
X32871379Y15794843D01*
X33999920Y15794843D01*
X34276890Y15517873D01*
X34278453Y15525731D01*
X34279513Y15530562D01*
X34334943Y15761445D01*
X34336193Y15766233D01*
X34347832Y15807501D01*
X34349268Y15812236D01*
X34355378Y15831040D01*
X34356999Y15835713D01*
X34371835Y15875928D01*
X34373638Y15880536D01*
X34447015Y16057685D01*
X34354889Y16149811D01*
X33999920Y15794843D01*
X32871379Y15794843D01*
X32516410Y16149811D01*
X32161443Y15794844D01*
X31032900Y15794844D01*
X30677932Y16149811D01*
X30322965Y15794844D01*
X28953500Y15794844D01*
X28953500Y16303134D01*
X28946745Y16365316D01*
X28895615Y16501705D01*
X28808261Y16618261D01*
X28691705Y16705615D01*
X28555316Y16756745D01*
X28493134Y16763500D01*
X26696866Y16763500D01*
X26634684Y16756745D01*
X26498295Y16705615D01*
X26381739Y16618261D01*
X26294385Y16501705D01*
X26243255Y16365316D01*
X26236500Y16303134D01*
X26236500Y14506866D01*
X23952813Y14506866D01*
X23953000Y14510328D01*
X23953000Y15132885D01*
X23948525Y15148124D01*
X23947135Y15149329D01*
X23939452Y15151000D01*
X22867115Y15151000D01*
X22851876Y15146525D01*
X22850671Y15145135D01*
X22849000Y15137452D01*
X22849000Y14065116D01*
X22341000Y14065116D01*
X22341000Y15132885D01*
X22336525Y15148124D01*
X22335135Y15149329D01*
X22327452Y15151000D01*
X21255116Y15151000D01*
X21239877Y15146525D01*
X21238672Y15145135D01*
X21237001Y15137452D01*
X21237001Y14510331D01*
X3112276Y14510331D01*
X3112395Y14630248D01*
X3910395Y14630248D01*
X4020007Y14520636D01*
X4374975Y14875605D01*
X5503517Y14875605D01*
X5858485Y14520636D01*
X6213453Y14875604D01*
X6213452Y14875605D01*
X7341995Y14875605D01*
X7696963Y14520636D01*
X8051931Y14875604D01*
X9180472Y14875604D01*
X9535440Y14520636D01*
X9890408Y14875605D01*
X11018950Y14875605D01*
X11373918Y14520636D01*
X11728886Y14875604D01*
X12857427Y14875604D01*
X13212395Y14520636D01*
X13567362Y14875604D01*
X14695905Y14875604D01*
X15050873Y14520636D01*
X15405841Y14875605D01*
X16534383Y14875605D01*
X16889351Y14520636D01*
X17244319Y14875604D01*
X18372860Y14875604D01*
X18727828Y14520636D01*
X19082796Y14875605D01*
X20211338Y14875605D01*
X20439001Y14647942D01*
X20439001Y15103268D01*
X20211338Y14875605D01*
X19082796Y14875605D01*
X18727829Y15230572D01*
X18372860Y14875604D01*
X17244319Y14875604D01*
X16889350Y15230572D01*
X16534383Y14875605D01*
X15405841Y14875605D01*
X15050874Y15230572D01*
X14695905Y14875604D01*
X13567362Y14875604D01*
X13567363Y14875605D01*
X13212396Y15230572D01*
X12857427Y14875604D01*
X11728886Y14875604D01*
X11373917Y15230572D01*
X11018950Y14875605D01*
X9890408Y14875605D01*
X9535441Y15230572D01*
X9180472Y14875604D01*
X8051931Y14875604D01*
X7696962Y15230572D01*
X7341995Y14875605D01*
X6213452Y14875605D01*
X5858484Y15230572D01*
X5503517Y14875605D01*
X4374975Y14875605D01*
X4020008Y15230572D01*
X3910883Y15121447D01*
X3910395Y14630248D01*
X3112395Y14630248D01*
X3113552Y15794843D01*
X4584278Y15794843D01*
X4939246Y15439875D01*
X5294214Y15794844D01*
X6422756Y15794844D01*
X6777724Y15439875D01*
X7132692Y15794843D01*
X8261233Y15794843D01*
X8616201Y15439875D01*
X8971168Y15794843D01*
X10099711Y15794843D01*
X10454679Y15439875D01*
X10809647Y15794844D01*
X11938189Y15794844D01*
X12293157Y15439875D01*
X12648125Y15794843D01*
X13776666Y15794843D01*
X14131634Y15439875D01*
X14486602Y15794844D01*
X15615144Y15794844D01*
X15970112Y15439875D01*
X16325080Y15794843D01*
X16325079Y15794844D01*
X17453622Y15794844D01*
X17808590Y15439875D01*
X18163558Y15794843D01*
X19292099Y15794843D01*
X19647067Y15439875D01*
X19884306Y15677115D01*
X21237000Y15677115D01*
X21241475Y15661876D01*
X21242865Y15660671D01*
X21250548Y15659000D01*
X22322885Y15659000D01*
X22338124Y15663475D01*
X22339329Y15664865D01*
X22341000Y15672548D01*
X22341000Y15677115D01*
X22849000Y15677115D01*
X22853475Y15661876D01*
X22854865Y15660671D01*
X22862548Y15659000D01*
X23934884Y15659000D01*
X23950123Y15663475D01*
X23951328Y15664865D01*
X23952999Y15672548D01*
X23952999Y15794843D01*
X24807532Y15794843D01*
X25162500Y15439875D01*
X25438500Y15715875D01*
X25438500Y15873812D01*
X25162501Y16149811D01*
X24807532Y15794843D01*
X23952999Y15794843D01*
X23952999Y16299669D01*
X23952629Y16306497D01*
X23947105Y16357352D01*
X23943479Y16372604D01*
X23898324Y16493054D01*
X23889786Y16508649D01*
X23813285Y16610724D01*
X23800724Y16623285D01*
X23698649Y16699786D01*
X23683054Y16708324D01*
X23562606Y16753478D01*
X23547351Y16757105D01*
X23496486Y16762631D01*
X23489672Y16763000D01*
X22867115Y16763000D01*
X22851876Y16758525D01*
X22850671Y16757135D01*
X22849000Y16749452D01*
X22849000Y15677115D01*
X22341000Y15677115D01*
X22341000Y16744884D01*
X22336525Y16760123D01*
X22335135Y16761328D01*
X22327452Y16762999D01*
X21700331Y16762999D01*
X21693510Y16762629D01*
X21642648Y16757105D01*
X21627396Y16753479D01*
X21506946Y16708324D01*
X21491351Y16699786D01*
X21389276Y16623285D01*
X21376715Y16610724D01*
X21300214Y16508649D01*
X21291676Y16493054D01*
X21246522Y16372606D01*
X21242895Y16357351D01*
X21237370Y16306497D01*
X21237000Y16299672D01*
X21237000Y15677115D01*
X19884306Y15677115D01*
X20002035Y15794844D01*
X19647068Y16149811D01*
X19292099Y15794843D01*
X18163558Y15794843D01*
X17808589Y16149811D01*
X17453622Y15794844D01*
X16325079Y15794844D01*
X15970111Y16149811D01*
X15615144Y15794844D01*
X14486602Y15794844D01*
X14131635Y16149811D01*
X13776666Y15794843D01*
X12648125Y15794843D01*
X12293156Y16149811D01*
X11938189Y15794844D01*
X10809647Y15794844D01*
X10454680Y16149811D01*
X10099711Y15794843D01*
X8971168Y15794843D01*
X8971169Y15794844D01*
X8616202Y16149811D01*
X8261233Y15794843D01*
X7132692Y15794843D01*
X6777723Y16149811D01*
X6422756Y15794844D01*
X5294214Y15794844D01*
X4939247Y16149811D01*
X4584278Y15794843D01*
X3113552Y15794843D01*
X3114219Y16466902D01*
X3912219Y16466902D01*
X4020007Y16359114D01*
X4374975Y16714083D01*
X5503517Y16714083D01*
X5858485Y16359114D01*
X6213453Y16714082D01*
X6213452Y16714083D01*
X7341995Y16714083D01*
X7696963Y16359114D01*
X8051931Y16714082D01*
X9180472Y16714082D01*
X9535440Y16359114D01*
X9890408Y16714083D01*
X11018950Y16714083D01*
X11373918Y16359114D01*
X11728886Y16714082D01*
X12857427Y16714082D01*
X13212395Y16359114D01*
X13567362Y16714082D01*
X14695905Y16714082D01*
X15050873Y16359114D01*
X15405841Y16714083D01*
X16534383Y16714083D01*
X16889351Y16359114D01*
X17244319Y16714082D01*
X18372860Y16714082D01*
X18727828Y16359114D01*
X19082796Y16714083D01*
X20211338Y16714083D01*
X20453676Y16471745D01*
X20463128Y16526536D01*
X20464711Y16534262D01*
X20471992Y16564884D01*
X20474056Y16572498D01*
X20493992Y16637859D01*
X20496529Y16645329D01*
X20547609Y16781584D01*
X20551051Y16789856D01*
X20583388Y16860403D01*
X20587408Y16868411D01*
X20603369Y16897563D01*
X29587207Y16897563D01*
X29603035Y16868654D01*
X29607056Y16860646D01*
X29639393Y16790098D01*
X29642834Y16781826D01*
X29693964Y16645437D01*
X29696500Y16637967D01*
X29716436Y16572607D01*
X29718501Y16564993D01*
X29725782Y16534371D01*
X29727365Y16526645D01*
X29738981Y16459311D01*
X29740078Y16451499D01*
X29746833Y16389317D01*
X29747155Y16385922D01*
X29748507Y16369301D01*
X29758694Y16359114D01*
X30113662Y16714083D01*
X31242204Y16714083D01*
X31597172Y16359114D01*
X31952140Y16714082D01*
X33080681Y16714082D01*
X33435649Y16359114D01*
X33790617Y16714083D01*
X33560751Y16943949D01*
X35149026Y16943949D01*
X35179811Y16968218D01*
X35183756Y16971204D01*
X35199752Y16982826D01*
X35203811Y16985656D01*
X35239461Y17009477D01*
X35243629Y17012145D01*
X35297823Y17045355D01*
X35274128Y17069050D01*
X35149026Y16943949D01*
X33560751Y16943949D01*
X33435650Y17069050D01*
X33080681Y16714082D01*
X31952140Y16714082D01*
X31597171Y17069050D01*
X31242204Y16714083D01*
X30113662Y16714083D01*
X29758695Y17069050D01*
X29587207Y16897563D01*
X20603369Y16897563D01*
X20604564Y16899746D01*
X20609144Y16907446D01*
X20651148Y16972684D01*
X20655875Y16979482D01*
X20566306Y17069051D01*
X20211338Y16714083D01*
X19082796Y16714083D01*
X18727829Y17069050D01*
X18372860Y16714082D01*
X17244319Y16714082D01*
X16889350Y17069050D01*
X16534383Y16714083D01*
X15405841Y16714083D01*
X15050874Y17069050D01*
X14695905Y16714082D01*
X13567362Y16714082D01*
X13567363Y16714083D01*
X13212396Y17069050D01*
X12857427Y16714082D01*
X11728886Y16714082D01*
X11373917Y17069050D01*
X11018950Y16714083D01*
X9890408Y16714083D01*
X9535441Y17069050D01*
X9180472Y16714082D01*
X8051931Y16714082D01*
X7696962Y17069050D01*
X7341995Y16714083D01*
X6213452Y16714083D01*
X5858484Y17069050D01*
X5503517Y16714083D01*
X4374975Y16714083D01*
X4020007Y17069051D01*
X3912710Y16961754D01*
X3912219Y16466902D01*
X3114219Y16466902D01*
X3115377Y17633321D01*
X4584278Y17633321D01*
X4939247Y17278353D01*
X5294214Y17633320D01*
X6422756Y17633320D01*
X6777723Y17278353D01*
X7132692Y17633321D01*
X8261233Y17633321D01*
X8616202Y17278353D01*
X8971169Y17633320D01*
X8971168Y17633321D01*
X10099711Y17633321D01*
X10454680Y17278353D01*
X10809647Y17633320D01*
X11938189Y17633320D01*
X12293156Y17278353D01*
X12648125Y17633321D01*
X13776666Y17633321D01*
X14131635Y17278353D01*
X14486602Y17633320D01*
X15615144Y17633320D01*
X15970111Y17278353D01*
X16325079Y17633320D01*
X17453622Y17633320D01*
X17808589Y17278353D01*
X18163558Y17633321D01*
X19292099Y17633321D01*
X19647068Y17278353D01*
X20002035Y17633320D01*
X21130577Y17633320D01*
X21286123Y17477774D01*
X21354671Y17503471D01*
X21362142Y17506008D01*
X21427514Y17525947D01*
X21435129Y17528011D01*
X21465754Y17535292D01*
X21473481Y17536875D01*
X21540814Y17548489D01*
X21548626Y17549586D01*
X21610745Y17556333D01*
X21614136Y17556655D01*
X21643559Y17559048D01*
X21646957Y17559279D01*
X21660562Y17560016D01*
X21663970Y17560154D01*
X21693504Y17560953D01*
X21696912Y17560999D01*
X21768191Y17560999D01*
X21840513Y17633321D01*
X22969054Y17633321D01*
X23041375Y17561000D01*
X23493089Y17561000D01*
X23496497Y17560954D01*
X23526025Y17560155D01*
X23529431Y17560017D01*
X23543039Y17559280D01*
X23546438Y17559049D01*
X23575876Y17556655D01*
X23579271Y17556333D01*
X23599776Y17554106D01*
X23678990Y17633320D01*
X23678989Y17633321D01*
X24807532Y17633321D01*
X25162501Y17278353D01*
X25517468Y17633320D01*
X26646010Y17633320D01*
X26717830Y17561500D01*
X27284125Y17561500D01*
X27355946Y17633321D01*
X28484487Y17633321D01*
X28559301Y17558507D01*
X28575922Y17557155D01*
X28579317Y17556833D01*
X28641499Y17550078D01*
X28649311Y17548981D01*
X28716645Y17537365D01*
X28724371Y17535782D01*
X28754993Y17528501D01*
X28762607Y17526436D01*
X28827967Y17506500D01*
X28835437Y17503964D01*
X28971826Y17452834D01*
X28980098Y17449393D01*
X29000942Y17439839D01*
X29194423Y17633320D01*
X30322965Y17633320D01*
X30677932Y17278353D01*
X31032900Y17633320D01*
X32161443Y17633320D01*
X32516410Y17278353D01*
X32871379Y17633321D01*
X33999920Y17633321D01*
X34354889Y17278353D01*
X34709856Y17633320D01*
X35838398Y17633320D01*
X36100122Y17371596D01*
X36127000Y17378049D01*
X36131831Y17379109D01*
X36173877Y17387473D01*
X36178749Y17388343D01*
X36198277Y17391436D01*
X36203179Y17392114D01*
X36245754Y17397153D01*
X36250677Y17397638D01*
X36317945Y17402932D01*
X36548334Y17633321D01*
X36193366Y17988289D01*
X35838398Y17633320D01*
X34709856Y17633320D01*
X34354888Y17988289D01*
X33999920Y17633321D01*
X32871379Y17633321D01*
X32516411Y17988289D01*
X32161443Y17633320D01*
X31032900Y17633320D01*
X31032901Y17633321D01*
X30677933Y17988289D01*
X30322965Y17633320D01*
X29194423Y17633320D01*
X28839455Y17988289D01*
X28484487Y17633321D01*
X27355946Y17633321D01*
X27000978Y17988289D01*
X26646010Y17633320D01*
X25517468Y17633320D01*
X25162500Y17988289D01*
X24807532Y17633321D01*
X23678989Y17633321D01*
X23324022Y17988289D01*
X22969054Y17633321D01*
X21840513Y17633321D01*
X21485545Y17988289D01*
X21130577Y17633320D01*
X20002035Y17633320D01*
X19647067Y17988289D01*
X19292099Y17633321D01*
X18163558Y17633321D01*
X17808590Y17988289D01*
X17453622Y17633320D01*
X16325079Y17633320D01*
X16325080Y17633321D01*
X15970112Y17988289D01*
X15615144Y17633320D01*
X14486602Y17633320D01*
X14131634Y17988289D01*
X13776666Y17633321D01*
X12648125Y17633321D01*
X12293157Y17988289D01*
X11938189Y17633320D01*
X10809647Y17633320D01*
X10454679Y17988289D01*
X10099711Y17633321D01*
X8971168Y17633321D01*
X8616201Y17988289D01*
X8261233Y17633321D01*
X7132692Y17633321D01*
X6777724Y17988289D01*
X6422756Y17633320D01*
X5294214Y17633320D01*
X4939246Y17988289D01*
X4584278Y17633321D01*
X3115377Y17633321D01*
X3116043Y18303555D01*
X3914043Y18303555D01*
X4020007Y18197591D01*
X4374975Y18552559D01*
X5503517Y18552559D01*
X5858484Y18197592D01*
X6213452Y18552559D01*
X7341995Y18552559D01*
X7696962Y18197592D01*
X8051931Y18552560D01*
X9180472Y18552560D01*
X9535441Y18197592D01*
X9890408Y18552559D01*
X11018950Y18552559D01*
X11373917Y18197592D01*
X11728886Y18552560D01*
X12857427Y18552560D01*
X13212396Y18197592D01*
X13567363Y18552559D01*
X13567362Y18552560D01*
X14695905Y18552560D01*
X15050874Y18197592D01*
X15405841Y18552559D01*
X16534383Y18552559D01*
X16889350Y18197592D01*
X17244319Y18552560D01*
X18372860Y18552560D01*
X18727829Y18197592D01*
X19082796Y18552559D01*
X20211338Y18552559D01*
X20566306Y18197591D01*
X20921274Y18552559D01*
X22049816Y18552559D01*
X22404783Y18197592D01*
X22759752Y18552560D01*
X23888293Y18552560D01*
X24243262Y18197592D01*
X24598229Y18552559D01*
X25726771Y18552559D01*
X26081738Y18197592D01*
X26436706Y18552559D01*
X27565249Y18552559D01*
X27920216Y18197592D01*
X28275185Y18552560D01*
X29403726Y18552560D01*
X29758695Y18197592D01*
X30113662Y18552559D01*
X31242204Y18552559D01*
X31597171Y18197592D01*
X31952140Y18552560D01*
X33080681Y18552560D01*
X33435650Y18197592D01*
X33790617Y18552559D01*
X33790616Y18552560D01*
X34919159Y18552560D01*
X35274128Y18197592D01*
X35629095Y18552559D01*
X35274127Y18907528D01*
X34919159Y18552560D01*
X33790616Y18552560D01*
X33435649Y18907528D01*
X33080681Y18552560D01*
X31952140Y18552560D01*
X31597172Y18907528D01*
X31242204Y18552559D01*
X30113662Y18552559D01*
X29758694Y18907528D01*
X29403726Y18552560D01*
X28275185Y18552560D01*
X27920217Y18907528D01*
X27565249Y18552559D01*
X26436706Y18552559D01*
X26436707Y18552560D01*
X26081739Y18907528D01*
X25726771Y18552559D01*
X24598229Y18552559D01*
X24243261Y18907528D01*
X23888293Y18552560D01*
X22759752Y18552560D01*
X22404784Y18907528D01*
X22049816Y18552559D01*
X20921274Y18552559D01*
X20566306Y18907527D01*
X20211338Y18552559D01*
X19082796Y18552559D01*
X18727828Y18907528D01*
X18372860Y18552560D01*
X17244319Y18552560D01*
X16889351Y18907528D01*
X16534383Y18552559D01*
X15405841Y18552559D01*
X15050873Y18907528D01*
X14695905Y18552560D01*
X13567362Y18552560D01*
X13212395Y18907528D01*
X12857427Y18552560D01*
X11728886Y18552560D01*
X11373918Y18907528D01*
X11018950Y18552559D01*
X9890408Y18552559D01*
X9535440Y18907528D01*
X9180472Y18552560D01*
X8051931Y18552560D01*
X7696963Y18907528D01*
X7341995Y18552559D01*
X6213452Y18552559D01*
X6213453Y18552560D01*
X5858485Y18907528D01*
X5503517Y18552559D01*
X4374975Y18552559D01*
X4020007Y18907528D01*
X3914538Y18802059D01*
X3914043Y18303555D01*
X3116043Y18303555D01*
X3117203Y19471799D01*
X4584278Y19471799D01*
X4939247Y19116831D01*
X5294214Y19471798D01*
X6422756Y19471798D01*
X6777723Y19116831D01*
X7132692Y19471799D01*
X8261233Y19471799D01*
X8616202Y19116831D01*
X8971169Y19471798D01*
X8971168Y19471799D01*
X10099711Y19471799D01*
X10454680Y19116831D01*
X10809647Y19471798D01*
X11938189Y19471798D01*
X12293156Y19116831D01*
X12648125Y19471799D01*
X13776666Y19471799D01*
X14131635Y19116831D01*
X14486602Y19471798D01*
X15615144Y19471798D01*
X15970111Y19116831D01*
X16325079Y19471798D01*
X17453622Y19471798D01*
X17808589Y19116831D01*
X18163558Y19471799D01*
X19292099Y19471799D01*
X19647068Y19116831D01*
X20002035Y19471798D01*
X21130577Y19471798D01*
X21485544Y19116831D01*
X21840513Y19471799D01*
X22969054Y19471799D01*
X23324023Y19116831D01*
X23678990Y19471798D01*
X23678989Y19471799D01*
X24807532Y19471799D01*
X25162501Y19116831D01*
X25421062Y19375392D01*
X25269307Y19393488D01*
X25245290Y19398769D01*
X25058778Y19459370D01*
X25036244Y19469215D01*
X25031622Y19471798D01*
X26646010Y19471798D01*
X27000977Y19116831D01*
X27355946Y19471799D01*
X28484487Y19471799D01*
X28839456Y19116831D01*
X29194423Y19471798D01*
X30322965Y19471798D01*
X30677932Y19116831D01*
X31032900Y19471798D01*
X32161443Y19471798D01*
X32516410Y19116831D01*
X32871379Y19471799D01*
X33999920Y19471799D01*
X34354889Y19116831D01*
X34709856Y19471798D01*
X35838398Y19471798D01*
X36193365Y19116831D01*
X36548334Y19471799D01*
X36193366Y19826767D01*
X35838398Y19471798D01*
X34709856Y19471798D01*
X34354888Y19826767D01*
X33999920Y19471799D01*
X32871379Y19471799D01*
X32516411Y19826767D01*
X32161443Y19471798D01*
X31032900Y19471798D01*
X31032901Y19471799D01*
X30677933Y19826767D01*
X30322965Y19471798D01*
X29194423Y19471798D01*
X28839455Y19826767D01*
X28484487Y19471799D01*
X27355946Y19471799D01*
X27000978Y19826767D01*
X26646010Y19471798D01*
X25031622Y19471798D01*
X24887871Y19552138D01*
X24807532Y19471799D01*
X23678989Y19471799D01*
X23368234Y19782554D01*
X23288338Y19689993D01*
X23270531Y19673035D01*
X23115994Y19552297D01*
X23095230Y19539120D01*
X22976300Y19479045D01*
X22969054Y19471799D01*
X21840513Y19471799D01*
X21485545Y19826767D01*
X21130577Y19471798D01*
X20002035Y19471798D01*
X19647067Y19826767D01*
X19292099Y19471799D01*
X18163558Y19471799D01*
X17808590Y19826767D01*
X17453622Y19471798D01*
X16325079Y19471798D01*
X16325080Y19471799D01*
X15970112Y19826767D01*
X15615144Y19471798D01*
X14486602Y19471798D01*
X14131634Y19826767D01*
X13776666Y19471799D01*
X12648125Y19471799D01*
X12293157Y19826767D01*
X11938189Y19471798D01*
X10809647Y19471798D01*
X10454679Y19826767D01*
X10099711Y19471799D01*
X8971168Y19471799D01*
X8616201Y19826767D01*
X8261233Y19471799D01*
X7132692Y19471799D01*
X6777724Y19826767D01*
X6422756Y19471798D01*
X5294214Y19471798D01*
X4939246Y19826767D01*
X4584278Y19471799D01*
X3117203Y19471799D01*
X3117867Y20140209D01*
X3915867Y20140209D01*
X4020007Y20036069D01*
X4374975Y20391038D01*
X5503517Y20391038D01*
X5858485Y20036069D01*
X6213453Y20391037D01*
X6213452Y20391038D01*
X7341995Y20391038D01*
X7696963Y20036069D01*
X8051931Y20391037D01*
X9180472Y20391037D01*
X9535440Y20036069D01*
X9890408Y20391038D01*
X11018950Y20391038D01*
X11373918Y20036069D01*
X11728886Y20391037D01*
X12857427Y20391037D01*
X13212395Y20036069D01*
X13567362Y20391037D01*
X14695905Y20391037D01*
X15050873Y20036069D01*
X15405841Y20391038D01*
X16534383Y20391038D01*
X16889351Y20036069D01*
X17244319Y20391037D01*
X18372860Y20391037D01*
X18727828Y20036069D01*
X19082796Y20391038D01*
X20211338Y20391038D01*
X20566306Y20036070D01*
X20921273Y20391037D01*
X23888293Y20391037D01*
X24243261Y20036069D01*
X24412950Y20205758D01*
X24390550Y20283877D01*
X24386111Y20308064D01*
X24379144Y20391038D01*
X27565249Y20391038D01*
X27920217Y20036069D01*
X28275185Y20391037D01*
X29403726Y20391037D01*
X29758694Y20036069D01*
X30113662Y20391038D01*
X31242204Y20391038D01*
X31597172Y20036069D01*
X31952140Y20391037D01*
X33080681Y20391037D01*
X33435649Y20036069D01*
X33790616Y20391037D01*
X34919159Y20391037D01*
X35274127Y20036069D01*
X35629095Y20391038D01*
X35274128Y20746005D01*
X34919159Y20391037D01*
X33790616Y20391037D01*
X33790617Y20391038D01*
X33435650Y20746005D01*
X33080681Y20391037D01*
X31952140Y20391037D01*
X31597171Y20746005D01*
X31242204Y20391038D01*
X30113662Y20391038D01*
X29758695Y20746005D01*
X29403726Y20391037D01*
X28275185Y20391037D01*
X27920216Y20746005D01*
X27565249Y20391038D01*
X24379144Y20391038D01*
X24369701Y20503487D01*
X24370044Y20528075D01*
X24379237Y20610030D01*
X24243262Y20746005D01*
X23888293Y20391037D01*
X20921273Y20391037D01*
X20921274Y20391038D01*
X20566306Y20746006D01*
X20211338Y20391038D01*
X19082796Y20391038D01*
X18727829Y20746005D01*
X18372860Y20391037D01*
X17244319Y20391037D01*
X16889350Y20746005D01*
X16534383Y20391038D01*
X15405841Y20391038D01*
X15050874Y20746005D01*
X14695905Y20391037D01*
X13567362Y20391037D01*
X13567363Y20391038D01*
X13212396Y20746005D01*
X12857427Y20391037D01*
X11728886Y20391037D01*
X11373917Y20746005D01*
X11018950Y20391038D01*
X9890408Y20391038D01*
X9535441Y20746005D01*
X9180472Y20391037D01*
X8051931Y20391037D01*
X7696962Y20746005D01*
X7341995Y20391038D01*
X6213452Y20391038D01*
X5858484Y20746005D01*
X5503517Y20391038D01*
X4374975Y20391038D01*
X4020007Y20746006D01*
X3916365Y20642364D01*
X3915867Y20140209D01*
X3117867Y20140209D01*
X3119028Y21310276D01*
X4584278Y21310276D01*
X4939246Y20955308D01*
X5294214Y21310277D01*
X6422756Y21310277D01*
X6777724Y20955308D01*
X7132692Y21310276D01*
X8261233Y21310276D01*
X8616201Y20955308D01*
X8971168Y21310276D01*
X10099711Y21310276D01*
X10454679Y20955308D01*
X10809647Y21310277D01*
X11938189Y21310277D01*
X12293157Y20955308D01*
X12648125Y21310276D01*
X13776666Y21310276D01*
X14131634Y20955308D01*
X14486602Y21310277D01*
X15615144Y21310277D01*
X15970112Y20955308D01*
X16325080Y21310276D01*
X16325079Y21310277D01*
X17453622Y21310277D01*
X17808590Y20955308D01*
X18163558Y21310276D01*
X19292099Y21310276D01*
X19647067Y20955308D01*
X20002035Y21310277D01*
X21130577Y21310277D01*
X21472495Y20968359D01*
X21560479Y21128402D01*
X21574372Y21148692D01*
X21700429Y21298921D01*
X21717999Y21316127D01*
X21782667Y21368121D01*
X21700177Y21450611D01*
X23109389Y21450611D01*
X23121828Y21443885D01*
X23142214Y21430134D01*
X23293319Y21305129D01*
X23310647Y21287680D01*
X23434595Y21135705D01*
X23448203Y21115222D01*
X23460607Y21091894D01*
X23678990Y21310277D01*
X26646010Y21310277D01*
X27000978Y20955308D01*
X27355946Y21310276D01*
X28484487Y21310276D01*
X28839455Y20955308D01*
X29194423Y21310277D01*
X30322965Y21310277D01*
X30677933Y20955308D01*
X31032901Y21310276D01*
X31032900Y21310277D01*
X32161443Y21310277D01*
X32516411Y20955308D01*
X32871379Y21310276D01*
X33999920Y21310276D01*
X34354888Y20955308D01*
X34709856Y21310277D01*
X35838398Y21310277D01*
X36193366Y20955308D01*
X36548334Y21310276D01*
X36193365Y21665244D01*
X35838398Y21310277D01*
X34709856Y21310277D01*
X34354889Y21665244D01*
X33999920Y21310276D01*
X32871379Y21310276D01*
X32516410Y21665244D01*
X32161443Y21310277D01*
X31032900Y21310277D01*
X30973100Y21370077D01*
X30964037Y21370267D01*
X30769307Y21393488D01*
X30745290Y21398769D01*
X30558778Y21459370D01*
X30536244Y21469215D01*
X30501385Y21488697D01*
X30322965Y21310277D01*
X29194423Y21310277D01*
X28839456Y21665244D01*
X28484487Y21310276D01*
X27355946Y21310276D01*
X27000977Y21665244D01*
X26646010Y21310277D01*
X23678990Y21310277D01*
X23472903Y21516364D01*
X25013620Y21516364D01*
X25065206Y21543332D01*
X25088005Y21552543D01*
X25232634Y21595111D01*
X25162501Y21665244D01*
X25013620Y21516364D01*
X23472903Y21516364D01*
X23324023Y21665244D01*
X23109389Y21450611D01*
X21700177Y21450611D01*
X21485544Y21665244D01*
X21130577Y21310277D01*
X20002035Y21310277D01*
X19647068Y21665244D01*
X19292099Y21310276D01*
X18163558Y21310276D01*
X17808589Y21665244D01*
X17453622Y21310277D01*
X16325079Y21310277D01*
X15970111Y21665244D01*
X15615144Y21310277D01*
X14486602Y21310277D01*
X14131635Y21665244D01*
X13776666Y21310276D01*
X12648125Y21310276D01*
X12293156Y21665244D01*
X11938189Y21310277D01*
X10809647Y21310277D01*
X10454680Y21665244D01*
X10099711Y21310276D01*
X8971168Y21310276D01*
X8971169Y21310277D01*
X8616202Y21665244D01*
X8261233Y21310276D01*
X7132692Y21310276D01*
X6777723Y21665244D01*
X6422756Y21310277D01*
X5294214Y21310277D01*
X4939247Y21665244D01*
X4584278Y21310276D01*
X3119028Y21310276D01*
X3119690Y21976864D01*
X3917691Y21976864D01*
X4020008Y21874547D01*
X4374976Y22229515D01*
X5503516Y22229515D01*
X5858484Y21874547D01*
X6213452Y22229515D01*
X7341994Y22229515D01*
X7696962Y21874547D01*
X8051930Y22229515D01*
X9180473Y22229515D01*
X9535441Y21874547D01*
X9890409Y22229515D01*
X11018949Y22229515D01*
X11373917Y21874547D01*
X11728885Y22229515D01*
X12857428Y22229515D01*
X13212396Y21874547D01*
X13567364Y22229515D01*
X14695906Y22229515D01*
X15050874Y21874547D01*
X15405842Y22229515D01*
X16534382Y22229515D01*
X16889350Y21874547D01*
X17244318Y22229515D01*
X18372861Y22229515D01*
X18727829Y21874547D01*
X19082797Y22229515D01*
X20211337Y22229515D01*
X20566306Y21874546D01*
X20921275Y22229515D01*
X22049815Y22229515D01*
X22404783Y21874547D01*
X22759751Y22229515D01*
X23888294Y22229515D01*
X24243262Y21874547D01*
X24598230Y22229515D01*
X25726770Y22229515D01*
X26081738Y21874547D01*
X26436706Y22229515D01*
X27565248Y22229515D01*
X27920216Y21874547D01*
X28275184Y22229515D01*
X29403727Y22229515D01*
X29758695Y21874547D01*
X29954672Y22070524D01*
X29953657Y22072500D01*
X29944605Y22095364D01*
X29906138Y22229515D01*
X33080682Y22229515D01*
X33435650Y21874547D01*
X33790618Y22229515D01*
X34919160Y22229515D01*
X35274128Y21874547D01*
X35629096Y22229515D01*
X35274128Y22584483D01*
X34919160Y22229515D01*
X33790618Y22229515D01*
X33435650Y22584483D01*
X33080682Y22229515D01*
X29906138Y22229515D01*
X29890550Y22283877D01*
X29886111Y22308064D01*
X29872452Y22470726D01*
X29758695Y22584483D01*
X29403727Y22229515D01*
X28275184Y22229515D01*
X27920216Y22584483D01*
X27565248Y22229515D01*
X26436706Y22229515D01*
X26081738Y22584483D01*
X25726770Y22229515D01*
X24598230Y22229515D01*
X24243262Y22584483D01*
X23888294Y22229515D01*
X22759751Y22229515D01*
X22404783Y22584483D01*
X22049815Y22229515D01*
X20921275Y22229515D01*
X20566306Y22584484D01*
X20211337Y22229515D01*
X19082797Y22229515D01*
X18727829Y22584483D01*
X18372861Y22229515D01*
X17244318Y22229515D01*
X16889350Y22584483D01*
X16534382Y22229515D01*
X15405842Y22229515D01*
X15050874Y22584483D01*
X14695906Y22229515D01*
X13567364Y22229515D01*
X13212396Y22584483D01*
X12857428Y22229515D01*
X11728885Y22229515D01*
X11373917Y22584483D01*
X11018949Y22229515D01*
X9890409Y22229515D01*
X9535441Y22584483D01*
X9180473Y22229515D01*
X8051930Y22229515D01*
X7696962Y22584483D01*
X7341994Y22229515D01*
X6213452Y22229515D01*
X5858484Y22584483D01*
X5503516Y22229515D01*
X4374976Y22229515D01*
X4020007Y22584484D01*
X3918192Y22482669D01*
X3917691Y21976864D01*
X3119690Y21976864D01*
X3120854Y23148754D01*
X4584278Y23148754D01*
X4939247Y22793786D01*
X5294214Y23148753D01*
X6422756Y23148753D01*
X6777723Y22793786D01*
X7132692Y23148754D01*
X8261233Y23148754D01*
X8616202Y22793786D01*
X8971169Y23148753D01*
X8971168Y23148754D01*
X10099711Y23148754D01*
X10454680Y22793786D01*
X10809647Y23148753D01*
X11938189Y23148753D01*
X12293156Y22793786D01*
X12648125Y23148754D01*
X13776666Y23148754D01*
X14131635Y22793786D01*
X14486602Y23148753D01*
X15615144Y23148753D01*
X15970111Y22793786D01*
X16325079Y23148753D01*
X17453622Y23148753D01*
X17808589Y22793786D01*
X18163558Y23148754D01*
X19292099Y23148754D01*
X19647068Y22793786D01*
X20002035Y23148753D01*
X21130577Y23148753D01*
X21485544Y22793786D01*
X21840513Y23148754D01*
X22969054Y23148754D01*
X23324023Y22793786D01*
X23678990Y23148753D01*
X23678989Y23148754D01*
X24807532Y23148754D01*
X25162501Y22793786D01*
X25517468Y23148753D01*
X26646010Y23148753D01*
X27000977Y22793786D01*
X27355946Y23148754D01*
X28484487Y23148754D01*
X28839456Y22793786D01*
X29194423Y23148753D01*
X32161443Y23148753D01*
X32516410Y22793786D01*
X32871379Y23148754D01*
X33999920Y23148754D01*
X34354889Y22793786D01*
X34709856Y23148753D01*
X35838398Y23148753D01*
X36193365Y22793786D01*
X36548334Y23148754D01*
X36193366Y23503722D01*
X35838398Y23148753D01*
X34709856Y23148753D01*
X34354888Y23503722D01*
X33999920Y23148754D01*
X32871379Y23148754D01*
X32516411Y23503722D01*
X32161443Y23148753D01*
X29194423Y23148753D01*
X28839455Y23503722D01*
X28484487Y23148754D01*
X27355946Y23148754D01*
X27000978Y23503722D01*
X26646010Y23148753D01*
X25517468Y23148753D01*
X25162500Y23503722D01*
X24807532Y23148754D01*
X23678989Y23148754D01*
X23324022Y23503722D01*
X22969054Y23148754D01*
X21840513Y23148754D01*
X21485545Y23503722D01*
X21130577Y23148753D01*
X20002035Y23148753D01*
X19647067Y23503722D01*
X19292099Y23148754D01*
X18163558Y23148754D01*
X17808590Y23503722D01*
X17453622Y23148753D01*
X16325079Y23148753D01*
X16325080Y23148754D01*
X15970112Y23503722D01*
X15615144Y23148753D01*
X14486602Y23148753D01*
X14131634Y23503722D01*
X13776666Y23148754D01*
X12648125Y23148754D01*
X12293157Y23503722D01*
X11938189Y23148753D01*
X10809647Y23148753D01*
X10454679Y23503722D01*
X10099711Y23148754D01*
X8971168Y23148754D01*
X8616201Y23503722D01*
X8261233Y23148754D01*
X7132692Y23148754D01*
X6777724Y23503722D01*
X6422756Y23148753D01*
X5294214Y23148753D01*
X4939246Y23503722D01*
X4584278Y23148754D01*
X3120854Y23148754D01*
X3121514Y23813517D01*
X3919514Y23813517D01*
X4020007Y23713024D01*
X4325013Y24018030D01*
X5553479Y24018030D01*
X5858484Y23713025D01*
X6213452Y24067992D01*
X7341995Y24067992D01*
X7696962Y23713025D01*
X8051931Y24067993D01*
X9180472Y24067993D01*
X9535441Y23713025D01*
X9890408Y24067992D01*
X11018950Y24067992D01*
X11373917Y23713025D01*
X11728886Y24067993D01*
X12857427Y24067993D01*
X13212396Y23713025D01*
X13567363Y24067992D01*
X13567362Y24067993D01*
X14695905Y24067993D01*
X15050874Y23713025D01*
X15405841Y24067992D01*
X16534383Y24067992D01*
X16889350Y23713025D01*
X17244319Y24067993D01*
X18372860Y24067993D01*
X18727829Y23713025D01*
X19082796Y24067992D01*
X20211338Y24067992D01*
X20566306Y23713024D01*
X20921274Y24067992D01*
X22049816Y24067992D01*
X22404783Y23713025D01*
X22535258Y23843500D01*
X24112786Y23843500D01*
X24243262Y23713025D01*
X24373737Y23843500D01*
X24112786Y23843500D01*
X22535258Y23843500D01*
X22537071Y23845313D01*
X25949450Y23845313D01*
X26081738Y23713025D01*
X26287328Y23918615D01*
X26240437Y23901036D01*
X26232967Y23898500D01*
X26167607Y23878564D01*
X26159993Y23876499D01*
X26129371Y23869218D01*
X26121645Y23867635D01*
X26054311Y23856019D01*
X26046499Y23854922D01*
X25984317Y23848167D01*
X25980922Y23847845D01*
X25951483Y23845451D01*
X25949450Y23845313D01*
X22537071Y23845313D01*
X22759751Y24067992D01*
X27565249Y24067992D01*
X27920216Y23713025D01*
X28275185Y24067993D01*
X29403726Y24067993D01*
X29758695Y23713025D01*
X30113662Y24067992D01*
X31242204Y24067992D01*
X31597171Y23713025D01*
X31952140Y24067993D01*
X33080681Y24067993D01*
X33435650Y23713025D01*
X33790617Y24067992D01*
X33790616Y24067993D01*
X34919159Y24067993D01*
X35274128Y23713025D01*
X35629095Y24067992D01*
X35274127Y24422961D01*
X34919159Y24067993D01*
X33790616Y24067993D01*
X33435649Y24422961D01*
X33080681Y24067993D01*
X31952140Y24067993D01*
X31597172Y24422961D01*
X31242204Y24067992D01*
X30113662Y24067992D01*
X29758694Y24422961D01*
X29403726Y24067993D01*
X28275185Y24067993D01*
X27920217Y24422961D01*
X27565249Y24067992D01*
X22759751Y24067992D01*
X22759752Y24067993D01*
X22404784Y24422961D01*
X22049816Y24067992D01*
X20921274Y24067992D01*
X20566306Y24422960D01*
X20211338Y24067992D01*
X19082796Y24067992D01*
X18727828Y24422961D01*
X18372860Y24067993D01*
X17244319Y24067993D01*
X16889351Y24422961D01*
X16534383Y24067992D01*
X15405841Y24067992D01*
X15050873Y24422961D01*
X14695905Y24067993D01*
X13567362Y24067993D01*
X13212395Y24422961D01*
X12857427Y24067993D01*
X11728886Y24067993D01*
X11373918Y24422961D01*
X11018950Y24067992D01*
X9890408Y24067992D01*
X9535440Y24422961D01*
X9180472Y24067993D01*
X8051931Y24067993D01*
X7696963Y24422961D01*
X7341995Y24067992D01*
X6213452Y24067992D01*
X6213453Y24067993D01*
X5927449Y24353997D01*
X5916480Y24338447D01*
X5788338Y24189993D01*
X5770531Y24173035D01*
X5615994Y24052297D01*
X5595230Y24039120D01*
X5553479Y24018030D01*
X4325013Y24018030D01*
X4369428Y24062445D01*
X4365055Y24064889D01*
X4344862Y24078923D01*
X4195516Y24206026D01*
X4178434Y24223715D01*
X4096443Y24327162D01*
X4083915Y24326483D01*
X4080509Y24326345D01*
X4050981Y24325546D01*
X4047573Y24325500D01*
X3922546Y24325500D01*
X3920020Y24322974D01*
X3919514Y23813517D01*
X3121514Y23813517D01*
X3122679Y24987232D01*
X6422756Y24987232D01*
X6777724Y24632263D01*
X7132692Y24987231D01*
X8261233Y24987231D01*
X8616201Y24632263D01*
X8971168Y24987231D01*
X10099711Y24987231D01*
X10454679Y24632263D01*
X10809647Y24987232D01*
X11938189Y24987232D01*
X12293157Y24632263D01*
X12648125Y24987231D01*
X13776666Y24987231D01*
X14131634Y24632263D01*
X14486602Y24987232D01*
X15615144Y24987232D01*
X15970112Y24632263D01*
X16325080Y24987231D01*
X16325079Y24987232D01*
X17453622Y24987232D01*
X17808590Y24632263D01*
X18163558Y24987231D01*
X19292099Y24987231D01*
X19647067Y24632263D01*
X20002035Y24987232D01*
X21130577Y24987232D01*
X21485545Y24632263D01*
X21840513Y24987231D01*
X21725878Y25101866D01*
X23641500Y25101866D01*
X23648255Y25039684D01*
X23699385Y24903295D01*
X23786739Y24786739D01*
X23903295Y24699385D01*
X24039684Y24648255D01*
X24101866Y24641500D01*
X25898134Y24641500D01*
X25960316Y24648255D01*
X26096705Y24699385D01*
X26114430Y24712669D01*
X27081384Y24712669D01*
X27355946Y24987231D01*
X28484487Y24987231D01*
X28839455Y24632263D01*
X29194423Y24987232D01*
X30322965Y24987232D01*
X30677933Y24632263D01*
X31032901Y24987231D01*
X31032900Y24987232D01*
X32161443Y24987232D01*
X32516411Y24632263D01*
X32871379Y24987231D01*
X33999920Y24987231D01*
X34354888Y24632263D01*
X34709856Y24987232D01*
X35838398Y24987232D01*
X36193366Y24632263D01*
X36548334Y24987231D01*
X36193365Y25342199D01*
X35838398Y24987232D01*
X34709856Y24987232D01*
X34354889Y25342199D01*
X33999920Y24987231D01*
X32871379Y24987231D01*
X32516410Y25342199D01*
X32161443Y24987232D01*
X31032900Y24987232D01*
X30677932Y25342199D01*
X30322965Y24987232D01*
X29194423Y24987232D01*
X28839456Y25342199D01*
X28484487Y24987231D01*
X27355946Y24987231D01*
X27156500Y25186677D01*
X27156500Y25101866D01*
X27156454Y25098458D01*
X27155655Y25068930D01*
X27155517Y25065524D01*
X27154780Y25051916D01*
X27154549Y25048517D01*
X27152155Y25019078D01*
X27151833Y25015683D01*
X27145078Y24953501D01*
X27143981Y24945689D01*
X27132365Y24878355D01*
X27130782Y24870629D01*
X27123501Y24840007D01*
X27121436Y24832393D01*
X27101500Y24767033D01*
X27098964Y24759563D01*
X27081384Y24712669D01*
X26114430Y24712669D01*
X26213261Y24786739D01*
X26300615Y24903295D01*
X26351745Y25039684D01*
X26358500Y25101866D01*
X26358500Y25906471D01*
X27565249Y25906471D01*
X27920217Y25551502D01*
X28275185Y25906470D01*
X29403726Y25906470D01*
X29758694Y25551502D01*
X30113662Y25906471D01*
X31242204Y25906471D01*
X31597172Y25551502D01*
X31952140Y25906470D01*
X33080681Y25906470D01*
X33435649Y25551502D01*
X33790616Y25906470D01*
X34919159Y25906470D01*
X35274127Y25551502D01*
X35629095Y25906471D01*
X35274128Y26261438D01*
X34919159Y25906470D01*
X33790616Y25906470D01*
X33790617Y25906471D01*
X33435650Y26261438D01*
X33080681Y25906470D01*
X31952140Y25906470D01*
X31597171Y26261438D01*
X31242204Y25906471D01*
X30113662Y25906471D01*
X29758695Y26261438D01*
X29403726Y25906470D01*
X28275185Y25906470D01*
X27920216Y26261438D01*
X27565249Y25906471D01*
X26358500Y25906471D01*
X26358500Y26898134D01*
X26351745Y26960316D01*
X26323610Y27035367D01*
X27146287Y27035367D01*
X27151833Y26984317D01*
X27152155Y26980922D01*
X27154549Y26951483D01*
X27154780Y26948084D01*
X27155517Y26934476D01*
X27155655Y26931070D01*
X27156454Y26901542D01*
X27156500Y26898134D01*
X27156500Y26626263D01*
X27355946Y26825709D01*
X28484487Y26825709D01*
X28839455Y26470741D01*
X29194423Y26825710D01*
X30322965Y26825710D01*
X30677933Y26470741D01*
X31032901Y26825709D01*
X31032900Y26825710D01*
X32161443Y26825710D01*
X32516411Y26470741D01*
X32871379Y26825709D01*
X33999920Y26825709D01*
X34354888Y26470741D01*
X34709856Y26825710D01*
X35838398Y26825710D01*
X36193366Y26470741D01*
X36548334Y26825709D01*
X36193365Y27180677D01*
X35838398Y26825710D01*
X34709856Y26825710D01*
X34354889Y27180677D01*
X33999920Y26825709D01*
X32871379Y26825709D01*
X32516410Y27180677D01*
X32161443Y26825710D01*
X31032900Y26825710D01*
X30677932Y27180677D01*
X30322965Y26825710D01*
X29194423Y26825710D01*
X28839456Y27180677D01*
X28484487Y26825709D01*
X27355946Y26825709D01*
X27146287Y27035367D01*
X26323610Y27035367D01*
X26300615Y27096705D01*
X26213261Y27213261D01*
X26096705Y27300615D01*
X25960316Y27351745D01*
X25898134Y27358500D01*
X24101866Y27358500D01*
X24039684Y27351745D01*
X23903295Y27300615D01*
X23786739Y27213261D01*
X23699385Y27096705D01*
X23648255Y26960316D01*
X23641500Y26898134D01*
X23641500Y25101866D01*
X21725878Y25101866D01*
X21485544Y25342199D01*
X21130577Y24987232D01*
X20002035Y24987232D01*
X19647068Y25342199D01*
X19292099Y24987231D01*
X18163558Y24987231D01*
X17808589Y25342199D01*
X17453622Y24987232D01*
X16325079Y24987232D01*
X15970111Y25342199D01*
X15615144Y24987232D01*
X14486602Y24987232D01*
X14131635Y25342199D01*
X13776666Y24987231D01*
X12648125Y24987231D01*
X12293156Y25342199D01*
X11938189Y24987232D01*
X10809647Y24987232D01*
X10454680Y25342199D01*
X10099711Y24987231D01*
X8971168Y24987231D01*
X8971169Y24987232D01*
X8616202Y25342199D01*
X8261233Y24987231D01*
X7132692Y24987231D01*
X6777723Y25342199D01*
X6422756Y24987232D01*
X3122679Y24987232D01*
X3123008Y25318342D01*
X3124508Y25337596D01*
X3126781Y25352195D01*
X3157025Y25416428D01*
X3217194Y25454113D01*
X3288186Y25453285D01*
X3347520Y25414139D01*
X3391985Y25361521D01*
X3397404Y25357378D01*
X3397406Y25357376D01*
X3435798Y25328023D01*
X3543272Y25245853D01*
X3549455Y25242970D01*
X3549458Y25242968D01*
X3634828Y25203160D01*
X3715869Y25165370D01*
X3901721Y25123827D01*
X3907569Y25123500D01*
X4047573Y25123500D01*
X4189325Y25138899D01*
X4195788Y25141074D01*
X4195792Y25141075D01*
X4363346Y25197464D01*
X4363348Y25197465D01*
X4369817Y25199642D01*
X4533056Y25297725D01*
X4554853Y25318337D01*
X4666466Y25423884D01*
X4666468Y25423886D01*
X4671424Y25428573D01*
X4778467Y25586082D01*
X4798315Y25635705D01*
X4846656Y25756565D01*
X4846657Y25756570D01*
X4849190Y25762902D01*
X4864849Y25857494D01*
X4879178Y25944046D01*
X4879178Y25944050D01*
X4880293Y25950784D01*
X4879323Y25969305D01*
X4874743Y26056679D01*
X5673838Y26056679D01*
X5677199Y25992549D01*
X5677372Y25985734D01*
X5677269Y25926684D01*
X5677073Y25919871D01*
X5676081Y25902117D01*
X5793319Y25805129D01*
X5810647Y25787680D01*
X5934595Y25635705D01*
X5937825Y25630842D01*
X6213453Y25906470D01*
X6213452Y25906471D01*
X7341995Y25906471D01*
X7696963Y25551502D01*
X8051931Y25906470D01*
X9180472Y25906470D01*
X9535440Y25551502D01*
X9890408Y25906471D01*
X11018950Y25906471D01*
X11373918Y25551502D01*
X11728886Y25906470D01*
X12857427Y25906470D01*
X13212395Y25551502D01*
X13567362Y25906470D01*
X14695905Y25906470D01*
X15050873Y25551502D01*
X15405841Y25906471D01*
X16534383Y25906471D01*
X16889351Y25551502D01*
X17244319Y25906470D01*
X18372860Y25906470D01*
X18727828Y25551502D01*
X19082796Y25906471D01*
X20211338Y25906471D01*
X20566306Y25551503D01*
X20921274Y25906471D01*
X22049816Y25906471D01*
X22404784Y25551502D01*
X22759752Y25906470D01*
X22404783Y26261438D01*
X22049816Y25906471D01*
X20921274Y25906471D01*
X20566306Y26261439D01*
X20211338Y25906471D01*
X19082796Y25906471D01*
X18793404Y26195863D01*
X18788338Y26189993D01*
X18770531Y26173035D01*
X18615994Y26052297D01*
X18595230Y26039120D01*
X18420184Y25950699D01*
X18415128Y25948738D01*
X18372860Y25906470D01*
X17244319Y25906470D01*
X16889350Y26261438D01*
X16534383Y25906471D01*
X15405841Y25906471D01*
X15298297Y26014015D01*
X14805634Y26016199D01*
X14695905Y25906470D01*
X13567362Y25906470D01*
X13567363Y25906471D01*
X13451633Y26022201D01*
X12975269Y26024312D01*
X12857427Y25906470D01*
X11728886Y25906470D01*
X11604969Y26030387D01*
X11144905Y26032426D01*
X11018950Y25906471D01*
X9890408Y25906471D01*
X9758306Y26038573D01*
X9314542Y26040540D01*
X9180472Y25906470D01*
X8051931Y25906470D01*
X7911642Y26046759D01*
X7484178Y26048654D01*
X7341995Y25906471D01*
X6213452Y25906471D01*
X6064978Y26054945D01*
X5673838Y26056679D01*
X4874743Y26056679D01*
X4870683Y26134149D01*
X4870326Y26140962D01*
X4837142Y26261439D01*
X4821567Y26317982D01*
X4819754Y26324564D01*
X4730936Y26493022D01*
X4726531Y26498235D01*
X4726528Y26498239D01*
X4612420Y26633266D01*
X4608015Y26638479D01*
X4603290Y26642092D01*
X4567921Y26703264D01*
X4571255Y26774182D01*
X4612401Y26832040D01*
X4678296Y26858468D01*
X4690903Y26859045D01*
X9717003Y26836765D01*
X15540910Y26810948D01*
X15561253Y26809203D01*
X15577648Y26806445D01*
X15577655Y26806444D01*
X15582448Y26805638D01*
X15588801Y26805561D01*
X15590142Y26805544D01*
X15590145Y26805544D01*
X15595000Y26805485D01*
X15599805Y26806173D01*
X15602425Y26806344D01*
X15607769Y26806888D01*
X15688406Y26811765D01*
X15894123Y26824208D01*
X15894128Y26824209D01*
X15897920Y26824438D01*
X15904856Y26825709D01*
X19292099Y26825709D01*
X19647067Y26470741D01*
X20002035Y26825710D01*
X21130577Y26825710D01*
X21485545Y26470741D01*
X21840513Y26825709D01*
X21485544Y27180677D01*
X21130577Y26825710D01*
X20002035Y26825710D01*
X19647068Y27180677D01*
X19292099Y26825709D01*
X15904856Y26825709D01*
X16060309Y26854197D01*
X16192671Y26878453D01*
X16192678Y26878455D01*
X16196423Y26879141D01*
X16486156Y26969426D01*
X16762894Y27093976D01*
X16766151Y27095945D01*
X16766155Y27095947D01*
X16969116Y27218642D01*
X17022601Y27250975D01*
X17079087Y27295229D01*
X17258495Y27435787D01*
X17258500Y27435792D01*
X17261490Y27438134D01*
X17476077Y27652723D01*
X17526936Y27717640D01*
X17660887Y27888616D01*
X17660893Y27888624D01*
X17663235Y27891614D01*
X17700055Y27952522D01*
X18605855Y27952522D01*
X18621828Y27943885D01*
X18642214Y27930134D01*
X18793319Y27805129D01*
X18810647Y27787680D01*
X18934595Y27635705D01*
X18948203Y27615223D01*
X18949893Y27612044D01*
X19082796Y27744947D01*
X20211338Y27744947D01*
X20566306Y27389979D01*
X20921274Y27744947D01*
X22049816Y27744947D01*
X22404783Y27389980D01*
X22759751Y27744947D01*
X27565249Y27744947D01*
X27920216Y27389980D01*
X28275185Y27744948D01*
X29403726Y27744948D01*
X29758695Y27389980D01*
X30113662Y27744947D01*
X31242204Y27744947D01*
X31597171Y27389980D01*
X31952140Y27744948D01*
X33080681Y27744948D01*
X33435650Y27389980D01*
X33790617Y27744947D01*
X33790616Y27744948D01*
X34919159Y27744948D01*
X35274128Y27389980D01*
X35629095Y27744947D01*
X35274127Y28099916D01*
X34919159Y27744948D01*
X33790616Y27744948D01*
X33435649Y28099916D01*
X33080681Y27744948D01*
X31952140Y27744948D01*
X31597172Y28099916D01*
X31242204Y27744947D01*
X30113662Y27744947D01*
X29758694Y28099916D01*
X29403726Y27744948D01*
X28275185Y27744948D01*
X27920217Y28099916D01*
X27565249Y27744947D01*
X22759751Y27744947D01*
X22759752Y27744948D01*
X22404784Y28099916D01*
X22049816Y27744947D01*
X20921274Y27744947D01*
X20566306Y28099915D01*
X20211338Y27744947D01*
X19082796Y27744947D01*
X18727828Y28099916D01*
X18626658Y27998746D01*
X18605855Y27952522D01*
X17700055Y27952522D01*
X17820232Y28151322D01*
X17944780Y28428060D01*
X18018359Y28664187D01*
X19292099Y28664187D01*
X19647068Y28309219D01*
X20002035Y28664186D01*
X21130577Y28664186D01*
X21485544Y28309219D01*
X21840513Y28664187D01*
X22969054Y28664187D01*
X23324023Y28309219D01*
X23678990Y28664186D01*
X23678989Y28664187D01*
X24807532Y28664187D01*
X25162501Y28309219D01*
X25517468Y28664186D01*
X26646010Y28664186D01*
X27000977Y28309219D01*
X27355946Y28664187D01*
X28484487Y28664187D01*
X28839456Y28309219D01*
X29194423Y28664186D01*
X30322965Y28664186D01*
X30677932Y28309219D01*
X31032900Y28664186D01*
X32161443Y28664186D01*
X32516410Y28309219D01*
X32871379Y28664187D01*
X33999920Y28664187D01*
X34354889Y28309219D01*
X34709856Y28664186D01*
X35838398Y28664186D01*
X36193365Y28309219D01*
X36548334Y28664187D01*
X36193366Y29019155D01*
X35838398Y28664186D01*
X34709856Y28664186D01*
X34354888Y29019155D01*
X33999920Y28664187D01*
X32871379Y28664187D01*
X32516411Y29019155D01*
X32161443Y28664186D01*
X31032900Y28664186D01*
X31032901Y28664187D01*
X30677933Y29019155D01*
X30322965Y28664186D01*
X29194423Y28664186D01*
X28839455Y29019155D01*
X28484487Y28664187D01*
X27355946Y28664187D01*
X27000978Y29019155D01*
X26646010Y28664186D01*
X25517468Y28664186D01*
X25162500Y29019155D01*
X24807532Y28664187D01*
X23678989Y28664187D01*
X23324022Y29019155D01*
X22969054Y28664187D01*
X21840513Y28664187D01*
X21485545Y29019155D01*
X21130577Y28664186D01*
X20002035Y28664186D01*
X19647067Y29019155D01*
X19292099Y28664187D01*
X18018359Y28664187D01*
X18035063Y28717794D01*
X18089764Y29016297D01*
X18106219Y29288373D01*
X18107736Y29301671D01*
X18107769Y29301869D01*
X18107769Y29301870D01*
X18108576Y29306666D01*
X18108729Y29319218D01*
X18104758Y29346944D01*
X18103486Y29364762D01*
X18103371Y29764851D01*
X18901370Y29764851D01*
X18901474Y29406294D01*
X18901869Y29402498D01*
X19082796Y29583425D01*
X20211338Y29583425D01*
X20566306Y29228457D01*
X20921274Y29583425D01*
X22049816Y29583425D01*
X22404783Y29228458D01*
X22759752Y29583426D01*
X23888293Y29583426D01*
X24243262Y29228458D01*
X24598229Y29583425D01*
X25726771Y29583425D01*
X26081738Y29228458D01*
X26436706Y29583425D01*
X27565249Y29583425D01*
X27920216Y29228458D01*
X28275185Y29583426D01*
X29403726Y29583426D01*
X29758695Y29228458D01*
X30113662Y29583425D01*
X31242204Y29583425D01*
X31597171Y29228458D01*
X31952140Y29583426D01*
X33080681Y29583426D01*
X33435650Y29228458D01*
X33790617Y29583425D01*
X33790616Y29583426D01*
X34919159Y29583426D01*
X35274128Y29228458D01*
X35629095Y29583425D01*
X35274127Y29938394D01*
X34919159Y29583426D01*
X33790616Y29583426D01*
X33435649Y29938394D01*
X33080681Y29583426D01*
X31952140Y29583426D01*
X31597172Y29938394D01*
X31242204Y29583425D01*
X30113662Y29583425D01*
X29758694Y29938394D01*
X29403726Y29583426D01*
X28275185Y29583426D01*
X27920217Y29938394D01*
X27565249Y29583425D01*
X26436706Y29583425D01*
X26436707Y29583426D01*
X26081739Y29938394D01*
X25726771Y29583425D01*
X24598229Y29583425D01*
X24243261Y29938394D01*
X23888293Y29583426D01*
X22759752Y29583426D01*
X22404784Y29938394D01*
X22049816Y29583425D01*
X20921274Y29583425D01*
X20566306Y29938393D01*
X20211338Y29583425D01*
X19082796Y29583425D01*
X18901370Y29764851D01*
X18103371Y29764851D01*
X18103157Y30502664D01*
X19292099Y30502664D01*
X19647067Y30147696D01*
X20002035Y30502665D01*
X21130577Y30502665D01*
X21485545Y30147696D01*
X21822389Y30484540D01*
X22987178Y30484540D01*
X23324022Y30147696D01*
X23616833Y30440507D01*
X23558778Y30459370D01*
X23536244Y30469215D01*
X23476394Y30502664D01*
X24807532Y30502664D01*
X25162500Y30147696D01*
X25517468Y30502665D01*
X26646010Y30502665D01*
X27000978Y30147696D01*
X27355946Y30502664D01*
X28484487Y30502664D01*
X28839455Y30147696D01*
X29194423Y30502665D01*
X30322965Y30502665D01*
X30677933Y30147696D01*
X31032901Y30502664D01*
X31032900Y30502665D01*
X32161443Y30502665D01*
X32516411Y30147696D01*
X32871379Y30502664D01*
X33999920Y30502664D01*
X34354888Y30147696D01*
X34709856Y30502665D01*
X35838398Y30502665D01*
X36193366Y30147696D01*
X36548334Y30502664D01*
X36193365Y30857632D01*
X35838398Y30502665D01*
X34709856Y30502665D01*
X34354889Y30857632D01*
X33999920Y30502664D01*
X32871379Y30502664D01*
X32516410Y30857632D01*
X32161443Y30502665D01*
X31032900Y30502665D01*
X30677932Y30857632D01*
X30322965Y30502665D01*
X29194423Y30502665D01*
X28839456Y30857632D01*
X28484487Y30502664D01*
X27355946Y30502664D01*
X27000977Y30857632D01*
X26646010Y30502665D01*
X25517468Y30502665D01*
X25162501Y30857632D01*
X24807532Y30502664D01*
X23476394Y30502664D01*
X23365055Y30564889D01*
X23344862Y30578923D01*
X23251631Y30658269D01*
X23115994Y30552297D01*
X23095230Y30539120D01*
X22987178Y30484540D01*
X21822389Y30484540D01*
X21840513Y30502664D01*
X21485544Y30857632D01*
X21130577Y30502665D01*
X20002035Y30502665D01*
X19647068Y30857632D01*
X19292099Y30502664D01*
X18103157Y30502664D01*
X18102838Y31603863D01*
X18900837Y31603863D01*
X18900943Y31240050D01*
X19082796Y31421904D01*
X20211338Y31421904D01*
X20566306Y31066936D01*
X20921274Y31421904D01*
X25726771Y31421904D01*
X26081739Y31066935D01*
X26436707Y31421903D01*
X26436706Y31421904D01*
X27565249Y31421904D01*
X27920217Y31066935D01*
X28275185Y31421903D01*
X29403726Y31421903D01*
X29758694Y31066935D01*
X30113662Y31421904D01*
X31242204Y31421904D01*
X31597172Y31066935D01*
X31952140Y31421903D01*
X33080681Y31421903D01*
X33435649Y31066935D01*
X33790616Y31421903D01*
X34919159Y31421903D01*
X35274127Y31066935D01*
X35629095Y31421904D01*
X35274128Y31776871D01*
X34919159Y31421903D01*
X33790616Y31421903D01*
X33790617Y31421904D01*
X33435650Y31776871D01*
X33080681Y31421903D01*
X31952140Y31421903D01*
X31597171Y31776871D01*
X31242204Y31421904D01*
X30113662Y31421904D01*
X29758695Y31776871D01*
X29403726Y31421903D01*
X28275185Y31421903D01*
X27920216Y31776871D01*
X27565249Y31421904D01*
X26436706Y31421904D01*
X26081738Y31776871D01*
X25726771Y31421904D01*
X20921274Y31421904D01*
X20566306Y31776872D01*
X20211338Y31421904D01*
X19082796Y31421904D01*
X18900837Y31603863D01*
X18102838Y31603863D01*
X18102625Y32341142D01*
X19292099Y32341142D01*
X19647068Y31986174D01*
X20002035Y32341141D01*
X21130577Y32341141D01*
X21483443Y31988275D01*
X21560479Y32128402D01*
X21574372Y32148692D01*
X21700429Y32298921D01*
X21717999Y32316127D01*
X21749111Y32341142D01*
X24807532Y32341142D01*
X25162501Y31986174D01*
X25517468Y32341141D01*
X26646010Y32341141D01*
X27000977Y31986174D01*
X27355946Y32341142D01*
X28484487Y32341142D01*
X28839456Y31986174D01*
X29194423Y32341141D01*
X30322965Y32341141D01*
X30677932Y31986174D01*
X31032900Y32341141D01*
X32161443Y32341141D01*
X32516410Y31986174D01*
X32871379Y32341142D01*
X33999920Y32341142D01*
X34354889Y31986174D01*
X34709856Y32341141D01*
X35838398Y32341141D01*
X36193365Y31986174D01*
X36548334Y32341142D01*
X36193366Y32696110D01*
X35838398Y32341141D01*
X34709856Y32341141D01*
X34354888Y32696110D01*
X33999920Y32341142D01*
X32871379Y32341142D01*
X32516411Y32696110D01*
X32161443Y32341141D01*
X31032900Y32341141D01*
X31032901Y32341142D01*
X30677933Y32696110D01*
X30322965Y32341141D01*
X29194423Y32341141D01*
X28839455Y32696110D01*
X28484487Y32341142D01*
X27355946Y32341142D01*
X27000978Y32696110D01*
X26646010Y32341141D01*
X25517468Y32341141D01*
X25162500Y32696110D01*
X24807532Y32341142D01*
X21749111Y32341142D01*
X21799777Y32381878D01*
X21720212Y32461443D01*
X23089355Y32461443D01*
X23121828Y32443885D01*
X23142214Y32430134D01*
X23249454Y32341417D01*
X23370835Y32439010D01*
X23391412Y32452475D01*
X23507150Y32512981D01*
X23324022Y32696110D01*
X23089355Y32461443D01*
X21720212Y32461443D01*
X21485545Y32696110D01*
X21130577Y32341141D01*
X20002035Y32341141D01*
X19647067Y32696110D01*
X19292099Y32341142D01*
X18102625Y32341142D01*
X18102306Y33442871D01*
X18900305Y33442871D01*
X18900411Y33077995D01*
X19082796Y33260380D01*
X20211338Y33260380D01*
X20566306Y32905412D01*
X20921274Y33260380D01*
X22049816Y33260380D01*
X22404783Y32905413D01*
X22759752Y33260381D01*
X23888293Y33260381D01*
X24243262Y32905413D01*
X24598229Y33260380D01*
X25726771Y33260380D01*
X26081738Y32905413D01*
X26436706Y33260380D01*
X27565249Y33260380D01*
X27920216Y32905413D01*
X28275185Y33260381D01*
X29403726Y33260381D01*
X29758695Y32905413D01*
X30113662Y33260380D01*
X31242204Y33260380D01*
X31597171Y32905413D01*
X31952140Y33260381D01*
X33080681Y33260381D01*
X33435650Y32905413D01*
X33790617Y33260380D01*
X33790616Y33260381D01*
X34919159Y33260381D01*
X35274128Y32905413D01*
X35629095Y33260380D01*
X35274127Y33615349D01*
X34919159Y33260381D01*
X33790616Y33260381D01*
X33435649Y33615349D01*
X33080681Y33260381D01*
X31952140Y33260381D01*
X31597172Y33615349D01*
X31242204Y33260380D01*
X30113662Y33260380D01*
X29758694Y33615349D01*
X29403726Y33260381D01*
X28275185Y33260381D01*
X27920217Y33615349D01*
X27565249Y33260380D01*
X26436706Y33260380D01*
X26436707Y33260381D01*
X26081739Y33615349D01*
X25726771Y33260380D01*
X24598229Y33260380D01*
X24243261Y33615349D01*
X23888293Y33260381D01*
X22759752Y33260381D01*
X22404784Y33615349D01*
X22049816Y33260380D01*
X20921274Y33260380D01*
X20566306Y33615348D01*
X20211338Y33260380D01*
X19082796Y33260380D01*
X18900305Y33442871D01*
X18102306Y33442871D01*
X18102092Y34179620D01*
X19292099Y34179620D01*
X19647068Y33824652D01*
X20002035Y34179619D01*
X21130577Y34179619D01*
X21485544Y33824652D01*
X21840513Y34179620D01*
X22969054Y34179620D01*
X23324023Y33824652D01*
X23678990Y34179619D01*
X23678989Y34179620D01*
X24807532Y34179620D01*
X25162501Y33824652D01*
X25517468Y34179619D01*
X26646010Y34179619D01*
X27000977Y33824652D01*
X27355946Y34179620D01*
X28484487Y34179620D01*
X28839456Y33824652D01*
X29194423Y34179619D01*
X30322965Y34179619D01*
X30677932Y33824652D01*
X31032900Y34179619D01*
X32161443Y34179619D01*
X32516410Y33824652D01*
X32871379Y34179620D01*
X33999920Y34179620D01*
X34354889Y33824652D01*
X34709856Y34179619D01*
X35838398Y34179619D01*
X36193365Y33824652D01*
X36548334Y34179620D01*
X36193366Y34534588D01*
X35838398Y34179619D01*
X34709856Y34179619D01*
X34354888Y34534588D01*
X33999920Y34179620D01*
X32871379Y34179620D01*
X32516411Y34534588D01*
X32161443Y34179619D01*
X31032900Y34179619D01*
X31032901Y34179620D01*
X30677933Y34534588D01*
X30322965Y34179619D01*
X29194423Y34179619D01*
X28839455Y34534588D01*
X28484487Y34179620D01*
X27355946Y34179620D01*
X27000978Y34534588D01*
X26646010Y34179619D01*
X25517468Y34179619D01*
X25162500Y34534588D01*
X24807532Y34179620D01*
X23678989Y34179620D01*
X23324022Y34534588D01*
X22969054Y34179620D01*
X21840513Y34179620D01*
X21485545Y34534588D01*
X21130577Y34179619D01*
X20002035Y34179619D01*
X19647067Y34534588D01*
X19292099Y34179620D01*
X18102092Y34179620D01*
X18101773Y35281883D01*
X18899772Y35281883D01*
X18899878Y34915941D01*
X19082796Y35098859D01*
X20211338Y35098859D01*
X20566306Y34743891D01*
X20921274Y35098859D01*
X22049816Y35098859D01*
X22404784Y34743890D01*
X22759752Y35098858D01*
X23888293Y35098858D01*
X24243261Y34743890D01*
X24598229Y35098859D01*
X25726771Y35098859D01*
X26081739Y34743890D01*
X26436707Y35098858D01*
X26436706Y35098859D01*
X27565249Y35098859D01*
X27920217Y34743890D01*
X28275185Y35098858D01*
X29403726Y35098858D01*
X29758694Y34743890D01*
X30113662Y35098859D01*
X31242204Y35098859D01*
X31597172Y34743890D01*
X31952140Y35098858D01*
X33080681Y35098858D01*
X33435649Y34743890D01*
X33790616Y35098858D01*
X34919159Y35098858D01*
X35274127Y34743890D01*
X35629095Y35098859D01*
X35274128Y35453826D01*
X34919159Y35098858D01*
X33790616Y35098858D01*
X33790617Y35098859D01*
X33435650Y35453826D01*
X33080681Y35098858D01*
X31952140Y35098858D01*
X31597171Y35453826D01*
X31242204Y35098859D01*
X30113662Y35098859D01*
X29758695Y35453826D01*
X29403726Y35098858D01*
X28275185Y35098858D01*
X27920216Y35453826D01*
X27565249Y35098859D01*
X26436706Y35098859D01*
X26081738Y35453826D01*
X25726771Y35098859D01*
X24598229Y35098859D01*
X24243262Y35453826D01*
X23888293Y35098858D01*
X22759752Y35098858D01*
X22404783Y35453826D01*
X22049816Y35098859D01*
X20921274Y35098859D01*
X20566306Y35453827D01*
X20211338Y35098859D01*
X19082796Y35098859D01*
X18899772Y35281883D01*
X18101773Y35281883D01*
X18101560Y36018097D01*
X19292099Y36018097D01*
X19647067Y35663129D01*
X20002035Y36018098D01*
X21130577Y36018098D01*
X21485545Y35663129D01*
X21840513Y36018097D01*
X22969054Y36018097D01*
X23324022Y35663129D01*
X23678989Y36018097D01*
X24807532Y36018097D01*
X25162500Y35663129D01*
X25517468Y36018098D01*
X26646010Y36018098D01*
X27000978Y35663129D01*
X27355946Y36018097D01*
X28484487Y36018097D01*
X28839455Y35663129D01*
X29194423Y36018098D01*
X30322965Y36018098D01*
X30677933Y35663129D01*
X31032901Y36018097D01*
X31032900Y36018098D01*
X32161443Y36018098D01*
X32516411Y35663129D01*
X32871379Y36018097D01*
X33999920Y36018097D01*
X34354888Y35663129D01*
X34709856Y36018098D01*
X35838398Y36018098D01*
X36193366Y35663129D01*
X36548334Y36018097D01*
X36193365Y36373065D01*
X35838398Y36018098D01*
X34709856Y36018098D01*
X34354889Y36373065D01*
X33999920Y36018097D01*
X32871379Y36018097D01*
X32516410Y36373065D01*
X32161443Y36018098D01*
X31032900Y36018098D01*
X30677932Y36373065D01*
X30322965Y36018098D01*
X29194423Y36018098D01*
X28839456Y36373065D01*
X28484487Y36018097D01*
X27355946Y36018097D01*
X27000977Y36373065D01*
X26646010Y36018098D01*
X25517468Y36018098D01*
X25162501Y36373065D01*
X24807532Y36018097D01*
X23678989Y36018097D01*
X23678990Y36018098D01*
X23324023Y36373065D01*
X22969054Y36018097D01*
X21840513Y36018097D01*
X21485544Y36373065D01*
X21130577Y36018098D01*
X20002035Y36018098D01*
X19647068Y36373065D01*
X19292099Y36018097D01*
X18101560Y36018097D01*
X18101293Y36937337D01*
X20211338Y36937337D01*
X20566306Y36582369D01*
X20921274Y36937337D01*
X22049816Y36937337D01*
X22404784Y36582368D01*
X22759752Y36937336D01*
X23888293Y36937336D01*
X24243261Y36582368D01*
X24598229Y36937337D01*
X25726771Y36937337D01*
X26081739Y36582368D01*
X26436707Y36937336D01*
X26436706Y36937337D01*
X27565249Y36937337D01*
X27920217Y36582368D01*
X28275185Y36937336D01*
X29403726Y36937336D01*
X29758694Y36582368D01*
X30113662Y36937337D01*
X31242204Y36937337D01*
X31597172Y36582368D01*
X31952140Y36937336D01*
X33080681Y36937336D01*
X33435649Y36582368D01*
X33790616Y36937336D01*
X34919159Y36937336D01*
X35274127Y36582368D01*
X35629095Y36937337D01*
X35274128Y37292304D01*
X34919159Y36937336D01*
X33790616Y36937336D01*
X33790617Y36937337D01*
X33435650Y37292304D01*
X33080681Y36937336D01*
X31952140Y36937336D01*
X31597171Y37292304D01*
X31242204Y36937337D01*
X30113662Y36937337D01*
X29758695Y37292304D01*
X29403726Y36937336D01*
X28275185Y36937336D01*
X27920216Y37292304D01*
X27565249Y36937337D01*
X26436706Y36937337D01*
X26081738Y37292304D01*
X25726771Y36937337D01*
X24598229Y36937337D01*
X24243262Y37292304D01*
X23888293Y36937336D01*
X22759752Y36937336D01*
X22404783Y37292304D01*
X22049816Y36937337D01*
X20921274Y36937337D01*
X20611851Y37246760D01*
X20581352Y37217919D01*
X20576274Y37213370D01*
X20531232Y37175172D01*
X20525916Y37170906D01*
X20504237Y37154451D01*
X20498697Y37150477D01*
X20449798Y37117371D01*
X20444053Y37113705D01*
X20302884Y37028883D01*
X20211338Y36937337D01*
X18101293Y36937337D01*
X18101242Y37113705D01*
X18100826Y38549216D01*
X18619707Y38549216D01*
X18629674Y38359038D01*
X18631485Y38352465D01*
X18631485Y38352462D01*
X18678433Y38182018D01*
X18680246Y38175436D01*
X18769064Y38006978D01*
X18773469Y38001765D01*
X18773472Y38001761D01*
X18839284Y37923884D01*
X18891985Y37861521D01*
X19043272Y37745853D01*
X19049455Y37742970D01*
X19049458Y37742968D01*
X19134828Y37703160D01*
X19215869Y37665370D01*
X19401721Y37623827D01*
X19407569Y37623500D01*
X19547573Y37623500D01*
X19689325Y37638899D01*
X19695788Y37641074D01*
X19695792Y37641075D01*
X19863346Y37697464D01*
X19863348Y37697465D01*
X19869817Y37699642D01*
X20033056Y37797725D01*
X20038016Y37802415D01*
X20095288Y37856574D01*
X21130577Y37856574D01*
X21485544Y37501607D01*
X21840513Y37856575D01*
X22969054Y37856575D01*
X23324023Y37501607D01*
X23678990Y37856574D01*
X23678989Y37856575D01*
X24807532Y37856575D01*
X25162501Y37501607D01*
X25517468Y37856574D01*
X26646010Y37856574D01*
X27000977Y37501607D01*
X27355946Y37856575D01*
X28484487Y37856575D01*
X28839456Y37501607D01*
X29194423Y37856574D01*
X30322965Y37856574D01*
X30677932Y37501607D01*
X31032900Y37856574D01*
X32161443Y37856574D01*
X32516410Y37501607D01*
X32871379Y37856575D01*
X33999920Y37856575D01*
X34354889Y37501607D01*
X34709856Y37856574D01*
X35838398Y37856574D01*
X36193365Y37501607D01*
X36548334Y37856575D01*
X36193366Y38211543D01*
X35838398Y37856574D01*
X34709856Y37856574D01*
X34709857Y37856575D01*
X34630301Y37936131D01*
X34558778Y37959370D01*
X34536244Y37969215D01*
X34365055Y38064889D01*
X34344862Y38078923D01*
X34278633Y38135288D01*
X33999920Y37856575D01*
X32871379Y37856575D01*
X32516411Y38211543D01*
X32161443Y37856574D01*
X31032900Y37856574D01*
X31032901Y37856575D01*
X30677933Y38211543D01*
X30322965Y37856574D01*
X29194423Y37856574D01*
X28839455Y38211543D01*
X28484487Y37856575D01*
X27355946Y37856575D01*
X27000978Y38211543D01*
X26646010Y37856574D01*
X25517468Y37856574D01*
X25162500Y38211543D01*
X24807532Y37856575D01*
X23678989Y37856575D01*
X23324022Y38211543D01*
X22969054Y37856575D01*
X21840513Y37856575D01*
X21485545Y38211543D01*
X21130577Y37856574D01*
X20095288Y37856574D01*
X20166466Y37923884D01*
X20166468Y37923886D01*
X20171424Y37928573D01*
X20278467Y38086082D01*
X20311791Y38169397D01*
X20346656Y38256565D01*
X20346657Y38256570D01*
X20349190Y38262902D01*
X20380293Y38450784D01*
X20370326Y38640962D01*
X20342101Y38743435D01*
X20333182Y38775813D01*
X22049816Y38775813D01*
X22404783Y38420846D01*
X22759752Y38775814D01*
X23888293Y38775814D01*
X24243262Y38420846D01*
X24598229Y38775813D01*
X25726771Y38775813D01*
X26081738Y38420846D01*
X26436706Y38775813D01*
X27565249Y38775813D01*
X27920216Y38420846D01*
X28275185Y38775814D01*
X29403726Y38775814D01*
X29758695Y38420846D01*
X30113662Y38775813D01*
X31242204Y38775813D01*
X31597171Y38420846D01*
X31952140Y38775814D01*
X33080681Y38775814D01*
X33435650Y38420846D01*
X33790617Y38775813D01*
X33435649Y39130782D01*
X33080681Y38775814D01*
X31952140Y38775814D01*
X31597172Y39130782D01*
X31242204Y38775813D01*
X30113662Y38775813D01*
X29758694Y39130782D01*
X29403726Y38775814D01*
X28275185Y38775814D01*
X27920217Y39130782D01*
X27565249Y38775813D01*
X26436706Y38775813D01*
X26436707Y38775814D01*
X26081739Y39130782D01*
X25726771Y38775813D01*
X24598229Y38775813D01*
X24243261Y39130782D01*
X23888293Y38775814D01*
X22759752Y38775814D01*
X22404784Y39130782D01*
X22049816Y38775813D01*
X20333182Y38775813D01*
X20321567Y38817982D01*
X20319754Y38824564D01*
X20230936Y38993022D01*
X20226531Y38998235D01*
X20226528Y38998239D01*
X20112420Y39133266D01*
X20108015Y39138479D01*
X19956728Y39254147D01*
X19950545Y39257030D01*
X19950542Y39257032D01*
X19852957Y39302536D01*
X19784131Y39334630D01*
X19598279Y39376173D01*
X19592431Y39376500D01*
X19452427Y39376500D01*
X19310675Y39361101D01*
X19304212Y39358926D01*
X19304208Y39358925D01*
X19136654Y39302536D01*
X19136652Y39302535D01*
X19130183Y39300358D01*
X18966944Y39202275D01*
X18961986Y39197587D01*
X18961984Y39197585D01*
X18893969Y39133266D01*
X18828576Y39071427D01*
X18721533Y38913918D01*
X18719000Y38907584D01*
X18718998Y38907581D01*
X18653344Y38743435D01*
X18653343Y38743430D01*
X18650810Y38737098D01*
X18619707Y38549216D01*
X18100826Y38549216D01*
X18100494Y39695052D01*
X21130577Y39695052D01*
X21485544Y39340085D01*
X21840513Y39695053D01*
X22969054Y39695053D01*
X23324023Y39340085D01*
X23678990Y39695052D01*
X23678989Y39695053D01*
X24807532Y39695053D01*
X25162501Y39340085D01*
X25517468Y39695052D01*
X26646010Y39695052D01*
X27000977Y39340085D01*
X27355946Y39695053D01*
X28484487Y39695053D01*
X28839456Y39340085D01*
X29194423Y39695052D01*
X30322965Y39695052D01*
X30677932Y39340085D01*
X31032900Y39695052D01*
X32161443Y39695052D01*
X32516410Y39340085D01*
X32871379Y39695053D01*
X33999920Y39695053D01*
X34062955Y39632018D01*
X34074372Y39648692D01*
X34135362Y39721377D01*
X35864722Y39721377D01*
X35934595Y39635705D01*
X35948203Y39615223D01*
X35982239Y39551211D01*
X36193365Y39340085D01*
X36548334Y39695053D01*
X36193366Y40050021D01*
X35864722Y39721377D01*
X34135362Y39721377D01*
X34200429Y39798921D01*
X34217999Y39816127D01*
X34370835Y39939010D01*
X34391412Y39952475D01*
X34431484Y39973424D01*
X34354888Y40050021D01*
X33999920Y39695053D01*
X32871379Y39695053D01*
X32516411Y40050021D01*
X32161443Y39695052D01*
X31032900Y39695052D01*
X31032901Y39695053D01*
X30677933Y40050021D01*
X30322965Y39695052D01*
X29194423Y39695052D01*
X28839455Y40050021D01*
X28484487Y39695053D01*
X27355946Y39695053D01*
X27000978Y40050021D01*
X26646010Y39695052D01*
X25517468Y39695052D01*
X25162500Y40050021D01*
X24807532Y39695053D01*
X23678989Y39695053D01*
X23324022Y40050021D01*
X22969054Y39695053D01*
X21840513Y39695053D01*
X21485545Y40050021D01*
X21130577Y39695052D01*
X18100494Y39695052D01*
X18100395Y40036473D01*
X18101895Y40055893D01*
X18104191Y40070637D01*
X18104191Y40070642D01*
X18105572Y40079511D01*
X18103577Y40094768D01*
X18102834Y40120090D01*
X18114918Y40289053D01*
X18117476Y40306848D01*
X18158880Y40497182D01*
X18163946Y40514432D01*
X18201192Y40614292D01*
X20211338Y40614292D01*
X20566306Y40259324D01*
X20921274Y40614292D01*
X22049816Y40614292D01*
X22404784Y40259323D01*
X22759752Y40614291D01*
X23888293Y40614291D01*
X24243261Y40259323D01*
X24598229Y40614292D01*
X25726771Y40614292D01*
X26081739Y40259323D01*
X26436707Y40614291D01*
X26436706Y40614292D01*
X27565249Y40614292D01*
X27920217Y40259323D01*
X28275185Y40614291D01*
X29403726Y40614291D01*
X29758694Y40259323D01*
X30113662Y40614292D01*
X31242204Y40614292D01*
X31597172Y40259323D01*
X31952140Y40614291D01*
X33080681Y40614291D01*
X33435649Y40259323D01*
X33790616Y40614291D01*
X34919159Y40614291D01*
X35274127Y40259323D01*
X35629095Y40614292D01*
X35464100Y40779287D01*
X35084155Y40779287D01*
X34919159Y40614291D01*
X33790616Y40614291D01*
X33790617Y40614292D01*
X33625623Y40779286D01*
X33245676Y40779286D01*
X33080681Y40614291D01*
X31952140Y40614291D01*
X31787145Y40779286D01*
X31407198Y40779286D01*
X31242204Y40614292D01*
X30113662Y40614292D01*
X29948668Y40779286D01*
X29568720Y40779285D01*
X29403726Y40614291D01*
X28275185Y40614291D01*
X28110191Y40779285D01*
X27730242Y40779285D01*
X27565249Y40614292D01*
X26436706Y40614292D01*
X26271713Y40779285D01*
X25891764Y40779285D01*
X25726771Y40614292D01*
X24598229Y40614292D01*
X24433237Y40779284D01*
X24053286Y40779284D01*
X23888293Y40614291D01*
X22759752Y40614291D01*
X22594759Y40779284D01*
X22214808Y40779284D01*
X22049816Y40614292D01*
X20921274Y40614292D01*
X20756283Y40779283D01*
X20376329Y40779283D01*
X20211338Y40614292D01*
X18201192Y40614292D01*
X18232011Y40696919D01*
X18239479Y40713272D01*
X18239491Y40713293D01*
X18275526Y40779286D01*
X18332828Y40884225D01*
X18342547Y40899349D01*
X18342566Y40899374D01*
X18459279Y41055281D01*
X18471044Y41068857D01*
X18608776Y41206584D01*
X18622363Y41218357D01*
X18778295Y41335082D01*
X18793420Y41344801D01*
X18964367Y41438139D01*
X18980720Y41445607D01*
X19162416Y41513370D01*
X19163224Y41513671D01*
X19180469Y41518734D01*
X19370804Y41560132D01*
X19388583Y41562688D01*
X19550740Y41574280D01*
X19567736Y41573573D01*
X19567736Y41573584D01*
X19576712Y41573474D01*
X19585584Y41572092D01*
X19594488Y41573256D01*
X19594527Y41573261D01*
X19617163Y41576220D01*
X19633494Y41577283D01*
X27126335Y41577285D01*
X36036419Y41577287D01*
X36055804Y41575787D01*
G37*
%TD.AperFunction*%
%TD*%
M02*
