%TF.GenerationSoftware,KiCad,Pcbnew,(6.0.7-1)-1*%
%TF.CreationDate,2022-09-05T17:12:24+02:00*%
%TF.ProjectId,tr707minus10v_kicad,74723730-376d-4696-9e75-733130765f6b,rev?*%
%TF.SameCoordinates,Original*%
%TF.FileFunction,Legend,Top*%
%TF.FilePolarity,Positive*%
%FSLAX46Y46*%
G04 Gerber Fmt 4.6, Leading zero omitted, Abs format (unit mm)*
G04 Created by KiCad (PCBNEW (6.0.7-1)-1) date 2022-09-05 17:12:24*
%MOMM*%
%LPD*%
G01*
G04 APERTURE LIST*
%ADD10C,0.150000*%
%ADD11C,0.250000*%
%ADD12C,0.300000*%
%ADD13C,0.120000*%
G04 APERTURE END LIST*
D10*
X121483333Y-138804761D02*
X121578571Y-138852380D01*
X121769047Y-138852380D01*
X121864285Y-138804761D01*
X121911904Y-138709523D01*
X121911904Y-138661904D01*
X121864285Y-138566666D01*
X121769047Y-138519047D01*
X121626190Y-138519047D01*
X121530952Y-138471428D01*
X121483333Y-138376190D01*
X121483333Y-138328571D01*
X121530952Y-138233333D01*
X121626190Y-138185714D01*
X121769047Y-138185714D01*
X121864285Y-138233333D01*
X122245238Y-138185714D02*
X122483333Y-138852380D01*
X122721428Y-138185714D02*
X122483333Y-138852380D01*
X122388095Y-139090476D01*
X122340476Y-139138095D01*
X122245238Y-139185714D01*
X123102380Y-138185714D02*
X123102380Y-138852380D01*
X123102380Y-138280952D02*
X123149999Y-138233333D01*
X123245238Y-138185714D01*
X123388095Y-138185714D01*
X123483333Y-138233333D01*
X123530952Y-138328571D01*
X123530952Y-138852380D01*
X123864285Y-138185714D02*
X124245238Y-138185714D01*
X124007142Y-137852380D02*
X124007142Y-138709523D01*
X124054761Y-138804761D01*
X124149999Y-138852380D01*
X124245238Y-138852380D01*
X124578571Y-138852380D02*
X124578571Y-137852380D01*
X125007142Y-138852380D02*
X125007142Y-138328571D01*
X124959523Y-138233333D01*
X124864285Y-138185714D01*
X124721428Y-138185714D01*
X124626190Y-138233333D01*
X124578571Y-138280952D01*
X125483333Y-138757142D02*
X125530952Y-138804761D01*
X125483333Y-138852380D01*
X125435714Y-138804761D01*
X125483333Y-138757142D01*
X125483333Y-138852380D01*
X126340476Y-138804761D02*
X126245238Y-138852380D01*
X126054761Y-138852380D01*
X125959523Y-138804761D01*
X125911904Y-138709523D01*
X125911904Y-138328571D01*
X125959523Y-138233333D01*
X126054761Y-138185714D01*
X126245238Y-138185714D01*
X126340476Y-138233333D01*
X126388095Y-138328571D01*
X126388095Y-138423809D01*
X125911904Y-138519047D01*
X126721428Y-138185714D02*
X126911904Y-138852380D01*
X127102380Y-138376190D01*
X127292857Y-138852380D01*
X127483333Y-138185714D01*
X128292857Y-138852380D02*
X128292857Y-138328571D01*
X128245238Y-138233333D01*
X128149999Y-138185714D01*
X127959523Y-138185714D01*
X127864285Y-138233333D01*
X128292857Y-138804761D02*
X128197619Y-138852380D01*
X127959523Y-138852380D01*
X127864285Y-138804761D01*
X127816666Y-138709523D01*
X127816666Y-138614285D01*
X127864285Y-138519047D01*
X127959523Y-138471428D01*
X128197619Y-138471428D01*
X128292857Y-138423809D01*
X128769047Y-138185714D02*
X128769047Y-138852380D01*
X128769047Y-138280952D02*
X128816666Y-138233333D01*
X128911904Y-138185714D01*
X129054761Y-138185714D01*
X129149999Y-138233333D01*
X129197619Y-138328571D01*
X129197619Y-138852380D01*
X130102380Y-138804761D02*
X130007142Y-138852380D01*
X129816666Y-138852380D01*
X129721428Y-138804761D01*
X129673809Y-138757142D01*
X129626190Y-138661904D01*
X129626190Y-138376190D01*
X129673809Y-138280952D01*
X129721428Y-138233333D01*
X129816666Y-138185714D01*
X130007142Y-138185714D01*
X130102380Y-138233333D01*
X130673809Y-138852380D02*
X130578571Y-138804761D01*
X130530952Y-138757142D01*
X130483333Y-138661904D01*
X130483333Y-138376190D01*
X130530952Y-138280952D01*
X130578571Y-138233333D01*
X130673809Y-138185714D01*
X130816666Y-138185714D01*
X130911904Y-138233333D01*
X130959523Y-138280952D01*
X131007142Y-138376190D01*
X131007142Y-138661904D01*
X130959523Y-138757142D01*
X130911904Y-138804761D01*
X130816666Y-138852380D01*
X130673809Y-138852380D01*
X131578571Y-138852380D02*
X131483333Y-138804761D01*
X131435714Y-138709523D01*
X131435714Y-137852380D01*
X131911904Y-138804761D02*
X132007142Y-138852380D01*
X132197619Y-138852380D01*
X132292857Y-138804761D01*
X132340476Y-138709523D01*
X132340476Y-138661904D01*
X132292857Y-138566666D01*
X132197619Y-138519047D01*
X132054761Y-138519047D01*
X131959523Y-138471428D01*
X131911904Y-138376190D01*
X131911904Y-138328571D01*
X131959523Y-138233333D01*
X132054761Y-138185714D01*
X132197619Y-138185714D01*
X132292857Y-138233333D01*
X133149999Y-138804761D02*
X133054761Y-138852380D01*
X132864285Y-138852380D01*
X132769047Y-138804761D01*
X132721428Y-138709523D01*
X132721428Y-138328571D01*
X132769047Y-138233333D01*
X132864285Y-138185714D01*
X133054761Y-138185714D01*
X133149999Y-138233333D01*
X133197619Y-138328571D01*
X133197619Y-138423809D01*
X132721428Y-138519047D01*
X133769047Y-138852380D02*
X133673809Y-138804761D01*
X133626190Y-138709523D01*
X133626190Y-137852380D01*
X134292857Y-138852380D02*
X134197619Y-138804761D01*
X134149999Y-138709523D01*
X134149999Y-137852380D01*
X134673809Y-138757142D02*
X134721428Y-138804761D01*
X134673809Y-138852380D01*
X134626190Y-138804761D01*
X134673809Y-138757142D01*
X134673809Y-138852380D01*
X135578571Y-138804761D02*
X135483333Y-138852380D01*
X135292857Y-138852380D01*
X135197619Y-138804761D01*
X135150000Y-138757142D01*
X135102380Y-138661904D01*
X135102380Y-138376190D01*
X135150000Y-138280952D01*
X135197619Y-138233333D01*
X135292857Y-138185714D01*
X135483333Y-138185714D01*
X135578571Y-138233333D01*
X136150000Y-138852380D02*
X136054761Y-138804761D01*
X136007142Y-138757142D01*
X135959523Y-138661904D01*
X135959523Y-138376190D01*
X136007142Y-138280952D01*
X136054761Y-138233333D01*
X136150000Y-138185714D01*
X136292857Y-138185714D01*
X136388095Y-138233333D01*
X136435714Y-138280952D01*
X136483333Y-138376190D01*
X136483333Y-138661904D01*
X136435714Y-138757142D01*
X136388095Y-138804761D01*
X136292857Y-138852380D01*
X136150000Y-138852380D01*
X136911904Y-138852380D02*
X136911904Y-138185714D01*
X136911904Y-138280952D02*
X136959523Y-138233333D01*
X137054761Y-138185714D01*
X137197619Y-138185714D01*
X137292857Y-138233333D01*
X137340476Y-138328571D01*
X137340476Y-138852380D01*
X137340476Y-138328571D02*
X137388095Y-138233333D01*
X137483333Y-138185714D01*
X137626190Y-138185714D01*
X137721428Y-138233333D01*
X137769047Y-138328571D01*
X137769047Y-138852380D01*
D11*
X137350000Y-132061904D02*
X137302380Y-132157142D01*
X137302380Y-132300000D01*
X137350000Y-132442857D01*
X137445238Y-132538095D01*
X137540476Y-132585714D01*
X137730952Y-132633333D01*
X137873809Y-132633333D01*
X138064285Y-132585714D01*
X138159523Y-132538095D01*
X138254761Y-132442857D01*
X138302380Y-132300000D01*
X138302380Y-132204761D01*
X138254761Y-132061904D01*
X138207142Y-132014285D01*
X137873809Y-132014285D01*
X137873809Y-132204761D01*
X138302380Y-131585714D02*
X137302380Y-131585714D01*
X138302380Y-131014285D01*
X137302380Y-131014285D01*
X138302380Y-130538095D02*
X137302380Y-130538095D01*
X137302380Y-130300000D01*
X137350000Y-130157142D01*
X137445238Y-130061904D01*
X137540476Y-130014285D01*
X137730952Y-129966666D01*
X137873809Y-129966666D01*
X138064285Y-130014285D01*
X138159523Y-130061904D01*
X138254761Y-130157142D01*
X138302380Y-130300000D01*
X138302380Y-130538095D01*
D12*
X149307142Y-110907142D02*
X149307142Y-111592857D01*
X148107142Y-111250000D02*
X149307142Y-111250000D01*
X148107142Y-112678571D02*
X148678571Y-112278571D01*
X148107142Y-111992857D02*
X149307142Y-111992857D01*
X149307142Y-112450000D01*
X149250000Y-112564285D01*
X149192857Y-112621428D01*
X149078571Y-112678571D01*
X148907142Y-112678571D01*
X148792857Y-112621428D01*
X148735714Y-112564285D01*
X148678571Y-112450000D01*
X148678571Y-111992857D01*
X149307142Y-113078571D02*
X149307142Y-113878571D01*
X148107142Y-113364285D01*
X149307142Y-114564285D02*
X149307142Y-114678571D01*
X149250000Y-114792857D01*
X149192857Y-114850000D01*
X149078571Y-114907142D01*
X148850000Y-114964285D01*
X148564285Y-114964285D01*
X148335714Y-114907142D01*
X148221428Y-114850000D01*
X148164285Y-114792857D01*
X148107142Y-114678571D01*
X148107142Y-114564285D01*
X148164285Y-114450000D01*
X148221428Y-114392857D01*
X148335714Y-114335714D01*
X148564285Y-114278571D01*
X148850000Y-114278571D01*
X149078571Y-114335714D01*
X149192857Y-114392857D01*
X149250000Y-114450000D01*
X149307142Y-114564285D01*
X149307142Y-115364285D02*
X149307142Y-116164285D01*
X148107142Y-115650000D01*
X148107142Y-117535714D02*
X149307142Y-117535714D01*
X148107142Y-118221428D01*
X149307142Y-118221428D01*
X148164285Y-119250000D02*
X148107142Y-119135714D01*
X148107142Y-118907142D01*
X148164285Y-118792857D01*
X148278571Y-118735714D01*
X148735714Y-118735714D01*
X148850000Y-118792857D01*
X148907142Y-118907142D01*
X148907142Y-119135714D01*
X148850000Y-119250000D01*
X148735714Y-119307142D01*
X148621428Y-119307142D01*
X148507142Y-118735714D01*
X148907142Y-120335714D02*
X147935714Y-120335714D01*
X147821428Y-120278571D01*
X147764285Y-120221428D01*
X147707142Y-120107142D01*
X147707142Y-119935714D01*
X147764285Y-119821428D01*
X148164285Y-120335714D02*
X148107142Y-120221428D01*
X148107142Y-119992857D01*
X148164285Y-119878571D01*
X148221428Y-119821428D01*
X148335714Y-119764285D01*
X148678571Y-119764285D01*
X148792857Y-119821428D01*
X148850000Y-119878571D01*
X148907142Y-119992857D01*
X148907142Y-120221428D01*
X148850000Y-120335714D01*
X148107142Y-121421428D02*
X148735714Y-121421428D01*
X148850000Y-121364285D01*
X148907142Y-121250000D01*
X148907142Y-121021428D01*
X148850000Y-120907142D01*
X148164285Y-121421428D02*
X148107142Y-121307142D01*
X148107142Y-121021428D01*
X148164285Y-120907142D01*
X148278571Y-120850000D01*
X148392857Y-120850000D01*
X148507142Y-120907142D01*
X148564285Y-121021428D01*
X148564285Y-121307142D01*
X148621428Y-121421428D01*
X148907142Y-121821428D02*
X148907142Y-122278571D01*
X149307142Y-121992857D02*
X148278571Y-121992857D01*
X148164285Y-122050000D01*
X148107142Y-122164285D01*
X148107142Y-122278571D01*
X148107142Y-122678571D02*
X148907142Y-122678571D01*
X149307142Y-122678571D02*
X149250000Y-122621428D01*
X149192857Y-122678571D01*
X149250000Y-122735714D01*
X149307142Y-122678571D01*
X149192857Y-122678571D01*
X148907142Y-123135714D02*
X148107142Y-123421428D01*
X148907142Y-123707142D01*
X148164285Y-124621428D02*
X148107142Y-124507142D01*
X148107142Y-124278571D01*
X148164285Y-124164285D01*
X148278571Y-124107142D01*
X148735714Y-124107142D01*
X148850000Y-124164285D01*
X148907142Y-124278571D01*
X148907142Y-124507142D01*
X148850000Y-124621428D01*
X148735714Y-124678571D01*
X148621428Y-124678571D01*
X148507142Y-124107142D01*
X149307142Y-125935714D02*
X148107142Y-126335714D01*
X149307142Y-126735714D01*
X148107142Y-127135714D02*
X148907142Y-127135714D01*
X149307142Y-127135714D02*
X149250000Y-127078571D01*
X149192857Y-127135714D01*
X149250000Y-127192857D01*
X149307142Y-127135714D01*
X149192857Y-127135714D01*
X148107142Y-127707142D02*
X149307142Y-127707142D01*
X148850000Y-127707142D02*
X148907142Y-127821428D01*
X148907142Y-128050000D01*
X148850000Y-128164285D01*
X148792857Y-128221428D01*
X148678571Y-128278571D01*
X148335714Y-128278571D01*
X148221428Y-128221428D01*
X148164285Y-128164285D01*
X148107142Y-128050000D01*
X148107142Y-127821428D01*
X148164285Y-127707142D01*
X148164285Y-129250000D02*
X148107142Y-129135714D01*
X148107142Y-128907142D01*
X148164285Y-128792857D01*
X148278571Y-128735714D01*
X148735714Y-128735714D01*
X148850000Y-128792857D01*
X148907142Y-128907142D01*
X148907142Y-129135714D01*
X148850000Y-129250000D01*
X148735714Y-129307142D01*
X148621428Y-129307142D01*
X148507142Y-128735714D01*
X148164285Y-129764285D02*
X148107142Y-129878571D01*
X148107142Y-130107142D01*
X148164285Y-130221428D01*
X148278571Y-130278571D01*
X148335714Y-130278571D01*
X148450000Y-130221428D01*
X148507142Y-130107142D01*
X148507142Y-129935714D01*
X148564285Y-129821428D01*
X148678571Y-129764285D01*
X148735714Y-129764285D01*
X148850000Y-129821428D01*
X148907142Y-129935714D01*
X148907142Y-130107142D01*
X148850000Y-130221428D01*
D10*
X121323809Y-119985714D02*
X121704761Y-119985714D01*
X121466666Y-119652380D02*
X121466666Y-120509523D01*
X121514285Y-120604761D01*
X121609523Y-120652380D01*
X121704761Y-120652380D01*
X122038095Y-120652380D02*
X122038095Y-119652380D01*
X122466666Y-120652380D02*
X122466666Y-120128571D01*
X122419047Y-120033333D01*
X122323809Y-119985714D01*
X122180952Y-119985714D01*
X122085714Y-120033333D01*
X122038095Y-120080952D01*
X122942857Y-120652380D02*
X122942857Y-119985714D01*
X122942857Y-119652380D02*
X122895238Y-119700000D01*
X122942857Y-119747619D01*
X122990476Y-119700000D01*
X122942857Y-119652380D01*
X122942857Y-119747619D01*
X123371428Y-120604761D02*
X123466666Y-120652380D01*
X123657142Y-120652380D01*
X123752380Y-120604761D01*
X123800000Y-120509523D01*
X123800000Y-120461904D01*
X123752380Y-120366666D01*
X123657142Y-120319047D01*
X123514285Y-120319047D01*
X123419047Y-120271428D01*
X123371428Y-120176190D01*
X123371428Y-120128571D01*
X123419047Y-120033333D01*
X123514285Y-119985714D01*
X123657142Y-119985714D01*
X123752380Y-120033333D01*
X124942857Y-120604761D02*
X125038095Y-120652380D01*
X125228571Y-120652380D01*
X125323809Y-120604761D01*
X125371428Y-120509523D01*
X125371428Y-120461904D01*
X125323809Y-120366666D01*
X125228571Y-120319047D01*
X125085714Y-120319047D01*
X124990476Y-120271428D01*
X124942857Y-120176190D01*
X124942857Y-120128571D01*
X124990476Y-120033333D01*
X125085714Y-119985714D01*
X125228571Y-119985714D01*
X125323809Y-120033333D01*
X125800000Y-120652380D02*
X125800000Y-119985714D01*
X125800000Y-119652380D02*
X125752380Y-119700000D01*
X125800000Y-119747619D01*
X125847619Y-119700000D01*
X125800000Y-119652380D01*
X125800000Y-119747619D01*
X126704761Y-120652380D02*
X126704761Y-119652380D01*
X126704761Y-120604761D02*
X126609523Y-120652380D01*
X126419047Y-120652380D01*
X126323809Y-120604761D01*
X126276190Y-120557142D01*
X126228571Y-120461904D01*
X126228571Y-120176190D01*
X126276190Y-120080952D01*
X126323809Y-120033333D01*
X126419047Y-119985714D01*
X126609523Y-119985714D01*
X126704761Y-120033333D01*
X127561904Y-120604761D02*
X127466666Y-120652380D01*
X127276190Y-120652380D01*
X127180952Y-120604761D01*
X127133333Y-120509523D01*
X127133333Y-120128571D01*
X127180952Y-120033333D01*
X127276190Y-119985714D01*
X127466666Y-119985714D01*
X127561904Y-120033333D01*
X127609523Y-120128571D01*
X127609523Y-120223809D01*
X127133333Y-120319047D01*
X129228571Y-119985714D02*
X129228571Y-120652380D01*
X128800000Y-119985714D02*
X128800000Y-120509523D01*
X128847619Y-120604761D01*
X128942857Y-120652380D01*
X129085714Y-120652380D01*
X129180952Y-120604761D01*
X129228571Y-120557142D01*
X129704761Y-119985714D02*
X129704761Y-120985714D01*
X129704761Y-120033333D02*
X129800000Y-119985714D01*
X129990476Y-119985714D01*
X130085714Y-120033333D01*
X130133333Y-120080952D01*
X130180952Y-120176190D01*
X130180952Y-120461904D01*
X130133333Y-120557142D01*
X130085714Y-120604761D01*
X129990476Y-120652380D01*
X129800000Y-120652380D01*
X129704761Y-120604761D01*
X137467227Y-106872237D02*
X138038655Y-106872237D01*
X137752941Y-107872237D02*
X137752941Y-106872237D01*
X138514846Y-107872237D02*
X138419608Y-107824618D01*
X138371989Y-107776999D01*
X138324370Y-107681761D01*
X138324370Y-107396047D01*
X138371989Y-107300809D01*
X138419608Y-107253190D01*
X138514846Y-107205571D01*
X138657703Y-107205571D01*
X138752941Y-107253190D01*
X138800560Y-107300809D01*
X138848179Y-107396047D01*
X138848179Y-107681761D01*
X138800560Y-107776999D01*
X138752941Y-107824618D01*
X138657703Y-107872237D01*
X138514846Y-107872237D01*
X139276751Y-107872237D02*
X139276751Y-107205571D01*
X139276751Y-107396047D02*
X139324370Y-107300809D01*
X139371989Y-107253190D01*
X139467227Y-107205571D01*
X139562465Y-107205571D01*
X139895798Y-107872237D02*
X139895798Y-107205571D01*
X139895798Y-106872237D02*
X139848179Y-106919857D01*
X139895798Y-106967476D01*
X139943417Y-106919857D01*
X139895798Y-106872237D01*
X139895798Y-106967476D01*
X140371989Y-107205571D02*
X140371989Y-107872237D01*
X140371989Y-107300809D02*
X140419608Y-107253190D01*
X140514846Y-107205571D01*
X140657703Y-107205571D01*
X140752941Y-107253190D01*
X140800560Y-107348428D01*
X140800560Y-107872237D01*
X141419608Y-107872237D02*
X141324370Y-107824618D01*
X141276751Y-107776999D01*
X141229132Y-107681761D01*
X141229132Y-107396047D01*
X141276751Y-107300809D01*
X141324370Y-107253190D01*
X141419608Y-107205571D01*
X141562465Y-107205571D01*
X141657703Y-107253190D01*
X141705322Y-107300809D01*
X141752941Y-107396047D01*
X141752941Y-107681761D01*
X141705322Y-107776999D01*
X141657703Y-107824618D01*
X141562465Y-107872237D01*
X141419608Y-107872237D01*
X142895798Y-107824618D02*
X143038655Y-107872237D01*
X143276751Y-107872237D01*
X143371989Y-107824618D01*
X143419608Y-107776999D01*
X143467227Y-107681761D01*
X143467227Y-107586523D01*
X143419608Y-107491285D01*
X143371989Y-107443666D01*
X143276751Y-107396047D01*
X143086275Y-107348428D01*
X142991036Y-107300809D01*
X142943417Y-107253190D01*
X142895798Y-107157952D01*
X142895798Y-107062714D01*
X142943417Y-106967476D01*
X142991036Y-106919857D01*
X143086275Y-106872237D01*
X143324370Y-106872237D01*
X143467227Y-106919857D01*
X143800560Y-107205571D02*
X144038655Y-107872237D01*
X144276751Y-107205571D02*
X144038655Y-107872237D01*
X143943417Y-108110333D01*
X143895798Y-108157952D01*
X143800560Y-108205571D01*
X144657703Y-107205571D02*
X144657703Y-107872237D01*
X144657703Y-107300809D02*
X144705322Y-107253190D01*
X144800560Y-107205571D01*
X144943417Y-107205571D01*
X145038655Y-107253190D01*
X145086275Y-107348428D01*
X145086275Y-107872237D01*
X145419608Y-107205571D02*
X145800560Y-107205571D01*
X145562465Y-106872237D02*
X145562465Y-107729380D01*
X145610084Y-107824618D01*
X145705322Y-107872237D01*
X145800560Y-107872237D01*
X146133894Y-107872237D02*
X146133894Y-106872237D01*
X146562465Y-107872237D02*
X146562465Y-107348428D01*
X146514846Y-107253190D01*
X146419608Y-107205571D01*
X146276751Y-107205571D01*
X146181513Y-107253190D01*
X146133894Y-107300809D01*
X138824370Y-109482237D02*
X138491036Y-109006047D01*
X138252941Y-109482237D02*
X138252941Y-108482237D01*
X138633894Y-108482237D01*
X138729132Y-108529857D01*
X138776751Y-108577476D01*
X138824370Y-108672714D01*
X138824370Y-108815571D01*
X138776751Y-108910809D01*
X138729132Y-108958428D01*
X138633894Y-109006047D01*
X138252941Y-109006047D01*
X139633894Y-109434618D02*
X139538655Y-109482237D01*
X139348179Y-109482237D01*
X139252941Y-109434618D01*
X139205322Y-109339380D01*
X139205322Y-108958428D01*
X139252941Y-108863190D01*
X139348179Y-108815571D01*
X139538655Y-108815571D01*
X139633894Y-108863190D01*
X139681513Y-108958428D01*
X139681513Y-109053666D01*
X139205322Y-109148904D01*
X140110084Y-108815571D02*
X140110084Y-109815571D01*
X140110084Y-108863190D02*
X140205322Y-108815571D01*
X140395798Y-108815571D01*
X140491036Y-108863190D01*
X140538655Y-108910809D01*
X140586275Y-109006047D01*
X140586275Y-109291761D01*
X140538655Y-109386999D01*
X140491036Y-109434618D01*
X140395798Y-109482237D01*
X140205322Y-109482237D01*
X140110084Y-109434618D01*
X141443417Y-109482237D02*
X141443417Y-108958428D01*
X141395798Y-108863190D01*
X141300560Y-108815571D01*
X141110084Y-108815571D01*
X141014846Y-108863190D01*
X141443417Y-109434618D02*
X141348179Y-109482237D01*
X141110084Y-109482237D01*
X141014846Y-109434618D01*
X140967227Y-109339380D01*
X140967227Y-109244142D01*
X141014846Y-109148904D01*
X141110084Y-109101285D01*
X141348179Y-109101285D01*
X141443417Y-109053666D01*
X141919608Y-109482237D02*
X141919608Y-108815571D01*
X141919608Y-108482237D02*
X141871989Y-108529857D01*
X141919608Y-108577476D01*
X141967227Y-108529857D01*
X141919608Y-108482237D01*
X141919608Y-108577476D01*
X142395798Y-109482237D02*
X142395798Y-108815571D01*
X142395798Y-109006047D02*
X142443417Y-108910809D01*
X142491036Y-108863190D01*
X142586275Y-108815571D01*
X142681513Y-108815571D01*
X144252941Y-109482237D02*
X143776751Y-109482237D01*
X143776751Y-108482237D01*
X145014846Y-109482237D02*
X145014846Y-108958428D01*
X144967227Y-108863190D01*
X144871989Y-108815571D01*
X144681513Y-108815571D01*
X144586275Y-108863190D01*
X145014846Y-109434618D02*
X144919608Y-109482237D01*
X144681513Y-109482237D01*
X144586275Y-109434618D01*
X144538655Y-109339380D01*
X144538655Y-109244142D01*
X144586275Y-109148904D01*
X144681513Y-109101285D01*
X144919608Y-109101285D01*
X145014846Y-109053666D01*
X145491036Y-109482237D02*
X145491036Y-108482237D01*
X145491036Y-108863190D02*
X145586275Y-108815571D01*
X145776751Y-108815571D01*
X145871989Y-108863190D01*
X145919608Y-108910809D01*
X145967227Y-109006047D01*
X145967227Y-109291761D01*
X145919608Y-109386999D01*
X145871989Y-109434618D01*
X145776751Y-109482237D01*
X145586275Y-109482237D01*
X145491036Y-109434618D01*
D11*
X136020746Y-137672278D02*
X136020746Y-136910373D01*
X136401698Y-135910373D02*
X136401698Y-136481802D01*
X136401698Y-136196088D02*
X135401698Y-136196088D01*
X135544556Y-136291326D01*
X135639794Y-136386564D01*
X135687413Y-136481802D01*
X135401698Y-135291326D02*
X135401698Y-135196088D01*
X135449318Y-135100850D01*
X135496937Y-135053231D01*
X135592175Y-135005612D01*
X135782651Y-134957993D01*
X136020746Y-134957993D01*
X136211222Y-135005612D01*
X136306460Y-135053231D01*
X136354079Y-135100850D01*
X136401698Y-135196088D01*
X136401698Y-135291326D01*
X136354079Y-135386564D01*
X136306460Y-135434183D01*
X136211222Y-135481802D01*
X136020746Y-135529421D01*
X135782651Y-135529421D01*
X135592175Y-135481802D01*
X135496937Y-135434183D01*
X135449318Y-135386564D01*
X135401698Y-135291326D01*
X135735032Y-134624659D02*
X136401698Y-134386564D01*
X135735032Y-134148469D01*
X137011698Y-136957993D02*
X137011698Y-136767516D01*
X137059318Y-136672278D01*
X137154556Y-136577040D01*
X137345032Y-136529421D01*
X137678365Y-136529421D01*
X137868841Y-136577040D01*
X137964079Y-136672278D01*
X138011698Y-136767516D01*
X138011698Y-136957993D01*
X137964079Y-137053231D01*
X137868841Y-137148469D01*
X137678365Y-137196088D01*
X137345032Y-137196088D01*
X137154556Y-137148469D01*
X137059318Y-137053231D01*
X137011698Y-136957993D01*
X137011698Y-136100850D02*
X137821222Y-136100850D01*
X137916460Y-136053231D01*
X137964079Y-136005612D01*
X138011698Y-135910373D01*
X138011698Y-135719897D01*
X137964079Y-135624659D01*
X137916460Y-135577040D01*
X137821222Y-135529421D01*
X137011698Y-135529421D01*
X137011698Y-135196088D02*
X137011698Y-134624659D01*
X138011698Y-134910373D02*
X137011698Y-134910373D01*
X137766428Y-121714285D02*
X137766428Y-120952380D01*
X138147380Y-121333333D02*
X137385476Y-121333333D01*
X138147380Y-119952380D02*
X138147380Y-120523809D01*
X138147380Y-120238095D02*
X137147380Y-120238095D01*
X137290238Y-120333333D01*
X137385476Y-120428571D01*
X137433095Y-120523809D01*
X137242619Y-119571428D02*
X137195000Y-119523809D01*
X137147380Y-119428571D01*
X137147380Y-119190476D01*
X137195000Y-119095238D01*
X137242619Y-119047619D01*
X137337857Y-119000000D01*
X137433095Y-119000000D01*
X137575952Y-119047619D01*
X138147380Y-119619047D01*
X138147380Y-119000000D01*
X137480714Y-118666666D02*
X138147380Y-118428571D01*
X137480714Y-118190476D01*
X139757380Y-120523809D02*
X138757380Y-120523809D01*
X139757380Y-120047619D02*
X138757380Y-120047619D01*
X139757380Y-119476190D01*
X138757380Y-119476190D01*
D10*
%TO.C,C6*%
X122357142Y-133166666D02*
X122404761Y-133214285D01*
X122452380Y-133357142D01*
X122452380Y-133452380D01*
X122404761Y-133595238D01*
X122309523Y-133690476D01*
X122214285Y-133738095D01*
X122023809Y-133785714D01*
X121880952Y-133785714D01*
X121690476Y-133738095D01*
X121595238Y-133690476D01*
X121500000Y-133595238D01*
X121452380Y-133452380D01*
X121452380Y-133357142D01*
X121500000Y-133214285D01*
X121547619Y-133166666D01*
X121452380Y-132309523D02*
X121452380Y-132500000D01*
X121500000Y-132595238D01*
X121547619Y-132642857D01*
X121690476Y-132738095D01*
X121880952Y-132785714D01*
X122261904Y-132785714D01*
X122357142Y-132738095D01*
X122404761Y-132690476D01*
X122452380Y-132595238D01*
X122452380Y-132404761D01*
X122404761Y-132309523D01*
X122357142Y-132261904D01*
X122261904Y-132214285D01*
X122023809Y-132214285D01*
X121928571Y-132261904D01*
X121880952Y-132309523D01*
X121833333Y-132404761D01*
X121833333Y-132595238D01*
X121880952Y-132690476D01*
X121928571Y-132738095D01*
X122023809Y-132785714D01*
%TO.C,C3*%
X136833333Y-123357142D02*
X136785714Y-123404761D01*
X136642857Y-123452380D01*
X136547619Y-123452380D01*
X136404761Y-123404761D01*
X136309523Y-123309523D01*
X136261904Y-123214285D01*
X136214285Y-123023809D01*
X136214285Y-122880952D01*
X136261904Y-122690476D01*
X136309523Y-122595238D01*
X136404761Y-122500000D01*
X136547619Y-122452380D01*
X136642857Y-122452380D01*
X136785714Y-122500000D01*
X136833333Y-122547619D01*
X137166666Y-122452380D02*
X137785714Y-122452380D01*
X137452380Y-122833333D01*
X137595238Y-122833333D01*
X137690476Y-122880952D01*
X137738095Y-122928571D01*
X137785714Y-123023809D01*
X137785714Y-123261904D01*
X137738095Y-123357142D01*
X137690476Y-123404761D01*
X137595238Y-123452380D01*
X137309523Y-123452380D01*
X137214285Y-123404761D01*
X137166666Y-123357142D01*
%TO.C,C5*%
X122357142Y-125346666D02*
X122404761Y-125394285D01*
X122452380Y-125537142D01*
X122452380Y-125632380D01*
X122404761Y-125775238D01*
X122309523Y-125870476D01*
X122214285Y-125918095D01*
X122023809Y-125965714D01*
X121880952Y-125965714D01*
X121690476Y-125918095D01*
X121595238Y-125870476D01*
X121500000Y-125775238D01*
X121452380Y-125632380D01*
X121452380Y-125537142D01*
X121500000Y-125394285D01*
X121547619Y-125346666D01*
X121452380Y-124441904D02*
X121452380Y-124918095D01*
X121928571Y-124965714D01*
X121880952Y-124918095D01*
X121833333Y-124822857D01*
X121833333Y-124584761D01*
X121880952Y-124489523D01*
X121928571Y-124441904D01*
X122023809Y-124394285D01*
X122261904Y-124394285D01*
X122357142Y-124441904D01*
X122404761Y-124489523D01*
X122452380Y-124584761D01*
X122452380Y-124822857D01*
X122404761Y-124918095D01*
X122357142Y-124965714D01*
%TO.C,C4*%
X131333333Y-128457142D02*
X131285714Y-128504761D01*
X131142857Y-128552380D01*
X131047619Y-128552380D01*
X130904761Y-128504761D01*
X130809523Y-128409523D01*
X130761904Y-128314285D01*
X130714285Y-128123809D01*
X130714285Y-127980952D01*
X130761904Y-127790476D01*
X130809523Y-127695238D01*
X130904761Y-127600000D01*
X131047619Y-127552380D01*
X131142857Y-127552380D01*
X131285714Y-127600000D01*
X131333333Y-127647619D01*
X132190476Y-127885714D02*
X132190476Y-128552380D01*
X131952380Y-127504761D02*
X131714285Y-128219047D01*
X132333333Y-128219047D01*
%TO.C,D1*%
X143952380Y-123238095D02*
X142952380Y-123238095D01*
X142952380Y-123000000D01*
X143000000Y-122857142D01*
X143095238Y-122761904D01*
X143190476Y-122714285D01*
X143380952Y-122666666D01*
X143523809Y-122666666D01*
X143714285Y-122714285D01*
X143809523Y-122761904D01*
X143904761Y-122857142D01*
X143952380Y-123000000D01*
X143952380Y-123238095D01*
X143952380Y-121714285D02*
X143952380Y-122285714D01*
X143952380Y-122000000D02*
X142952380Y-122000000D01*
X143095238Y-122095238D01*
X143190476Y-122190476D01*
X143238095Y-122285714D01*
%TO.C,U2*%
X130738095Y-128952380D02*
X130738095Y-129761904D01*
X130785714Y-129857142D01*
X130833333Y-129904761D01*
X130928571Y-129952380D01*
X131119047Y-129952380D01*
X131214285Y-129904761D01*
X131261904Y-129857142D01*
X131309523Y-129761904D01*
X131309523Y-128952380D01*
X131738095Y-129047619D02*
X131785714Y-129000000D01*
X131880952Y-128952380D01*
X132119047Y-128952380D01*
X132214285Y-129000000D01*
X132261904Y-129047619D01*
X132309523Y-129142857D01*
X132309523Y-129238095D01*
X132261904Y-129380952D01*
X131690476Y-129952380D01*
X132309523Y-129952380D01*
%TO.C,D2*%
X143952380Y-117738095D02*
X142952380Y-117738095D01*
X142952380Y-117500000D01*
X143000000Y-117357142D01*
X143095238Y-117261904D01*
X143190476Y-117214285D01*
X143380952Y-117166666D01*
X143523809Y-117166666D01*
X143714285Y-117214285D01*
X143809523Y-117261904D01*
X143904761Y-117357142D01*
X143952380Y-117500000D01*
X143952380Y-117738095D01*
X143047619Y-116785714D02*
X143000000Y-116738095D01*
X142952380Y-116642857D01*
X142952380Y-116404761D01*
X143000000Y-116309523D01*
X143047619Y-116261904D01*
X143142857Y-116214285D01*
X143238095Y-116214285D01*
X143380952Y-116261904D01*
X143952380Y-116833333D01*
X143952380Y-116214285D01*
%TO.C,U1*%
X130738095Y-120452380D02*
X130738095Y-121261904D01*
X130785714Y-121357142D01*
X130833333Y-121404761D01*
X130928571Y-121452380D01*
X131119047Y-121452380D01*
X131214285Y-121404761D01*
X131261904Y-121357142D01*
X131309523Y-121261904D01*
X131309523Y-120452380D01*
X132309523Y-121452380D02*
X131738095Y-121452380D01*
X132023809Y-121452380D02*
X132023809Y-120452380D01*
X131928571Y-120595238D01*
X131833333Y-120690476D01*
X131738095Y-120738095D01*
%TO.C,C1*%
X148133333Y-109357142D02*
X148085714Y-109404761D01*
X147942857Y-109452380D01*
X147847619Y-109452380D01*
X147704761Y-109404761D01*
X147609523Y-109309523D01*
X147561904Y-109214285D01*
X147514285Y-109023809D01*
X147514285Y-108880952D01*
X147561904Y-108690476D01*
X147609523Y-108595238D01*
X147704761Y-108500000D01*
X147847619Y-108452380D01*
X147942857Y-108452380D01*
X148085714Y-108500000D01*
X148133333Y-108547619D01*
X149085714Y-109452380D02*
X148514285Y-109452380D01*
X148800000Y-109452380D02*
X148800000Y-108452380D01*
X148704761Y-108595238D01*
X148609523Y-108690476D01*
X148514285Y-108738095D01*
%TO.C,C2*%
X137657142Y-114666666D02*
X137704761Y-114714285D01*
X137752380Y-114857142D01*
X137752380Y-114952380D01*
X137704761Y-115095238D01*
X137609523Y-115190476D01*
X137514285Y-115238095D01*
X137323809Y-115285714D01*
X137180952Y-115285714D01*
X136990476Y-115238095D01*
X136895238Y-115190476D01*
X136800000Y-115095238D01*
X136752380Y-114952380D01*
X136752380Y-114857142D01*
X136800000Y-114714285D01*
X136847619Y-114666666D01*
X136847619Y-114285714D02*
X136800000Y-114238095D01*
X136752380Y-114142857D01*
X136752380Y-113904761D01*
X136800000Y-113809523D01*
X136847619Y-113761904D01*
X136942857Y-113714285D01*
X137038095Y-113714285D01*
X137180952Y-113761904D01*
X137752380Y-114333333D01*
X137752380Y-113714285D01*
D13*
%TO.C,C6*%
X127260000Y-135260000D02*
X126060000Y-135260000D01*
X127260000Y-131804437D02*
X127260000Y-135260000D01*
X126195563Y-130740000D02*
X126060000Y-130740000D01*
X126810000Y-130250000D02*
X126310000Y-130250000D01*
X122740000Y-131804437D02*
X122740000Y-135260000D01*
X126560000Y-130000000D02*
X126560000Y-130500000D01*
X126195563Y-130740000D02*
X127260000Y-131804437D01*
X122740000Y-135260000D02*
X123940000Y-135260000D01*
X123804437Y-130740000D02*
X123940000Y-130740000D01*
X123804437Y-130740000D02*
X122740000Y-131804437D01*
%TO.C,C3*%
X139104437Y-127760000D02*
X142560000Y-127760000D01*
X138040000Y-126695563D02*
X138040000Y-126560000D01*
X137550000Y-123690000D02*
X137550000Y-124190000D01*
X138040000Y-124304437D02*
X139104437Y-123240000D01*
X137300000Y-123940000D02*
X137800000Y-123940000D01*
X138040000Y-126695563D02*
X139104437Y-127760000D01*
X139104437Y-123240000D02*
X142560000Y-123240000D01*
X138040000Y-124304437D02*
X138040000Y-124440000D01*
X142560000Y-127760000D02*
X142560000Y-126560000D01*
X142560000Y-123240000D02*
X142560000Y-124440000D01*
%TO.C,C5*%
X126195563Y-122920000D02*
X126060000Y-122920000D01*
X127260000Y-123984437D02*
X127260000Y-127440000D01*
X127260000Y-127440000D02*
X126060000Y-127440000D01*
X122740000Y-127440000D02*
X123940000Y-127440000D01*
X126810000Y-122430000D02*
X126310000Y-122430000D01*
X123804437Y-122920000D02*
X123940000Y-122920000D01*
X126195563Y-122920000D02*
X127260000Y-123984437D01*
X126560000Y-122180000D02*
X126560000Y-122680000D01*
X122740000Y-123984437D02*
X122740000Y-127440000D01*
X123804437Y-122920000D02*
X122740000Y-123984437D01*
%TO.C,C4*%
X136111252Y-127690000D02*
X134688748Y-127690000D01*
X136111252Y-129510000D02*
X134688748Y-129510000D01*
%TO.C,D1*%
X144350000Y-120600000D02*
X144350000Y-126000000D01*
X147650000Y-120600000D02*
X144350000Y-120600000D01*
X147650000Y-120600000D02*
X147650000Y-126000000D01*
%TO.C,U2*%
X131500000Y-135560000D02*
X133450000Y-135560000D01*
X131500000Y-130440000D02*
X128050000Y-130440000D01*
X131500000Y-135560000D02*
X129550000Y-135560000D01*
X131500000Y-130440000D02*
X133450000Y-130440000D01*
%TO.C,D2*%
X147650000Y-112600000D02*
X147650000Y-118000000D01*
X144350000Y-112600000D02*
X144350000Y-118000000D01*
X147650000Y-112600000D02*
X144350000Y-112600000D01*
%TO.C,U1*%
X131500000Y-127060000D02*
X133450000Y-127060000D01*
X131500000Y-121940000D02*
X128050000Y-121940000D01*
X131500000Y-121940000D02*
X133450000Y-121940000D01*
X131500000Y-127060000D02*
X129550000Y-127060000D01*
%TO.C,C1*%
X145911252Y-109890000D02*
X144488748Y-109890000D01*
X145911252Y-111710000D02*
X144488748Y-111710000D01*
%TO.C,C2*%
X138940000Y-117500000D02*
X138940000Y-117000000D01*
X142760000Y-112240000D02*
X141560000Y-112240000D01*
X138690000Y-117250000D02*
X139190000Y-117250000D01*
X138240000Y-112240000D02*
X139440000Y-112240000D01*
X142760000Y-115695563D02*
X142760000Y-112240000D01*
X141695563Y-116760000D02*
X142760000Y-115695563D01*
X139304437Y-116760000D02*
X139440000Y-116760000D01*
X138240000Y-115695563D02*
X138240000Y-112240000D01*
X141695563Y-116760000D02*
X141560000Y-116760000D01*
X139304437Y-116760000D02*
X138240000Y-115695563D01*
%TD*%
M02*
