%TF.GenerationSoftware,KiCad,Pcbnew,(6.0.1-0)*%
%TF.CreationDate,2022-07-13T02:22:52+02:00*%
%TF.ProjectId,tr707minus10v_kicad,74723730-376d-4696-9e75-733130765f6b,rev?*%
%TF.SameCoordinates,Original*%
%TF.FileFunction,Copper,L2,Bot*%
%TF.FilePolarity,Positive*%
%FSLAX46Y46*%
G04 Gerber Fmt 4.6, Leading zero omitted, Abs format (unit mm)*
G04 Created by KiCad (PCBNEW (6.0.1-0)) date 2022-07-13 02:22:52*
%MOMM*%
%LPD*%
G01*
G04 APERTURE LIST*
%TA.AperFunction,ComponentPad*%
%ADD10R,1.700000X1.700000*%
%TD*%
%TA.AperFunction,ViaPad*%
%ADD11C,0.800000*%
%TD*%
G04 APERTURE END LIST*
D10*
%TO.P,J2,1,Pin_1*%
%TO.N,-10V*%
X140000000Y-136000000D03*
%TD*%
%TO.P,J1,1,Pin_1*%
%TO.N,+12V*%
X141000000Y-120000000D03*
%TD*%
%TO.P,J3,1,Pin_1*%
%TO.N,GND*%
X140000000Y-130000000D03*
%TD*%
D11*
%TO.N,GND*%
X134425000Y-130275000D03*
X134300000Y-124625000D03*
X145275000Y-115425000D03*
X141500000Y-124500000D03*
%TD*%
%TA.AperFunction,Conductor*%
%TO.N,GND*%
G36*
X143918395Y-106759138D02*
G01*
X147950520Y-106762366D01*
X147969799Y-106763866D01*
X147993730Y-106767592D01*
X148002632Y-106766428D01*
X148002634Y-106766428D01*
X148008959Y-106765601D01*
X148034282Y-106764858D01*
X148198126Y-106776576D01*
X148203343Y-106776949D01*
X148221137Y-106779507D01*
X148411540Y-106820927D01*
X148428788Y-106825992D01*
X148611358Y-106894088D01*
X148627710Y-106901555D01*
X148693020Y-106937216D01*
X148798734Y-106994940D01*
X148813848Y-107004654D01*
X148911746Y-107077939D01*
X148969842Y-107121429D01*
X148983428Y-107133202D01*
X149121204Y-107270978D01*
X149132977Y-107284564D01*
X149249752Y-107440558D01*
X149259469Y-107455677D01*
X149352851Y-107626696D01*
X149360318Y-107643048D01*
X149428414Y-107825618D01*
X149433480Y-107842868D01*
X149474899Y-108033269D01*
X149477457Y-108051064D01*
X149489041Y-108213035D01*
X149488297Y-108230939D01*
X149488196Y-108239262D01*
X149486814Y-108248136D01*
X149488462Y-108260735D01*
X149490935Y-108279646D01*
X149491999Y-108295985D01*
X149491620Y-120894717D01*
X149491106Y-137951799D01*
X149489606Y-137971177D01*
X149487300Y-137985988D01*
X149487300Y-137985992D01*
X149485919Y-137994862D01*
X149487083Y-138003764D01*
X149487083Y-138003766D01*
X149487910Y-138010091D01*
X149488653Y-138035414D01*
X149476935Y-138199258D01*
X149476562Y-138204475D01*
X149474004Y-138222269D01*
X149432585Y-138412670D01*
X149427519Y-138429920D01*
X149359423Y-138612490D01*
X149351956Y-138628842D01*
X149259150Y-138798807D01*
X149258574Y-138799861D01*
X149248857Y-138814980D01*
X149191910Y-138891053D01*
X149132082Y-138970974D01*
X149120309Y-138984560D01*
X148982533Y-139122336D01*
X148968946Y-139134109D01*
X148812953Y-139250884D01*
X148797839Y-139260598D01*
X148692125Y-139318322D01*
X148626815Y-139353983D01*
X148610463Y-139361450D01*
X148427893Y-139429546D01*
X148410645Y-139434611D01*
X148247127Y-139470183D01*
X148220242Y-139476031D01*
X148202447Y-139478589D01*
X148153548Y-139482086D01*
X148040474Y-139490173D01*
X148022572Y-139489429D01*
X148014249Y-139489328D01*
X148005375Y-139487946D01*
X147973856Y-139492068D01*
X147957526Y-139493131D01*
X136118073Y-139492651D01*
X122050159Y-139492080D01*
X122030781Y-139490580D01*
X122015964Y-139488273D01*
X122015960Y-139488273D01*
X122007091Y-139486892D01*
X121998189Y-139488056D01*
X121998187Y-139488056D01*
X121991862Y-139488883D01*
X121966539Y-139489626D01*
X121797478Y-139477535D01*
X121779684Y-139474977D01*
X121752799Y-139469129D01*
X121589281Y-139433557D01*
X121572033Y-139428492D01*
X121389463Y-139360396D01*
X121373111Y-139352929D01*
X121307801Y-139317268D01*
X121202087Y-139259544D01*
X121186973Y-139249830D01*
X121030980Y-139133055D01*
X121017393Y-139121282D01*
X120879617Y-138983506D01*
X120867844Y-138969920D01*
X120808805Y-138891053D01*
X120751069Y-138813926D01*
X120741352Y-138798807D01*
X120647970Y-138627788D01*
X120640503Y-138611436D01*
X120572407Y-138428866D01*
X120567341Y-138411616D01*
X120525922Y-138221215D01*
X120523364Y-138203420D01*
X120511780Y-138041449D01*
X120512524Y-138023545D01*
X120512625Y-138015222D01*
X120514007Y-138006348D01*
X120509921Y-137975106D01*
X120508858Y-137958664D01*
X120508860Y-137957169D01*
X120509804Y-136898134D01*
X138641500Y-136898134D01*
X138648255Y-136960316D01*
X138699385Y-137096705D01*
X138786739Y-137213261D01*
X138903295Y-137300615D01*
X139039684Y-137351745D01*
X139101866Y-137358500D01*
X140898134Y-137358500D01*
X140960316Y-137351745D01*
X141096705Y-137300615D01*
X141213261Y-137213261D01*
X141300615Y-137096705D01*
X141351745Y-136960316D01*
X141358500Y-136898134D01*
X141358500Y-135101866D01*
X141351745Y-135039684D01*
X141300615Y-134903295D01*
X141213261Y-134786739D01*
X141096705Y-134699385D01*
X140960316Y-134648255D01*
X140898134Y-134641500D01*
X139101866Y-134641500D01*
X139039684Y-134648255D01*
X138903295Y-134699385D01*
X138786739Y-134786739D01*
X138699385Y-134903295D01*
X138648255Y-135039684D01*
X138641500Y-135101866D01*
X138641500Y-136898134D01*
X120509804Y-136898134D01*
X120515156Y-130894669D01*
X138642001Y-130894669D01*
X138642371Y-130901490D01*
X138647895Y-130952352D01*
X138651521Y-130967604D01*
X138696676Y-131088054D01*
X138705214Y-131103649D01*
X138781715Y-131205724D01*
X138794276Y-131218285D01*
X138896351Y-131294786D01*
X138911946Y-131303324D01*
X139032394Y-131348478D01*
X139047649Y-131352105D01*
X139098514Y-131357631D01*
X139105328Y-131358000D01*
X139727885Y-131358000D01*
X139743124Y-131353525D01*
X139744329Y-131352135D01*
X139746000Y-131344452D01*
X139746000Y-131339884D01*
X140254000Y-131339884D01*
X140258475Y-131355123D01*
X140259865Y-131356328D01*
X140267548Y-131357999D01*
X140894669Y-131357999D01*
X140901490Y-131357629D01*
X140952352Y-131352105D01*
X140967604Y-131348479D01*
X141088054Y-131303324D01*
X141103649Y-131294786D01*
X141205724Y-131218285D01*
X141218285Y-131205724D01*
X141294786Y-131103649D01*
X141303324Y-131088054D01*
X141348478Y-130967606D01*
X141352105Y-130952351D01*
X141357631Y-130901486D01*
X141358000Y-130894672D01*
X141358000Y-130272115D01*
X141353525Y-130256876D01*
X141352135Y-130255671D01*
X141344452Y-130254000D01*
X140272115Y-130254000D01*
X140256876Y-130258475D01*
X140255671Y-130259865D01*
X140254000Y-130267548D01*
X140254000Y-131339884D01*
X139746000Y-131339884D01*
X139746000Y-130272115D01*
X139741525Y-130256876D01*
X139740135Y-130255671D01*
X139732452Y-130254000D01*
X138660116Y-130254000D01*
X138644877Y-130258475D01*
X138643672Y-130259865D01*
X138642001Y-130267548D01*
X138642001Y-130894669D01*
X120515156Y-130894669D01*
X120516196Y-129727885D01*
X138642000Y-129727885D01*
X138646475Y-129743124D01*
X138647865Y-129744329D01*
X138655548Y-129746000D01*
X139727885Y-129746000D01*
X139743124Y-129741525D01*
X139744329Y-129740135D01*
X139746000Y-129732452D01*
X139746000Y-129727885D01*
X140254000Y-129727885D01*
X140258475Y-129743124D01*
X140259865Y-129744329D01*
X140267548Y-129746000D01*
X141339884Y-129746000D01*
X141355123Y-129741525D01*
X141356328Y-129740135D01*
X141357999Y-129732452D01*
X141357999Y-129105331D01*
X141357629Y-129098510D01*
X141352105Y-129047648D01*
X141348479Y-129032396D01*
X141303324Y-128911946D01*
X141294786Y-128896351D01*
X141218285Y-128794276D01*
X141205724Y-128781715D01*
X141103649Y-128705214D01*
X141088054Y-128696676D01*
X140967606Y-128651522D01*
X140952351Y-128647895D01*
X140901486Y-128642369D01*
X140894672Y-128642000D01*
X140272115Y-128642000D01*
X140256876Y-128646475D01*
X140255671Y-128647865D01*
X140254000Y-128655548D01*
X140254000Y-129727885D01*
X139746000Y-129727885D01*
X139746000Y-128660116D01*
X139741525Y-128644877D01*
X139740135Y-128643672D01*
X139732452Y-128642001D01*
X139105331Y-128642001D01*
X139098510Y-128642371D01*
X139047648Y-128647895D01*
X139032396Y-128651521D01*
X138911946Y-128696676D01*
X138896351Y-128705214D01*
X138794276Y-128781715D01*
X138781715Y-128794276D01*
X138705214Y-128896351D01*
X138696676Y-128911946D01*
X138651522Y-129032394D01*
X138647895Y-129047649D01*
X138642369Y-129098514D01*
X138642000Y-129105328D01*
X138642000Y-129727885D01*
X120516196Y-129727885D01*
X120524068Y-120898134D01*
X139641500Y-120898134D01*
X139648255Y-120960316D01*
X139699385Y-121096705D01*
X139786739Y-121213261D01*
X139903295Y-121300615D01*
X140039684Y-121351745D01*
X140101866Y-121358500D01*
X141898134Y-121358500D01*
X141960316Y-121351745D01*
X142096705Y-121300615D01*
X142213261Y-121213261D01*
X142300615Y-121096705D01*
X142351745Y-120960316D01*
X142358500Y-120898134D01*
X142358500Y-119101866D01*
X142351745Y-119039684D01*
X142300615Y-118903295D01*
X142213261Y-118786739D01*
X142096705Y-118699385D01*
X141960316Y-118648255D01*
X141898134Y-118641500D01*
X140101866Y-118641500D01*
X140039684Y-118648255D01*
X139903295Y-118699385D01*
X139786739Y-118786739D01*
X139699385Y-118903295D01*
X139648255Y-119039684D01*
X139641500Y-119101866D01*
X139641500Y-120898134D01*
X120524068Y-120898134D01*
X120527512Y-117034961D01*
X120529013Y-117015690D01*
X120531362Y-117000608D01*
X120531362Y-117000602D01*
X120532743Y-116991734D01*
X120530752Y-116976505D01*
X120530009Y-116951177D01*
X120542100Y-116782121D01*
X120544658Y-116764327D01*
X120586077Y-116573926D01*
X120591143Y-116556676D01*
X120659239Y-116374106D01*
X120666706Y-116357754D01*
X120760088Y-116186735D01*
X120769805Y-116171616D01*
X120886580Y-116015622D01*
X120898353Y-116002036D01*
X121036129Y-115864260D01*
X121049715Y-115852487D01*
X121096041Y-115817808D01*
X121205709Y-115735712D01*
X121220823Y-115725998D01*
X121326537Y-115668274D01*
X121391847Y-115632613D01*
X121408199Y-115625146D01*
X121590769Y-115557050D01*
X121608017Y-115551985D01*
X121794044Y-115511517D01*
X121798420Y-115510565D01*
X121816215Y-115508007D01*
X121865114Y-115504510D01*
X121978188Y-115496423D01*
X121996090Y-115497167D01*
X122004415Y-115497269D01*
X122013287Y-115498650D01*
X122022188Y-115497486D01*
X122022193Y-115497486D01*
X122044434Y-115494577D01*
X122060920Y-115493513D01*
X132907141Y-115506290D01*
X132927896Y-115508036D01*
X132943233Y-115510616D01*
X132943236Y-115510616D01*
X132948031Y-115511423D01*
X132954330Y-115511500D01*
X132955711Y-115511517D01*
X132955715Y-115511517D01*
X132960570Y-115511576D01*
X132965385Y-115510886D01*
X132967860Y-115510725D01*
X132973455Y-115510157D01*
X133259632Y-115492847D01*
X133259638Y-115492846D01*
X133263428Y-115492617D01*
X133561871Y-115437925D01*
X133851545Y-115347659D01*
X133855015Y-115346097D01*
X133855021Y-115346095D01*
X133989885Y-115285397D01*
X134128226Y-115223135D01*
X134131483Y-115221166D01*
X134131487Y-115221164D01*
X134384627Y-115068135D01*
X134387881Y-115066168D01*
X134626722Y-114879048D01*
X134841266Y-114664504D01*
X135028386Y-114425663D01*
X135070787Y-114355523D01*
X135183382Y-114169269D01*
X135183384Y-114169265D01*
X135185353Y-114166008D01*
X135247615Y-114027667D01*
X135308313Y-113892803D01*
X135308315Y-113892797D01*
X135309877Y-113889327D01*
X135400143Y-113599653D01*
X135454835Y-113301210D01*
X135460311Y-113210686D01*
X135471291Y-113029142D01*
X135472809Y-113015835D01*
X135472833Y-113015692D01*
X135473641Y-113010891D01*
X135473794Y-112998352D01*
X135470189Y-112973182D01*
X135468921Y-112954363D01*
X135504508Y-108296380D01*
X135506004Y-108277958D01*
X135508686Y-108260735D01*
X135510067Y-108251865D01*
X135508076Y-108236636D01*
X135507333Y-108211308D01*
X135519424Y-108042252D01*
X135521982Y-108024458D01*
X135563401Y-107834057D01*
X135568467Y-107816807D01*
X135636563Y-107634237D01*
X135644030Y-107617885D01*
X135732601Y-107455677D01*
X135737415Y-107446861D01*
X135747129Y-107431747D01*
X135863904Y-107275753D01*
X135875677Y-107262167D01*
X136013453Y-107124391D01*
X136027039Y-107112618D01*
X136073365Y-107077939D01*
X136183033Y-106995843D01*
X136198147Y-106986129D01*
X136303861Y-106928405D01*
X136369171Y-106892744D01*
X136385523Y-106885277D01*
X136568093Y-106817181D01*
X136585341Y-106812116D01*
X136775744Y-106770696D01*
X136793539Y-106768138D01*
X136852097Y-106763950D01*
X136955512Y-106756554D01*
X136973414Y-106757298D01*
X136981737Y-106757399D01*
X136990611Y-106758781D01*
X137021887Y-106754692D01*
X137038315Y-106753629D01*
X143918395Y-106759138D01*
G37*
%TD.AperFunction*%
%TD*%
M02*
