%TF.GenerationSoftware,KiCad,Pcbnew,(6.0.1-0)*%
%TF.CreationDate,2022-07-13T02:22:52+02:00*%
%TF.ProjectId,tr707minus10v_kicad,74723730-376d-4696-9e75-733130765f6b,rev?*%
%TF.SameCoordinates,Original*%
%TF.FileFunction,Legend,Bot*%
%TF.FilePolarity,Positive*%
%FSLAX46Y46*%
G04 Gerber Fmt 4.6, Leading zero omitted, Abs format (unit mm)*
G04 Created by KiCad (PCBNEW (6.0.1-0)) date 2022-07-13 02:22:52*
%MOMM*%
%LPD*%
G01*
G04 APERTURE LIST*
%ADD10C,0.150000*%
%ADD11C,0.300000*%
%ADD12C,0.120000*%
G04 APERTURE END LIST*
D10*
X130542857Y-120580714D02*
X130161904Y-120580714D01*
X130400000Y-120247380D02*
X130400000Y-121104523D01*
X130352380Y-121199761D01*
X130257142Y-121247380D01*
X130161904Y-121247380D01*
X129828571Y-121247380D02*
X129828571Y-120247380D01*
X129400000Y-121247380D02*
X129400000Y-120723571D01*
X129447619Y-120628333D01*
X129542857Y-120580714D01*
X129685714Y-120580714D01*
X129780952Y-120628333D01*
X129828571Y-120675952D01*
X128923809Y-121247380D02*
X128923809Y-120580714D01*
X128923809Y-120247380D02*
X128971428Y-120295000D01*
X128923809Y-120342619D01*
X128876190Y-120295000D01*
X128923809Y-120247380D01*
X128923809Y-120342619D01*
X128495238Y-121199761D02*
X128400000Y-121247380D01*
X128209523Y-121247380D01*
X128114285Y-121199761D01*
X128066666Y-121104523D01*
X128066666Y-121056904D01*
X128114285Y-120961666D01*
X128209523Y-120914047D01*
X128352380Y-120914047D01*
X128447619Y-120866428D01*
X128495238Y-120771190D01*
X128495238Y-120723571D01*
X128447619Y-120628333D01*
X128352380Y-120580714D01*
X128209523Y-120580714D01*
X128114285Y-120628333D01*
X126876190Y-121247380D02*
X126876190Y-120580714D01*
X126876190Y-120247380D02*
X126923809Y-120295000D01*
X126876190Y-120342619D01*
X126828571Y-120295000D01*
X126876190Y-120247380D01*
X126876190Y-120342619D01*
X126447619Y-121199761D02*
X126352380Y-121247380D01*
X126161904Y-121247380D01*
X126066666Y-121199761D01*
X126019047Y-121104523D01*
X126019047Y-121056904D01*
X126066666Y-120961666D01*
X126161904Y-120914047D01*
X126304761Y-120914047D01*
X126400000Y-120866428D01*
X126447619Y-120771190D01*
X126447619Y-120723571D01*
X126400000Y-120628333D01*
X126304761Y-120580714D01*
X126161904Y-120580714D01*
X126066666Y-120628333D01*
X124400000Y-121247380D02*
X124400000Y-120723571D01*
X124447619Y-120628333D01*
X124542857Y-120580714D01*
X124733333Y-120580714D01*
X124828571Y-120628333D01*
X124400000Y-121199761D02*
X124495238Y-121247380D01*
X124733333Y-121247380D01*
X124828571Y-121199761D01*
X124876190Y-121104523D01*
X124876190Y-121009285D01*
X124828571Y-120914047D01*
X124733333Y-120866428D01*
X124495238Y-120866428D01*
X124400000Y-120818809D01*
X131757142Y-122857380D02*
X131757142Y-122190714D01*
X131757142Y-122381190D02*
X131709523Y-122285952D01*
X131661904Y-122238333D01*
X131566666Y-122190714D01*
X131471428Y-122190714D01*
X130757142Y-122809761D02*
X130852380Y-122857380D01*
X131042857Y-122857380D01*
X131138095Y-122809761D01*
X131185714Y-122714523D01*
X131185714Y-122333571D01*
X131138095Y-122238333D01*
X131042857Y-122190714D01*
X130852380Y-122190714D01*
X130757142Y-122238333D01*
X130709523Y-122333571D01*
X130709523Y-122428809D01*
X131185714Y-122524047D01*
X130280952Y-122190714D02*
X130280952Y-123190714D01*
X130280952Y-122238333D02*
X130185714Y-122190714D01*
X129995238Y-122190714D01*
X129900000Y-122238333D01*
X129852380Y-122285952D01*
X129804761Y-122381190D01*
X129804761Y-122666904D01*
X129852380Y-122762142D01*
X129900000Y-122809761D01*
X129995238Y-122857380D01*
X130185714Y-122857380D01*
X130280952Y-122809761D01*
X129233333Y-122857380D02*
X129328571Y-122809761D01*
X129376190Y-122714523D01*
X129376190Y-121857380D01*
X128423809Y-122857380D02*
X128423809Y-122333571D01*
X128471428Y-122238333D01*
X128566666Y-122190714D01*
X128757142Y-122190714D01*
X128852380Y-122238333D01*
X128423809Y-122809761D02*
X128519047Y-122857380D01*
X128757142Y-122857380D01*
X128852380Y-122809761D01*
X128900000Y-122714523D01*
X128900000Y-122619285D01*
X128852380Y-122524047D01*
X128757142Y-122476428D01*
X128519047Y-122476428D01*
X128423809Y-122428809D01*
X127519047Y-122809761D02*
X127614285Y-122857380D01*
X127804761Y-122857380D01*
X127900000Y-122809761D01*
X127947619Y-122762142D01*
X127995238Y-122666904D01*
X127995238Y-122381190D01*
X127947619Y-122285952D01*
X127900000Y-122238333D01*
X127804761Y-122190714D01*
X127614285Y-122190714D01*
X127519047Y-122238333D01*
X126709523Y-122809761D02*
X126804761Y-122857380D01*
X126995238Y-122857380D01*
X127090476Y-122809761D01*
X127138095Y-122714523D01*
X127138095Y-122333571D01*
X127090476Y-122238333D01*
X126995238Y-122190714D01*
X126804761Y-122190714D01*
X126709523Y-122238333D01*
X126661904Y-122333571D01*
X126661904Y-122428809D01*
X127138095Y-122524047D01*
X126233333Y-122857380D02*
X126233333Y-122190714D01*
X126233333Y-122285952D02*
X126185714Y-122238333D01*
X126090476Y-122190714D01*
X125947619Y-122190714D01*
X125852380Y-122238333D01*
X125804761Y-122333571D01*
X125804761Y-122857380D01*
X125804761Y-122333571D02*
X125757142Y-122238333D01*
X125661904Y-122190714D01*
X125519047Y-122190714D01*
X125423809Y-122238333D01*
X125376190Y-122333571D01*
X125376190Y-122857380D01*
X124519047Y-122809761D02*
X124614285Y-122857380D01*
X124804761Y-122857380D01*
X124900000Y-122809761D01*
X124947619Y-122714523D01*
X124947619Y-122333571D01*
X124900000Y-122238333D01*
X124804761Y-122190714D01*
X124614285Y-122190714D01*
X124519047Y-122238333D01*
X124471428Y-122333571D01*
X124471428Y-122428809D01*
X124947619Y-122524047D01*
X124042857Y-122190714D02*
X124042857Y-122857380D01*
X124042857Y-122285952D02*
X123995238Y-122238333D01*
X123900000Y-122190714D01*
X123757142Y-122190714D01*
X123661904Y-122238333D01*
X123614285Y-122333571D01*
X123614285Y-122857380D01*
X123280952Y-122190714D02*
X122900000Y-122190714D01*
X123138095Y-121857380D02*
X123138095Y-122714523D01*
X123090476Y-122809761D01*
X122995238Y-122857380D01*
X122900000Y-122857380D01*
X131780952Y-124086428D02*
X131019047Y-124086428D01*
X130019047Y-124467380D02*
X130590476Y-124467380D01*
X130304761Y-124467380D02*
X130304761Y-123467380D01*
X130400000Y-123610238D01*
X130495238Y-123705476D01*
X130590476Y-123753095D01*
X129400000Y-123467380D02*
X129304761Y-123467380D01*
X129209523Y-123515000D01*
X129161904Y-123562619D01*
X129114285Y-123657857D01*
X129066666Y-123848333D01*
X129066666Y-124086428D01*
X129114285Y-124276904D01*
X129161904Y-124372142D01*
X129209523Y-124419761D01*
X129304761Y-124467380D01*
X129400000Y-124467380D01*
X129495238Y-124419761D01*
X129542857Y-124372142D01*
X129590476Y-124276904D01*
X129638095Y-124086428D01*
X129638095Y-123848333D01*
X129590476Y-123657857D01*
X129542857Y-123562619D01*
X129495238Y-123515000D01*
X129400000Y-123467380D01*
X128733333Y-123800714D02*
X128495238Y-124467380D01*
X128257142Y-123800714D01*
X126685714Y-124467380D02*
X126685714Y-123467380D01*
X126685714Y-124419761D02*
X126780952Y-124467380D01*
X126971428Y-124467380D01*
X127066666Y-124419761D01*
X127114285Y-124372142D01*
X127161904Y-124276904D01*
X127161904Y-123991190D01*
X127114285Y-123895952D01*
X127066666Y-123848333D01*
X126971428Y-123800714D01*
X126780952Y-123800714D01*
X126685714Y-123848333D01*
X125780952Y-124419761D02*
X125876190Y-124467380D01*
X126066666Y-124467380D01*
X126161904Y-124419761D01*
X126209523Y-124372142D01*
X126257142Y-124276904D01*
X126257142Y-123991190D01*
X126209523Y-123895952D01*
X126161904Y-123848333D01*
X126066666Y-123800714D01*
X125876190Y-123800714D01*
X125780952Y-123848333D01*
X124638095Y-123419761D02*
X125495238Y-124705476D01*
X123876190Y-124467380D02*
X123876190Y-123467380D01*
X123876190Y-124419761D02*
X123971428Y-124467380D01*
X124161904Y-124467380D01*
X124257142Y-124419761D01*
X124304761Y-124372142D01*
X124352380Y-124276904D01*
X124352380Y-123991190D01*
X124304761Y-123895952D01*
X124257142Y-123848333D01*
X124161904Y-123800714D01*
X123971428Y-123800714D01*
X123876190Y-123848333D01*
X122971428Y-124419761D02*
X123066666Y-124467380D01*
X123257142Y-124467380D01*
X123352380Y-124419761D01*
X123400000Y-124372142D01*
X123447619Y-124276904D01*
X123447619Y-123991190D01*
X123400000Y-123895952D01*
X123352380Y-123848333D01*
X123257142Y-123800714D01*
X123066666Y-123800714D01*
X122971428Y-123848333D01*
X131638095Y-126029761D02*
X131733333Y-126077380D01*
X131923809Y-126077380D01*
X132019047Y-126029761D01*
X132066666Y-125982142D01*
X132114285Y-125886904D01*
X132114285Y-125601190D01*
X132066666Y-125505952D01*
X132019047Y-125458333D01*
X131923809Y-125410714D01*
X131733333Y-125410714D01*
X131638095Y-125458333D01*
X131066666Y-126077380D02*
X131161904Y-126029761D01*
X131209523Y-125982142D01*
X131257142Y-125886904D01*
X131257142Y-125601190D01*
X131209523Y-125505952D01*
X131161904Y-125458333D01*
X131066666Y-125410714D01*
X130923809Y-125410714D01*
X130828571Y-125458333D01*
X130780952Y-125505952D01*
X130733333Y-125601190D01*
X130733333Y-125886904D01*
X130780952Y-125982142D01*
X130828571Y-126029761D01*
X130923809Y-126077380D01*
X131066666Y-126077380D01*
X130304761Y-125410714D02*
X130304761Y-126077380D01*
X130304761Y-125505952D02*
X130257142Y-125458333D01*
X130161904Y-125410714D01*
X130019047Y-125410714D01*
X129923809Y-125458333D01*
X129876190Y-125553571D01*
X129876190Y-126077380D01*
X129495238Y-125410714D02*
X129257142Y-126077380D01*
X129019047Y-125410714D01*
X128257142Y-126029761D02*
X128352380Y-126077380D01*
X128542857Y-126077380D01*
X128638095Y-126029761D01*
X128685714Y-125934523D01*
X128685714Y-125553571D01*
X128638095Y-125458333D01*
X128542857Y-125410714D01*
X128352380Y-125410714D01*
X128257142Y-125458333D01*
X128209523Y-125553571D01*
X128209523Y-125648809D01*
X128685714Y-125744047D01*
X127780952Y-126077380D02*
X127780952Y-125410714D01*
X127780952Y-125601190D02*
X127733333Y-125505952D01*
X127685714Y-125458333D01*
X127590476Y-125410714D01*
X127495238Y-125410714D01*
X127304761Y-125410714D02*
X126923809Y-125410714D01*
X127161904Y-125077380D02*
X127161904Y-125934523D01*
X127114285Y-126029761D01*
X127019047Y-126077380D01*
X126923809Y-126077380D01*
X126209523Y-126029761D02*
X126304761Y-126077380D01*
X126495238Y-126077380D01*
X126590476Y-126029761D01*
X126638095Y-125934523D01*
X126638095Y-125553571D01*
X126590476Y-125458333D01*
X126495238Y-125410714D01*
X126304761Y-125410714D01*
X126209523Y-125458333D01*
X126161904Y-125553571D01*
X126161904Y-125648809D01*
X126638095Y-125744047D01*
X125733333Y-126077380D02*
X125733333Y-125410714D01*
X125733333Y-125601190D02*
X125685714Y-125505952D01*
X125638095Y-125458333D01*
X125542857Y-125410714D01*
X125447619Y-125410714D01*
X124495238Y-125410714D02*
X124114285Y-125410714D01*
X124352380Y-126077380D02*
X124352380Y-125220238D01*
X124304761Y-125125000D01*
X124209523Y-125077380D01*
X124114285Y-125077380D01*
X123638095Y-126077380D02*
X123733333Y-126029761D01*
X123780952Y-125982142D01*
X123828571Y-125886904D01*
X123828571Y-125601190D01*
X123780952Y-125505952D01*
X123733333Y-125458333D01*
X123638095Y-125410714D01*
X123495238Y-125410714D01*
X123400000Y-125458333D01*
X123352380Y-125505952D01*
X123304761Y-125601190D01*
X123304761Y-125886904D01*
X123352380Y-125982142D01*
X123400000Y-126029761D01*
X123495238Y-126077380D01*
X123638095Y-126077380D01*
X122876190Y-126077380D02*
X122876190Y-125410714D01*
X122876190Y-125601190D02*
X122828571Y-125505952D01*
X122780952Y-125458333D01*
X122685714Y-125410714D01*
X122590476Y-125410714D01*
X131233333Y-127020714D02*
X130852380Y-127020714D01*
X131090476Y-126687380D02*
X131090476Y-127544523D01*
X131042857Y-127639761D01*
X130947619Y-127687380D01*
X130852380Y-127687380D01*
X130519047Y-127687380D02*
X130519047Y-126687380D01*
X130090476Y-127687380D02*
X130090476Y-127163571D01*
X130138095Y-127068333D01*
X130233333Y-127020714D01*
X130376190Y-127020714D01*
X130471428Y-127068333D01*
X130519047Y-127115952D01*
X129233333Y-127639761D02*
X129328571Y-127687380D01*
X129519047Y-127687380D01*
X129614285Y-127639761D01*
X129661904Y-127544523D01*
X129661904Y-127163571D01*
X129614285Y-127068333D01*
X129519047Y-127020714D01*
X129328571Y-127020714D01*
X129233333Y-127068333D01*
X129185714Y-127163571D01*
X129185714Y-127258809D01*
X129661904Y-127354047D01*
X127995238Y-127687380D02*
X127995238Y-127020714D01*
X127995238Y-127211190D02*
X127947619Y-127115952D01*
X127900000Y-127068333D01*
X127804761Y-127020714D01*
X127709523Y-127020714D01*
X127233333Y-127687380D02*
X127328571Y-127639761D01*
X127376190Y-127592142D01*
X127423809Y-127496904D01*
X127423809Y-127211190D01*
X127376190Y-127115952D01*
X127328571Y-127068333D01*
X127233333Y-127020714D01*
X127090476Y-127020714D01*
X126995238Y-127068333D01*
X126947619Y-127115952D01*
X126900000Y-127211190D01*
X126900000Y-127496904D01*
X126947619Y-127592142D01*
X126995238Y-127639761D01*
X127090476Y-127687380D01*
X127233333Y-127687380D01*
X126328571Y-127687380D02*
X126423809Y-127639761D01*
X126471428Y-127544523D01*
X126471428Y-126687380D01*
X125519047Y-127687380D02*
X125519047Y-127163571D01*
X125566666Y-127068333D01*
X125661904Y-127020714D01*
X125852380Y-127020714D01*
X125947619Y-127068333D01*
X125519047Y-127639761D02*
X125614285Y-127687380D01*
X125852380Y-127687380D01*
X125947619Y-127639761D01*
X125995238Y-127544523D01*
X125995238Y-127449285D01*
X125947619Y-127354047D01*
X125852380Y-127306428D01*
X125614285Y-127306428D01*
X125519047Y-127258809D01*
X125042857Y-127020714D02*
X125042857Y-127687380D01*
X125042857Y-127115952D02*
X124995238Y-127068333D01*
X124900000Y-127020714D01*
X124757142Y-127020714D01*
X124661904Y-127068333D01*
X124614285Y-127163571D01*
X124614285Y-127687380D01*
X123709523Y-127687380D02*
X123709523Y-126687380D01*
X123709523Y-127639761D02*
X123804761Y-127687380D01*
X123995238Y-127687380D01*
X124090476Y-127639761D01*
X124138095Y-127592142D01*
X124185714Y-127496904D01*
X124185714Y-127211190D01*
X124138095Y-127115952D01*
X124090476Y-127068333D01*
X123995238Y-127020714D01*
X123804761Y-127020714D01*
X123709523Y-127068333D01*
X133804761Y-128297380D02*
X133233333Y-128297380D01*
X133519047Y-129297380D02*
X133519047Y-128297380D01*
X132900000Y-129297380D02*
X132900000Y-128630714D01*
X132900000Y-128821190D02*
X132852380Y-128725952D01*
X132804761Y-128678333D01*
X132709523Y-128630714D01*
X132614285Y-128630714D01*
X132376190Y-128297380D02*
X131709523Y-128297380D01*
X132138095Y-129297380D01*
X131138095Y-128297380D02*
X131042857Y-128297380D01*
X130947619Y-128345000D01*
X130900000Y-128392619D01*
X130852380Y-128487857D01*
X130804761Y-128678333D01*
X130804761Y-128916428D01*
X130852380Y-129106904D01*
X130900000Y-129202142D01*
X130947619Y-129249761D01*
X131042857Y-129297380D01*
X131138095Y-129297380D01*
X131233333Y-129249761D01*
X131280952Y-129202142D01*
X131328571Y-129106904D01*
X131376190Y-128916428D01*
X131376190Y-128678333D01*
X131328571Y-128487857D01*
X131280952Y-128392619D01*
X131233333Y-128345000D01*
X131138095Y-128297380D01*
X130471428Y-128297380D02*
X129804761Y-128297380D01*
X130233333Y-129297380D01*
X128233333Y-129297380D02*
X128233333Y-128773571D01*
X128280952Y-128678333D01*
X128376190Y-128630714D01*
X128566666Y-128630714D01*
X128661904Y-128678333D01*
X128233333Y-129249761D02*
X128328571Y-129297380D01*
X128566666Y-129297380D01*
X128661904Y-129249761D01*
X128709523Y-129154523D01*
X128709523Y-129059285D01*
X128661904Y-128964047D01*
X128566666Y-128916428D01*
X128328571Y-128916428D01*
X128233333Y-128868809D01*
X127757142Y-128630714D02*
X127757142Y-129297380D01*
X127757142Y-128725952D02*
X127709523Y-128678333D01*
X127614285Y-128630714D01*
X127471428Y-128630714D01*
X127376190Y-128678333D01*
X127328571Y-128773571D01*
X127328571Y-129297380D01*
X126423809Y-129297380D02*
X126423809Y-128297380D01*
X126423809Y-129249761D02*
X126519047Y-129297380D01*
X126709523Y-129297380D01*
X126804761Y-129249761D01*
X126852380Y-129202142D01*
X126900000Y-129106904D01*
X126900000Y-128821190D01*
X126852380Y-128725952D01*
X126804761Y-128678333D01*
X126709523Y-128630714D01*
X126519047Y-128630714D01*
X126423809Y-128678333D01*
X125328571Y-128630714D02*
X124947619Y-128630714D01*
X125185714Y-128297380D02*
X125185714Y-129154523D01*
X125138095Y-129249761D01*
X125042857Y-129297380D01*
X124947619Y-129297380D01*
X124614285Y-129297380D02*
X124614285Y-128630714D01*
X124614285Y-128821190D02*
X124566666Y-128725952D01*
X124519047Y-128678333D01*
X124423809Y-128630714D01*
X124328571Y-128630714D01*
X124090476Y-128297380D02*
X123423809Y-128297380D01*
X123852380Y-129297380D01*
X123090476Y-128392619D02*
X123042857Y-128345000D01*
X122947619Y-128297380D01*
X122709523Y-128297380D01*
X122614285Y-128345000D01*
X122566666Y-128392619D01*
X122519047Y-128487857D01*
X122519047Y-128583095D01*
X122566666Y-128725952D01*
X123138095Y-129297380D01*
X122519047Y-129297380D01*
X122185714Y-128297380D02*
X121519047Y-128297380D01*
X121947619Y-129297380D01*
X121138095Y-129202142D02*
X121090476Y-129249761D01*
X121138095Y-129297380D01*
X121185714Y-129249761D01*
X121138095Y-129202142D01*
X121138095Y-129297380D01*
X133161904Y-130240714D02*
X133161904Y-131050238D01*
X133209523Y-131145476D01*
X133257142Y-131193095D01*
X133352380Y-131240714D01*
X133495238Y-131240714D01*
X133590476Y-131193095D01*
X133161904Y-130859761D02*
X133257142Y-130907380D01*
X133447619Y-130907380D01*
X133542857Y-130859761D01*
X133590476Y-130812142D01*
X133638095Y-130716904D01*
X133638095Y-130431190D01*
X133590476Y-130335952D01*
X133542857Y-130288333D01*
X133447619Y-130240714D01*
X133257142Y-130240714D01*
X133161904Y-130288333D01*
X132542857Y-130907380D02*
X132638095Y-130859761D01*
X132685714Y-130812142D01*
X132733333Y-130716904D01*
X132733333Y-130431190D01*
X132685714Y-130335952D01*
X132638095Y-130288333D01*
X132542857Y-130240714D01*
X132400000Y-130240714D01*
X132304761Y-130288333D01*
X132257142Y-130335952D01*
X132209523Y-130431190D01*
X132209523Y-130716904D01*
X132257142Y-130812142D01*
X132304761Y-130859761D01*
X132400000Y-130907380D01*
X132542857Y-130907380D01*
X131638095Y-130907380D02*
X131733333Y-130859761D01*
X131780952Y-130812142D01*
X131828571Y-130716904D01*
X131828571Y-130431190D01*
X131780952Y-130335952D01*
X131733333Y-130288333D01*
X131638095Y-130240714D01*
X131495238Y-130240714D01*
X131400000Y-130288333D01*
X131352380Y-130335952D01*
X131304761Y-130431190D01*
X131304761Y-130716904D01*
X131352380Y-130812142D01*
X131400000Y-130859761D01*
X131495238Y-130907380D01*
X131638095Y-130907380D01*
X130447619Y-130907380D02*
X130447619Y-129907380D01*
X130447619Y-130859761D02*
X130542857Y-130907380D01*
X130733333Y-130907380D01*
X130828571Y-130859761D01*
X130876190Y-130812142D01*
X130923809Y-130716904D01*
X130923809Y-130431190D01*
X130876190Y-130335952D01*
X130828571Y-130288333D01*
X130733333Y-130240714D01*
X130542857Y-130240714D01*
X130447619Y-130288333D01*
X129971428Y-130907380D02*
X129971428Y-129907380D01*
X129971428Y-130288333D02*
X129876190Y-130240714D01*
X129685714Y-130240714D01*
X129590476Y-130288333D01*
X129542857Y-130335952D01*
X129495238Y-130431190D01*
X129495238Y-130716904D01*
X129542857Y-130812142D01*
X129590476Y-130859761D01*
X129685714Y-130907380D01*
X129876190Y-130907380D01*
X129971428Y-130859761D01*
X129161904Y-130240714D02*
X128923809Y-130907380D01*
X128685714Y-130240714D02*
X128923809Y-130907380D01*
X129019047Y-131145476D01*
X129066666Y-131193095D01*
X129161904Y-131240714D01*
X127923809Y-130859761D02*
X128019047Y-130907380D01*
X128209523Y-130907380D01*
X128304761Y-130859761D01*
X128352380Y-130764523D01*
X128352380Y-130383571D01*
X128304761Y-130288333D01*
X128209523Y-130240714D01*
X128019047Y-130240714D01*
X127923809Y-130288333D01*
X127876190Y-130383571D01*
X127876190Y-130478809D01*
X128352380Y-130574047D01*
X126733333Y-130859761D02*
X126590476Y-130907380D01*
X126352380Y-130907380D01*
X126257142Y-130859761D01*
X126209523Y-130812142D01*
X126161904Y-130716904D01*
X126161904Y-130621666D01*
X126209523Y-130526428D01*
X126257142Y-130478809D01*
X126352380Y-130431190D01*
X126542857Y-130383571D01*
X126638095Y-130335952D01*
X126685714Y-130288333D01*
X126733333Y-130193095D01*
X126733333Y-130097857D01*
X126685714Y-130002619D01*
X126638095Y-129955000D01*
X126542857Y-129907380D01*
X126304761Y-129907380D01*
X126161904Y-129955000D01*
X125304761Y-130240714D02*
X125304761Y-130907380D01*
X125733333Y-130240714D02*
X125733333Y-130764523D01*
X125685714Y-130859761D01*
X125590476Y-130907380D01*
X125447619Y-130907380D01*
X125352380Y-130859761D01*
X125304761Y-130812142D01*
X124828571Y-130907380D02*
X124828571Y-130240714D01*
X124828571Y-130335952D02*
X124780952Y-130288333D01*
X124685714Y-130240714D01*
X124542857Y-130240714D01*
X124447619Y-130288333D01*
X124400000Y-130383571D01*
X124400000Y-130907380D01*
X124400000Y-130383571D02*
X124352380Y-130288333D01*
X124257142Y-130240714D01*
X124114285Y-130240714D01*
X124019047Y-130288333D01*
X123971428Y-130383571D01*
X123971428Y-130907380D01*
X123495238Y-130907380D02*
X123495238Y-130240714D01*
X123495238Y-129907380D02*
X123542857Y-129955000D01*
X123495238Y-130002619D01*
X123447619Y-129955000D01*
X123495238Y-129907380D01*
X123495238Y-130002619D01*
X122590476Y-130907380D02*
X122590476Y-129907380D01*
X122590476Y-130859761D02*
X122685714Y-130907380D01*
X122876190Y-130907380D01*
X122971428Y-130859761D01*
X123019047Y-130812142D01*
X123066666Y-130716904D01*
X123066666Y-130431190D01*
X123019047Y-130335952D01*
X122971428Y-130288333D01*
X122876190Y-130240714D01*
X122685714Y-130240714D01*
X122590476Y-130288333D01*
X121685714Y-130907380D02*
X121685714Y-130383571D01*
X121733333Y-130288333D01*
X121828571Y-130240714D01*
X122019047Y-130240714D01*
X122114285Y-130288333D01*
X121685714Y-130859761D02*
X121780952Y-130907380D01*
X122019047Y-130907380D01*
X122114285Y-130859761D01*
X122161904Y-130764523D01*
X122161904Y-130669285D01*
X122114285Y-130574047D01*
X122019047Y-130526428D01*
X121780952Y-130526428D01*
X121685714Y-130478809D01*
X121209523Y-130812142D02*
X121161904Y-130859761D01*
X121209523Y-130907380D01*
X121257142Y-130859761D01*
X121209523Y-130812142D01*
X121209523Y-130907380D01*
X121209523Y-130526428D02*
X121257142Y-129955000D01*
X121209523Y-129907380D01*
X121161904Y-129955000D01*
X121209523Y-130526428D01*
X121209523Y-129907380D01*
D11*
X130678571Y-116066595D02*
X129935714Y-116066595D01*
X130307142Y-117366595D02*
X130307142Y-116066595D01*
X128759523Y-117366595D02*
X129192857Y-116747547D01*
X129502380Y-117366595D02*
X129502380Y-116066595D01*
X129007142Y-116066595D01*
X128883333Y-116128500D01*
X128821428Y-116190404D01*
X128759523Y-116314214D01*
X128759523Y-116499928D01*
X128821428Y-116623738D01*
X128883333Y-116685642D01*
X129007142Y-116747547D01*
X129502380Y-116747547D01*
X128326190Y-116066595D02*
X127459523Y-116066595D01*
X128016666Y-117366595D01*
X126716666Y-116066595D02*
X126592857Y-116066595D01*
X126469047Y-116128500D01*
X126407142Y-116190404D01*
X126345238Y-116314214D01*
X126283333Y-116561833D01*
X126283333Y-116871357D01*
X126345238Y-117118976D01*
X126407142Y-117242785D01*
X126469047Y-117304690D01*
X126592857Y-117366595D01*
X126716666Y-117366595D01*
X126840476Y-117304690D01*
X126902380Y-117242785D01*
X126964285Y-117118976D01*
X127026190Y-116871357D01*
X127026190Y-116561833D01*
X126964285Y-116314214D01*
X126902380Y-116190404D01*
X126840476Y-116128500D01*
X126716666Y-116066595D01*
X125850000Y-116066595D02*
X124983333Y-116066595D01*
X125540476Y-117366595D01*
X134671428Y-119459595D02*
X134671428Y-118159595D01*
X133928571Y-119459595D01*
X133928571Y-118159595D01*
X132814285Y-119397690D02*
X132938095Y-119459595D01*
X133185714Y-119459595D01*
X133309523Y-119397690D01*
X133371428Y-119273880D01*
X133371428Y-118778642D01*
X133309523Y-118654833D01*
X133185714Y-118592928D01*
X132938095Y-118592928D01*
X132814285Y-118654833D01*
X132752380Y-118778642D01*
X132752380Y-118902452D01*
X133371428Y-119026261D01*
X131638095Y-118592928D02*
X131638095Y-119645309D01*
X131700000Y-119769119D01*
X131761904Y-119831023D01*
X131885714Y-119892928D01*
X132071428Y-119892928D01*
X132195238Y-119831023D01*
X131638095Y-119397690D02*
X131761904Y-119459595D01*
X132009523Y-119459595D01*
X132133333Y-119397690D01*
X132195238Y-119335785D01*
X132257142Y-119211976D01*
X132257142Y-118840547D01*
X132195238Y-118716738D01*
X132133333Y-118654833D01*
X132009523Y-118592928D01*
X131761904Y-118592928D01*
X131638095Y-118654833D01*
X130461904Y-119459595D02*
X130461904Y-118778642D01*
X130523809Y-118654833D01*
X130647619Y-118592928D01*
X130895238Y-118592928D01*
X131019047Y-118654833D01*
X130461904Y-119397690D02*
X130585714Y-119459595D01*
X130895238Y-119459595D01*
X131019047Y-119397690D01*
X131080952Y-119273880D01*
X131080952Y-119150071D01*
X131019047Y-119026261D01*
X130895238Y-118964357D01*
X130585714Y-118964357D01*
X130461904Y-118902452D01*
X130028571Y-118592928D02*
X129533333Y-118592928D01*
X129842857Y-118159595D02*
X129842857Y-119273880D01*
X129780952Y-119397690D01*
X129657142Y-119459595D01*
X129533333Y-119459595D01*
X129100000Y-119459595D02*
X129100000Y-118592928D01*
X129100000Y-118159595D02*
X129161904Y-118221500D01*
X129100000Y-118283404D01*
X129038095Y-118221500D01*
X129100000Y-118159595D01*
X129100000Y-118283404D01*
X128604761Y-118592928D02*
X128295238Y-119459595D01*
X127985714Y-118592928D01*
X126995238Y-119397690D02*
X127119047Y-119459595D01*
X127366666Y-119459595D01*
X127490476Y-119397690D01*
X127552380Y-119273880D01*
X127552380Y-118778642D01*
X127490476Y-118654833D01*
X127366666Y-118592928D01*
X127119047Y-118592928D01*
X126995238Y-118654833D01*
X126933333Y-118778642D01*
X126933333Y-118902452D01*
X127552380Y-119026261D01*
X125571428Y-118159595D02*
X125138095Y-119459595D01*
X124704761Y-118159595D01*
X124271428Y-119459595D02*
X124271428Y-118592928D01*
X124271428Y-118159595D02*
X124333333Y-118221500D01*
X124271428Y-118283404D01*
X124209523Y-118221500D01*
X124271428Y-118159595D01*
X124271428Y-118283404D01*
X123652380Y-119459595D02*
X123652380Y-118159595D01*
X123652380Y-118654833D02*
X123528571Y-118592928D01*
X123280952Y-118592928D01*
X123157142Y-118654833D01*
X123095238Y-118716738D01*
X123033333Y-118840547D01*
X123033333Y-119211976D01*
X123095238Y-119335785D01*
X123157142Y-119397690D01*
X123280952Y-119459595D01*
X123528571Y-119459595D01*
X123652380Y-119397690D01*
X121980952Y-119397690D02*
X122104761Y-119459595D01*
X122352380Y-119459595D01*
X122476190Y-119397690D01*
X122538095Y-119273880D01*
X122538095Y-118778642D01*
X122476190Y-118654833D01*
X122352380Y-118592928D01*
X122104761Y-118592928D01*
X121980952Y-118654833D01*
X121919047Y-118778642D01*
X121919047Y-118902452D01*
X122538095Y-119026261D01*
X121423809Y-119397690D02*
X121299999Y-119459595D01*
X121052380Y-119459595D01*
X120928571Y-119397690D01*
X120866666Y-119273880D01*
X120866666Y-119211976D01*
X120928571Y-119088166D01*
X121052380Y-119026261D01*
X121238095Y-119026261D01*
X121361904Y-118964357D01*
X121423809Y-118840547D01*
X121423809Y-118778642D01*
X121361904Y-118654833D01*
X121238095Y-118592928D01*
X121052380Y-118592928D01*
X120928571Y-118654833D01*
D10*
X129915476Y-137072380D02*
X129915476Y-136072380D01*
X129439285Y-136405714D02*
X129439285Y-137072380D01*
X129439285Y-136500952D02*
X129391666Y-136453333D01*
X129296428Y-136405714D01*
X129153571Y-136405714D01*
X129058333Y-136453333D01*
X129010714Y-136548571D01*
X129010714Y-137072380D01*
X128582142Y-137024761D02*
X128486904Y-137072380D01*
X128296428Y-137072380D01*
X128201190Y-137024761D01*
X128153571Y-136929523D01*
X128153571Y-136881904D01*
X128201190Y-136786666D01*
X128296428Y-136739047D01*
X128439285Y-136739047D01*
X128534523Y-136691428D01*
X128582142Y-136596190D01*
X128582142Y-136548571D01*
X128534523Y-136453333D01*
X128439285Y-136405714D01*
X128296428Y-136405714D01*
X128201190Y-136453333D01*
X127725000Y-136405714D02*
X127725000Y-137405714D01*
X127725000Y-136453333D02*
X127629761Y-136405714D01*
X127439285Y-136405714D01*
X127344047Y-136453333D01*
X127296428Y-136500952D01*
X127248809Y-136596190D01*
X127248809Y-136881904D01*
X127296428Y-136977142D01*
X127344047Y-137024761D01*
X127439285Y-137072380D01*
X127629761Y-137072380D01*
X127725000Y-137024761D01*
X126820238Y-137072380D02*
X126820238Y-136405714D01*
X126820238Y-136072380D02*
X126867857Y-136120000D01*
X126820238Y-136167619D01*
X126772619Y-136120000D01*
X126820238Y-136072380D01*
X126820238Y-136167619D01*
X126344047Y-137072380D02*
X126344047Y-136405714D01*
X126344047Y-136596190D02*
X126296428Y-136500952D01*
X126248809Y-136453333D01*
X126153571Y-136405714D01*
X126058333Y-136405714D01*
X125344047Y-137024761D02*
X125439285Y-137072380D01*
X125629761Y-137072380D01*
X125725000Y-137024761D01*
X125772619Y-136929523D01*
X125772619Y-136548571D01*
X125725000Y-136453333D01*
X125629761Y-136405714D01*
X125439285Y-136405714D01*
X125344047Y-136453333D01*
X125296428Y-136548571D01*
X125296428Y-136643809D01*
X125772619Y-136739047D01*
X124439285Y-137072380D02*
X124439285Y-136072380D01*
X124439285Y-137024761D02*
X124534523Y-137072380D01*
X124725000Y-137072380D01*
X124820238Y-137024761D01*
X124867857Y-136977142D01*
X124915476Y-136881904D01*
X124915476Y-136596190D01*
X124867857Y-136500952D01*
X124820238Y-136453333D01*
X124725000Y-136405714D01*
X124534523Y-136405714D01*
X124439285Y-136453333D01*
X123201190Y-137072380D02*
X123201190Y-136072380D01*
X123201190Y-136453333D02*
X123105952Y-136405714D01*
X122915476Y-136405714D01*
X122820238Y-136453333D01*
X122772619Y-136500952D01*
X122725000Y-136596190D01*
X122725000Y-136881904D01*
X122772619Y-136977142D01*
X122820238Y-137024761D01*
X122915476Y-137072380D01*
X123105952Y-137072380D01*
X123201190Y-137024761D01*
X122391666Y-136405714D02*
X122153571Y-137072380D01*
X121915476Y-136405714D02*
X122153571Y-137072380D01*
X122248809Y-137310476D01*
X122296428Y-137358095D01*
X122391666Y-137405714D01*
X121534523Y-136977142D02*
X121486904Y-137024761D01*
X121534523Y-137072380D01*
X121582142Y-137024761D01*
X121534523Y-136977142D01*
X121534523Y-137072380D01*
X121534523Y-136453333D02*
X121486904Y-136500952D01*
X121534523Y-136548571D01*
X121582142Y-136500952D01*
X121534523Y-136453333D01*
X121534523Y-136548571D01*
X129844047Y-138682380D02*
X129844047Y-137682380D01*
X129844047Y-138158571D02*
X129272619Y-138158571D01*
X129272619Y-138682380D02*
X129272619Y-137682380D01*
X128367857Y-138682380D02*
X128367857Y-138158571D01*
X128415476Y-138063333D01*
X128510714Y-138015714D01*
X128701190Y-138015714D01*
X128796428Y-138063333D01*
X128367857Y-138634761D02*
X128463095Y-138682380D01*
X128701190Y-138682380D01*
X128796428Y-138634761D01*
X128844047Y-138539523D01*
X128844047Y-138444285D01*
X128796428Y-138349047D01*
X128701190Y-138301428D01*
X128463095Y-138301428D01*
X128367857Y-138253809D01*
X127891666Y-138682380D02*
X127891666Y-138015714D01*
X127891666Y-138206190D02*
X127844047Y-138110952D01*
X127796428Y-138063333D01*
X127701190Y-138015714D01*
X127605952Y-138015714D01*
X127272619Y-138682380D02*
X127272619Y-138015714D01*
X127272619Y-138206190D02*
X127225000Y-138110952D01*
X127177380Y-138063333D01*
X127082142Y-138015714D01*
X126986904Y-138015714D01*
X126748809Y-138015714D02*
X126510714Y-138682380D01*
X126272619Y-138015714D02*
X126510714Y-138682380D01*
X126605952Y-138920476D01*
X126653571Y-138968095D01*
X126748809Y-139015714D01*
X125177380Y-138396666D02*
X124701190Y-138396666D01*
X125272619Y-138682380D02*
X124939285Y-137682380D01*
X124605952Y-138682380D01*
X124367857Y-138682380D02*
X123844047Y-138015714D01*
X124367857Y-138015714D02*
X123844047Y-138682380D01*
X123605952Y-138015714D02*
X123225000Y-138015714D01*
X123463095Y-137682380D02*
X123463095Y-138539523D01*
X123415476Y-138634761D01*
X123320238Y-138682380D01*
X123225000Y-138682380D01*
X122510714Y-138634761D02*
X122605952Y-138682380D01*
X122796428Y-138682380D01*
X122891666Y-138634761D01*
X122939285Y-138539523D01*
X122939285Y-138158571D01*
X122891666Y-138063333D01*
X122796428Y-138015714D01*
X122605952Y-138015714D01*
X122510714Y-138063333D01*
X122463095Y-138158571D01*
X122463095Y-138253809D01*
X122939285Y-138349047D01*
X122034523Y-138015714D02*
X122034523Y-138682380D01*
X122034523Y-138110952D02*
X121986904Y-138063333D01*
X121891666Y-138015714D01*
X121748809Y-138015714D01*
X121653571Y-138063333D01*
X121605952Y-138158571D01*
X121605952Y-138682380D01*
X146976190Y-108232380D02*
X146976190Y-107232380D01*
X146976190Y-107613333D02*
X146880952Y-107565714D01*
X146690476Y-107565714D01*
X146595238Y-107613333D01*
X146547619Y-107660952D01*
X146500000Y-107756190D01*
X146500000Y-108041904D01*
X146547619Y-108137142D01*
X146595238Y-108184761D01*
X146690476Y-108232380D01*
X146880952Y-108232380D01*
X146976190Y-108184761D01*
X145690476Y-108184761D02*
X145785714Y-108232380D01*
X145976190Y-108232380D01*
X146071428Y-108184761D01*
X146119047Y-108089523D01*
X146119047Y-107708571D01*
X146071428Y-107613333D01*
X145976190Y-107565714D01*
X145785714Y-107565714D01*
X145690476Y-107613333D01*
X145642857Y-107708571D01*
X145642857Y-107803809D01*
X146119047Y-107899047D01*
X145357142Y-107565714D02*
X144976190Y-107565714D01*
X145214285Y-108232380D02*
X145214285Y-107375238D01*
X145166666Y-107280000D01*
X145071428Y-107232380D01*
X144976190Y-107232380D01*
X144500000Y-108232380D02*
X144595238Y-108184761D01*
X144642857Y-108137142D01*
X144690476Y-108041904D01*
X144690476Y-107756190D01*
X144642857Y-107660952D01*
X144595238Y-107613333D01*
X144500000Y-107565714D01*
X144357142Y-107565714D01*
X144261904Y-107613333D01*
X144214285Y-107660952D01*
X144166666Y-107756190D01*
X144166666Y-108041904D01*
X144214285Y-108137142D01*
X144261904Y-108184761D01*
X144357142Y-108232380D01*
X144500000Y-108232380D01*
X143738095Y-108232380D02*
X143738095Y-107565714D01*
X143738095Y-107756190D02*
X143690476Y-107660952D01*
X143642857Y-107613333D01*
X143547619Y-107565714D01*
X143452380Y-107565714D01*
X142738095Y-108184761D02*
X142833333Y-108232380D01*
X143023809Y-108232380D01*
X143119047Y-108184761D01*
X143166666Y-108089523D01*
X143166666Y-107708571D01*
X143119047Y-107613333D01*
X143023809Y-107565714D01*
X142833333Y-107565714D01*
X142738095Y-107613333D01*
X142690476Y-107708571D01*
X142690476Y-107803809D01*
X143166666Y-107899047D01*
X141642857Y-107565714D02*
X141261904Y-107565714D01*
X141500000Y-108232380D02*
X141500000Y-107375238D01*
X141452380Y-107280000D01*
X141357142Y-107232380D01*
X141261904Y-107232380D01*
X140928571Y-108232380D02*
X140928571Y-107565714D01*
X140928571Y-107232380D02*
X140976190Y-107280000D01*
X140928571Y-107327619D01*
X140880952Y-107280000D01*
X140928571Y-107232380D01*
X140928571Y-107327619D01*
X140595238Y-107565714D02*
X140214285Y-107565714D01*
X140452380Y-107232380D02*
X140452380Y-108089523D01*
X140404761Y-108184761D01*
X140309523Y-108232380D01*
X140214285Y-108232380D01*
X140023809Y-107565714D02*
X139642857Y-107565714D01*
X139880952Y-107232380D02*
X139880952Y-108089523D01*
X139833333Y-108184761D01*
X139738095Y-108232380D01*
X139642857Y-108232380D01*
X139309523Y-108232380D02*
X139309523Y-107565714D01*
X139309523Y-107232380D02*
X139357142Y-107280000D01*
X139309523Y-107327619D01*
X139261904Y-107280000D01*
X139309523Y-107232380D01*
X139309523Y-107327619D01*
X138833333Y-107565714D02*
X138833333Y-108232380D01*
X138833333Y-107660952D02*
X138785714Y-107613333D01*
X138690476Y-107565714D01*
X138547619Y-107565714D01*
X138452380Y-107613333D01*
X138404761Y-107708571D01*
X138404761Y-108232380D01*
X137500000Y-107565714D02*
X137500000Y-108375238D01*
X137547619Y-108470476D01*
X137595238Y-108518095D01*
X137690476Y-108565714D01*
X137833333Y-108565714D01*
X137928571Y-108518095D01*
X137500000Y-108184761D02*
X137595238Y-108232380D01*
X137785714Y-108232380D01*
X137880952Y-108184761D01*
X137928571Y-108137142D01*
X137976190Y-108041904D01*
X137976190Y-107756190D01*
X137928571Y-107660952D01*
X137880952Y-107613333D01*
X137785714Y-107565714D01*
X137595238Y-107565714D01*
X137500000Y-107613333D01*
X136976190Y-108184761D02*
X136976190Y-108232380D01*
X137023809Y-108327619D01*
X137071428Y-108375238D01*
X144666666Y-109842380D02*
X144666666Y-109175714D01*
X144666666Y-109366190D02*
X144619047Y-109270952D01*
X144571428Y-109223333D01*
X144476190Y-109175714D01*
X144380952Y-109175714D01*
X143666666Y-109794761D02*
X143761904Y-109842380D01*
X143952380Y-109842380D01*
X144047619Y-109794761D01*
X144095238Y-109699523D01*
X144095238Y-109318571D01*
X144047619Y-109223333D01*
X143952380Y-109175714D01*
X143761904Y-109175714D01*
X143666666Y-109223333D01*
X143619047Y-109318571D01*
X143619047Y-109413809D01*
X144095238Y-109509047D01*
X143190476Y-109842380D02*
X143190476Y-109175714D01*
X143190476Y-109270952D02*
X143142857Y-109223333D01*
X143047619Y-109175714D01*
X142904761Y-109175714D01*
X142809523Y-109223333D01*
X142761904Y-109318571D01*
X142761904Y-109842380D01*
X142761904Y-109318571D02*
X142714285Y-109223333D01*
X142619047Y-109175714D01*
X142476190Y-109175714D01*
X142380952Y-109223333D01*
X142333333Y-109318571D01*
X142333333Y-109842380D01*
X141714285Y-109842380D02*
X141809523Y-109794761D01*
X141857142Y-109747142D01*
X141904761Y-109651904D01*
X141904761Y-109366190D01*
X141857142Y-109270952D01*
X141809523Y-109223333D01*
X141714285Y-109175714D01*
X141571428Y-109175714D01*
X141476190Y-109223333D01*
X141428571Y-109270952D01*
X141380952Y-109366190D01*
X141380952Y-109651904D01*
X141428571Y-109747142D01*
X141476190Y-109794761D01*
X141571428Y-109842380D01*
X141714285Y-109842380D01*
X141047619Y-109175714D02*
X140809523Y-109842380D01*
X140571428Y-109175714D01*
X139809523Y-109794761D02*
X139904761Y-109842380D01*
X140095238Y-109842380D01*
X140190476Y-109794761D01*
X140238095Y-109699523D01*
X140238095Y-109318571D01*
X140190476Y-109223333D01*
X140095238Y-109175714D01*
X139904761Y-109175714D01*
X139809523Y-109223333D01*
X139761904Y-109318571D01*
X139761904Y-109413809D01*
X140238095Y-109509047D01*
X139333333Y-109747142D02*
X139285714Y-109794761D01*
X139333333Y-109842380D01*
X139380952Y-109794761D01*
X139333333Y-109747142D01*
X139333333Y-109842380D01*
X139333333Y-109223333D02*
X139285714Y-109270952D01*
X139333333Y-109318571D01*
X139380952Y-109270952D01*
X139333333Y-109223333D01*
X139333333Y-109318571D01*
X145428571Y-111547619D02*
X145523809Y-111500000D01*
X145619047Y-111404761D01*
X145761904Y-111261904D01*
X145857142Y-111214285D01*
X145952380Y-111214285D01*
X145904761Y-111452380D02*
X146000000Y-111404761D01*
X146095238Y-111309523D01*
X146142857Y-111119047D01*
X146142857Y-110785714D01*
X146095238Y-110595238D01*
X146000000Y-110500000D01*
X145904761Y-110452380D01*
X145714285Y-110452380D01*
X145619047Y-110500000D01*
X145523809Y-110595238D01*
X145476190Y-110785714D01*
X145476190Y-111119047D01*
X145523809Y-111309523D01*
X145619047Y-111404761D01*
X145714285Y-111452380D01*
X145904761Y-111452380D01*
X144523809Y-111452380D02*
X145095238Y-111452380D01*
X144809523Y-111452380D02*
X144809523Y-110452380D01*
X144904761Y-110595238D01*
X145000000Y-110690476D01*
X145095238Y-110738095D01*
X144047619Y-111404761D02*
X144047619Y-111452380D01*
X144095238Y-111547619D01*
X144142857Y-111595238D01*
X142190476Y-111547619D02*
X142285714Y-111500000D01*
X142380952Y-111404761D01*
X142523809Y-111261904D01*
X142619047Y-111214285D01*
X142714285Y-111214285D01*
X142666666Y-111452380D02*
X142761904Y-111404761D01*
X142857142Y-111309523D01*
X142904761Y-111119047D01*
X142904761Y-110785714D01*
X142857142Y-110595238D01*
X142761904Y-110500000D01*
X142666666Y-110452380D01*
X142476190Y-110452380D01*
X142380952Y-110500000D01*
X142285714Y-110595238D01*
X142238095Y-110785714D01*
X142238095Y-111119047D01*
X142285714Y-111309523D01*
X142380952Y-111404761D01*
X142476190Y-111452380D01*
X142666666Y-111452380D01*
X141857142Y-110547619D02*
X141809523Y-110500000D01*
X141714285Y-110452380D01*
X141476190Y-110452380D01*
X141380952Y-110500000D01*
X141333333Y-110547619D01*
X141285714Y-110642857D01*
X141285714Y-110738095D01*
X141333333Y-110880952D01*
X141904761Y-111452380D01*
X141285714Y-111452380D01*
X140809523Y-111404761D02*
X140809523Y-111452380D01*
X140857142Y-111547619D01*
X140904761Y-111595238D01*
X139761904Y-110452380D02*
X139190476Y-110452380D01*
X139476190Y-111452380D02*
X139476190Y-110452380D01*
X138333333Y-111452380D02*
X138904761Y-111452380D01*
X138619047Y-111452380D02*
X138619047Y-110452380D01*
X138714285Y-110595238D01*
X138809523Y-110690476D01*
X138904761Y-110738095D01*
X137857142Y-111404761D02*
X137857142Y-111452380D01*
X137904761Y-111547619D01*
X137952380Y-111595238D01*
X146642857Y-113062380D02*
X146642857Y-112062380D01*
X146404761Y-112062380D01*
X146261904Y-112110000D01*
X146166666Y-112205238D01*
X146119047Y-112300476D01*
X146071428Y-112490952D01*
X146071428Y-112633809D01*
X146119047Y-112824285D01*
X146166666Y-112919523D01*
X146261904Y-113014761D01*
X146404761Y-113062380D01*
X146642857Y-113062380D01*
X145690476Y-112157619D02*
X145642857Y-112110000D01*
X145547619Y-112062380D01*
X145309523Y-112062380D01*
X145214285Y-112110000D01*
X145166666Y-112157619D01*
X145119047Y-112252857D01*
X145119047Y-112348095D01*
X145166666Y-112490952D01*
X145738095Y-113062380D01*
X145119047Y-113062380D01*
X144642857Y-113014761D02*
X144642857Y-113062380D01*
X144690476Y-113157619D01*
X144738095Y-113205238D01*
X143452380Y-113062380D02*
X143452380Y-112062380D01*
X143214285Y-112062380D01*
X143071428Y-112110000D01*
X142976190Y-112205238D01*
X142928571Y-112300476D01*
X142880952Y-112490952D01*
X142880952Y-112633809D01*
X142928571Y-112824285D01*
X142976190Y-112919523D01*
X143071428Y-113014761D01*
X143214285Y-113062380D01*
X143452380Y-113062380D01*
X142547619Y-112062380D02*
X141928571Y-112062380D01*
X142261904Y-112443333D01*
X142119047Y-112443333D01*
X142023809Y-112490952D01*
X141976190Y-112538571D01*
X141928571Y-112633809D01*
X141928571Y-112871904D01*
X141976190Y-112967142D01*
X142023809Y-113014761D01*
X142119047Y-113062380D01*
X142404761Y-113062380D01*
X142500000Y-113014761D01*
X142547619Y-112967142D01*
X141452380Y-113014761D02*
X141452380Y-113062380D01*
X141500000Y-113157619D01*
X141547619Y-113205238D01*
X140261904Y-113062380D02*
X140261904Y-112062380D01*
X140023809Y-112062380D01*
X139880952Y-112110000D01*
X139785714Y-112205238D01*
X139738095Y-112300476D01*
X139690476Y-112490952D01*
X139690476Y-112633809D01*
X139738095Y-112824285D01*
X139785714Y-112919523D01*
X139880952Y-113014761D01*
X140023809Y-113062380D01*
X140261904Y-113062380D01*
X138738095Y-113062380D02*
X139309523Y-113062380D01*
X139023809Y-113062380D02*
X139023809Y-112062380D01*
X139119047Y-112205238D01*
X139214285Y-112300476D01*
X139309523Y-112348095D01*
X138166666Y-112490952D02*
X138261904Y-112443333D01*
X138309523Y-112395714D01*
X138357142Y-112300476D01*
X138357142Y-112252857D01*
X138309523Y-112157619D01*
X138261904Y-112110000D01*
X138166666Y-112062380D01*
X137976190Y-112062380D01*
X137880952Y-112110000D01*
X137833333Y-112157619D01*
X137785714Y-112252857D01*
X137785714Y-112300476D01*
X137833333Y-112395714D01*
X137880952Y-112443333D01*
X137976190Y-112490952D01*
X138166666Y-112490952D01*
X138261904Y-112538571D01*
X138309523Y-112586190D01*
X138357142Y-112681428D01*
X138357142Y-112871904D01*
X138309523Y-112967142D01*
X138261904Y-113014761D01*
X138166666Y-113062380D01*
X137976190Y-113062380D01*
X137880952Y-113014761D01*
X137833333Y-112967142D01*
X137785714Y-112871904D01*
X137785714Y-112681428D01*
X137833333Y-112586190D01*
X137880952Y-112538571D01*
X137976190Y-112490952D01*
X137309523Y-113014761D02*
X137309523Y-113062380D01*
X137357142Y-113157619D01*
X137404761Y-113205238D01*
X146952380Y-114577142D02*
X147000000Y-114624761D01*
X147142857Y-114672380D01*
X147238095Y-114672380D01*
X147380952Y-114624761D01*
X147476190Y-114529523D01*
X147523809Y-114434285D01*
X147571428Y-114243809D01*
X147571428Y-114100952D01*
X147523809Y-113910476D01*
X147476190Y-113815238D01*
X147380952Y-113720000D01*
X147238095Y-113672380D01*
X147142857Y-113672380D01*
X147000000Y-113720000D01*
X146952380Y-113767619D01*
X146619047Y-113672380D02*
X145952380Y-113672380D01*
X146380952Y-114672380D01*
X145523809Y-114624761D02*
X145523809Y-114672380D01*
X145571428Y-114767619D01*
X145619047Y-114815238D01*
X143761904Y-114577142D02*
X143809523Y-114624761D01*
X143952380Y-114672380D01*
X144047619Y-114672380D01*
X144190476Y-114624761D01*
X144285714Y-114529523D01*
X144333333Y-114434285D01*
X144380952Y-114243809D01*
X144380952Y-114100952D01*
X144333333Y-113910476D01*
X144285714Y-113815238D01*
X144190476Y-113720000D01*
X144047619Y-113672380D01*
X143952380Y-113672380D01*
X143809523Y-113720000D01*
X143761904Y-113767619D01*
X143190476Y-114100952D02*
X143285714Y-114053333D01*
X143333333Y-114005714D01*
X143380952Y-113910476D01*
X143380952Y-113862857D01*
X143333333Y-113767619D01*
X143285714Y-113720000D01*
X143190476Y-113672380D01*
X143000000Y-113672380D01*
X142904761Y-113720000D01*
X142857142Y-113767619D01*
X142809523Y-113862857D01*
X142809523Y-113910476D01*
X142857142Y-114005714D01*
X142904761Y-114053333D01*
X143000000Y-114100952D01*
X143190476Y-114100952D01*
X143285714Y-114148571D01*
X143333333Y-114196190D01*
X143380952Y-114291428D01*
X143380952Y-114481904D01*
X143333333Y-114577142D01*
X143285714Y-114624761D01*
X143190476Y-114672380D01*
X143000000Y-114672380D01*
X142904761Y-114624761D01*
X142857142Y-114577142D01*
X142809523Y-114481904D01*
X142809523Y-114291428D01*
X142857142Y-114196190D01*
X142904761Y-114148571D01*
X143000000Y-114100952D01*
X142333333Y-114624761D02*
X142333333Y-114672380D01*
X142380952Y-114767619D01*
X142428571Y-114815238D01*
X140571428Y-114672380D02*
X140904761Y-114196190D01*
X141142857Y-114672380D02*
X141142857Y-113672380D01*
X140761904Y-113672380D01*
X140666666Y-113720000D01*
X140619047Y-113767619D01*
X140571428Y-113862857D01*
X140571428Y-114005714D01*
X140619047Y-114100952D01*
X140666666Y-114148571D01*
X140761904Y-114196190D01*
X141142857Y-114196190D01*
X139619047Y-114672380D02*
X140190476Y-114672380D01*
X139904761Y-114672380D02*
X139904761Y-113672380D01*
X140000000Y-113815238D01*
X140095238Y-113910476D01*
X140190476Y-113958095D01*
X139142857Y-114624761D02*
X139142857Y-114672380D01*
X139190476Y-114767619D01*
X139238095Y-114815238D01*
X137380952Y-114672380D02*
X137714285Y-114196190D01*
X137952380Y-114672380D02*
X137952380Y-113672380D01*
X137571428Y-113672380D01*
X137476190Y-113720000D01*
X137428571Y-113767619D01*
X137380952Y-113862857D01*
X137380952Y-114005714D01*
X137428571Y-114100952D01*
X137476190Y-114148571D01*
X137571428Y-114196190D01*
X137952380Y-114196190D01*
X137000000Y-113767619D02*
X136952380Y-113720000D01*
X136857142Y-113672380D01*
X136619047Y-113672380D01*
X136523809Y-113720000D01*
X136476190Y-113767619D01*
X136428571Y-113862857D01*
X136428571Y-113958095D01*
X136476190Y-114100952D01*
X137047619Y-114672380D01*
X136428571Y-114672380D01*
X147912619Y-131629761D02*
X148912619Y-131629761D01*
X148912619Y-131248809D01*
X148865000Y-131153571D01*
X148817380Y-131105952D01*
X148722142Y-131058333D01*
X148579285Y-131058333D01*
X148484047Y-131105952D01*
X148436428Y-131153571D01*
X148388809Y-131248809D01*
X148388809Y-131629761D01*
X148007857Y-130058333D02*
X147960238Y-130105952D01*
X147912619Y-130248809D01*
X147912619Y-130344047D01*
X147960238Y-130486904D01*
X148055476Y-130582142D01*
X148150714Y-130629761D01*
X148341190Y-130677380D01*
X148484047Y-130677380D01*
X148674523Y-130629761D01*
X148769761Y-130582142D01*
X148865000Y-130486904D01*
X148912619Y-130344047D01*
X148912619Y-130248809D01*
X148865000Y-130105952D01*
X148817380Y-130058333D01*
X148436428Y-129296428D02*
X148388809Y-129153571D01*
X148341190Y-129105952D01*
X148245952Y-129058333D01*
X148103095Y-129058333D01*
X148007857Y-129105952D01*
X147960238Y-129153571D01*
X147912619Y-129248809D01*
X147912619Y-129629761D01*
X148912619Y-129629761D01*
X148912619Y-129296428D01*
X148865000Y-129201190D01*
X148817380Y-129153571D01*
X148722142Y-129105952D01*
X148626904Y-129105952D01*
X148531666Y-129153571D01*
X148484047Y-129201190D01*
X148436428Y-129296428D01*
X148436428Y-129629761D01*
X147912619Y-127439285D02*
X148912619Y-127439285D01*
X147960238Y-127439285D02*
X147912619Y-127534523D01*
X147912619Y-127725000D01*
X147960238Y-127820238D01*
X148007857Y-127867857D01*
X148103095Y-127915476D01*
X148388809Y-127915476D01*
X148484047Y-127867857D01*
X148531666Y-127820238D01*
X148579285Y-127725000D01*
X148579285Y-127534523D01*
X148531666Y-127439285D01*
X147960238Y-126582142D02*
X147912619Y-126677380D01*
X147912619Y-126867857D01*
X147960238Y-126963095D01*
X148055476Y-127010714D01*
X148436428Y-127010714D01*
X148531666Y-126963095D01*
X148579285Y-126867857D01*
X148579285Y-126677380D01*
X148531666Y-126582142D01*
X148436428Y-126534523D01*
X148341190Y-126534523D01*
X148245952Y-127010714D01*
X147960238Y-126153571D02*
X147912619Y-126058333D01*
X147912619Y-125867857D01*
X147960238Y-125772619D01*
X148055476Y-125725000D01*
X148103095Y-125725000D01*
X148198333Y-125772619D01*
X148245952Y-125867857D01*
X148245952Y-126010714D01*
X148293571Y-126105952D01*
X148388809Y-126153571D01*
X148436428Y-126153571D01*
X148531666Y-126105952D01*
X148579285Y-126010714D01*
X148579285Y-125867857D01*
X148531666Y-125772619D01*
X147912619Y-125296428D02*
X148579285Y-125296428D01*
X148912619Y-125296428D02*
X148865000Y-125344047D01*
X148817380Y-125296428D01*
X148865000Y-125248809D01*
X148912619Y-125296428D01*
X148817380Y-125296428D01*
X148579285Y-124391666D02*
X147769761Y-124391666D01*
X147674523Y-124439285D01*
X147626904Y-124486904D01*
X147579285Y-124582142D01*
X147579285Y-124725000D01*
X147626904Y-124820238D01*
X147960238Y-124391666D02*
X147912619Y-124486904D01*
X147912619Y-124677380D01*
X147960238Y-124772619D01*
X148007857Y-124820238D01*
X148103095Y-124867857D01*
X148388809Y-124867857D01*
X148484047Y-124820238D01*
X148531666Y-124772619D01*
X148579285Y-124677380D01*
X148579285Y-124486904D01*
X148531666Y-124391666D01*
X148579285Y-123915476D02*
X147912619Y-123915476D01*
X148484047Y-123915476D02*
X148531666Y-123867857D01*
X148579285Y-123772619D01*
X148579285Y-123629761D01*
X148531666Y-123534523D01*
X148436428Y-123486904D01*
X147912619Y-123486904D01*
X147960238Y-122629761D02*
X147912619Y-122725000D01*
X147912619Y-122915476D01*
X147960238Y-123010714D01*
X148055476Y-123058333D01*
X148436428Y-123058333D01*
X148531666Y-123010714D01*
X148579285Y-122915476D01*
X148579285Y-122725000D01*
X148531666Y-122629761D01*
X148436428Y-122582142D01*
X148341190Y-122582142D01*
X148245952Y-123058333D01*
X147912619Y-121725000D02*
X148912619Y-121725000D01*
X147960238Y-121725000D02*
X147912619Y-121820238D01*
X147912619Y-122010714D01*
X147960238Y-122105952D01*
X148007857Y-122153571D01*
X148103095Y-122201190D01*
X148388809Y-122201190D01*
X148484047Y-122153571D01*
X148531666Y-122105952D01*
X148579285Y-122010714D01*
X148579285Y-121820238D01*
X148531666Y-121725000D01*
X147912619Y-120486904D02*
X148912619Y-120486904D01*
X148531666Y-120486904D02*
X148579285Y-120391666D01*
X148579285Y-120201190D01*
X148531666Y-120105952D01*
X148484047Y-120058333D01*
X148388809Y-120010714D01*
X148103095Y-120010714D01*
X148007857Y-120058333D01*
X147960238Y-120105952D01*
X147912619Y-120201190D01*
X147912619Y-120391666D01*
X147960238Y-120486904D01*
X148579285Y-119677380D02*
X147912619Y-119439285D01*
X148579285Y-119201190D02*
X147912619Y-119439285D01*
X147674523Y-119534523D01*
X147626904Y-119582142D01*
X147579285Y-119677380D01*
X148007857Y-118820238D02*
X147960238Y-118772619D01*
X147912619Y-118820238D01*
X147960238Y-118867857D01*
X148007857Y-118820238D01*
X147912619Y-118820238D01*
X148531666Y-118820238D02*
X148484047Y-118772619D01*
X148436428Y-118820238D01*
X148484047Y-118867857D01*
X148531666Y-118820238D01*
X148436428Y-118820238D01*
X146826428Y-129820238D02*
X146826428Y-129486904D01*
X146302619Y-129344047D02*
X146302619Y-129820238D01*
X147302619Y-129820238D01*
X147302619Y-129344047D01*
X146969285Y-129010714D02*
X146302619Y-128820238D01*
X146778809Y-128629761D01*
X146302619Y-128439285D01*
X146969285Y-128248809D01*
X146302619Y-127439285D02*
X146826428Y-127439285D01*
X146921666Y-127486904D01*
X146969285Y-127582142D01*
X146969285Y-127772619D01*
X146921666Y-127867857D01*
X146350238Y-127439285D02*
X146302619Y-127534523D01*
X146302619Y-127772619D01*
X146350238Y-127867857D01*
X146445476Y-127915476D01*
X146540714Y-127915476D01*
X146635952Y-127867857D01*
X146683571Y-127772619D01*
X146683571Y-127534523D01*
X146731190Y-127439285D01*
X146969285Y-126963095D02*
X146302619Y-126963095D01*
X146874047Y-126963095D02*
X146921666Y-126915476D01*
X146969285Y-126820238D01*
X146969285Y-126677380D01*
X146921666Y-126582142D01*
X146826428Y-126534523D01*
X146302619Y-126534523D01*
X146397857Y-124725000D02*
X146350238Y-124772619D01*
X146302619Y-124915476D01*
X146302619Y-125010714D01*
X146350238Y-125153571D01*
X146445476Y-125248809D01*
X146540714Y-125296428D01*
X146731190Y-125344047D01*
X146874047Y-125344047D01*
X147064523Y-125296428D01*
X147159761Y-125248809D01*
X147255000Y-125153571D01*
X147302619Y-125010714D01*
X147302619Y-124915476D01*
X147255000Y-124772619D01*
X147207380Y-124725000D01*
X146302619Y-124153571D02*
X146350238Y-124248809D01*
X146397857Y-124296428D01*
X146493095Y-124344047D01*
X146778809Y-124344047D01*
X146874047Y-124296428D01*
X146921666Y-124248809D01*
X146969285Y-124153571D01*
X146969285Y-124010714D01*
X146921666Y-123915476D01*
X146874047Y-123867857D01*
X146778809Y-123820238D01*
X146493095Y-123820238D01*
X146397857Y-123867857D01*
X146350238Y-123915476D01*
X146302619Y-124010714D01*
X146302619Y-124153571D01*
X146302619Y-123248809D02*
X146350238Y-123344047D01*
X146445476Y-123391666D01*
X147302619Y-123391666D01*
X146350238Y-122915476D02*
X146302619Y-122820238D01*
X146302619Y-122629761D01*
X146350238Y-122534523D01*
X146445476Y-122486904D01*
X146493095Y-122486904D01*
X146588333Y-122534523D01*
X146635952Y-122629761D01*
X146635952Y-122772619D01*
X146683571Y-122867857D01*
X146778809Y-122915476D01*
X146826428Y-122915476D01*
X146921666Y-122867857D01*
X146969285Y-122772619D01*
X146969285Y-122629761D01*
X146921666Y-122534523D01*
X146350238Y-121677380D02*
X146302619Y-121772619D01*
X146302619Y-121963095D01*
X146350238Y-122058333D01*
X146445476Y-122105952D01*
X146826428Y-122105952D01*
X146921666Y-122058333D01*
X146969285Y-121963095D01*
X146969285Y-121772619D01*
X146921666Y-121677380D01*
X146826428Y-121629761D01*
X146731190Y-121629761D01*
X146635952Y-122105952D01*
X146302619Y-121058333D02*
X146350238Y-121153571D01*
X146445476Y-121201190D01*
X147302619Y-121201190D01*
X146302619Y-120534523D02*
X146350238Y-120629761D01*
X146445476Y-120677380D01*
X147302619Y-120677380D01*
X145692619Y-134296428D02*
X145692619Y-133725000D01*
X144692619Y-134010714D02*
X145692619Y-134010714D01*
X144692619Y-133248809D02*
X144740238Y-133344047D01*
X144787857Y-133391666D01*
X144883095Y-133439285D01*
X145168809Y-133439285D01*
X145264047Y-133391666D01*
X145311666Y-133344047D01*
X145359285Y-133248809D01*
X145359285Y-133105952D01*
X145311666Y-133010714D01*
X145264047Y-132963095D01*
X145168809Y-132915476D01*
X144883095Y-132915476D01*
X144787857Y-132963095D01*
X144740238Y-133010714D01*
X144692619Y-133105952D01*
X144692619Y-133248809D01*
X144692619Y-132486904D02*
X145359285Y-132486904D01*
X145168809Y-132486904D02*
X145264047Y-132439285D01*
X145311666Y-132391666D01*
X145359285Y-132296428D01*
X145359285Y-132201190D01*
X144692619Y-131867857D02*
X145359285Y-131867857D01*
X145692619Y-131867857D02*
X145645000Y-131915476D01*
X145597380Y-131867857D01*
X145645000Y-131820238D01*
X145692619Y-131867857D01*
X145597380Y-131867857D01*
X145359285Y-131391666D02*
X144692619Y-131391666D01*
X145264047Y-131391666D02*
X145311666Y-131344047D01*
X145359285Y-131248809D01*
X145359285Y-131105952D01*
X145311666Y-131010714D01*
X145216428Y-130963095D01*
X144692619Y-130963095D01*
X144692619Y-130344047D02*
X144740238Y-130439285D01*
X144787857Y-130486904D01*
X144883095Y-130534523D01*
X145168809Y-130534523D01*
X145264047Y-130486904D01*
X145311666Y-130439285D01*
X145359285Y-130344047D01*
X145359285Y-130201190D01*
X145311666Y-130105952D01*
X145264047Y-130058333D01*
X145168809Y-130010714D01*
X144883095Y-130010714D01*
X144787857Y-130058333D01*
X144740238Y-130105952D01*
X144692619Y-130201190D01*
X144692619Y-130344047D01*
X144740238Y-128867857D02*
X144692619Y-128725000D01*
X144692619Y-128486904D01*
X144740238Y-128391666D01*
X144787857Y-128344047D01*
X144883095Y-128296428D01*
X144978333Y-128296428D01*
X145073571Y-128344047D01*
X145121190Y-128391666D01*
X145168809Y-128486904D01*
X145216428Y-128677380D01*
X145264047Y-128772619D01*
X145311666Y-128820238D01*
X145406904Y-128867857D01*
X145502142Y-128867857D01*
X145597380Y-128820238D01*
X145645000Y-128772619D01*
X145692619Y-128677380D01*
X145692619Y-128439285D01*
X145645000Y-128296428D01*
X145359285Y-127963095D02*
X144692619Y-127725000D01*
X145359285Y-127486904D02*
X144692619Y-127725000D01*
X144454523Y-127820238D01*
X144406904Y-127867857D01*
X144359285Y-127963095D01*
X145359285Y-127105952D02*
X144692619Y-127105952D01*
X145264047Y-127105952D02*
X145311666Y-127058333D01*
X145359285Y-126963095D01*
X145359285Y-126820238D01*
X145311666Y-126725000D01*
X145216428Y-126677380D01*
X144692619Y-126677380D01*
X145359285Y-126344047D02*
X145359285Y-125963095D01*
X145692619Y-126201190D02*
X144835476Y-126201190D01*
X144740238Y-126153571D01*
X144692619Y-126058333D01*
X144692619Y-125963095D01*
X144692619Y-125629761D02*
X145692619Y-125629761D01*
X144692619Y-125201190D02*
X145216428Y-125201190D01*
X145311666Y-125248809D01*
X145359285Y-125344047D01*
X145359285Y-125486904D01*
X145311666Y-125582142D01*
X145264047Y-125629761D01*
X144692619Y-123391666D02*
X145168809Y-123725000D01*
X144692619Y-123963095D02*
X145692619Y-123963095D01*
X145692619Y-123582142D01*
X145645000Y-123486904D01*
X145597380Y-123439285D01*
X145502142Y-123391666D01*
X145359285Y-123391666D01*
X145264047Y-123439285D01*
X145216428Y-123486904D01*
X145168809Y-123582142D01*
X145168809Y-123963095D01*
X144740238Y-122582142D02*
X144692619Y-122677380D01*
X144692619Y-122867857D01*
X144740238Y-122963095D01*
X144835476Y-123010714D01*
X145216428Y-123010714D01*
X145311666Y-122963095D01*
X145359285Y-122867857D01*
X145359285Y-122677380D01*
X145311666Y-122582142D01*
X145216428Y-122534523D01*
X145121190Y-122534523D01*
X145025952Y-123010714D01*
X145359285Y-122105952D02*
X144359285Y-122105952D01*
X145311666Y-122105952D02*
X145359285Y-122010714D01*
X145359285Y-121820238D01*
X145311666Y-121725000D01*
X145264047Y-121677380D01*
X145168809Y-121629761D01*
X144883095Y-121629761D01*
X144787857Y-121677380D01*
X144740238Y-121725000D01*
X144692619Y-121820238D01*
X144692619Y-122010714D01*
X144740238Y-122105952D01*
X144692619Y-120772619D02*
X145216428Y-120772619D01*
X145311666Y-120820238D01*
X145359285Y-120915476D01*
X145359285Y-121105952D01*
X145311666Y-121201190D01*
X144740238Y-120772619D02*
X144692619Y-120867857D01*
X144692619Y-121105952D01*
X144740238Y-121201190D01*
X144835476Y-121248809D01*
X144930714Y-121248809D01*
X145025952Y-121201190D01*
X145073571Y-121105952D01*
X145073571Y-120867857D01*
X145121190Y-120772619D01*
X144692619Y-120296428D02*
X145359285Y-120296428D01*
X145692619Y-120296428D02*
X145645000Y-120344047D01*
X145597380Y-120296428D01*
X145645000Y-120248809D01*
X145692619Y-120296428D01*
X145597380Y-120296428D01*
X144692619Y-119820238D02*
X145359285Y-119820238D01*
X145168809Y-119820238D02*
X145264047Y-119772619D01*
X145311666Y-119725000D01*
X145359285Y-119629761D01*
X145359285Y-119534523D01*
X144692619Y-117963095D02*
X144692619Y-118439285D01*
X145692619Y-118439285D01*
X144692619Y-117201190D02*
X145216428Y-117201190D01*
X145311666Y-117248809D01*
X145359285Y-117344047D01*
X145359285Y-117534523D01*
X145311666Y-117629761D01*
X144740238Y-117201190D02*
X144692619Y-117296428D01*
X144692619Y-117534523D01*
X144740238Y-117629761D01*
X144835476Y-117677380D01*
X144930714Y-117677380D01*
X145025952Y-117629761D01*
X145073571Y-117534523D01*
X145073571Y-117296428D01*
X145121190Y-117201190D01*
X144692619Y-116725000D02*
X145692619Y-116725000D01*
X145311666Y-116725000D02*
X145359285Y-116629761D01*
X145359285Y-116439285D01*
X145311666Y-116344047D01*
X145264047Y-116296428D01*
X145168809Y-116248809D01*
X144883095Y-116248809D01*
X144787857Y-116296428D01*
X144740238Y-116344047D01*
X144692619Y-116439285D01*
X144692619Y-116629761D01*
X144740238Y-116725000D01*
X143130238Y-133391666D02*
X143082619Y-133296428D01*
X143082619Y-133105952D01*
X143130238Y-133010714D01*
X143225476Y-132963095D01*
X143273095Y-132963095D01*
X143368333Y-133010714D01*
X143415952Y-133105952D01*
X143415952Y-133248809D01*
X143463571Y-133344047D01*
X143558809Y-133391666D01*
X143606428Y-133391666D01*
X143701666Y-133344047D01*
X143749285Y-133248809D01*
X143749285Y-133105952D01*
X143701666Y-133010714D01*
X143749285Y-132629761D02*
X143082619Y-132391666D01*
X143749285Y-132153571D02*
X143082619Y-132391666D01*
X142844523Y-132486904D01*
X142796904Y-132534523D01*
X142749285Y-132629761D01*
X143749285Y-131772619D02*
X143082619Y-131772619D01*
X143654047Y-131772619D02*
X143701666Y-131725000D01*
X143749285Y-131629761D01*
X143749285Y-131486904D01*
X143701666Y-131391666D01*
X143606428Y-131344047D01*
X143082619Y-131344047D01*
X143749285Y-131010714D02*
X143749285Y-130629761D01*
X144082619Y-130867857D02*
X143225476Y-130867857D01*
X143130238Y-130820238D01*
X143082619Y-130725000D01*
X143082619Y-130629761D01*
X143082619Y-130296428D02*
X144082619Y-130296428D01*
X143082619Y-129867857D02*
X143606428Y-129867857D01*
X143701666Y-129915476D01*
X143749285Y-130010714D01*
X143749285Y-130153571D01*
X143701666Y-130248809D01*
X143654047Y-130296428D01*
X143177857Y-129391666D02*
X143130238Y-129344047D01*
X143082619Y-129391666D01*
X143130238Y-129439285D01*
X143177857Y-129391666D01*
X143082619Y-129391666D01*
X143130238Y-128534523D02*
X143082619Y-128629761D01*
X143082619Y-128820238D01*
X143130238Y-128915476D01*
X143225476Y-128963095D01*
X143606428Y-128963095D01*
X143701666Y-128915476D01*
X143749285Y-128820238D01*
X143749285Y-128629761D01*
X143701666Y-128534523D01*
X143606428Y-128486904D01*
X143511190Y-128486904D01*
X143415952Y-128963095D01*
X143749285Y-128153571D02*
X143082619Y-127963095D01*
X143558809Y-127772619D01*
X143082619Y-127582142D01*
X143749285Y-127391666D01*
X143082619Y-126582142D02*
X143606428Y-126582142D01*
X143701666Y-126629761D01*
X143749285Y-126725000D01*
X143749285Y-126915476D01*
X143701666Y-127010714D01*
X143130238Y-126582142D02*
X143082619Y-126677380D01*
X143082619Y-126915476D01*
X143130238Y-127010714D01*
X143225476Y-127058333D01*
X143320714Y-127058333D01*
X143415952Y-127010714D01*
X143463571Y-126915476D01*
X143463571Y-126677380D01*
X143511190Y-126582142D01*
X143749285Y-126105952D02*
X143082619Y-126105952D01*
X143654047Y-126105952D02*
X143701666Y-126058333D01*
X143749285Y-125963095D01*
X143749285Y-125820238D01*
X143701666Y-125725000D01*
X143606428Y-125677380D01*
X143082619Y-125677380D01*
X143130238Y-124772619D02*
X143082619Y-124867857D01*
X143082619Y-125058333D01*
X143130238Y-125153571D01*
X143177857Y-125201190D01*
X143273095Y-125248809D01*
X143558809Y-125248809D01*
X143654047Y-125201190D01*
X143701666Y-125153571D01*
X143749285Y-125058333D01*
X143749285Y-124867857D01*
X143701666Y-124772619D01*
X143082619Y-124201190D02*
X143130238Y-124296428D01*
X143177857Y-124344047D01*
X143273095Y-124391666D01*
X143558809Y-124391666D01*
X143654047Y-124344047D01*
X143701666Y-124296428D01*
X143749285Y-124201190D01*
X143749285Y-124058333D01*
X143701666Y-123963095D01*
X143654047Y-123915476D01*
X143558809Y-123867857D01*
X143273095Y-123867857D01*
X143177857Y-123915476D01*
X143130238Y-123963095D01*
X143082619Y-124058333D01*
X143082619Y-124201190D01*
X143082619Y-123296428D02*
X143130238Y-123391666D01*
X143225476Y-123439285D01*
X144082619Y-123439285D01*
X143130238Y-122963095D02*
X143082619Y-122867857D01*
X143082619Y-122677380D01*
X143130238Y-122582142D01*
X143225476Y-122534523D01*
X143273095Y-122534523D01*
X143368333Y-122582142D01*
X143415952Y-122677380D01*
X143415952Y-122820238D01*
X143463571Y-122915476D01*
X143558809Y-122963095D01*
X143606428Y-122963095D01*
X143701666Y-122915476D01*
X143749285Y-122820238D01*
X143749285Y-122677380D01*
X143701666Y-122582142D01*
X143130238Y-121725000D02*
X143082619Y-121820238D01*
X143082619Y-122010714D01*
X143130238Y-122105952D01*
X143225476Y-122153571D01*
X143606428Y-122153571D01*
X143701666Y-122105952D01*
X143749285Y-122010714D01*
X143749285Y-121820238D01*
X143701666Y-121725000D01*
X143606428Y-121677380D01*
X143511190Y-121677380D01*
X143415952Y-122153571D01*
X143082619Y-121105952D02*
X143130238Y-121201190D01*
X143225476Y-121248809D01*
X144082619Y-121248809D01*
X143082619Y-120582142D02*
X143130238Y-120677380D01*
X143225476Y-120725000D01*
X144082619Y-120725000D01*
X143177857Y-120201190D02*
X143130238Y-120153571D01*
X143082619Y-120201190D01*
X143130238Y-120248809D01*
X143177857Y-120201190D01*
X143082619Y-120201190D01*
X143130238Y-119296428D02*
X143082619Y-119391666D01*
X143082619Y-119582142D01*
X143130238Y-119677380D01*
X143177857Y-119725000D01*
X143273095Y-119772619D01*
X143558809Y-119772619D01*
X143654047Y-119725000D01*
X143701666Y-119677380D01*
X143749285Y-119582142D01*
X143749285Y-119391666D01*
X143701666Y-119296428D01*
X143082619Y-118725000D02*
X143130238Y-118820238D01*
X143177857Y-118867857D01*
X143273095Y-118915476D01*
X143558809Y-118915476D01*
X143654047Y-118867857D01*
X143701666Y-118820238D01*
X143749285Y-118725000D01*
X143749285Y-118582142D01*
X143701666Y-118486904D01*
X143654047Y-118439285D01*
X143558809Y-118391666D01*
X143273095Y-118391666D01*
X143177857Y-118439285D01*
X143130238Y-118486904D01*
X143082619Y-118582142D01*
X143082619Y-118725000D01*
X143082619Y-117963095D02*
X143749285Y-117963095D01*
X143654047Y-117963095D02*
X143701666Y-117915476D01*
X143749285Y-117820238D01*
X143749285Y-117677380D01*
X143701666Y-117582142D01*
X143606428Y-117534523D01*
X143082619Y-117534523D01*
X143606428Y-117534523D02*
X143701666Y-117486904D01*
X143749285Y-117391666D01*
X143749285Y-117248809D01*
X143701666Y-117153571D01*
X143606428Y-117105952D01*
X143082619Y-117105952D01*
%TO.C,J2*%
X140333333Y-133122380D02*
X140333333Y-133836666D01*
X140380952Y-133979523D01*
X140476190Y-134074761D01*
X140619047Y-134122380D01*
X140714285Y-134122380D01*
X139904761Y-133217619D02*
X139857142Y-133170000D01*
X139761904Y-133122380D01*
X139523809Y-133122380D01*
X139428571Y-133170000D01*
X139380952Y-133217619D01*
X139333333Y-133312857D01*
X139333333Y-133408095D01*
X139380952Y-133550952D01*
X139952380Y-134122380D01*
X139333333Y-134122380D01*
X137958333Y-136021428D02*
X137196428Y-136021428D01*
X136196428Y-136402380D02*
X136767857Y-136402380D01*
X136482142Y-136402380D02*
X136482142Y-135402380D01*
X136577380Y-135545238D01*
X136672619Y-135640476D01*
X136767857Y-135688095D01*
X135577380Y-135402380D02*
X135482142Y-135402380D01*
X135386904Y-135450000D01*
X135339285Y-135497619D01*
X135291666Y-135592857D01*
X135244047Y-135783333D01*
X135244047Y-136021428D01*
X135291666Y-136211904D01*
X135339285Y-136307142D01*
X135386904Y-136354761D01*
X135482142Y-136402380D01*
X135577380Y-136402380D01*
X135672619Y-136354761D01*
X135720238Y-136307142D01*
X135767857Y-136211904D01*
X135815476Y-136021428D01*
X135815476Y-135783333D01*
X135767857Y-135592857D01*
X135720238Y-135497619D01*
X135672619Y-135450000D01*
X135577380Y-135402380D01*
X134958333Y-135402380D02*
X134625000Y-136402380D01*
X134291666Y-135402380D01*
X134196428Y-136497619D02*
X133434523Y-136497619D01*
X133053571Y-136402380D02*
X133148809Y-136354761D01*
X133196428Y-136307142D01*
X133244047Y-136211904D01*
X133244047Y-135926190D01*
X133196428Y-135830952D01*
X133148809Y-135783333D01*
X133053571Y-135735714D01*
X132910714Y-135735714D01*
X132815476Y-135783333D01*
X132767857Y-135830952D01*
X132720238Y-135926190D01*
X132720238Y-136211904D01*
X132767857Y-136307142D01*
X132815476Y-136354761D01*
X132910714Y-136402380D01*
X133053571Y-136402380D01*
X131863095Y-135735714D02*
X131863095Y-136402380D01*
X132291666Y-135735714D02*
X132291666Y-136259523D01*
X132244047Y-136354761D01*
X132148809Y-136402380D01*
X132005952Y-136402380D01*
X131910714Y-136354761D01*
X131863095Y-136307142D01*
X131529761Y-135735714D02*
X131148809Y-135735714D01*
X131386904Y-135402380D02*
X131386904Y-136259523D01*
X131339285Y-136354761D01*
X131244047Y-136402380D01*
X131148809Y-136402380D01*
%TO.C,J1*%
X141333333Y-117122380D02*
X141333333Y-117836666D01*
X141380952Y-117979523D01*
X141476190Y-118074761D01*
X141619047Y-118122380D01*
X141714285Y-118122380D01*
X140333333Y-118122380D02*
X140904761Y-118122380D01*
X140619047Y-118122380D02*
X140619047Y-117122380D01*
X140714285Y-117265238D01*
X140809523Y-117360476D01*
X140904761Y-117408095D01*
X138317857Y-120502380D02*
X138889285Y-120502380D01*
X138603571Y-120502380D02*
X138603571Y-119502380D01*
X138698809Y-119645238D01*
X138794047Y-119740476D01*
X138889285Y-119788095D01*
X137936904Y-119597619D02*
X137889285Y-119550000D01*
X137794047Y-119502380D01*
X137555952Y-119502380D01*
X137460714Y-119550000D01*
X137413095Y-119597619D01*
X137365476Y-119692857D01*
X137365476Y-119788095D01*
X137413095Y-119930952D01*
X137984523Y-120502380D01*
X137365476Y-120502380D01*
X137032142Y-119835714D02*
X136794047Y-120502380D01*
X136555952Y-119835714D01*
X136413095Y-120597619D02*
X135651190Y-120597619D01*
X135413095Y-120502380D02*
X135413095Y-119835714D01*
X135413095Y-119502380D02*
X135460714Y-119550000D01*
X135413095Y-119597619D01*
X135365476Y-119550000D01*
X135413095Y-119502380D01*
X135413095Y-119597619D01*
X134936904Y-119835714D02*
X134936904Y-120502380D01*
X134936904Y-119930952D02*
X134889285Y-119883333D01*
X134794047Y-119835714D01*
X134651190Y-119835714D01*
X134555952Y-119883333D01*
X134508333Y-119978571D01*
X134508333Y-120502380D01*
%TO.C,J3*%
X140333333Y-127122380D02*
X140333333Y-127836666D01*
X140380952Y-127979523D01*
X140476190Y-128074761D01*
X140619047Y-128122380D01*
X140714285Y-128122380D01*
X139952380Y-127122380D02*
X139333333Y-127122380D01*
X139666666Y-127503333D01*
X139523809Y-127503333D01*
X139428571Y-127550952D01*
X139380952Y-127598571D01*
X139333333Y-127693809D01*
X139333333Y-127931904D01*
X139380952Y-128027142D01*
X139428571Y-128074761D01*
X139523809Y-128122380D01*
X139809523Y-128122380D01*
X139904761Y-128074761D01*
X139952380Y-128027142D01*
X137361904Y-129425000D02*
X137457142Y-129377380D01*
X137600000Y-129377380D01*
X137742857Y-129425000D01*
X137838095Y-129520238D01*
X137885714Y-129615476D01*
X137933333Y-129805952D01*
X137933333Y-129948809D01*
X137885714Y-130139285D01*
X137838095Y-130234523D01*
X137742857Y-130329761D01*
X137600000Y-130377380D01*
X137504761Y-130377380D01*
X137361904Y-130329761D01*
X137314285Y-130282142D01*
X137314285Y-129948809D01*
X137504761Y-129948809D01*
X136885714Y-130377380D02*
X136885714Y-129377380D01*
X136314285Y-130377380D01*
X136314285Y-129377380D01*
X135838095Y-130377380D02*
X135838095Y-129377380D01*
X135600000Y-129377380D01*
X135457142Y-129425000D01*
X135361904Y-129520238D01*
X135314285Y-129615476D01*
X135266666Y-129805952D01*
X135266666Y-129948809D01*
X135314285Y-130139285D01*
X135361904Y-130234523D01*
X135457142Y-130329761D01*
X135600000Y-130377380D01*
X135838095Y-130377380D01*
D12*
%TO.C,J2*%
X141330000Y-134670000D02*
X140000000Y-134670000D01*
X138670000Y-137270000D02*
X138670000Y-137330000D01*
X141330000Y-137330000D02*
X138670000Y-137330000D01*
X141330000Y-137270000D02*
X141330000Y-137330000D01*
X141330000Y-136000000D02*
X141330000Y-134670000D01*
X141330000Y-137270000D02*
X138670000Y-137270000D01*
%TO.C,J1*%
X142330000Y-121330000D02*
X139670000Y-121330000D01*
X139670000Y-121270000D02*
X139670000Y-121330000D01*
X142330000Y-120000000D02*
X142330000Y-118670000D01*
X142330000Y-118670000D02*
X141000000Y-118670000D01*
X142330000Y-121270000D02*
X142330000Y-121330000D01*
X142330000Y-121270000D02*
X139670000Y-121270000D01*
%TO.C,J3*%
X141330000Y-131330000D02*
X138670000Y-131330000D01*
X141330000Y-128670000D02*
X140000000Y-128670000D01*
X138670000Y-131270000D02*
X138670000Y-131330000D01*
X141330000Y-131270000D02*
X141330000Y-131330000D01*
X141330000Y-130000000D02*
X141330000Y-128670000D01*
X141330000Y-131270000D02*
X138670000Y-131270000D01*
%TD*%
M02*
