%TF.GenerationSoftware,KiCad,Pcbnew,(6.0.7-1)-1*%
%TF.CreationDate,2022-11-04T13:47:20+01:00*%
%TF.ProjectId,tr707minus10v_kicad,74723730-376d-4696-9e75-733130765f6b,rev?*%
%TF.SameCoordinates,Original*%
%TF.FileFunction,Copper,L1,Top*%
%TF.FilePolarity,Positive*%
%FSLAX46Y46*%
G04 Gerber Fmt 4.6, Leading zero omitted, Abs format (unit mm)*
G04 Created by KiCad (PCBNEW (6.0.7-1)-1) date 2022-11-04 13:47:20*
%MOMM*%
%LPD*%
G01*
G04 APERTURE LIST*
G04 Aperture macros list*
%AMRoundRect*
0 Rectangle with rounded corners*
0 $1 Rounding radius*
0 $2 $3 $4 $5 $6 $7 $8 $9 X,Y pos of 4 corners*
0 Add a 4 corners polygon primitive as box body*
4,1,4,$2,$3,$4,$5,$6,$7,$8,$9,$2,$3,0*
0 Add four circle primitives for the rounded corners*
1,1,$1+$1,$2,$3*
1,1,$1+$1,$4,$5*
1,1,$1+$1,$6,$7*
1,1,$1+$1,$8,$9*
0 Add four rect primitives between the rounded corners*
20,1,$1+$1,$2,$3,$4,$5,0*
20,1,$1+$1,$4,$5,$6,$7,0*
20,1,$1+$1,$6,$7,$8,$9,0*
20,1,$1+$1,$8,$9,$2,$3,0*%
%AMFreePoly0*
4,1,20,0.000000,0.744959,0.073905,0.744508,0.209726,0.703889,0.328688,0.626782,0.421226,0.519385,0.479903,0.390333,0.500000,0.250000,0.500000,-0.250000,0.499851,-0.262216,0.476331,-0.402017,0.414519,-0.529596,0.319384,-0.634700,0.198574,-0.708877,0.061801,-0.746166,0.000000,-0.745033,0.000000,-0.750000,-0.500000,-0.750000,-0.500000,0.750000,0.000000,0.750000,0.000000,0.744959,
0.000000,0.744959,$1*%
%AMFreePoly1*
4,1,22,0.500000,-0.750000,0.000000,-0.750000,0.000000,-0.745033,-0.079941,-0.743568,-0.215256,-0.701293,-0.333266,-0.622738,-0.424486,-0.514219,-0.481581,-0.384460,-0.499164,-0.250000,-0.500000,-0.250000,-0.500000,0.250000,-0.499164,0.250000,-0.499963,0.256109,-0.478152,0.396186,-0.417904,0.524511,-0.324060,0.630769,-0.204165,0.706417,-0.067858,0.745374,0.000000,0.744959,0.000000,0.750000,
0.500000,0.750000,0.500000,-0.750000,0.500000,-0.750000,$1*%
G04 Aperture macros list end*
%TA.AperFunction,SMDPad,CuDef*%
%ADD10FreePoly0,270.000000*%
%TD*%
%TA.AperFunction,SMDPad,CuDef*%
%ADD11FreePoly1,270.000000*%
%TD*%
%TA.AperFunction,SMDPad,CuDef*%
%ADD12RoundRect,0.250000X-0.550000X1.500000X-0.550000X-1.500000X0.550000X-1.500000X0.550000X1.500000X0*%
%TD*%
%TA.AperFunction,SMDPad,CuDef*%
%ADD13RoundRect,0.250000X-1.750000X-1.000000X1.750000X-1.000000X1.750000X1.000000X-1.750000X1.000000X0*%
%TD*%
%TA.AperFunction,SMDPad,CuDef*%
%ADD14RoundRect,0.250000X-0.650000X0.412500X-0.650000X-0.412500X0.650000X-0.412500X0.650000X0.412500X0*%
%TD*%
%TA.AperFunction,SMDPad,CuDef*%
%ADD15RoundRect,0.150000X-0.150000X0.825000X-0.150000X-0.825000X0.150000X-0.825000X0.150000X0.825000X0*%
%TD*%
%TA.AperFunction,ComponentPad*%
%ADD16C,2.000000*%
%TD*%
%TA.AperFunction,ComponentPad*%
%ADD17R,2.000000X2.000000*%
%TD*%
%TA.AperFunction,ComponentPad*%
%ADD18R,1.700000X1.700000*%
%TD*%
%TA.AperFunction,ViaPad*%
%ADD19C,0.800000*%
%TD*%
%TA.AperFunction,Conductor*%
%ADD20C,1.000000*%
%TD*%
G04 APERTURE END LIST*
%TO.C,JP1*%
G36*
X5800000Y6400000D02*
G01*
X5200000Y6400000D01*
X5200000Y6900000D01*
X5800000Y6900000D01*
X5800000Y6400000D01*
G37*
%TD*%
D10*
%TO.P,JP1,2,B*%
%TO.N,Net-(U1-Pad5)*%
X5500000Y6000000D03*
D11*
%TO.P,JP1,1,A*%
%TO.N,-10V*%
X5500000Y7300000D03*
%TD*%
D12*
%TO.P,C7,2*%
%TO.N,Net-(C7-Pad2)*%
X16500000Y17300000D03*
%TO.P,C7,1*%
%TO.N,Net-(C7-Pad1)*%
X16500000Y22700000D03*
%TD*%
D13*
%TO.P,C3,2*%
%TO.N,-10V*%
X32000000Y33500000D03*
%TO.P,C3,1*%
%TO.N,GND*%
X24000000Y33500000D03*
%TD*%
D12*
%TO.P,C6,2*%
%TO.N,Net-(C6-Pad2)*%
X9000000Y17300000D03*
%TO.P,C6,1*%
%TO.N,Net-(C6-Pad1)*%
X9000000Y22700000D03*
%TD*%
D14*
%TO.P,C4,2*%
%TO.N,GND*%
X22500000Y18937500D03*
%TO.P,C4,1*%
%TO.N,-10V*%
X22500000Y22062500D03*
%TD*%
D15*
%TO.P,U2,8,V+*%
%TO.N,+12V*%
X19405000Y8525000D03*
%TO.P,U2,7,OSC*%
%TO.N,unconnected-(U2-Pad7)*%
X18135000Y8525000D03*
%TO.P,U2,6,LV*%
%TO.N,unconnected-(U2-Pad6)*%
X16865000Y8525000D03*
%TO.P,U2,5,VOUT*%
%TO.N,-10V*%
X15595000Y8525000D03*
%TO.P,U2,4,CAP-*%
%TO.N,Net-(C7-Pad2)*%
X15595000Y13475000D03*
%TO.P,U2,3,GND*%
%TO.N,GND*%
X16865000Y13475000D03*
%TO.P,U2,2,CAP+*%
%TO.N,Net-(C7-Pad1)*%
X18135000Y13475000D03*
%TO.P,U2,1,NC*%
%TO.N,unconnected-(U2-Pad1)*%
X19405000Y13475000D03*
%TD*%
%TO.P,U1,8,V+*%
%TO.N,+12V*%
X11905000Y8525000D03*
%TO.P,U1,7,OSC*%
%TO.N,unconnected-(U1-Pad7)*%
X10635000Y8525000D03*
%TO.P,U1,6,LV*%
%TO.N,unconnected-(U1-Pad6)*%
X9365000Y8525000D03*
%TO.P,U1,5,VOUT*%
%TO.N,Net-(U1-Pad5)*%
X8095000Y8525000D03*
%TO.P,U1,4,CAP-*%
%TO.N,Net-(C6-Pad2)*%
X8095000Y13475000D03*
%TO.P,U1,3,GND*%
%TO.N,GND*%
X9365000Y13475000D03*
%TO.P,U1,2,CAP+*%
%TO.N,Net-(C6-Pad1)*%
X10635000Y13475000D03*
%TO.P,U1,1,NC*%
%TO.N,unconnected-(U1-Pad1)*%
X11905000Y13475000D03*
%TD*%
D16*
%TO.P,C5,2*%
%TO.N,-10V*%
X36550000Y15107562D03*
D17*
%TO.P,C5,1*%
%TO.N,GND*%
X36550000Y10107562D03*
%TD*%
D14*
%TO.P,C1,2*%
%TO.N,GND*%
X25500000Y18937500D03*
%TO.P,C1,1*%
%TO.N,+12V*%
X25500000Y22062500D03*
%TD*%
D12*
%TO.P,C2,2*%
%TO.N,GND*%
X30500000Y19800000D03*
%TO.P,C2,1*%
%TO.N,+12V*%
X30500000Y25200000D03*
%TD*%
D18*
%TO.P,J1,1,Pin_1*%
%TO.N,-10V*%
X22595000Y9905000D03*
%TD*%
%TO.P,J3,1,Pin_1*%
%TO.N,-10V*%
X27595000Y9905000D03*
%TD*%
%TO.P,J4,1,Pin_1*%
%TO.N,unconnected-(J4-Pad1)*%
X27595000Y15405000D03*
%TD*%
%TO.P,J5,1,Pin_1*%
%TO.N,+12V*%
X25000000Y26000000D03*
%TD*%
%TO.P,J2,1,Pin_1*%
%TO.N,GND*%
X22595000Y15405000D03*
%TD*%
D19*
%TO.N,GND*%
X3500000Y7000000D03*
X23000000Y14000000D03*
X24000000Y15000000D03*
X31000000Y22500000D03*
X36000000Y6000000D03*
X18000000Y27000000D03*
X5000000Y25000000D03*
X22500000Y20500000D03*
X37000000Y12000000D03*
X25500000Y20500000D03*
X22000000Y14000000D03*
X22500000Y31500000D03*
X19000000Y40000000D03*
X16580991Y11609164D03*
X36000000Y12000000D03*
X24000000Y31500000D03*
X35000000Y39000000D03*
X8117314Y11807532D03*
%TD*%
D20*
%TO.N,-10V*%
X19632953Y11525705D02*
X20263834Y12156601D01*
X5513255Y7882953D02*
G75*
G02*
X5550666Y8038747I1008345J-159753D01*
G01*
X33460525Y32039473D02*
G75*
G03*
X33367372Y32131572I-8155525J-8155673D01*
G01*
X5550664Y8038748D02*
G75*
G02*
X5611987Y8186770I970736J-315448D01*
G01*
X36155458Y28503461D02*
G75*
G03*
X36007620Y28904184I-5173358J-1680961D01*
G01*
X5771104Y8417050D02*
G75*
G02*
X5827676Y8474125I6488796J-6375050D01*
G01*
X21968750Y22062480D02*
G75*
G02*
X21061850Y22438152I50J1282620D01*
G01*
X27838379Y31548848D02*
G75*
G02*
X30545310Y32670083I2706921J-2706948D01*
G01*
X35620098Y29664735D02*
G75*
G03*
X35382800Y30019876I-4637498J-2841835D01*
G01*
X7521612Y10168083D02*
G75*
G02*
X8300741Y10490793I779088J-779083D01*
G01*
X32764797Y32517958D02*
G75*
G03*
X32517251Y32601985I-764797J-1846458D01*
G01*
X33367372Y32131572D02*
G75*
G03*
X33268571Y32217231I-765172J-782772D01*
G01*
X15542897Y8577105D02*
G75*
G02*
X15490793Y8702893I125803J125795D01*
G01*
X20667855Y23605226D02*
G75*
G02*
X21214522Y24924974I1866445J-26D01*
G01*
X35828804Y29292074D02*
G75*
G03*
X35620099Y29664736I-4846704J-2469574D01*
G01*
X36354718Y27673455D02*
G75*
G03*
X36271393Y28092373I-5372918J-850955D01*
G01*
X36007623Y28904185D02*
G75*
G03*
X35828801Y29292073I-5025323J-2081585D01*
G01*
X28948771Y9905036D02*
G75*
G03*
X32796527Y11498793I29J5441564D01*
G01*
X36422617Y26929363D02*
G75*
G03*
X36413307Y27142765I-3056917J-26463D01*
G01*
X33216614Y32257101D02*
G75*
G03*
X32999253Y32402335I-1216714J-1585701D01*
G01*
X20263847Y12156588D02*
G75*
G03*
X20667865Y13132033I-975447J975412D01*
G01*
X31999999Y32670086D02*
G75*
G02*
X32260857Y32652986I1J-1998186D01*
G01*
X32517250Y32601983D02*
G75*
G03*
X32260857Y32652986I-517250J-1930283D01*
G01*
X36423538Y26715632D02*
G75*
G03*
X36422615Y26929363I-24772838J-132D01*
G01*
X20667875Y22287921D02*
G75*
G02*
X21052682Y22447318I225425J-21D01*
G01*
X21052660Y22447296D02*
G75*
G02*
X20667865Y23376350I929040J929004D01*
G01*
X34904656Y30594039D02*
G75*
G03*
X34754178Y30745822I-17693656J-17391039D01*
G01*
X5611983Y8186771D02*
G75*
G02*
X5695707Y8323378I909517J-463471D01*
G01*
X5719323Y8355882D02*
G75*
G02*
X5771104Y8417050I437877J-318182D01*
G01*
X34829726Y13532030D02*
G75*
G03*
X36423538Y17379767I-3847726J3847770D01*
G01*
X36404921Y27249294D02*
G75*
G03*
X36354721Y27673456I-5423221J-426794D01*
G01*
X14560000Y10490793D02*
G75*
G02*
X15490793Y9560000I0J-930793D01*
G01*
X15490807Y9560000D02*
G75*
G02*
X16421586Y10490793I930793J0D01*
G01*
X36271392Y28092373D02*
G75*
G03*
X36155454Y28503460I-5289792J-1269973D01*
G01*
X35382799Y30019875D02*
G75*
G03*
X35118371Y30355303I-4401099J-3197575D01*
G01*
X35048969Y30436558D02*
G75*
G03*
X34904656Y30594039I-2324369J-1985158D01*
G01*
X17134454Y10490825D02*
G75*
G03*
X19632952Y11525706I46J3533375D01*
G01*
X32999255Y32402338D02*
G75*
G03*
X32764796Y32517955I-999055J-1730438D01*
G01*
X5500341Y7763404D02*
G75*
G02*
X5506970Y7843270I539859J-4604D01*
G01*
X5500001Y7683044D02*
G75*
G02*
X5500343Y7763404I9386499J256D01*
G01*
X20667865Y22287921D02*
X20667865Y23376350D01*
X14560000Y10490793D02*
X16421586Y10490793D01*
X20667865Y13132033D02*
X20667865Y22287921D01*
X21968750Y22062500D02*
X22500000Y22062500D01*
X20667865Y23605226D02*
X20667865Y23376350D01*
X21061849Y22438151D02*
X21052682Y22447318D01*
X16421586Y10490793D02*
X17134454Y10490793D01*
X8300741Y10490793D02*
X14560000Y10490793D01*
X15490793Y8702893D02*
X15490793Y9560000D01*
X15542896Y8577104D02*
X15595000Y8525000D01*
X5500000Y7683044D02*
X5500000Y7300000D01*
X5513256Y7882953D02*
X5506970Y7843270D01*
X35118371Y30355303D02*
X35048971Y30436560D01*
X36423538Y26715632D02*
X36423538Y17379767D01*
X32796527Y11498793D02*
X34829745Y13532011D01*
X5695707Y8323378D02*
X5719324Y8355881D01*
X5827676Y8474125D02*
X7521623Y10168072D01*
X27838387Y31548840D02*
X21214522Y24924974D01*
X30545310Y32670083D02*
X31999999Y32670083D01*
X33268571Y32217231D02*
X33216613Y32257100D01*
X28948771Y9905000D02*
X22595000Y9905000D01*
X33460526Y32039474D02*
X34754178Y30745822D01*
X36413308Y27142765D02*
X36404924Y27249294D01*
%TO.N,Net-(U1-Pad5)*%
X6000000Y5999999D02*
G75*
G03*
X6853553Y6353554I0J1207101D01*
G01*
%TO.N,+12V*%
X30147498Y25552498D02*
G75*
G02*
X30147498Y24847502I-352498J-352498D01*
G01*
X19405013Y8965000D02*
G75*
G02*
X19716127Y9716127I1062287J0D01*
G01*
X23177817Y12899991D02*
G75*
G03*
X22703553Y12703554I-17J-670691D01*
G01*
X26594995Y17595006D02*
G75*
G03*
X26045000Y16267183I1327805J-1327806D01*
G01*
X26896875Y22062514D02*
G75*
G03*
X27691745Y22391748I25J1124086D01*
G01*
X25494988Y14939377D02*
G75*
G03*
X26045000Y16267183I-1327788J1327823D01*
G01*
X23652071Y13096457D02*
G75*
G02*
X23177817Y12900000I-474271J474243D01*
G01*
X27362494Y19294114D02*
G75*
G02*
X26703750Y17703750I-2249094J-14D01*
G01*
X29296489Y25904995D02*
G75*
G02*
X30147499Y25552499I11J-1203495D01*
G01*
X19917490Y7876878D02*
G75*
G03*
X19821600Y8108400I-327390J22D01*
G01*
X19716126Y9716128D02*
X22703553Y12703554D01*
X19405000Y8965000D02*
X19405000Y8525000D01*
X26703750Y17703750D02*
X26595000Y17595001D01*
X25494999Y14939366D02*
X23652081Y13096447D01*
X27362500Y21131250D02*
X27362500Y19294114D01*
X27691746Y22391747D02*
X30147499Y24847501D01*
X26896875Y22062500D02*
X26431250Y22062500D01*
X29296489Y25905000D02*
X24595000Y25905000D01*
%TO.N,Net-(C7-Pad1)*%
X17317500Y21882500D02*
X16500000Y22700000D01*
X18135000Y19908881D02*
X18135000Y13475000D01*
X17317506Y21882506D02*
G75*
G02*
X18135000Y19908881I-1973606J-1973606D01*
G01*
%TO.N,GND*%
X30500000Y21646447D02*
X30500000Y19800000D01*
X31000000Y22500000D02*
X30750000Y22250000D01*
X30500023Y21646447D02*
G75*
G02*
X30750001Y22249999I853477J53D01*
G01*
%TO.N,Net-(C7-Pad2)*%
X15595000Y15755069D02*
X15595000Y13475000D01*
X16047500Y16847500D02*
X16500000Y17300000D01*
X15595014Y15755069D02*
G75*
G02*
X16047501Y16847499I1544886J31D01*
G01*
%TO.N,+12V*%
X12410581Y6589419D02*
X12452500Y6547500D01*
X26431250Y22062500D02*
X25500000Y22062500D01*
X19530359Y6530360D02*
X19458750Y6458750D01*
X19821600Y8108400D02*
X19725701Y8204299D01*
X11905000Y7810000D02*
X11905000Y8525000D01*
X18351229Y6000000D02*
X13774281Y6000000D01*
X19917500Y7876878D02*
X19917500Y7465000D01*
X26431250Y22062455D02*
G75*
G03*
X28020993Y22720994I-50J2248245D01*
G01*
X12452505Y6547505D02*
G75*
G03*
X13774281Y6000000I1321795J1321795D01*
G01*
X19458741Y6458759D02*
G75*
G02*
X18351229Y6000000I-1107541J1107541D01*
G01*
X26431250Y22062500D02*
G75*
G02*
X27362500Y21131250I50J-931200D01*
G01*
X12410573Y6589411D02*
G75*
G02*
X11905000Y7810000I1220627J1220589D01*
G01*
X19530363Y6530356D02*
G75*
G03*
X19917500Y7465000I-934663J934644D01*
G01*
X28020976Y22721011D02*
G75*
G03*
X27362500Y21131250I1589724J-1589711D01*
G01*
%TO.N,Net-(U1-Pad5)*%
X6000000Y6000000D02*
X5500000Y6000000D01*
X6853553Y6353554D02*
X8000000Y7500000D01*
%TO.N,Net-(C6-Pad2)*%
X8547500Y16847500D02*
X9000000Y17300000D01*
X8095000Y15755069D02*
X8095000Y13475000D01*
X8095014Y15755069D02*
G75*
G02*
X8547501Y16847499I1544886J31D01*
G01*
%TO.N,Net-(C6-Pad1)*%
X9817500Y21882500D02*
X9000000Y22700000D01*
X10635000Y19908881D02*
X10635000Y13475000D01*
X10634991Y19908881D02*
G75*
G03*
X9817499Y21882499I-2791091J19D01*
G01*
%TD*%
%TA.AperFunction,Conductor*%
%TO.N,GND*%
G36*
X36055804Y41575787D02*
G01*
X36070637Y41573477D01*
X36070641Y41573477D01*
X36079510Y41572096D01*
X36094766Y41574091D01*
X36120089Y41574834D01*
X36211731Y41568281D01*
X36289056Y41562751D01*
X36306852Y41560193D01*
X36497187Y41518789D01*
X36514436Y41513724D01*
X36696935Y41445656D01*
X36713288Y41438188D01*
X36884247Y41344839D01*
X36899370Y41335120D01*
X37008164Y41253679D01*
X37055302Y41218392D01*
X37068889Y41206618D01*
X37206615Y41068892D01*
X37218388Y41055306D01*
X37335117Y40899374D01*
X37344836Y40884251D01*
X37438187Y40713293D01*
X37445653Y40696946D01*
X37476481Y40614292D01*
X37513723Y40514440D01*
X37518788Y40497191D01*
X37560192Y40306856D01*
X37562750Y40289061D01*
X37574325Y40127215D01*
X37573572Y40109109D01*
X37573472Y40100940D01*
X37572090Y40092066D01*
X37573254Y40083163D01*
X37573254Y40083161D01*
X37576339Y40059564D01*
X37577401Y40043597D01*
X37613115Y27773410D01*
X37593312Y27705231D01*
X37539792Y27658582D01*
X37469547Y27648274D01*
X37404881Y27677579D01*
X37366324Y27737193D01*
X37362422Y27754950D01*
X37361883Y27758670D01*
X37360642Y27772781D01*
X37359773Y27800444D01*
X37359773Y27800449D01*
X37359662Y27803967D01*
X37358818Y27809824D01*
X37355626Y27831978D01*
X37344056Y27876396D01*
X37341810Y27886807D01*
X37341500Y27888616D01*
X37327897Y27967781D01*
X37322905Y27996838D01*
X37322899Y27996872D01*
X37322759Y27997685D01*
X37309475Y28064472D01*
X37289983Y28162464D01*
X37289982Y28162469D01*
X37289824Y28163263D01*
X37287950Y28171548D01*
X37272466Y28239979D01*
X37268766Y28256332D01*
X37266420Y28270312D01*
X37263383Y28297825D01*
X37263382Y28297830D01*
X37262996Y28301328D01*
X37256775Y28328934D01*
X37256773Y28328943D01*
X37241772Y28372262D01*
X37238712Y28382478D01*
X37228019Y28424583D01*
X37211009Y28491559D01*
X37165184Y28654042D01*
X37164943Y28654817D01*
X37164920Y28654896D01*
X37136887Y28745176D01*
X37133454Y28758916D01*
X37127606Y28789575D01*
X37119238Y28816607D01*
X37119235Y28816618D01*
X37100891Y28858605D01*
X37097039Y28868548D01*
X37061126Y28974344D01*
X37061124Y28974350D01*
X37060854Y28975145D01*
X37002420Y29133534D01*
X36996903Y29147363D01*
X36967060Y29222163D01*
X36962557Y29235603D01*
X36955255Y29262291D01*
X36955252Y29262299D01*
X36954321Y29265703D01*
X36943858Y29291995D01*
X36922275Y29332415D01*
X36917661Y29342012D01*
X36873541Y29444704D01*
X36873539Y29444708D01*
X36873220Y29445451D01*
X36872896Y29446154D01*
X36872879Y29446192D01*
X36802868Y29598055D01*
X36802859Y29598073D01*
X36802539Y29598768D01*
X36760331Y29684354D01*
X36754797Y29697375D01*
X36744219Y29726756D01*
X36731725Y29752146D01*
X36729835Y29755101D01*
X36729829Y29755112D01*
X36707043Y29790741D01*
X36701683Y29799958D01*
X36691236Y29819813D01*
X36649263Y29899589D01*
X36648855Y29900318D01*
X36567165Y30046183D01*
X36567155Y30046200D01*
X36566771Y30046886D01*
X36517988Y30128880D01*
X36511444Y30141437D01*
X36498597Y30169890D01*
X36498592Y30169898D01*
X36498590Y30169903D01*
X36484142Y30194235D01*
X36456481Y30230809D01*
X36450415Y30239578D01*
X36390807Y30334050D01*
X36390794Y30334070D01*
X36390370Y30334742D01*
X36296575Y30475116D01*
X36241506Y30553037D01*
X36233989Y30565054D01*
X36218951Y30592408D01*
X36202639Y30615531D01*
X36172189Y30649827D01*
X36165455Y30658091D01*
X36098620Y30747594D01*
X36098131Y30748249D01*
X35993615Y30880828D01*
X35932594Y30954199D01*
X35924158Y30965590D01*
X35907031Y30991663D01*
X35904786Y30994368D01*
X35904781Y30994374D01*
X35891208Y31010723D01*
X35888956Y31013436D01*
X35865834Y31035687D01*
X35847899Y31057290D01*
X35837633Y31072918D01*
X35835394Y31075616D01*
X35835388Y31075623D01*
X35821812Y31091975D01*
X35819558Y31094690D01*
X35784852Y31128089D01*
X35777372Y31135935D01*
X35754222Y31162410D01*
X35753707Y31162999D01*
X35729357Y31189571D01*
X35690172Y31232330D01*
X35689715Y31232829D01*
X35676114Y31246994D01*
X35666777Y31257900D01*
X35648055Y31282472D01*
X35646951Y31283921D01*
X35646934Y31283939D01*
X35646930Y31283944D01*
X35627378Y31304400D01*
X35593299Y31332888D01*
X35584384Y31341102D01*
X35571905Y31353762D01*
X35571869Y31353798D01*
X35519671Y31406450D01*
X35518266Y31407859D01*
X35507928Y31419603D01*
X35492637Y31439316D01*
X35490481Y31442096D01*
X35488033Y31444613D01*
X35488029Y31444618D01*
X35479716Y31453166D01*
X35470753Y31462383D01*
X35453436Y31476608D01*
X35436869Y31490216D01*
X35427751Y31498484D01*
X34585093Y32341141D01*
X35838398Y32341141D01*
X36193365Y31986174D01*
X36548334Y32341142D01*
X36193366Y32696110D01*
X35838398Y32341141D01*
X34585093Y32341141D01*
X34545405Y32380829D01*
X34511380Y32443142D01*
X34508500Y32469925D01*
X34508500Y33582975D01*
X35306500Y33582975D01*
X35306500Y32937785D01*
X35629095Y33260380D01*
X35306500Y33582975D01*
X34508500Y33582975D01*
X34508500Y34179619D01*
X35838398Y34179619D01*
X36193365Y33824652D01*
X36548334Y34179620D01*
X36193366Y34534588D01*
X35838398Y34179619D01*
X34508500Y34179619D01*
X34508500Y34550400D01*
X34508163Y34553650D01*
X34498238Y34649308D01*
X34498237Y34649312D01*
X34497526Y34656166D01*
X34441550Y34823946D01*
X34348478Y34974348D01*
X34223303Y35099305D01*
X34158124Y35139482D01*
X34078968Y35188275D01*
X34078966Y35188276D01*
X34072738Y35192115D01*
X33992995Y35218564D01*
X33911389Y35245632D01*
X33911387Y35245632D01*
X33904861Y35247797D01*
X33898025Y35248497D01*
X33898022Y35248498D01*
X33854969Y35252909D01*
X33800400Y35258500D01*
X30199600Y35258500D01*
X30196354Y35258163D01*
X30196350Y35258163D01*
X30100692Y35248238D01*
X30100688Y35248237D01*
X30093834Y35247526D01*
X30087298Y35245345D01*
X30087296Y35245345D01*
X30070928Y35239884D01*
X29926054Y35191550D01*
X29775652Y35098478D01*
X29650695Y34973303D01*
X29646855Y34967073D01*
X29646854Y34967072D01*
X29571349Y34844580D01*
X29557885Y34822738D01*
X29502203Y34654861D01*
X29491500Y34550400D01*
X29491500Y33665436D01*
X29471498Y33597315D01*
X29417842Y33550822D01*
X29399701Y33544167D01*
X29232841Y33497108D01*
X29049546Y33445414D01*
X28692970Y33313867D01*
X28690735Y33312837D01*
X28690731Y33312835D01*
X28542129Y33244329D01*
X28347815Y33154750D01*
X28345676Y33153552D01*
X28345666Y33153547D01*
X28130604Y33033107D01*
X28016208Y32969043D01*
X28014156Y32967672D01*
X28014148Y32967667D01*
X27920976Y32905412D01*
X27700193Y32757891D01*
X27401719Y32522595D01*
X27163053Y32301977D01*
X27154788Y32294974D01*
X27142110Y32285140D01*
X27121823Y32265411D01*
X27119594Y32262698D01*
X27119589Y32262692D01*
X27093985Y32231521D01*
X27085716Y32222403D01*
X20552126Y25688812D01*
X20540258Y25678348D01*
X20518240Y25661269D01*
X20497953Y25641541D01*
X20495725Y25638829D01*
X20495718Y25638821D01*
X20481474Y25621480D01*
X20477471Y25616842D01*
X20418251Y25551502D01*
X20309258Y25431246D01*
X20307414Y25428760D01*
X20307411Y25428756D01*
X20243216Y25342199D01*
X20140992Y25204366D01*
X20139403Y25201716D01*
X20139403Y25201715D01*
X20136855Y25197464D01*
X19995773Y24962085D01*
X19875001Y24706737D01*
X19873960Y24703829D01*
X19873958Y24703823D01*
X19806678Y24515791D01*
X19779838Y24440781D01*
X19779088Y24437785D01*
X19779086Y24437780D01*
X19725464Y24223715D01*
X19711202Y24166779D01*
X19669752Y23887368D01*
X19669601Y23884285D01*
X19669600Y23884280D01*
X19659042Y23669421D01*
X19658201Y23659819D01*
X19654880Y23633535D01*
X19654485Y23605240D01*
X19654827Y23601753D01*
X19654827Y23601750D01*
X19658764Y23561593D01*
X19659365Y23549299D01*
X19659365Y23448098D01*
X19658371Y23432301D01*
X19654881Y23404684D01*
X19654485Y23376389D01*
X19654829Y23372881D01*
X19654829Y23372878D01*
X19657086Y23349853D01*
X19657489Y23344622D01*
X19659167Y23314726D01*
X19659365Y23307665D01*
X19659365Y22359696D01*
X19658370Y22343894D01*
X19654883Y22316310D01*
X19654485Y22288015D01*
X19654828Y22284516D01*
X19658765Y22244324D01*
X19659365Y22232040D01*
X19659365Y15084500D01*
X19639363Y15016379D01*
X19585707Y14969886D01*
X19533365Y14958500D01*
X19269500Y14958500D01*
X19201379Y14978502D01*
X19154886Y15032158D01*
X19143500Y15084500D01*
X19143500Y19837154D01*
X19144494Y19852947D01*
X19147543Y19877078D01*
X19147543Y19877083D01*
X19147985Y19880579D01*
X19148380Y19908874D01*
X19146441Y19928653D01*
X19145960Y19935450D01*
X19145068Y19955889D01*
X19132650Y20240350D01*
X19115548Y20370261D01*
X19089703Y20566577D01*
X19089702Y20566583D01*
X19089344Y20569302D01*
X19017533Y20893229D01*
X18952775Y21098618D01*
X18918590Y21207043D01*
X18918585Y21207056D01*
X18917763Y21209664D01*
X18837642Y21403095D01*
X18791846Y21513658D01*
X18791844Y21513663D01*
X18790793Y21516200D01*
X18637589Y21810503D01*
X18611466Y21851509D01*
X18460795Y22088016D01*
X18459319Y22090333D01*
X18257337Y22353560D01*
X18255479Y22355588D01*
X18255472Y22355596D01*
X18072920Y22554817D01*
X18066257Y22562716D01*
X18055952Y22576001D01*
X18053796Y22578781D01*
X18051348Y22581298D01*
X18051344Y22581303D01*
X18036529Y22596537D01*
X18034068Y22599068D01*
X18000180Y22626904D01*
X17991061Y22635173D01*
X17845405Y22780829D01*
X17811379Y22843141D01*
X17808500Y22869924D01*
X17808500Y24250400D01*
X17803547Y24298136D01*
X17803359Y24299945D01*
X18604812Y24299945D01*
X18604929Y24298136D01*
X18605602Y24285132D01*
X18605728Y24281878D01*
X18606458Y24253658D01*
X18606500Y24250400D01*
X18606500Y23834352D01*
X18727828Y23713024D01*
X18869167Y23854363D01*
X18872714Y23926534D01*
X18872903Y23929619D01*
X18874874Y23956341D01*
X18875140Y23959423D01*
X18876352Y23971728D01*
X18876693Y23974806D01*
X18879975Y24001407D01*
X18880391Y24004467D01*
X18914745Y24236044D01*
X18727828Y24422961D01*
X18604812Y24299945D01*
X17803359Y24299945D01*
X17798238Y24349308D01*
X17798237Y24349312D01*
X17797526Y24356166D01*
X17741550Y24523946D01*
X17648478Y24674348D01*
X17616033Y24706737D01*
X17528483Y24794134D01*
X17523303Y24799305D01*
X17447445Y24846065D01*
X17378968Y24888275D01*
X17378966Y24888276D01*
X17372738Y24892115D01*
X17243018Y24935141D01*
X17211389Y24945632D01*
X17211387Y24945632D01*
X17204861Y24947797D01*
X17198025Y24948497D01*
X17198022Y24948498D01*
X17154969Y24952909D01*
X17100400Y24958500D01*
X15899600Y24958500D01*
X15896354Y24958163D01*
X15896350Y24958163D01*
X15800692Y24948238D01*
X15800688Y24948237D01*
X15793834Y24947526D01*
X15787298Y24945345D01*
X15787296Y24945345D01*
X15719760Y24922813D01*
X15626054Y24891550D01*
X15475652Y24798478D01*
X15350695Y24673303D01*
X15257885Y24522738D01*
X15202203Y24354861D01*
X15191500Y24250400D01*
X15191500Y21149600D01*
X15191837Y21146354D01*
X15191837Y21146350D01*
X15201676Y21051522D01*
X15202474Y21043834D01*
X15258450Y20876054D01*
X15351522Y20725652D01*
X15476697Y20600695D01*
X15482927Y20596855D01*
X15482928Y20596854D01*
X15527626Y20569302D01*
X15627262Y20507885D01*
X15707005Y20481436D01*
X15788611Y20454368D01*
X15788613Y20454368D01*
X15795139Y20452203D01*
X15801975Y20451503D01*
X15801978Y20451502D01*
X15845031Y20447091D01*
X15899600Y20441500D01*
X16948185Y20441500D01*
X17016306Y20421498D01*
X17062799Y20367842D01*
X17071764Y20340081D01*
X17109640Y20149664D01*
X17111791Y20133323D01*
X17123420Y19955889D01*
X17122905Y19933609D01*
X17121719Y19923037D01*
X17122235Y19916893D01*
X17122235Y19916890D01*
X17126058Y19871360D01*
X17126500Y19860818D01*
X17126500Y19684500D01*
X17106498Y19616379D01*
X17052842Y19569886D01*
X17000500Y19558500D01*
X15899600Y19558500D01*
X15896354Y19558163D01*
X15896350Y19558163D01*
X15800692Y19548238D01*
X15800688Y19548237D01*
X15793834Y19547526D01*
X15787298Y19545345D01*
X15787296Y19545345D01*
X15655194Y19501272D01*
X15626054Y19491550D01*
X15475652Y19398478D01*
X15350695Y19273303D01*
X15346855Y19267073D01*
X15346854Y19267072D01*
X15309468Y19206420D01*
X15257885Y19122738D01*
X15202203Y18954861D01*
X15191500Y18850400D01*
X15191500Y17454854D01*
X15171498Y17386733D01*
X15159452Y17370895D01*
X15140433Y17349613D01*
X14974472Y17115711D01*
X14835745Y16864698D01*
X14834396Y16861442D01*
X14834392Y16861433D01*
X14727351Y16603006D01*
X14727348Y16602998D01*
X14725995Y16599731D01*
X14646602Y16324141D01*
X14646010Y16320656D01*
X14646009Y16320652D01*
X14616986Y16149811D01*
X14598567Y16041395D01*
X14587477Y15843857D01*
X14585978Y15817157D01*
X14585185Y15808449D01*
X14582014Y15783344D01*
X14581620Y15755049D01*
X14581964Y15751544D01*
X14585898Y15711428D01*
X14586500Y15699130D01*
X14586500Y13425231D01*
X14586800Y13422175D01*
X14586800Y13422168D01*
X14587268Y13417399D01*
X14600920Y13278167D01*
X14658084Y13088831D01*
X14750934Y12914204D01*
X14754828Y12909430D01*
X14754829Y12909428D01*
X14758143Y12905365D01*
X14785697Y12839934D01*
X14786500Y12825729D01*
X14786500Y12583498D01*
X14789438Y12546169D01*
X14835855Y12386399D01*
X14839892Y12379573D01*
X14916509Y12250020D01*
X14916511Y12250017D01*
X14920547Y12243193D01*
X15038193Y12125547D01*
X15045016Y12121512D01*
X15045020Y12121509D01*
X15107851Y12084351D01*
X15181399Y12040855D01*
X15189010Y12038644D01*
X15189012Y12038643D01*
X15223922Y12028501D01*
X15341169Y11994438D01*
X15347574Y11993934D01*
X15347579Y11993933D01*
X15376042Y11991693D01*
X15376050Y11991693D01*
X15378498Y11991500D01*
X15811502Y11991500D01*
X15813950Y11991693D01*
X15813958Y11991693D01*
X15842421Y11993933D01*
X15842426Y11993934D01*
X15848831Y11994438D01*
X15966078Y12028501D01*
X16000988Y12038643D01*
X16000990Y12038644D01*
X16008601Y12040855D01*
X16151807Y12125547D01*
X16154747Y12128487D01*
X16219271Y12153821D01*
X16288894Y12139920D01*
X16307640Y12127871D01*
X16315323Y12121911D01*
X16444779Y12045352D01*
X16459210Y12039107D01*
X16593605Y12000061D01*
X16607706Y12000101D01*
X16611000Y12007370D01*
X16611000Y13603000D01*
X16631002Y13671121D01*
X16684658Y13717614D01*
X16737000Y13729000D01*
X16993000Y13729000D01*
X17061121Y13708998D01*
X17107614Y13655342D01*
X17119000Y13603000D01*
X17119000Y12013122D01*
X17122973Y11999591D01*
X17130871Y11998456D01*
X17270790Y12039107D01*
X17285221Y12045352D01*
X17414676Y12121910D01*
X17422364Y12127874D01*
X17488449Y12153821D01*
X17558072Y12139920D01*
X17574158Y12129582D01*
X17578193Y12125547D01*
X17585021Y12121509D01*
X17585024Y12121507D01*
X17598776Y12113374D01*
X17721399Y12040855D01*
X17729010Y12038644D01*
X17729012Y12038643D01*
X17763922Y12028501D01*
X17881169Y11994438D01*
X17887574Y11993934D01*
X17887579Y11993933D01*
X17916042Y11991693D01*
X17916050Y11991693D01*
X17918498Y11991500D01*
X18179646Y11991500D01*
X18247767Y11971498D01*
X18294260Y11917842D01*
X18304364Y11847568D01*
X18274870Y11782988D01*
X18240604Y11755227D01*
X18236172Y11752778D01*
X18223448Y11746650D01*
X18019822Y11662308D01*
X17974927Y11643712D01*
X17961590Y11639045D01*
X17703108Y11564581D01*
X17689333Y11561437D01*
X17643305Y11553617D01*
X17424134Y11516381D01*
X17410108Y11514801D01*
X17222793Y11504284D01*
X17182688Y11502032D01*
X17161577Y11502620D01*
X17154749Y11503386D01*
X17154748Y11503386D01*
X17148616Y11504074D01*
X17142470Y11503558D01*
X17142469Y11503558D01*
X17096936Y11499735D01*
X17086394Y11499293D01*
X16493302Y11499293D01*
X16477512Y11500286D01*
X16462335Y11502203D01*
X16449866Y11503778D01*
X16442840Y11503876D01*
X16425086Y11504124D01*
X16425085Y11504124D01*
X16421571Y11504173D01*
X16401465Y11502201D01*
X16397436Y11501872D01*
X16369684Y11500052D01*
X16362219Y11499563D01*
X16353978Y11499293D01*
X14631721Y11499293D01*
X14615929Y11500287D01*
X14611939Y11500791D01*
X14588295Y11503778D01*
X14573753Y11503981D01*
X14563523Y11504124D01*
X14563520Y11504124D01*
X14560000Y11504173D01*
X14520368Y11500287D01*
X14516360Y11499894D01*
X14504064Y11499293D01*
X8372489Y11499293D01*
X8356692Y11500287D01*
X8354729Y11500535D01*
X8329074Y11503777D01*
X8308638Y11504063D01*
X8304285Y11504124D01*
X8304284Y11504124D01*
X8300779Y11504173D01*
X8297291Y11503831D01*
X8297287Y11503831D01*
X8285576Y11502683D01*
X8266256Y11500790D01*
X8261057Y11500389D01*
X8064116Y11489335D01*
X7890327Y11459812D01*
X7833913Y11450229D01*
X7833910Y11450228D01*
X7830429Y11449637D01*
X7827041Y11448661D01*
X7827032Y11448659D01*
X7719678Y11417733D01*
X7602656Y11384023D01*
X7599393Y11382672D01*
X7599383Y11382668D01*
X7430968Y11312911D01*
X7383662Y11293317D01*
X7380574Y11291610D01*
X7380565Y11291606D01*
X7195395Y11189268D01*
X7176202Y11178661D01*
X6982885Y11041496D01*
X6980251Y11039142D01*
X6859638Y10931356D01*
X6852905Y10925748D01*
X6825340Y10904366D01*
X6805053Y10884638D01*
X6802824Y10881924D01*
X6802821Y10881921D01*
X6777220Y10850753D01*
X6768950Y10841633D01*
X5165280Y9237963D01*
X5153412Y9227499D01*
X5131389Y9210416D01*
X5111103Y9190687D01*
X5108877Y9187977D01*
X5108866Y9187965D01*
X5096925Y9173426D01*
X5077661Y9154527D01*
X5068361Y9147181D01*
X5068344Y9147164D01*
X5068340Y9147161D01*
X5048228Y9127254D01*
X5013205Y9083838D01*
X5007203Y9076932D01*
X4999091Y9068257D01*
X4998084Y9067068D01*
X4998072Y9067054D01*
X4949615Y9009813D01*
X4949562Y9009858D01*
X4945086Y9004708D01*
X4916475Y8974244D01*
X4899523Y8951587D01*
X4897748Y8948563D01*
X4897500Y8948189D01*
X4892752Y8941839D01*
X4892867Y8941753D01*
X4875915Y8919096D01*
X4850599Y8875954D01*
X4850584Y8875933D01*
X4850555Y8875883D01*
X4848576Y8872510D01*
X4843734Y8864896D01*
X4819081Y8829032D01*
X4818215Y8827619D01*
X4780861Y8766670D01*
X4763532Y8738396D01*
X4762739Y8736935D01*
X4762734Y8736927D01*
X4750897Y8715128D01*
X4744385Y8704439D01*
X4722298Y8671945D01*
X4722280Y8671911D01*
X4722276Y8671905D01*
X4716296Y8660564D01*
X4709098Y8646914D01*
X4709095Y8646906D01*
X4709078Y8646874D01*
X4707757Y8643504D01*
X4707753Y8643495D01*
X4695844Y8613110D01*
X4690535Y8599563D01*
X4689378Y8596612D01*
X4685788Y8588337D01*
X4667772Y8550575D01*
X4667760Y8550548D01*
X4667052Y8549064D01*
X4626363Y8450849D01*
X4625810Y8449288D01*
X4625799Y8449259D01*
X4617522Y8425889D01*
X4612757Y8414300D01*
X4596026Y8378750D01*
X4594891Y8375415D01*
X4594890Y8375414D01*
X4587532Y8353806D01*
X4587532Y8353804D01*
X4586905Y8351963D01*
X4586903Y8351956D01*
X4586895Y8351931D01*
X4586267Y8349073D01*
X4586263Y8349060D01*
X4575301Y8299206D01*
X4573049Y8290470D01*
X4561158Y8250340D01*
X4561148Y8250301D01*
X4560688Y8248750D01*
X4560307Y8247164D01*
X4560305Y8247156D01*
X4553614Y8219292D01*
X4535867Y8145389D01*
X4535565Y8143758D01*
X4535564Y8143755D01*
X4531040Y8119351D01*
X4528149Y8107169D01*
X4517177Y8069411D01*
X4512360Y8041526D01*
X4512151Y8038015D01*
X4512099Y8037565D01*
X4510746Y8029727D01*
X4510887Y8029703D01*
X4509429Y8021265D01*
X4479199Y7958736D01*
X4448774Y7924708D01*
X4448770Y7924703D01*
X4445782Y7921361D01*
X4443297Y7917628D01*
X4443294Y7917624D01*
X4368901Y7805865D01*
X4366419Y7802136D01*
X4303711Y7670667D01*
X4302374Y7666388D01*
X4302373Y7666385D01*
X4292026Y7633266D01*
X4261001Y7533961D01*
X4260284Y7529537D01*
X4260284Y7529535D01*
X4256900Y7508640D01*
X4237713Y7390179D01*
X4237631Y7385699D01*
X4235217Y7253993D01*
X4235088Y7246980D01*
X4235641Y7242535D01*
X4235878Y7238056D01*
X4235751Y7238049D01*
X4236271Y7229661D01*
X4236271Y6800000D01*
X4241500Y6726889D01*
X4243403Y6720409D01*
X4252167Y6690562D01*
X4255988Y6637132D01*
X4236271Y6500000D01*
X4236271Y6012678D01*
X4236250Y6010370D01*
X4235088Y5946980D01*
X4235641Y5942541D01*
X4251601Y5814416D01*
X4253093Y5802435D01*
X4290766Y5664255D01*
X4292548Y5660138D01*
X4292549Y5660134D01*
X4346044Y5536515D01*
X4348612Y5530580D01*
X4423552Y5408528D01*
X4426415Y5405080D01*
X4426416Y5405078D01*
X4491300Y5326925D01*
X4516592Y5296460D01*
X4571977Y5246328D01*
X4584380Y5235101D01*
X4621461Y5174558D01*
X4619923Y5103578D01*
X4580255Y5044697D01*
X4515050Y5016609D01*
X4490838Y5016007D01*
X4392544Y5023036D01*
X4374749Y5025594D01*
X4184411Y5066998D01*
X4167167Y5072061D01*
X3984665Y5140129D01*
X3968313Y5147597D01*
X3797352Y5240947D01*
X3782228Y5250666D01*
X3626297Y5367393D01*
X3612710Y5379166D01*
X3474978Y5516896D01*
X3463205Y5530482D01*
X3448518Y5550102D01*
X3404545Y5608842D01*
X3346473Y5686416D01*
X3336754Y5701540D01*
X3243403Y5872499D01*
X3235942Y5888835D01*
X3167865Y6071352D01*
X3162804Y6088593D01*
X3121398Y6278933D01*
X3118839Y6296726D01*
X3117436Y6316335D01*
X3107525Y6454903D01*
X3108616Y6477758D01*
X3108154Y6477799D01*
X3108588Y6482643D01*
X3109397Y6487448D01*
X3109550Y6500000D01*
X3105638Y6527318D01*
X3104366Y6545304D01*
X3106460Y8654238D01*
X3106923Y9120288D01*
X3904924Y9120288D01*
X4004210Y9021001D01*
X4010422Y9032780D01*
X4010421Y9032780D01*
X4016384Y9044090D01*
X4016967Y9045160D01*
X4017018Y9045286D01*
X4017036Y9045320D01*
X4018697Y9048356D01*
X4023664Y9057145D01*
X4032101Y9072170D01*
X4033766Y9075046D01*
X4033877Y9075232D01*
X4033930Y9075281D01*
X4034591Y9076415D01*
X4034606Y9076459D01*
X4034827Y9076830D01*
X4034831Y9076828D01*
X4035237Y9077524D01*
X4035543Y9078032D01*
X4039907Y9085368D01*
X4041594Y9088123D01*
X4042143Y9088995D01*
X4042262Y9089192D01*
X4044104Y9092160D01*
X4046372Y9095704D01*
X4056542Y9111842D01*
X4058301Y9114555D01*
X4058305Y9114561D01*
X4058922Y9115313D01*
X4060411Y9117639D01*
X4062327Y9120544D01*
X4066111Y9126111D01*
X4070028Y9133105D01*
X4070843Y9134539D01*
X4074141Y9140251D01*
X4074979Y9141679D01*
X4082298Y9153979D01*
X4083149Y9155389D01*
X4138698Y9246025D01*
X4139569Y9247425D01*
X4147200Y9259518D01*
X4148090Y9260909D01*
X4151685Y9266444D01*
X4152595Y9267824D01*
X4160544Y9279718D01*
X4161467Y9281080D01*
X4172507Y9297141D01*
X4187661Y9322965D01*
X4189482Y9325972D01*
X4205646Y9351836D01*
X4207554Y9354796D01*
X4215339Y9366511D01*
X4217326Y9369412D01*
X4234896Y9394315D01*
X4236965Y9397162D01*
X4247907Y9411786D01*
X4258505Y9426807D01*
X4260572Y9429652D01*
X4277524Y9452309D01*
X4279672Y9455097D01*
X4279839Y9455308D01*
X4020007Y9715140D01*
X3905400Y9600533D01*
X3904924Y9120288D01*
X3106923Y9120288D01*
X3108074Y10279410D01*
X4584278Y10279410D01*
X4831232Y10032456D01*
X5186201Y10387424D01*
X4939247Y10634378D01*
X4584278Y10279410D01*
X3108074Y10279410D01*
X3108747Y10956941D01*
X3906747Y10956941D01*
X4020007Y10843681D01*
X4374974Y11198649D01*
X5503516Y11198649D01*
X5750471Y10951694D01*
X6105439Y11306662D01*
X5858484Y11553617D01*
X5503516Y11198649D01*
X4374974Y11198649D01*
X4374975Y11198650D01*
X4020008Y11553617D01*
X3907228Y11440837D01*
X3906747Y10956941D01*
X3108747Y10956941D01*
X3109900Y12117888D01*
X4584278Y12117888D01*
X4939246Y11762920D01*
X5294214Y12117889D01*
X6422756Y12117889D01*
X6712518Y11828127D01*
X6714424Y11829480D01*
X6717335Y11831484D01*
X6731376Y11840866D01*
X6648984Y11980184D01*
X6645171Y11987119D01*
X6614046Y12048204D01*
X6610676Y12055365D01*
X6598132Y12084351D01*
X6595218Y12091712D01*
X6571987Y12156236D01*
X6569540Y12163765D01*
X6546824Y12241957D01*
X6422756Y12117889D01*
X5294214Y12117889D01*
X4939247Y12472856D01*
X4584278Y12117888D01*
X3109900Y12117888D01*
X3110571Y12793594D01*
X3908571Y12793594D01*
X4020007Y12682158D01*
X4374975Y13037126D01*
X5503517Y13037126D01*
X5858484Y12682159D01*
X6213453Y13037127D01*
X5858485Y13392095D01*
X5503517Y13037126D01*
X4374975Y13037126D01*
X4020007Y13392095D01*
X3909055Y13281143D01*
X3908571Y12793594D01*
X3110571Y12793594D01*
X3111726Y13956366D01*
X4584278Y13956366D01*
X4939247Y13601398D01*
X5294214Y13956365D01*
X4939246Y14311334D01*
X4584278Y13956366D01*
X3111726Y13956366D01*
X3112395Y14630248D01*
X3910395Y14630248D01*
X4020007Y14520636D01*
X4374975Y14875605D01*
X5503517Y14875605D01*
X5858485Y14520636D01*
X6213453Y14875604D01*
X5858484Y15230572D01*
X5503517Y14875605D01*
X4374975Y14875605D01*
X4020007Y15230573D01*
X3910882Y15121448D01*
X3910395Y14630248D01*
X3112395Y14630248D01*
X3113552Y15794843D01*
X4584278Y15794843D01*
X4939246Y15439875D01*
X5254419Y15755049D01*
X7081620Y15755049D01*
X7081964Y15751544D01*
X7085898Y15711428D01*
X7086500Y15699130D01*
X7086500Y13425231D01*
X7086800Y13422175D01*
X7086800Y13422168D01*
X7087268Y13417399D01*
X7100920Y13278167D01*
X7158084Y13088831D01*
X7250934Y12914204D01*
X7254828Y12909430D01*
X7254829Y12909428D01*
X7258143Y12905365D01*
X7285697Y12839934D01*
X7286500Y12825729D01*
X7286500Y12583498D01*
X7289438Y12546169D01*
X7335855Y12386399D01*
X7339892Y12379573D01*
X7416509Y12250020D01*
X7416511Y12250017D01*
X7420547Y12243193D01*
X7538193Y12125547D01*
X7545016Y12121512D01*
X7545020Y12121509D01*
X7607851Y12084351D01*
X7681399Y12040855D01*
X7689010Y12038644D01*
X7689012Y12038643D01*
X7723922Y12028501D01*
X7841169Y11994438D01*
X7847574Y11993934D01*
X7847579Y11993933D01*
X7876042Y11991693D01*
X7876050Y11991693D01*
X7878498Y11991500D01*
X8311502Y11991500D01*
X8313950Y11991693D01*
X8313958Y11991693D01*
X8342421Y11993933D01*
X8342426Y11993934D01*
X8348831Y11994438D01*
X8466078Y12028501D01*
X8500988Y12038643D01*
X8500990Y12038644D01*
X8508601Y12040855D01*
X8651807Y12125547D01*
X8654747Y12128487D01*
X8719271Y12153821D01*
X8788894Y12139920D01*
X8807640Y12127871D01*
X8815323Y12121911D01*
X8944779Y12045352D01*
X8959210Y12039107D01*
X9093605Y12000061D01*
X9107706Y12000101D01*
X9111000Y12007370D01*
X9111000Y13603000D01*
X9131002Y13671121D01*
X9184658Y13717614D01*
X9237000Y13729000D01*
X9493000Y13729000D01*
X9561121Y13708998D01*
X9607614Y13655342D01*
X9619000Y13603000D01*
X9619000Y12013122D01*
X9622973Y11999591D01*
X9630871Y11998456D01*
X9770790Y12039107D01*
X9785221Y12045352D01*
X9914676Y12121910D01*
X9922364Y12127874D01*
X9988449Y12153821D01*
X10058072Y12139920D01*
X10074158Y12129582D01*
X10078193Y12125547D01*
X10085021Y12121509D01*
X10085024Y12121507D01*
X10098776Y12113374D01*
X10221399Y12040855D01*
X10229010Y12038644D01*
X10229012Y12038643D01*
X10263922Y12028501D01*
X10381169Y11994438D01*
X10387574Y11993934D01*
X10387579Y11993933D01*
X10416042Y11991693D01*
X10416050Y11991693D01*
X10418498Y11991500D01*
X10851502Y11991500D01*
X10853950Y11991693D01*
X10853958Y11991693D01*
X10882421Y11993933D01*
X10882426Y11993934D01*
X10888831Y11994438D01*
X11006078Y12028501D01*
X11040988Y12038643D01*
X11040990Y12038644D01*
X11048601Y12040855D01*
X11191807Y12125547D01*
X11194489Y12128229D01*
X11258861Y12153502D01*
X11328484Y12139600D01*
X11344312Y12129428D01*
X11348193Y12125547D01*
X11491399Y12040855D01*
X11499010Y12038644D01*
X11499012Y12038643D01*
X11533922Y12028501D01*
X11651169Y11994438D01*
X11657574Y11993934D01*
X11657579Y11993933D01*
X11686042Y11991693D01*
X11686050Y11991693D01*
X11688498Y11991500D01*
X12121502Y11991500D01*
X12123950Y11991693D01*
X12123958Y11991693D01*
X12152421Y11993933D01*
X12152426Y11993934D01*
X12158831Y11994438D01*
X12276078Y12028501D01*
X12310988Y12038643D01*
X12310990Y12038644D01*
X12318601Y12040855D01*
X12392149Y12084351D01*
X12454980Y12121509D01*
X12454984Y12121512D01*
X12461807Y12125547D01*
X12579453Y12243193D01*
X12583489Y12250017D01*
X12583491Y12250020D01*
X12660108Y12379573D01*
X12664145Y12386399D01*
X12710562Y12546169D01*
X12713500Y12583498D01*
X12713500Y14366502D01*
X12710562Y14403831D01*
X12673826Y14530279D01*
X12666357Y14555988D01*
X12666356Y14555990D01*
X12664145Y14563601D01*
X12624730Y14630248D01*
X12583491Y14699980D01*
X12583489Y14699983D01*
X12579453Y14706807D01*
X12461807Y14824453D01*
X12454983Y14828489D01*
X12454980Y14828491D01*
X12325427Y14905108D01*
X12325428Y14905108D01*
X12318601Y14909145D01*
X12310990Y14911356D01*
X12310988Y14911357D01*
X12258769Y14926528D01*
X12158831Y14955562D01*
X12152426Y14956066D01*
X12152421Y14956067D01*
X12123958Y14958307D01*
X12123950Y14958307D01*
X12121502Y14958500D01*
X11769500Y14958500D01*
X11701379Y14978502D01*
X11654886Y15032158D01*
X11643500Y15084500D01*
X11643500Y15213213D01*
X13195035Y15213213D01*
X13199530Y15207778D01*
X13218888Y15182822D01*
X13223541Y15176418D01*
X13262083Y15119706D01*
X13266324Y15113022D01*
X13351016Y14969816D01*
X13354829Y14962881D01*
X13385954Y14901796D01*
X13389324Y14894635D01*
X13401868Y14865649D01*
X13404782Y14858288D01*
X13428013Y14793764D01*
X13430460Y14786235D01*
X13441161Y14749402D01*
X13567363Y14875605D01*
X13212395Y15230573D01*
X13195035Y15213213D01*
X11643500Y15213213D01*
X11643500Y16001468D01*
X12441500Y16001468D01*
X12441500Y15704435D01*
X12531554Y15678272D01*
X12648125Y15794843D01*
X12441500Y16001468D01*
X11643500Y16001468D01*
X11643500Y16714082D01*
X12857427Y16714082D01*
X13212395Y16359114D01*
X13567363Y16714083D01*
X13212396Y17069050D01*
X12857427Y16714082D01*
X11643500Y16714082D01*
X11643500Y17839946D01*
X12441500Y17839946D01*
X12441500Y17426696D01*
X12648125Y17633321D01*
X13776666Y17633321D01*
X14131635Y17278353D01*
X14178493Y17325211D01*
X14276040Y17501713D01*
X14277794Y17504783D01*
X14293366Y17531181D01*
X14295206Y17534202D01*
X14302724Y17546166D01*
X14304645Y17549130D01*
X14321650Y17574579D01*
X14323653Y17577488D01*
X14393500Y17675929D01*
X14393500Y17726423D01*
X14131634Y17988289D01*
X13776666Y17633321D01*
X12648125Y17633321D01*
X12441500Y17839946D01*
X11643500Y17839946D01*
X11643500Y18552560D01*
X12857427Y18552560D01*
X13212396Y18197592D01*
X13567363Y18552559D01*
X13212395Y18907528D01*
X12857427Y18552560D01*
X11643500Y18552560D01*
X11643500Y19678424D01*
X12441500Y19678424D01*
X12441500Y19265174D01*
X12648125Y19471799D01*
X13776666Y19471799D01*
X14131635Y19116831D01*
X14486602Y19471798D01*
X14131634Y19826767D01*
X13776666Y19471799D01*
X12648125Y19471799D01*
X12441500Y19678424D01*
X11643500Y19678424D01*
X11643500Y19837154D01*
X11644494Y19852947D01*
X11647543Y19877078D01*
X11647543Y19877083D01*
X11647985Y19880579D01*
X11648380Y19908874D01*
X11646425Y19928820D01*
X11645944Y19935614D01*
X11645549Y19944672D01*
X11632641Y20240349D01*
X11632281Y20243088D01*
X11612804Y20391037D01*
X12857427Y20391037D01*
X13212395Y20036069D01*
X13567363Y20391038D01*
X13212396Y20746005D01*
X12857427Y20391037D01*
X11612804Y20391037D01*
X11589694Y20566576D01*
X11589693Y20566582D01*
X11589335Y20569301D01*
X11517524Y20893227D01*
X11514609Y20902474D01*
X11418585Y21207026D01*
X11418579Y21207043D01*
X11417754Y21209661D01*
X11290785Y21516196D01*
X11286949Y21523566D01*
X12151478Y21523566D01*
X12155011Y21515037D01*
X12156036Y21512485D01*
X12164676Y21490266D01*
X12165645Y21487691D01*
X12169404Y21477362D01*
X12170315Y21474772D01*
X12177966Y21452232D01*
X12178820Y21449620D01*
X12278590Y21133186D01*
X12279388Y21130557D01*
X12286051Y21107698D01*
X12286791Y21105052D01*
X12289636Y21094435D01*
X12290319Y21091770D01*
X12295984Y21068619D01*
X12296608Y21065942D01*
X12316058Y20978209D01*
X12648125Y21310276D01*
X13776666Y21310276D01*
X14131634Y20955308D01*
X14393500Y21217174D01*
X14393500Y21403379D01*
X14131635Y21665244D01*
X13776666Y21310276D01*
X12648125Y21310276D01*
X12293156Y21665244D01*
X12151478Y21523566D01*
X11286949Y21523566D01*
X11138846Y21808070D01*
X11138845Y21808071D01*
X11137582Y21810498D01*
X11085086Y21892901D01*
X10960791Y22088004D01*
X10960783Y22088016D01*
X10959311Y22090327D01*
X10852509Y22229515D01*
X12857428Y22229515D01*
X13212396Y21874547D01*
X13567364Y22229515D01*
X13212396Y22584483D01*
X12857428Y22229515D01*
X10852509Y22229515D01*
X10757331Y22353555D01*
X10572994Y22554723D01*
X10566332Y22562620D01*
X10555952Y22576001D01*
X10553796Y22578781D01*
X10551345Y22581302D01*
X10551341Y22581306D01*
X10536529Y22596537D01*
X10534068Y22599068D01*
X10500180Y22626904D01*
X10491061Y22635173D01*
X10345405Y22780829D01*
X10311379Y22843141D01*
X10308500Y22869924D01*
X10308500Y23148753D01*
X11938189Y23148753D01*
X12293156Y22793786D01*
X12648125Y23148754D01*
X13776666Y23148754D01*
X14131635Y22793786D01*
X14393500Y23055651D01*
X14393500Y23241856D01*
X14131634Y23503722D01*
X13776666Y23148754D01*
X12648125Y23148754D01*
X12293157Y23503722D01*
X11938189Y23148753D01*
X10308500Y23148753D01*
X10308500Y23980442D01*
X11106500Y23980442D01*
X11373917Y23713025D01*
X11728886Y24067993D01*
X12857427Y24067993D01*
X13212396Y23713025D01*
X13567363Y24067992D01*
X13212395Y24422961D01*
X12857427Y24067993D01*
X11728886Y24067993D01*
X11373918Y24422961D01*
X11106500Y24155543D01*
X11106500Y23980442D01*
X10308500Y23980442D01*
X10308500Y24250400D01*
X10303547Y24298136D01*
X10298238Y24349308D01*
X10298237Y24349312D01*
X10297526Y24356166D01*
X10241550Y24523946D01*
X10148478Y24674348D01*
X10116033Y24706737D01*
X10028483Y24794134D01*
X10023303Y24799305D01*
X9947445Y24846065D01*
X9878968Y24888275D01*
X9878966Y24888276D01*
X9872738Y24892115D01*
X9743018Y24935141D01*
X9711389Y24945632D01*
X9711387Y24945632D01*
X9704861Y24947797D01*
X9698025Y24948497D01*
X9698022Y24948498D01*
X9654969Y24952909D01*
X9600400Y24958500D01*
X8399600Y24958500D01*
X8396354Y24958163D01*
X8396350Y24958163D01*
X8300692Y24948238D01*
X8300688Y24948237D01*
X8293834Y24947526D01*
X8287298Y24945345D01*
X8287296Y24945345D01*
X8219760Y24922813D01*
X8126054Y24891550D01*
X7975652Y24798478D01*
X7850695Y24673303D01*
X7757885Y24522738D01*
X7702203Y24354861D01*
X7691500Y24250400D01*
X7691500Y21149600D01*
X7691837Y21146354D01*
X7691837Y21146350D01*
X7701676Y21051522D01*
X7702474Y21043834D01*
X7758450Y20876054D01*
X7851522Y20725652D01*
X7976697Y20600695D01*
X7982927Y20596855D01*
X7982928Y20596854D01*
X8027626Y20569302D01*
X8127262Y20507885D01*
X8207005Y20481436D01*
X8288611Y20454368D01*
X8288613Y20454368D01*
X8295139Y20452203D01*
X8301975Y20451503D01*
X8301978Y20451502D01*
X8345031Y20447091D01*
X8399600Y20441500D01*
X9448177Y20441500D01*
X9516298Y20421498D01*
X9562791Y20367842D01*
X9571756Y20340080D01*
X9609631Y20149662D01*
X9611782Y20133322D01*
X9623414Y19955842D01*
X9622899Y19933556D01*
X9621719Y19923037D01*
X9623203Y19905368D01*
X9626058Y19871360D01*
X9626500Y19860818D01*
X9626500Y19684500D01*
X9606498Y19616379D01*
X9552842Y19569886D01*
X9500500Y19558500D01*
X8399600Y19558500D01*
X8396354Y19558163D01*
X8396350Y19558163D01*
X8300692Y19548238D01*
X8300688Y19548237D01*
X8293834Y19547526D01*
X8287298Y19545345D01*
X8287296Y19545345D01*
X8155194Y19501272D01*
X8126054Y19491550D01*
X7975652Y19398478D01*
X7850695Y19273303D01*
X7846855Y19267073D01*
X7846854Y19267072D01*
X7809468Y19206420D01*
X7757885Y19122738D01*
X7702203Y18954861D01*
X7691500Y18850400D01*
X7691500Y17454854D01*
X7671498Y17386733D01*
X7659452Y17370895D01*
X7640433Y17349613D01*
X7474472Y17115711D01*
X7335745Y16864698D01*
X7334396Y16861442D01*
X7334392Y16861433D01*
X7227351Y16603006D01*
X7227348Y16602998D01*
X7225995Y16599731D01*
X7146602Y16324141D01*
X7146010Y16320656D01*
X7146009Y16320652D01*
X7116986Y16149811D01*
X7098567Y16041395D01*
X7087477Y15843857D01*
X7085978Y15817157D01*
X7085185Y15808449D01*
X7082014Y15783344D01*
X7081620Y15755049D01*
X5254419Y15755049D01*
X5294214Y15794844D01*
X4939247Y16149811D01*
X4584278Y15794843D01*
X3113552Y15794843D01*
X3114219Y16466902D01*
X3912219Y16466902D01*
X4020007Y16359114D01*
X4374975Y16714083D01*
X5503517Y16714083D01*
X5858485Y16359114D01*
X6213453Y16714082D01*
X5858484Y17069050D01*
X5503517Y16714083D01*
X4374975Y16714083D01*
X4020007Y17069051D01*
X3912710Y16961754D01*
X3912219Y16466902D01*
X3114219Y16466902D01*
X3115377Y17633321D01*
X4584278Y17633321D01*
X4939247Y17278353D01*
X5294214Y17633320D01*
X6422756Y17633320D01*
X6697135Y17358941D01*
X6776040Y17501713D01*
X6777794Y17504783D01*
X6793366Y17531181D01*
X6795206Y17534202D01*
X6802724Y17546166D01*
X6804645Y17549130D01*
X6821650Y17574579D01*
X6823653Y17577488D01*
X6893500Y17675929D01*
X6893500Y17872513D01*
X6777724Y17988289D01*
X6422756Y17633320D01*
X5294214Y17633320D01*
X4939246Y17988289D01*
X4584278Y17633321D01*
X3115377Y17633321D01*
X3116043Y18303557D01*
X3914043Y18303557D01*
X4020008Y18197592D01*
X4374975Y18552559D01*
X5503517Y18552559D01*
X5858484Y18197592D01*
X6213453Y18552560D01*
X5858485Y18907528D01*
X5503517Y18552559D01*
X4374975Y18552559D01*
X4020007Y18907528D01*
X3914537Y18802058D01*
X3914043Y18303557D01*
X3116043Y18303557D01*
X3117203Y19471799D01*
X4584278Y19471799D01*
X4939247Y19116831D01*
X5294214Y19471798D01*
X6422756Y19471798D01*
X6777723Y19116831D01*
X6983393Y19322500D01*
X7000462Y19373963D01*
X7002963Y19380832D01*
X7026353Y19439685D01*
X7029250Y19446398D01*
X7041583Y19472847D01*
X7044864Y19479382D01*
X7072969Y19531522D01*
X6777724Y19826767D01*
X6422756Y19471798D01*
X5294214Y19471798D01*
X4939246Y19826767D01*
X4584278Y19471799D01*
X3117203Y19471799D01*
X3117867Y20140209D01*
X3915867Y20140209D01*
X4020007Y20036069D01*
X4374975Y20391038D01*
X5503517Y20391038D01*
X5858485Y20036069D01*
X6213453Y20391037D01*
X5858484Y20746005D01*
X5503517Y20391038D01*
X4374975Y20391038D01*
X4020008Y20746005D01*
X3916365Y20642362D01*
X3915867Y20140209D01*
X3117867Y20140209D01*
X3119028Y21310276D01*
X4584278Y21310276D01*
X4939246Y20955308D01*
X5294214Y21310277D01*
X6422756Y21310277D01*
X6777724Y20955308D01*
X6897137Y21074721D01*
X6895281Y21098618D01*
X6895071Y21101864D01*
X6894398Y21114868D01*
X6894272Y21118122D01*
X6893542Y21146342D01*
X6893500Y21149600D01*
X6893500Y21549469D01*
X6777724Y21665245D01*
X6422756Y21310277D01*
X5294214Y21310277D01*
X4939247Y21665244D01*
X4584278Y21310276D01*
X3119028Y21310276D01*
X3119690Y21976863D01*
X3917690Y21976863D01*
X4020007Y21874546D01*
X4374976Y22229515D01*
X5503516Y22229515D01*
X5858484Y21874547D01*
X6213452Y22229515D01*
X5858484Y22584483D01*
X5503516Y22229515D01*
X4374976Y22229515D01*
X4020007Y22584484D01*
X3918192Y22482669D01*
X3917690Y21976863D01*
X3119690Y21976863D01*
X3120854Y23148754D01*
X4584278Y23148754D01*
X4939247Y22793786D01*
X5294214Y23148753D01*
X6422756Y23148753D01*
X6777724Y22793785D01*
X6893500Y22909561D01*
X6893500Y23387946D01*
X6777724Y23503722D01*
X6422756Y23148753D01*
X5294214Y23148753D01*
X4939246Y23503722D01*
X4584278Y23148754D01*
X3120854Y23148754D01*
X3121514Y23813517D01*
X3919514Y23813517D01*
X4020007Y23713024D01*
X4325013Y24018030D01*
X5553479Y24018030D01*
X5858484Y23713025D01*
X6213453Y24067993D01*
X5927449Y24353997D01*
X5916480Y24338447D01*
X5788338Y24189993D01*
X5770531Y24173035D01*
X5615994Y24052297D01*
X5595230Y24039120D01*
X5553479Y24018030D01*
X4325013Y24018030D01*
X4369428Y24062445D01*
X4365055Y24064889D01*
X4344862Y24078923D01*
X4195516Y24206026D01*
X4178434Y24223715D01*
X4096443Y24327162D01*
X4083915Y24326483D01*
X4080509Y24326345D01*
X4050981Y24325546D01*
X4047573Y24325500D01*
X3922546Y24325500D01*
X3920020Y24322974D01*
X3919514Y23813517D01*
X3121514Y23813517D01*
X3122679Y24987232D01*
X6422756Y24987232D01*
X6777724Y24632263D01*
X7068274Y24922813D01*
X7074919Y24935141D01*
X7078573Y24941474D01*
X7106779Y24987232D01*
X11938189Y24987232D01*
X12293157Y24632263D01*
X12648125Y24987231D01*
X13776666Y24987231D01*
X14131634Y24632263D01*
X14486602Y24987232D01*
X14131635Y25342199D01*
X13776666Y24987231D01*
X12648125Y24987231D01*
X12293156Y25342199D01*
X11938189Y24987232D01*
X7106779Y24987232D01*
X7116660Y25003262D01*
X6777723Y25342199D01*
X6422756Y24987232D01*
X3122679Y24987232D01*
X3123008Y25318342D01*
X3124508Y25337596D01*
X3126781Y25352195D01*
X3157025Y25416428D01*
X3217194Y25454113D01*
X3288186Y25453285D01*
X3347520Y25414139D01*
X3391985Y25361521D01*
X3397404Y25357378D01*
X3397406Y25357376D01*
X3435798Y25328023D01*
X3543272Y25245853D01*
X3549455Y25242970D01*
X3549458Y25242968D01*
X3626912Y25206851D01*
X3715869Y25165370D01*
X3901721Y25123827D01*
X3907569Y25123500D01*
X4047573Y25123500D01*
X4189325Y25138899D01*
X4195788Y25141074D01*
X4195792Y25141075D01*
X4363346Y25197464D01*
X4363348Y25197465D01*
X4369817Y25199642D01*
X4533056Y25297725D01*
X4554853Y25318337D01*
X4666466Y25423884D01*
X4666468Y25423886D01*
X4671424Y25428573D01*
X4778467Y25586082D01*
X4781002Y25592419D01*
X4846656Y25756565D01*
X4846657Y25756570D01*
X4849190Y25762902D01*
X4866873Y25869717D01*
X4879178Y25944046D01*
X4879178Y25944050D01*
X4880293Y25950784D01*
X4879323Y25969305D01*
X4874743Y26056679D01*
X5673838Y26056679D01*
X5677199Y25992549D01*
X5677372Y25985734D01*
X5677269Y25926684D01*
X5677073Y25919871D01*
X5676081Y25902117D01*
X5793319Y25805129D01*
X5810647Y25787680D01*
X5934595Y25635705D01*
X5937825Y25630842D01*
X6213453Y25906470D01*
X6213452Y25906471D01*
X7341995Y25906471D01*
X7688962Y25559504D01*
X7706133Y25570130D01*
X7712459Y25573795D01*
X7727276Y25581815D01*
X8051931Y25906470D01*
X9180472Y25906470D01*
X9330442Y25756500D01*
X9600400Y25756500D01*
X9603615Y25756459D01*
X9631468Y25755748D01*
X9634681Y25755625D01*
X9647524Y25754969D01*
X9650736Y25754764D01*
X9678534Y25752631D01*
X9681737Y25752344D01*
X9731214Y25747275D01*
X9890409Y25906470D01*
X9890408Y25906471D01*
X11018950Y25906471D01*
X11373918Y25551502D01*
X11728886Y25906470D01*
X12857427Y25906470D01*
X13212395Y25551502D01*
X13567362Y25906470D01*
X14695905Y25906470D01*
X15050873Y25551502D01*
X15405841Y25906471D01*
X16534383Y25906471D01*
X16684354Y25756500D01*
X17094349Y25756500D01*
X17244319Y25906470D01*
X18372860Y25906470D01*
X18727828Y25551502D01*
X19082796Y25906471D01*
X18793404Y26195863D01*
X18788338Y26189993D01*
X18770531Y26173035D01*
X18615994Y26052297D01*
X18595230Y26039120D01*
X18420184Y25950699D01*
X18415128Y25948738D01*
X18372860Y25906470D01*
X17244319Y25906470D01*
X16889350Y26261438D01*
X16534383Y25906471D01*
X15405841Y25906471D01*
X15298297Y26014015D01*
X14805634Y26016199D01*
X14695905Y25906470D01*
X13567362Y25906470D01*
X13567363Y25906471D01*
X13451633Y26022201D01*
X12975269Y26024312D01*
X12857427Y25906470D01*
X11728886Y25906470D01*
X11604969Y26030387D01*
X11144905Y26032426D01*
X11018950Y25906471D01*
X9890408Y25906471D01*
X9758306Y26038573D01*
X9314542Y26040540D01*
X9180472Y25906470D01*
X8051931Y25906470D01*
X7911642Y26046759D01*
X7484178Y26048654D01*
X7341995Y25906471D01*
X6213452Y25906471D01*
X6064978Y26054945D01*
X5673838Y26056679D01*
X4874743Y26056679D01*
X4870683Y26134149D01*
X4870326Y26140962D01*
X4819754Y26324564D01*
X4730936Y26493022D01*
X4726531Y26498235D01*
X4726528Y26498239D01*
X4612420Y26633266D01*
X4608015Y26638479D01*
X4603290Y26642092D01*
X4567921Y26703264D01*
X4571255Y26774182D01*
X4612401Y26832040D01*
X4678296Y26858468D01*
X4690903Y26859045D01*
X9717003Y26836765D01*
X15540910Y26810948D01*
X15561253Y26809203D01*
X15577648Y26806445D01*
X15577655Y26806444D01*
X15582448Y26805638D01*
X15588801Y26805561D01*
X15590142Y26805544D01*
X15590145Y26805544D01*
X15595000Y26805485D01*
X15599805Y26806173D01*
X15602425Y26806344D01*
X15607769Y26806888D01*
X15688406Y26811765D01*
X15894123Y26824208D01*
X15894128Y26824209D01*
X15897920Y26824438D01*
X15904856Y26825709D01*
X19292099Y26825709D01*
X19647067Y26470741D01*
X20002035Y26825710D01*
X19647068Y27180677D01*
X19292099Y26825709D01*
X15904856Y26825709D01*
X16071053Y26856166D01*
X16192671Y26878453D01*
X16192678Y26878455D01*
X16196423Y26879141D01*
X16486156Y26969426D01*
X16762894Y27093976D01*
X16766151Y27095945D01*
X16766155Y27095947D01*
X16972656Y27220782D01*
X17022601Y27250975D01*
X17044037Y27267769D01*
X17258495Y27435787D01*
X17258500Y27435792D01*
X17261490Y27438134D01*
X17476077Y27652723D01*
X17480667Y27658582D01*
X17660887Y27888616D01*
X17660893Y27888624D01*
X17663235Y27891614D01*
X17700055Y27952522D01*
X18605855Y27952522D01*
X18621828Y27943885D01*
X18642214Y27930134D01*
X18793319Y27805129D01*
X18810647Y27787680D01*
X18934595Y27635705D01*
X18948203Y27615223D01*
X18949893Y27612044D01*
X19082796Y27744947D01*
X20211338Y27744947D01*
X20566306Y27389979D01*
X20921274Y27744947D01*
X20566306Y28099915D01*
X20211338Y27744947D01*
X19082796Y27744947D01*
X18727828Y28099916D01*
X18626658Y27998746D01*
X18605855Y27952522D01*
X17700055Y27952522D01*
X17820232Y28151322D01*
X17944780Y28428060D01*
X18018359Y28664187D01*
X19292099Y28664187D01*
X19647068Y28309219D01*
X20002035Y28664186D01*
X21130577Y28664186D01*
X21485544Y28309219D01*
X21840513Y28664187D01*
X21485545Y29019155D01*
X21130577Y28664186D01*
X20002035Y28664186D01*
X19647067Y29019155D01*
X19292099Y28664187D01*
X18018359Y28664187D01*
X18035063Y28717794D01*
X18062689Y28868548D01*
X18089078Y29012552D01*
X18089079Y29012556D01*
X18089764Y29016297D01*
X18094871Y29100729D01*
X18103046Y29235905D01*
X18106219Y29288373D01*
X18107736Y29301671D01*
X18107769Y29301869D01*
X18107769Y29301870D01*
X18108576Y29306666D01*
X18108729Y29319218D01*
X18104758Y29346944D01*
X18103486Y29364762D01*
X18103486Y29366870D01*
X18103371Y29764851D01*
X18901370Y29764851D01*
X18901474Y29406294D01*
X18901869Y29402498D01*
X19082796Y29583425D01*
X20211338Y29583425D01*
X20566306Y29228457D01*
X20921274Y29583425D01*
X22049816Y29583425D01*
X22404783Y29228458D01*
X22759752Y29583426D01*
X22404784Y29938394D01*
X22049816Y29583425D01*
X20921274Y29583425D01*
X20566306Y29938393D01*
X20211338Y29583425D01*
X19082796Y29583425D01*
X18901370Y29764851D01*
X18103371Y29764851D01*
X18103157Y30502664D01*
X19292099Y30502664D01*
X19647067Y30147696D01*
X20002035Y30502665D01*
X21130577Y30502665D01*
X21485545Y30147696D01*
X21822389Y30484540D01*
X22987178Y30484540D01*
X23324022Y30147696D01*
X23616833Y30440507D01*
X23558778Y30459370D01*
X23536244Y30469215D01*
X23365055Y30564889D01*
X23344862Y30578923D01*
X23251631Y30658269D01*
X23115994Y30552297D01*
X23095230Y30539120D01*
X22987178Y30484540D01*
X21822389Y30484540D01*
X21840513Y30502664D01*
X21485544Y30857632D01*
X21130577Y30502665D01*
X20002035Y30502665D01*
X19647068Y30857632D01*
X19292099Y30502664D01*
X18103157Y30502664D01*
X18102838Y31603863D01*
X18900837Y31603863D01*
X18900943Y31240050D01*
X19082796Y31421904D01*
X20211338Y31421904D01*
X20566306Y31066936D01*
X20921274Y31421904D01*
X20566306Y31776872D01*
X20211338Y31421904D01*
X19082796Y31421904D01*
X18900837Y31603863D01*
X18102838Y31603863D01*
X18102625Y32341142D01*
X19292099Y32341142D01*
X19647068Y31986174D01*
X20002035Y32341141D01*
X19890271Y32452905D01*
X21492001Y32452905D01*
X21492338Y32446386D01*
X21502257Y32350794D01*
X21505149Y32337400D01*
X21556588Y32183216D01*
X21562761Y32170038D01*
X21648063Y32032193D01*
X21657099Y32020792D01*
X21771829Y31906261D01*
X21783240Y31897249D01*
X21921243Y31812184D01*
X21934424Y31806037D01*
X22088710Y31754862D01*
X22102086Y31751995D01*
X22196438Y31742328D01*
X22202854Y31742000D01*
X23727885Y31742000D01*
X23743124Y31746475D01*
X23744329Y31747865D01*
X23746000Y31755548D01*
X23746000Y31760116D01*
X24254000Y31760116D01*
X24258475Y31744877D01*
X24259865Y31743672D01*
X24267548Y31742001D01*
X25797095Y31742001D01*
X25803614Y31742338D01*
X25899206Y31752257D01*
X25912600Y31755149D01*
X26066784Y31806588D01*
X26079962Y31812761D01*
X26217807Y31898063D01*
X26229208Y31907099D01*
X26343739Y32021829D01*
X26352751Y32033240D01*
X26437816Y32171243D01*
X26443963Y32184424D01*
X26495138Y32338710D01*
X26498005Y32352086D01*
X26507672Y32446438D01*
X26508000Y32452854D01*
X26508000Y33227885D01*
X26503525Y33243124D01*
X26502135Y33244329D01*
X26494452Y33246000D01*
X24272115Y33246000D01*
X24256876Y33241525D01*
X24255671Y33240135D01*
X24254000Y33232452D01*
X24254000Y31760116D01*
X23746000Y31760116D01*
X23746000Y33227885D01*
X23741525Y33243124D01*
X23740135Y33244329D01*
X23732452Y33246000D01*
X21510116Y33246000D01*
X21494877Y33241525D01*
X21493672Y33240135D01*
X21492001Y33232452D01*
X21492001Y32452905D01*
X19890271Y32452905D01*
X19647067Y32696110D01*
X19292099Y32341142D01*
X18102625Y32341142D01*
X18102306Y33442871D01*
X18900305Y33442871D01*
X18900411Y33077995D01*
X19082796Y33260380D01*
X20211338Y33260380D01*
X20566306Y32905412D01*
X20694001Y33033107D01*
X20694001Y33246000D01*
X20694723Y33259468D01*
X20707200Y33375526D01*
X20709357Y33388841D01*
X20720743Y33441183D01*
X20722354Y33447735D01*
X20724844Y33456811D01*
X20566306Y33615349D01*
X20211338Y33260380D01*
X19082796Y33260380D01*
X18900305Y33442871D01*
X18102306Y33442871D01*
X18102210Y33772115D01*
X21492000Y33772115D01*
X21496475Y33756876D01*
X21497865Y33755671D01*
X21505548Y33754000D01*
X23727885Y33754000D01*
X23743124Y33758475D01*
X23744329Y33759865D01*
X23746000Y33767548D01*
X23746000Y33772115D01*
X24254000Y33772115D01*
X24258475Y33756876D01*
X24259865Y33755671D01*
X24267548Y33754000D01*
X26489884Y33754000D01*
X26505123Y33758475D01*
X26506328Y33759865D01*
X26507999Y33767548D01*
X26507999Y34179620D01*
X28484487Y34179620D01*
X28551762Y34112345D01*
X28693500Y34164635D01*
X28693500Y34388633D01*
X28484487Y34179620D01*
X26507999Y34179620D01*
X26507999Y34547095D01*
X26507662Y34553614D01*
X26497743Y34649206D01*
X26494851Y34662600D01*
X26443412Y34816784D01*
X26437239Y34829962D01*
X26351937Y34967807D01*
X26342901Y34979208D01*
X26228171Y35093739D01*
X26221688Y35098859D01*
X27565249Y35098859D01*
X27920217Y34743890D01*
X28275185Y35098858D01*
X28095606Y35278436D01*
X35098737Y35278436D01*
X35120130Y35243866D01*
X35123795Y35237541D01*
X35153939Y35181850D01*
X35157231Y35175324D01*
X35169611Y35148897D01*
X35172520Y35142186D01*
X35196019Y35083360D01*
X35198533Y35076495D01*
X35254509Y34908715D01*
X35256509Y34902125D01*
X35272271Y34844580D01*
X35273908Y34837891D01*
X35279711Y34811019D01*
X35280980Y34804254D01*
X35288336Y34758100D01*
X35629095Y35098859D01*
X35274128Y35453826D01*
X35098737Y35278436D01*
X28095606Y35278436D01*
X27920216Y35453826D01*
X27565249Y35098859D01*
X26221688Y35098859D01*
X26216760Y35102751D01*
X26078757Y35187816D01*
X26065576Y35193963D01*
X25911290Y35245138D01*
X25897914Y35248005D01*
X25803562Y35257672D01*
X25797145Y35258000D01*
X24272115Y35258000D01*
X24256876Y35253525D01*
X24255671Y35252135D01*
X24254000Y35244452D01*
X24254000Y33772115D01*
X23746000Y33772115D01*
X23746000Y35239884D01*
X23741525Y35255123D01*
X23740135Y35256328D01*
X23732452Y35257999D01*
X22202905Y35257999D01*
X22196386Y35257662D01*
X22100794Y35247743D01*
X22087400Y35244851D01*
X21933216Y35193412D01*
X21920038Y35187239D01*
X21782193Y35101937D01*
X21770792Y35092901D01*
X21656261Y34978171D01*
X21647249Y34966760D01*
X21562184Y34828757D01*
X21556037Y34815576D01*
X21504862Y34661290D01*
X21501995Y34647914D01*
X21492328Y34553562D01*
X21492000Y34547145D01*
X21492000Y33772115D01*
X18102210Y33772115D01*
X18102092Y34179620D01*
X19292099Y34179620D01*
X19647068Y33824652D01*
X20002035Y34179619D01*
X19647067Y34534588D01*
X19292099Y34179620D01*
X18102092Y34179620D01*
X18101773Y35281883D01*
X18899772Y35281883D01*
X18899878Y34915941D01*
X19082796Y35098859D01*
X20211338Y35098859D01*
X20566306Y34743891D01*
X20753647Y34931231D01*
X20800920Y35073754D01*
X20803422Y35080624D01*
X20826815Y35139482D01*
X20829711Y35146194D01*
X20842044Y35172642D01*
X20843865Y35176268D01*
X20566306Y35453827D01*
X20211338Y35098859D01*
X19082796Y35098859D01*
X18899772Y35281883D01*
X18101773Y35281883D01*
X18101560Y36018097D01*
X19292099Y36018097D01*
X19647067Y35663129D01*
X20002034Y36018097D01*
X21130576Y36018097D01*
X21365908Y35782765D01*
X21506348Y35869673D01*
X21512672Y35873337D01*
X21568363Y35903482D01*
X21574890Y35906775D01*
X21601317Y35919155D01*
X21608027Y35922063D01*
X21666855Y35945563D01*
X21673721Y35948078D01*
X21818943Y35996527D01*
X21840513Y36018097D01*
X21840512Y36018098D01*
X26646010Y36018098D01*
X27000978Y35663129D01*
X27355946Y36018097D01*
X28484487Y36018097D01*
X28839455Y35663129D01*
X29194423Y36018098D01*
X29175800Y36036721D01*
X34018545Y36036721D01*
X34051820Y36031466D01*
X34058578Y36030209D01*
X34085402Y36024458D01*
X34092078Y36022835D01*
X34149509Y36007204D01*
X34156086Y36005220D01*
X34323963Y35949538D01*
X34330832Y35947037D01*
X34389685Y35923647D01*
X34396398Y35920750D01*
X34422847Y35908417D01*
X34429382Y35905136D01*
X34485141Y35875081D01*
X34491473Y35871427D01*
X34535838Y35844080D01*
X34709856Y36018098D01*
X35838398Y36018098D01*
X36193366Y35663129D01*
X36548334Y36018097D01*
X36193365Y36373065D01*
X35838398Y36018098D01*
X34709856Y36018098D01*
X34354889Y36373065D01*
X34018545Y36036721D01*
X29175800Y36036721D01*
X29156021Y36056500D01*
X30361367Y36056500D01*
X30994497Y36056500D01*
X32199845Y36056500D01*
X32832975Y36056500D01*
X32516410Y36373065D01*
X32199845Y36056500D01*
X30994497Y36056500D01*
X30677932Y36373065D01*
X30361367Y36056500D01*
X29156021Y36056500D01*
X28839456Y36373065D01*
X28484487Y36018097D01*
X27355946Y36018097D01*
X27000977Y36373065D01*
X26646010Y36018098D01*
X21840512Y36018098D01*
X21802611Y36055999D01*
X23006957Y36055999D01*
X23641089Y36055999D01*
X23641088Y36056000D01*
X24845436Y36056000D01*
X25479566Y36056000D01*
X25162501Y36373065D01*
X24845436Y36056000D01*
X23641088Y36056000D01*
X23324023Y36373065D01*
X23006957Y36055999D01*
X21802611Y36055999D01*
X21485544Y36373065D01*
X21130576Y36018097D01*
X20002034Y36018097D01*
X20002035Y36018098D01*
X19647068Y36373065D01*
X19292099Y36018097D01*
X18101560Y36018097D01*
X18101293Y36937337D01*
X20211338Y36937337D01*
X20566306Y36582369D01*
X20921274Y36937337D01*
X22049816Y36937337D01*
X22404784Y36582368D01*
X22759752Y36937336D01*
X23888293Y36937336D01*
X24243261Y36582368D01*
X24598229Y36937337D01*
X25726771Y36937337D01*
X26081739Y36582368D01*
X26436707Y36937336D01*
X26436706Y36937337D01*
X27565249Y36937337D01*
X27920217Y36582368D01*
X28275185Y36937336D01*
X29403726Y36937336D01*
X29758694Y36582368D01*
X30113662Y36937337D01*
X31242204Y36937337D01*
X31597172Y36582368D01*
X31952140Y36937336D01*
X33080681Y36937336D01*
X33435649Y36582368D01*
X33790616Y36937336D01*
X34919159Y36937336D01*
X35274127Y36582368D01*
X35629095Y36937337D01*
X35274128Y37292304D01*
X34919159Y36937336D01*
X33790616Y36937336D01*
X33790617Y36937337D01*
X33435650Y37292304D01*
X33080681Y36937336D01*
X31952140Y36937336D01*
X31597171Y37292304D01*
X31242204Y36937337D01*
X30113662Y36937337D01*
X29758695Y37292304D01*
X29403726Y36937336D01*
X28275185Y36937336D01*
X27920216Y37292304D01*
X27565249Y36937337D01*
X26436706Y36937337D01*
X26081738Y37292304D01*
X25726771Y36937337D01*
X24598229Y36937337D01*
X24243262Y37292304D01*
X23888293Y36937336D01*
X22759752Y36937336D01*
X22404783Y37292304D01*
X22049816Y36937337D01*
X20921274Y36937337D01*
X20611851Y37246760D01*
X20581352Y37217919D01*
X20576274Y37213370D01*
X20531232Y37175172D01*
X20525916Y37170906D01*
X20504237Y37154451D01*
X20498697Y37150477D01*
X20449798Y37117371D01*
X20444053Y37113705D01*
X20302884Y37028883D01*
X20211338Y36937337D01*
X18101293Y36937337D01*
X18101242Y37113705D01*
X18100826Y38549216D01*
X18619707Y38549216D01*
X18629674Y38359038D01*
X18631485Y38352465D01*
X18631485Y38352462D01*
X18678433Y38182018D01*
X18680246Y38175436D01*
X18769064Y38006978D01*
X18773469Y38001765D01*
X18773472Y38001761D01*
X18839284Y37923884D01*
X18891985Y37861521D01*
X19043272Y37745853D01*
X19049455Y37742970D01*
X19049458Y37742968D01*
X19134828Y37703160D01*
X19215869Y37665370D01*
X19401721Y37623827D01*
X19407569Y37623500D01*
X19547573Y37623500D01*
X19689325Y37638899D01*
X19695788Y37641074D01*
X19695792Y37641075D01*
X19863346Y37697464D01*
X19863348Y37697465D01*
X19869817Y37699642D01*
X20033056Y37797725D01*
X20038016Y37802415D01*
X20095288Y37856574D01*
X21130577Y37856574D01*
X21485544Y37501607D01*
X21840513Y37856575D01*
X22969054Y37856575D01*
X23324023Y37501607D01*
X23678990Y37856574D01*
X23678989Y37856575D01*
X24807532Y37856575D01*
X25162501Y37501607D01*
X25517468Y37856574D01*
X26646010Y37856574D01*
X27000977Y37501607D01*
X27355946Y37856575D01*
X28484487Y37856575D01*
X28839456Y37501607D01*
X29194423Y37856574D01*
X30322965Y37856574D01*
X30677932Y37501607D01*
X31032900Y37856574D01*
X32161443Y37856574D01*
X32516410Y37501607D01*
X32871379Y37856575D01*
X33999920Y37856575D01*
X34354889Y37501607D01*
X34709856Y37856574D01*
X35838398Y37856574D01*
X36193365Y37501607D01*
X36548334Y37856575D01*
X36193366Y38211543D01*
X35838398Y37856574D01*
X34709856Y37856574D01*
X34709857Y37856575D01*
X34630301Y37936131D01*
X34558778Y37959370D01*
X34536244Y37969215D01*
X34365055Y38064889D01*
X34344862Y38078923D01*
X34278633Y38135288D01*
X33999920Y37856575D01*
X32871379Y37856575D01*
X32516411Y38211543D01*
X32161443Y37856574D01*
X31032900Y37856574D01*
X31032901Y37856575D01*
X30677933Y38211543D01*
X30322965Y37856574D01*
X29194423Y37856574D01*
X28839455Y38211543D01*
X28484487Y37856575D01*
X27355946Y37856575D01*
X27000978Y38211543D01*
X26646010Y37856574D01*
X25517468Y37856574D01*
X25162500Y38211543D01*
X24807532Y37856575D01*
X23678989Y37856575D01*
X23324022Y38211543D01*
X22969054Y37856575D01*
X21840513Y37856575D01*
X21485545Y38211543D01*
X21130577Y37856574D01*
X20095288Y37856574D01*
X20166466Y37923884D01*
X20166468Y37923886D01*
X20171424Y37928573D01*
X20278467Y38086082D01*
X20311791Y38169397D01*
X20346656Y38256565D01*
X20346657Y38256570D01*
X20349190Y38262902D01*
X20380293Y38450784D01*
X20370326Y38640962D01*
X20342101Y38743435D01*
X20333182Y38775813D01*
X22049816Y38775813D01*
X22404783Y38420846D01*
X22759752Y38775814D01*
X23888293Y38775814D01*
X24243262Y38420846D01*
X24598229Y38775813D01*
X25726771Y38775813D01*
X26081738Y38420846D01*
X26436706Y38775813D01*
X27565249Y38775813D01*
X27920216Y38420846D01*
X28275185Y38775814D01*
X29403726Y38775814D01*
X29758695Y38420846D01*
X30113662Y38775813D01*
X31242204Y38775813D01*
X31597171Y38420846D01*
X31952140Y38775814D01*
X33080681Y38775814D01*
X33435650Y38420846D01*
X33790617Y38775813D01*
X33435649Y39130782D01*
X33080681Y38775814D01*
X31952140Y38775814D01*
X31597172Y39130782D01*
X31242204Y38775813D01*
X30113662Y38775813D01*
X29758694Y39130782D01*
X29403726Y38775814D01*
X28275185Y38775814D01*
X27920217Y39130782D01*
X27565249Y38775813D01*
X26436706Y38775813D01*
X26436707Y38775814D01*
X26081739Y39130782D01*
X25726771Y38775813D01*
X24598229Y38775813D01*
X24243261Y39130782D01*
X23888293Y38775814D01*
X22759752Y38775814D01*
X22404784Y39130782D01*
X22049816Y38775813D01*
X20333182Y38775813D01*
X20321567Y38817982D01*
X20319754Y38824564D01*
X20230936Y38993022D01*
X20226531Y38998235D01*
X20226528Y38998239D01*
X20112420Y39133266D01*
X20108015Y39138479D01*
X19956728Y39254147D01*
X19950545Y39257030D01*
X19950542Y39257032D01*
X19852957Y39302536D01*
X19784131Y39334630D01*
X19598279Y39376173D01*
X19592431Y39376500D01*
X19452427Y39376500D01*
X19310675Y39361101D01*
X19304212Y39358926D01*
X19304208Y39358925D01*
X19136654Y39302536D01*
X19136652Y39302535D01*
X19130183Y39300358D01*
X18966944Y39202275D01*
X18961986Y39197587D01*
X18961984Y39197585D01*
X18893969Y39133266D01*
X18828576Y39071427D01*
X18721533Y38913918D01*
X18719000Y38907584D01*
X18718998Y38907581D01*
X18653344Y38743435D01*
X18653343Y38743430D01*
X18650810Y38737098D01*
X18619707Y38549216D01*
X18100826Y38549216D01*
X18100494Y39695052D01*
X21130577Y39695052D01*
X21485544Y39340085D01*
X21840513Y39695053D01*
X22969054Y39695053D01*
X23324023Y39340085D01*
X23678990Y39695052D01*
X23678989Y39695053D01*
X24807532Y39695053D01*
X25162501Y39340085D01*
X25517468Y39695052D01*
X26646010Y39695052D01*
X27000977Y39340085D01*
X27355946Y39695053D01*
X28484487Y39695053D01*
X28839456Y39340085D01*
X29194423Y39695052D01*
X30322965Y39695052D01*
X30677932Y39340085D01*
X31032900Y39695052D01*
X32161443Y39695052D01*
X32516410Y39340085D01*
X32871379Y39695053D01*
X33999920Y39695053D01*
X34062955Y39632018D01*
X34074372Y39648692D01*
X34135362Y39721377D01*
X35864722Y39721377D01*
X35934595Y39635705D01*
X35948203Y39615223D01*
X35982239Y39551211D01*
X36193365Y39340085D01*
X36548334Y39695053D01*
X36193366Y40050021D01*
X35864722Y39721377D01*
X34135362Y39721377D01*
X34200429Y39798921D01*
X34217999Y39816127D01*
X34370835Y39939010D01*
X34391412Y39952475D01*
X34431484Y39973424D01*
X34354888Y40050021D01*
X33999920Y39695053D01*
X32871379Y39695053D01*
X32516411Y40050021D01*
X32161443Y39695052D01*
X31032900Y39695052D01*
X31032901Y39695053D01*
X30677933Y40050021D01*
X30322965Y39695052D01*
X29194423Y39695052D01*
X28839455Y40050021D01*
X28484487Y39695053D01*
X27355946Y39695053D01*
X27000978Y40050021D01*
X26646010Y39695052D01*
X25517468Y39695052D01*
X25162500Y40050021D01*
X24807532Y39695053D01*
X23678989Y39695053D01*
X23324022Y40050021D01*
X22969054Y39695053D01*
X21840513Y39695053D01*
X21485545Y40050021D01*
X21130577Y39695052D01*
X18100494Y39695052D01*
X18100395Y40036473D01*
X18101895Y40055893D01*
X18104191Y40070637D01*
X18104191Y40070642D01*
X18105572Y40079511D01*
X18103577Y40094768D01*
X18102834Y40120090D01*
X18114918Y40289053D01*
X18117476Y40306848D01*
X18158880Y40497182D01*
X18163946Y40514432D01*
X18201192Y40614292D01*
X20211338Y40614292D01*
X20566306Y40259324D01*
X20921274Y40614292D01*
X22049816Y40614292D01*
X22404784Y40259323D01*
X22759752Y40614291D01*
X23888293Y40614291D01*
X24243261Y40259323D01*
X24598229Y40614292D01*
X25726771Y40614292D01*
X26081739Y40259323D01*
X26436707Y40614291D01*
X26436706Y40614292D01*
X27565249Y40614292D01*
X27920217Y40259323D01*
X28275185Y40614291D01*
X29403726Y40614291D01*
X29758694Y40259323D01*
X30113662Y40614292D01*
X31242204Y40614292D01*
X31597172Y40259323D01*
X31952140Y40614291D01*
X33080681Y40614291D01*
X33435649Y40259323D01*
X33790616Y40614291D01*
X34919159Y40614291D01*
X35274127Y40259323D01*
X35629095Y40614292D01*
X35464100Y40779287D01*
X35084155Y40779287D01*
X34919159Y40614291D01*
X33790616Y40614291D01*
X33790617Y40614292D01*
X33625623Y40779286D01*
X33245676Y40779286D01*
X33080681Y40614291D01*
X31952140Y40614291D01*
X31787145Y40779286D01*
X31407198Y40779286D01*
X31242204Y40614292D01*
X30113662Y40614292D01*
X29948668Y40779286D01*
X29568720Y40779285D01*
X29403726Y40614291D01*
X28275185Y40614291D01*
X28110191Y40779285D01*
X27730242Y40779285D01*
X27565249Y40614292D01*
X26436706Y40614292D01*
X26271713Y40779285D01*
X25891764Y40779285D01*
X25726771Y40614292D01*
X24598229Y40614292D01*
X24433237Y40779284D01*
X24053286Y40779284D01*
X23888293Y40614291D01*
X22759752Y40614291D01*
X22594759Y40779284D01*
X22214808Y40779284D01*
X22049816Y40614292D01*
X20921274Y40614292D01*
X20756283Y40779283D01*
X20376329Y40779283D01*
X20211338Y40614292D01*
X18201192Y40614292D01*
X18232011Y40696919D01*
X18239479Y40713272D01*
X18239491Y40713293D01*
X18275526Y40779286D01*
X18332828Y40884225D01*
X18342547Y40899349D01*
X18342566Y40899374D01*
X18459279Y41055281D01*
X18471044Y41068857D01*
X18608776Y41206584D01*
X18622363Y41218357D01*
X18778295Y41335082D01*
X18793420Y41344801D01*
X18964367Y41438139D01*
X18980720Y41445607D01*
X19162416Y41513370D01*
X19163224Y41513671D01*
X19180469Y41518734D01*
X19370804Y41560132D01*
X19388583Y41562688D01*
X19550740Y41574280D01*
X19567736Y41573573D01*
X19567736Y41573584D01*
X19576712Y41573474D01*
X19585584Y41572092D01*
X19594488Y41573256D01*
X19594527Y41573261D01*
X19617163Y41576220D01*
X19633494Y41577283D01*
X27126335Y41577285D01*
X36036419Y41577287D01*
X36055804Y41575787D01*
G37*
%TD.AperFunction*%
%TA.AperFunction,Conductor*%
G36*
X37580964Y13907414D02*
G01*
X37634287Y13860540D01*
X37653805Y13793545D01*
X37659776Y11741926D01*
X37639974Y11673750D01*
X37586454Y11627101D01*
X37533778Y11615562D01*
X36822115Y11615562D01*
X36806876Y11611087D01*
X36805671Y11609697D01*
X36804000Y11602014D01*
X36804000Y8617678D01*
X36808475Y8602439D01*
X36809865Y8601234D01*
X36817548Y8599563D01*
X37543289Y8599563D01*
X37611410Y8579561D01*
X37657903Y8525905D01*
X37669288Y8473930D01*
X37671298Y7783369D01*
X37674834Y6568414D01*
X37673335Y6548663D01*
X37671966Y6539867D01*
X37669788Y6525881D01*
X37671470Y6513020D01*
X37671783Y6510629D01*
X37672526Y6485303D01*
X37665622Y6388770D01*
X37660441Y6316335D01*
X37657883Y6298541D01*
X37616479Y6108207D01*
X37611414Y6090957D01*
X37543344Y5908455D01*
X37535878Y5892107D01*
X37442525Y5721145D01*
X37432814Y5706034D01*
X37349334Y5594518D01*
X37316084Y5550102D01*
X37304311Y5536515D01*
X37166578Y5398783D01*
X37152991Y5387010D01*
X36997063Y5270285D01*
X36981940Y5260566D01*
X36810983Y5167218D01*
X36794630Y5159750D01*
X36612131Y5091683D01*
X36594882Y5086618D01*
X36517960Y5069885D01*
X36404546Y5045214D01*
X36386756Y5042657D01*
X36224820Y5031077D01*
X36207126Y5031813D01*
X36198630Y5031917D01*
X36189760Y5033298D01*
X36180858Y5032134D01*
X36157988Y5029144D01*
X36141731Y5028081D01*
X28676035Y5023447D01*
X19551475Y5017783D01*
X19483342Y5037743D01*
X19436816Y5091370D01*
X19426668Y5161637D01*
X19456121Y5226236D01*
X19490447Y5254061D01*
X19510030Y5264884D01*
X19627553Y5329838D01*
X19720156Y5381019D01*
X19720158Y5381021D01*
X19723246Y5382727D01*
X19959096Y5550073D01*
X20037029Y5619718D01*
X20128729Y5701666D01*
X20135461Y5707273D01*
X20152238Y5720287D01*
X20152244Y5720292D01*
X20155031Y5722454D01*
X20175318Y5742182D01*
X20193681Y5764537D01*
X20213820Y5784121D01*
X20223860Y5791909D01*
X20223861Y5791910D01*
X20226647Y5794071D01*
X20246934Y5813799D01*
X20249907Y5817418D01*
X22184017Y5817418D01*
X22625276Y5817692D01*
X22624408Y5818560D01*
X24023638Y5818560D01*
X24462614Y5818832D01*
X24461744Y5819702D01*
X25863256Y5819702D01*
X26299950Y5819973D01*
X26299079Y5820844D01*
X27702876Y5820844D01*
X28137287Y5821113D01*
X28136415Y5821985D01*
X29542496Y5821985D01*
X29974626Y5822253D01*
X29973752Y5823127D01*
X31382114Y5823127D01*
X31811961Y5823394D01*
X31597171Y6038184D01*
X31382114Y5823127D01*
X29973752Y5823127D01*
X29758695Y6038184D01*
X29542496Y5821985D01*
X28136415Y5821985D01*
X27920216Y6038184D01*
X27702876Y5820844D01*
X26299079Y5820844D01*
X26081738Y6038184D01*
X25863256Y5819702D01*
X24461744Y5819702D01*
X24243262Y6038184D01*
X24023638Y5818560D01*
X22624408Y5818560D01*
X22404783Y6038184D01*
X22184017Y5817418D01*
X20249907Y5817418D01*
X20252006Y5819973D01*
X20263559Y5834039D01*
X20266972Y5838023D01*
X20298105Y5872862D01*
X20420485Y6009808D01*
X20571940Y6223266D01*
X20588495Y6253220D01*
X21479812Y6253220D01*
X21485545Y6247487D01*
X21840513Y6602455D01*
X22969054Y6602455D01*
X23324022Y6247487D01*
X23678989Y6602455D01*
X24807532Y6602455D01*
X25162500Y6247487D01*
X25517468Y6602456D01*
X26646010Y6602456D01*
X27000978Y6247487D01*
X27355946Y6602455D01*
X28484487Y6602455D01*
X28839455Y6247487D01*
X29194423Y6602456D01*
X30322965Y6602456D01*
X30677933Y6247487D01*
X31032901Y6602455D01*
X31032900Y6602456D01*
X32161443Y6602456D01*
X32516411Y6247487D01*
X32871379Y6602455D01*
X32516410Y6957423D01*
X32161443Y6602456D01*
X31032900Y6602456D01*
X30677932Y6957423D01*
X30322965Y6602456D01*
X29194423Y6602456D01*
X28839456Y6957423D01*
X28484487Y6602455D01*
X27355946Y6602455D01*
X27000977Y6957423D01*
X26646010Y6602456D01*
X25517468Y6602456D01*
X25162501Y6957423D01*
X24807532Y6602455D01*
X23678989Y6602455D01*
X23678990Y6602456D01*
X23324023Y6957423D01*
X22969054Y6602455D01*
X21840513Y6602455D01*
X21653462Y6789506D01*
X21651266Y6778466D01*
X21650528Y6775012D01*
X21647384Y6761237D01*
X21646550Y6757805D01*
X21638901Y6728149D01*
X21637970Y6724737D01*
X21565515Y6473236D01*
X21564488Y6469851D01*
X21555184Y6440662D01*
X21554064Y6437311D01*
X21549397Y6423974D01*
X21548183Y6420656D01*
X21537264Y6392052D01*
X21535958Y6388770D01*
X21479812Y6253220D01*
X20588495Y6253220D01*
X20665223Y6392052D01*
X20696833Y6449247D01*
X20696836Y6449253D01*
X20698542Y6452340D01*
X20798701Y6694148D01*
X20871156Y6945649D01*
X20888753Y7049216D01*
X33619707Y7049216D01*
X33620064Y7042399D01*
X33620064Y7042395D01*
X33628273Y6885779D01*
X33629674Y6859038D01*
X33631485Y6852465D01*
X33631485Y6852462D01*
X33666666Y6724737D01*
X33680246Y6675436D01*
X33769064Y6506978D01*
X33773469Y6501765D01*
X33773472Y6501761D01*
X33839208Y6423974D01*
X33891985Y6361521D01*
X33897404Y6357378D01*
X33897406Y6357376D01*
X33962845Y6307344D01*
X34043272Y6245853D01*
X34049455Y6242970D01*
X34049458Y6242968D01*
X34085096Y6226350D01*
X34215869Y6165370D01*
X34401721Y6123827D01*
X34407569Y6123500D01*
X34547573Y6123500D01*
X34689325Y6138899D01*
X34695788Y6141074D01*
X34695792Y6141075D01*
X34863346Y6197464D01*
X34863348Y6197465D01*
X34869817Y6199642D01*
X35033056Y6297725D01*
X35088231Y6349901D01*
X35166466Y6423884D01*
X35166468Y6423886D01*
X35171424Y6428573D01*
X35278467Y6586082D01*
X35285016Y6602455D01*
X35346656Y6756565D01*
X35346657Y6756570D01*
X35349190Y6762902D01*
X35372777Y6905380D01*
X35379178Y6944046D01*
X35379178Y6944050D01*
X35380293Y6950784D01*
X35377252Y7008821D01*
X35370683Y7134149D01*
X35370326Y7140962D01*
X35363230Y7166726D01*
X35321567Y7317982D01*
X35319754Y7324564D01*
X35230936Y7493022D01*
X35226531Y7498235D01*
X35226528Y7498239D01*
X35206708Y7521693D01*
X36757637Y7521693D01*
X36874397Y7404933D01*
X36873719Y7637776D01*
X36757637Y7521693D01*
X35206708Y7521693D01*
X35138353Y7602579D01*
X35108015Y7638479D01*
X35050648Y7682340D01*
X34962151Y7750001D01*
X34962150Y7750002D01*
X34956728Y7754147D01*
X34950545Y7757030D01*
X34950542Y7757032D01*
X34845818Y7805865D01*
X34784131Y7834630D01*
X34598279Y7876173D01*
X34592431Y7876500D01*
X34452427Y7876500D01*
X34310675Y7861101D01*
X34304212Y7858926D01*
X34304208Y7858925D01*
X34136654Y7802536D01*
X34136652Y7802535D01*
X34130183Y7800358D01*
X33966944Y7702275D01*
X33961986Y7697587D01*
X33961984Y7697585D01*
X33848208Y7589992D01*
X33828576Y7571427D01*
X33721533Y7413918D01*
X33719000Y7407584D01*
X33718998Y7407581D01*
X33653344Y7243435D01*
X33653343Y7243430D01*
X33650810Y7237098D01*
X33641248Y7179339D01*
X33628499Y7102323D01*
X33619707Y7049216D01*
X20888753Y7049216D01*
X20914997Y7203681D01*
X20925915Y7398096D01*
X20926710Y7406821D01*
X20926806Y7407581D01*
X20930485Y7436705D01*
X20930880Y7465000D01*
X20926601Y7508640D01*
X20926000Y7520936D01*
X20926000Y7521693D01*
X22049816Y7521693D01*
X22404783Y7166726D01*
X22759752Y7521694D01*
X23888293Y7521694D01*
X24243262Y7166726D01*
X24598229Y7521693D01*
X25726771Y7521693D01*
X26081738Y7166726D01*
X26436706Y7521693D01*
X27565249Y7521693D01*
X27920216Y7166726D01*
X28275185Y7521694D01*
X29403726Y7521694D01*
X29758695Y7166726D01*
X30113662Y7521693D01*
X31242204Y7521693D01*
X31597171Y7166726D01*
X31952140Y7521694D01*
X31597172Y7876662D01*
X31242204Y7521693D01*
X30113662Y7521693D01*
X29758694Y7876662D01*
X29403726Y7521694D01*
X28275185Y7521694D01*
X28048379Y7748500D01*
X27792056Y7748500D01*
X27565249Y7521693D01*
X26436706Y7521693D01*
X26436707Y7521694D01*
X26081739Y7876662D01*
X25726771Y7521693D01*
X24598229Y7521693D01*
X24243261Y7876662D01*
X23888293Y7521694D01*
X22759752Y7521694D01*
X22532946Y7748500D01*
X22276623Y7748500D01*
X22049816Y7521693D01*
X20926000Y7521693D01*
X20926000Y7805119D01*
X20926995Y7820919D01*
X20930041Y7845019D01*
X20930483Y7848515D01*
X20930680Y7862546D01*
X20930831Y7873285D01*
X20930831Y7873293D01*
X20930880Y7876810D01*
X20926003Y7926578D01*
X20926000Y7926625D01*
X20926000Y7926647D01*
X20925501Y7931739D01*
X20924973Y7937127D01*
X20924641Y7941186D01*
X20917683Y8047446D01*
X20917683Y8047447D01*
X20917413Y8051568D01*
X20914556Y8065938D01*
X20898436Y8146996D01*
X20883255Y8223338D01*
X20869895Y8262701D01*
X30501196Y8262701D01*
X30677932Y8085965D01*
X30975657Y8383690D01*
X30966628Y8381213D01*
X30964452Y8380637D01*
X30518036Y8266700D01*
X30515850Y8266163D01*
X30501196Y8262701D01*
X20869895Y8262701D01*
X20828293Y8385270D01*
X20828290Y8385277D01*
X20826966Y8389178D01*
X20801446Y8440932D01*
X32161443Y8440932D01*
X32516410Y8085965D01*
X32871379Y8440933D01*
X32516411Y8795901D01*
X32161443Y8440932D01*
X20801446Y8440932D01*
X20749512Y8546252D01*
X20742980Y8556029D01*
X20663995Y8674242D01*
X20652216Y8691871D01*
X20595709Y8756304D01*
X20590881Y8762156D01*
X20564706Y8795901D01*
X20557896Y8804681D01*
X20555448Y8807198D01*
X20555444Y8807203D01*
X20540629Y8822437D01*
X20538168Y8824968D01*
X20533221Y8829032D01*
X20504280Y8852804D01*
X20495161Y8861073D01*
X20480328Y8875906D01*
X20446302Y8938218D01*
X20451367Y9009033D01*
X20480328Y9054096D01*
X21021405Y9595173D01*
X21083717Y9629199D01*
X21154532Y9624134D01*
X21211368Y9581587D01*
X21236179Y9515067D01*
X21236500Y9506078D01*
X21236500Y9006866D01*
X21243255Y8944684D01*
X21294385Y8808295D01*
X21381739Y8691739D01*
X21498295Y8604385D01*
X21634684Y8553255D01*
X21696866Y8546500D01*
X23493134Y8546500D01*
X23555316Y8553255D01*
X23691705Y8604385D01*
X23808261Y8691739D01*
X23895615Y8808295D01*
X23898767Y8816704D01*
X23903077Y8824575D01*
X23904741Y8823664D01*
X23940663Y8871490D01*
X24007224Y8896193D01*
X24016009Y8896500D01*
X26173991Y8896500D01*
X26242112Y8876498D01*
X26288605Y8822842D01*
X26290903Y8817306D01*
X26291232Y8816704D01*
X26294385Y8808295D01*
X26381739Y8691739D01*
X26498295Y8604385D01*
X26634684Y8553255D01*
X26696866Y8546500D01*
X28493134Y8546500D01*
X28555316Y8553255D01*
X28691705Y8604385D01*
X28808261Y8691739D01*
X28835239Y8727736D01*
X28890233Y8801113D01*
X28890235Y8801116D01*
X28895615Y8808295D01*
X28898765Y8816698D01*
X28903077Y8824574D01*
X28905213Y8823405D01*
X28940000Y8869714D01*
X29010845Y8894641D01*
X29134463Y8899055D01*
X29409198Y8908866D01*
X29867285Y8958112D01*
X29905464Y8965000D01*
X30318482Y9039514D01*
X30318494Y9039517D01*
X30320691Y9039913D01*
X30602516Y9111842D01*
X30764926Y9153293D01*
X30764935Y9153296D01*
X30767107Y9153850D01*
X30769238Y9154559D01*
X30769244Y9154561D01*
X31202121Y9298633D01*
X31202123Y9298634D01*
X31204257Y9299344D01*
X31206324Y9300200D01*
X31206337Y9300205D01*
X31351113Y9360172D01*
X33080681Y9360172D01*
X33435650Y9005204D01*
X33493339Y9062893D01*
X35042001Y9062893D01*
X35042371Y9056072D01*
X35047895Y9005210D01*
X35051521Y8989958D01*
X35096676Y8869508D01*
X35105214Y8853913D01*
X35181715Y8751838D01*
X35194276Y8739277D01*
X35296351Y8662776D01*
X35311946Y8654238D01*
X35432394Y8609084D01*
X35447649Y8605457D01*
X35498514Y8599931D01*
X35505328Y8599562D01*
X36277885Y8599562D01*
X36293124Y8604037D01*
X36294329Y8605427D01*
X36296000Y8613110D01*
X36296000Y9835447D01*
X36291525Y9850686D01*
X36290135Y9851891D01*
X36282452Y9853562D01*
X35060116Y9853562D01*
X35044877Y9849087D01*
X35043672Y9847697D01*
X35042001Y9840014D01*
X35042001Y9062893D01*
X33493339Y9062893D01*
X33790618Y9360172D01*
X33469656Y9681134D01*
X33317309Y9558368D01*
X33315547Y9556974D01*
X33300164Y9545024D01*
X33298376Y9543661D01*
X33291176Y9538271D01*
X33289366Y9536941D01*
X33273547Y9525533D01*
X33271707Y9524230D01*
X33183490Y9462981D01*
X33080681Y9360172D01*
X31351113Y9360172D01*
X31627831Y9474790D01*
X31627836Y9474792D01*
X31629914Y9475653D01*
X31631924Y9476659D01*
X32039910Y9680878D01*
X32039919Y9680883D01*
X32041909Y9681879D01*
X32438142Y9916970D01*
X32816595Y10179729D01*
X32818324Y10181122D01*
X32818333Y10181129D01*
X32854180Y10210016D01*
X34069314Y10210016D01*
X34263568Y10015762D01*
X34270743Y10048745D01*
X34272354Y10055297D01*
X34287818Y10111665D01*
X34288514Y10113345D01*
X34271221Y10172239D01*
X34267400Y10189805D01*
X34245283Y10343630D01*
X34244000Y10361562D01*
X34244000Y10379677D01*
X35042000Y10379677D01*
X35046475Y10364438D01*
X35047865Y10363233D01*
X35055548Y10361562D01*
X36277885Y10361562D01*
X36293124Y10366037D01*
X36294329Y10367427D01*
X36296000Y10375110D01*
X36296000Y11597446D01*
X36291525Y11612685D01*
X36290135Y11613890D01*
X36282452Y11615561D01*
X35505331Y11615561D01*
X35498510Y11615191D01*
X35447648Y11609667D01*
X35432396Y11606041D01*
X35311946Y11560886D01*
X35296351Y11552348D01*
X35194276Y11475847D01*
X35181715Y11463286D01*
X35105214Y11361211D01*
X35096676Y11345616D01*
X35051522Y11225168D01*
X35047895Y11209913D01*
X35042369Y11159048D01*
X35042000Y11152234D01*
X35042000Y10379677D01*
X34244000Y10379677D01*
X34244000Y10391491D01*
X34136694Y10284185D01*
X34129720Y10275695D01*
X34127450Y10273008D01*
X34107452Y10250003D01*
X34105107Y10247381D01*
X34095586Y10237027D01*
X34093171Y10234472D01*
X34071912Y10212610D01*
X34069421Y10210120D01*
X34069314Y10210016D01*
X32854180Y10210016D01*
X33173595Y10467412D01*
X33173602Y10467418D01*
X33175338Y10468817D01*
X33476486Y10749190D01*
X33485117Y10756531D01*
X33490028Y10760340D01*
X33492800Y10762490D01*
X33513087Y10782218D01*
X33540918Y10816099D01*
X33549186Y10825217D01*
X35492141Y12768172D01*
X35504010Y12778637D01*
X35523235Y12793549D01*
X35523237Y12793551D01*
X35526022Y12795711D01*
X35546309Y12815439D01*
X35551975Y12822337D01*
X35557096Y12828191D01*
X35859697Y13153203D01*
X36092439Y13442014D01*
X36147368Y13510176D01*
X36147370Y13510179D01*
X36148791Y13511942D01*
X36150075Y13513792D01*
X36150083Y13513802D01*
X36183464Y13561880D01*
X36238746Y13606428D01*
X36306675Y13614468D01*
X36308474Y13614183D01*
X36313289Y13613027D01*
X36318218Y13612639D01*
X36318225Y13612638D01*
X36545070Y13594785D01*
X36550000Y13594397D01*
X36786711Y13613027D01*
X36791518Y13614181D01*
X36791524Y13614182D01*
X36962966Y13655342D01*
X37017594Y13668457D01*
X37024026Y13671121D01*
X37232389Y13757427D01*
X37232393Y13757429D01*
X37236963Y13759322D01*
X37274277Y13782188D01*
X37435202Y13880803D01*
X37435208Y13880807D01*
X37439416Y13883386D01*
X37443171Y13886593D01*
X37443175Y13886596D01*
X37445975Y13888988D01*
X37510764Y13918019D01*
X37580964Y13907414D01*
G37*
%TD.AperFunction*%
%TA.AperFunction,Conductor*%
G36*
X31950225Y31660798D02*
G01*
X31985851Y31656802D01*
X32027299Y31660282D01*
X32046075Y31660454D01*
X32071007Y31658820D01*
X32071825Y31658766D01*
X32093851Y31655346D01*
X32107125Y31652061D01*
X32107126Y31652061D01*
X32114548Y31650224D01*
X32114555Y31650224D01*
X32114562Y31650222D01*
X32155090Y31648310D01*
X32156086Y31648263D01*
X32174730Y31645981D01*
X32200082Y31640938D01*
X32221472Y31634673D01*
X32237423Y31628422D01*
X32241312Y31626898D01*
X32241327Y31626895D01*
X32241338Y31626891D01*
X32245816Y31626085D01*
X32245817Y31626085D01*
X32282249Y31619530D01*
X32300438Y31614834D01*
X32324906Y31606528D01*
X32345286Y31597529D01*
X32363972Y31587215D01*
X32363979Y31587213D01*
X32363986Y31587209D01*
X32403594Y31574569D01*
X32420995Y31567548D01*
X32444151Y31556129D01*
X32463184Y31544545D01*
X32480364Y31531879D01*
X32517984Y31514176D01*
X32534334Y31504935D01*
X32555815Y31490581D01*
X32573169Y31476617D01*
X32588553Y31461814D01*
X32609775Y31448190D01*
X32629074Y31432949D01*
X32636059Y31426227D01*
X32636064Y31426223D01*
X32640499Y31421955D01*
X32645679Y31418630D01*
X32647512Y31417182D01*
X32656591Y31410556D01*
X32680667Y31390675D01*
X32687859Y31384736D01*
X32696206Y31377192D01*
X32702927Y31370546D01*
X32712805Y31359560D01*
X32730184Y31337791D01*
X32730187Y31337788D01*
X32734030Y31332974D01*
X32738733Y31329000D01*
X32773638Y31299503D01*
X32781406Y31292359D01*
X33995920Y30077846D01*
X34005297Y30067359D01*
X34023823Y30044151D01*
X34023830Y30044143D01*
X34027668Y30039336D01*
X34066664Y30006381D01*
X34074546Y29999122D01*
X34089313Y29984312D01*
X34089568Y29984055D01*
X34137316Y29935892D01*
X34137565Y29935640D01*
X34141041Y29932114D01*
X34150460Y29921410D01*
X34167957Y29899098D01*
X34167962Y29899093D01*
X34172065Y29893861D01*
X34172077Y29893851D01*
X34172087Y29893838D01*
X34176984Y29889627D01*
X34206868Y29863928D01*
X34215602Y29855660D01*
X34217433Y29853753D01*
X34219440Y29851613D01*
X34242328Y29826636D01*
X34253764Y29812156D01*
X34269271Y29789253D01*
X34273649Y29784921D01*
X34273651Y29784918D01*
X34293929Y29764851D01*
X34303771Y29755112D01*
X34304086Y29754800D01*
X34319792Y29735881D01*
X34338673Y29707994D01*
X34343049Y29703663D01*
X34343052Y29703660D01*
X34370829Y29676173D01*
X34379076Y29667180D01*
X34424615Y29612424D01*
X34426683Y29609871D01*
X34435436Y29598768D01*
X34496470Y29521346D01*
X34498478Y29518729D01*
X34531787Y29474123D01*
X34540380Y29460980D01*
X34554722Y29435733D01*
X34554725Y29435730D01*
X34554727Y29435726D01*
X34559843Y29429799D01*
X34559845Y29429796D01*
X34584278Y29401490D01*
X34591792Y29391881D01*
X34632921Y29333686D01*
X34634782Y29330979D01*
X34680678Y29262291D01*
X34697397Y29237269D01*
X34699167Y29234543D01*
X34706979Y29222163D01*
X34728883Y29187447D01*
X34736422Y29173662D01*
X34748740Y29147366D01*
X34748743Y29147363D01*
X34748747Y29147353D01*
X34759444Y29132791D01*
X34775525Y29110900D01*
X34782264Y29100729D01*
X34818695Y29039495D01*
X34820344Y29036638D01*
X34875407Y28938317D01*
X34876979Y28935421D01*
X34902875Y28886205D01*
X34909313Y28871864D01*
X34912460Y28863493D01*
X34919542Y28844651D01*
X34922791Y28839411D01*
X34943377Y28806210D01*
X34949298Y28795540D01*
X34980803Y28731654D01*
X34982223Y28728678D01*
X35016632Y28654042D01*
X35029417Y28626309D01*
X35030758Y28623296D01*
X35052707Y28572210D01*
X35057994Y28557424D01*
X35066059Y28529483D01*
X35068885Y28524008D01*
X35086809Y28489281D01*
X35091868Y28478193D01*
X35118274Y28412007D01*
X35119441Y28408968D01*
X35158463Y28303197D01*
X35159563Y28300089D01*
X35172067Y28263256D01*
X35177437Y28247436D01*
X35181551Y28232268D01*
X35187394Y28203800D01*
X35187396Y28203796D01*
X35187397Y28203790D01*
X35192352Y28192003D01*
X35200951Y28171548D01*
X35200952Y28171545D01*
X35204922Y28162100D01*
X35209098Y28150641D01*
X35230226Y28082600D01*
X35231160Y28079449D01*
X35261768Y27970921D01*
X35262591Y27967846D01*
X35268677Y27943885D01*
X35276304Y27913851D01*
X35279214Y27898415D01*
X35282804Y27869593D01*
X35282805Y27869589D01*
X35282806Y27869584D01*
X35284015Y27865929D01*
X35297009Y27826639D01*
X35300276Y27814880D01*
X35315995Y27745404D01*
X35316680Y27742180D01*
X35338665Y27631650D01*
X35339266Y27628408D01*
X35348695Y27573537D01*
X35350385Y27557916D01*
X35351171Y27540613D01*
X35351169Y27540606D01*
X35351171Y27540606D01*
X35351701Y27528924D01*
X35362493Y27484986D01*
X35364822Y27473029D01*
X35375049Y27402497D01*
X35375469Y27399304D01*
X35377848Y27379208D01*
X35388724Y27287304D01*
X35389068Y27284027D01*
X35394159Y27228629D01*
X35394619Y27212918D01*
X35393656Y27183903D01*
X35396241Y27168120D01*
X35401571Y27135570D01*
X35403158Y27111034D01*
X35402041Y27077365D01*
X35409457Y27032077D01*
X35410831Y27020128D01*
X35411009Y27017465D01*
X35411170Y27014553D01*
X35412645Y26980737D01*
X35412096Y26962284D01*
X35410345Y26945351D01*
X35409250Y26934764D01*
X35409251Y26934756D01*
X35409249Y26934740D01*
X35410293Y26923484D01*
X35413959Y26883933D01*
X35414494Y26873214D01*
X35414644Y26852314D01*
X35414939Y26783971D01*
X35414947Y26778815D01*
X35414163Y26764596D01*
X35410257Y26729776D01*
X35410773Y26723633D01*
X35414596Y26678106D01*
X35415038Y26667562D01*
X35415038Y17443592D01*
X35414253Y17429546D01*
X35410257Y17393922D01*
X35410773Y17387777D01*
X35413136Y17359631D01*
X35413458Y17343592D01*
X35398407Y16998906D01*
X35397449Y16987956D01*
X35359568Y16700229D01*
X35348404Y16615437D01*
X35346496Y16604617D01*
X35333796Y16547335D01*
X35265170Y16237793D01*
X35262325Y16227175D01*
X35149340Y15868839D01*
X35145581Y15858510D01*
X35001789Y15511371D01*
X34997143Y15501409D01*
X34823653Y15168143D01*
X34818157Y15158624D01*
X34616268Y14841726D01*
X34609963Y14832722D01*
X34381238Y14534645D01*
X34374181Y14526234D01*
X34150754Y14282409D01*
X34136471Y14269067D01*
X34123256Y14258518D01*
X34119284Y14253818D01*
X34119278Y14253812D01*
X34089766Y14218890D01*
X34082624Y14211124D01*
X32128542Y12257042D01*
X32118056Y12247666D01*
X32090042Y12225303D01*
X32086065Y12220597D01*
X32086061Y12220593D01*
X32067834Y12199024D01*
X32056720Y12187455D01*
X31802340Y11954364D01*
X31793920Y11947299D01*
X31495835Y11718575D01*
X31486831Y11712270D01*
X31426366Y11673750D01*
X31169926Y11510382D01*
X31160428Y11504899D01*
X30930109Y11385005D01*
X30827138Y11331403D01*
X30817176Y11326758D01*
X30470055Y11182979D01*
X30459726Y11179219D01*
X30101370Y11066233D01*
X30090753Y11063389D01*
X29853869Y11010874D01*
X29723935Y10982069D01*
X29713115Y10980162D01*
X29340593Y10931121D01*
X29329649Y10930163D01*
X29020363Y10916661D01*
X28951436Y10933673D01*
X28902647Y10985250D01*
X28900471Y10990184D01*
X28898768Y10993295D01*
X28895615Y11001705D01*
X28808261Y11118261D01*
X28691705Y11205615D01*
X28555316Y11256745D01*
X28493134Y11263500D01*
X26696866Y11263500D01*
X26634684Y11256745D01*
X26498295Y11205615D01*
X26381739Y11118261D01*
X26294385Y11001705D01*
X26291233Y10993296D01*
X26286923Y10985425D01*
X26285259Y10986336D01*
X26249337Y10938510D01*
X26182776Y10913807D01*
X26173991Y10913500D01*
X24016009Y10913500D01*
X23947888Y10933502D01*
X23901395Y10987158D01*
X23899097Y10992694D01*
X23898768Y10993296D01*
X23895615Y11001705D01*
X23808261Y11118261D01*
X23691705Y11205615D01*
X23555316Y11256745D01*
X23493134Y11263500D01*
X22993923Y11263500D01*
X22925802Y11283502D01*
X22879309Y11337158D01*
X22869205Y11407432D01*
X22898699Y11472012D01*
X22904828Y11478595D01*
X23290161Y11863928D01*
X23352473Y11897954D01*
X23371011Y11900563D01*
X23378838Y11901076D01*
X23393381Y11902029D01*
X23393387Y11902030D01*
X23397493Y11902299D01*
X23401533Y11903103D01*
X23401535Y11903103D01*
X23423657Y11907504D01*
X25017916Y11907504D01*
X25162500Y11762920D01*
X25517468Y12117889D01*
X26646010Y12117889D01*
X26702399Y12061500D01*
X27299558Y12061500D01*
X27355946Y12117888D01*
X28484487Y12117888D01*
X28542567Y12059808D01*
X28543084Y12059780D01*
X28546483Y12059549D01*
X28575922Y12057155D01*
X28579317Y12056833D01*
X28641499Y12050078D01*
X28649311Y12048981D01*
X28716645Y12037365D01*
X28724371Y12035782D01*
X28754993Y12028501D01*
X28762607Y12026436D01*
X28827967Y12006500D01*
X28835437Y12003964D01*
X28971826Y11952834D01*
X28980098Y11949393D01*
X29011524Y11934988D01*
X29194424Y12117888D01*
X30322964Y12117888D01*
X30416366Y12024486D01*
X30484696Y12052789D01*
X30765912Y12199177D01*
X30879346Y12271442D01*
X30677932Y12472856D01*
X30322964Y12117888D01*
X29194424Y12117888D01*
X28839456Y12472856D01*
X28484487Y12117888D01*
X27355946Y12117888D01*
X27000977Y12472856D01*
X26646010Y12117889D01*
X25517468Y12117889D01*
X25372884Y12262473D01*
X25017916Y11907504D01*
X23423657Y11907504D01*
X23609331Y11944442D01*
X23609338Y11944444D01*
X23613385Y11945249D01*
X23821823Y12016010D01*
X23960394Y12084351D01*
X24015536Y12111546D01*
X24015539Y12111548D01*
X24019242Y12113374D01*
X24202264Y12235672D01*
X24309466Y12329691D01*
X24315317Y12334519D01*
X24345602Y12358012D01*
X24345612Y12358021D01*
X24348384Y12360171D01*
X24368670Y12379900D01*
X24396487Y12413767D01*
X24404757Y12422888D01*
X24808612Y12826743D01*
X25937154Y12826743D01*
X26081738Y12682159D01*
X26436706Y13037126D01*
X27565249Y13037126D01*
X27920216Y12682159D01*
X28275185Y13037127D01*
X29403726Y13037127D01*
X29758695Y12682159D01*
X30113662Y13037126D01*
X31242204Y13037126D01*
X31508616Y12770714D01*
X31521010Y12784004D01*
X31525316Y12788402D01*
X31542945Y12805545D01*
X31547462Y12809727D01*
X31587475Y12845003D01*
X31590506Y12847547D01*
X31866113Y13123154D01*
X31597172Y13392095D01*
X31242204Y13037126D01*
X30113662Y13037126D01*
X29758694Y13392095D01*
X29403726Y13037127D01*
X28275185Y13037127D01*
X28063812Y13248500D01*
X27776623Y13248500D01*
X27565249Y13037126D01*
X26436706Y13037126D01*
X26436707Y13037127D01*
X26292123Y13181711D01*
X25937154Y12826743D01*
X24808612Y12826743D01*
X25938232Y13956365D01*
X30322965Y13956365D01*
X30677932Y13601398D01*
X31032900Y13956365D01*
X32161443Y13956365D01*
X32430384Y13687424D01*
X32785352Y14042393D01*
X32516411Y14311334D01*
X32161443Y13956365D01*
X31032900Y13956365D01*
X31032901Y13956366D01*
X30677933Y14311334D01*
X30322965Y13956365D01*
X25938232Y13956365D01*
X26157396Y14175529D01*
X26169259Y14185988D01*
X26191270Y14203061D01*
X26193927Y14205644D01*
X26193967Y14205666D01*
X26196450Y14207824D01*
X26196955Y14207243D01*
X26256704Y14238797D01*
X26327442Y14232747D01*
X26370866Y14204411D01*
X26376358Y14198919D01*
X26381739Y14191739D01*
X26498295Y14104385D01*
X26634684Y14053255D01*
X26696866Y14046500D01*
X28493134Y14046500D01*
X28555316Y14053255D01*
X28691705Y14104385D01*
X28808261Y14191739D01*
X28895615Y14308295D01*
X28946745Y14444684D01*
X28953500Y14506866D01*
X28953500Y14527830D01*
X29751500Y14527830D01*
X29758694Y14520636D01*
X30113662Y14875605D01*
X31242204Y14875605D01*
X31597172Y14520636D01*
X31952140Y14875604D01*
X33080681Y14875604D01*
X33349622Y14606663D01*
X33498439Y14755480D01*
X33513752Y14773600D01*
X33517840Y14778205D01*
X33554233Y14817230D01*
X33558543Y14821630D01*
X33576174Y14838774D01*
X33580691Y14842957D01*
X33587716Y14849150D01*
X33697388Y14968834D01*
X33435650Y15230572D01*
X33080681Y14875604D01*
X31952140Y14875604D01*
X31597171Y15230572D01*
X31242204Y14875605D01*
X30113662Y14875605D01*
X29758694Y15230573D01*
X29751500Y15223379D01*
X29751500Y14527830D01*
X28953500Y14527830D01*
X28953500Y15794844D01*
X30322965Y15794844D01*
X30677933Y15439875D01*
X31032901Y15794843D01*
X31032900Y15794844D01*
X32161443Y15794844D01*
X32516411Y15439875D01*
X32871379Y15794843D01*
X33999920Y15794843D01*
X34164545Y15630218D01*
X34275759Y15843857D01*
X34388549Y16116151D01*
X34354889Y16149811D01*
X33999920Y15794843D01*
X32871379Y15794843D01*
X32516410Y16149811D01*
X32161443Y15794844D01*
X31032900Y15794844D01*
X30677932Y16149811D01*
X30322965Y15794844D01*
X28953500Y15794844D01*
X28953500Y16303134D01*
X28946745Y16365316D01*
X28895615Y16501705D01*
X28808261Y16618261D01*
X28691705Y16705615D01*
X28555316Y16756745D01*
X28493134Y16763500D01*
X27500601Y16763500D01*
X27481335Y16769157D01*
X29647584Y16769157D01*
X29693964Y16645437D01*
X29696500Y16637967D01*
X29716436Y16572607D01*
X29718501Y16564993D01*
X29725782Y16534371D01*
X29727365Y16526645D01*
X29738981Y16459311D01*
X29740078Y16451499D01*
X29746833Y16389317D01*
X29747155Y16385922D01*
X29748507Y16369301D01*
X29758694Y16359114D01*
X30113662Y16714083D01*
X31242204Y16714083D01*
X31597172Y16359114D01*
X31952140Y16714082D01*
X33080681Y16714082D01*
X33435649Y16359114D01*
X33790617Y16714083D01*
X33435650Y17069050D01*
X33080681Y16714082D01*
X31952140Y16714082D01*
X31756335Y16909887D01*
X31731637Y16896518D01*
X31725110Y16893225D01*
X31698683Y16880845D01*
X31691973Y16877937D01*
X31633145Y16854437D01*
X31626279Y16851922D01*
X31458610Y16795984D01*
X31452019Y16793984D01*
X31394472Y16778222D01*
X31387783Y16776585D01*
X31360910Y16770782D01*
X31354145Y16769513D01*
X31295245Y16760126D01*
X31288417Y16759229D01*
X31287226Y16759105D01*
X31242204Y16714083D01*
X30113662Y16714083D01*
X30083745Y16744000D01*
X29899637Y16744000D01*
X29896422Y16744041D01*
X29868567Y16744752D01*
X29865354Y16744875D01*
X29852512Y16745531D01*
X29849304Y16745736D01*
X29821509Y16747868D01*
X29818303Y16748155D01*
X29713907Y16758851D01*
X29707093Y16759738D01*
X29648291Y16769025D01*
X29647584Y16769157D01*
X27481335Y16769157D01*
X27432480Y16783502D01*
X27385987Y16837158D01*
X27375883Y16907432D01*
X27405377Y16972012D01*
X27412749Y16979822D01*
X27420318Y16987182D01*
X27425433Y16993409D01*
X27430788Y16999928D01*
X27434794Y17004570D01*
X27535527Y17115711D01*
X27634593Y17225014D01*
X27717051Y17336195D01*
X27797242Y17444321D01*
X32350442Y17444321D01*
X32516410Y17278353D01*
X32871379Y17633321D01*
X33999920Y17633321D01*
X34354889Y17278353D01*
X34617038Y17540502D01*
X34617038Y17726139D01*
X34354888Y17988289D01*
X33999920Y17633321D01*
X32871379Y17633321D01*
X32566851Y17937849D01*
X32556710Y17900590D01*
X32554726Y17894012D01*
X32499080Y17726246D01*
X32496578Y17719376D01*
X32473185Y17660518D01*
X32470289Y17653806D01*
X32457956Y17627358D01*
X32454676Y17620826D01*
X32424627Y17565076D01*
X32420972Y17558742D01*
X32350442Y17444321D01*
X27797242Y17444321D01*
X27823417Y17479614D01*
X27825260Y17482099D01*
X27826843Y17484739D01*
X27826849Y17484749D01*
X27988218Y17753979D01*
X27989810Y17756635D01*
X28072401Y17931261D01*
X28125338Y18043187D01*
X28125342Y18043196D01*
X28126658Y18045979D01*
X28127697Y18048882D01*
X28200697Y18252905D01*
X29192001Y18252905D01*
X29192338Y18246386D01*
X29202257Y18150794D01*
X29205149Y18137400D01*
X29256588Y17983216D01*
X29262761Y17970038D01*
X29348063Y17832193D01*
X29357099Y17820792D01*
X29471829Y17706261D01*
X29483240Y17697249D01*
X29621243Y17612184D01*
X29634424Y17606037D01*
X29788710Y17554862D01*
X29802086Y17551995D01*
X29896438Y17542328D01*
X29902854Y17542000D01*
X30227885Y17542000D01*
X30243124Y17546475D01*
X30244329Y17547865D01*
X30246000Y17555548D01*
X30246000Y17560116D01*
X30754000Y17560116D01*
X30758475Y17544877D01*
X30759865Y17543672D01*
X30767548Y17542001D01*
X31097095Y17542001D01*
X31103614Y17542338D01*
X31199206Y17552257D01*
X31212600Y17555149D01*
X31366784Y17606588D01*
X31379962Y17612761D01*
X31517807Y17698063D01*
X31529208Y17707099D01*
X31643739Y17821829D01*
X31652751Y17833240D01*
X31737816Y17971243D01*
X31743963Y17984424D01*
X31795138Y18138710D01*
X31798005Y18152086D01*
X31807672Y18246438D01*
X31808000Y18252854D01*
X31808000Y18552560D01*
X33080681Y18552560D01*
X33435650Y18197592D01*
X33790617Y18552559D01*
X33435649Y18907528D01*
X33080681Y18552560D01*
X31808000Y18552560D01*
X31808000Y19527885D01*
X31803525Y19543124D01*
X31802135Y19544329D01*
X31794452Y19546000D01*
X30772115Y19546000D01*
X30756876Y19541525D01*
X30755671Y19540135D01*
X30754000Y19532452D01*
X30754000Y17560116D01*
X30246000Y17560116D01*
X30246000Y19527885D01*
X30241525Y19543124D01*
X30240135Y19544329D01*
X30232452Y19546000D01*
X29210116Y19546000D01*
X29194877Y19541525D01*
X29193672Y19540135D01*
X29192001Y19532452D01*
X29192001Y18252905D01*
X28200697Y18252905D01*
X28233447Y18344434D01*
X28233450Y18344443D01*
X28234487Y18347342D01*
X28235236Y18350332D01*
X28235239Y18350342D01*
X28311504Y18654816D01*
X28311505Y18654820D01*
X28312257Y18657823D01*
X28340822Y18850400D01*
X28358766Y18971370D01*
X28358767Y18971377D01*
X28359220Y18974433D01*
X28372054Y19235727D01*
X28372896Y19245335D01*
X28375043Y19262327D01*
X28375485Y19265825D01*
X28375880Y19294120D01*
X28371601Y19337758D01*
X28371000Y19350054D01*
X28371000Y19776485D01*
X32566693Y19776485D01*
X32578779Y19735323D01*
X32582600Y19717757D01*
X32604717Y19563932D01*
X32606000Y19546000D01*
X32606000Y19206420D01*
X32871379Y19471799D01*
X33999920Y19471799D01*
X34354889Y19116831D01*
X34617038Y19378980D01*
X34617038Y19564617D01*
X34354888Y19826767D01*
X33999920Y19471799D01*
X32871379Y19471799D01*
X32566693Y19776485D01*
X28371000Y19776485D01*
X28371000Y20072115D01*
X29192000Y20072115D01*
X29196475Y20056876D01*
X29197865Y20055671D01*
X29205548Y20054000D01*
X30227885Y20054000D01*
X30243124Y20058475D01*
X30244329Y20059865D01*
X30246000Y20067548D01*
X30246000Y20072115D01*
X30754000Y20072115D01*
X30758475Y20056876D01*
X30759865Y20055671D01*
X30767548Y20054000D01*
X31789884Y20054000D01*
X31805123Y20058475D01*
X31806328Y20059865D01*
X31807999Y20067548D01*
X31807999Y20391037D01*
X33080681Y20391037D01*
X33435649Y20036069D01*
X33790617Y20391038D01*
X33435650Y20746005D01*
X33080681Y20391037D01*
X31807999Y20391037D01*
X31807999Y21347095D01*
X31807661Y21353620D01*
X31797743Y21449206D01*
X31794851Y21462600D01*
X31748810Y21600603D01*
X32581051Y21600603D01*
X32589874Y21545245D01*
X32590771Y21538417D01*
X32601738Y21432716D01*
X32602032Y21429472D01*
X32604217Y21401346D01*
X32604428Y21398100D01*
X32605101Y21385097D01*
X32605227Y21381842D01*
X32605957Y21353620D01*
X32605999Y21350362D01*
X32605999Y21044896D01*
X32871379Y21310276D01*
X33999920Y21310276D01*
X34354888Y20955308D01*
X34617038Y21217458D01*
X34617038Y21403095D01*
X34354889Y21665244D01*
X33999920Y21310276D01*
X32871379Y21310276D01*
X32581051Y21600603D01*
X31748810Y21600603D01*
X31743412Y21616784D01*
X31737239Y21629962D01*
X31651937Y21767807D01*
X31642901Y21779208D01*
X31528171Y21893739D01*
X31516760Y21902751D01*
X31378757Y21987816D01*
X31365576Y21993963D01*
X31211290Y22045138D01*
X31197914Y22048005D01*
X31103562Y22057672D01*
X31097145Y22058000D01*
X30772115Y22058000D01*
X30756876Y22053525D01*
X30755671Y22052135D01*
X30754000Y22044452D01*
X30754000Y20072115D01*
X30246000Y20072115D01*
X30246000Y22039884D01*
X30241525Y22055123D01*
X30240135Y22056328D01*
X30232452Y22057999D01*
X29902905Y22057999D01*
X29896386Y22057662D01*
X29800794Y22047743D01*
X29787400Y22044851D01*
X29633216Y21993412D01*
X29620038Y21987239D01*
X29482193Y21901937D01*
X29470792Y21892901D01*
X29356261Y21778171D01*
X29347249Y21766760D01*
X29262184Y21628757D01*
X29256037Y21615576D01*
X29204862Y21461290D01*
X29201995Y21447914D01*
X29192328Y21353562D01*
X29192000Y21347145D01*
X29192000Y20072115D01*
X28371000Y20072115D01*
X28371000Y21059496D01*
X28371994Y21075294D01*
X28375042Y21099410D01*
X28375042Y21099413D01*
X28375483Y21102901D01*
X28375668Y21116121D01*
X28375781Y21117124D01*
X28375697Y21118128D01*
X28375880Y21131196D01*
X28374256Y21147768D01*
X28374043Y21169939D01*
X28385481Y21315324D01*
X28388574Y21334854D01*
X28400636Y21385097D01*
X28429355Y21504733D01*
X28435464Y21523534D01*
X28435478Y21523566D01*
X28502321Y21684943D01*
X28511295Y21702556D01*
X28575948Y21808062D01*
X28602573Y21851511D01*
X28614192Y21867506D01*
X28700449Y21968501D01*
X28713602Y21981769D01*
X28714502Y21982551D01*
X28717294Y21984717D01*
X28726697Y21993861D01*
X28727489Y21994494D01*
X28728144Y21995269D01*
X28737580Y22004446D01*
X28765395Y22038310D01*
X28773665Y22047431D01*
X28955749Y22229515D01*
X33080682Y22229515D01*
X33435650Y21874547D01*
X33790618Y22229515D01*
X33435650Y22584483D01*
X33080682Y22229515D01*
X28955749Y22229515D01*
X29641604Y22915371D01*
X32394825Y22915371D01*
X32516410Y22793786D01*
X32871379Y23148754D01*
X33999920Y23148754D01*
X34354889Y22793786D01*
X34617038Y23055935D01*
X34617038Y23241572D01*
X34354888Y23503722D01*
X33999920Y23148754D01*
X32871379Y23148754D01*
X32586988Y23433145D01*
X32581466Y23398180D01*
X32580209Y23391422D01*
X32574458Y23364598D01*
X32572835Y23357922D01*
X32557204Y23300491D01*
X32555220Y23293914D01*
X32499538Y23126037D01*
X32497037Y23119168D01*
X32473647Y23060315D01*
X32470750Y23053602D01*
X32458417Y23027153D01*
X32455136Y23020618D01*
X32425081Y22964859D01*
X32421427Y22958527D01*
X32394825Y22915371D01*
X29641604Y22915371D01*
X29652530Y22926297D01*
X29714843Y22960322D01*
X29781289Y22956796D01*
X29788607Y22954369D01*
X29788611Y22954368D01*
X29795139Y22952203D01*
X29801975Y22951503D01*
X29801978Y22951502D01*
X29845031Y22947091D01*
X29899600Y22941500D01*
X31100400Y22941500D01*
X31103646Y22941837D01*
X31103650Y22941837D01*
X31199308Y22951762D01*
X31199312Y22951763D01*
X31206166Y22952474D01*
X31212702Y22954655D01*
X31212704Y22954655D01*
X31366998Y23006132D01*
X31373946Y23008450D01*
X31524348Y23101522D01*
X31649305Y23226697D01*
X31653296Y23233172D01*
X31738275Y23371032D01*
X31738276Y23371034D01*
X31742115Y23377262D01*
X31797797Y23545139D01*
X31808500Y23649600D01*
X31808500Y24067993D01*
X33080681Y24067993D01*
X33435650Y23713025D01*
X33790617Y24067992D01*
X33435649Y24422961D01*
X33080681Y24067993D01*
X31808500Y24067993D01*
X31808500Y25252110D01*
X32606500Y25252110D01*
X32606500Y24722352D01*
X32871379Y24987231D01*
X33999920Y24987231D01*
X34354888Y24632263D01*
X34617038Y24894413D01*
X34617038Y25080050D01*
X34354889Y25342199D01*
X33999920Y24987231D01*
X32871379Y24987231D01*
X32606500Y25252110D01*
X31808500Y25252110D01*
X31808500Y25906470D01*
X33080681Y25906470D01*
X33435649Y25551502D01*
X33790617Y25906471D01*
X33435650Y26261438D01*
X33080681Y25906470D01*
X31808500Y25906470D01*
X31808500Y26750400D01*
X31806292Y26771678D01*
X31798238Y26849308D01*
X31798237Y26849312D01*
X31797526Y26856166D01*
X31791659Y26873753D01*
X31743868Y27016998D01*
X31741550Y27023946D01*
X31657646Y27159533D01*
X32537555Y27159533D01*
X32554509Y27108715D01*
X32556509Y27102125D01*
X32572271Y27044580D01*
X32573908Y27037891D01*
X32579711Y27011019D01*
X32580980Y27004254D01*
X32590368Y26945351D01*
X32591265Y26938523D01*
X32602239Y26832757D01*
X32602534Y26829511D01*
X32604719Y26801382D01*
X32604929Y26798136D01*
X32605602Y26785132D01*
X32605728Y26781878D01*
X32606458Y26753658D01*
X32606500Y26750400D01*
X32606500Y26560830D01*
X32871379Y26825709D01*
X33999920Y26825709D01*
X34354888Y26470741D01*
X34612764Y26728617D01*
X34613107Y26753194D01*
X34613344Y26759348D01*
X34616694Y26812601D01*
X34616802Y26813838D01*
X34616694Y26839100D01*
X34614656Y26861079D01*
X34614210Y26867892D01*
X34612082Y26923484D01*
X34354889Y27180677D01*
X33999920Y26825709D01*
X32871379Y26825709D01*
X32537555Y27159533D01*
X31657646Y27159533D01*
X31648478Y27174348D01*
X31523303Y27299305D01*
X31517072Y27303146D01*
X31378968Y27388275D01*
X31378966Y27388276D01*
X31372738Y27392115D01*
X31292995Y27418564D01*
X31211389Y27445632D01*
X31211387Y27445632D01*
X31204861Y27447797D01*
X31198025Y27448497D01*
X31198022Y27448498D01*
X31154969Y27452909D01*
X31100400Y27458500D01*
X29899600Y27458500D01*
X29896354Y27458163D01*
X29896350Y27458163D01*
X29800692Y27448238D01*
X29800688Y27448237D01*
X29793834Y27447526D01*
X29787298Y27445345D01*
X29787296Y27445345D01*
X29659016Y27402547D01*
X29626054Y27391550D01*
X29475652Y27298478D01*
X29350695Y27173303D01*
X29346855Y27167073D01*
X29346854Y27167072D01*
X29271349Y27044580D01*
X29257885Y27022738D01*
X29255581Y27015790D01*
X29255580Y27015789D01*
X29250288Y26999834D01*
X29209858Y26941474D01*
X29144294Y26914236D01*
X29130695Y26913500D01*
X26456623Y26913500D01*
X26388502Y26933502D01*
X26342009Y26987158D01*
X26338641Y26995271D01*
X26303768Y27088295D01*
X26303767Y27088296D01*
X26300615Y27096705D01*
X26213261Y27213261D01*
X26096705Y27300615D01*
X25960316Y27351745D01*
X25898134Y27358500D01*
X25378472Y27358500D01*
X25310351Y27378502D01*
X25263858Y27432158D01*
X25253754Y27502432D01*
X25283248Y27567012D01*
X25289377Y27573595D01*
X25460729Y27744947D01*
X27565249Y27744947D01*
X27598696Y27711500D01*
X28241737Y27711500D01*
X28275185Y27744948D01*
X33080681Y27744948D01*
X33435650Y27389980D01*
X33790617Y27744947D01*
X33435649Y28099916D01*
X33080681Y27744948D01*
X28275185Y27744948D01*
X27920217Y28099916D01*
X27565249Y27744947D01*
X25460729Y27744947D01*
X26379969Y28664187D01*
X28484487Y28664187D01*
X28839456Y28309219D01*
X29194423Y28664186D01*
X30322965Y28664186D01*
X30677932Y28309219D01*
X31032900Y28664186D01*
X32161443Y28664186D01*
X32516410Y28309219D01*
X32871379Y28664187D01*
X33999920Y28664187D01*
X34243549Y28420558D01*
X34241334Y28424131D01*
X34238219Y28429440D01*
X34212358Y28476092D01*
X34209506Y28481547D01*
X34198648Y28503612D01*
X34196064Y28509204D01*
X34180067Y28546171D01*
X34174859Y28556068D01*
X34128386Y28639051D01*
X34113114Y28664721D01*
X34105624Y28674917D01*
X34101109Y28681488D01*
X34068329Y28732596D01*
X33999920Y28664187D01*
X32871379Y28664187D01*
X32516411Y29019155D01*
X32161443Y28664186D01*
X31032900Y28664186D01*
X31032901Y28664187D01*
X30677933Y29019155D01*
X30322965Y28664186D01*
X29194423Y28664186D01*
X28839455Y29019155D01*
X28484487Y28664187D01*
X26379969Y28664187D01*
X27299208Y29583426D01*
X29403726Y29583426D01*
X29758695Y29228458D01*
X30113662Y29583425D01*
X31242204Y29583425D01*
X31597171Y29228458D01*
X31952140Y29583426D01*
X33080681Y29583426D01*
X33435650Y29228458D01*
X33574062Y29366870D01*
X33548363Y29396303D01*
X33547341Y29397538D01*
X33529468Y29415566D01*
X33512585Y29429834D01*
X33507983Y29433920D01*
X33468980Y29470291D01*
X33464583Y29474597D01*
X33447439Y29492226D01*
X33443255Y29496743D01*
X33407968Y29536767D01*
X33405416Y29539809D01*
X33221240Y29723985D01*
X33080681Y29583426D01*
X31952140Y29583426D01*
X31597172Y29938394D01*
X31242204Y29583425D01*
X30113662Y29583425D01*
X29758694Y29938394D01*
X29403726Y29583426D01*
X27299208Y29583426D01*
X28218446Y30502665D01*
X30322965Y30502665D01*
X30677933Y30147696D01*
X31032901Y30502664D01*
X31032900Y30502665D01*
X32161443Y30502665D01*
X32516411Y30147696D01*
X32656970Y30288255D01*
X32302002Y30643223D01*
X32161443Y30502665D01*
X31032900Y30502665D01*
X30677932Y30857632D01*
X30322965Y30502665D01*
X28218446Y30502665D01*
X28506370Y30790589D01*
X28516856Y30799966D01*
X28540066Y30818494D01*
X28540067Y30818495D01*
X28544876Y30822334D01*
X28566172Y30847533D01*
X28577788Y30859558D01*
X28751936Y31017396D01*
X28761494Y31025240D01*
X28973807Y31182701D01*
X28984089Y31189571D01*
X29210806Y31325458D01*
X29221710Y31331287D01*
X29383608Y31407859D01*
X29460676Y31444309D01*
X29472090Y31449037D01*
X29703624Y31531879D01*
X29720972Y31538086D01*
X29732804Y31541675D01*
X29989213Y31605901D01*
X30001340Y31608313D01*
X30179045Y31634673D01*
X30262815Y31647099D01*
X30275107Y31648309D01*
X30495688Y31659146D01*
X30515915Y31658512D01*
X30531158Y31656802D01*
X30537303Y31657318D01*
X30537305Y31657318D01*
X30582831Y31661141D01*
X30593374Y31661583D01*
X31936181Y31661583D01*
X31950225Y31660798D01*
G37*
%TD.AperFunction*%
%TA.AperFunction,Conductor*%
G36*
X24056251Y21515678D02*
G01*
X24108263Y21467353D01*
X24119491Y21442824D01*
X24150340Y21350362D01*
X24158450Y21326054D01*
X24251522Y21175652D01*
X24376697Y21050695D01*
X24382927Y21046855D01*
X24382928Y21046854D01*
X24520090Y20962306D01*
X24527262Y20957885D01*
X24607005Y20931436D01*
X24688611Y20904368D01*
X24688613Y20904368D01*
X24695139Y20902203D01*
X24701975Y20901503D01*
X24701978Y20901502D01*
X24745031Y20897091D01*
X24799600Y20891500D01*
X26200400Y20891500D01*
X26215000Y20893015D01*
X26284821Y20880148D01*
X26336602Y20831575D01*
X26354000Y20767687D01*
X26354000Y20231828D01*
X26333998Y20163707D01*
X26280342Y20117214D01*
X26215156Y20106484D01*
X26203558Y20107672D01*
X26197145Y20108000D01*
X25772115Y20108000D01*
X25756876Y20103525D01*
X25755671Y20102135D01*
X25754000Y20094452D01*
X25754000Y18809500D01*
X25733998Y18741379D01*
X25680342Y18694886D01*
X25628000Y18683500D01*
X25372000Y18683500D01*
X25303879Y18703502D01*
X25257386Y18757158D01*
X25246000Y18809500D01*
X25246000Y20089884D01*
X25241525Y20105123D01*
X25240135Y20106328D01*
X25232452Y20107999D01*
X24802905Y20107999D01*
X24796386Y20107662D01*
X24700794Y20097743D01*
X24687400Y20094851D01*
X24533216Y20043412D01*
X24520038Y20037239D01*
X24382193Y19951937D01*
X24370792Y19942901D01*
X24256261Y19828171D01*
X24247249Y19816760D01*
X24162184Y19678757D01*
X24156037Y19665576D01*
X24119625Y19555799D01*
X24079194Y19497439D01*
X24013629Y19470203D01*
X23943748Y19482737D01*
X23891736Y19531062D01*
X23880508Y19555592D01*
X23843413Y19666782D01*
X23837239Y19679962D01*
X23751937Y19817807D01*
X23742901Y19829208D01*
X23628171Y19943739D01*
X23616760Y19952751D01*
X23478757Y20037816D01*
X23465576Y20043963D01*
X23311290Y20095138D01*
X23297914Y20098005D01*
X23203562Y20107672D01*
X23197145Y20108000D01*
X22772115Y20108000D01*
X22756876Y20103525D01*
X22755671Y20102135D01*
X22754000Y20094452D01*
X22754000Y17785116D01*
X22758475Y17769877D01*
X22759865Y17768672D01*
X22767548Y17767001D01*
X23197095Y17767001D01*
X23203614Y17767338D01*
X23299206Y17777257D01*
X23312600Y17780149D01*
X23466784Y17831588D01*
X23479962Y17837761D01*
X23617807Y17923063D01*
X23629208Y17932099D01*
X23743739Y18046829D01*
X23752751Y18058240D01*
X23837816Y18196243D01*
X23843963Y18209424D01*
X23880375Y18319201D01*
X23920806Y18377561D01*
X23986371Y18404797D01*
X24056252Y18392263D01*
X24108264Y18343938D01*
X24119492Y18319408D01*
X24156587Y18208218D01*
X24162761Y18195038D01*
X24248063Y18057193D01*
X24257099Y18045792D01*
X24371829Y17931261D01*
X24383240Y17922249D01*
X24521243Y17837184D01*
X24534424Y17831037D01*
X24688710Y17779862D01*
X24702086Y17776995D01*
X24796438Y17767328D01*
X24802854Y17767000D01*
X25240329Y17767000D01*
X25308450Y17746998D01*
X25354943Y17693342D01*
X25365047Y17623068D01*
X25354232Y17587130D01*
X25327771Y17531181D01*
X25254306Y17375852D01*
X25254302Y17375843D01*
X25252986Y17373060D01*
X25251949Y17370162D01*
X25251947Y17370157D01*
X25219100Y17278353D01*
X25157447Y17106044D01*
X25088542Y16830949D01*
X25088089Y16827895D01*
X25088088Y16827890D01*
X25053741Y16596328D01*
X25046932Y16550425D01*
X25046780Y16547340D01*
X25046780Y16547335D01*
X25036169Y16331307D01*
X25035328Y16321699D01*
X25033412Y16306531D01*
X25032015Y16295469D01*
X25031832Y16282347D01*
X25031719Y16281341D01*
X25031804Y16280332D01*
X25031620Y16267174D01*
X25031964Y16263667D01*
X25031964Y16263664D01*
X25033239Y16250658D01*
X25033452Y16228478D01*
X25026574Y16141084D01*
X25023481Y16121559D01*
X25004235Y16041395D01*
X24996267Y16008208D01*
X24990157Y15989403D01*
X24945542Y15881699D01*
X24936566Y15864083D01*
X24875654Y15764686D01*
X24864033Y15748691D01*
X24811367Y15687028D01*
X24794163Y15670386D01*
X24788516Y15665878D01*
X24784538Y15661171D01*
X24784535Y15661168D01*
X24755041Y15626267D01*
X24747900Y15618501D01*
X24168095Y15038695D01*
X24105783Y15004671D01*
X24034968Y15009735D01*
X23978132Y15052282D01*
X23953321Y15118802D01*
X23953000Y15127791D01*
X23953000Y15132885D01*
X23948525Y15148124D01*
X23947135Y15149329D01*
X23939452Y15151000D01*
X22867115Y15151000D01*
X22851876Y15146525D01*
X22850671Y15145135D01*
X22849000Y15137452D01*
X22849000Y14065118D01*
X22862652Y14018624D01*
X22862652Y13947627D01*
X22824269Y13887901D01*
X22766336Y13859546D01*
X22746339Y13855569D01*
X22746323Y13855565D01*
X22742292Y13854763D01*
X22738396Y13853440D01*
X22738394Y13853440D01*
X22537745Y13785332D01*
X22537742Y13785331D01*
X22533848Y13784009D01*
X22530161Y13782191D01*
X22530154Y13782188D01*
X22340116Y13688476D01*
X22340111Y13688473D01*
X22336422Y13686654D01*
X22153394Y13564361D01*
X22150291Y13561639D01*
X22150290Y13561639D01*
X22045987Y13470170D01*
X22040151Y13465355D01*
X22007277Y13439855D01*
X21986990Y13420127D01*
X21984751Y13417401D01*
X21984749Y13417399D01*
X21959159Y13386245D01*
X21950890Y13377126D01*
X21891460Y13317696D01*
X21829148Y13283670D01*
X21758333Y13288735D01*
X21701497Y13331282D01*
X21676686Y13397802D01*
X21676365Y13406791D01*
X21676365Y13921000D01*
X21696367Y13989121D01*
X21750023Y14035614D01*
X21802365Y14047000D01*
X22322885Y14047000D01*
X22338124Y14051475D01*
X22339329Y14052865D01*
X22341000Y14060548D01*
X22341000Y15677115D01*
X22849000Y15677115D01*
X22853475Y15661876D01*
X22854865Y15660671D01*
X22862548Y15659000D01*
X23934884Y15659000D01*
X23950123Y15663475D01*
X23951328Y15664865D01*
X23952999Y15672548D01*
X23952999Y16299669D01*
X23952629Y16306490D01*
X23947105Y16357352D01*
X23943479Y16372604D01*
X23898324Y16493054D01*
X23889786Y16508649D01*
X23813285Y16610724D01*
X23800724Y16623285D01*
X23698649Y16699786D01*
X23683054Y16708324D01*
X23562606Y16753478D01*
X23547351Y16757105D01*
X23496486Y16762631D01*
X23489672Y16763000D01*
X22867115Y16763000D01*
X22851876Y16758525D01*
X22850671Y16757135D01*
X22849000Y16749452D01*
X22849000Y15677115D01*
X22341000Y15677115D01*
X22341000Y16744884D01*
X22336525Y16760123D01*
X22335135Y16761328D01*
X22327452Y16762999D01*
X21802365Y16762999D01*
X21734244Y16783001D01*
X21687751Y16836657D01*
X21676365Y16888999D01*
X21676365Y17641000D01*
X21696367Y17709121D01*
X21750023Y17755614D01*
X21802365Y17767000D01*
X22227885Y17767000D01*
X22243124Y17771475D01*
X22244329Y17772865D01*
X22246000Y17780548D01*
X22246000Y20089884D01*
X22241525Y20105123D01*
X22240135Y20106328D01*
X22232452Y20107999D01*
X21802365Y20107999D01*
X21734244Y20128001D01*
X21687751Y20181657D01*
X21676365Y20233999D01*
X21676365Y20765500D01*
X21696367Y20833621D01*
X21750023Y20880114D01*
X21802365Y20891500D01*
X23200400Y20891500D01*
X23203646Y20891837D01*
X23203650Y20891837D01*
X23299308Y20901762D01*
X23299312Y20901763D01*
X23306166Y20902474D01*
X23312702Y20904655D01*
X23312704Y20904655D01*
X23464528Y20955308D01*
X23473946Y20958450D01*
X23624348Y21051522D01*
X23749305Y21176697D01*
X23768011Y21207043D01*
X23838275Y21321032D01*
X23838276Y21321034D01*
X23842115Y21327262D01*
X23880376Y21442615D01*
X23920805Y21500974D01*
X23986369Y21528211D01*
X24056251Y21515678D01*
G37*
%TD.AperFunction*%
%TD*%
M02*
