%TF.GenerationSoftware,KiCad,Pcbnew,(6.0.7-1)-1*%
%TF.CreationDate,2022-10-13T15:16:57+02:00*%
%TF.ProjectId,tr707minus10v_kicad,74723730-376d-4696-9e75-733130765f6b,rev?*%
%TF.SameCoordinates,Original*%
%TF.FileFunction,Legend,Bot*%
%TF.FilePolarity,Positive*%
%FSLAX46Y46*%
G04 Gerber Fmt 4.6, Leading zero omitted, Abs format (unit mm)*
G04 Created by KiCad (PCBNEW (6.0.7-1)-1) date 2022-10-13 15:16:57*
%MOMM*%
%LPD*%
G01*
G04 APERTURE LIST*
%ADD10C,0.150000*%
%ADD11C,0.300000*%
%ADD12C,0.400000*%
%ADD13C,0.375000*%
%ADD14C,0.120000*%
%ADD15R,2.000000X2.000000*%
%ADD16C,2.000000*%
%ADD17R,1.700000X1.700000*%
G04 APERTURE END LIST*
D10*
X27732380Y28690477D02*
X27732380Y28119048D01*
X28732380Y28404762D02*
X27732380Y28404762D01*
X28732380Y27785715D02*
X27732380Y27785715D01*
X28732380Y27357143D02*
X28208571Y27357143D01*
X28113333Y27404762D01*
X28065714Y27500000D01*
X28065714Y27642858D01*
X28113333Y27738096D01*
X28160952Y27785715D01*
X28732380Y26880953D02*
X28065714Y26880953D01*
X27732380Y26880953D02*
X27780000Y26928572D01*
X27827619Y26880953D01*
X27780000Y26833334D01*
X27732380Y26880953D01*
X27827619Y26880953D01*
X28684761Y26452381D02*
X28732380Y26357143D01*
X28732380Y26166667D01*
X28684761Y26071429D01*
X28589523Y26023810D01*
X28541904Y26023810D01*
X28446666Y26071429D01*
X28399047Y26166667D01*
X28399047Y26309524D01*
X28351428Y26404762D01*
X28256190Y26452381D01*
X28208571Y26452381D01*
X28113333Y26404762D01*
X28065714Y26309524D01*
X28065714Y26166667D01*
X28113333Y26071429D01*
X28732380Y24833334D02*
X28065714Y24833334D01*
X27732380Y24833334D02*
X27780000Y24880953D01*
X27827619Y24833334D01*
X27780000Y24785715D01*
X27732380Y24833334D01*
X27827619Y24833334D01*
X28684761Y24404762D02*
X28732380Y24309524D01*
X28732380Y24119048D01*
X28684761Y24023810D01*
X28589523Y23976191D01*
X28541904Y23976191D01*
X28446666Y24023810D01*
X28399047Y24119048D01*
X28399047Y24261905D01*
X28351428Y24357143D01*
X28256190Y24404762D01*
X28208571Y24404762D01*
X28113333Y24357143D01*
X28065714Y24261905D01*
X28065714Y24119048D01*
X28113333Y24023810D01*
X28732380Y22357143D02*
X28208571Y22357143D01*
X28113333Y22404762D01*
X28065714Y22500000D01*
X28065714Y22690477D01*
X28113333Y22785715D01*
X28684761Y22357143D02*
X28732380Y22452381D01*
X28732380Y22690477D01*
X28684761Y22785715D01*
X28589523Y22833334D01*
X28494285Y22833334D01*
X28399047Y22785715D01*
X28351428Y22690477D01*
X28351428Y22452381D01*
X28303809Y22357143D01*
X28065714Y21880953D02*
X28732380Y21880953D01*
X28160952Y21880953D02*
X28113333Y21833334D01*
X28065714Y21738096D01*
X28065714Y21595239D01*
X28113333Y21500000D01*
X28208571Y21452381D01*
X28732380Y21452381D01*
X30294761Y29190477D02*
X30342380Y29285715D01*
X30342380Y29476191D01*
X30294761Y29571429D01*
X30199523Y29619048D01*
X29818571Y29619048D01*
X29723333Y29571429D01*
X29675714Y29476191D01*
X29675714Y29285715D01*
X29723333Y29190477D01*
X29818571Y29142858D01*
X29913809Y29142858D01*
X30009047Y29619048D01*
X30342380Y28809524D02*
X29675714Y28285715D01*
X29675714Y28809524D02*
X30342380Y28285715D01*
X29675714Y27904762D02*
X30675714Y27904762D01*
X29723333Y27904762D02*
X29675714Y27809524D01*
X29675714Y27619048D01*
X29723333Y27523810D01*
X29770952Y27476191D01*
X29866190Y27428572D01*
X30151904Y27428572D01*
X30247142Y27476191D01*
X30294761Y27523810D01*
X30342380Y27619048D01*
X30342380Y27809524D01*
X30294761Y27904762D01*
X30294761Y26619048D02*
X30342380Y26714286D01*
X30342380Y26904762D01*
X30294761Y27000000D01*
X30199523Y27047620D01*
X29818571Y27047620D01*
X29723333Y27000000D01*
X29675714Y26904762D01*
X29675714Y26714286D01*
X29723333Y26619048D01*
X29818571Y26571429D01*
X29913809Y26571429D01*
X30009047Y27047620D01*
X30342380Y26142858D02*
X29675714Y26142858D01*
X29866190Y26142858D02*
X29770952Y26095239D01*
X29723333Y26047620D01*
X29675714Y25952381D01*
X29675714Y25857143D01*
X30342380Y25523810D02*
X29675714Y25523810D01*
X29342380Y25523810D02*
X29390000Y25571429D01*
X29437619Y25523810D01*
X29390000Y25476191D01*
X29342380Y25523810D01*
X29437619Y25523810D01*
X30342380Y25047620D02*
X29675714Y25047620D01*
X29770952Y25047620D02*
X29723333Y25000000D01*
X29675714Y24904762D01*
X29675714Y24761905D01*
X29723333Y24666667D01*
X29818571Y24619048D01*
X30342380Y24619048D01*
X29818571Y24619048D02*
X29723333Y24571429D01*
X29675714Y24476191D01*
X29675714Y24333334D01*
X29723333Y24238096D01*
X29818571Y24190477D01*
X30342380Y24190477D01*
X30294761Y23333334D02*
X30342380Y23428572D01*
X30342380Y23619048D01*
X30294761Y23714286D01*
X30199523Y23761905D01*
X29818571Y23761905D01*
X29723333Y23714286D01*
X29675714Y23619048D01*
X29675714Y23428572D01*
X29723333Y23333334D01*
X29818571Y23285715D01*
X29913809Y23285715D01*
X30009047Y23761905D01*
X29675714Y22857143D02*
X30342380Y22857143D01*
X29770952Y22857143D02*
X29723333Y22809524D01*
X29675714Y22714286D01*
X29675714Y22571429D01*
X29723333Y22476191D01*
X29818571Y22428572D01*
X30342380Y22428572D01*
X29675714Y22095239D02*
X29675714Y21714286D01*
X29342380Y21952381D02*
X30199523Y21952381D01*
X30294761Y21904762D01*
X30342380Y21809524D01*
X30342380Y21714286D01*
X30342380Y20952381D02*
X29818571Y20952381D01*
X29723333Y21000000D01*
X29675714Y21095239D01*
X29675714Y21285715D01*
X29723333Y21380953D01*
X30294761Y20952381D02*
X30342380Y21047620D01*
X30342380Y21285715D01*
X30294761Y21380953D01*
X30199523Y21428572D01*
X30104285Y21428572D01*
X30009047Y21380953D01*
X29961428Y21285715D01*
X29961428Y21047620D01*
X29913809Y20952381D01*
X30342380Y20333334D02*
X30294761Y20428572D01*
X30199523Y20476191D01*
X29342380Y20476191D01*
X31952380Y26928572D02*
X30952380Y26928572D01*
X31904761Y26928572D02*
X31952380Y27023810D01*
X31952380Y27214286D01*
X31904761Y27309524D01*
X31857142Y27357143D01*
X31761904Y27404762D01*
X31476190Y27404762D01*
X31380952Y27357143D01*
X31333333Y27309524D01*
X31285714Y27214286D01*
X31285714Y27023810D01*
X31333333Y26928572D01*
X31904761Y26071429D02*
X31952380Y26166667D01*
X31952380Y26357143D01*
X31904761Y26452381D01*
X31809523Y26500000D01*
X31428571Y26500000D01*
X31333333Y26452381D01*
X31285714Y26357143D01*
X31285714Y26166667D01*
X31333333Y26071429D01*
X31428571Y26023810D01*
X31523809Y26023810D01*
X31619047Y26500000D01*
X31285714Y25690477D02*
X31952380Y25452381D01*
X31285714Y25214286D01*
X31952380Y24833334D02*
X31285714Y24833334D01*
X30952380Y24833334D02*
X31000000Y24880953D01*
X31047619Y24833334D01*
X31000000Y24785715D01*
X30952380Y24833334D01*
X31047619Y24833334D01*
X31904761Y23928572D02*
X31952380Y24023810D01*
X31952380Y24214286D01*
X31904761Y24309524D01*
X31857142Y24357143D01*
X31761904Y24404762D01*
X31476190Y24404762D01*
X31380952Y24357143D01*
X31333333Y24309524D01*
X31285714Y24214286D01*
X31285714Y24023810D01*
X31333333Y23928572D01*
X31904761Y23119048D02*
X31952380Y23214286D01*
X31952380Y23404762D01*
X31904761Y23500000D01*
X31809523Y23547620D01*
X31428571Y23547620D01*
X31333333Y23500000D01*
X31285714Y23404762D01*
X31285714Y23214286D01*
X31333333Y23119048D01*
X31428571Y23071429D01*
X31523809Y23071429D01*
X31619047Y23547620D01*
X31904761Y22595239D02*
X31952380Y22595239D01*
X32047619Y22642858D01*
X32095238Y22690477D01*
X32895714Y27642858D02*
X33562380Y27642858D01*
X32895714Y28071429D02*
X33419523Y28071429D01*
X33514761Y28023810D01*
X33562380Y27928572D01*
X33562380Y27785715D01*
X33514761Y27690477D01*
X33467142Y27642858D01*
X33514761Y27214286D02*
X33562380Y27119048D01*
X33562380Y26928572D01*
X33514761Y26833334D01*
X33419523Y26785715D01*
X33371904Y26785715D01*
X33276666Y26833334D01*
X33229047Y26928572D01*
X33229047Y27071429D01*
X33181428Y27166667D01*
X33086190Y27214286D01*
X33038571Y27214286D01*
X32943333Y27166667D01*
X32895714Y27071429D01*
X32895714Y26928572D01*
X32943333Y26833334D01*
X33514761Y25976191D02*
X33562380Y26071429D01*
X33562380Y26261905D01*
X33514761Y26357143D01*
X33419523Y26404762D01*
X33038571Y26404762D01*
X32943333Y26357143D01*
X32895714Y26261905D01*
X32895714Y26071429D01*
X32943333Y25976191D01*
X33038571Y25928572D01*
X33133809Y25928572D01*
X33229047Y26404762D01*
X33562380Y24738096D02*
X32895714Y24738096D01*
X32562380Y24738096D02*
X32610000Y24785715D01*
X32657619Y24738096D01*
X32610000Y24690477D01*
X32562380Y24738096D01*
X32657619Y24738096D01*
X32895714Y24404762D02*
X32895714Y24023810D01*
X32562380Y24261905D02*
X33419523Y24261905D01*
X33514761Y24214286D01*
X33562380Y24119048D01*
X33562380Y24023810D01*
X33562380Y22500000D02*
X33038571Y22500000D01*
X32943333Y22547620D01*
X32895714Y22642858D01*
X32895714Y22833334D01*
X32943333Y22928572D01*
X33514761Y22500000D02*
X33562380Y22595239D01*
X33562380Y22833334D01*
X33514761Y22928572D01*
X33419523Y22976191D01*
X33324285Y22976191D01*
X33229047Y22928572D01*
X33181428Y22833334D01*
X33181428Y22595239D01*
X33133809Y22500000D01*
X32895714Y22166667D02*
X32895714Y21785715D01*
X32562380Y22023810D02*
X33419523Y22023810D01*
X33514761Y21976191D01*
X33562380Y21880953D01*
X33562380Y21785715D01*
X34505714Y30238096D02*
X35172380Y30000000D01*
X34505714Y29761905D02*
X35172380Y30000000D01*
X35410476Y30095239D01*
X35458095Y30142858D01*
X35505714Y30238096D01*
X35172380Y29238096D02*
X35124761Y29333334D01*
X35077142Y29380953D01*
X34981904Y29428572D01*
X34696190Y29428572D01*
X34600952Y29380953D01*
X34553333Y29333334D01*
X34505714Y29238096D01*
X34505714Y29095239D01*
X34553333Y29000000D01*
X34600952Y28952381D01*
X34696190Y28904762D01*
X34981904Y28904762D01*
X35077142Y28952381D01*
X35124761Y29000000D01*
X35172380Y29095239D01*
X35172380Y29238096D01*
X34505714Y28047620D02*
X35172380Y28047620D01*
X34505714Y28476191D02*
X35029523Y28476191D01*
X35124761Y28428572D01*
X35172380Y28333334D01*
X35172380Y28190477D01*
X35124761Y28095239D01*
X35077142Y28047620D01*
X35172380Y27571429D02*
X34505714Y27571429D01*
X34696190Y27571429D02*
X34600952Y27523810D01*
X34553333Y27476191D01*
X34505714Y27380953D01*
X34505714Y27285715D01*
X35172380Y26047620D02*
X35124761Y26142858D01*
X35077142Y26190477D01*
X34981904Y26238096D01*
X34696190Y26238096D01*
X34600952Y26190477D01*
X34553333Y26142858D01*
X34505714Y26047620D01*
X34505714Y25904762D01*
X34553333Y25809524D01*
X34600952Y25761905D01*
X34696190Y25714286D01*
X34981904Y25714286D01*
X35077142Y25761905D01*
X35124761Y25809524D01*
X35172380Y25904762D01*
X35172380Y26047620D01*
X34505714Y25380953D02*
X35172380Y25190477D01*
X34696190Y25000000D01*
X35172380Y24809524D01*
X34505714Y24619048D01*
X34505714Y24238096D02*
X35172380Y24238096D01*
X34600952Y24238096D02*
X34553333Y24190477D01*
X34505714Y24095239D01*
X34505714Y23952381D01*
X34553333Y23857143D01*
X34648571Y23809524D01*
X35172380Y23809524D01*
X35172380Y22571429D02*
X34505714Y22571429D01*
X34696190Y22571429D02*
X34600952Y22523810D01*
X34553333Y22476191D01*
X34505714Y22380953D01*
X34505714Y22285715D01*
X35172380Y21952381D02*
X34505714Y21952381D01*
X34172380Y21952381D02*
X34220000Y22000000D01*
X34267619Y21952381D01*
X34220000Y21904762D01*
X34172380Y21952381D01*
X34267619Y21952381D01*
X35124761Y21523810D02*
X35172380Y21428572D01*
X35172380Y21238096D01*
X35124761Y21142858D01*
X35029523Y21095239D01*
X34981904Y21095239D01*
X34886666Y21142858D01*
X34839047Y21238096D01*
X34839047Y21380953D01*
X34791428Y21476191D01*
X34696190Y21523810D01*
X34648571Y21523810D01*
X34553333Y21476191D01*
X34505714Y21380953D01*
X34505714Y21238096D01*
X34553333Y21142858D01*
X35172380Y20666667D02*
X34172380Y20666667D01*
X34791428Y20571429D02*
X35172380Y20285715D01*
X34505714Y20285715D02*
X34886666Y20666667D01*
X35077142Y19857143D02*
X35124761Y19809524D01*
X35172380Y19857143D01*
X35124761Y19904762D01*
X35077142Y19857143D01*
X35172380Y19857143D01*
X29635957Y18655807D02*
X30493100Y18655807D01*
X30588338Y18703426D01*
X30635957Y18798664D01*
X30635957Y18846283D01*
X29302623Y18655807D02*
X29350243Y18703426D01*
X29397862Y18655807D01*
X29350243Y18608188D01*
X29302623Y18655807D01*
X29397862Y18655807D01*
X29635957Y18179617D02*
X30635957Y18179617D01*
X29683576Y18179617D02*
X29635957Y18084379D01*
X29635957Y17893902D01*
X29683576Y17798664D01*
X29731195Y17751045D01*
X29826433Y17703426D01*
X30112147Y17703426D01*
X30207385Y17751045D01*
X30255004Y17798664D01*
X30302623Y17893902D01*
X30302623Y18084379D01*
X30255004Y18179617D01*
X30302623Y16751045D02*
X30302623Y17322474D01*
X30302623Y17036760D02*
X29302623Y17036760D01*
X29445481Y17131998D01*
X29540719Y17227236D01*
X29588338Y17322474D01*
X29778814Y16322474D02*
X29778814Y15560569D01*
X30064528Y15560569D02*
X30064528Y16322474D01*
X30302623Y14941521D02*
X30255004Y15036760D01*
X30159766Y15084379D01*
X29302623Y15084379D01*
X30255004Y14179617D02*
X30302623Y14274855D01*
X30302623Y14465331D01*
X30255004Y14560569D01*
X30159766Y14608188D01*
X29778814Y14608188D01*
X29683576Y14560569D01*
X29635957Y14465331D01*
X29635957Y14274855D01*
X29683576Y14179617D01*
X29778814Y14131998D01*
X29874052Y14131998D01*
X29969290Y14608188D01*
X30255004Y13751045D02*
X30302623Y13655807D01*
X30302623Y13465331D01*
X30255004Y13370093D01*
X30159766Y13322474D01*
X30112147Y13322474D01*
X30016909Y13370093D01*
X29969290Y13465331D01*
X29969290Y13608188D01*
X29921671Y13703426D01*
X29826433Y13751045D01*
X29778814Y13751045D01*
X29683576Y13703426D01*
X29635957Y13608188D01*
X29635957Y13465331D01*
X29683576Y13370093D01*
X30255004Y12941521D02*
X30302623Y12846283D01*
X30302623Y12655807D01*
X30255004Y12560569D01*
X30159766Y12512950D01*
X30112147Y12512950D01*
X30016909Y12560569D01*
X29969290Y12655807D01*
X29969290Y12798664D01*
X29921671Y12893902D01*
X29826433Y12941521D01*
X29778814Y12941521D01*
X29683576Y12893902D01*
X29635957Y12798664D01*
X29635957Y12655807D01*
X29683576Y12560569D01*
X29635957Y11417712D02*
X30302623Y11179617D01*
X29635957Y10941521D01*
X30302623Y10417712D02*
X30255004Y10512950D01*
X30207385Y10560569D01*
X30112147Y10608188D01*
X29826433Y10608188D01*
X29731195Y10560569D01*
X29683576Y10512950D01*
X29635957Y10417712D01*
X29635957Y10274855D01*
X29683576Y10179617D01*
X29731195Y10131998D01*
X29826433Y10084379D01*
X30112147Y10084379D01*
X30207385Y10131998D01*
X30255004Y10179617D01*
X30302623Y10274855D01*
X30302623Y10417712D01*
X30302623Y9512950D02*
X30255004Y9608188D01*
X30159766Y9655807D01*
X29302623Y9655807D01*
X29635957Y9274855D02*
X29635957Y8893902D01*
X29302623Y9131998D02*
X30159766Y9131998D01*
X30255004Y9084379D01*
X30302623Y8989141D01*
X30302623Y8893902D01*
X30255004Y8608188D02*
X30302623Y8512950D01*
X30302623Y8322474D01*
X30255004Y8227236D01*
X30159766Y8179617D01*
X30112147Y8179617D01*
X30016909Y8227236D01*
X29969290Y8322474D01*
X29969290Y8465331D01*
X29921671Y8560569D01*
X29826433Y8608188D01*
X29778814Y8608188D01*
X29683576Y8560569D01*
X29635957Y8465331D01*
X29635957Y8322474D01*
X29683576Y8227236D01*
X31912623Y17560569D02*
X30912623Y17560569D01*
X31865004Y17560569D02*
X31912623Y17655807D01*
X31912623Y17846283D01*
X31865004Y17941521D01*
X31817385Y17989141D01*
X31722147Y18036760D01*
X31436433Y18036760D01*
X31341195Y17989141D01*
X31293576Y17941521D01*
X31245957Y17846283D01*
X31245957Y17655807D01*
X31293576Y17560569D01*
X31865004Y16703426D02*
X31912623Y16798664D01*
X31912623Y16989141D01*
X31865004Y17084379D01*
X31769766Y17131998D01*
X31388814Y17131998D01*
X31293576Y17084379D01*
X31245957Y16989141D01*
X31245957Y16798664D01*
X31293576Y16703426D01*
X31388814Y16655807D01*
X31484052Y16655807D01*
X31579290Y17131998D01*
X31245957Y16370093D02*
X31245957Y15989141D01*
X31912623Y16227236D02*
X31055481Y16227236D01*
X30960243Y16179617D01*
X30912623Y16084379D01*
X30912623Y15989141D01*
X31912623Y15227236D02*
X31388814Y15227236D01*
X31293576Y15274855D01*
X31245957Y15370093D01*
X31245957Y15560569D01*
X31293576Y15655807D01*
X31865004Y15227236D02*
X31912623Y15322474D01*
X31912623Y15560569D01*
X31865004Y15655807D01*
X31769766Y15703426D01*
X31674528Y15703426D01*
X31579290Y15655807D01*
X31531671Y15560569D01*
X31531671Y15322474D01*
X31484052Y15227236D01*
X31245957Y14322474D02*
X31912623Y14322474D01*
X31245957Y14751045D02*
X31769766Y14751045D01*
X31865004Y14703426D01*
X31912623Y14608188D01*
X31912623Y14465331D01*
X31865004Y14370093D01*
X31817385Y14322474D01*
X31912623Y13703426D02*
X31865004Y13798664D01*
X31769766Y13846283D01*
X30912623Y13846283D01*
X31245957Y13465331D02*
X31245957Y13084379D01*
X30912623Y13322474D02*
X31769766Y13322474D01*
X31865004Y13274855D01*
X31912623Y13179617D01*
X31912623Y13084379D01*
X31912623Y11846283D02*
X31865004Y11941521D01*
X31817385Y11989141D01*
X31722147Y12036760D01*
X31436433Y12036760D01*
X31341195Y11989141D01*
X31293576Y11941521D01*
X31245957Y11846283D01*
X31245957Y11703426D01*
X31293576Y11608188D01*
X31341195Y11560569D01*
X31436433Y11512950D01*
X31722147Y11512950D01*
X31817385Y11560569D01*
X31865004Y11608188D01*
X31912623Y11703426D01*
X31912623Y11846283D01*
X31245957Y11084379D02*
X32245957Y11084379D01*
X31293576Y11084379D02*
X31245957Y10989141D01*
X31245957Y10798664D01*
X31293576Y10703426D01*
X31341195Y10655807D01*
X31436433Y10608188D01*
X31722147Y10608188D01*
X31817385Y10655807D01*
X31865004Y10703426D01*
X31912623Y10798664D01*
X31912623Y10989141D01*
X31865004Y11084379D01*
X31865004Y9798664D02*
X31912623Y9893902D01*
X31912623Y10084379D01*
X31865004Y10179617D01*
X31769766Y10227236D01*
X31388814Y10227236D01*
X31293576Y10179617D01*
X31245957Y10084379D01*
X31245957Y9893902D01*
X31293576Y9798664D01*
X31388814Y9751045D01*
X31484052Y9751045D01*
X31579290Y10227236D01*
X31245957Y9322474D02*
X31912623Y9322474D01*
X31341195Y9322474D02*
X31293576Y9274855D01*
X31245957Y9179617D01*
X31245957Y9036760D01*
X31293576Y8941521D01*
X31388814Y8893902D01*
X31912623Y8893902D01*
X32855957Y19393902D02*
X33713100Y19393902D01*
X33808338Y19441521D01*
X33855957Y19536760D01*
X33855957Y19584379D01*
X32522623Y19393902D02*
X32570243Y19441521D01*
X32617862Y19393902D01*
X32570243Y19346283D01*
X32522623Y19393902D01*
X32617862Y19393902D01*
X32855957Y18917712D02*
X33855957Y18917712D01*
X32903576Y18917712D02*
X32855957Y18822474D01*
X32855957Y18631998D01*
X32903576Y18536760D01*
X32951195Y18489141D01*
X33046433Y18441521D01*
X33332147Y18441521D01*
X33427385Y18489141D01*
X33475004Y18536760D01*
X33522623Y18631998D01*
X33522623Y18822474D01*
X33475004Y18917712D01*
X32617862Y18060569D02*
X32570243Y18012950D01*
X32522623Y17917712D01*
X32522623Y17679617D01*
X32570243Y17584379D01*
X32617862Y17536760D01*
X32713100Y17489141D01*
X32808338Y17489141D01*
X32951195Y17536760D01*
X33522623Y18108188D01*
X33522623Y17489141D01*
X32998814Y17060569D02*
X32998814Y16298664D01*
X33284528Y16298664D02*
X33284528Y17060569D01*
X33522623Y15822474D02*
X32855957Y15822474D01*
X32951195Y15822474D02*
X32903576Y15774855D01*
X32855957Y15679617D01*
X32855957Y15536760D01*
X32903576Y15441521D01*
X32998814Y15393902D01*
X33522623Y15393902D01*
X32998814Y15393902D02*
X32903576Y15346283D01*
X32855957Y15251045D01*
X32855957Y15108188D01*
X32903576Y15012950D01*
X32998814Y14965331D01*
X33522623Y14965331D01*
X33522623Y14346283D02*
X33475004Y14441521D01*
X33427385Y14489141D01*
X33332147Y14536760D01*
X33046433Y14536760D01*
X32951195Y14489141D01*
X32903576Y14441521D01*
X32855957Y14346283D01*
X32855957Y14203426D01*
X32903576Y14108188D01*
X32951195Y14060569D01*
X33046433Y14012950D01*
X33332147Y14012950D01*
X33427385Y14060569D01*
X33475004Y14108188D01*
X33522623Y14203426D01*
X33522623Y14346283D01*
X33522623Y13584379D02*
X32855957Y13584379D01*
X33046433Y13584379D02*
X32951195Y13536760D01*
X32903576Y13489141D01*
X32855957Y13393902D01*
X32855957Y13298664D01*
X33475004Y12584379D02*
X33522623Y12679617D01*
X33522623Y12870093D01*
X33475004Y12965331D01*
X33379766Y13012950D01*
X32998814Y13012950D01*
X32903576Y12965331D01*
X32855957Y12870093D01*
X32855957Y12679617D01*
X32903576Y12584379D01*
X32998814Y12536760D01*
X33094052Y12536760D01*
X33189290Y13012950D01*
X32855957Y11346283D02*
X33855957Y11346283D01*
X32903576Y11346283D02*
X32855957Y11251045D01*
X32855957Y11060569D01*
X32903576Y10965331D01*
X32951195Y10917712D01*
X33046433Y10870093D01*
X33332147Y10870093D01*
X33427385Y10917712D01*
X33475004Y10965331D01*
X33522623Y11060569D01*
X33522623Y11251045D01*
X33475004Y11346283D01*
X33522623Y10298664D02*
X33475004Y10393902D01*
X33427385Y10441521D01*
X33332147Y10489141D01*
X33046433Y10489141D01*
X32951195Y10441521D01*
X32903576Y10393902D01*
X32855957Y10298664D01*
X32855957Y10155807D01*
X32903576Y10060569D01*
X32951195Y10012950D01*
X33046433Y9965331D01*
X33332147Y9965331D01*
X33427385Y10012950D01*
X33475004Y10060569D01*
X33522623Y10155807D01*
X33522623Y10298664D01*
X32855957Y9631998D02*
X33522623Y9441521D01*
X33046433Y9251045D01*
X33522623Y9060569D01*
X32855957Y8870093D01*
X33475004Y8108188D02*
X33522623Y8203426D01*
X33522623Y8393902D01*
X33475004Y8489141D01*
X33379766Y8536760D01*
X32998814Y8536760D01*
X32903576Y8489141D01*
X32855957Y8393902D01*
X32855957Y8203426D01*
X32903576Y8108188D01*
X32998814Y8060569D01*
X33094052Y8060569D01*
X33189290Y8536760D01*
X33522623Y7631998D02*
X32855957Y7631998D01*
X33046433Y7631998D02*
X32951195Y7584379D01*
X32903576Y7536760D01*
X32855957Y7441521D01*
X32855957Y7346283D01*
X35132623Y18203426D02*
X34132623Y18203426D01*
X35085004Y18203426D02*
X35132623Y18298664D01*
X35132623Y18489141D01*
X35085004Y18584379D01*
X35037385Y18631998D01*
X34942147Y18679617D01*
X34656433Y18679617D01*
X34561195Y18631998D01*
X34513576Y18584379D01*
X34465957Y18489141D01*
X34465957Y18298664D01*
X34513576Y18203426D01*
X35085004Y17346283D02*
X35132623Y17441521D01*
X35132623Y17631998D01*
X35085004Y17727236D01*
X34989766Y17774855D01*
X34608814Y17774855D01*
X34513576Y17727236D01*
X34465957Y17631998D01*
X34465957Y17441521D01*
X34513576Y17346283D01*
X34608814Y17298664D01*
X34704052Y17298664D01*
X34799290Y17774855D01*
X34465957Y17012950D02*
X34465957Y16631998D01*
X35132623Y16870093D02*
X34275481Y16870093D01*
X34180243Y16822474D01*
X34132623Y16727236D01*
X34132623Y16631998D01*
X35132623Y15870093D02*
X34608814Y15870093D01*
X34513576Y15917712D01*
X34465957Y16012950D01*
X34465957Y16203426D01*
X34513576Y16298664D01*
X35085004Y15870093D02*
X35132623Y15965331D01*
X35132623Y16203426D01*
X35085004Y16298664D01*
X34989766Y16346283D01*
X34894528Y16346283D01*
X34799290Y16298664D01*
X34751671Y16203426D01*
X34751671Y15965331D01*
X34704052Y15870093D01*
X34465957Y14965331D02*
X35132623Y14965331D01*
X34465957Y15393902D02*
X34989766Y15393902D01*
X35085004Y15346283D01*
X35132623Y15251045D01*
X35132623Y15108188D01*
X35085004Y15012950D01*
X35037385Y14965331D01*
X35132623Y14346283D02*
X35085004Y14441521D01*
X34989766Y14489141D01*
X34132623Y14489141D01*
X34465957Y14108188D02*
X34465957Y13727236D01*
X34132623Y13965331D02*
X34989766Y13965331D01*
X35085004Y13917712D01*
X35132623Y13822474D01*
X35132623Y13727236D01*
X35085004Y12203426D02*
X35132623Y12298664D01*
X35132623Y12489141D01*
X35085004Y12584379D01*
X35037385Y12631998D01*
X34942147Y12679617D01*
X34656433Y12679617D01*
X34561195Y12631998D01*
X34513576Y12584379D01*
X34465957Y12489141D01*
X34465957Y12298664D01*
X34513576Y12203426D01*
X35132623Y11631998D02*
X35085004Y11727236D01*
X34989766Y11774855D01*
X34132623Y11774855D01*
X35132623Y11108188D02*
X35085004Y11203426D01*
X35037385Y11251045D01*
X34942147Y11298664D01*
X34656433Y11298664D01*
X34561195Y11251045D01*
X34513576Y11203426D01*
X34465957Y11108188D01*
X34465957Y10965331D01*
X34513576Y10870093D01*
X34561195Y10822474D01*
X34656433Y10774855D01*
X34942147Y10774855D01*
X35037385Y10822474D01*
X35085004Y10870093D01*
X35132623Y10965331D01*
X35132623Y11108188D01*
X35085004Y10393902D02*
X35132623Y10298664D01*
X35132623Y10108188D01*
X35085004Y10012950D01*
X34989766Y9965331D01*
X34942147Y9965331D01*
X34846909Y10012950D01*
X34799290Y10108188D01*
X34799290Y10251045D01*
X34751671Y10346283D01*
X34656433Y10393902D01*
X34608814Y10393902D01*
X34513576Y10346283D01*
X34465957Y10251045D01*
X34465957Y10108188D01*
X34513576Y10012950D01*
X35085004Y9155807D02*
X35132623Y9251045D01*
X35132623Y9441521D01*
X35085004Y9536760D01*
X34989766Y9584379D01*
X34608814Y9584379D01*
X34513576Y9536760D01*
X34465957Y9441521D01*
X34465957Y9251045D01*
X34513576Y9155807D01*
X34608814Y9108188D01*
X34704052Y9108188D01*
X34799290Y9584379D01*
X35132623Y8251045D02*
X34132623Y8251045D01*
X35085004Y8251045D02*
X35132623Y8346283D01*
X35132623Y8536760D01*
X35085004Y8631998D01*
X35037385Y8679617D01*
X34942147Y8727236D01*
X34656433Y8727236D01*
X34561195Y8679617D01*
X34513576Y8631998D01*
X34465957Y8536760D01*
X34465957Y8346283D01*
X34513576Y8251045D01*
X36785714Y24619048D02*
X36785714Y24238096D01*
X36452380Y24476191D02*
X37309523Y24476191D01*
X37404761Y24428572D01*
X37452380Y24333334D01*
X37452380Y24238096D01*
X37452380Y23904762D02*
X36452380Y23904762D01*
X37452380Y23476191D02*
X36928571Y23476191D01*
X36833333Y23523810D01*
X36785714Y23619048D01*
X36785714Y23761905D01*
X36833333Y23857143D01*
X36880952Y23904762D01*
X37452380Y23095239D02*
X36785714Y22571429D01*
X36785714Y23095239D02*
X37452380Y22571429D01*
X37357142Y22190477D02*
X37404761Y22142858D01*
X37452380Y22190477D01*
X37404761Y22238096D01*
X37357142Y22190477D01*
X37452380Y22190477D01*
X36833333Y22190477D02*
X36880952Y22142858D01*
X36928571Y22190477D01*
X36880952Y22238096D01*
X36833333Y22190477D01*
X36928571Y22190477D01*
X37452380Y20952381D02*
X36452380Y20952381D01*
X36928571Y20952381D02*
X36928571Y20380953D01*
X37452380Y20380953D02*
X36452380Y20380953D01*
X37452380Y19904762D02*
X36452380Y19904762D01*
X37452380Y19333334D02*
X36880952Y19761905D01*
X36452380Y19333334D02*
X37023809Y19904762D01*
X37166666Y18952381D02*
X37166666Y18476191D01*
X37452380Y19047620D02*
X36452380Y18714286D01*
X37452380Y18380953D01*
D11*
X5714285Y21321429D02*
X5214285Y19821429D01*
X4714285Y21321429D01*
X4285714Y21178572D02*
X4214285Y21250000D01*
X4071428Y21321429D01*
X3714285Y21321429D01*
X3571428Y21250000D01*
X3500000Y21178572D01*
X3428571Y21035715D01*
X3428571Y20892858D01*
X3500000Y20678572D01*
X4357142Y19821429D01*
X3428571Y19821429D01*
D10*
X3427380Y17238096D02*
X3427380Y16666667D01*
X4427380Y16952381D02*
X3427380Y16952381D01*
X4427380Y16333334D02*
X3427380Y16333334D01*
X4427380Y15904762D02*
X3903571Y15904762D01*
X3808333Y15952381D01*
X3760714Y16047620D01*
X3760714Y16190477D01*
X3808333Y16285715D01*
X3855952Y16333334D01*
X4427380Y15428572D02*
X3760714Y15428572D01*
X3427380Y15428572D02*
X3475000Y15476191D01*
X3522619Y15428572D01*
X3475000Y15380953D01*
X3427380Y15428572D01*
X3522619Y15428572D01*
X4379761Y15000000D02*
X4427380Y14904762D01*
X4427380Y14714286D01*
X4379761Y14619048D01*
X4284523Y14571429D01*
X4236904Y14571429D01*
X4141666Y14619048D01*
X4094047Y14714286D01*
X4094047Y14857143D01*
X4046428Y14952381D01*
X3951190Y15000000D01*
X3903571Y15000000D01*
X3808333Y14952381D01*
X3760714Y14857143D01*
X3760714Y14714286D01*
X3808333Y14619048D01*
X4427380Y13380953D02*
X3760714Y13380953D01*
X3427380Y13380953D02*
X3475000Y13428572D01*
X3522619Y13380953D01*
X3475000Y13333334D01*
X3427380Y13380953D01*
X3522619Y13380953D01*
X4379761Y12952381D02*
X4427380Y12857143D01*
X4427380Y12666667D01*
X4379761Y12571429D01*
X4284523Y12523810D01*
X4236904Y12523810D01*
X4141666Y12571429D01*
X4094047Y12666667D01*
X4094047Y12809524D01*
X4046428Y12904762D01*
X3951190Y12952381D01*
X3903571Y12952381D01*
X3808333Y12904762D01*
X3760714Y12809524D01*
X3760714Y12666667D01*
X3808333Y12571429D01*
X4427380Y10904762D02*
X3903571Y10904762D01*
X3808333Y10952381D01*
X3760714Y11047620D01*
X3760714Y11238096D01*
X3808333Y11333334D01*
X4379761Y10904762D02*
X4427380Y11000000D01*
X4427380Y11238096D01*
X4379761Y11333334D01*
X4284523Y11380953D01*
X4189285Y11380953D01*
X4094047Y11333334D01*
X4046428Y11238096D01*
X4046428Y11000000D01*
X3998809Y10904762D01*
X6037380Y18357143D02*
X5370714Y18357143D01*
X5561190Y18357143D02*
X5465952Y18309524D01*
X5418333Y18261905D01*
X5370714Y18166667D01*
X5370714Y18071429D01*
X5989761Y17357143D02*
X6037380Y17452381D01*
X6037380Y17642858D01*
X5989761Y17738096D01*
X5894523Y17785715D01*
X5513571Y17785715D01*
X5418333Y17738096D01*
X5370714Y17642858D01*
X5370714Y17452381D01*
X5418333Y17357143D01*
X5513571Y17309524D01*
X5608809Y17309524D01*
X5704047Y17785715D01*
X5370714Y16880953D02*
X6370714Y16880953D01*
X5418333Y16880953D02*
X5370714Y16785715D01*
X5370714Y16595239D01*
X5418333Y16500000D01*
X5465952Y16452381D01*
X5561190Y16404762D01*
X5846904Y16404762D01*
X5942142Y16452381D01*
X5989761Y16500000D01*
X6037380Y16595239D01*
X6037380Y16785715D01*
X5989761Y16880953D01*
X6037380Y15833334D02*
X5989761Y15928572D01*
X5894523Y15976191D01*
X5037380Y15976191D01*
X6037380Y15023810D02*
X5513571Y15023810D01*
X5418333Y15071429D01*
X5370714Y15166667D01*
X5370714Y15357143D01*
X5418333Y15452381D01*
X5989761Y15023810D02*
X6037380Y15119048D01*
X6037380Y15357143D01*
X5989761Y15452381D01*
X5894523Y15500000D01*
X5799285Y15500000D01*
X5704047Y15452381D01*
X5656428Y15357143D01*
X5656428Y15119048D01*
X5608809Y15023810D01*
X5989761Y14119048D02*
X6037380Y14214286D01*
X6037380Y14404762D01*
X5989761Y14500000D01*
X5942142Y14547620D01*
X5846904Y14595239D01*
X5561190Y14595239D01*
X5465952Y14547620D01*
X5418333Y14500000D01*
X5370714Y14404762D01*
X5370714Y14214286D01*
X5418333Y14119048D01*
X5989761Y13309524D02*
X6037380Y13404762D01*
X6037380Y13595239D01*
X5989761Y13690477D01*
X5894523Y13738096D01*
X5513571Y13738096D01*
X5418333Y13690477D01*
X5370714Y13595239D01*
X5370714Y13404762D01*
X5418333Y13309524D01*
X5513571Y13261905D01*
X5608809Y13261905D01*
X5704047Y13738096D01*
X6037380Y12833334D02*
X5370714Y12833334D01*
X5465952Y12833334D02*
X5418333Y12785715D01*
X5370714Y12690477D01*
X5370714Y12547620D01*
X5418333Y12452381D01*
X5513571Y12404762D01*
X6037380Y12404762D01*
X5513571Y12404762D02*
X5418333Y12357143D01*
X5370714Y12261905D01*
X5370714Y12119048D01*
X5418333Y12023810D01*
X5513571Y11976191D01*
X6037380Y11976191D01*
X5989761Y11119048D02*
X6037380Y11214286D01*
X6037380Y11404762D01*
X5989761Y11500000D01*
X5894523Y11547620D01*
X5513571Y11547620D01*
X5418333Y11500000D01*
X5370714Y11404762D01*
X5370714Y11214286D01*
X5418333Y11119048D01*
X5513571Y11071429D01*
X5608809Y11071429D01*
X5704047Y11547620D01*
X5370714Y10642858D02*
X6037380Y10642858D01*
X5465952Y10642858D02*
X5418333Y10595239D01*
X5370714Y10500000D01*
X5370714Y10357143D01*
X5418333Y10261905D01*
X5513571Y10214286D01*
X6037380Y10214286D01*
X5370714Y9880953D02*
X5370714Y9500000D01*
X5037380Y9738096D02*
X5894523Y9738096D01*
X5989761Y9690477D01*
X6037380Y9595239D01*
X6037380Y9500000D01*
X7266428Y20809524D02*
X7266428Y20047620D01*
X6980714Y19571429D02*
X7647380Y19571429D01*
X7075952Y19571429D02*
X7028333Y19523810D01*
X6980714Y19428572D01*
X6980714Y19285715D01*
X7028333Y19190477D01*
X7123571Y19142858D01*
X7647380Y19142858D01*
X7599761Y18285715D02*
X7647380Y18380953D01*
X7647380Y18571429D01*
X7599761Y18666667D01*
X7504523Y18714286D01*
X7123571Y18714286D01*
X7028333Y18666667D01*
X6980714Y18571429D01*
X6980714Y18380953D01*
X7028333Y18285715D01*
X7123571Y18238096D01*
X7218809Y18238096D01*
X7314047Y18714286D01*
X6980714Y17380953D02*
X7790238Y17380953D01*
X7885476Y17428572D01*
X7933095Y17476191D01*
X7980714Y17571429D01*
X7980714Y17714286D01*
X7933095Y17809524D01*
X7599761Y17380953D02*
X7647380Y17476191D01*
X7647380Y17666667D01*
X7599761Y17761905D01*
X7552142Y17809524D01*
X7456904Y17857143D01*
X7171190Y17857143D01*
X7075952Y17809524D01*
X7028333Y17761905D01*
X6980714Y17666667D01*
X6980714Y17476191D01*
X7028333Y17380953D01*
X7647380Y16476191D02*
X7123571Y16476191D01*
X7028333Y16523810D01*
X6980714Y16619048D01*
X6980714Y16809524D01*
X7028333Y16904762D01*
X7599761Y16476191D02*
X7647380Y16571429D01*
X7647380Y16809524D01*
X7599761Y16904762D01*
X7504523Y16952381D01*
X7409285Y16952381D01*
X7314047Y16904762D01*
X7266428Y16809524D01*
X7266428Y16571429D01*
X7218809Y16476191D01*
X6980714Y16142858D02*
X6980714Y15761905D01*
X6647380Y16000000D02*
X7504523Y16000000D01*
X7599761Y15952381D01*
X7647380Y15857143D01*
X7647380Y15761905D01*
X7647380Y15428572D02*
X6980714Y15428572D01*
X6647380Y15428572D02*
X6695000Y15476191D01*
X6742619Y15428572D01*
X6695000Y15380953D01*
X6647380Y15428572D01*
X6742619Y15428572D01*
X6980714Y15047620D02*
X7647380Y14809524D01*
X6980714Y14571429D01*
X7599761Y13809524D02*
X7647380Y13904762D01*
X7647380Y14095239D01*
X7599761Y14190477D01*
X7504523Y14238096D01*
X7123571Y14238096D01*
X7028333Y14190477D01*
X6980714Y14095239D01*
X6980714Y13904762D01*
X7028333Y13809524D01*
X7123571Y13761905D01*
X7218809Y13761905D01*
X7314047Y14238096D01*
X7647380Y12571429D02*
X6647380Y12571429D01*
X6647380Y12190477D01*
X6695000Y12095239D01*
X6742619Y12047620D01*
X6837857Y12000000D01*
X6980714Y12000000D01*
X7075952Y12047620D01*
X7123571Y12095239D01*
X7171190Y12190477D01*
X7171190Y12571429D01*
X7599761Y11619048D02*
X7647380Y11476191D01*
X7647380Y11238096D01*
X7599761Y11142858D01*
X7552142Y11095239D01*
X7456904Y11047620D01*
X7361666Y11047620D01*
X7266428Y11095239D01*
X7218809Y11142858D01*
X7171190Y11238096D01*
X7123571Y11428572D01*
X7075952Y11523810D01*
X7028333Y11571429D01*
X6933095Y11619048D01*
X6837857Y11619048D01*
X6742619Y11571429D01*
X6695000Y11523810D01*
X6647380Y11428572D01*
X6647380Y11190477D01*
X6695000Y11047620D01*
X6647380Y10619048D02*
X7456904Y10619048D01*
X7552142Y10571429D01*
X7599761Y10523810D01*
X7647380Y10428572D01*
X7647380Y10238096D01*
X7599761Y10142858D01*
X7552142Y10095239D01*
X7456904Y10047620D01*
X6647380Y10047620D01*
X6980714Y8952381D02*
X6980714Y8571429D01*
X7647380Y8809524D02*
X6790238Y8809524D01*
X6695000Y8761905D01*
X6647380Y8666667D01*
X6647380Y8571429D01*
X7647380Y8095239D02*
X7599761Y8190477D01*
X7552142Y8238096D01*
X7456904Y8285715D01*
X7171190Y8285715D01*
X7075952Y8238096D01*
X7028333Y8190477D01*
X6980714Y8095239D01*
X6980714Y7952381D01*
X7028333Y7857143D01*
X7075952Y7809524D01*
X7171190Y7761905D01*
X7456904Y7761905D01*
X7552142Y7809524D01*
X7599761Y7857143D01*
X7647380Y7952381D01*
X7647380Y8095239D01*
X7647380Y7333334D02*
X6980714Y7333334D01*
X7171190Y7333334D02*
X7075952Y7285715D01*
X7028333Y7238096D01*
X6980714Y7142858D01*
X6980714Y7047620D01*
X8590714Y17833334D02*
X8590714Y17452381D01*
X8257380Y17690477D02*
X9114523Y17690477D01*
X9209761Y17642858D01*
X9257380Y17547620D01*
X9257380Y17452381D01*
X9257380Y17119048D02*
X8257380Y17119048D01*
X9257380Y16690477D02*
X8733571Y16690477D01*
X8638333Y16738096D01*
X8590714Y16833334D01*
X8590714Y16976191D01*
X8638333Y17071429D01*
X8685952Y17119048D01*
X9209761Y15833334D02*
X9257380Y15928572D01*
X9257380Y16119048D01*
X9209761Y16214286D01*
X9114523Y16261905D01*
X8733571Y16261905D01*
X8638333Y16214286D01*
X8590714Y16119048D01*
X8590714Y15928572D01*
X8638333Y15833334D01*
X8733571Y15785715D01*
X8828809Y15785715D01*
X8924047Y16261905D01*
X9257380Y14595239D02*
X8590714Y14595239D01*
X8781190Y14595239D02*
X8685952Y14547620D01*
X8638333Y14500000D01*
X8590714Y14404762D01*
X8590714Y14309524D01*
X9257380Y13833334D02*
X9209761Y13928572D01*
X9162142Y13976191D01*
X9066904Y14023810D01*
X8781190Y14023810D01*
X8685952Y13976191D01*
X8638333Y13928572D01*
X8590714Y13833334D01*
X8590714Y13690477D01*
X8638333Y13595239D01*
X8685952Y13547620D01*
X8781190Y13500000D01*
X9066904Y13500000D01*
X9162142Y13547620D01*
X9209761Y13595239D01*
X9257380Y13690477D01*
X9257380Y13833334D01*
X9257380Y12928572D02*
X9209761Y13023810D01*
X9114523Y13071429D01*
X8257380Y13071429D01*
X9257380Y12119048D02*
X8733571Y12119048D01*
X8638333Y12166667D01*
X8590714Y12261905D01*
X8590714Y12452381D01*
X8638333Y12547620D01*
X9209761Y12119048D02*
X9257380Y12214286D01*
X9257380Y12452381D01*
X9209761Y12547620D01*
X9114523Y12595239D01*
X9019285Y12595239D01*
X8924047Y12547620D01*
X8876428Y12452381D01*
X8876428Y12214286D01*
X8828809Y12119048D01*
X8590714Y11642858D02*
X9257380Y11642858D01*
X8685952Y11642858D02*
X8638333Y11595239D01*
X8590714Y11500000D01*
X8590714Y11357143D01*
X8638333Y11261905D01*
X8733571Y11214286D01*
X9257380Y11214286D01*
X9257380Y10309524D02*
X8257380Y10309524D01*
X9209761Y10309524D02*
X9257380Y10404762D01*
X9257380Y10595239D01*
X9209761Y10690477D01*
X9162142Y10738096D01*
X9066904Y10785715D01*
X8781190Y10785715D01*
X8685952Y10738096D01*
X8638333Y10690477D01*
X8590714Y10595239D01*
X8590714Y10404762D01*
X8638333Y10309524D01*
X9867380Y20404762D02*
X9867380Y19833334D01*
X10867380Y20119048D02*
X9867380Y20119048D01*
X10867380Y19500000D02*
X10200714Y19500000D01*
X10391190Y19500000D02*
X10295952Y19452381D01*
X10248333Y19404762D01*
X10200714Y19309524D01*
X10200714Y19214286D01*
X9867380Y18976191D02*
X9867380Y18309524D01*
X10867380Y18738096D01*
X9867380Y17738096D02*
X9867380Y17642858D01*
X9915000Y17547620D01*
X9962619Y17500000D01*
X10057857Y17452381D01*
X10248333Y17404762D01*
X10486428Y17404762D01*
X10676904Y17452381D01*
X10772142Y17500000D01*
X10819761Y17547620D01*
X10867380Y17642858D01*
X10867380Y17738096D01*
X10819761Y17833334D01*
X10772142Y17880953D01*
X10676904Y17928572D01*
X10486428Y17976191D01*
X10248333Y17976191D01*
X10057857Y17928572D01*
X9962619Y17880953D01*
X9915000Y17833334D01*
X9867380Y17738096D01*
X9867380Y17071429D02*
X9867380Y16404762D01*
X10867380Y16833334D01*
X10867380Y14833334D02*
X10343571Y14833334D01*
X10248333Y14880953D01*
X10200714Y14976191D01*
X10200714Y15166667D01*
X10248333Y15261905D01*
X10819761Y14833334D02*
X10867380Y14928572D01*
X10867380Y15166667D01*
X10819761Y15261905D01*
X10724523Y15309524D01*
X10629285Y15309524D01*
X10534047Y15261905D01*
X10486428Y15166667D01*
X10486428Y14928572D01*
X10438809Y14833334D01*
X10200714Y14357143D02*
X10867380Y14357143D01*
X10295952Y14357143D02*
X10248333Y14309524D01*
X10200714Y14214286D01*
X10200714Y14071429D01*
X10248333Y13976191D01*
X10343571Y13928572D01*
X10867380Y13928572D01*
X10867380Y13023810D02*
X9867380Y13023810D01*
X10819761Y13023810D02*
X10867380Y13119048D01*
X10867380Y13309524D01*
X10819761Y13404762D01*
X10772142Y13452381D01*
X10676904Y13500000D01*
X10391190Y13500000D01*
X10295952Y13452381D01*
X10248333Y13404762D01*
X10200714Y13309524D01*
X10200714Y13119048D01*
X10248333Y13023810D01*
X10200714Y11928572D02*
X10200714Y11547620D01*
X9867380Y11785715D02*
X10724523Y11785715D01*
X10819761Y11738096D01*
X10867380Y11642858D01*
X10867380Y11547620D01*
X10867380Y11214286D02*
X10200714Y11214286D01*
X10391190Y11214286D02*
X10295952Y11166667D01*
X10248333Y11119048D01*
X10200714Y11023810D01*
X10200714Y10928572D01*
X9867380Y10690477D02*
X9867380Y10023810D01*
X10867380Y10452381D01*
X9962619Y9690477D02*
X9915000Y9642858D01*
X9867380Y9547620D01*
X9867380Y9309524D01*
X9915000Y9214286D01*
X9962619Y9166667D01*
X10057857Y9119048D01*
X10153095Y9119048D01*
X10295952Y9166667D01*
X10867380Y9738096D01*
X10867380Y9119048D01*
X9867380Y8785715D02*
X9867380Y8119048D01*
X10867380Y8547620D01*
X10772142Y7738096D02*
X10819761Y7690477D01*
X10867380Y7738096D01*
X10819761Y7785715D01*
X10772142Y7738096D01*
X10867380Y7738096D01*
X11810714Y19523810D02*
X12620238Y19523810D01*
X12715476Y19571429D01*
X12763095Y19619048D01*
X12810714Y19714286D01*
X12810714Y19857143D01*
X12763095Y19952381D01*
X12429761Y19523810D02*
X12477380Y19619048D01*
X12477380Y19809524D01*
X12429761Y19904762D01*
X12382142Y19952381D01*
X12286904Y20000000D01*
X12001190Y20000000D01*
X11905952Y19952381D01*
X11858333Y19904762D01*
X11810714Y19809524D01*
X11810714Y19619048D01*
X11858333Y19523810D01*
X12477380Y18904762D02*
X12429761Y19000000D01*
X12382142Y19047620D01*
X12286904Y19095239D01*
X12001190Y19095239D01*
X11905952Y19047620D01*
X11858333Y19000000D01*
X11810714Y18904762D01*
X11810714Y18761905D01*
X11858333Y18666667D01*
X11905952Y18619048D01*
X12001190Y18571429D01*
X12286904Y18571429D01*
X12382142Y18619048D01*
X12429761Y18666667D01*
X12477380Y18761905D01*
X12477380Y18904762D01*
X12477380Y18000000D02*
X12429761Y18095239D01*
X12382142Y18142858D01*
X12286904Y18190477D01*
X12001190Y18190477D01*
X11905952Y18142858D01*
X11858333Y18095239D01*
X11810714Y18000000D01*
X11810714Y17857143D01*
X11858333Y17761905D01*
X11905952Y17714286D01*
X12001190Y17666667D01*
X12286904Y17666667D01*
X12382142Y17714286D01*
X12429761Y17761905D01*
X12477380Y17857143D01*
X12477380Y18000000D01*
X12477380Y16809524D02*
X11477380Y16809524D01*
X12429761Y16809524D02*
X12477380Y16904762D01*
X12477380Y17095239D01*
X12429761Y17190477D01*
X12382142Y17238096D01*
X12286904Y17285715D01*
X12001190Y17285715D01*
X11905952Y17238096D01*
X11858333Y17190477D01*
X11810714Y17095239D01*
X11810714Y16904762D01*
X11858333Y16809524D01*
X12477380Y16333334D02*
X11477380Y16333334D01*
X11858333Y16333334D02*
X11810714Y16238096D01*
X11810714Y16047620D01*
X11858333Y15952381D01*
X11905952Y15904762D01*
X12001190Y15857143D01*
X12286904Y15857143D01*
X12382142Y15904762D01*
X12429761Y15952381D01*
X12477380Y16047620D01*
X12477380Y16238096D01*
X12429761Y16333334D01*
X11810714Y15523810D02*
X12477380Y15285715D01*
X11810714Y15047620D02*
X12477380Y15285715D01*
X12715476Y15380953D01*
X12763095Y15428572D01*
X12810714Y15523810D01*
X12429761Y14285715D02*
X12477380Y14380953D01*
X12477380Y14571429D01*
X12429761Y14666667D01*
X12334523Y14714286D01*
X11953571Y14714286D01*
X11858333Y14666667D01*
X11810714Y14571429D01*
X11810714Y14380953D01*
X11858333Y14285715D01*
X11953571Y14238096D01*
X12048809Y14238096D01*
X12144047Y14714286D01*
X12429761Y13095239D02*
X12477380Y12952381D01*
X12477380Y12714286D01*
X12429761Y12619048D01*
X12382142Y12571429D01*
X12286904Y12523810D01*
X12191666Y12523810D01*
X12096428Y12571429D01*
X12048809Y12619048D01*
X12001190Y12714286D01*
X11953571Y12904762D01*
X11905952Y13000000D01*
X11858333Y13047620D01*
X11763095Y13095239D01*
X11667857Y13095239D01*
X11572619Y13047620D01*
X11525000Y13000000D01*
X11477380Y12904762D01*
X11477380Y12666667D01*
X11525000Y12523810D01*
X11810714Y11666667D02*
X12477380Y11666667D01*
X11810714Y12095239D02*
X12334523Y12095239D01*
X12429761Y12047620D01*
X12477380Y11952381D01*
X12477380Y11809524D01*
X12429761Y11714286D01*
X12382142Y11666667D01*
X12477380Y11190477D02*
X11810714Y11190477D01*
X11905952Y11190477D02*
X11858333Y11142858D01*
X11810714Y11047620D01*
X11810714Y10904762D01*
X11858333Y10809524D01*
X11953571Y10761905D01*
X12477380Y10761905D01*
X11953571Y10761905D02*
X11858333Y10714286D01*
X11810714Y10619048D01*
X11810714Y10476191D01*
X11858333Y10380953D01*
X11953571Y10333334D01*
X12477380Y10333334D01*
X12477380Y9857143D02*
X11810714Y9857143D01*
X11477380Y9857143D02*
X11525000Y9904762D01*
X11572619Y9857143D01*
X11525000Y9809524D01*
X11477380Y9857143D01*
X11572619Y9857143D01*
X12477380Y8952381D02*
X11477380Y8952381D01*
X12429761Y8952381D02*
X12477380Y9047620D01*
X12477380Y9238096D01*
X12429761Y9333334D01*
X12382142Y9380953D01*
X12286904Y9428572D01*
X12001190Y9428572D01*
X11905952Y9380953D01*
X11858333Y9333334D01*
X11810714Y9238096D01*
X11810714Y9047620D01*
X11858333Y8952381D01*
X12477380Y8047620D02*
X11953571Y8047620D01*
X11858333Y8095239D01*
X11810714Y8190477D01*
X11810714Y8380953D01*
X11858333Y8476191D01*
X12429761Y8047620D02*
X12477380Y8142858D01*
X12477380Y8380953D01*
X12429761Y8476191D01*
X12334523Y8523810D01*
X12239285Y8523810D01*
X12144047Y8476191D01*
X12096428Y8380953D01*
X12096428Y8142858D01*
X12048809Y8047620D01*
X35688214Y35157620D02*
X35688214Y36157620D01*
X35688214Y35776667D02*
X35602500Y35824286D01*
X35431071Y35824286D01*
X35345357Y35776667D01*
X35302500Y35729048D01*
X35259642Y35633810D01*
X35259642Y35348096D01*
X35302500Y35252858D01*
X35345357Y35205239D01*
X35431071Y35157620D01*
X35602500Y35157620D01*
X35688214Y35205239D01*
X34531071Y35205239D02*
X34616785Y35157620D01*
X34788214Y35157620D01*
X34873928Y35205239D01*
X34916785Y35300477D01*
X34916785Y35681429D01*
X34873928Y35776667D01*
X34788214Y35824286D01*
X34616785Y35824286D01*
X34531071Y35776667D01*
X34488214Y35681429D01*
X34488214Y35586191D01*
X34916785Y35490953D01*
X34231071Y35824286D02*
X33888214Y35824286D01*
X34102500Y35157620D02*
X34102500Y36014762D01*
X34059642Y36110000D01*
X33973928Y36157620D01*
X33888214Y36157620D01*
X33459642Y35157620D02*
X33545357Y35205239D01*
X33588214Y35252858D01*
X33631071Y35348096D01*
X33631071Y35633810D01*
X33588214Y35729048D01*
X33545357Y35776667D01*
X33459642Y35824286D01*
X33331071Y35824286D01*
X33245357Y35776667D01*
X33202500Y35729048D01*
X33159642Y35633810D01*
X33159642Y35348096D01*
X33202500Y35252858D01*
X33245357Y35205239D01*
X33331071Y35157620D01*
X33459642Y35157620D01*
X32773928Y35157620D02*
X32773928Y35824286D01*
X32773928Y35633810D02*
X32731071Y35729048D01*
X32688214Y35776667D01*
X32602500Y35824286D01*
X32516785Y35824286D01*
X31873928Y35205239D02*
X31959642Y35157620D01*
X32131071Y35157620D01*
X32216785Y35205239D01*
X32259642Y35300477D01*
X32259642Y35681429D01*
X32216785Y35776667D01*
X32131071Y35824286D01*
X31959642Y35824286D01*
X31873928Y35776667D01*
X31831071Y35681429D01*
X31831071Y35586191D01*
X32259642Y35490953D01*
X30888214Y35824286D02*
X30545357Y35824286D01*
X30759642Y35157620D02*
X30759642Y36014762D01*
X30716785Y36110000D01*
X30631071Y36157620D01*
X30545357Y36157620D01*
X30245357Y35157620D02*
X30245357Y35824286D01*
X30245357Y36157620D02*
X30288214Y36110000D01*
X30245357Y36062381D01*
X30202500Y36110000D01*
X30245357Y36157620D01*
X30245357Y36062381D01*
X29945357Y35824286D02*
X29602500Y35824286D01*
X29816785Y36157620D02*
X29816785Y35300477D01*
X29773928Y35205239D01*
X29688214Y35157620D01*
X29602500Y35157620D01*
X29431071Y35824286D02*
X29088214Y35824286D01*
X29302500Y36157620D02*
X29302500Y35300477D01*
X29259642Y35205239D01*
X29173928Y35157620D01*
X29088214Y35157620D01*
X28788214Y35157620D02*
X28788214Y35824286D01*
X28788214Y36157620D02*
X28831071Y36110000D01*
X28788214Y36062381D01*
X28745357Y36110000D01*
X28788214Y36157620D01*
X28788214Y36062381D01*
X28359642Y35824286D02*
X28359642Y35157620D01*
X28359642Y35729048D02*
X28316785Y35776667D01*
X28231071Y35824286D01*
X28102500Y35824286D01*
X28016785Y35776667D01*
X27973928Y35681429D01*
X27973928Y35157620D01*
X27159642Y35824286D02*
X27159642Y35014762D01*
X27202500Y34919524D01*
X27245357Y34871905D01*
X27331071Y34824286D01*
X27459642Y34824286D01*
X27545357Y34871905D01*
X27159642Y35205239D02*
X27245357Y35157620D01*
X27416785Y35157620D01*
X27502500Y35205239D01*
X27545357Y35252858D01*
X27588214Y35348096D01*
X27588214Y35633810D01*
X27545357Y35729048D01*
X27502500Y35776667D01*
X27416785Y35824286D01*
X27245357Y35824286D01*
X27159642Y35776667D01*
X26688214Y35205239D02*
X26688214Y35157620D01*
X26731071Y35062381D01*
X26773928Y35014762D01*
X25616785Y35157620D02*
X25616785Y35824286D01*
X25616785Y35633810D02*
X25573928Y35729048D01*
X25531071Y35776667D01*
X25445357Y35824286D01*
X25359642Y35824286D01*
X24716785Y35205239D02*
X24802500Y35157620D01*
X24973928Y35157620D01*
X25059642Y35205239D01*
X25102500Y35300477D01*
X25102500Y35681429D01*
X25059642Y35776667D01*
X24973928Y35824286D01*
X24802500Y35824286D01*
X24716785Y35776667D01*
X24673928Y35681429D01*
X24673928Y35586191D01*
X25102500Y35490953D01*
X24288214Y35157620D02*
X24288214Y35824286D01*
X24288214Y35729048D02*
X24245357Y35776667D01*
X24159642Y35824286D01*
X24031071Y35824286D01*
X23945357Y35776667D01*
X23902500Y35681429D01*
X23902500Y35157620D01*
X23902500Y35681429D02*
X23859642Y35776667D01*
X23773928Y35824286D01*
X23645357Y35824286D01*
X23559642Y35776667D01*
X23516785Y35681429D01*
X23516785Y35157620D01*
X22959642Y35157620D02*
X23045357Y35205239D01*
X23088214Y35252858D01*
X23131071Y35348096D01*
X23131071Y35633810D01*
X23088214Y35729048D01*
X23045357Y35776667D01*
X22959642Y35824286D01*
X22831071Y35824286D01*
X22745357Y35776667D01*
X22702500Y35729048D01*
X22659642Y35633810D01*
X22659642Y35348096D01*
X22702500Y35252858D01*
X22745357Y35205239D01*
X22831071Y35157620D01*
X22959642Y35157620D01*
X22359642Y35824286D02*
X22145357Y35157620D01*
X21931071Y35824286D01*
X21245357Y35205239D02*
X21331071Y35157620D01*
X21502500Y35157620D01*
X21588214Y35205239D01*
X21631071Y35300477D01*
X21631071Y35681429D01*
X21588214Y35776667D01*
X21502500Y35824286D01*
X21331071Y35824286D01*
X21245357Y35776667D01*
X21202500Y35681429D01*
X21202500Y35586191D01*
X21631071Y35490953D01*
X20816785Y35252858D02*
X20773928Y35205239D01*
X20816785Y35157620D01*
X20859642Y35205239D01*
X20816785Y35252858D01*
X20816785Y35157620D01*
X20816785Y35776667D02*
X20773928Y35729048D01*
X20816785Y35681429D01*
X20859642Y35729048D01*
X20816785Y35776667D01*
X20816785Y35681429D01*
X35088214Y33452381D02*
X35173928Y33500000D01*
X35259642Y33595239D01*
X35388214Y33738096D01*
X35473928Y33785715D01*
X35559642Y33785715D01*
X35516785Y33547620D02*
X35602500Y33595239D01*
X35688214Y33690477D01*
X35731071Y33880953D01*
X35731071Y34214286D01*
X35688214Y34404762D01*
X35602500Y34500000D01*
X35516785Y34547620D01*
X35345357Y34547620D01*
X35259642Y34500000D01*
X35173928Y34404762D01*
X35131071Y34214286D01*
X35131071Y33880953D01*
X35173928Y33690477D01*
X35259642Y33595239D01*
X35345357Y33547620D01*
X35516785Y33547620D01*
X34273928Y33547620D02*
X34788214Y33547620D01*
X34531071Y33547620D02*
X34531071Y34547620D01*
X34616785Y34404762D01*
X34702500Y34309524D01*
X34788214Y34261905D01*
X33845357Y33595239D02*
X33845357Y33547620D01*
X33888214Y33452381D01*
X33931071Y33404762D01*
X32173928Y33452381D02*
X32259642Y33500000D01*
X32345357Y33595239D01*
X32473928Y33738096D01*
X32559642Y33785715D01*
X32645357Y33785715D01*
X32602500Y33547620D02*
X32688214Y33595239D01*
X32773928Y33690477D01*
X32816785Y33880953D01*
X32816785Y34214286D01*
X32773928Y34404762D01*
X32688214Y34500000D01*
X32602500Y34547620D01*
X32431071Y34547620D01*
X32345357Y34500000D01*
X32259642Y34404762D01*
X32216785Y34214286D01*
X32216785Y33880953D01*
X32259642Y33690477D01*
X32345357Y33595239D01*
X32431071Y33547620D01*
X32602500Y33547620D01*
X31873928Y34452381D02*
X31831071Y34500000D01*
X31745357Y34547620D01*
X31531071Y34547620D01*
X31445357Y34500000D01*
X31402500Y34452381D01*
X31359642Y34357143D01*
X31359642Y34261905D01*
X31402500Y34119048D01*
X31916785Y33547620D01*
X31359642Y33547620D01*
X30931071Y33595239D02*
X30931071Y33547620D01*
X30973928Y33452381D01*
X31016785Y33404762D01*
X29988214Y34547620D02*
X29473928Y34547620D01*
X29731071Y33547620D02*
X29731071Y34547620D01*
X28702500Y33547620D02*
X29216785Y33547620D01*
X28959642Y33547620D02*
X28959642Y34547620D01*
X29045357Y34404762D01*
X29131071Y34309524D01*
X29216785Y34261905D01*
X28273928Y33595239D02*
X28273928Y33547620D01*
X28316785Y33452381D01*
X28359642Y33404762D01*
X27202500Y33547620D02*
X27202500Y34547620D01*
X26988214Y34547620D01*
X26859642Y34500000D01*
X26773928Y34404762D01*
X26731071Y34309524D01*
X26688214Y34119048D01*
X26688214Y33976191D01*
X26731071Y33785715D01*
X26773928Y33690477D01*
X26859642Y33595239D01*
X26988214Y33547620D01*
X27202500Y33547620D01*
X26345357Y34452381D02*
X26302500Y34500000D01*
X26216785Y34547620D01*
X26002500Y34547620D01*
X25916785Y34500000D01*
X25873928Y34452381D01*
X25831071Y34357143D01*
X25831071Y34261905D01*
X25873928Y34119048D01*
X26388214Y33547620D01*
X25831071Y33547620D01*
X25402500Y33595239D02*
X25402500Y33547620D01*
X25445357Y33452381D01*
X25488214Y33404762D01*
X24331071Y33547620D02*
X24331071Y34547620D01*
X24116785Y34547620D01*
X23988214Y34500000D01*
X23902500Y34404762D01*
X23859642Y34309524D01*
X23816785Y34119048D01*
X23816785Y33976191D01*
X23859642Y33785715D01*
X23902500Y33690477D01*
X23988214Y33595239D01*
X24116785Y33547620D01*
X24331071Y33547620D01*
X23516785Y34547620D02*
X22959642Y34547620D01*
X23259642Y34166667D01*
X23131071Y34166667D01*
X23045357Y34119048D01*
X23002500Y34071429D01*
X22959642Y33976191D01*
X22959642Y33738096D01*
X23002500Y33642858D01*
X23045357Y33595239D01*
X23131071Y33547620D01*
X23388214Y33547620D01*
X23473928Y33595239D01*
X23516785Y33642858D01*
X22531071Y33595239D02*
X22531071Y33547620D01*
X22573928Y33452381D01*
X22616785Y33404762D01*
X21459642Y33547620D02*
X21459642Y34547620D01*
X21245357Y34547620D01*
X21116785Y34500000D01*
X21031071Y34404762D01*
X20988214Y34309524D01*
X20945357Y34119048D01*
X20945357Y33976191D01*
X20988214Y33785715D01*
X21031071Y33690477D01*
X21116785Y33595239D01*
X21245357Y33547620D01*
X21459642Y33547620D01*
X20088214Y33547620D02*
X20602500Y33547620D01*
X20345357Y33547620D02*
X20345357Y34547620D01*
X20431071Y34404762D01*
X20516785Y34309524D01*
X20602500Y34261905D01*
X19573928Y34119048D02*
X19659642Y34166667D01*
X19702500Y34214286D01*
X19745357Y34309524D01*
X19745357Y34357143D01*
X19702500Y34452381D01*
X19659642Y34500000D01*
X19573928Y34547620D01*
X19402500Y34547620D01*
X19316785Y34500000D01*
X19273928Y34452381D01*
X19231071Y34357143D01*
X19231071Y34309524D01*
X19273928Y34214286D01*
X19316785Y34166667D01*
X19402500Y34119048D01*
X19573928Y34119048D01*
X19659642Y34071429D01*
X19702500Y34023810D01*
X19745357Y33928572D01*
X19745357Y33738096D01*
X19702500Y33642858D01*
X19659642Y33595239D01*
X19573928Y33547620D01*
X19402500Y33547620D01*
X19316785Y33595239D01*
X19273928Y33642858D01*
X19231071Y33738096D01*
X19231071Y33928572D01*
X19273928Y34023810D01*
X19316785Y34071429D01*
X19402500Y34119048D01*
X18802500Y33595239D02*
X18802500Y33547620D01*
X18845357Y33452381D01*
X18888214Y33404762D01*
X35173928Y32032858D02*
X35216785Y31985239D01*
X35345357Y31937620D01*
X35431071Y31937620D01*
X35559642Y31985239D01*
X35645357Y32080477D01*
X35688214Y32175715D01*
X35731071Y32366191D01*
X35731071Y32509048D01*
X35688214Y32699524D01*
X35645357Y32794762D01*
X35559642Y32890000D01*
X35431071Y32937620D01*
X35345357Y32937620D01*
X35216785Y32890000D01*
X35173928Y32842381D01*
X34873928Y32937620D02*
X34273928Y32937620D01*
X34659642Y31937620D01*
X33888214Y31985239D02*
X33888214Y31937620D01*
X33931071Y31842381D01*
X33973928Y31794762D01*
X32302500Y32032858D02*
X32345357Y31985239D01*
X32473928Y31937620D01*
X32559642Y31937620D01*
X32688214Y31985239D01*
X32773928Y32080477D01*
X32816785Y32175715D01*
X32859642Y32366191D01*
X32859642Y32509048D01*
X32816785Y32699524D01*
X32773928Y32794762D01*
X32688214Y32890000D01*
X32559642Y32937620D01*
X32473928Y32937620D01*
X32345357Y32890000D01*
X32302500Y32842381D01*
X31788214Y32509048D02*
X31873928Y32556667D01*
X31916785Y32604286D01*
X31959642Y32699524D01*
X31959642Y32747143D01*
X31916785Y32842381D01*
X31873928Y32890000D01*
X31788214Y32937620D01*
X31616785Y32937620D01*
X31531071Y32890000D01*
X31488214Y32842381D01*
X31445357Y32747143D01*
X31445357Y32699524D01*
X31488214Y32604286D01*
X31531071Y32556667D01*
X31616785Y32509048D01*
X31788214Y32509048D01*
X31873928Y32461429D01*
X31916785Y32413810D01*
X31959642Y32318572D01*
X31959642Y32128096D01*
X31916785Y32032858D01*
X31873928Y31985239D01*
X31788214Y31937620D01*
X31616785Y31937620D01*
X31531071Y31985239D01*
X31488214Y32032858D01*
X31445357Y32128096D01*
X31445357Y32318572D01*
X31488214Y32413810D01*
X31531071Y32461429D01*
X31616785Y32509048D01*
X31016785Y31985239D02*
X31016785Y31937620D01*
X31059642Y31842381D01*
X31102500Y31794762D01*
X29431071Y31937620D02*
X29731071Y32413810D01*
X29945357Y31937620D02*
X29945357Y32937620D01*
X29602500Y32937620D01*
X29516785Y32890000D01*
X29473928Y32842381D01*
X29431071Y32747143D01*
X29431071Y32604286D01*
X29473928Y32509048D01*
X29516785Y32461429D01*
X29602500Y32413810D01*
X29945357Y32413810D01*
X28573928Y31937620D02*
X29088214Y31937620D01*
X28831071Y31937620D02*
X28831071Y32937620D01*
X28916785Y32794762D01*
X29002500Y32699524D01*
X29088214Y32651905D01*
X28145357Y31985239D02*
X28145357Y31937620D01*
X28188214Y31842381D01*
X28231071Y31794762D01*
X26559642Y31937620D02*
X26859642Y32413810D01*
X27073928Y31937620D02*
X27073928Y32937620D01*
X26731071Y32937620D01*
X26645357Y32890000D01*
X26602500Y32842381D01*
X26559642Y32747143D01*
X26559642Y32604286D01*
X26602500Y32509048D01*
X26645357Y32461429D01*
X26731071Y32413810D01*
X27073928Y32413810D01*
X26216785Y32842381D02*
X26173928Y32890000D01*
X26088214Y32937620D01*
X25873928Y32937620D01*
X25788214Y32890000D01*
X25745357Y32842381D01*
X25702500Y32747143D01*
X25702500Y32651905D01*
X25745357Y32509048D01*
X26259642Y31937620D01*
X25702500Y31937620D01*
D12*
X33566666Y5852381D02*
X33414285Y5776191D01*
X33109523Y5776191D01*
X32957142Y5852381D01*
X32880952Y6004762D01*
X32880952Y6080953D01*
X32957142Y6233334D01*
X33109523Y6309524D01*
X33338095Y6309524D01*
X33490476Y6385715D01*
X33566666Y6538096D01*
X33566666Y6614286D01*
X33490476Y6766667D01*
X33338095Y6842858D01*
X33109523Y6842858D01*
X32957142Y6766667D01*
X32347619Y6842858D02*
X31966666Y5776191D01*
X31585714Y6842858D02*
X31966666Y5776191D01*
X32119047Y5395239D01*
X32195238Y5319048D01*
X32347619Y5242858D01*
X30976190Y6842858D02*
X30976190Y5776191D01*
X30976190Y6690477D02*
X30900000Y6766667D01*
X30747619Y6842858D01*
X30519047Y6842858D01*
X30366666Y6766667D01*
X30290476Y6614286D01*
X30290476Y5776191D01*
X29757142Y6842858D02*
X29147619Y6842858D01*
X29528571Y7376191D02*
X29528571Y6004762D01*
X29452380Y5852381D01*
X29300000Y5776191D01*
X29147619Y5776191D01*
X28614285Y5776191D02*
X28614285Y7376191D01*
X27928571Y5776191D02*
X27928571Y6614286D01*
X28004761Y6766667D01*
X28157142Y6842858D01*
X28385714Y6842858D01*
X28538095Y6766667D01*
X28614285Y6690477D01*
X27166666Y5928572D02*
X27090476Y5852381D01*
X27166666Y5776191D01*
X27242857Y5852381D01*
X27166666Y5928572D01*
X27166666Y5776191D01*
X25795238Y5852381D02*
X25947619Y5776191D01*
X26252380Y5776191D01*
X26404761Y5852381D01*
X26480952Y6004762D01*
X26480952Y6614286D01*
X26404761Y6766667D01*
X26252380Y6842858D01*
X25947619Y6842858D01*
X25795238Y6766667D01*
X25719047Y6614286D01*
X25719047Y6461905D01*
X26480952Y6309524D01*
X25185714Y6842858D02*
X24880952Y5776191D01*
X24576190Y6538096D01*
X24271428Y5776191D01*
X23966666Y6842858D01*
X22671428Y5776191D02*
X22671428Y6614286D01*
X22747619Y6766667D01*
X22900000Y6842858D01*
X23204761Y6842858D01*
X23357142Y6766667D01*
X22671428Y5852381D02*
X22823809Y5776191D01*
X23204761Y5776191D01*
X23357142Y5852381D01*
X23433333Y6004762D01*
X23433333Y6157143D01*
X23357142Y6309524D01*
X23204761Y6385715D01*
X22823809Y6385715D01*
X22671428Y6461905D01*
X21909523Y6842858D02*
X21909523Y5776191D01*
X21909523Y6690477D02*
X21833333Y6766667D01*
X21680952Y6842858D01*
X21452380Y6842858D01*
X21300000Y6766667D01*
X21223809Y6614286D01*
X21223809Y5776191D01*
X19776190Y5852381D02*
X19928571Y5776191D01*
X20233333Y5776191D01*
X20385714Y5852381D01*
X20461904Y5928572D01*
X20538095Y6080953D01*
X20538095Y6538096D01*
X20461904Y6690477D01*
X20385714Y6766667D01*
X20233333Y6842858D01*
X19928571Y6842858D01*
X19776190Y6766667D01*
X18861904Y5776191D02*
X19014285Y5852381D01*
X19090476Y5928572D01*
X19166666Y6080953D01*
X19166666Y6538096D01*
X19090476Y6690477D01*
X19014285Y6766667D01*
X18861904Y6842858D01*
X18633333Y6842858D01*
X18480952Y6766667D01*
X18404761Y6690477D01*
X18328571Y6538096D01*
X18328571Y6080953D01*
X18404761Y5928572D01*
X18480952Y5852381D01*
X18633333Y5776191D01*
X18861904Y5776191D01*
X17414285Y5776191D02*
X17566666Y5852381D01*
X17642857Y6004762D01*
X17642857Y7376191D01*
X16880952Y5852381D02*
X16728571Y5776191D01*
X16423809Y5776191D01*
X16271428Y5852381D01*
X16195238Y6004762D01*
X16195238Y6080953D01*
X16271428Y6233334D01*
X16423809Y6309524D01*
X16652380Y6309524D01*
X16804761Y6385715D01*
X16880952Y6538096D01*
X16880952Y6614286D01*
X16804761Y6766667D01*
X16652380Y6842858D01*
X16423809Y6842858D01*
X16271428Y6766667D01*
X14900000Y5852381D02*
X15052380Y5776191D01*
X15357142Y5776191D01*
X15509523Y5852381D01*
X15585714Y6004762D01*
X15585714Y6614286D01*
X15509523Y6766667D01*
X15357142Y6842858D01*
X15052380Y6842858D01*
X14900000Y6766667D01*
X14823809Y6614286D01*
X14823809Y6461905D01*
X15585714Y6309524D01*
X13909523Y5776191D02*
X14061904Y5852381D01*
X14138095Y6004762D01*
X14138095Y7376191D01*
X13071428Y5776191D02*
X13223809Y5852381D01*
X13300000Y6004762D01*
X13300000Y7376191D01*
X12461904Y5928572D02*
X12385714Y5852381D01*
X12461904Y5776191D01*
X12538095Y5852381D01*
X12461904Y5928572D01*
X12461904Y5776191D01*
X11014285Y5852381D02*
X11166666Y5776191D01*
X11471428Y5776191D01*
X11623809Y5852381D01*
X11700000Y5928572D01*
X11776190Y6080953D01*
X11776190Y6538096D01*
X11700000Y6690477D01*
X11623809Y6766667D01*
X11471428Y6842858D01*
X11166666Y6842858D01*
X11014285Y6766667D01*
X10100000Y5776191D02*
X10252380Y5852381D01*
X10328571Y5928572D01*
X10404761Y6080953D01*
X10404761Y6538096D01*
X10328571Y6690477D01*
X10252380Y6766667D01*
X10100000Y6842858D01*
X9871428Y6842858D01*
X9719047Y6766667D01*
X9642857Y6690477D01*
X9566666Y6538096D01*
X9566666Y6080953D01*
X9642857Y5928572D01*
X9719047Y5852381D01*
X9871428Y5776191D01*
X10100000Y5776191D01*
X8880952Y5776191D02*
X8880952Y6842858D01*
X8880952Y6690477D02*
X8804761Y6766667D01*
X8652380Y6842858D01*
X8423809Y6842858D01*
X8271428Y6766667D01*
X8195238Y6614286D01*
X8195238Y5776191D01*
X8195238Y6614286D02*
X8119047Y6766667D01*
X7966666Y6842858D01*
X7738095Y6842858D01*
X7585714Y6766667D01*
X7509523Y6614286D01*
X7509523Y5776191D01*
D11*
X14378571Y25758405D02*
X13635714Y25758405D01*
X14007142Y24458405D02*
X14007142Y25758405D01*
X12459523Y24458405D02*
X12892857Y25077453D01*
X13202380Y24458405D02*
X13202380Y25758405D01*
X12707142Y25758405D01*
X12583333Y25696500D01*
X12521428Y25634596D01*
X12459523Y25510786D01*
X12459523Y25325072D01*
X12521428Y25201262D01*
X12583333Y25139358D01*
X12707142Y25077453D01*
X13202380Y25077453D01*
X12026190Y25758405D02*
X11159523Y25758405D01*
X11716666Y24458405D01*
X10416666Y25758405D02*
X10292857Y25758405D01*
X10169047Y25696500D01*
X10107142Y25634596D01*
X10045238Y25510786D01*
X9983333Y25263167D01*
X9983333Y24953643D01*
X10045238Y24706024D01*
X10107142Y24582215D01*
X10169047Y24520310D01*
X10292857Y24458405D01*
X10416666Y24458405D01*
X10540476Y24520310D01*
X10602380Y24582215D01*
X10664285Y24706024D01*
X10726190Y24953643D01*
X10726190Y25263167D01*
X10664285Y25510786D01*
X10602380Y25634596D01*
X10540476Y25696500D01*
X10416666Y25758405D01*
X9550000Y25758405D02*
X8683333Y25758405D01*
X9240476Y24458405D01*
X18371428Y22365405D02*
X18371428Y23665405D01*
X17628571Y22365405D01*
X17628571Y23665405D01*
X16514285Y22427310D02*
X16638095Y22365405D01*
X16885714Y22365405D01*
X17009523Y22427310D01*
X17071428Y22551120D01*
X17071428Y23046358D01*
X17009523Y23170167D01*
X16885714Y23232072D01*
X16638095Y23232072D01*
X16514285Y23170167D01*
X16452380Y23046358D01*
X16452380Y22922548D01*
X17071428Y22798739D01*
X15338095Y23232072D02*
X15338095Y22179691D01*
X15400000Y22055881D01*
X15461904Y21993977D01*
X15585714Y21932072D01*
X15771428Y21932072D01*
X15895238Y21993977D01*
X15338095Y22427310D02*
X15461904Y22365405D01*
X15709523Y22365405D01*
X15833333Y22427310D01*
X15895238Y22489215D01*
X15957142Y22613024D01*
X15957142Y22984453D01*
X15895238Y23108262D01*
X15833333Y23170167D01*
X15709523Y23232072D01*
X15461904Y23232072D01*
X15338095Y23170167D01*
X14161904Y22365405D02*
X14161904Y23046358D01*
X14223809Y23170167D01*
X14347619Y23232072D01*
X14595238Y23232072D01*
X14719047Y23170167D01*
X14161904Y22427310D02*
X14285714Y22365405D01*
X14595238Y22365405D01*
X14719047Y22427310D01*
X14780952Y22551120D01*
X14780952Y22674929D01*
X14719047Y22798739D01*
X14595238Y22860643D01*
X14285714Y22860643D01*
X14161904Y22922548D01*
X13728571Y23232072D02*
X13233333Y23232072D01*
X13542857Y23665405D02*
X13542857Y22551120D01*
X13480952Y22427310D01*
X13357142Y22365405D01*
X13233333Y22365405D01*
X12800000Y22365405D02*
X12800000Y23232072D01*
X12800000Y23665405D02*
X12861904Y23603500D01*
X12800000Y23541596D01*
X12738095Y23603500D01*
X12800000Y23665405D01*
X12800000Y23541596D01*
X12304761Y23232072D02*
X11995238Y22365405D01*
X11685714Y23232072D01*
X10695238Y22427310D02*
X10819047Y22365405D01*
X11066666Y22365405D01*
X11190476Y22427310D01*
X11252380Y22551120D01*
X11252380Y23046358D01*
X11190476Y23170167D01*
X11066666Y23232072D01*
X10819047Y23232072D01*
X10695238Y23170167D01*
X10633333Y23046358D01*
X10633333Y22922548D01*
X11252380Y22798739D01*
X9271428Y23665405D02*
X8838095Y22365405D01*
X8404761Y23665405D01*
X7971428Y22365405D02*
X7971428Y23232072D01*
X7971428Y23665405D02*
X8033333Y23603500D01*
X7971428Y23541596D01*
X7909523Y23603500D01*
X7971428Y23665405D01*
X7971428Y23541596D01*
X7352380Y22365405D02*
X7352380Y23665405D01*
X7352380Y23170167D02*
X7228571Y23232072D01*
X6980952Y23232072D01*
X6857142Y23170167D01*
X6795238Y23108262D01*
X6733333Y22984453D01*
X6733333Y22613024D01*
X6795238Y22489215D01*
X6857142Y22427310D01*
X6980952Y22365405D01*
X7228571Y22365405D01*
X7352380Y22427310D01*
X5680952Y22427310D02*
X5804761Y22365405D01*
X6052380Y22365405D01*
X6176190Y22427310D01*
X6238095Y22551120D01*
X6238095Y23046358D01*
X6176190Y23170167D01*
X6052380Y23232072D01*
X5804761Y23232072D01*
X5680952Y23170167D01*
X5619047Y23046358D01*
X5619047Y22922548D01*
X6238095Y22798739D01*
X5123809Y22427310D02*
X4999999Y22365405D01*
X4752380Y22365405D01*
X4628571Y22427310D01*
X4566666Y22551120D01*
X4566666Y22613024D01*
X4628571Y22736834D01*
X4752380Y22798739D01*
X4938095Y22798739D01*
X5061904Y22860643D01*
X5123809Y22984453D01*
X5123809Y23046358D01*
X5061904Y23170167D01*
X4938095Y23232072D01*
X4752380Y23232072D01*
X4628571Y23170167D01*
D10*
X19428571Y29357143D02*
X19428571Y29690477D01*
X19952380Y29690477D02*
X18952380Y29690477D01*
X18952380Y29214286D01*
X19952380Y28261905D02*
X19476190Y28595239D01*
X19952380Y28833334D02*
X18952380Y28833334D01*
X18952380Y28452381D01*
X19000000Y28357143D01*
X19047619Y28309524D01*
X19142857Y28261905D01*
X19285714Y28261905D01*
X19380952Y28309524D01*
X19428571Y28357143D01*
X19476190Y28452381D01*
X19476190Y28833334D01*
X18952380Y27642858D02*
X18952380Y27452381D01*
X19000000Y27357143D01*
X19095238Y27261905D01*
X19285714Y27214286D01*
X19619047Y27214286D01*
X19809523Y27261905D01*
X19904761Y27357143D01*
X19952380Y27452381D01*
X19952380Y27642858D01*
X19904761Y27738096D01*
X19809523Y27833334D01*
X19619047Y27880953D01*
X19285714Y27880953D01*
X19095238Y27833334D01*
X19000000Y27738096D01*
X18952380Y27642858D01*
X19952380Y26785715D02*
X18952380Y26785715D01*
X19952380Y26214286D01*
X18952380Y26214286D01*
X18952380Y25880953D02*
X18952380Y25309524D01*
X19952380Y25595239D02*
X18952380Y25595239D01*
X18952380Y24357143D02*
X18952380Y23785715D01*
X19952380Y24071429D02*
X18952380Y24071429D01*
X18952380Y23261905D02*
X18952380Y23071429D01*
X19000000Y22976191D01*
X19095238Y22880953D01*
X19285714Y22833334D01*
X19619047Y22833334D01*
X19809523Y22880953D01*
X19904761Y22976191D01*
X19952380Y23071429D01*
X19952380Y23261905D01*
X19904761Y23357143D01*
X19809523Y23452381D01*
X19619047Y23500000D01*
X19285714Y23500000D01*
X19095238Y23452381D01*
X19000000Y23357143D01*
X18952380Y23261905D01*
X18952380Y22500000D02*
X19952380Y22261905D01*
X19238095Y22071429D01*
X19952380Y21880953D01*
X18952380Y21642858D01*
X19666666Y21309524D02*
X19666666Y20833334D01*
X19952380Y21404762D02*
X18952380Y21071429D01*
X19952380Y20738096D01*
X19952380Y19833334D02*
X19476190Y20166667D01*
X19952380Y20404762D02*
X18952380Y20404762D01*
X18952380Y20023810D01*
X19000000Y19928572D01*
X19047619Y19880953D01*
X19142857Y19833334D01*
X19285714Y19833334D01*
X19380952Y19880953D01*
X19428571Y19928572D01*
X19476190Y20023810D01*
X19476190Y20404762D01*
X19952380Y19404762D02*
X18952380Y19404762D01*
X18952380Y19166667D01*
X19000000Y19023810D01*
X19095238Y18928572D01*
X19190476Y18880953D01*
X19380952Y18833334D01*
X19523809Y18833334D01*
X19714285Y18880953D01*
X19809523Y18928572D01*
X19904761Y19023810D01*
X19952380Y19166667D01*
X19952380Y19404762D01*
X19904761Y18452381D02*
X19952380Y18309524D01*
X19952380Y18071429D01*
X19904761Y17976191D01*
X19857142Y17928572D01*
X19761904Y17880953D01*
X19666666Y17880953D01*
X19571428Y17928572D01*
X19523809Y17976191D01*
X19476190Y18071429D01*
X19428571Y18261905D01*
X19380952Y18357143D01*
X19333333Y18404762D01*
X19238095Y18452381D01*
X19142857Y18452381D01*
X19047619Y18404762D01*
X19000000Y18357143D01*
X18952380Y18261905D01*
X18952380Y18023810D01*
X19000000Y17880953D01*
X19428571Y16690477D02*
X19428571Y16357143D01*
X19952380Y16214286D02*
X19952380Y16690477D01*
X18952380Y16690477D01*
X18952380Y16214286D01*
X19952380Y15785715D02*
X18952380Y15785715D01*
X19952380Y15214286D01*
X18952380Y15214286D01*
X19428571Y14738096D02*
X19428571Y14404762D01*
X19952380Y14261905D02*
X19952380Y14738096D01*
X18952380Y14738096D01*
X18952380Y14261905D01*
X19952380Y13833334D02*
X18952380Y13833334D01*
X19666666Y13500000D01*
X18952380Y13166667D01*
X19952380Y13166667D01*
X19476190Y12500000D02*
X19952380Y12500000D01*
X18952380Y12833334D02*
X19476190Y12500000D01*
X18952380Y12166667D01*
D13*
X34928571Y41028929D02*
X34071428Y41028929D01*
X34500000Y39528929D02*
X34500000Y41028929D01*
X33357142Y39528929D02*
X33500000Y39600358D01*
X33571428Y39671786D01*
X33642857Y39814643D01*
X33642857Y40243215D01*
X33571428Y40386072D01*
X33500000Y40457500D01*
X33357142Y40528929D01*
X33142857Y40528929D01*
X33000000Y40457500D01*
X32928571Y40386072D01*
X32857142Y40243215D01*
X32857142Y39814643D01*
X32928571Y39671786D01*
X33000000Y39600358D01*
X33142857Y39528929D01*
X33357142Y39528929D01*
X32214285Y39528929D02*
X32214285Y40528929D01*
X32214285Y40243215D02*
X32142857Y40386072D01*
X32071428Y40457500D01*
X31928571Y40528929D01*
X31785714Y40528929D01*
X31285714Y39528929D02*
X31285714Y40528929D01*
X31285714Y41028929D02*
X31357142Y40957500D01*
X31285714Y40886072D01*
X31214285Y40957500D01*
X31285714Y41028929D01*
X31285714Y40886072D01*
X30571428Y40528929D02*
X30571428Y39528929D01*
X30571428Y40386072D02*
X30500000Y40457500D01*
X30357142Y40528929D01*
X30142857Y40528929D01*
X30000000Y40457500D01*
X29928571Y40314643D01*
X29928571Y39528929D01*
X29000000Y39528929D02*
X29142857Y39600358D01*
X29214285Y39671786D01*
X29285714Y39814643D01*
X29285714Y40243215D01*
X29214285Y40386072D01*
X29142857Y40457500D01*
X29000000Y40528929D01*
X28785714Y40528929D01*
X28642857Y40457500D01*
X28571428Y40386072D01*
X28500000Y40243215D01*
X28500000Y39814643D01*
X28571428Y39671786D01*
X28642857Y39600358D01*
X28785714Y39528929D01*
X29000000Y39528929D01*
X26785714Y39600358D02*
X26571428Y39528929D01*
X26214285Y39528929D01*
X26071428Y39600358D01*
X26000000Y39671786D01*
X25928571Y39814643D01*
X25928571Y39957500D01*
X26000000Y40100358D01*
X26071428Y40171786D01*
X26214285Y40243215D01*
X26500000Y40314643D01*
X26642857Y40386072D01*
X26714285Y40457500D01*
X26785714Y40600358D01*
X26785714Y40743215D01*
X26714285Y40886072D01*
X26642857Y40957500D01*
X26500000Y41028929D01*
X26142857Y41028929D01*
X25928571Y40957500D01*
X25428571Y40528929D02*
X25071428Y39528929D01*
X24714285Y40528929D02*
X25071428Y39528929D01*
X25214285Y39171786D01*
X25285714Y39100358D01*
X25428571Y39028929D01*
X24142857Y40528929D02*
X24142857Y39528929D01*
X24142857Y40386072D02*
X24071428Y40457500D01*
X23928571Y40528929D01*
X23714285Y40528929D01*
X23571428Y40457500D01*
X23500000Y40314643D01*
X23500000Y39528929D01*
X23000000Y40528929D02*
X22428571Y40528929D01*
X22785714Y41028929D02*
X22785714Y39743215D01*
X22714285Y39600358D01*
X22571428Y39528929D01*
X22428571Y39528929D01*
X21928571Y39528929D02*
X21928571Y41028929D01*
X21285714Y39528929D02*
X21285714Y40314643D01*
X21357142Y40457500D01*
X21500000Y40528929D01*
X21714285Y40528929D01*
X21857142Y40457500D01*
X21928571Y40386072D01*
X32892857Y37113929D02*
X33392857Y37828215D01*
X33750000Y37113929D02*
X33750000Y38613929D01*
X33178571Y38613929D01*
X33035714Y38542500D01*
X32964285Y38471072D01*
X32892857Y38328215D01*
X32892857Y38113929D01*
X32964285Y37971072D01*
X33035714Y37899643D01*
X33178571Y37828215D01*
X33750000Y37828215D01*
X31678571Y37185358D02*
X31821428Y37113929D01*
X32107142Y37113929D01*
X32250000Y37185358D01*
X32321428Y37328215D01*
X32321428Y37899643D01*
X32250000Y38042500D01*
X32107142Y38113929D01*
X31821428Y38113929D01*
X31678571Y38042500D01*
X31607142Y37899643D01*
X31607142Y37756786D01*
X32321428Y37613929D01*
X30964285Y38113929D02*
X30964285Y36613929D01*
X30964285Y38042500D02*
X30821428Y38113929D01*
X30535714Y38113929D01*
X30392857Y38042500D01*
X30321428Y37971072D01*
X30250000Y37828215D01*
X30250000Y37399643D01*
X30321428Y37256786D01*
X30392857Y37185358D01*
X30535714Y37113929D01*
X30821428Y37113929D01*
X30964285Y37185358D01*
X28964285Y37113929D02*
X28964285Y37899643D01*
X29035714Y38042500D01*
X29178571Y38113929D01*
X29464285Y38113929D01*
X29607142Y38042500D01*
X28964285Y37185358D02*
X29107142Y37113929D01*
X29464285Y37113929D01*
X29607142Y37185358D01*
X29678571Y37328215D01*
X29678571Y37471072D01*
X29607142Y37613929D01*
X29464285Y37685358D01*
X29107142Y37685358D01*
X28964285Y37756786D01*
X28250000Y37113929D02*
X28250000Y38113929D01*
X28250000Y38613929D02*
X28321428Y38542500D01*
X28250000Y38471072D01*
X28178571Y38542500D01*
X28250000Y38613929D01*
X28250000Y38471072D01*
X27535714Y37113929D02*
X27535714Y38113929D01*
X27535714Y37828215D02*
X27464285Y37971072D01*
X27392857Y38042500D01*
X27250000Y38113929D01*
X27107142Y38113929D01*
X24750000Y37113929D02*
X25464285Y37113929D01*
X25464285Y38613929D01*
X23607142Y37113929D02*
X23607142Y37899643D01*
X23678571Y38042500D01*
X23821428Y38113929D01*
X24107142Y38113929D01*
X24250000Y38042500D01*
X23607142Y37185358D02*
X23750000Y37113929D01*
X24107142Y37113929D01*
X24250000Y37185358D01*
X24321428Y37328215D01*
X24321428Y37471072D01*
X24250000Y37613929D01*
X24107142Y37685358D01*
X23750000Y37685358D01*
X23607142Y37756786D01*
X22892857Y37113929D02*
X22892857Y38613929D01*
X22892857Y38042500D02*
X22750000Y38113929D01*
X22464285Y38113929D01*
X22321428Y38042500D01*
X22250000Y37971072D01*
X22178571Y37828215D01*
X22178571Y37399643D01*
X22250000Y37256786D01*
X22321428Y37185358D01*
X22464285Y37113929D01*
X22750000Y37113929D01*
X22892857Y37185358D01*
D10*
X16147380Y18190477D02*
X15147380Y18190477D01*
X15147380Y17952381D01*
X15195000Y17809524D01*
X15290238Y17714286D01*
X15385476Y17666667D01*
X15575952Y17619048D01*
X15718809Y17619048D01*
X15909285Y17666667D01*
X16004523Y17714286D01*
X16099761Y17809524D01*
X16147380Y17952381D01*
X16147380Y18190477D01*
X16099761Y16809524D02*
X16147380Y16904762D01*
X16147380Y17095239D01*
X16099761Y17190477D01*
X16004523Y17238096D01*
X15623571Y17238096D01*
X15528333Y17190477D01*
X15480714Y17095239D01*
X15480714Y16904762D01*
X15528333Y16809524D01*
X15623571Y16761905D01*
X15718809Y16761905D01*
X15814047Y17238096D01*
X16099761Y16380953D02*
X16147380Y16285715D01*
X16147380Y16095239D01*
X16099761Y16000000D01*
X16004523Y15952381D01*
X15956904Y15952381D01*
X15861666Y16000000D01*
X15814047Y16095239D01*
X15814047Y16238096D01*
X15766428Y16333334D01*
X15671190Y16380953D01*
X15623571Y16380953D01*
X15528333Y16333334D01*
X15480714Y16238096D01*
X15480714Y16095239D01*
X15528333Y16000000D01*
X16147380Y15523810D02*
X15480714Y15523810D01*
X15147380Y15523810D02*
X15195000Y15571429D01*
X15242619Y15523810D01*
X15195000Y15476191D01*
X15147380Y15523810D01*
X15242619Y15523810D01*
X15480714Y14619048D02*
X16290238Y14619048D01*
X16385476Y14666667D01*
X16433095Y14714286D01*
X16480714Y14809524D01*
X16480714Y14952381D01*
X16433095Y15047620D01*
X16099761Y14619048D02*
X16147380Y14714286D01*
X16147380Y14904762D01*
X16099761Y15000000D01*
X16052142Y15047620D01*
X15956904Y15095239D01*
X15671190Y15095239D01*
X15575952Y15047620D01*
X15528333Y15000000D01*
X15480714Y14904762D01*
X15480714Y14714286D01*
X15528333Y14619048D01*
X15480714Y14142858D02*
X16147380Y14142858D01*
X15575952Y14142858D02*
X15528333Y14095239D01*
X15480714Y14000000D01*
X15480714Y13857143D01*
X15528333Y13761905D01*
X15623571Y13714286D01*
X16147380Y13714286D01*
X16147380Y12476191D02*
X15147380Y12476191D01*
X15528333Y12476191D02*
X15480714Y12380953D01*
X15480714Y12190477D01*
X15528333Y12095239D01*
X15575952Y12047620D01*
X15671190Y12000000D01*
X15956904Y12000000D01*
X16052142Y12047620D01*
X16099761Y12095239D01*
X16147380Y12190477D01*
X16147380Y12380953D01*
X16099761Y12476191D01*
X15480714Y11666667D02*
X16147380Y11428572D01*
X15480714Y11190477D02*
X16147380Y11428572D01*
X16385476Y11523810D01*
X16433095Y11571429D01*
X16480714Y11666667D01*
X16052142Y10809524D02*
X16099761Y10761905D01*
X16147380Y10809524D01*
X16099761Y10857143D01*
X16052142Y10809524D01*
X16147380Y10809524D01*
X15528333Y10809524D02*
X15575952Y10761905D01*
X15623571Y10809524D01*
X15575952Y10857143D01*
X15528333Y10809524D01*
X15623571Y10809524D01*
X17233571Y19095239D02*
X17233571Y18761905D01*
X17757380Y18619048D02*
X17757380Y19095239D01*
X16757380Y19095239D01*
X16757380Y18619048D01*
X17090714Y18285715D02*
X17757380Y18095239D01*
X17281190Y17904762D01*
X17757380Y17714286D01*
X17090714Y17523810D01*
X17757380Y16714286D02*
X17233571Y16714286D01*
X17138333Y16761905D01*
X17090714Y16857143D01*
X17090714Y17047620D01*
X17138333Y17142858D01*
X17709761Y16714286D02*
X17757380Y16809524D01*
X17757380Y17047620D01*
X17709761Y17142858D01*
X17614523Y17190477D01*
X17519285Y17190477D01*
X17424047Y17142858D01*
X17376428Y17047620D01*
X17376428Y16809524D01*
X17328809Y16714286D01*
X17090714Y16238096D02*
X17757380Y16238096D01*
X17185952Y16238096D02*
X17138333Y16190477D01*
X17090714Y16095239D01*
X17090714Y15952381D01*
X17138333Y15857143D01*
X17233571Y15809524D01*
X17757380Y15809524D01*
X17662142Y14000000D02*
X17709761Y14047620D01*
X17757380Y14190477D01*
X17757380Y14285715D01*
X17709761Y14428572D01*
X17614523Y14523810D01*
X17519285Y14571429D01*
X17328809Y14619048D01*
X17185952Y14619048D01*
X16995476Y14571429D01*
X16900238Y14523810D01*
X16805000Y14428572D01*
X16757380Y14285715D01*
X16757380Y14190477D01*
X16805000Y14047620D01*
X16852619Y14000000D01*
X17757380Y13428572D02*
X17709761Y13523810D01*
X17662142Y13571429D01*
X17566904Y13619048D01*
X17281190Y13619048D01*
X17185952Y13571429D01*
X17138333Y13523810D01*
X17090714Y13428572D01*
X17090714Y13285715D01*
X17138333Y13190477D01*
X17185952Y13142858D01*
X17281190Y13095239D01*
X17566904Y13095239D01*
X17662142Y13142858D01*
X17709761Y13190477D01*
X17757380Y13285715D01*
X17757380Y13428572D01*
X17757380Y12523810D02*
X17709761Y12619048D01*
X17614523Y12666667D01*
X16757380Y12666667D01*
X17709761Y12190477D02*
X17757380Y12095239D01*
X17757380Y11904762D01*
X17709761Y11809524D01*
X17614523Y11761905D01*
X17566904Y11761905D01*
X17471666Y11809524D01*
X17424047Y11904762D01*
X17424047Y12047620D01*
X17376428Y12142858D01*
X17281190Y12190477D01*
X17233571Y12190477D01*
X17138333Y12142858D01*
X17090714Y12047620D01*
X17090714Y11904762D01*
X17138333Y11809524D01*
X17709761Y10952381D02*
X17757380Y11047620D01*
X17757380Y11238096D01*
X17709761Y11333334D01*
X17614523Y11380953D01*
X17233571Y11380953D01*
X17138333Y11333334D01*
X17090714Y11238096D01*
X17090714Y11047620D01*
X17138333Y10952381D01*
X17233571Y10904762D01*
X17328809Y10904762D01*
X17424047Y11380953D01*
X17757380Y10333334D02*
X17709761Y10428572D01*
X17614523Y10476191D01*
X16757380Y10476191D01*
X17757380Y9809524D02*
X17709761Y9904762D01*
X17614523Y9952381D01*
X16757380Y9952381D01*
%TO.C,J1*%
X25267334Y7606935D02*
X24505429Y7606935D01*
X24172096Y8225983D02*
X23838762Y7225983D01*
X23505429Y8225983D01*
X22981619Y8225983D02*
X22791143Y8225983D01*
X22695905Y8178363D01*
X22600667Y8083125D01*
X22553048Y7892649D01*
X22553048Y7559316D01*
X22600667Y7368840D01*
X22695905Y7273602D01*
X22791143Y7225983D01*
X22981619Y7225983D01*
X23076858Y7273602D01*
X23172096Y7368840D01*
X23219715Y7559316D01*
X23219715Y7892649D01*
X23172096Y8083125D01*
X23076858Y8178363D01*
X22981619Y8225983D01*
X22124477Y8225983D02*
X22124477Y7416459D01*
X22076858Y7321221D01*
X22029239Y7273602D01*
X21934000Y7225983D01*
X21743524Y7225983D01*
X21648286Y7273602D01*
X21600667Y7321221D01*
X21553048Y7416459D01*
X21553048Y8225983D01*
X21219715Y8225983D02*
X20648286Y8225983D01*
X20934000Y7225983D02*
X20934000Y8225983D01*
%TO.C,J5*%
X26071428Y23428572D02*
X25309523Y23428572D01*
X25690476Y23047620D02*
X25690476Y23809524D01*
X24976190Y24047620D02*
X24642857Y23047620D01*
X24309523Y24047620D01*
X23976190Y23047620D02*
X23976190Y24047620D01*
X23500000Y23047620D02*
X23500000Y24047620D01*
X22928571Y23047620D01*
X22928571Y24047620D01*
%TO.C,J2*%
X23261904Y13000000D02*
X23357142Y13047620D01*
X23500000Y13047620D01*
X23642857Y13000000D01*
X23738095Y12904762D01*
X23785714Y12809524D01*
X23833333Y12619048D01*
X23833333Y12476191D01*
X23785714Y12285715D01*
X23738095Y12190477D01*
X23642857Y12095239D01*
X23500000Y12047620D01*
X23404761Y12047620D01*
X23261904Y12095239D01*
X23214285Y12142858D01*
X23214285Y12476191D01*
X23404761Y12476191D01*
X22785714Y12047620D02*
X22785714Y13047620D01*
X22214285Y12047620D01*
X22214285Y13047620D01*
X21738095Y12047620D02*
X21738095Y13047620D01*
X21500000Y13047620D01*
X21357142Y13000000D01*
X21261904Y12904762D01*
X21214285Y12809524D01*
X21166666Y12619048D01*
X21166666Y12476191D01*
X21214285Y12285715D01*
X21261904Y12190477D01*
X21357142Y12095239D01*
X21500000Y12047620D01*
X21738095Y12047620D01*
D14*
%TO.C,J1*%
X23925000Y8635000D02*
X21265000Y8635000D01*
X23925000Y9905000D02*
X23925000Y11235000D01*
X23925000Y8635000D02*
X23925000Y8575000D01*
X23925000Y8575000D02*
X21265000Y8575000D01*
X21265000Y8635000D02*
X21265000Y8575000D01*
X23925000Y11235000D02*
X22595000Y11235000D01*
%TO.C,J3*%
X28925000Y8575000D02*
X28925000Y9905000D01*
X26265000Y8575000D02*
X26265000Y11235000D01*
X27595000Y8575000D02*
X28925000Y8575000D01*
X26325000Y8575000D02*
X26265000Y8575000D01*
X26325000Y8575000D02*
X26325000Y11235000D01*
X26325000Y11235000D02*
X26265000Y11235000D01*
%TO.C,J4*%
X26325000Y16735000D02*
X26265000Y16735000D01*
X26325000Y14075000D02*
X26325000Y16735000D01*
X26265000Y14075000D02*
X26265000Y16735000D01*
X26325000Y14075000D02*
X26265000Y14075000D01*
X28925000Y14075000D02*
X28925000Y15405000D01*
X27595000Y14075000D02*
X28925000Y14075000D01*
%TO.C,J5*%
X25925000Y24635000D02*
X23265000Y24635000D01*
X25925000Y24635000D02*
X25925000Y24575000D01*
X25925000Y27235000D02*
X24595000Y27235000D01*
X25925000Y25905000D02*
X25925000Y27235000D01*
X23265000Y24635000D02*
X23265000Y24575000D01*
X25925000Y24575000D02*
X23265000Y24575000D01*
%TO.C,J2*%
X23925000Y14135000D02*
X21265000Y14135000D01*
X23925000Y15405000D02*
X23925000Y16735000D01*
X23925000Y14135000D02*
X23925000Y14075000D01*
X21265000Y14135000D02*
X21265000Y14075000D01*
X23925000Y16735000D02*
X22595000Y16735000D01*
X23925000Y14075000D02*
X21265000Y14075000D01*
%TD*%
%LPC*%
D15*
%TO.C,C5*%
X36550000Y10107562D03*
D16*
X36550000Y15107562D03*
%TD*%
D17*
%TO.C,J1*%
X22595000Y9905000D03*
%TD*%
%TO.C,J3*%
X27595000Y9905000D03*
%TD*%
%TO.C,J4*%
X27595000Y15405000D03*
%TD*%
%TO.C,J5*%
X24595000Y25905000D03*
%TD*%
%TO.C,J2*%
X22595000Y15405000D03*
%TD*%
M02*
