%TF.GenerationSoftware,KiCad,Pcbnew,(6.0.7-1)-1*%
%TF.CreationDate,2022-10-13T12:07:10+02:00*%
%TF.ProjectId,tr707minus10v_kicad,74723730-376d-4696-9e75-733130765f6b,rev?*%
%TF.SameCoordinates,Original*%
%TF.FileFunction,Legend,Bot*%
%TF.FilePolarity,Positive*%
%FSLAX46Y46*%
G04 Gerber Fmt 4.6, Leading zero omitted, Abs format (unit mm)*
G04 Created by KiCad (PCBNEW (6.0.7-1)-1) date 2022-10-13 12:07:10*
%MOMM*%
%LPD*%
G01*
G04 APERTURE LIST*
%ADD10C,0.150000*%
%ADD11C,0.300000*%
%ADD12C,0.200000*%
%ADD13C,0.120000*%
%ADD14R,2.000000X2.000000*%
%ADD15C,2.000000*%
%ADD16R,1.700000X1.700000*%
G04 APERTURE END LIST*
D10*
X36785714Y24619048D02*
X36785714Y24238096D01*
X36452380Y24476191D02*
X37309523Y24476191D01*
X37404761Y24428572D01*
X37452380Y24333334D01*
X37452380Y24238096D01*
X37452380Y23904762D02*
X36452380Y23904762D01*
X37452380Y23476191D02*
X36928571Y23476191D01*
X36833333Y23523810D01*
X36785714Y23619048D01*
X36785714Y23761905D01*
X36833333Y23857143D01*
X36880952Y23904762D01*
X37452380Y23095239D02*
X36785714Y22571429D01*
X36785714Y23095239D02*
X37452380Y22571429D01*
X37357142Y22190477D02*
X37404761Y22142858D01*
X37452380Y22190477D01*
X37404761Y22238096D01*
X37357142Y22190477D01*
X37452380Y22190477D01*
X36833333Y22190477D02*
X36880952Y22142858D01*
X36928571Y22190477D01*
X36880952Y22238096D01*
X36833333Y22190477D01*
X36928571Y22190477D01*
X37452380Y20952381D02*
X36452380Y20952381D01*
X36928571Y20952381D02*
X36928571Y20380953D01*
X37452380Y20380953D02*
X36452380Y20380953D01*
X37452380Y19904762D02*
X36452380Y19904762D01*
X37452380Y19333334D02*
X36880952Y19761905D01*
X36452380Y19333334D02*
X37023809Y19904762D01*
X37166666Y18952381D02*
X37166666Y18476191D01*
X37452380Y19047620D02*
X36452380Y18714286D01*
X37452380Y18380953D01*
D11*
X6214285Y20821429D02*
X5714285Y19321429D01*
X5214285Y20821429D01*
X4785714Y20678572D02*
X4714285Y20750000D01*
X4571428Y20821429D01*
X4214285Y20821429D01*
X4071428Y20750000D01*
X4000000Y20678572D01*
X3928571Y20535715D01*
X3928571Y20392858D01*
X4000000Y20178572D01*
X4857142Y19321429D01*
X3928571Y19321429D01*
D10*
X3927380Y17738096D02*
X3927380Y17166667D01*
X4927380Y17452381D02*
X3927380Y17452381D01*
X4927380Y16833334D02*
X3927380Y16833334D01*
X4927380Y16404762D02*
X4403571Y16404762D01*
X4308333Y16452381D01*
X4260714Y16547620D01*
X4260714Y16690477D01*
X4308333Y16785715D01*
X4355952Y16833334D01*
X4927380Y15928572D02*
X4260714Y15928572D01*
X3927380Y15928572D02*
X3975000Y15976191D01*
X4022619Y15928572D01*
X3975000Y15880953D01*
X3927380Y15928572D01*
X4022619Y15928572D01*
X4879761Y15500000D02*
X4927380Y15404762D01*
X4927380Y15214286D01*
X4879761Y15119048D01*
X4784523Y15071429D01*
X4736904Y15071429D01*
X4641666Y15119048D01*
X4594047Y15214286D01*
X4594047Y15357143D01*
X4546428Y15452381D01*
X4451190Y15500000D01*
X4403571Y15500000D01*
X4308333Y15452381D01*
X4260714Y15357143D01*
X4260714Y15214286D01*
X4308333Y15119048D01*
X4927380Y13880953D02*
X4260714Y13880953D01*
X3927380Y13880953D02*
X3975000Y13928572D01*
X4022619Y13880953D01*
X3975000Y13833334D01*
X3927380Y13880953D01*
X4022619Y13880953D01*
X4879761Y13452381D02*
X4927380Y13357143D01*
X4927380Y13166667D01*
X4879761Y13071429D01*
X4784523Y13023810D01*
X4736904Y13023810D01*
X4641666Y13071429D01*
X4594047Y13166667D01*
X4594047Y13309524D01*
X4546428Y13404762D01*
X4451190Y13452381D01*
X4403571Y13452381D01*
X4308333Y13404762D01*
X4260714Y13309524D01*
X4260714Y13166667D01*
X4308333Y13071429D01*
X4927380Y11404762D02*
X4403571Y11404762D01*
X4308333Y11452381D01*
X4260714Y11547620D01*
X4260714Y11738096D01*
X4308333Y11833334D01*
X4879761Y11404762D02*
X4927380Y11500000D01*
X4927380Y11738096D01*
X4879761Y11833334D01*
X4784523Y11880953D01*
X4689285Y11880953D01*
X4594047Y11833334D01*
X4546428Y11738096D01*
X4546428Y11500000D01*
X4498809Y11404762D01*
X6537380Y18857143D02*
X5870714Y18857143D01*
X6061190Y18857143D02*
X5965952Y18809524D01*
X5918333Y18761905D01*
X5870714Y18666667D01*
X5870714Y18571429D01*
X6489761Y17857143D02*
X6537380Y17952381D01*
X6537380Y18142858D01*
X6489761Y18238096D01*
X6394523Y18285715D01*
X6013571Y18285715D01*
X5918333Y18238096D01*
X5870714Y18142858D01*
X5870714Y17952381D01*
X5918333Y17857143D01*
X6013571Y17809524D01*
X6108809Y17809524D01*
X6204047Y18285715D01*
X5870714Y17380953D02*
X6870714Y17380953D01*
X5918333Y17380953D02*
X5870714Y17285715D01*
X5870714Y17095239D01*
X5918333Y17000000D01*
X5965952Y16952381D01*
X6061190Y16904762D01*
X6346904Y16904762D01*
X6442142Y16952381D01*
X6489761Y17000000D01*
X6537380Y17095239D01*
X6537380Y17285715D01*
X6489761Y17380953D01*
X6537380Y16333334D02*
X6489761Y16428572D01*
X6394523Y16476191D01*
X5537380Y16476191D01*
X6537380Y15523810D02*
X6013571Y15523810D01*
X5918333Y15571429D01*
X5870714Y15666667D01*
X5870714Y15857143D01*
X5918333Y15952381D01*
X6489761Y15523810D02*
X6537380Y15619048D01*
X6537380Y15857143D01*
X6489761Y15952381D01*
X6394523Y16000000D01*
X6299285Y16000000D01*
X6204047Y15952381D01*
X6156428Y15857143D01*
X6156428Y15619048D01*
X6108809Y15523810D01*
X6489761Y14619048D02*
X6537380Y14714286D01*
X6537380Y14904762D01*
X6489761Y15000000D01*
X6442142Y15047620D01*
X6346904Y15095239D01*
X6061190Y15095239D01*
X5965952Y15047620D01*
X5918333Y15000000D01*
X5870714Y14904762D01*
X5870714Y14714286D01*
X5918333Y14619048D01*
X6489761Y13809524D02*
X6537380Y13904762D01*
X6537380Y14095239D01*
X6489761Y14190477D01*
X6394523Y14238096D01*
X6013571Y14238096D01*
X5918333Y14190477D01*
X5870714Y14095239D01*
X5870714Y13904762D01*
X5918333Y13809524D01*
X6013571Y13761905D01*
X6108809Y13761905D01*
X6204047Y14238096D01*
X6537380Y13333334D02*
X5870714Y13333334D01*
X5965952Y13333334D02*
X5918333Y13285715D01*
X5870714Y13190477D01*
X5870714Y13047620D01*
X5918333Y12952381D01*
X6013571Y12904762D01*
X6537380Y12904762D01*
X6013571Y12904762D02*
X5918333Y12857143D01*
X5870714Y12761905D01*
X5870714Y12619048D01*
X5918333Y12523810D01*
X6013571Y12476191D01*
X6537380Y12476191D01*
X6489761Y11619048D02*
X6537380Y11714286D01*
X6537380Y11904762D01*
X6489761Y12000000D01*
X6394523Y12047620D01*
X6013571Y12047620D01*
X5918333Y12000000D01*
X5870714Y11904762D01*
X5870714Y11714286D01*
X5918333Y11619048D01*
X6013571Y11571429D01*
X6108809Y11571429D01*
X6204047Y12047620D01*
X5870714Y11142858D02*
X6537380Y11142858D01*
X5965952Y11142858D02*
X5918333Y11095239D01*
X5870714Y11000000D01*
X5870714Y10857143D01*
X5918333Y10761905D01*
X6013571Y10714286D01*
X6537380Y10714286D01*
X5870714Y10380953D02*
X5870714Y10000000D01*
X5537380Y10238096D02*
X6394523Y10238096D01*
X6489761Y10190477D01*
X6537380Y10095239D01*
X6537380Y10000000D01*
X7766428Y21309524D02*
X7766428Y20547620D01*
X7480714Y20071429D02*
X8147380Y20071429D01*
X7575952Y20071429D02*
X7528333Y20023810D01*
X7480714Y19928572D01*
X7480714Y19785715D01*
X7528333Y19690477D01*
X7623571Y19642858D01*
X8147380Y19642858D01*
X8099761Y18785715D02*
X8147380Y18880953D01*
X8147380Y19071429D01*
X8099761Y19166667D01*
X8004523Y19214286D01*
X7623571Y19214286D01*
X7528333Y19166667D01*
X7480714Y19071429D01*
X7480714Y18880953D01*
X7528333Y18785715D01*
X7623571Y18738096D01*
X7718809Y18738096D01*
X7814047Y19214286D01*
X7480714Y17880953D02*
X8290238Y17880953D01*
X8385476Y17928572D01*
X8433095Y17976191D01*
X8480714Y18071429D01*
X8480714Y18214286D01*
X8433095Y18309524D01*
X8099761Y17880953D02*
X8147380Y17976191D01*
X8147380Y18166667D01*
X8099761Y18261905D01*
X8052142Y18309524D01*
X7956904Y18357143D01*
X7671190Y18357143D01*
X7575952Y18309524D01*
X7528333Y18261905D01*
X7480714Y18166667D01*
X7480714Y17976191D01*
X7528333Y17880953D01*
X8147380Y16976191D02*
X7623571Y16976191D01*
X7528333Y17023810D01*
X7480714Y17119048D01*
X7480714Y17309524D01*
X7528333Y17404762D01*
X8099761Y16976191D02*
X8147380Y17071429D01*
X8147380Y17309524D01*
X8099761Y17404762D01*
X8004523Y17452381D01*
X7909285Y17452381D01*
X7814047Y17404762D01*
X7766428Y17309524D01*
X7766428Y17071429D01*
X7718809Y16976191D01*
X7480714Y16642858D02*
X7480714Y16261905D01*
X7147380Y16500000D02*
X8004523Y16500000D01*
X8099761Y16452381D01*
X8147380Y16357143D01*
X8147380Y16261905D01*
X8147380Y15928572D02*
X7480714Y15928572D01*
X7147380Y15928572D02*
X7195000Y15976191D01*
X7242619Y15928572D01*
X7195000Y15880953D01*
X7147380Y15928572D01*
X7242619Y15928572D01*
X7480714Y15547620D02*
X8147380Y15309524D01*
X7480714Y15071429D01*
X8099761Y14309524D02*
X8147380Y14404762D01*
X8147380Y14595239D01*
X8099761Y14690477D01*
X8004523Y14738096D01*
X7623571Y14738096D01*
X7528333Y14690477D01*
X7480714Y14595239D01*
X7480714Y14404762D01*
X7528333Y14309524D01*
X7623571Y14261905D01*
X7718809Y14261905D01*
X7814047Y14738096D01*
X8147380Y13071429D02*
X7147380Y13071429D01*
X7147380Y12690477D01*
X7195000Y12595239D01*
X7242619Y12547620D01*
X7337857Y12500000D01*
X7480714Y12500000D01*
X7575952Y12547620D01*
X7623571Y12595239D01*
X7671190Y12690477D01*
X7671190Y13071429D01*
X8099761Y12119048D02*
X8147380Y11976191D01*
X8147380Y11738096D01*
X8099761Y11642858D01*
X8052142Y11595239D01*
X7956904Y11547620D01*
X7861666Y11547620D01*
X7766428Y11595239D01*
X7718809Y11642858D01*
X7671190Y11738096D01*
X7623571Y11928572D01*
X7575952Y12023810D01*
X7528333Y12071429D01*
X7433095Y12119048D01*
X7337857Y12119048D01*
X7242619Y12071429D01*
X7195000Y12023810D01*
X7147380Y11928572D01*
X7147380Y11690477D01*
X7195000Y11547620D01*
X7147380Y11119048D02*
X7956904Y11119048D01*
X8052142Y11071429D01*
X8099761Y11023810D01*
X8147380Y10928572D01*
X8147380Y10738096D01*
X8099761Y10642858D01*
X8052142Y10595239D01*
X7956904Y10547620D01*
X7147380Y10547620D01*
X7480714Y9452381D02*
X7480714Y9071429D01*
X8147380Y9309524D02*
X7290238Y9309524D01*
X7195000Y9261905D01*
X7147380Y9166667D01*
X7147380Y9071429D01*
X8147380Y8595239D02*
X8099761Y8690477D01*
X8052142Y8738096D01*
X7956904Y8785715D01*
X7671190Y8785715D01*
X7575952Y8738096D01*
X7528333Y8690477D01*
X7480714Y8595239D01*
X7480714Y8452381D01*
X7528333Y8357143D01*
X7575952Y8309524D01*
X7671190Y8261905D01*
X7956904Y8261905D01*
X8052142Y8309524D01*
X8099761Y8357143D01*
X8147380Y8452381D01*
X8147380Y8595239D01*
X8147380Y7833334D02*
X7480714Y7833334D01*
X7671190Y7833334D02*
X7575952Y7785715D01*
X7528333Y7738096D01*
X7480714Y7642858D01*
X7480714Y7547620D01*
X9090714Y18333334D02*
X9090714Y17952381D01*
X8757380Y18190477D02*
X9614523Y18190477D01*
X9709761Y18142858D01*
X9757380Y18047620D01*
X9757380Y17952381D01*
X9757380Y17619048D02*
X8757380Y17619048D01*
X9757380Y17190477D02*
X9233571Y17190477D01*
X9138333Y17238096D01*
X9090714Y17333334D01*
X9090714Y17476191D01*
X9138333Y17571429D01*
X9185952Y17619048D01*
X9709761Y16333334D02*
X9757380Y16428572D01*
X9757380Y16619048D01*
X9709761Y16714286D01*
X9614523Y16761905D01*
X9233571Y16761905D01*
X9138333Y16714286D01*
X9090714Y16619048D01*
X9090714Y16428572D01*
X9138333Y16333334D01*
X9233571Y16285715D01*
X9328809Y16285715D01*
X9424047Y16761905D01*
X9757380Y15095239D02*
X9090714Y15095239D01*
X9281190Y15095239D02*
X9185952Y15047620D01*
X9138333Y15000000D01*
X9090714Y14904762D01*
X9090714Y14809524D01*
X9757380Y14333334D02*
X9709761Y14428572D01*
X9662142Y14476191D01*
X9566904Y14523810D01*
X9281190Y14523810D01*
X9185952Y14476191D01*
X9138333Y14428572D01*
X9090714Y14333334D01*
X9090714Y14190477D01*
X9138333Y14095239D01*
X9185952Y14047620D01*
X9281190Y14000000D01*
X9566904Y14000000D01*
X9662142Y14047620D01*
X9709761Y14095239D01*
X9757380Y14190477D01*
X9757380Y14333334D01*
X9757380Y13428572D02*
X9709761Y13523810D01*
X9614523Y13571429D01*
X8757380Y13571429D01*
X9757380Y12619048D02*
X9233571Y12619048D01*
X9138333Y12666667D01*
X9090714Y12761905D01*
X9090714Y12952381D01*
X9138333Y13047620D01*
X9709761Y12619048D02*
X9757380Y12714286D01*
X9757380Y12952381D01*
X9709761Y13047620D01*
X9614523Y13095239D01*
X9519285Y13095239D01*
X9424047Y13047620D01*
X9376428Y12952381D01*
X9376428Y12714286D01*
X9328809Y12619048D01*
X9090714Y12142858D02*
X9757380Y12142858D01*
X9185952Y12142858D02*
X9138333Y12095239D01*
X9090714Y12000000D01*
X9090714Y11857143D01*
X9138333Y11761905D01*
X9233571Y11714286D01*
X9757380Y11714286D01*
X9757380Y10809524D02*
X8757380Y10809524D01*
X9709761Y10809524D02*
X9757380Y10904762D01*
X9757380Y11095239D01*
X9709761Y11190477D01*
X9662142Y11238096D01*
X9566904Y11285715D01*
X9281190Y11285715D01*
X9185952Y11238096D01*
X9138333Y11190477D01*
X9090714Y11095239D01*
X9090714Y10904762D01*
X9138333Y10809524D01*
X10367380Y20904762D02*
X10367380Y20333334D01*
X11367380Y20619048D02*
X10367380Y20619048D01*
X11367380Y20000000D02*
X10700714Y20000000D01*
X10891190Y20000000D02*
X10795952Y19952381D01*
X10748333Y19904762D01*
X10700714Y19809524D01*
X10700714Y19714286D01*
X10367380Y19476191D02*
X10367380Y18809524D01*
X11367380Y19238096D01*
X10367380Y18238096D02*
X10367380Y18142858D01*
X10415000Y18047620D01*
X10462619Y18000000D01*
X10557857Y17952381D01*
X10748333Y17904762D01*
X10986428Y17904762D01*
X11176904Y17952381D01*
X11272142Y18000000D01*
X11319761Y18047620D01*
X11367380Y18142858D01*
X11367380Y18238096D01*
X11319761Y18333334D01*
X11272142Y18380953D01*
X11176904Y18428572D01*
X10986428Y18476191D01*
X10748333Y18476191D01*
X10557857Y18428572D01*
X10462619Y18380953D01*
X10415000Y18333334D01*
X10367380Y18238096D01*
X10367380Y17571429D02*
X10367380Y16904762D01*
X11367380Y17333334D01*
X11367380Y15333334D02*
X10843571Y15333334D01*
X10748333Y15380953D01*
X10700714Y15476191D01*
X10700714Y15666667D01*
X10748333Y15761905D01*
X11319761Y15333334D02*
X11367380Y15428572D01*
X11367380Y15666667D01*
X11319761Y15761905D01*
X11224523Y15809524D01*
X11129285Y15809524D01*
X11034047Y15761905D01*
X10986428Y15666667D01*
X10986428Y15428572D01*
X10938809Y15333334D01*
X10700714Y14857143D02*
X11367380Y14857143D01*
X10795952Y14857143D02*
X10748333Y14809524D01*
X10700714Y14714286D01*
X10700714Y14571429D01*
X10748333Y14476191D01*
X10843571Y14428572D01*
X11367380Y14428572D01*
X11367380Y13523810D02*
X10367380Y13523810D01*
X11319761Y13523810D02*
X11367380Y13619048D01*
X11367380Y13809524D01*
X11319761Y13904762D01*
X11272142Y13952381D01*
X11176904Y14000000D01*
X10891190Y14000000D01*
X10795952Y13952381D01*
X10748333Y13904762D01*
X10700714Y13809524D01*
X10700714Y13619048D01*
X10748333Y13523810D01*
X10700714Y12428572D02*
X10700714Y12047620D01*
X10367380Y12285715D02*
X11224523Y12285715D01*
X11319761Y12238096D01*
X11367380Y12142858D01*
X11367380Y12047620D01*
X11367380Y11714286D02*
X10700714Y11714286D01*
X10891190Y11714286D02*
X10795952Y11666667D01*
X10748333Y11619048D01*
X10700714Y11523810D01*
X10700714Y11428572D01*
X10367380Y11190477D02*
X10367380Y10523810D01*
X11367380Y10952381D01*
X10462619Y10190477D02*
X10415000Y10142858D01*
X10367380Y10047620D01*
X10367380Y9809524D01*
X10415000Y9714286D01*
X10462619Y9666667D01*
X10557857Y9619048D01*
X10653095Y9619048D01*
X10795952Y9666667D01*
X11367380Y10238096D01*
X11367380Y9619048D01*
X10367380Y9285715D02*
X10367380Y8619048D01*
X11367380Y9047620D01*
X11272142Y8238096D02*
X11319761Y8190477D01*
X11367380Y8238096D01*
X11319761Y8285715D01*
X11272142Y8238096D01*
X11367380Y8238096D01*
X12310714Y20023810D02*
X13120238Y20023810D01*
X13215476Y20071429D01*
X13263095Y20119048D01*
X13310714Y20214286D01*
X13310714Y20357143D01*
X13263095Y20452381D01*
X12929761Y20023810D02*
X12977380Y20119048D01*
X12977380Y20309524D01*
X12929761Y20404762D01*
X12882142Y20452381D01*
X12786904Y20500000D01*
X12501190Y20500000D01*
X12405952Y20452381D01*
X12358333Y20404762D01*
X12310714Y20309524D01*
X12310714Y20119048D01*
X12358333Y20023810D01*
X12977380Y19404762D02*
X12929761Y19500000D01*
X12882142Y19547620D01*
X12786904Y19595239D01*
X12501190Y19595239D01*
X12405952Y19547620D01*
X12358333Y19500000D01*
X12310714Y19404762D01*
X12310714Y19261905D01*
X12358333Y19166667D01*
X12405952Y19119048D01*
X12501190Y19071429D01*
X12786904Y19071429D01*
X12882142Y19119048D01*
X12929761Y19166667D01*
X12977380Y19261905D01*
X12977380Y19404762D01*
X12977380Y18500000D02*
X12929761Y18595239D01*
X12882142Y18642858D01*
X12786904Y18690477D01*
X12501190Y18690477D01*
X12405952Y18642858D01*
X12358333Y18595239D01*
X12310714Y18500000D01*
X12310714Y18357143D01*
X12358333Y18261905D01*
X12405952Y18214286D01*
X12501190Y18166667D01*
X12786904Y18166667D01*
X12882142Y18214286D01*
X12929761Y18261905D01*
X12977380Y18357143D01*
X12977380Y18500000D01*
X12977380Y17309524D02*
X11977380Y17309524D01*
X12929761Y17309524D02*
X12977380Y17404762D01*
X12977380Y17595239D01*
X12929761Y17690477D01*
X12882142Y17738096D01*
X12786904Y17785715D01*
X12501190Y17785715D01*
X12405952Y17738096D01*
X12358333Y17690477D01*
X12310714Y17595239D01*
X12310714Y17404762D01*
X12358333Y17309524D01*
X12977380Y16833334D02*
X11977380Y16833334D01*
X12358333Y16833334D02*
X12310714Y16738096D01*
X12310714Y16547620D01*
X12358333Y16452381D01*
X12405952Y16404762D01*
X12501190Y16357143D01*
X12786904Y16357143D01*
X12882142Y16404762D01*
X12929761Y16452381D01*
X12977380Y16547620D01*
X12977380Y16738096D01*
X12929761Y16833334D01*
X12310714Y16023810D02*
X12977380Y15785715D01*
X12310714Y15547620D02*
X12977380Y15785715D01*
X13215476Y15880953D01*
X13263095Y15928572D01*
X13310714Y16023810D01*
X12929761Y14785715D02*
X12977380Y14880953D01*
X12977380Y15071429D01*
X12929761Y15166667D01*
X12834523Y15214286D01*
X12453571Y15214286D01*
X12358333Y15166667D01*
X12310714Y15071429D01*
X12310714Y14880953D01*
X12358333Y14785715D01*
X12453571Y14738096D01*
X12548809Y14738096D01*
X12644047Y15214286D01*
X12929761Y13595239D02*
X12977380Y13452381D01*
X12977380Y13214286D01*
X12929761Y13119048D01*
X12882142Y13071429D01*
X12786904Y13023810D01*
X12691666Y13023810D01*
X12596428Y13071429D01*
X12548809Y13119048D01*
X12501190Y13214286D01*
X12453571Y13404762D01*
X12405952Y13500000D01*
X12358333Y13547620D01*
X12263095Y13595239D01*
X12167857Y13595239D01*
X12072619Y13547620D01*
X12025000Y13500000D01*
X11977380Y13404762D01*
X11977380Y13166667D01*
X12025000Y13023810D01*
X12310714Y12166667D02*
X12977380Y12166667D01*
X12310714Y12595239D02*
X12834523Y12595239D01*
X12929761Y12547620D01*
X12977380Y12452381D01*
X12977380Y12309524D01*
X12929761Y12214286D01*
X12882142Y12166667D01*
X12977380Y11690477D02*
X12310714Y11690477D01*
X12405952Y11690477D02*
X12358333Y11642858D01*
X12310714Y11547620D01*
X12310714Y11404762D01*
X12358333Y11309524D01*
X12453571Y11261905D01*
X12977380Y11261905D01*
X12453571Y11261905D02*
X12358333Y11214286D01*
X12310714Y11119048D01*
X12310714Y10976191D01*
X12358333Y10880953D01*
X12453571Y10833334D01*
X12977380Y10833334D01*
X12977380Y10357143D02*
X12310714Y10357143D01*
X11977380Y10357143D02*
X12025000Y10404762D01*
X12072619Y10357143D01*
X12025000Y10309524D01*
X11977380Y10357143D01*
X12072619Y10357143D01*
X12977380Y9452381D02*
X11977380Y9452381D01*
X12929761Y9452381D02*
X12977380Y9547620D01*
X12977380Y9738096D01*
X12929761Y9833334D01*
X12882142Y9880953D01*
X12786904Y9928572D01*
X12501190Y9928572D01*
X12405952Y9880953D01*
X12358333Y9833334D01*
X12310714Y9738096D01*
X12310714Y9547620D01*
X12358333Y9452381D01*
X12977380Y8547620D02*
X12453571Y8547620D01*
X12358333Y8595239D01*
X12310714Y8690477D01*
X12310714Y8880953D01*
X12358333Y8976191D01*
X12929761Y8547620D02*
X12977380Y8642858D01*
X12977380Y8880953D01*
X12929761Y8976191D01*
X12834523Y9023810D01*
X12739285Y9023810D01*
X12644047Y8976191D01*
X12596428Y8880953D01*
X12596428Y8642858D01*
X12548809Y8547620D01*
X35688214Y34157620D02*
X35688214Y35157620D01*
X35688214Y34776667D02*
X35602500Y34824286D01*
X35431071Y34824286D01*
X35345357Y34776667D01*
X35302500Y34729048D01*
X35259642Y34633810D01*
X35259642Y34348096D01*
X35302500Y34252858D01*
X35345357Y34205239D01*
X35431071Y34157620D01*
X35602500Y34157620D01*
X35688214Y34205239D01*
X34531071Y34205239D02*
X34616785Y34157620D01*
X34788214Y34157620D01*
X34873928Y34205239D01*
X34916785Y34300477D01*
X34916785Y34681429D01*
X34873928Y34776667D01*
X34788214Y34824286D01*
X34616785Y34824286D01*
X34531071Y34776667D01*
X34488214Y34681429D01*
X34488214Y34586191D01*
X34916785Y34490953D01*
X34231071Y34824286D02*
X33888214Y34824286D01*
X34102500Y34157620D02*
X34102500Y35014762D01*
X34059642Y35110000D01*
X33973928Y35157620D01*
X33888214Y35157620D01*
X33459642Y34157620D02*
X33545357Y34205239D01*
X33588214Y34252858D01*
X33631071Y34348096D01*
X33631071Y34633810D01*
X33588214Y34729048D01*
X33545357Y34776667D01*
X33459642Y34824286D01*
X33331071Y34824286D01*
X33245357Y34776667D01*
X33202500Y34729048D01*
X33159642Y34633810D01*
X33159642Y34348096D01*
X33202500Y34252858D01*
X33245357Y34205239D01*
X33331071Y34157620D01*
X33459642Y34157620D01*
X32773928Y34157620D02*
X32773928Y34824286D01*
X32773928Y34633810D02*
X32731071Y34729048D01*
X32688214Y34776667D01*
X32602500Y34824286D01*
X32516785Y34824286D01*
X31873928Y34205239D02*
X31959642Y34157620D01*
X32131071Y34157620D01*
X32216785Y34205239D01*
X32259642Y34300477D01*
X32259642Y34681429D01*
X32216785Y34776667D01*
X32131071Y34824286D01*
X31959642Y34824286D01*
X31873928Y34776667D01*
X31831071Y34681429D01*
X31831071Y34586191D01*
X32259642Y34490953D01*
X30888214Y34824286D02*
X30545357Y34824286D01*
X30759642Y34157620D02*
X30759642Y35014762D01*
X30716785Y35110000D01*
X30631071Y35157620D01*
X30545357Y35157620D01*
X30245357Y34157620D02*
X30245357Y34824286D01*
X30245357Y35157620D02*
X30288214Y35110000D01*
X30245357Y35062381D01*
X30202500Y35110000D01*
X30245357Y35157620D01*
X30245357Y35062381D01*
X29945357Y34824286D02*
X29602500Y34824286D01*
X29816785Y35157620D02*
X29816785Y34300477D01*
X29773928Y34205239D01*
X29688214Y34157620D01*
X29602500Y34157620D01*
X29431071Y34824286D02*
X29088214Y34824286D01*
X29302500Y35157620D02*
X29302500Y34300477D01*
X29259642Y34205239D01*
X29173928Y34157620D01*
X29088214Y34157620D01*
X28788214Y34157620D02*
X28788214Y34824286D01*
X28788214Y35157620D02*
X28831071Y35110000D01*
X28788214Y35062381D01*
X28745357Y35110000D01*
X28788214Y35157620D01*
X28788214Y35062381D01*
X28359642Y34824286D02*
X28359642Y34157620D01*
X28359642Y34729048D02*
X28316785Y34776667D01*
X28231071Y34824286D01*
X28102500Y34824286D01*
X28016785Y34776667D01*
X27973928Y34681429D01*
X27973928Y34157620D01*
X27159642Y34824286D02*
X27159642Y34014762D01*
X27202500Y33919524D01*
X27245357Y33871905D01*
X27331071Y33824286D01*
X27459642Y33824286D01*
X27545357Y33871905D01*
X27159642Y34205239D02*
X27245357Y34157620D01*
X27416785Y34157620D01*
X27502500Y34205239D01*
X27545357Y34252858D01*
X27588214Y34348096D01*
X27588214Y34633810D01*
X27545357Y34729048D01*
X27502500Y34776667D01*
X27416785Y34824286D01*
X27245357Y34824286D01*
X27159642Y34776667D01*
X26688214Y34205239D02*
X26688214Y34157620D01*
X26731071Y34062381D01*
X26773928Y34014762D01*
X25616785Y34157620D02*
X25616785Y34824286D01*
X25616785Y34633810D02*
X25573928Y34729048D01*
X25531071Y34776667D01*
X25445357Y34824286D01*
X25359642Y34824286D01*
X24716785Y34205239D02*
X24802500Y34157620D01*
X24973928Y34157620D01*
X25059642Y34205239D01*
X25102500Y34300477D01*
X25102500Y34681429D01*
X25059642Y34776667D01*
X24973928Y34824286D01*
X24802500Y34824286D01*
X24716785Y34776667D01*
X24673928Y34681429D01*
X24673928Y34586191D01*
X25102500Y34490953D01*
X24288214Y34157620D02*
X24288214Y34824286D01*
X24288214Y34729048D02*
X24245357Y34776667D01*
X24159642Y34824286D01*
X24031071Y34824286D01*
X23945357Y34776667D01*
X23902500Y34681429D01*
X23902500Y34157620D01*
X23902500Y34681429D02*
X23859642Y34776667D01*
X23773928Y34824286D01*
X23645357Y34824286D01*
X23559642Y34776667D01*
X23516785Y34681429D01*
X23516785Y34157620D01*
X22959642Y34157620D02*
X23045357Y34205239D01*
X23088214Y34252858D01*
X23131071Y34348096D01*
X23131071Y34633810D01*
X23088214Y34729048D01*
X23045357Y34776667D01*
X22959642Y34824286D01*
X22831071Y34824286D01*
X22745357Y34776667D01*
X22702500Y34729048D01*
X22659642Y34633810D01*
X22659642Y34348096D01*
X22702500Y34252858D01*
X22745357Y34205239D01*
X22831071Y34157620D01*
X22959642Y34157620D01*
X22359642Y34824286D02*
X22145357Y34157620D01*
X21931071Y34824286D01*
X21245357Y34205239D02*
X21331071Y34157620D01*
X21502500Y34157620D01*
X21588214Y34205239D01*
X21631071Y34300477D01*
X21631071Y34681429D01*
X21588214Y34776667D01*
X21502500Y34824286D01*
X21331071Y34824286D01*
X21245357Y34776667D01*
X21202500Y34681429D01*
X21202500Y34586191D01*
X21631071Y34490953D01*
X20816785Y34252858D02*
X20773928Y34205239D01*
X20816785Y34157620D01*
X20859642Y34205239D01*
X20816785Y34252858D01*
X20816785Y34157620D01*
X20816785Y34776667D02*
X20773928Y34729048D01*
X20816785Y34681429D01*
X20859642Y34729048D01*
X20816785Y34776667D01*
X20816785Y34681429D01*
X35088214Y32452381D02*
X35173928Y32500000D01*
X35259642Y32595239D01*
X35388214Y32738096D01*
X35473928Y32785715D01*
X35559642Y32785715D01*
X35516785Y32547620D02*
X35602500Y32595239D01*
X35688214Y32690477D01*
X35731071Y32880953D01*
X35731071Y33214286D01*
X35688214Y33404762D01*
X35602500Y33500000D01*
X35516785Y33547620D01*
X35345357Y33547620D01*
X35259642Y33500000D01*
X35173928Y33404762D01*
X35131071Y33214286D01*
X35131071Y32880953D01*
X35173928Y32690477D01*
X35259642Y32595239D01*
X35345357Y32547620D01*
X35516785Y32547620D01*
X34273928Y32547620D02*
X34788214Y32547620D01*
X34531071Y32547620D02*
X34531071Y33547620D01*
X34616785Y33404762D01*
X34702500Y33309524D01*
X34788214Y33261905D01*
X33845357Y32595239D02*
X33845357Y32547620D01*
X33888214Y32452381D01*
X33931071Y32404762D01*
X32173928Y32452381D02*
X32259642Y32500000D01*
X32345357Y32595239D01*
X32473928Y32738096D01*
X32559642Y32785715D01*
X32645357Y32785715D01*
X32602500Y32547620D02*
X32688214Y32595239D01*
X32773928Y32690477D01*
X32816785Y32880953D01*
X32816785Y33214286D01*
X32773928Y33404762D01*
X32688214Y33500000D01*
X32602500Y33547620D01*
X32431071Y33547620D01*
X32345357Y33500000D01*
X32259642Y33404762D01*
X32216785Y33214286D01*
X32216785Y32880953D01*
X32259642Y32690477D01*
X32345357Y32595239D01*
X32431071Y32547620D01*
X32602500Y32547620D01*
X31873928Y33452381D02*
X31831071Y33500000D01*
X31745357Y33547620D01*
X31531071Y33547620D01*
X31445357Y33500000D01*
X31402500Y33452381D01*
X31359642Y33357143D01*
X31359642Y33261905D01*
X31402500Y33119048D01*
X31916785Y32547620D01*
X31359642Y32547620D01*
X30931071Y32595239D02*
X30931071Y32547620D01*
X30973928Y32452381D01*
X31016785Y32404762D01*
X29988214Y33547620D02*
X29473928Y33547620D01*
X29731071Y32547620D02*
X29731071Y33547620D01*
X28702500Y32547620D02*
X29216785Y32547620D01*
X28959642Y32547620D02*
X28959642Y33547620D01*
X29045357Y33404762D01*
X29131071Y33309524D01*
X29216785Y33261905D01*
X28273928Y32595239D02*
X28273928Y32547620D01*
X28316785Y32452381D01*
X28359642Y32404762D01*
X27202500Y32547620D02*
X27202500Y33547620D01*
X26988214Y33547620D01*
X26859642Y33500000D01*
X26773928Y33404762D01*
X26731071Y33309524D01*
X26688214Y33119048D01*
X26688214Y32976191D01*
X26731071Y32785715D01*
X26773928Y32690477D01*
X26859642Y32595239D01*
X26988214Y32547620D01*
X27202500Y32547620D01*
X26345357Y33452381D02*
X26302500Y33500000D01*
X26216785Y33547620D01*
X26002500Y33547620D01*
X25916785Y33500000D01*
X25873928Y33452381D01*
X25831071Y33357143D01*
X25831071Y33261905D01*
X25873928Y33119048D01*
X26388214Y32547620D01*
X25831071Y32547620D01*
X25402500Y32595239D02*
X25402500Y32547620D01*
X25445357Y32452381D01*
X25488214Y32404762D01*
X24331071Y32547620D02*
X24331071Y33547620D01*
X24116785Y33547620D01*
X23988214Y33500000D01*
X23902500Y33404762D01*
X23859642Y33309524D01*
X23816785Y33119048D01*
X23816785Y32976191D01*
X23859642Y32785715D01*
X23902500Y32690477D01*
X23988214Y32595239D01*
X24116785Y32547620D01*
X24331071Y32547620D01*
X23516785Y33547620D02*
X22959642Y33547620D01*
X23259642Y33166667D01*
X23131071Y33166667D01*
X23045357Y33119048D01*
X23002500Y33071429D01*
X22959642Y32976191D01*
X22959642Y32738096D01*
X23002500Y32642858D01*
X23045357Y32595239D01*
X23131071Y32547620D01*
X23388214Y32547620D01*
X23473928Y32595239D01*
X23516785Y32642858D01*
X22531071Y32595239D02*
X22531071Y32547620D01*
X22573928Y32452381D01*
X22616785Y32404762D01*
X21459642Y32547620D02*
X21459642Y33547620D01*
X21245357Y33547620D01*
X21116785Y33500000D01*
X21031071Y33404762D01*
X20988214Y33309524D01*
X20945357Y33119048D01*
X20945357Y32976191D01*
X20988214Y32785715D01*
X21031071Y32690477D01*
X21116785Y32595239D01*
X21245357Y32547620D01*
X21459642Y32547620D01*
X20088214Y32547620D02*
X20602500Y32547620D01*
X20345357Y32547620D02*
X20345357Y33547620D01*
X20431071Y33404762D01*
X20516785Y33309524D01*
X20602500Y33261905D01*
X19573928Y33119048D02*
X19659642Y33166667D01*
X19702500Y33214286D01*
X19745357Y33309524D01*
X19745357Y33357143D01*
X19702500Y33452381D01*
X19659642Y33500000D01*
X19573928Y33547620D01*
X19402500Y33547620D01*
X19316785Y33500000D01*
X19273928Y33452381D01*
X19231071Y33357143D01*
X19231071Y33309524D01*
X19273928Y33214286D01*
X19316785Y33166667D01*
X19402500Y33119048D01*
X19573928Y33119048D01*
X19659642Y33071429D01*
X19702500Y33023810D01*
X19745357Y32928572D01*
X19745357Y32738096D01*
X19702500Y32642858D01*
X19659642Y32595239D01*
X19573928Y32547620D01*
X19402500Y32547620D01*
X19316785Y32595239D01*
X19273928Y32642858D01*
X19231071Y32738096D01*
X19231071Y32928572D01*
X19273928Y33023810D01*
X19316785Y33071429D01*
X19402500Y33119048D01*
X18802500Y32595239D02*
X18802500Y32547620D01*
X18845357Y32452381D01*
X18888214Y32404762D01*
X35173928Y31032858D02*
X35216785Y30985239D01*
X35345357Y30937620D01*
X35431071Y30937620D01*
X35559642Y30985239D01*
X35645357Y31080477D01*
X35688214Y31175715D01*
X35731071Y31366191D01*
X35731071Y31509048D01*
X35688214Y31699524D01*
X35645357Y31794762D01*
X35559642Y31890000D01*
X35431071Y31937620D01*
X35345357Y31937620D01*
X35216785Y31890000D01*
X35173928Y31842381D01*
X34873928Y31937620D02*
X34273928Y31937620D01*
X34659642Y30937620D01*
X33888214Y30985239D02*
X33888214Y30937620D01*
X33931071Y30842381D01*
X33973928Y30794762D01*
X32302500Y31032858D02*
X32345357Y30985239D01*
X32473928Y30937620D01*
X32559642Y30937620D01*
X32688214Y30985239D01*
X32773928Y31080477D01*
X32816785Y31175715D01*
X32859642Y31366191D01*
X32859642Y31509048D01*
X32816785Y31699524D01*
X32773928Y31794762D01*
X32688214Y31890000D01*
X32559642Y31937620D01*
X32473928Y31937620D01*
X32345357Y31890000D01*
X32302500Y31842381D01*
X31788214Y31509048D02*
X31873928Y31556667D01*
X31916785Y31604286D01*
X31959642Y31699524D01*
X31959642Y31747143D01*
X31916785Y31842381D01*
X31873928Y31890000D01*
X31788214Y31937620D01*
X31616785Y31937620D01*
X31531071Y31890000D01*
X31488214Y31842381D01*
X31445357Y31747143D01*
X31445357Y31699524D01*
X31488214Y31604286D01*
X31531071Y31556667D01*
X31616785Y31509048D01*
X31788214Y31509048D01*
X31873928Y31461429D01*
X31916785Y31413810D01*
X31959642Y31318572D01*
X31959642Y31128096D01*
X31916785Y31032858D01*
X31873928Y30985239D01*
X31788214Y30937620D01*
X31616785Y30937620D01*
X31531071Y30985239D01*
X31488214Y31032858D01*
X31445357Y31128096D01*
X31445357Y31318572D01*
X31488214Y31413810D01*
X31531071Y31461429D01*
X31616785Y31509048D01*
X31016785Y30985239D02*
X31016785Y30937620D01*
X31059642Y30842381D01*
X31102500Y30794762D01*
X29431071Y30937620D02*
X29731071Y31413810D01*
X29945357Y30937620D02*
X29945357Y31937620D01*
X29602500Y31937620D01*
X29516785Y31890000D01*
X29473928Y31842381D01*
X29431071Y31747143D01*
X29431071Y31604286D01*
X29473928Y31509048D01*
X29516785Y31461429D01*
X29602500Y31413810D01*
X29945357Y31413810D01*
X28573928Y30937620D02*
X29088214Y30937620D01*
X28831071Y30937620D02*
X28831071Y31937620D01*
X28916785Y31794762D01*
X29002500Y31699524D01*
X29088214Y31651905D01*
X28145357Y30985239D02*
X28145357Y30937620D01*
X28188214Y30842381D01*
X28231071Y30794762D01*
X26559642Y30937620D02*
X26859642Y31413810D01*
X27073928Y30937620D02*
X27073928Y31937620D01*
X26731071Y31937620D01*
X26645357Y31890000D01*
X26602500Y31842381D01*
X26559642Y31747143D01*
X26559642Y31604286D01*
X26602500Y31509048D01*
X26645357Y31461429D01*
X26731071Y31413810D01*
X27073928Y31413810D01*
X26216785Y31842381D02*
X26173928Y31890000D01*
X26088214Y31937620D01*
X25873928Y31937620D01*
X25788214Y31890000D01*
X25745357Y31842381D01*
X25702500Y31747143D01*
X25702500Y31651905D01*
X25745357Y31509048D01*
X26259642Y30937620D01*
X25702500Y30937620D01*
D11*
X32750000Y5892858D02*
X32607142Y5821429D01*
X32321428Y5821429D01*
X32178571Y5892858D01*
X32107142Y6035715D01*
X32107142Y6107143D01*
X32178571Y6250000D01*
X32321428Y6321429D01*
X32535714Y6321429D01*
X32678571Y6392858D01*
X32750000Y6535715D01*
X32750000Y6607143D01*
X32678571Y6750000D01*
X32535714Y6821429D01*
X32321428Y6821429D01*
X32178571Y6750000D01*
X31607142Y6821429D02*
X31250000Y5821429D01*
X30892857Y6821429D02*
X31250000Y5821429D01*
X31392857Y5464286D01*
X31464285Y5392858D01*
X31607142Y5321429D01*
X30321428Y6821429D02*
X30321428Y5821429D01*
X30321428Y6678572D02*
X30250000Y6750000D01*
X30107142Y6821429D01*
X29892857Y6821429D01*
X29750000Y6750000D01*
X29678571Y6607143D01*
X29678571Y5821429D01*
X29178571Y6821429D02*
X28607142Y6821429D01*
X28964285Y7321429D02*
X28964285Y6035715D01*
X28892857Y5892858D01*
X28750000Y5821429D01*
X28607142Y5821429D01*
X28107142Y5821429D02*
X28107142Y7321429D01*
X27464285Y5821429D02*
X27464285Y6607143D01*
X27535714Y6750000D01*
X27678571Y6821429D01*
X27892857Y6821429D01*
X28035714Y6750000D01*
X28107142Y6678572D01*
X26750000Y5964286D02*
X26678571Y5892858D01*
X26750000Y5821429D01*
X26821428Y5892858D01*
X26750000Y5964286D01*
X26750000Y5821429D01*
X25464285Y5892858D02*
X25607142Y5821429D01*
X25892857Y5821429D01*
X26035714Y5892858D01*
X26107142Y6035715D01*
X26107142Y6607143D01*
X26035714Y6750000D01*
X25892857Y6821429D01*
X25607142Y6821429D01*
X25464285Y6750000D01*
X25392857Y6607143D01*
X25392857Y6464286D01*
X26107142Y6321429D01*
X24892857Y6821429D02*
X24607142Y5821429D01*
X24321428Y6535715D01*
X24035714Y5821429D01*
X23750000Y6821429D01*
X22535714Y5821429D02*
X22535714Y6607143D01*
X22607142Y6750000D01*
X22750000Y6821429D01*
X23035714Y6821429D01*
X23178571Y6750000D01*
X22535714Y5892858D02*
X22678571Y5821429D01*
X23035714Y5821429D01*
X23178571Y5892858D01*
X23250000Y6035715D01*
X23250000Y6178572D01*
X23178571Y6321429D01*
X23035714Y6392858D01*
X22678571Y6392858D01*
X22535714Y6464286D01*
X21821428Y6821429D02*
X21821428Y5821429D01*
X21821428Y6678572D02*
X21750000Y6750000D01*
X21607142Y6821429D01*
X21392857Y6821429D01*
X21250000Y6750000D01*
X21178571Y6607143D01*
X21178571Y5821429D01*
X19821428Y5892858D02*
X19964285Y5821429D01*
X20250000Y5821429D01*
X20392857Y5892858D01*
X20464285Y5964286D01*
X20535714Y6107143D01*
X20535714Y6535715D01*
X20464285Y6678572D01*
X20392857Y6750000D01*
X20250000Y6821429D01*
X19964285Y6821429D01*
X19821428Y6750000D01*
X18964285Y5821429D02*
X19107142Y5892858D01*
X19178571Y5964286D01*
X19250000Y6107143D01*
X19250000Y6535715D01*
X19178571Y6678572D01*
X19107142Y6750000D01*
X18964285Y6821429D01*
X18750000Y6821429D01*
X18607142Y6750000D01*
X18535714Y6678572D01*
X18464285Y6535715D01*
X18464285Y6107143D01*
X18535714Y5964286D01*
X18607142Y5892858D01*
X18750000Y5821429D01*
X18964285Y5821429D01*
X17607142Y5821429D02*
X17750000Y5892858D01*
X17821428Y6035715D01*
X17821428Y7321429D01*
X17107142Y5892858D02*
X16964285Y5821429D01*
X16678571Y5821429D01*
X16535714Y5892858D01*
X16464285Y6035715D01*
X16464285Y6107143D01*
X16535714Y6250000D01*
X16678571Y6321429D01*
X16892857Y6321429D01*
X17035714Y6392858D01*
X17107142Y6535715D01*
X17107142Y6607143D01*
X17035714Y6750000D01*
X16892857Y6821429D01*
X16678571Y6821429D01*
X16535714Y6750000D01*
X15250000Y5892858D02*
X15392857Y5821429D01*
X15678571Y5821429D01*
X15821428Y5892858D01*
X15892857Y6035715D01*
X15892857Y6607143D01*
X15821428Y6750000D01*
X15678571Y6821429D01*
X15392857Y6821429D01*
X15250000Y6750000D01*
X15178571Y6607143D01*
X15178571Y6464286D01*
X15892857Y6321429D01*
X14321428Y5821429D02*
X14464285Y5892858D01*
X14535714Y6035715D01*
X14535714Y7321429D01*
X13535714Y5821429D02*
X13678571Y5892858D01*
X13750000Y6035715D01*
X13750000Y7321429D01*
X12964285Y5964286D02*
X12892857Y5892858D01*
X12964285Y5821429D01*
X13035714Y5892858D01*
X12964285Y5964286D01*
X12964285Y5821429D01*
X11607142Y5892858D02*
X11750000Y5821429D01*
X12035714Y5821429D01*
X12178571Y5892858D01*
X12250000Y5964286D01*
X12321428Y6107143D01*
X12321428Y6535715D01*
X12250000Y6678572D01*
X12178571Y6750000D01*
X12035714Y6821429D01*
X11750000Y6821429D01*
X11607142Y6750000D01*
X10750000Y5821429D02*
X10892857Y5892858D01*
X10964285Y5964286D01*
X11035714Y6107143D01*
X11035714Y6535715D01*
X10964285Y6678572D01*
X10892857Y6750000D01*
X10750000Y6821429D01*
X10535714Y6821429D01*
X10392857Y6750000D01*
X10321428Y6678572D01*
X10250000Y6535715D01*
X10250000Y6107143D01*
X10321428Y5964286D01*
X10392857Y5892858D01*
X10535714Y5821429D01*
X10750000Y5821429D01*
X9607142Y5821429D02*
X9607142Y6821429D01*
X9607142Y6678572D02*
X9535714Y6750000D01*
X9392857Y6821429D01*
X9178571Y6821429D01*
X9035714Y6750000D01*
X8964285Y6607143D01*
X8964285Y5821429D01*
X8964285Y6607143D02*
X8892857Y6750000D01*
X8750000Y6821429D01*
X8535714Y6821429D01*
X8392857Y6750000D01*
X8321428Y6607143D01*
X8321428Y5821429D01*
X14378571Y25758405D02*
X13635714Y25758405D01*
X14007142Y24458405D02*
X14007142Y25758405D01*
X12459523Y24458405D02*
X12892857Y25077453D01*
X13202380Y24458405D02*
X13202380Y25758405D01*
X12707142Y25758405D01*
X12583333Y25696500D01*
X12521428Y25634596D01*
X12459523Y25510786D01*
X12459523Y25325072D01*
X12521428Y25201262D01*
X12583333Y25139358D01*
X12707142Y25077453D01*
X13202380Y25077453D01*
X12026190Y25758405D02*
X11159523Y25758405D01*
X11716666Y24458405D01*
X10416666Y25758405D02*
X10292857Y25758405D01*
X10169047Y25696500D01*
X10107142Y25634596D01*
X10045238Y25510786D01*
X9983333Y25263167D01*
X9983333Y24953643D01*
X10045238Y24706024D01*
X10107142Y24582215D01*
X10169047Y24520310D01*
X10292857Y24458405D01*
X10416666Y24458405D01*
X10540476Y24520310D01*
X10602380Y24582215D01*
X10664285Y24706024D01*
X10726190Y24953643D01*
X10726190Y25263167D01*
X10664285Y25510786D01*
X10602380Y25634596D01*
X10540476Y25696500D01*
X10416666Y25758405D01*
X9550000Y25758405D02*
X8683333Y25758405D01*
X9240476Y24458405D01*
X18371428Y22365405D02*
X18371428Y23665405D01*
X17628571Y22365405D01*
X17628571Y23665405D01*
X16514285Y22427310D02*
X16638095Y22365405D01*
X16885714Y22365405D01*
X17009523Y22427310D01*
X17071428Y22551120D01*
X17071428Y23046358D01*
X17009523Y23170167D01*
X16885714Y23232072D01*
X16638095Y23232072D01*
X16514285Y23170167D01*
X16452380Y23046358D01*
X16452380Y22922548D01*
X17071428Y22798739D01*
X15338095Y23232072D02*
X15338095Y22179691D01*
X15400000Y22055881D01*
X15461904Y21993977D01*
X15585714Y21932072D01*
X15771428Y21932072D01*
X15895238Y21993977D01*
X15338095Y22427310D02*
X15461904Y22365405D01*
X15709523Y22365405D01*
X15833333Y22427310D01*
X15895238Y22489215D01*
X15957142Y22613024D01*
X15957142Y22984453D01*
X15895238Y23108262D01*
X15833333Y23170167D01*
X15709523Y23232072D01*
X15461904Y23232072D01*
X15338095Y23170167D01*
X14161904Y22365405D02*
X14161904Y23046358D01*
X14223809Y23170167D01*
X14347619Y23232072D01*
X14595238Y23232072D01*
X14719047Y23170167D01*
X14161904Y22427310D02*
X14285714Y22365405D01*
X14595238Y22365405D01*
X14719047Y22427310D01*
X14780952Y22551120D01*
X14780952Y22674929D01*
X14719047Y22798739D01*
X14595238Y22860643D01*
X14285714Y22860643D01*
X14161904Y22922548D01*
X13728571Y23232072D02*
X13233333Y23232072D01*
X13542857Y23665405D02*
X13542857Y22551120D01*
X13480952Y22427310D01*
X13357142Y22365405D01*
X13233333Y22365405D01*
X12800000Y22365405D02*
X12800000Y23232072D01*
X12800000Y23665405D02*
X12861904Y23603500D01*
X12800000Y23541596D01*
X12738095Y23603500D01*
X12800000Y23665405D01*
X12800000Y23541596D01*
X12304761Y23232072D02*
X11995238Y22365405D01*
X11685714Y23232072D01*
X10695238Y22427310D02*
X10819047Y22365405D01*
X11066666Y22365405D01*
X11190476Y22427310D01*
X11252380Y22551120D01*
X11252380Y23046358D01*
X11190476Y23170167D01*
X11066666Y23232072D01*
X10819047Y23232072D01*
X10695238Y23170167D01*
X10633333Y23046358D01*
X10633333Y22922548D01*
X11252380Y22798739D01*
X9271428Y23665405D02*
X8838095Y22365405D01*
X8404761Y23665405D01*
X7971428Y22365405D02*
X7971428Y23232072D01*
X7971428Y23665405D02*
X8033333Y23603500D01*
X7971428Y23541596D01*
X7909523Y23603500D01*
X7971428Y23665405D01*
X7971428Y23541596D01*
X7352380Y22365405D02*
X7352380Y23665405D01*
X7352380Y23170167D02*
X7228571Y23232072D01*
X6980952Y23232072D01*
X6857142Y23170167D01*
X6795238Y23108262D01*
X6733333Y22984453D01*
X6733333Y22613024D01*
X6795238Y22489215D01*
X6857142Y22427310D01*
X6980952Y22365405D01*
X7228571Y22365405D01*
X7352380Y22427310D01*
X5680952Y22427310D02*
X5804761Y22365405D01*
X6052380Y22365405D01*
X6176190Y22427310D01*
X6238095Y22551120D01*
X6238095Y23046358D01*
X6176190Y23170167D01*
X6052380Y23232072D01*
X5804761Y23232072D01*
X5680952Y23170167D01*
X5619047Y23046358D01*
X5619047Y22922548D01*
X6238095Y22798739D01*
X5123809Y22427310D02*
X4999999Y22365405D01*
X4752380Y22365405D01*
X4628571Y22427310D01*
X4566666Y22551120D01*
X4566666Y22613024D01*
X4628571Y22736834D01*
X4752380Y22798739D01*
X4938095Y22798739D01*
X5061904Y22860643D01*
X5123809Y22984453D01*
X5123809Y23046358D01*
X5061904Y23170167D01*
X4938095Y23232072D01*
X4752380Y23232072D01*
X4628571Y23170167D01*
D10*
X35690476Y29714286D02*
X35309523Y29714286D01*
X35547619Y29047620D02*
X35547619Y29904762D01*
X35500000Y30000000D01*
X35404761Y30047620D01*
X35309523Y30047620D01*
X34976190Y29047620D02*
X34976190Y29714286D01*
X34976190Y29523810D02*
X34928571Y29619048D01*
X34880952Y29666667D01*
X34785714Y29714286D01*
X34690476Y29714286D01*
X34214285Y29047620D02*
X34309523Y29095239D01*
X34357142Y29142858D01*
X34404761Y29238096D01*
X34404761Y29523810D01*
X34357142Y29619048D01*
X34309523Y29666667D01*
X34214285Y29714286D01*
X34071428Y29714286D01*
X33976190Y29666667D01*
X33928571Y29619048D01*
X33880952Y29523810D01*
X33880952Y29238096D01*
X33928571Y29142858D01*
X33976190Y29095239D01*
X34071428Y29047620D01*
X34214285Y29047620D01*
X33452380Y29714286D02*
X33452380Y29047620D01*
X33452380Y29619048D02*
X33404761Y29666667D01*
X33309523Y29714286D01*
X33166666Y29714286D01*
X33071428Y29666667D01*
X33023809Y29571429D01*
X33023809Y29047620D01*
X32690476Y29714286D02*
X32309523Y29714286D01*
X32547619Y30047620D02*
X32547619Y29190477D01*
X32500000Y29095239D01*
X32404761Y29047620D01*
X32309523Y29047620D01*
X31357142Y29714286D02*
X30976190Y29714286D01*
X31214285Y30047620D02*
X31214285Y29190477D01*
X31166666Y29095239D01*
X31071428Y29047620D01*
X30976190Y29047620D01*
X30500000Y29047620D02*
X30595238Y29095239D01*
X30642857Y29142858D01*
X30690476Y29238096D01*
X30690476Y29523810D01*
X30642857Y29619048D01*
X30595238Y29666667D01*
X30500000Y29714286D01*
X30357142Y29714286D01*
X30261904Y29666667D01*
X30214285Y29619048D01*
X30166666Y29523810D01*
X30166666Y29238096D01*
X30214285Y29142858D01*
X30261904Y29095239D01*
X30357142Y29047620D01*
X30500000Y29047620D01*
X29833333Y29714286D02*
X29642857Y29047620D01*
X29452380Y29523810D01*
X29261904Y29047620D01*
X29071428Y29714286D01*
X28261904Y29047620D02*
X28261904Y29571429D01*
X28309523Y29666667D01*
X28404761Y29714286D01*
X28595238Y29714286D01*
X28690476Y29666667D01*
X28261904Y29095239D02*
X28357142Y29047620D01*
X28595238Y29047620D01*
X28690476Y29095239D01*
X28738095Y29190477D01*
X28738095Y29285715D01*
X28690476Y29380953D01*
X28595238Y29428572D01*
X28357142Y29428572D01*
X28261904Y29476191D01*
X27785714Y29047620D02*
X27785714Y29714286D01*
X27785714Y29523810D02*
X27738095Y29619048D01*
X27690476Y29666667D01*
X27595238Y29714286D01*
X27500000Y29714286D01*
X26738095Y29047620D02*
X26738095Y30047620D01*
X26738095Y29095239D02*
X26833333Y29047620D01*
X27023809Y29047620D01*
X27119047Y29095239D01*
X27166666Y29142858D01*
X27214285Y29238096D01*
X27214285Y29523810D01*
X27166666Y29619048D01*
X27119047Y29666667D01*
X27023809Y29714286D01*
X26833333Y29714286D01*
X26738095Y29666667D01*
X26309523Y29095239D02*
X26214285Y29047620D01*
X26023809Y29047620D01*
X25928571Y29095239D01*
X25880952Y29190477D01*
X25880952Y29238096D01*
X25928571Y29333334D01*
X26023809Y29380953D01*
X26166666Y29380953D01*
X26261904Y29428572D01*
X26309523Y29523810D01*
X26309523Y29571429D01*
X26261904Y29666667D01*
X26166666Y29714286D01*
X26023809Y29714286D01*
X25928571Y29666667D01*
X24309523Y29095239D02*
X24404761Y29047620D01*
X24595238Y29047620D01*
X24690476Y29095239D01*
X24738095Y29190477D01*
X24738095Y29571429D01*
X24690476Y29666667D01*
X24595238Y29714286D01*
X24404761Y29714286D01*
X24309523Y29666667D01*
X24261904Y29571429D01*
X24261904Y29476191D01*
X24738095Y29380953D01*
X23833333Y29714286D02*
X23833333Y29047620D01*
X23833333Y29619048D02*
X23785714Y29666667D01*
X23690476Y29714286D01*
X23547619Y29714286D01*
X23452380Y29666667D01*
X23404761Y29571429D01*
X23404761Y29047620D01*
X22547619Y29095239D02*
X22642857Y29047620D01*
X22833333Y29047620D01*
X22928571Y29095239D01*
X22976190Y29190477D01*
X22976190Y29571429D01*
X22928571Y29666667D01*
X22833333Y29714286D01*
X22642857Y29714286D01*
X22547619Y29666667D01*
X22500000Y29571429D01*
X22500000Y29476191D01*
X22976190Y29380953D01*
X22071428Y29047620D02*
X22071428Y29714286D01*
X22071428Y29619048D02*
X22023809Y29666667D01*
X21928571Y29714286D01*
X21785714Y29714286D01*
X21690476Y29666667D01*
X21642857Y29571429D01*
X21642857Y29047620D01*
X21642857Y29571429D02*
X21595238Y29666667D01*
X21500000Y29714286D01*
X21357142Y29714286D01*
X21261904Y29666667D01*
X21214285Y29571429D01*
X21214285Y29047620D01*
X20833333Y29714286D02*
X20595238Y29047620D01*
X20357142Y29714286D02*
X20595238Y29047620D01*
X20690476Y28809524D01*
X20738095Y28761905D01*
X20833333Y28714286D01*
D12*
X33542857Y40623143D02*
X32857142Y40623143D01*
X33200000Y39423143D02*
X33200000Y40623143D01*
X32285714Y39423143D02*
X32400000Y39480286D01*
X32457142Y39537429D01*
X32514285Y39651715D01*
X32514285Y39994572D01*
X32457142Y40108858D01*
X32400000Y40166000D01*
X32285714Y40223143D01*
X32114285Y40223143D01*
X32000000Y40166000D01*
X31942857Y40108858D01*
X31885714Y39994572D01*
X31885714Y39651715D01*
X31942857Y39537429D01*
X32000000Y39480286D01*
X32114285Y39423143D01*
X32285714Y39423143D01*
X31371428Y39423143D02*
X31371428Y40223143D01*
X31371428Y39994572D02*
X31314285Y40108858D01*
X31257142Y40166000D01*
X31142857Y40223143D01*
X31028571Y40223143D01*
X30628571Y39423143D02*
X30628571Y40223143D01*
X30628571Y40623143D02*
X30685714Y40566000D01*
X30628571Y40508858D01*
X30571428Y40566000D01*
X30628571Y40623143D01*
X30628571Y40508858D01*
X30057142Y40223143D02*
X30057142Y39423143D01*
X30057142Y40108858D02*
X30000000Y40166000D01*
X29885714Y40223143D01*
X29714285Y40223143D01*
X29600000Y40166000D01*
X29542857Y40051715D01*
X29542857Y39423143D01*
X28800000Y39423143D02*
X28914285Y39480286D01*
X28971428Y39537429D01*
X29028571Y39651715D01*
X29028571Y39994572D01*
X28971428Y40108858D01*
X28914285Y40166000D01*
X28800000Y40223143D01*
X28628571Y40223143D01*
X28514285Y40166000D01*
X28457142Y40108858D01*
X28400000Y39994572D01*
X28400000Y39651715D01*
X28457142Y39537429D01*
X28514285Y39480286D01*
X28628571Y39423143D01*
X28800000Y39423143D01*
X27028571Y39480286D02*
X26857142Y39423143D01*
X26571428Y39423143D01*
X26457142Y39480286D01*
X26400000Y39537429D01*
X26342857Y39651715D01*
X26342857Y39766000D01*
X26400000Y39880286D01*
X26457142Y39937429D01*
X26571428Y39994572D01*
X26800000Y40051715D01*
X26914285Y40108858D01*
X26971428Y40166000D01*
X27028571Y40280286D01*
X27028571Y40394572D01*
X26971428Y40508858D01*
X26914285Y40566000D01*
X26800000Y40623143D01*
X26514285Y40623143D01*
X26342857Y40566000D01*
X25942857Y40223143D02*
X25657142Y39423143D01*
X25371428Y40223143D02*
X25657142Y39423143D01*
X25771428Y39137429D01*
X25828571Y39080286D01*
X25942857Y39023143D01*
X24914285Y40223143D02*
X24914285Y39423143D01*
X24914285Y40108858D02*
X24857142Y40166000D01*
X24742857Y40223143D01*
X24571428Y40223143D01*
X24457142Y40166000D01*
X24400000Y40051715D01*
X24400000Y39423143D01*
X24000000Y40223143D02*
X23542857Y40223143D01*
X23828571Y40623143D02*
X23828571Y39594572D01*
X23771428Y39480286D01*
X23657142Y39423143D01*
X23542857Y39423143D01*
X23142857Y39423143D02*
X23142857Y40623143D01*
X22628571Y39423143D02*
X22628571Y40051715D01*
X22685714Y40166000D01*
X22800000Y40223143D01*
X22971428Y40223143D01*
X23085714Y40166000D01*
X23142857Y40108858D01*
X31914285Y37491143D02*
X32314285Y38062572D01*
X32600000Y37491143D02*
X32600000Y38691143D01*
X32142857Y38691143D01*
X32028571Y38634000D01*
X31971428Y38576858D01*
X31914285Y38462572D01*
X31914285Y38291143D01*
X31971428Y38176858D01*
X32028571Y38119715D01*
X32142857Y38062572D01*
X32600000Y38062572D01*
X30942857Y37548286D02*
X31057142Y37491143D01*
X31285714Y37491143D01*
X31400000Y37548286D01*
X31457142Y37662572D01*
X31457142Y38119715D01*
X31400000Y38234000D01*
X31285714Y38291143D01*
X31057142Y38291143D01*
X30942857Y38234000D01*
X30885714Y38119715D01*
X30885714Y38005429D01*
X31457142Y37891143D01*
X30371428Y38291143D02*
X30371428Y37091143D01*
X30371428Y38234000D02*
X30257142Y38291143D01*
X30028571Y38291143D01*
X29914285Y38234000D01*
X29857142Y38176858D01*
X29800000Y38062572D01*
X29800000Y37719715D01*
X29857142Y37605429D01*
X29914285Y37548286D01*
X30028571Y37491143D01*
X30257142Y37491143D01*
X30371428Y37548286D01*
X28771428Y37491143D02*
X28771428Y38119715D01*
X28828571Y38234000D01*
X28942857Y38291143D01*
X29171428Y38291143D01*
X29285714Y38234000D01*
X28771428Y37548286D02*
X28885714Y37491143D01*
X29171428Y37491143D01*
X29285714Y37548286D01*
X29342857Y37662572D01*
X29342857Y37776858D01*
X29285714Y37891143D01*
X29171428Y37948286D01*
X28885714Y37948286D01*
X28771428Y38005429D01*
X28200000Y37491143D02*
X28200000Y38291143D01*
X28200000Y38691143D02*
X28257142Y38634000D01*
X28200000Y38576858D01*
X28142857Y38634000D01*
X28200000Y38691143D01*
X28200000Y38576858D01*
X27628571Y37491143D02*
X27628571Y38291143D01*
X27628571Y38062572D02*
X27571428Y38176858D01*
X27514285Y38234000D01*
X27400000Y38291143D01*
X27285714Y38291143D01*
X25400000Y37491143D02*
X25971428Y37491143D01*
X25971428Y38691143D01*
X24485714Y37491143D02*
X24485714Y38119715D01*
X24542857Y38234000D01*
X24657142Y38291143D01*
X24885714Y38291143D01*
X25000000Y38234000D01*
X24485714Y37548286D02*
X24600000Y37491143D01*
X24885714Y37491143D01*
X25000000Y37548286D01*
X25057142Y37662572D01*
X25057142Y37776858D01*
X25000000Y37891143D01*
X24885714Y37948286D01*
X24600000Y37948286D01*
X24485714Y38005429D01*
X23914285Y37491143D02*
X23914285Y38691143D01*
X23914285Y38234000D02*
X23800000Y38291143D01*
X23571428Y38291143D01*
X23457142Y38234000D01*
X23400000Y38176858D01*
X23342857Y38062572D01*
X23342857Y37719715D01*
X23400000Y37605429D01*
X23457142Y37548286D01*
X23571428Y37491143D01*
X23800000Y37491143D01*
X23914285Y37548286D01*
D10*
X33904761Y22852620D02*
X33904761Y23852620D01*
X33523809Y23852620D01*
X33428571Y23805000D01*
X33380952Y23757381D01*
X33333333Y23662143D01*
X33333333Y23519286D01*
X33380952Y23424048D01*
X33428571Y23376429D01*
X33523809Y23328810D01*
X33904761Y23328810D01*
X32333333Y22947858D02*
X32380952Y22900239D01*
X32523809Y22852620D01*
X32619047Y22852620D01*
X32761904Y22900239D01*
X32857142Y22995477D01*
X32904761Y23090715D01*
X32952380Y23281191D01*
X32952380Y23424048D01*
X32904761Y23614524D01*
X32857142Y23709762D01*
X32761904Y23805000D01*
X32619047Y23852620D01*
X32523809Y23852620D01*
X32380952Y23805000D01*
X32333333Y23757381D01*
X31571428Y23376429D02*
X31428571Y23328810D01*
X31380952Y23281191D01*
X31333333Y23185953D01*
X31333333Y23043096D01*
X31380952Y22947858D01*
X31428571Y22900239D01*
X31523809Y22852620D01*
X31904761Y22852620D01*
X31904761Y23852620D01*
X31571428Y23852620D01*
X31476190Y23805000D01*
X31428571Y23757381D01*
X31380952Y23662143D01*
X31380952Y23566905D01*
X31428571Y23471667D01*
X31476190Y23424048D01*
X31571428Y23376429D01*
X31904761Y23376429D01*
X29714285Y22852620D02*
X29714285Y23852620D01*
X29714285Y22900239D02*
X29809523Y22852620D01*
X30000000Y22852620D01*
X30095238Y22900239D01*
X30142857Y22947858D01*
X30190476Y23043096D01*
X30190476Y23328810D01*
X30142857Y23424048D01*
X30095238Y23471667D01*
X30000000Y23519286D01*
X29809523Y23519286D01*
X29714285Y23471667D01*
X28857142Y22900239D02*
X28952380Y22852620D01*
X29142857Y22852620D01*
X29238095Y22900239D01*
X29285714Y22995477D01*
X29285714Y23376429D01*
X29238095Y23471667D01*
X29142857Y23519286D01*
X28952380Y23519286D01*
X28857142Y23471667D01*
X28809523Y23376429D01*
X28809523Y23281191D01*
X29285714Y23185953D01*
X28428571Y22900239D02*
X28333333Y22852620D01*
X28142857Y22852620D01*
X28047619Y22900239D01*
X28000000Y22995477D01*
X28000000Y23043096D01*
X28047619Y23138334D01*
X28142857Y23185953D01*
X28285714Y23185953D01*
X28380952Y23233572D01*
X28428571Y23328810D01*
X28428571Y23376429D01*
X28380952Y23471667D01*
X28285714Y23519286D01*
X28142857Y23519286D01*
X28047619Y23471667D01*
X27571428Y22852620D02*
X27571428Y23519286D01*
X27571428Y23852620D02*
X27619047Y23805000D01*
X27571428Y23757381D01*
X27523809Y23805000D01*
X27571428Y23852620D01*
X27571428Y23757381D01*
X26666666Y23519286D02*
X26666666Y22709762D01*
X26714285Y22614524D01*
X26761904Y22566905D01*
X26857142Y22519286D01*
X27000000Y22519286D01*
X27095238Y22566905D01*
X26666666Y22900239D02*
X26761904Y22852620D01*
X26952380Y22852620D01*
X27047619Y22900239D01*
X27095238Y22947858D01*
X27142857Y23043096D01*
X27142857Y23328810D01*
X27095238Y23424048D01*
X27047619Y23471667D01*
X26952380Y23519286D01*
X26761904Y23519286D01*
X26666666Y23471667D01*
X26190476Y23519286D02*
X26190476Y22852620D01*
X26190476Y23424048D02*
X26142857Y23471667D01*
X26047619Y23519286D01*
X25904761Y23519286D01*
X25809523Y23471667D01*
X25761904Y23376429D01*
X25761904Y22852620D01*
X24904761Y22900239D02*
X25000000Y22852620D01*
X25190476Y22852620D01*
X25285714Y22900239D01*
X25333333Y22995477D01*
X25333333Y23376429D01*
X25285714Y23471667D01*
X25190476Y23519286D01*
X25000000Y23519286D01*
X24904761Y23471667D01*
X24857142Y23376429D01*
X24857142Y23281191D01*
X25333333Y23185953D01*
X24000000Y22852620D02*
X24000000Y23852620D01*
X24000000Y22900239D02*
X24095238Y22852620D01*
X24285714Y22852620D01*
X24380952Y22900239D01*
X24428571Y22947858D01*
X24476190Y23043096D01*
X24476190Y23328810D01*
X24428571Y23424048D01*
X24380952Y23471667D01*
X24285714Y23519286D01*
X24095238Y23519286D01*
X24000000Y23471667D01*
X22761904Y22852620D02*
X22761904Y23852620D01*
X22761904Y23471667D02*
X22666666Y23519286D01*
X22476190Y23519286D01*
X22380952Y23471667D01*
X22333333Y23424048D01*
X22285714Y23328810D01*
X22285714Y23043096D01*
X22333333Y22947858D01*
X22380952Y22900239D01*
X22476190Y22852620D01*
X22666666Y22852620D01*
X22761904Y22900239D01*
X21952380Y23519286D02*
X21714285Y22852620D01*
X21476190Y23519286D02*
X21714285Y22852620D01*
X21809523Y22614524D01*
X21857142Y22566905D01*
X21952380Y22519286D01*
X21095238Y22947858D02*
X21047619Y22900239D01*
X21095238Y22852620D01*
X21142857Y22900239D01*
X21095238Y22947858D01*
X21095238Y22852620D01*
X21095238Y23471667D02*
X21047619Y23424048D01*
X21095238Y23376429D01*
X21142857Y23424048D01*
X21095238Y23471667D01*
X21095238Y23376429D01*
X32095238Y21766429D02*
X31761904Y21766429D01*
X31619047Y21242620D02*
X32095238Y21242620D01*
X32095238Y22242620D01*
X31619047Y22242620D01*
X31285714Y21909286D02*
X31095238Y21242620D01*
X30904761Y21718810D01*
X30714285Y21242620D01*
X30523809Y21909286D01*
X29714285Y21242620D02*
X29714285Y21766429D01*
X29761904Y21861667D01*
X29857142Y21909286D01*
X30047619Y21909286D01*
X30142857Y21861667D01*
X29714285Y21290239D02*
X29809523Y21242620D01*
X30047619Y21242620D01*
X30142857Y21290239D01*
X30190476Y21385477D01*
X30190476Y21480715D01*
X30142857Y21575953D01*
X30047619Y21623572D01*
X29809523Y21623572D01*
X29714285Y21671191D01*
X29238095Y21909286D02*
X29238095Y21242620D01*
X29238095Y21814048D02*
X29190476Y21861667D01*
X29095238Y21909286D01*
X28952380Y21909286D01*
X28857142Y21861667D01*
X28809523Y21766429D01*
X28809523Y21242620D01*
X27000000Y21337858D02*
X27047619Y21290239D01*
X27190476Y21242620D01*
X27285714Y21242620D01*
X27428571Y21290239D01*
X27523809Y21385477D01*
X27571428Y21480715D01*
X27619047Y21671191D01*
X27619047Y21814048D01*
X27571428Y22004524D01*
X27523809Y22099762D01*
X27428571Y22195000D01*
X27285714Y22242620D01*
X27190476Y22242620D01*
X27047619Y22195000D01*
X27000000Y22147381D01*
X26428571Y21242620D02*
X26523809Y21290239D01*
X26571428Y21337858D01*
X26619047Y21433096D01*
X26619047Y21718810D01*
X26571428Y21814048D01*
X26523809Y21861667D01*
X26428571Y21909286D01*
X26285714Y21909286D01*
X26190476Y21861667D01*
X26142857Y21814048D01*
X26095238Y21718810D01*
X26095238Y21433096D01*
X26142857Y21337858D01*
X26190476Y21290239D01*
X26285714Y21242620D01*
X26428571Y21242620D01*
X25523809Y21242620D02*
X25619047Y21290239D01*
X25666666Y21385477D01*
X25666666Y22242620D01*
X25190476Y21290239D02*
X25095238Y21242620D01*
X24904761Y21242620D01*
X24809523Y21290239D01*
X24761904Y21385477D01*
X24761904Y21433096D01*
X24809523Y21528334D01*
X24904761Y21575953D01*
X25047619Y21575953D01*
X25142857Y21623572D01*
X25190476Y21718810D01*
X25190476Y21766429D01*
X25142857Y21861667D01*
X25047619Y21909286D01*
X24904761Y21909286D01*
X24809523Y21861667D01*
X23952380Y21290239D02*
X24047619Y21242620D01*
X24238095Y21242620D01*
X24333333Y21290239D01*
X24380952Y21385477D01*
X24380952Y21766429D01*
X24333333Y21861667D01*
X24238095Y21909286D01*
X24047619Y21909286D01*
X23952380Y21861667D01*
X23904761Y21766429D01*
X23904761Y21671191D01*
X24380952Y21575953D01*
X23333333Y21242620D02*
X23428571Y21290239D01*
X23476190Y21385477D01*
X23476190Y22242620D01*
X22809523Y21242620D02*
X22904761Y21290239D01*
X22952380Y21385477D01*
X22952380Y22242620D01*
%TO.C,J1*%
X22928333Y12782620D02*
X22928333Y12068334D01*
X22975952Y11925477D01*
X23071190Y11830239D01*
X23214047Y11782620D01*
X23309285Y11782620D01*
X21928333Y11782620D02*
X22499761Y11782620D01*
X22214047Y11782620D02*
X22214047Y12782620D01*
X22309285Y12639762D01*
X22404523Y12544524D01*
X22499761Y12496905D01*
X20553333Y9883572D02*
X19791428Y9883572D01*
X18791428Y9502620D02*
X19362857Y9502620D01*
X19077142Y9502620D02*
X19077142Y10502620D01*
X19172380Y10359762D01*
X19267619Y10264524D01*
X19362857Y10216905D01*
X18172380Y10502620D02*
X18077142Y10502620D01*
X17981904Y10455000D01*
X17934285Y10407381D01*
X17886666Y10312143D01*
X17839047Y10121667D01*
X17839047Y9883572D01*
X17886666Y9693096D01*
X17934285Y9597858D01*
X17981904Y9550239D01*
X18077142Y9502620D01*
X18172380Y9502620D01*
X18267619Y9550239D01*
X18315238Y9597858D01*
X18362857Y9693096D01*
X18410476Y9883572D01*
X18410476Y10121667D01*
X18362857Y10312143D01*
X18315238Y10407381D01*
X18267619Y10455000D01*
X18172380Y10502620D01*
X17553333Y10502620D02*
X17220000Y9502620D01*
X16886666Y10502620D01*
X16791428Y9407381D02*
X16029523Y9407381D01*
X15648571Y9502620D02*
X15743809Y9550239D01*
X15791428Y9597858D01*
X15839047Y9693096D01*
X15839047Y9978810D01*
X15791428Y10074048D01*
X15743809Y10121667D01*
X15648571Y10169286D01*
X15505714Y10169286D01*
X15410476Y10121667D01*
X15362857Y10074048D01*
X15315238Y9978810D01*
X15315238Y9693096D01*
X15362857Y9597858D01*
X15410476Y9550239D01*
X15505714Y9502620D01*
X15648571Y9502620D01*
X14458095Y10169286D02*
X14458095Y9502620D01*
X14886666Y10169286D02*
X14886666Y9645477D01*
X14839047Y9550239D01*
X14743809Y9502620D01*
X14600952Y9502620D01*
X14505714Y9550239D01*
X14458095Y9597858D01*
X14124761Y10169286D02*
X13743809Y10169286D01*
X13981904Y10502620D02*
X13981904Y9645477D01*
X13934285Y9550239D01*
X13839047Y9502620D01*
X13743809Y9502620D01*
%TO.C,J3*%
X30785714Y9452620D02*
X30785714Y10452620D01*
X30214285Y9452620D01*
X30214285Y10452620D01*
X29166666Y9547858D02*
X29214285Y9500239D01*
X29357142Y9452620D01*
X29452380Y9452620D01*
X29595238Y9500239D01*
X29690476Y9595477D01*
X29738095Y9690715D01*
X29785714Y9881191D01*
X29785714Y10024048D01*
X29738095Y10214524D01*
X29690476Y10309762D01*
X29595238Y10405000D01*
X29452380Y10452620D01*
X29357142Y10452620D01*
X29214285Y10405000D01*
X29166666Y10357381D01*
%TO.C,J4*%
X30785714Y14952620D02*
X30785714Y15952620D01*
X30214285Y14952620D01*
X30214285Y15952620D01*
X29166666Y15047858D02*
X29214285Y15000239D01*
X29357142Y14952620D01*
X29452380Y14952620D01*
X29595238Y15000239D01*
X29690476Y15095477D01*
X29738095Y15190715D01*
X29785714Y15381191D01*
X29785714Y15524048D01*
X29738095Y15714524D01*
X29690476Y15809762D01*
X29595238Y15905000D01*
X29452380Y15952620D01*
X29357142Y15952620D01*
X29214285Y15905000D01*
X29166666Y15857381D01*
%TO.C,J5*%
X24928333Y28782620D02*
X24928333Y28068334D01*
X24975952Y27925477D01*
X25071190Y27830239D01*
X25214047Y27782620D01*
X25309285Y27782620D01*
X23975952Y28782620D02*
X24452142Y28782620D01*
X24499761Y28306429D01*
X24452142Y28354048D01*
X24356904Y28401667D01*
X24118809Y28401667D01*
X24023571Y28354048D01*
X23975952Y28306429D01*
X23928333Y28211191D01*
X23928333Y27973096D01*
X23975952Y27877858D01*
X24023571Y27830239D01*
X24118809Y27782620D01*
X24356904Y27782620D01*
X24452142Y27830239D01*
X24499761Y27877858D01*
X21912857Y25402620D02*
X22484285Y25402620D01*
X22198571Y25402620D02*
X22198571Y26402620D01*
X22293809Y26259762D01*
X22389047Y26164524D01*
X22484285Y26116905D01*
X21531904Y26307381D02*
X21484285Y26355000D01*
X21389047Y26402620D01*
X21150952Y26402620D01*
X21055714Y26355000D01*
X21008095Y26307381D01*
X20960476Y26212143D01*
X20960476Y26116905D01*
X21008095Y25974048D01*
X21579523Y25402620D01*
X20960476Y25402620D01*
X20627142Y26069286D02*
X20389047Y25402620D01*
X20150952Y26069286D01*
X20008095Y25307381D02*
X19246190Y25307381D01*
X19008095Y25402620D02*
X19008095Y26069286D01*
X19008095Y26402620D02*
X19055714Y26355000D01*
X19008095Y26307381D01*
X18960476Y26355000D01*
X19008095Y26402620D01*
X19008095Y26307381D01*
X18531904Y26069286D02*
X18531904Y25402620D01*
X18531904Y25974048D02*
X18484285Y26021667D01*
X18389047Y26069286D01*
X18246190Y26069286D01*
X18150952Y26021667D01*
X18103333Y25926429D01*
X18103333Y25402620D01*
%TO.C,J2*%
X22928333Y18282620D02*
X22928333Y17568334D01*
X22975952Y17425477D01*
X23071190Y17330239D01*
X23214047Y17282620D01*
X23309285Y17282620D01*
X22499761Y18187381D02*
X22452142Y18235000D01*
X22356904Y18282620D01*
X22118809Y18282620D01*
X22023571Y18235000D01*
X21975952Y18187381D01*
X21928333Y18092143D01*
X21928333Y17996905D01*
X21975952Y17854048D01*
X22547380Y17282620D01*
X21928333Y17282620D01*
X19956904Y15980000D02*
X20052142Y16027620D01*
X20195000Y16027620D01*
X20337857Y15980000D01*
X20433095Y15884762D01*
X20480714Y15789524D01*
X20528333Y15599048D01*
X20528333Y15456191D01*
X20480714Y15265715D01*
X20433095Y15170477D01*
X20337857Y15075239D01*
X20195000Y15027620D01*
X20099761Y15027620D01*
X19956904Y15075239D01*
X19909285Y15122858D01*
X19909285Y15456191D01*
X20099761Y15456191D01*
X19480714Y15027620D02*
X19480714Y16027620D01*
X18909285Y15027620D01*
X18909285Y16027620D01*
X18433095Y15027620D02*
X18433095Y16027620D01*
X18195000Y16027620D01*
X18052142Y15980000D01*
X17956904Y15884762D01*
X17909285Y15789524D01*
X17861666Y15599048D01*
X17861666Y15456191D01*
X17909285Y15265715D01*
X17956904Y15170477D01*
X18052142Y15075239D01*
X18195000Y15027620D01*
X18433095Y15027620D01*
D13*
%TO.C,J1*%
X23925000Y8635000D02*
X21265000Y8635000D01*
X23925000Y9905000D02*
X23925000Y11235000D01*
X23925000Y8635000D02*
X23925000Y8575000D01*
X23925000Y8575000D02*
X21265000Y8575000D01*
X21265000Y8635000D02*
X21265000Y8575000D01*
X23925000Y11235000D02*
X22595000Y11235000D01*
%TO.C,J3*%
X28925000Y8575000D02*
X28925000Y9905000D01*
X26265000Y8575000D02*
X26265000Y11235000D01*
X27595000Y8575000D02*
X28925000Y8575000D01*
X26325000Y8575000D02*
X26265000Y8575000D01*
X26325000Y8575000D02*
X26325000Y11235000D01*
X26325000Y11235000D02*
X26265000Y11235000D01*
%TO.C,J4*%
X26325000Y16735000D02*
X26265000Y16735000D01*
X26325000Y14075000D02*
X26325000Y16735000D01*
X26265000Y14075000D02*
X26265000Y16735000D01*
X26325000Y14075000D02*
X26265000Y14075000D01*
X28925000Y14075000D02*
X28925000Y15405000D01*
X27595000Y14075000D02*
X28925000Y14075000D01*
%TO.C,J5*%
X25925000Y24635000D02*
X23265000Y24635000D01*
X25925000Y24635000D02*
X25925000Y24575000D01*
X25925000Y27235000D02*
X24595000Y27235000D01*
X25925000Y25905000D02*
X25925000Y27235000D01*
X23265000Y24635000D02*
X23265000Y24575000D01*
X25925000Y24575000D02*
X23265000Y24575000D01*
%TO.C,J2*%
X23925000Y14135000D02*
X21265000Y14135000D01*
X23925000Y15405000D02*
X23925000Y16735000D01*
X23925000Y14135000D02*
X23925000Y14075000D01*
X21265000Y14135000D02*
X21265000Y14075000D01*
X23925000Y16735000D02*
X22595000Y16735000D01*
X23925000Y14075000D02*
X21265000Y14075000D01*
%TD*%
%LPC*%
D14*
%TO.C,C5*%
X36550000Y10107562D03*
D15*
X36550000Y15107562D03*
%TD*%
D16*
%TO.C,J1*%
X22595000Y9905000D03*
%TD*%
%TO.C,J3*%
X27595000Y9905000D03*
%TD*%
%TO.C,J4*%
X27595000Y15405000D03*
%TD*%
%TO.C,J5*%
X24595000Y25905000D03*
%TD*%
%TO.C,J2*%
X22595000Y15405000D03*
%TD*%
M02*
