%TF.GenerationSoftware,KiCad,Pcbnew,(6.0.7-1)-1*%
%TF.CreationDate,2022-09-30T15:44:05+02:00*%
%TF.ProjectId,tr707minus10v_kicad,74723730-376d-4696-9e75-733130765f6b,rev?*%
%TF.SameCoordinates,Original*%
%TF.FileFunction,Copper,L1,Top*%
%TF.FilePolarity,Positive*%
%FSLAX46Y46*%
G04 Gerber Fmt 4.6, Leading zero omitted, Abs format (unit mm)*
G04 Created by KiCad (PCBNEW (6.0.7-1)-1) date 2022-09-30 15:44:05*
%MOMM*%
%LPD*%
G01*
G04 APERTURE LIST*
G04 Aperture macros list*
%AMRoundRect*
0 Rectangle with rounded corners*
0 $1 Rounding radius*
0 $2 $3 $4 $5 $6 $7 $8 $9 X,Y pos of 4 corners*
0 Add a 4 corners polygon primitive as box body*
4,1,4,$2,$3,$4,$5,$6,$7,$8,$9,$2,$3,0*
0 Add four circle primitives for the rounded corners*
1,1,$1+$1,$2,$3*
1,1,$1+$1,$4,$5*
1,1,$1+$1,$6,$7*
1,1,$1+$1,$8,$9*
0 Add four rect primitives between the rounded corners*
20,1,$1+$1,$2,$3,$4,$5,0*
20,1,$1+$1,$4,$5,$6,$7,0*
20,1,$1+$1,$6,$7,$8,$9,0*
20,1,$1+$1,$8,$9,$2,$3,0*%
G04 Aperture macros list end*
%TA.AperFunction,SMDPad,CuDef*%
%ADD10RoundRect,0.250000X-0.550000X1.050000X-0.550000X-1.050000X0.550000X-1.050000X0.550000X1.050000X0*%
%TD*%
%TA.AperFunction,SMDPad,CuDef*%
%ADD11RoundRect,0.250000X-1.500000X-0.550000X1.500000X-0.550000X1.500000X0.550000X-1.500000X0.550000X0*%
%TD*%
%TA.AperFunction,SMDPad,CuDef*%
%ADD12RoundRect,0.250000X0.412500X0.650000X-0.412500X0.650000X-0.412500X-0.650000X0.412500X-0.650000X0*%
%TD*%
%TA.AperFunction,SMDPad,CuDef*%
%ADD13RoundRect,0.150000X-0.825000X-0.150000X0.825000X-0.150000X0.825000X0.150000X-0.825000X0.150000X0*%
%TD*%
%TA.AperFunction,ComponentPad*%
%ADD14R,2.000000X2.000000*%
%TD*%
%TA.AperFunction,ComponentPad*%
%ADD15C,2.000000*%
%TD*%
%TA.AperFunction,SMDPad,CuDef*%
%ADD16RoundRect,0.250000X-0.650000X0.412500X-0.650000X-0.412500X0.650000X-0.412500X0.650000X0.412500X0*%
%TD*%
%TA.AperFunction,ComponentPad*%
%ADD17R,1.700000X1.700000*%
%TD*%
%TA.AperFunction,ViaPad*%
%ADD18C,0.800000*%
%TD*%
%TA.AperFunction,Conductor*%
%ADD19C,1.000000*%
%TD*%
%TA.AperFunction,Conductor*%
%ADD20C,0.800000*%
%TD*%
G04 APERTURE END LIST*
D10*
%TO.P,C8,1*%
%TO.N,Net-(C8-Pad1)*%
X7595000Y10705000D03*
%TO.P,C8,2*%
%TO.N,Net-(C8-Pad2)*%
X7595000Y7105000D03*
%TD*%
D11*
%TO.P,C3,1*%
%TO.N,GND*%
X22800000Y28500000D03*
%TO.P,C3,2*%
%TO.N,-10V*%
X28200000Y28500000D03*
%TD*%
D10*
%TO.P,C7,1*%
%TO.N,Net-(C7-Pad1)*%
X7595000Y18525000D03*
%TO.P,C7,2*%
%TO.N,Net-(C7-Pad2)*%
X7595000Y14925000D03*
%TD*%
D12*
%TO.P,C4,1*%
%TO.N,-10V*%
X19557500Y13305000D03*
%TO.P,C4,2*%
%TO.N,GND*%
X16432500Y13305000D03*
%TD*%
D13*
%TO.P,U2,1,NC*%
%TO.N,unconnected-(U2-Pad1)*%
X11620000Y10810000D03*
%TO.P,U2,2,CAP+*%
%TO.N,Net-(C8-Pad1)*%
X11620000Y9540000D03*
%TO.P,U2,3,GND*%
%TO.N,GND*%
X11620000Y8270000D03*
%TO.P,U2,4,CAP-*%
%TO.N,Net-(C8-Pad2)*%
X11620000Y7000000D03*
%TO.P,U2,5,VOUT*%
%TO.N,-10V*%
X16570000Y7000000D03*
%TO.P,U2,6,LV*%
%TO.N,unconnected-(U2-Pad6)*%
X16570000Y8270000D03*
%TO.P,U2,7,OSC*%
%TO.N,unconnected-(U2-Pad7)*%
X16570000Y9540000D03*
%TO.P,U2,8,V+*%
%TO.N,+12V*%
X16570000Y10810000D03*
%TD*%
%TO.P,U1,1,NC*%
%TO.N,unconnected-(U1-Pad1)*%
X11620000Y19310000D03*
%TO.P,U1,2,CAP+*%
%TO.N,Net-(C7-Pad1)*%
X11620000Y18040000D03*
%TO.P,U1,3,GND*%
%TO.N,GND*%
X11620000Y16770000D03*
%TO.P,U1,4,CAP-*%
%TO.N,Net-(C7-Pad2)*%
X11620000Y15500000D03*
%TO.P,U1,5,VOUT*%
%TO.N,-10V*%
X16570000Y15500000D03*
%TO.P,U1,6,LV*%
%TO.N,unconnected-(U1-Pad6)*%
X16570000Y16770000D03*
%TO.P,U1,7,OSC*%
%TO.N,unconnected-(U1-Pad7)*%
X16570000Y18040000D03*
%TO.P,U1,8,V+*%
%TO.N,+12V*%
X16570000Y19310000D03*
%TD*%
D14*
%TO.P,C5,1*%
%TO.N,GND*%
X32500000Y6500000D03*
D15*
%TO.P,C5,2*%
%TO.N,-10V*%
X32500000Y11500000D03*
%TD*%
D16*
%TO.P,C1,1*%
%TO.N,+12V*%
X28500000Y18562500D03*
%TO.P,C1,2*%
%TO.N,GND*%
X28500000Y15437500D03*
%TD*%
D10*
%TO.P,C2,1*%
%TO.N,+12V*%
X23500000Y18500000D03*
%TO.P,C2,2*%
%TO.N,GND*%
X23500000Y14900000D03*
%TD*%
D17*
%TO.P,J1,1,Pin_1*%
%TO.N,-10V*%
X22595000Y5905000D03*
%TD*%
%TO.P,J3,1,Pin_1*%
%TO.N,unconnected-(J3-Pad1)*%
X27595000Y5905000D03*
%TD*%
%TO.P,J4,1,Pin_1*%
%TO.N,unconnected-(J4-Pad1)*%
X27595000Y11405000D03*
%TD*%
%TO.P,J5,1,Pin_1*%
%TO.N,+12V*%
X24595000Y21905000D03*
%TD*%
%TO.P,J2,1,Pin_1*%
%TO.N,GND*%
X22595000Y11405000D03*
%TD*%
D18*
%TO.N,GND*%
X17595000Y13305000D03*
X13427931Y7537931D03*
X13595000Y16905000D03*
X21500000Y25500000D03*
%TD*%
D19*
%TO.N,Net-(C7-Pad1)*%
X8080000Y18040000D02*
X7595000Y18525000D01*
X11620000Y18040000D02*
X8080000Y18040000D01*
D20*
%TO.N,GND*%
X21500000Y27610000D02*
X23095000Y29205000D01*
D19*
X12695862Y8270000D02*
X13427931Y7537931D01*
D20*
X17595000Y13305000D02*
X16432500Y13305000D01*
D19*
X13460000Y16770000D02*
X13595000Y16905000D01*
D20*
X21500000Y25500000D02*
X21500000Y27610000D01*
D19*
X11620000Y8270000D02*
X12695862Y8270000D01*
X11620000Y16770000D02*
X13460000Y16770000D01*
%TO.N,Net-(C7-Pad2)*%
X7595000Y14925000D02*
X11045000Y14925000D01*
X11045000Y14925000D02*
X11620000Y15500000D01*
D20*
%TO.N,-10V*%
X19000000Y13700000D02*
X19000000Y15500000D01*
X32500000Y24200000D02*
X32500000Y11500000D01*
X32500000Y11500000D02*
X28904631Y7904631D01*
X28200000Y28500000D02*
X32500000Y24200000D01*
X19000000Y8664340D02*
X19000000Y13700000D01*
X19835660Y8664340D02*
X22595000Y5905000D01*
X17335660Y7000000D02*
X19000000Y8664340D01*
X16570000Y7000000D02*
X17335660Y7000000D01*
X19000000Y8664340D02*
X19835660Y8664340D01*
D19*
X16570000Y15500000D02*
X19000000Y15500000D01*
D20*
X24594631Y7904631D02*
X22595000Y5905000D01*
X28904631Y7904631D02*
X24594631Y7904631D01*
%TO.N,+12V*%
X23500000Y20810000D02*
X24595000Y21905000D01*
X23500000Y18500000D02*
X23500000Y20810000D01*
X14795000Y18300660D02*
X15804340Y19310000D01*
X22690000Y19310000D02*
X23500000Y18500000D01*
X14795000Y12585000D02*
X14795000Y18300660D01*
X16570000Y10810000D02*
X14795000Y12585000D01*
X15804340Y19310000D02*
X16570000Y19310000D01*
X23562500Y18562500D02*
X23500000Y18500000D01*
X28500000Y18562500D02*
X23562500Y18562500D01*
X16570000Y19310000D02*
X22690000Y19310000D01*
D19*
%TO.N,Net-(C8-Pad1)*%
X8760000Y9540000D02*
X7595000Y10705000D01*
X11620000Y9540000D02*
X8760000Y9540000D01*
%TO.N,Net-(C8-Pad2)*%
X11620000Y7000000D02*
X7700000Y7000000D01*
%TD*%
%TA.AperFunction,Conductor*%
%TO.N,GND*%
G36*
X26413016Y35146094D02*
G01*
X32036293Y35142129D01*
X32055585Y35140629D01*
X32065028Y35139159D01*
X32070646Y35138284D01*
X32070647Y35138284D01*
X32079516Y35136903D01*
X32094772Y35138898D01*
X32120094Y35139641D01*
X32253760Y35130082D01*
X32289063Y35127557D01*
X32306858Y35124999D01*
X32497193Y35083595D01*
X32514442Y35078530D01*
X32696941Y35010462D01*
X32713294Y35002994D01*
X32789870Y34961181D01*
X32884258Y34909642D01*
X32899372Y34899928D01*
X33036047Y34797614D01*
X33055308Y34783196D01*
X33068894Y34771423D01*
X33206620Y34633697D01*
X33218393Y34620111D01*
X33335123Y34464179D01*
X33344843Y34449055D01*
X33438191Y34278099D01*
X33445658Y34261747D01*
X33513729Y34079244D01*
X33518795Y34061993D01*
X33560198Y33871660D01*
X33562756Y33853866D01*
X33574331Y33692018D01*
X33573579Y33673915D01*
X33573479Y33665742D01*
X33572098Y33656872D01*
X33573262Y33647970D01*
X33573262Y33647967D01*
X33576225Y33625311D01*
X33577289Y33608974D01*
X33577292Y24873957D01*
X33577292Y24617384D01*
X33557290Y24549263D01*
X33503634Y24502770D01*
X33433360Y24492666D01*
X33368780Y24522160D01*
X33336369Y24565886D01*
X33334527Y24571556D01*
X33331229Y24577268D01*
X33331227Y24577273D01*
X33300333Y24630782D01*
X33297185Y24636579D01*
X33266129Y24697530D01*
X33257273Y24708467D01*
X33246073Y24724763D01*
X33242343Y24731224D01*
X33242340Y24731228D01*
X33239040Y24736944D01*
X33234623Y24741850D01*
X33234619Y24741855D01*
X33193278Y24787769D01*
X33188994Y24792784D01*
X33178148Y24806177D01*
X33176072Y24808741D01*
X33161557Y24823256D01*
X33157016Y24828041D01*
X33115673Y24873957D01*
X33111253Y24878866D01*
X33099865Y24887140D01*
X33084832Y24899981D01*
X30438479Y27546334D01*
X30404453Y27608646D01*
X30407981Y27675096D01*
X30445632Y27788611D01*
X30445632Y27788613D01*
X30447797Y27795139D01*
X30458500Y27899600D01*
X30458500Y28254086D01*
X31814953Y28254086D01*
X32169921Y27899117D01*
X32524889Y28254085D01*
X32169920Y28609053D01*
X31814953Y28254086D01*
X30458500Y28254086D01*
X30458500Y29100400D01*
X30449955Y29182757D01*
X30448238Y29199308D01*
X30448237Y29199312D01*
X30447526Y29206166D01*
X30420050Y29288523D01*
X30393868Y29366998D01*
X30391550Y29373946D01*
X30328233Y29476264D01*
X31198654Y29476264D01*
X31204509Y29458715D01*
X31206509Y29452125D01*
X31222271Y29394580D01*
X31223908Y29387891D01*
X31229711Y29361019D01*
X31230980Y29354254D01*
X31240368Y29295351D01*
X31241265Y29288523D01*
X31252239Y29182757D01*
X31252534Y29179511D01*
X31254719Y29151382D01*
X31254929Y29148136D01*
X31255602Y29135132D01*
X31255728Y29131878D01*
X31256458Y29103658D01*
X31256500Y29100400D01*
X31256500Y28824174D01*
X31605650Y29173324D01*
X31250682Y29528292D01*
X31198654Y29476264D01*
X30328233Y29476264D01*
X30298478Y29524348D01*
X30173303Y29649305D01*
X30167072Y29653146D01*
X30028968Y29738275D01*
X30028966Y29738276D01*
X30022738Y29742115D01*
X29942995Y29768564D01*
X29861389Y29795632D01*
X29861387Y29795632D01*
X29854861Y29797797D01*
X29848025Y29798497D01*
X29848022Y29798498D01*
X29804969Y29802909D01*
X29750400Y29808500D01*
X26649600Y29808500D01*
X26646354Y29808163D01*
X26646350Y29808163D01*
X26550692Y29798238D01*
X26550688Y29798237D01*
X26543834Y29797526D01*
X26537298Y29795345D01*
X26537296Y29795345D01*
X26520928Y29789884D01*
X26376054Y29741550D01*
X26225652Y29648478D01*
X26100695Y29523303D01*
X26096855Y29517073D01*
X26096854Y29517072D01*
X26021349Y29394580D01*
X26007885Y29372738D01*
X25952203Y29204861D01*
X25951503Y29198025D01*
X25951502Y29198022D01*
X25948972Y29173324D01*
X25941500Y29100400D01*
X25941500Y27899600D01*
X25941837Y27896354D01*
X25941837Y27896350D01*
X25951752Y27800794D01*
X25952474Y27793834D01*
X26008450Y27626054D01*
X26101522Y27475652D01*
X26226697Y27350695D01*
X26232927Y27346855D01*
X26232928Y27346854D01*
X26370288Y27262184D01*
X26377262Y27257885D01*
X26457005Y27231436D01*
X26538611Y27204368D01*
X26538613Y27204368D01*
X26545139Y27202203D01*
X26551975Y27201503D01*
X26551978Y27201502D01*
X26595031Y27197091D01*
X26649600Y27191500D01*
X28171497Y27191500D01*
X28239618Y27171498D01*
X28260592Y27154595D01*
X31554595Y23860592D01*
X31588621Y23798280D01*
X31591500Y23771497D01*
X31591500Y12765964D01*
X31571498Y12697843D01*
X31547331Y12670153D01*
X31430031Y12569969D01*
X31426823Y12566213D01*
X31422558Y12561219D01*
X31275824Y12389416D01*
X31273245Y12385208D01*
X31273241Y12385202D01*
X31154346Y12191183D01*
X31151760Y12186963D01*
X31149867Y12182393D01*
X31149865Y12182389D01*
X31063041Y11972775D01*
X31060895Y11967594D01*
X31046291Y11906762D01*
X31012273Y11765068D01*
X31005465Y11736711D01*
X30986835Y11500000D01*
X30998939Y11346215D01*
X30984343Y11276736D01*
X30962422Y11247235D01*
X28565223Y8850036D01*
X28502911Y8816010D01*
X28476128Y8813131D01*
X24676047Y8813131D01*
X24656338Y8814682D01*
X24642440Y8816883D01*
X24635853Y8816538D01*
X24635848Y8816538D01*
X24574150Y8813304D01*
X24567556Y8813131D01*
X24547021Y8813131D01*
X24540853Y8812483D01*
X24526591Y8810984D01*
X24520016Y8810467D01*
X24458327Y8807234D01*
X24458326Y8807234D01*
X24451727Y8806888D01*
X24438139Y8803247D01*
X24418692Y8799643D01*
X24411275Y8798864D01*
X24411271Y8798863D01*
X24404703Y8798173D01*
X24351403Y8780855D01*
X24339640Y8777033D01*
X24333316Y8775160D01*
X24273641Y8759170D01*
X24273637Y8759169D01*
X24267261Y8757460D01*
X24261379Y8754463D01*
X24254724Y8751072D01*
X24236457Y8743506D01*
X24229359Y8741200D01*
X24229357Y8741199D01*
X24223075Y8739158D01*
X24217353Y8735855D01*
X24217352Y8735854D01*
X24163849Y8704964D01*
X24158054Y8701817D01*
X24097101Y8670760D01*
X24091973Y8666607D01*
X24091971Y8666606D01*
X24086165Y8661904D01*
X24069868Y8650704D01*
X24063407Y8646974D01*
X24063403Y8646971D01*
X24057687Y8643671D01*
X24052781Y8639254D01*
X24052776Y8639250D01*
X24006862Y8597909D01*
X24001847Y8593625D01*
X23993349Y8586743D01*
X23985890Y8580703D01*
X23971375Y8566188D01*
X23966590Y8561647D01*
X23915765Y8515884D01*
X23911886Y8510545D01*
X23911885Y8510544D01*
X23907491Y8504496D01*
X23894650Y8489463D01*
X22705592Y7300405D01*
X22643280Y7266379D01*
X22616497Y7263500D01*
X22573503Y7263500D01*
X22505382Y7283502D01*
X22484408Y7300405D01*
X20704764Y9080049D01*
X21833304Y9080049D01*
X22188272Y8725081D01*
X22413261Y8950070D01*
X22114332Y9249000D01*
X22002255Y9249000D01*
X21833304Y9080049D01*
X20704764Y9080049D01*
X20535641Y9249172D01*
X20522800Y9264205D01*
X20518406Y9270253D01*
X20518405Y9270254D01*
X20514526Y9275593D01*
X20463701Y9321356D01*
X20458916Y9325897D01*
X20444401Y9340412D01*
X20436942Y9346452D01*
X20428444Y9353334D01*
X20423429Y9357618D01*
X20377515Y9398959D01*
X20377510Y9398963D01*
X20372604Y9403380D01*
X20366888Y9406680D01*
X20366884Y9406683D01*
X20360423Y9410413D01*
X20344126Y9421613D01*
X20338320Y9426315D01*
X20338318Y9426316D01*
X20333190Y9430469D01*
X20272237Y9461526D01*
X20266442Y9464673D01*
X20212939Y9495563D01*
X20212938Y9495564D01*
X20207216Y9498867D01*
X20200934Y9500908D01*
X20200932Y9500909D01*
X20193834Y9503215D01*
X20175567Y9510781D01*
X20163030Y9517169D01*
X20096959Y9534873D01*
X20090657Y9536740D01*
X20025588Y9557882D01*
X20019023Y9558572D01*
X20012560Y9559946D01*
X20012949Y9561776D01*
X19955667Y9585348D01*
X19915041Y9643572D01*
X19908500Y9683640D01*
X19908500Y9810898D01*
X24519452Y9810898D01*
X24719219Y9611131D01*
X24912800Y9611131D01*
X25170978Y9869309D01*
X24816010Y10224277D01*
X24655729Y10063996D01*
X24642391Y10028417D01*
X24638949Y10020144D01*
X24606612Y9949597D01*
X24602592Y9941589D01*
X24585436Y9910254D01*
X24580856Y9902554D01*
X24538852Y9837316D01*
X24533739Y9829961D01*
X24519452Y9810898D01*
X19908500Y9810898D01*
X19908500Y10510331D01*
X21237001Y10510331D01*
X21237371Y10503510D01*
X21242895Y10452648D01*
X21246521Y10437396D01*
X21291676Y10316946D01*
X21300214Y10301351D01*
X21376715Y10199276D01*
X21389276Y10186715D01*
X21491351Y10110214D01*
X21506946Y10101676D01*
X21627394Y10056522D01*
X21642649Y10052895D01*
X21693514Y10047369D01*
X21700328Y10047000D01*
X22322885Y10047000D01*
X22338124Y10051475D01*
X22339329Y10052865D01*
X22341000Y10060548D01*
X22341000Y10065116D01*
X22849000Y10065116D01*
X22853475Y10049877D01*
X22854865Y10048672D01*
X22862548Y10047001D01*
X23489669Y10047001D01*
X23496490Y10047371D01*
X23547352Y10052895D01*
X23562604Y10056521D01*
X23683054Y10101676D01*
X23698649Y10110214D01*
X23800724Y10186715D01*
X23813285Y10199276D01*
X23889786Y10301351D01*
X23898324Y10316946D01*
X23943478Y10437394D01*
X23947105Y10452649D01*
X23952631Y10503514D01*
X23952813Y10506866D01*
X26236500Y10506866D01*
X26243255Y10444684D01*
X26294385Y10308295D01*
X26381739Y10191739D01*
X26498295Y10104385D01*
X26634684Y10053255D01*
X26696866Y10046500D01*
X28493134Y10046500D01*
X28555316Y10053255D01*
X28691705Y10104385D01*
X28808261Y10191739D01*
X28895615Y10308295D01*
X28946745Y10444684D01*
X28953500Y10506866D01*
X28953500Y11707787D01*
X29976475Y11707787D01*
X30135454Y11548807D01*
X30194885Y11608238D01*
X30209924Y11799323D01*
X30210409Y11804246D01*
X30215448Y11846821D01*
X30216126Y11851723D01*
X30219219Y11871251D01*
X30220089Y11876123D01*
X30228453Y11918169D01*
X30229513Y11923000D01*
X30241463Y11972775D01*
X29976475Y11707787D01*
X28953500Y11707787D01*
X28953500Y12303134D01*
X28946745Y12365316D01*
X28895615Y12501705D01*
X28808261Y12618261D01*
X28691705Y12705615D01*
X28618400Y12733096D01*
X29661102Y12733096D01*
X29693964Y12645437D01*
X29696500Y12637967D01*
X29715576Y12575428D01*
X29767173Y12627025D01*
X29661102Y12733096D01*
X28618400Y12733096D01*
X28555316Y12756745D01*
X28493134Y12763500D01*
X26696866Y12763500D01*
X26634684Y12756745D01*
X26498295Y12705615D01*
X26381739Y12618261D01*
X26294385Y12501705D01*
X26243255Y12365316D01*
X26236500Y12303134D01*
X26236500Y10506866D01*
X23952813Y10506866D01*
X23953000Y10510328D01*
X23953000Y11132885D01*
X23948525Y11148124D01*
X23947135Y11149329D01*
X23939452Y11151000D01*
X22867115Y11151000D01*
X22851876Y11146525D01*
X22850671Y11145135D01*
X22849000Y11137452D01*
X22849000Y10065116D01*
X22341000Y10065116D01*
X22341000Y11132885D01*
X22336525Y11148124D01*
X22335135Y11149329D01*
X22327452Y11151000D01*
X21255116Y11151000D01*
X21239877Y11146525D01*
X21238672Y11145135D01*
X21237001Y11137452D01*
X21237001Y10510331D01*
X19908500Y10510331D01*
X19908500Y11448568D01*
X24720260Y11448568D01*
X24816010Y11352818D01*
X25170978Y11707786D01*
X24816009Y12062754D01*
X24750999Y11997744D01*
X24750999Y11659000D01*
X24750277Y11645532D01*
X24737800Y11529474D01*
X24735643Y11516159D01*
X24724257Y11463817D01*
X24722646Y11457265D01*
X24720260Y11448568D01*
X19908500Y11448568D01*
X19908500Y11677115D01*
X21237000Y11677115D01*
X21241475Y11661876D01*
X21242865Y11660671D01*
X21250548Y11659000D01*
X22322885Y11659000D01*
X22338124Y11663475D01*
X22339329Y11664865D01*
X22341000Y11672548D01*
X22341000Y11677115D01*
X22849000Y11677115D01*
X22853475Y11661876D01*
X22854865Y11660671D01*
X22862548Y11659000D01*
X23934884Y11659000D01*
X23950123Y11663475D01*
X23951328Y11664865D01*
X23952999Y11672548D01*
X23952999Y12299669D01*
X23952629Y12306490D01*
X23947105Y12357352D01*
X23943479Y12372604D01*
X23898324Y12493054D01*
X23889786Y12508649D01*
X23813285Y12610724D01*
X23800724Y12623285D01*
X23795732Y12627026D01*
X25380281Y12627026D01*
X25465893Y12541414D01*
X25471499Y12564993D01*
X25473564Y12572607D01*
X25493500Y12637967D01*
X25496036Y12645437D01*
X25547166Y12781826D01*
X25550607Y12790098D01*
X25556746Y12803491D01*
X25380281Y12627026D01*
X23795732Y12627026D01*
X23698649Y12699786D01*
X23683054Y12708324D01*
X23562606Y12753478D01*
X23547351Y12757105D01*
X23496486Y12762631D01*
X23489672Y12763000D01*
X22867115Y12763000D01*
X22851876Y12758525D01*
X22850671Y12757135D01*
X22849000Y12749452D01*
X22849000Y11677115D01*
X22341000Y11677115D01*
X22341000Y12744884D01*
X22336525Y12760123D01*
X22335135Y12761328D01*
X22327452Y12762999D01*
X21700331Y12762999D01*
X21693510Y12762629D01*
X21642648Y12757105D01*
X21627396Y12753479D01*
X21506946Y12708324D01*
X21491351Y12699786D01*
X21389276Y12623285D01*
X21376715Y12610724D01*
X21300214Y12508649D01*
X21291676Y12493054D01*
X21246522Y12372606D01*
X21242895Y12357351D01*
X21237369Y12306486D01*
X21237000Y12299672D01*
X21237000Y11677115D01*
X19908500Y11677115D01*
X19908500Y11771287D01*
X19928502Y11839408D01*
X19982158Y11885901D01*
X20021496Y11896614D01*
X20055905Y11900184D01*
X20119307Y11906762D01*
X20119310Y11906763D01*
X20126166Y11907474D01*
X20132702Y11909655D01*
X20132704Y11909655D01*
X20286998Y11961132D01*
X20293946Y11963450D01*
X20444348Y12056522D01*
X20569305Y12181697D01*
X20575152Y12191183D01*
X20658275Y12326032D01*
X20658276Y12326034D01*
X20662115Y12332262D01*
X20696428Y12435714D01*
X20715632Y12493611D01*
X20715632Y12493613D01*
X20717797Y12500139D01*
X20719132Y12513163D01*
X20728172Y12601402D01*
X20728500Y12604600D01*
X20728500Y13802905D01*
X22192001Y13802905D01*
X22192338Y13796386D01*
X22202257Y13700794D01*
X22205149Y13687400D01*
X22256588Y13533216D01*
X22262761Y13520038D01*
X22348063Y13382193D01*
X22357099Y13370792D01*
X22471829Y13256261D01*
X22483240Y13247249D01*
X22621243Y13162184D01*
X22634424Y13156037D01*
X22788710Y13104862D01*
X22802086Y13101995D01*
X22896438Y13092328D01*
X22902854Y13092000D01*
X23227885Y13092000D01*
X23243124Y13096475D01*
X23244329Y13097865D01*
X23246000Y13105548D01*
X23246000Y13110116D01*
X23754000Y13110116D01*
X23758475Y13094877D01*
X23759865Y13093672D01*
X23767548Y13092001D01*
X24097095Y13092001D01*
X24103614Y13092338D01*
X24199206Y13102257D01*
X24212600Y13105149D01*
X24366784Y13156588D01*
X24379962Y13162761D01*
X24517807Y13248063D01*
X24529208Y13257099D01*
X24643739Y13371829D01*
X24652751Y13383240D01*
X24737816Y13521243D01*
X24743963Y13534424D01*
X24747891Y13546265D01*
X26299520Y13546265D01*
X26345295Y13500489D01*
X26354564Y13503964D01*
X26362033Y13506500D01*
X26427393Y13526436D01*
X26435007Y13528501D01*
X26465629Y13535782D01*
X26473355Y13537365D01*
X26524945Y13546265D01*
X29976475Y13546265D01*
X30331443Y13191296D01*
X30686411Y13546264D01*
X30331442Y13901232D01*
X29976475Y13546265D01*
X26524945Y13546265D01*
X26540689Y13548981D01*
X26548501Y13550078D01*
X26610683Y13556833D01*
X26614078Y13557155D01*
X26643517Y13559549D01*
X26646916Y13559780D01*
X26660524Y13560517D01*
X26663930Y13560655D01*
X26693458Y13561454D01*
X26696866Y13561500D01*
X26994219Y13561500D01*
X26654487Y13901232D01*
X26299520Y13546265D01*
X24747891Y13546265D01*
X24795138Y13688710D01*
X24798005Y13702086D01*
X24807672Y13796438D01*
X24808000Y13802854D01*
X24808000Y14627885D01*
X24803525Y14643124D01*
X24802135Y14644329D01*
X24794452Y14646000D01*
X23772115Y14646000D01*
X23756876Y14641525D01*
X23755671Y14640135D01*
X23754000Y14632452D01*
X23754000Y13110116D01*
X23246000Y13110116D01*
X23246000Y14627885D01*
X23241525Y14643124D01*
X23240135Y14644329D01*
X23232452Y14646000D01*
X22210116Y14646000D01*
X22194877Y14641525D01*
X22193672Y14640135D01*
X22192001Y14632452D01*
X22192001Y13802905D01*
X20728500Y13802905D01*
X20728500Y14005400D01*
X20725737Y14032034D01*
X20718238Y14104308D01*
X20718237Y14104312D01*
X20717526Y14111166D01*
X20709899Y14134029D01*
X20671192Y14250045D01*
X20661550Y14278946D01*
X20568478Y14429348D01*
X20443303Y14554305D01*
X20437072Y14558146D01*
X20298968Y14643275D01*
X20298966Y14643276D01*
X20292738Y14647115D01*
X20173480Y14686671D01*
X25601449Y14686671D01*
X25604718Y14663931D01*
X25606000Y14646000D01*
X25606000Y14239783D01*
X25735248Y14110535D01*
X26090217Y14465503D01*
X25735249Y14820471D01*
X25601449Y14686671D01*
X20173480Y14686671D01*
X20158339Y14691693D01*
X20131389Y14700632D01*
X20131387Y14700632D01*
X20124861Y14702797D01*
X20118023Y14703498D01*
X20118021Y14703498D01*
X20057613Y14709687D01*
X20021658Y14713371D01*
X19955930Y14740212D01*
X19915148Y14798327D01*
X19908500Y14838715D01*
X19908500Y14977905D01*
X27092001Y14977905D01*
X27092338Y14971386D01*
X27102257Y14875794D01*
X27105149Y14862400D01*
X27156588Y14708216D01*
X27162761Y14695038D01*
X27248063Y14557193D01*
X27257099Y14545792D01*
X27371829Y14431261D01*
X27383240Y14422249D01*
X27521243Y14337184D01*
X27534424Y14331037D01*
X27688710Y14279862D01*
X27702086Y14276995D01*
X27796438Y14267328D01*
X27802854Y14267000D01*
X28227885Y14267000D01*
X28243124Y14271475D01*
X28244329Y14272865D01*
X28246000Y14280548D01*
X28246000Y14285116D01*
X28754000Y14285116D01*
X28758475Y14269877D01*
X28759865Y14268672D01*
X28767548Y14267001D01*
X29197095Y14267001D01*
X29203614Y14267338D01*
X29299206Y14277257D01*
X29312600Y14280149D01*
X29466784Y14331588D01*
X29479962Y14337761D01*
X29617807Y14423063D01*
X29629208Y14432099D01*
X29743739Y14546829D01*
X29752751Y14558240D01*
X29837816Y14696243D01*
X29843963Y14709424D01*
X29895138Y14863710D01*
X29898005Y14877086D01*
X29907672Y14971438D01*
X29908000Y14977854D01*
X29908000Y15165385D01*
X29903525Y15180624D01*
X29902135Y15181829D01*
X29894452Y15183500D01*
X28772115Y15183500D01*
X28756876Y15179025D01*
X28755671Y15177635D01*
X28754000Y15169952D01*
X28754000Y14285116D01*
X28246000Y14285116D01*
X28246000Y15165385D01*
X28241525Y15180624D01*
X28240135Y15181829D01*
X28232452Y15183500D01*
X27110116Y15183500D01*
X27094877Y15179025D01*
X27093672Y15177635D01*
X27092001Y15169952D01*
X27092001Y14977905D01*
X19908500Y14977905D01*
X19908500Y15027890D01*
X19923664Y15087818D01*
X19934198Y15107299D01*
X19992682Y15296232D01*
X19993326Y15302358D01*
X20000055Y15366377D01*
X20802451Y15366377D01*
X21139054Y15029774D01*
X21394000Y15284720D01*
X21394000Y15484765D01*
X21139055Y15739710D01*
X20806764Y15407419D01*
X20802451Y15366377D01*
X20000055Y15366377D01*
X20012711Y15486796D01*
X20012711Y15486798D01*
X20013355Y15492925D01*
X19995430Y15689888D01*
X19993230Y15697365D01*
X19941330Y15873706D01*
X19939590Y15879619D01*
X19903312Y15949013D01*
X19878175Y15997095D01*
X19847960Y16054890D01*
X19724032Y16209025D01*
X19572526Y16336154D01*
X19567128Y16339121D01*
X19567123Y16339125D01*
X19423820Y16417905D01*
X19399213Y16431433D01*
X19393346Y16433294D01*
X19393344Y16433295D01*
X19216564Y16489373D01*
X19216563Y16489373D01*
X19210694Y16491235D01*
X19056773Y16508500D01*
X18179500Y16508500D01*
X18111379Y16528502D01*
X18064886Y16582158D01*
X18053500Y16634500D01*
X18053500Y16986502D01*
X18052869Y16994518D01*
X18051067Y17017421D01*
X18051066Y17017426D01*
X18050562Y17023831D01*
X18011582Y17158002D01*
X18006357Y17175988D01*
X18006356Y17175990D01*
X18004145Y17183601D01*
X17931463Y17306500D01*
X19028891Y17306500D01*
X19056773Y17306500D01*
X19060291Y17306451D01*
X19090760Y17305600D01*
X19094273Y17305453D01*
X19108318Y17304668D01*
X19111830Y17304422D01*
X19142223Y17301870D01*
X19145725Y17301527D01*
X19299646Y17284262D01*
X19305746Y17283426D01*
X19358407Y17274897D01*
X19364460Y17273764D01*
X19388514Y17268651D01*
X19394502Y17267225D01*
X19446074Y17253599D01*
X19451987Y17251881D01*
X19628283Y17195956D01*
X19655546Y17223219D01*
X19655545Y17223220D01*
X20784087Y17223220D01*
X21139055Y16868251D01*
X21418680Y17147876D01*
X21409632Y17204649D01*
X21408735Y17211477D01*
X21397761Y17317243D01*
X21397537Y17319704D01*
X21139054Y17578187D01*
X20784087Y17223220D01*
X19655545Y17223220D01*
X19300578Y17578187D01*
X19028891Y17306500D01*
X17931463Y17306500D01*
X17919453Y17326807D01*
X17916771Y17329489D01*
X17891498Y17393861D01*
X17905400Y17463484D01*
X17915572Y17479312D01*
X17919453Y17483193D01*
X18004145Y17626399D01*
X18050562Y17786169D01*
X18052516Y17810986D01*
X18053307Y17821042D01*
X18053307Y17821050D01*
X18053500Y17823498D01*
X18053500Y18256502D01*
X18052783Y18265616D01*
X18067380Y18335096D01*
X18117223Y18385654D01*
X18178395Y18401500D01*
X22065500Y18401500D01*
X22133621Y18381498D01*
X22180114Y18327842D01*
X22191500Y18275500D01*
X22191500Y17399600D01*
X22191837Y17396354D01*
X22191837Y17396350D01*
X22201676Y17301527D01*
X22202474Y17293834D01*
X22204655Y17287298D01*
X22204655Y17287296D01*
X22233795Y17199955D01*
X22258450Y17126054D01*
X22351522Y16975652D01*
X22476697Y16850695D01*
X22547648Y16806960D01*
X22595140Y16754189D01*
X22606564Y16684117D01*
X22578290Y16618994D01*
X22547834Y16592557D01*
X22482193Y16551937D01*
X22470792Y16542901D01*
X22356261Y16428171D01*
X22347249Y16416760D01*
X22262184Y16278757D01*
X22256037Y16265576D01*
X22204862Y16111290D01*
X22201995Y16097914D01*
X22192328Y16003562D01*
X22192000Y15997145D01*
X22192000Y15172115D01*
X22196475Y15156876D01*
X22197865Y15155671D01*
X22205548Y15154000D01*
X24789884Y15154000D01*
X24805123Y15158475D01*
X24806328Y15159865D01*
X24807999Y15167548D01*
X24807999Y15709615D01*
X27092000Y15709615D01*
X27096475Y15694376D01*
X27097865Y15693171D01*
X27105548Y15691500D01*
X28227885Y15691500D01*
X28243124Y15695975D01*
X28244329Y15697365D01*
X28246000Y15705048D01*
X28246000Y15709615D01*
X28754000Y15709615D01*
X28758475Y15694376D01*
X28759865Y15693171D01*
X28767548Y15691500D01*
X29889884Y15691500D01*
X29905123Y15695975D01*
X29906328Y15697365D01*
X29907999Y15705048D01*
X29907999Y15897095D01*
X29907662Y15903614D01*
X29897743Y15999206D01*
X29894851Y16012600D01*
X29843412Y16166784D01*
X29837239Y16179962D01*
X29751937Y16317807D01*
X29742901Y16329208D01*
X29628171Y16443739D01*
X29616760Y16452751D01*
X29478757Y16537816D01*
X29465576Y16543963D01*
X29311290Y16595138D01*
X29297914Y16598005D01*
X29203562Y16607672D01*
X29197145Y16608000D01*
X28772115Y16608000D01*
X28756876Y16603525D01*
X28755671Y16602135D01*
X28754000Y16594452D01*
X28754000Y15709615D01*
X28246000Y15709615D01*
X28246000Y16589884D01*
X28241525Y16605123D01*
X28240135Y16606328D01*
X28232452Y16607999D01*
X27802905Y16607999D01*
X27796386Y16607662D01*
X27700794Y16597743D01*
X27687400Y16594851D01*
X27533216Y16543412D01*
X27520038Y16537239D01*
X27382193Y16451937D01*
X27370792Y16442901D01*
X27256261Y16328171D01*
X27247249Y16316760D01*
X27162184Y16178757D01*
X27156037Y16165576D01*
X27104862Y16011290D01*
X27101995Y15997914D01*
X27092328Y15903562D01*
X27092000Y15897145D01*
X27092000Y15709615D01*
X24807999Y15709615D01*
X24807999Y15997095D01*
X24807662Y16003614D01*
X24797743Y16099206D01*
X24794851Y16112600D01*
X24743412Y16266784D01*
X24737239Y16279962D01*
X24651937Y16417807D01*
X24642901Y16429208D01*
X24624156Y16447920D01*
X25524220Y16447920D01*
X25554016Y16358609D01*
X25556016Y16352019D01*
X25571778Y16294472D01*
X25573415Y16287783D01*
X25579218Y16260910D01*
X25580487Y16254145D01*
X25589874Y16195245D01*
X25590771Y16188417D01*
X25601738Y16082716D01*
X25601757Y16082504D01*
X25735248Y15949013D01*
X26090217Y16303981D01*
X25735249Y16658949D01*
X25524220Y16447920D01*
X24624156Y16447920D01*
X24528171Y16543739D01*
X24516760Y16552751D01*
X24452354Y16592451D01*
X24404861Y16645223D01*
X24393437Y16715294D01*
X24421711Y16780418D01*
X24452167Y16806855D01*
X24452339Y16806961D01*
X24524348Y16851522D01*
X24649305Y16976697D01*
X24653146Y16982928D01*
X24663398Y16999560D01*
X30200908Y16999560D01*
X30311864Y16888796D01*
X30316886Y16883483D01*
X30322447Y16877247D01*
X30331443Y16868251D01*
X30686411Y17223219D01*
X30513676Y17395953D01*
X30428617Y17257962D01*
X30424602Y17251852D01*
X30388297Y17199955D01*
X30383934Y17194089D01*
X30365847Y17171187D01*
X30361152Y17165584D01*
X30319082Y17118240D01*
X30314068Y17112917D01*
X30200908Y16999560D01*
X24663398Y16999560D01*
X24738275Y17121032D01*
X24738276Y17121034D01*
X24742115Y17127262D01*
X24776689Y17231500D01*
X24795632Y17288611D01*
X24795632Y17288613D01*
X24797797Y17295139D01*
X24798774Y17304668D01*
X24807670Y17391500D01*
X24808500Y17399600D01*
X24808500Y17528000D01*
X24828502Y17596121D01*
X24882158Y17642614D01*
X24934500Y17654000D01*
X27221085Y17654000D01*
X27289206Y17633998D01*
X27310103Y17617173D01*
X27376697Y17550695D01*
X27382927Y17546855D01*
X27382928Y17546854D01*
X27520090Y17462306D01*
X27527262Y17457885D01*
X27607005Y17431436D01*
X27688611Y17404368D01*
X27688613Y17404368D01*
X27695139Y17402203D01*
X27701975Y17401503D01*
X27701978Y17401502D01*
X27745031Y17397091D01*
X27799600Y17391500D01*
X29200400Y17391500D01*
X29203646Y17391837D01*
X29203650Y17391837D01*
X29299308Y17401762D01*
X29299312Y17401763D01*
X29306166Y17402474D01*
X29312702Y17404655D01*
X29312704Y17404655D01*
X29444806Y17448728D01*
X29473946Y17458450D01*
X29624348Y17551522D01*
X29749305Y17676697D01*
X29820736Y17792579D01*
X29838275Y17821032D01*
X29838276Y17821034D01*
X29842115Y17827262D01*
X29897797Y17995139D01*
X29908500Y18099600D01*
X29908500Y19025400D01*
X29906103Y19048500D01*
X29898238Y19124308D01*
X29898237Y19124312D01*
X29897526Y19131166D01*
X29841550Y19298946D01*
X29748478Y19449348D01*
X29623303Y19574305D01*
X29591534Y19593888D01*
X29478968Y19663275D01*
X29478966Y19663276D01*
X29472738Y19667115D01*
X29375679Y19699308D01*
X29311389Y19720632D01*
X29311387Y19720632D01*
X29304861Y19722797D01*
X29298025Y19723497D01*
X29298022Y19723498D01*
X29254969Y19727909D01*
X29200400Y19733500D01*
X27799600Y19733500D01*
X27796354Y19733163D01*
X27796350Y19733163D01*
X27700692Y19723238D01*
X27700688Y19723237D01*
X27693834Y19722526D01*
X27687298Y19720345D01*
X27687296Y19720345D01*
X27644797Y19706166D01*
X27526054Y19666550D01*
X27375652Y19573478D01*
X27370479Y19568296D01*
X27310270Y19507982D01*
X27247987Y19473903D01*
X27221097Y19471000D01*
X24934500Y19471000D01*
X24866379Y19491002D01*
X24819886Y19544658D01*
X24809171Y19593914D01*
X24808668Y19593888D01*
X24808509Y19596958D01*
X24808500Y19597000D01*
X24808500Y19600400D01*
X24805906Y19625400D01*
X24798238Y19699308D01*
X24798237Y19699312D01*
X24797526Y19706166D01*
X24792796Y19720345D01*
X24743868Y19866998D01*
X24741550Y19873946D01*
X24648478Y20024348D01*
X24523303Y20149305D01*
X24517075Y20153144D01*
X24517070Y20153148D01*
X24468383Y20183159D01*
X24420890Y20235931D01*
X24408500Y20290418D01*
X24408500Y20381497D01*
X24428502Y20449618D01*
X24445405Y20470592D01*
X24484408Y20509595D01*
X24546720Y20543621D01*
X24573503Y20546500D01*
X25493134Y20546500D01*
X25516497Y20549038D01*
X26650656Y20549038D01*
X26654487Y20545207D01*
X27009456Y20900175D01*
X28137997Y20900175D01*
X28492966Y20545207D01*
X28847933Y20900174D01*
X29976475Y20900174D01*
X30331442Y20545207D01*
X30686411Y20900175D01*
X30331443Y21255143D01*
X29976475Y20900174D01*
X28847933Y20900174D01*
X28492965Y21255143D01*
X28137997Y20900175D01*
X27009456Y20900175D01*
X26751500Y21158131D01*
X26751500Y21006866D01*
X26751454Y21003458D01*
X26750655Y20973930D01*
X26750517Y20970524D01*
X26749780Y20956916D01*
X26749549Y20953517D01*
X26747155Y20924078D01*
X26746833Y20920683D01*
X26740078Y20858501D01*
X26738981Y20850689D01*
X26727365Y20783355D01*
X26725782Y20775629D01*
X26718501Y20745007D01*
X26716436Y20737393D01*
X26696500Y20672033D01*
X26693964Y20664563D01*
X26650656Y20549038D01*
X25516497Y20549038D01*
X25555316Y20553255D01*
X25691705Y20604385D01*
X25808261Y20691739D01*
X25895615Y20808295D01*
X25946745Y20944684D01*
X25953500Y21006866D01*
X25953500Y21819413D01*
X27218758Y21819413D01*
X27573726Y21464445D01*
X27928693Y21819413D01*
X29057236Y21819413D01*
X29412204Y21464445D01*
X29767172Y21819414D01*
X29412205Y22174381D01*
X29057236Y21819413D01*
X27928693Y21819413D01*
X27928694Y21819414D01*
X27573727Y22174381D01*
X27218758Y21819413D01*
X25953500Y21819413D01*
X25953500Y22803134D01*
X25946745Y22865316D01*
X25895615Y23001705D01*
X25882269Y23019512D01*
X26728596Y23019512D01*
X26738981Y22959311D01*
X26740078Y22951499D01*
X26746833Y22889317D01*
X26747155Y22885922D01*
X26749549Y22856483D01*
X26749780Y22853084D01*
X26750517Y22839476D01*
X26750655Y22836070D01*
X26751454Y22806542D01*
X26751500Y22803134D01*
X26751500Y22480696D01*
X27009456Y22738652D01*
X28137997Y22738652D01*
X28492965Y22383684D01*
X28847933Y22738653D01*
X29976475Y22738653D01*
X30331443Y22383684D01*
X30686411Y22738652D01*
X30331442Y23093620D01*
X29976475Y22738653D01*
X28847933Y22738653D01*
X28492966Y23093620D01*
X28137997Y22738652D01*
X27009456Y22738652D01*
X26728596Y23019512D01*
X25882269Y23019512D01*
X25808261Y23118261D01*
X25691705Y23205615D01*
X25555316Y23256745D01*
X25493134Y23263500D01*
X23696866Y23263500D01*
X23634684Y23256745D01*
X23498295Y23205615D01*
X23381739Y23118261D01*
X23294385Y23001705D01*
X23243255Y22865316D01*
X23236500Y22803134D01*
X23236500Y21883503D01*
X23216498Y21815382D01*
X23199595Y21794408D01*
X22915168Y21509981D01*
X22900135Y21497140D01*
X22888747Y21488866D01*
X22884327Y21483957D01*
X22842984Y21438041D01*
X22838443Y21433256D01*
X22823928Y21418741D01*
X22821852Y21416177D01*
X22811006Y21402784D01*
X22806722Y21397769D01*
X22765381Y21351855D01*
X22765377Y21351850D01*
X22760960Y21346944D01*
X22757660Y21341228D01*
X22757657Y21341224D01*
X22753927Y21334763D01*
X22742727Y21318467D01*
X22733871Y21307530D01*
X22707179Y21255143D01*
X22702815Y21246579D01*
X22699669Y21240785D01*
X22665473Y21181556D01*
X22663432Y21175274D01*
X22663431Y21175272D01*
X22661125Y21168174D01*
X22653560Y21149908D01*
X22647171Y21137370D01*
X22645463Y21130997D01*
X22645463Y21130996D01*
X22629469Y21071305D01*
X22627600Y21064997D01*
X22606458Y20999928D01*
X22605768Y20993363D01*
X22605766Y20993354D01*
X22604985Y20985925D01*
X22601383Y20966491D01*
X22600812Y20964359D01*
X22597743Y20952903D01*
X22597398Y20946312D01*
X22597397Y20946308D01*
X22594164Y20884616D01*
X22593647Y20878042D01*
X22591844Y20860884D01*
X22591500Y20857610D01*
X22591500Y20837074D01*
X22591327Y20830480D01*
X22589788Y20801109D01*
X22587748Y20762190D01*
X22588780Y20755675D01*
X22589949Y20748295D01*
X22591500Y20728583D01*
X22591500Y20344500D01*
X22571498Y20276379D01*
X22517842Y20229886D01*
X22465500Y20218500D01*
X15885756Y20218500D01*
X15866047Y20220051D01*
X15852149Y20222252D01*
X15845562Y20221907D01*
X15845557Y20221907D01*
X15783859Y20218673D01*
X15777265Y20218500D01*
X15756730Y20218500D01*
X15750562Y20217852D01*
X15736300Y20216353D01*
X15729725Y20215836D01*
X15668036Y20212603D01*
X15668035Y20212603D01*
X15661436Y20212257D01*
X15647848Y20208616D01*
X15628401Y20205012D01*
X15620984Y20204233D01*
X15620980Y20204232D01*
X15614412Y20203542D01*
X15557616Y20185088D01*
X15549349Y20182402D01*
X15543025Y20180529D01*
X15483350Y20164539D01*
X15483346Y20164538D01*
X15476970Y20162829D01*
X15471088Y20159832D01*
X15464433Y20156441D01*
X15446166Y20148875D01*
X15439068Y20146569D01*
X15439066Y20146568D01*
X15432784Y20144527D01*
X15383490Y20116067D01*
X15373558Y20110333D01*
X15367763Y20107186D01*
X15306810Y20076129D01*
X15301682Y20071976D01*
X15301680Y20071975D01*
X15295874Y20067273D01*
X15279577Y20056073D01*
X15273116Y20052343D01*
X15273112Y20052340D01*
X15267396Y20049040D01*
X15262490Y20044623D01*
X15262485Y20044619D01*
X15216571Y20003278D01*
X15211556Y19998994D01*
X15203058Y19992112D01*
X15195599Y19986072D01*
X15181084Y19971557D01*
X15176299Y19967016D01*
X15125474Y19921253D01*
X15121595Y19915914D01*
X15121594Y19915913D01*
X15117200Y19909865D01*
X15104359Y19894832D01*
X14210168Y19000641D01*
X14195135Y18987800D01*
X14183747Y18979526D01*
X14179327Y18974617D01*
X14137984Y18928701D01*
X14133443Y18923916D01*
X14118928Y18909401D01*
X14116852Y18906837D01*
X14106006Y18893444D01*
X14101722Y18888429D01*
X14060381Y18842515D01*
X14060377Y18842510D01*
X14055960Y18837604D01*
X14052660Y18831888D01*
X14052657Y18831884D01*
X14048927Y18825423D01*
X14037727Y18809127D01*
X14028871Y18798190D01*
X14005944Y18753193D01*
X13997815Y18737239D01*
X13994669Y18731445D01*
X13960473Y18672216D01*
X13958432Y18665934D01*
X13958431Y18665932D01*
X13956125Y18658834D01*
X13948560Y18640568D01*
X13942171Y18628030D01*
X13940463Y18621657D01*
X13940463Y18621656D01*
X13924469Y18561965D01*
X13922600Y18555657D01*
X13901458Y18490588D01*
X13900768Y18484023D01*
X13900766Y18484014D01*
X13899985Y18476585D01*
X13896383Y18457151D01*
X13894453Y18449946D01*
X13892743Y18443563D01*
X13892398Y18436972D01*
X13892397Y18436968D01*
X13889164Y18375276D01*
X13888647Y18368702D01*
X13886844Y18351544D01*
X13886500Y18348270D01*
X13886500Y18327734D01*
X13886327Y18321140D01*
X13882748Y18252850D01*
X13883780Y18246335D01*
X13884949Y18238955D01*
X13886500Y18219243D01*
X13886500Y12666417D01*
X13884949Y12646708D01*
X13882748Y12632810D01*
X13883093Y12626223D01*
X13883093Y12626218D01*
X13886327Y12564520D01*
X13886500Y12557926D01*
X13886500Y12537390D01*
X13886844Y12534118D01*
X13886844Y12534116D01*
X13888647Y12516958D01*
X13889164Y12510384D01*
X13890060Y12493297D01*
X13892743Y12442097D01*
X13894453Y12435716D01*
X13894453Y12435714D01*
X13896383Y12428509D01*
X13899985Y12409075D01*
X13900766Y12401646D01*
X13900768Y12401637D01*
X13901458Y12395072D01*
X13922600Y12330003D01*
X13924467Y12323701D01*
X13942171Y12257630D01*
X13948559Y12245093D01*
X13956125Y12226826D01*
X13957670Y12222072D01*
X13960473Y12213444D01*
X13963776Y12207722D01*
X13963777Y12207721D01*
X13994667Y12154218D01*
X13997814Y12148423D01*
X14028871Y12087470D01*
X14033024Y12082342D01*
X14033025Y12082340D01*
X14037727Y12076534D01*
X14048927Y12060237D01*
X14052657Y12053776D01*
X14052660Y12053772D01*
X14055960Y12048056D01*
X14060377Y12043150D01*
X14060381Y12043145D01*
X14101722Y11997231D01*
X14106006Y11992216D01*
X14118928Y11976259D01*
X14133443Y11961744D01*
X14137984Y11956959D01*
X14183747Y11906134D01*
X14189086Y11902255D01*
X14189087Y11902254D01*
X14195135Y11897860D01*
X14210168Y11885019D01*
X15049595Y11045592D01*
X15083621Y10983280D01*
X15086500Y10956497D01*
X15086500Y10593498D01*
X15089438Y10556169D01*
X15135855Y10396399D01*
X15220547Y10253193D01*
X15223229Y10250511D01*
X15248502Y10186139D01*
X15234600Y10116516D01*
X15224428Y10100688D01*
X15220547Y10096807D01*
X15135855Y9953601D01*
X15089438Y9793831D01*
X15088934Y9787426D01*
X15088933Y9787421D01*
X15086694Y9758973D01*
X15086500Y9756502D01*
X15086500Y9323498D01*
X15086693Y9321050D01*
X15086693Y9321042D01*
X15087953Y9305039D01*
X15089438Y9286169D01*
X15135855Y9126399D01*
X15220547Y8983193D01*
X15223229Y8980511D01*
X15248502Y8916139D01*
X15234600Y8846516D01*
X15224428Y8830688D01*
X15220547Y8826807D01*
X15135855Y8683601D01*
X15133644Y8675990D01*
X15133643Y8675988D01*
X15119790Y8628303D01*
X15089438Y8523831D01*
X15088934Y8517426D01*
X15088933Y8517421D01*
X15088392Y8510544D01*
X15086500Y8486502D01*
X15086500Y8053498D01*
X15086693Y8051050D01*
X15086693Y8051042D01*
X15088284Y8030832D01*
X15089438Y8016169D01*
X15114056Y7931433D01*
X15133586Y7864210D01*
X15135855Y7856399D01*
X15220547Y7713193D01*
X15223229Y7710511D01*
X15248502Y7646139D01*
X15234600Y7576516D01*
X15224428Y7560688D01*
X15220547Y7556807D01*
X15135855Y7413601D01*
X15089438Y7253831D01*
X15088934Y7247426D01*
X15088933Y7247421D01*
X15086693Y7218958D01*
X15086500Y7216502D01*
X15086500Y6783498D01*
X15086693Y6781050D01*
X15086693Y6781042D01*
X15088822Y6754000D01*
X15089438Y6746169D01*
X15135855Y6586399D01*
X15139892Y6579573D01*
X15216509Y6450020D01*
X15216511Y6450017D01*
X15220547Y6443193D01*
X15338193Y6325547D01*
X15345017Y6321511D01*
X15345020Y6321509D01*
X15407851Y6284351D01*
X15481399Y6240855D01*
X15489010Y6238644D01*
X15489012Y6238643D01*
X15526042Y6227885D01*
X15641169Y6194438D01*
X15647574Y6193934D01*
X15647579Y6193933D01*
X15676042Y6191693D01*
X15676050Y6191693D01*
X15678498Y6191500D01*
X16119603Y6191500D01*
X16182602Y6174620D01*
X16198444Y6165473D01*
X16380072Y6106458D01*
X16386633Y6105768D01*
X16386635Y6105768D01*
X16428358Y6101383D01*
X16522390Y6091500D01*
X17254243Y6091500D01*
X17273952Y6089949D01*
X17287850Y6087748D01*
X17294437Y6088093D01*
X17294442Y6088093D01*
X17356140Y6091327D01*
X17362734Y6091500D01*
X17383270Y6091500D01*
X17386542Y6091844D01*
X17386544Y6091844D01*
X17403702Y6093647D01*
X17410276Y6094164D01*
X17471968Y6097397D01*
X17471972Y6097398D01*
X17478563Y6097743D01*
X17484944Y6099453D01*
X17484946Y6099453D01*
X17492151Y6101383D01*
X17511585Y6104985D01*
X17519014Y6105766D01*
X17519023Y6105768D01*
X17525588Y6106458D01*
X17590657Y6127600D01*
X17596959Y6129467D01*
X17663030Y6147171D01*
X17675568Y6153560D01*
X17693834Y6161125D01*
X17700932Y6163431D01*
X17700934Y6163432D01*
X17707216Y6165473D01*
X17723058Y6174619D01*
X17753776Y6192354D01*
X18945609Y6192354D01*
X19300578Y5837386D01*
X19655545Y6192353D01*
X19300577Y6547322D01*
X18945609Y6192354D01*
X17753776Y6192354D01*
X17766445Y6199669D01*
X17772239Y6202815D01*
X17833190Y6233871D01*
X17844127Y6242727D01*
X17860423Y6253927D01*
X17866884Y6257657D01*
X17866888Y6257660D01*
X17872604Y6260960D01*
X17877510Y6265377D01*
X17877515Y6265381D01*
X17923429Y6306722D01*
X17928444Y6311006D01*
X17936942Y6317888D01*
X17944401Y6323928D01*
X17958916Y6338443D01*
X17963701Y6342984D01*
X18009617Y6384327D01*
X18014526Y6388747D01*
X18022800Y6400135D01*
X18035641Y6415168D01*
X19328735Y7708262D01*
X19391047Y7742288D01*
X19461862Y7737223D01*
X19506925Y7708262D01*
X21199595Y6015592D01*
X21233621Y5953280D01*
X21236500Y5926497D01*
X21236500Y5006866D01*
X21243255Y4944684D01*
X21294385Y4808295D01*
X21381739Y4691739D01*
X21498295Y4604385D01*
X21634684Y4553255D01*
X21696866Y4546500D01*
X23493134Y4546500D01*
X23555316Y4553255D01*
X23691705Y4604385D01*
X23808261Y4691739D01*
X23895615Y4808295D01*
X23946745Y4944684D01*
X23953500Y5006866D01*
X23953500Y5926497D01*
X23973502Y5994618D01*
X23990405Y6015592D01*
X24934039Y6959226D01*
X24996351Y6993252D01*
X25023134Y6996131D01*
X26117037Y6996131D01*
X26185158Y6976129D01*
X26231651Y6922473D01*
X26242300Y6856524D01*
X26236500Y6803134D01*
X26236500Y5006866D01*
X26243255Y4944684D01*
X26294385Y4808295D01*
X26381739Y4691739D01*
X26498295Y4604385D01*
X26634684Y4553255D01*
X26696866Y4546500D01*
X28493134Y4546500D01*
X28555316Y4553255D01*
X28691705Y4604385D01*
X28808261Y4691739D01*
X28895615Y4808295D01*
X28946745Y4944684D01*
X28953500Y5006866D01*
X28953500Y5455331D01*
X30992001Y5455331D01*
X30992371Y5448510D01*
X30997895Y5397648D01*
X31001521Y5382396D01*
X31046676Y5261946D01*
X31055214Y5246351D01*
X31131715Y5144276D01*
X31144276Y5131715D01*
X31246351Y5055214D01*
X31261946Y5046676D01*
X31382394Y5001522D01*
X31397649Y4997895D01*
X31448514Y4992369D01*
X31455328Y4992000D01*
X32227885Y4992000D01*
X32243124Y4996475D01*
X32244329Y4997865D01*
X32246000Y5005548D01*
X32246000Y6227885D01*
X32241525Y6243124D01*
X32240135Y6244329D01*
X32232452Y6246000D01*
X31010116Y6246000D01*
X30994877Y6241525D01*
X30993672Y6240135D01*
X30992001Y6232452D01*
X30992001Y5455331D01*
X28953500Y5455331D01*
X28953500Y6192353D01*
X29976475Y6192353D01*
X30194001Y5974827D01*
X30194001Y6246000D01*
X30194723Y6259468D01*
X30207200Y6375526D01*
X30209357Y6388841D01*
X30219475Y6435353D01*
X29976475Y6192353D01*
X28953500Y6192353D01*
X28953500Y6772115D01*
X30992000Y6772115D01*
X30996475Y6756876D01*
X30997865Y6755671D01*
X31005548Y6754000D01*
X32227885Y6754000D01*
X32243124Y6758475D01*
X32244329Y6759865D01*
X32246000Y6767548D01*
X32246000Y7989884D01*
X32241525Y8005123D01*
X32240135Y8006328D01*
X32232452Y8007999D01*
X31455331Y8007999D01*
X31448510Y8007629D01*
X31397648Y8002105D01*
X31382396Y7998479D01*
X31261946Y7953324D01*
X31246351Y7944786D01*
X31144276Y7868285D01*
X31131715Y7855724D01*
X31055214Y7753649D01*
X31046676Y7738054D01*
X31001522Y7617606D01*
X30997895Y7602351D01*
X30992369Y7551486D01*
X30992000Y7544672D01*
X30992000Y6772115D01*
X28953500Y6772115D01*
X28953500Y6803134D01*
X28946745Y6865316D01*
X28950122Y6865683D01*
X28953036Y6921152D01*
X28994500Y6978783D01*
X29047676Y7001851D01*
X29047536Y7002374D01*
X29051057Y7003317D01*
X29051063Y7003319D01*
X29053913Y7004083D01*
X29053918Y7004084D01*
X29061122Y7006014D01*
X29080556Y7009616D01*
X29087985Y7010397D01*
X29087994Y7010399D01*
X29094559Y7011089D01*
X29159628Y7032231D01*
X29165930Y7034098D01*
X29232001Y7051802D01*
X29244539Y7058191D01*
X29262805Y7065756D01*
X29269903Y7068062D01*
X29269905Y7068063D01*
X29276187Y7070104D01*
X29335416Y7104300D01*
X29341210Y7107446D01*
X29349349Y7111593D01*
X29402161Y7138502D01*
X29413098Y7147358D01*
X29429394Y7158558D01*
X29435855Y7162288D01*
X29435859Y7162291D01*
X29441575Y7165591D01*
X29446481Y7170008D01*
X29446486Y7170012D01*
X29492400Y7211353D01*
X29497415Y7215637D01*
X29510808Y7226483D01*
X29513372Y7228559D01*
X29527887Y7243074D01*
X29532672Y7247615D01*
X29578588Y7288958D01*
X29583497Y7293378D01*
X29588603Y7300405D01*
X29591771Y7304766D01*
X29604612Y7319799D01*
X32247235Y9962422D01*
X32309547Y9996448D01*
X32346213Y9998939D01*
X32500000Y9986835D01*
X32736711Y10005465D01*
X32741518Y10006619D01*
X32741524Y10006620D01*
X32916681Y10048672D01*
X32967594Y10060895D01*
X32975081Y10063996D01*
X33182389Y10149865D01*
X33182393Y10149867D01*
X33186963Y10151760D01*
X33191182Y10154345D01*
X33191193Y10154351D01*
X33385460Y10273399D01*
X33453993Y10291938D01*
X33521670Y10270482D01*
X33567003Y10215843D01*
X33577295Y10165967D01*
X33577296Y8815851D01*
X33577296Y8134000D01*
X33557294Y8065879D01*
X33503638Y8019386D01*
X33451296Y8008000D01*
X32772115Y8008000D01*
X32756876Y8003525D01*
X32755671Y8002135D01*
X32754000Y7994452D01*
X32754000Y5010116D01*
X32758475Y4994877D01*
X32759865Y4993672D01*
X32767548Y4992001D01*
X33451297Y4992001D01*
X33519418Y4971999D01*
X33565911Y4918343D01*
X33577297Y4866001D01*
X33577297Y3953241D01*
X33575796Y3933853D01*
X33573488Y3919029D01*
X33572106Y3910152D01*
X33574101Y3894894D01*
X33574844Y3869576D01*
X33566183Y3748500D01*
X33562756Y3700594D01*
X33560197Y3682803D01*
X33542621Y3602007D01*
X33518792Y3492473D01*
X33513727Y3475224D01*
X33445652Y3292711D01*
X33438185Y3276359D01*
X33344835Y3105399D01*
X33335116Y3090276D01*
X33218387Y2934341D01*
X33206615Y2920755D01*
X33068879Y2783014D01*
X33055294Y2771243D01*
X33008184Y2735975D01*
X32899366Y2654511D01*
X32884243Y2644791D01*
X32713281Y2551433D01*
X32696933Y2543966D01*
X32514418Y2475885D01*
X32497182Y2470824D01*
X32374185Y2444062D01*
X32306849Y2429411D01*
X32289056Y2426851D01*
X32127456Y2415286D01*
X32108080Y2416091D01*
X32100918Y2416178D01*
X32092048Y2417559D01*
X32083150Y2416395D01*
X32083149Y2416395D01*
X32079585Y2415929D01*
X32060503Y2413433D01*
X32044165Y2412369D01*
X19515605Y2412850D01*
X4645193Y2413420D01*
X4625816Y2414920D01*
X4610968Y2417231D01*
X4602092Y2418613D01*
X4586836Y2416618D01*
X4561513Y2415875D01*
X4469871Y2422428D01*
X4392546Y2427958D01*
X4374750Y2430516D01*
X4184415Y2471920D01*
X4167166Y2476985D01*
X3984668Y2545052D01*
X3968315Y2552520D01*
X3797361Y2645867D01*
X3782238Y2655586D01*
X3626302Y2772317D01*
X3612714Y2784091D01*
X3474986Y2921820D01*
X3463214Y2935406D01*
X3404551Y3013770D01*
X3346485Y3091338D01*
X3336768Y3106458D01*
X3243420Y3277417D01*
X3235952Y3293768D01*
X3231595Y3305450D01*
X3183411Y3434638D01*
X5157027Y3434638D01*
X5380273Y3211392D01*
X5643708Y3211382D01*
X5866963Y3434637D01*
X6995504Y3434637D01*
X7218820Y3211321D01*
X7482115Y3211311D01*
X7705441Y3434637D01*
X8833982Y3434637D01*
X9057368Y3211251D01*
X9320521Y3211241D01*
X9543917Y3434637D01*
X10672459Y3434637D01*
X10895916Y3211180D01*
X11158929Y3211170D01*
X11382396Y3434637D01*
X12510937Y3434637D01*
X12734464Y3211110D01*
X12997335Y3211100D01*
X13220872Y3434637D01*
X14349415Y3434637D01*
X14573013Y3211039D01*
X14835742Y3211029D01*
X15059351Y3434638D01*
X16187893Y3434638D01*
X16411562Y3210969D01*
X16674151Y3210959D01*
X16897829Y3434637D01*
X18026370Y3434637D01*
X18250109Y3210898D01*
X18512556Y3210888D01*
X18736306Y3434638D01*
X19864848Y3434638D01*
X20088658Y3210828D01*
X20350964Y3210817D01*
X20574784Y3434637D01*
X20574783Y3434638D01*
X21703326Y3434638D01*
X21927207Y3210757D01*
X22189372Y3210747D01*
X22413262Y3434637D01*
X23541803Y3434637D01*
X23765754Y3210686D01*
X24027779Y3210676D01*
X24251740Y3434637D01*
X24251739Y3434638D01*
X25380281Y3434638D01*
X25604303Y3210616D01*
X25866186Y3210606D01*
X26090217Y3434637D01*
X27218758Y3434637D01*
X27442850Y3210545D01*
X27704593Y3210535D01*
X27928695Y3434637D01*
X29057236Y3434637D01*
X29281398Y3210475D01*
X29542999Y3210465D01*
X29767171Y3434637D01*
X30895713Y3434637D01*
X31119946Y3210404D01*
X31381407Y3210394D01*
X31605650Y3434637D01*
X31250681Y3789605D01*
X30895713Y3434637D01*
X29767171Y3434637D01*
X29767172Y3434638D01*
X29412205Y3789605D01*
X29057236Y3434637D01*
X27928695Y3434637D01*
X27614832Y3748500D01*
X27532621Y3748500D01*
X27218758Y3434637D01*
X26090217Y3434637D01*
X25735248Y3789605D01*
X25380281Y3434638D01*
X24251739Y3434638D01*
X23896772Y3789605D01*
X23541803Y3434637D01*
X22413262Y3434637D01*
X22099399Y3748500D01*
X22017188Y3748500D01*
X21703326Y3434638D01*
X20574783Y3434638D01*
X20219815Y3789605D01*
X19864848Y3434638D01*
X18736306Y3434638D01*
X18381339Y3789605D01*
X18026370Y3434637D01*
X16897829Y3434637D01*
X16542860Y3789605D01*
X16187893Y3434638D01*
X15059351Y3434638D01*
X14704384Y3789605D01*
X14349415Y3434637D01*
X13220872Y3434637D01*
X13220873Y3434638D01*
X12865906Y3789605D01*
X12510937Y3434637D01*
X11382396Y3434637D01*
X11027427Y3789605D01*
X10672459Y3434637D01*
X9543917Y3434637D01*
X9543918Y3434638D01*
X9188951Y3789605D01*
X8833982Y3434637D01*
X7705441Y3434637D01*
X7350473Y3789605D01*
X6995504Y3434637D01*
X5866963Y3434637D01*
X5511994Y3789605D01*
X5157027Y3434638D01*
X3183411Y3434638D01*
X3167880Y3476277D01*
X3162818Y3493518D01*
X3121416Y3683850D01*
X3118858Y3701644D01*
X3112568Y3789605D01*
X3107282Y3863523D01*
X3108030Y3881501D01*
X3108131Y3889771D01*
X3109512Y3898640D01*
X3105429Y3929871D01*
X3104366Y3946340D01*
X3104803Y4353876D01*
X4237788Y4353876D01*
X4592757Y3998908D01*
X4947724Y4353875D01*
X6076266Y4353875D01*
X6431233Y3998908D01*
X6786202Y4353876D01*
X7914743Y4353876D01*
X8269712Y3998908D01*
X8624679Y4353875D01*
X9753221Y4353875D01*
X10108188Y3998908D01*
X10463156Y4353875D01*
X11591699Y4353875D01*
X11946666Y3998908D01*
X12301635Y4353876D01*
X13430176Y4353876D01*
X13785145Y3998908D01*
X14140112Y4353875D01*
X15268654Y4353875D01*
X15623621Y3998908D01*
X15978590Y4353876D01*
X17107131Y4353876D01*
X17462100Y3998908D01*
X17817067Y4353875D01*
X17817066Y4353876D01*
X18945609Y4353876D01*
X19300578Y3998908D01*
X19603389Y4301719D01*
X24513198Y4301719D01*
X24816009Y3998908D01*
X25170977Y4353875D01*
X29976475Y4353875D01*
X30331442Y3998908D01*
X30526535Y4194000D01*
X31974828Y4194000D01*
X32169920Y3998908D01*
X32383485Y4212472D01*
X32263932Y4195283D01*
X32246000Y4194000D01*
X31974828Y4194000D01*
X30526535Y4194000D01*
X30686411Y4353876D01*
X30331443Y4708844D01*
X29976475Y4353875D01*
X25170977Y4353875D01*
X25170978Y4353876D01*
X24816010Y4708844D01*
X24647327Y4540161D01*
X24642833Y4528173D01*
X24639393Y4519902D01*
X24607056Y4449354D01*
X24603035Y4441346D01*
X24585879Y4410011D01*
X24581299Y4402311D01*
X24539294Y4337071D01*
X24534180Y4329716D01*
X24513198Y4301719D01*
X19603389Y4301719D01*
X19655545Y4353875D01*
X19300577Y4708844D01*
X18945609Y4353876D01*
X17817066Y4353876D01*
X17462099Y4708844D01*
X17107131Y4353876D01*
X15978590Y4353876D01*
X15623622Y4708844D01*
X15268654Y4353875D01*
X14140112Y4353875D01*
X13785144Y4708844D01*
X13430176Y4353876D01*
X12301635Y4353876D01*
X11946667Y4708844D01*
X11591699Y4353875D01*
X10463156Y4353875D01*
X10463157Y4353876D01*
X10108189Y4708844D01*
X9753221Y4353875D01*
X8624679Y4353875D01*
X8453700Y4524854D01*
X8449254Y4524020D01*
X8390351Y4514632D01*
X8383523Y4513735D01*
X8277757Y4502761D01*
X8274511Y4502466D01*
X8246382Y4500281D01*
X8243136Y4500071D01*
X8230132Y4499398D01*
X8226878Y4499272D01*
X8198658Y4498542D01*
X8195400Y4498500D01*
X8059367Y4498500D01*
X7914743Y4353876D01*
X6786202Y4353876D01*
X6566170Y4573908D01*
X6471037Y4605462D01*
X6464168Y4607963D01*
X6405315Y4631353D01*
X6398602Y4634250D01*
X6372153Y4646583D01*
X6370036Y4647646D01*
X6076266Y4353875D01*
X4947724Y4353875D01*
X4592756Y4708844D01*
X4237788Y4353876D01*
X3104803Y4353876D01*
X3105656Y5148286D01*
X3903657Y5148286D01*
X4028485Y5273114D01*
X5157027Y5273114D01*
X5511994Y4918147D01*
X5762834Y5168987D01*
X5747665Y5193500D01*
X10752074Y5193500D01*
X11027427Y4918147D01*
X11302780Y5193500D01*
X10752074Y5193500D01*
X5747665Y5193500D01*
X5698397Y5273115D01*
X12510937Y5273115D01*
X12865906Y4918147D01*
X13220873Y5273114D01*
X13220872Y5273115D01*
X14349415Y5273115D01*
X14704384Y4918147D01*
X15059351Y5273114D01*
X15059350Y5273115D01*
X16187892Y5273115D01*
X16542860Y4918147D01*
X16897829Y5273115D01*
X18026370Y5273115D01*
X18381339Y4918147D01*
X18736306Y5273114D01*
X19864848Y5273114D01*
X20219815Y4918147D01*
X20438500Y5136832D01*
X20438500Y5409399D01*
X20219816Y5628083D01*
X19864848Y5273114D01*
X18736306Y5273114D01*
X18381338Y5628083D01*
X18026370Y5273115D01*
X16897829Y5273115D01*
X16877444Y5293500D01*
X16522390Y5293500D01*
X16519092Y5293543D01*
X16490525Y5294291D01*
X16487231Y5294421D01*
X16474061Y5295111D01*
X16470769Y5295326D01*
X16442264Y5297569D01*
X16438978Y5297871D01*
X16296660Y5312829D01*
X16290118Y5313691D01*
X16236898Y5322121D01*
X16187892Y5273115D01*
X15059350Y5273115D01*
X14704383Y5628083D01*
X14349415Y5273115D01*
X13220872Y5273115D01*
X12996289Y5497698D01*
X12938764Y5476987D01*
X12931235Y5474540D01*
X12771465Y5428123D01*
X12765245Y5426487D01*
X12711021Y5413694D01*
X12704727Y5412378D01*
X12679460Y5407763D01*
X12673106Y5406769D01*
X12640317Y5402495D01*
X12510937Y5273115D01*
X5698397Y5273115D01*
X5674870Y5311134D01*
X5671205Y5317459D01*
X5641061Y5373150D01*
X5637769Y5379676D01*
X5625389Y5406103D01*
X5622480Y5412814D01*
X5598981Y5471640D01*
X5596468Y5478504D01*
X5563872Y5576206D01*
X5511995Y5628083D01*
X5157027Y5273114D01*
X4028485Y5273114D01*
X3903924Y5397675D01*
X3903657Y5148286D01*
X3105656Y5148286D01*
X3106776Y6192354D01*
X4237788Y6192354D01*
X4592757Y5837386D01*
X4759971Y6004600D01*
X6286500Y6004600D01*
X6286837Y6001354D01*
X6286837Y6001350D01*
X6294604Y5926497D01*
X6297474Y5898834D01*
X6353450Y5731054D01*
X6446522Y5580652D01*
X6571697Y5455695D01*
X6577927Y5451855D01*
X6577928Y5451854D01*
X6715090Y5367306D01*
X6722262Y5362885D01*
X6802005Y5336436D01*
X6883611Y5309368D01*
X6883613Y5309368D01*
X6890139Y5307203D01*
X6896975Y5306503D01*
X6896978Y5306502D01*
X6940031Y5302091D01*
X6994600Y5296500D01*
X8195400Y5296500D01*
X8198646Y5296837D01*
X8198650Y5296837D01*
X8294308Y5306762D01*
X8294312Y5306763D01*
X8301166Y5307474D01*
X8307702Y5309655D01*
X8307704Y5309655D01*
X8439806Y5353728D01*
X8468946Y5363450D01*
X8619348Y5456522D01*
X8744305Y5581697D01*
X8837115Y5732262D01*
X8892797Y5900139D01*
X8894433Y5899596D01*
X8924106Y5954328D01*
X8986316Y5988540D01*
X9013468Y5991500D01*
X11669769Y5991500D01*
X11672825Y5991800D01*
X11672832Y5991800D01*
X11702030Y5994663D01*
X13627868Y5994663D01*
X13785145Y5837386D01*
X14140112Y6192353D01*
X13853832Y6478633D01*
X13820460Y6363765D01*
X13818013Y6356236D01*
X13794782Y6291712D01*
X13791868Y6284351D01*
X13779324Y6255365D01*
X13775954Y6248204D01*
X13744829Y6187119D01*
X13741016Y6180184D01*
X13656324Y6036978D01*
X13652083Y6030294D01*
X13627868Y5994663D01*
X11702030Y5994663D01*
X11731340Y5997537D01*
X11816833Y6005920D01*
X11822734Y6007702D01*
X11822736Y6007702D01*
X11919702Y6036978D01*
X12006169Y6063084D01*
X12180796Y6155934D01*
X12189635Y6163143D01*
X12255066Y6190697D01*
X12269271Y6191500D01*
X12511502Y6191500D01*
X12513950Y6191693D01*
X12513958Y6191693D01*
X12542421Y6193933D01*
X12542426Y6193934D01*
X12548831Y6194438D01*
X12663958Y6227885D01*
X12700988Y6238643D01*
X12700990Y6238644D01*
X12708601Y6240855D01*
X12782149Y6284351D01*
X12844980Y6321509D01*
X12844983Y6321511D01*
X12851807Y6325547D01*
X12969453Y6443193D01*
X12973489Y6450017D01*
X12973491Y6450020D01*
X13050108Y6579573D01*
X13054145Y6586399D01*
X13100562Y6746169D01*
X13101179Y6754000D01*
X13103307Y6781042D01*
X13103307Y6781050D01*
X13103500Y6783498D01*
X13103500Y7216502D01*
X13103307Y7218958D01*
X13101067Y7247421D01*
X13101066Y7247426D01*
X13100562Y7253831D01*
X13054145Y7413601D01*
X12969453Y7556807D01*
X12966513Y7559747D01*
X12941180Y7624266D01*
X12955079Y7693889D01*
X12967126Y7712636D01*
X12973090Y7720324D01*
X13049648Y7849779D01*
X13055893Y7864210D01*
X13094939Y7998605D01*
X13094899Y8012706D01*
X13087630Y8016000D01*
X10158122Y8016000D01*
X10149962Y8013604D01*
X10114464Y8008500D01*
X9029500Y8008500D01*
X8961379Y8028502D01*
X8914886Y8082158D01*
X8903500Y8134500D01*
X8903500Y8205400D01*
X8892526Y8311166D01*
X8890346Y8317699D01*
X8890344Y8317710D01*
X8874358Y8365623D01*
X8871772Y8436573D01*
X8907956Y8497657D01*
X8971420Y8529482D01*
X8993881Y8531500D01*
X10108602Y8531500D01*
X10142785Y8524115D01*
X10144423Y8524000D01*
X13081878Y8524000D01*
X13095409Y8527973D01*
X13096544Y8535871D01*
X13055893Y8675790D01*
X13049648Y8690221D01*
X12973089Y8819677D01*
X12967129Y8827360D01*
X12941180Y8893444D01*
X12955078Y8963067D01*
X12965421Y8979161D01*
X12969453Y8983193D01*
X13054145Y9126399D01*
X13100562Y9286169D01*
X13102048Y9305039D01*
X13103307Y9321042D01*
X13103307Y9321050D01*
X13103500Y9323498D01*
X13103500Y9756502D01*
X13103306Y9758973D01*
X13101067Y9787421D01*
X13101066Y9787426D01*
X13100562Y9793831D01*
X13054145Y9953601D01*
X12969453Y10096807D01*
X12966771Y10099489D01*
X12941498Y10163861D01*
X12943722Y10175000D01*
X13820819Y10175000D01*
X13866877Y10016465D01*
X13868513Y10010245D01*
X13881306Y9956021D01*
X13882622Y9949727D01*
X13887237Y9924460D01*
X13888231Y9918106D01*
X13895434Y9862843D01*
X13896103Y9856444D01*
X13899041Y9819115D01*
X13899211Y9816643D01*
X13900474Y9795215D01*
X13900595Y9792742D01*
X13900983Y9782856D01*
X13901056Y9780386D01*
X13901476Y9758973D01*
X13901500Y9756502D01*
X13901500Y9630696D01*
X14140112Y9869308D01*
X13823881Y10185539D01*
X13820819Y10175000D01*
X12943722Y10175000D01*
X12955400Y10233484D01*
X12965572Y10249312D01*
X12969453Y10253193D01*
X13054145Y10396399D01*
X13100562Y10556169D01*
X13103500Y10593498D01*
X13103500Y11026502D01*
X13100562Y11063831D01*
X13054145Y11223601D01*
X12981630Y11346217D01*
X12973491Y11359980D01*
X12973489Y11359983D01*
X12969453Y11366807D01*
X12851807Y11484453D01*
X12844983Y11488489D01*
X12844980Y11488491D01*
X12715427Y11565108D01*
X12715428Y11565108D01*
X12708601Y11569145D01*
X12700990Y11571356D01*
X12700988Y11571357D01*
X12648769Y11586528D01*
X12548831Y11615562D01*
X12542426Y11616066D01*
X12542421Y11616067D01*
X12513958Y11618307D01*
X12513950Y11618307D01*
X12511502Y11618500D01*
X10728498Y11618500D01*
X10726050Y11618307D01*
X10726042Y11618307D01*
X10697579Y11616067D01*
X10697574Y11616066D01*
X10691169Y11615562D01*
X10591231Y11586528D01*
X10539012Y11571357D01*
X10539010Y11571356D01*
X10531399Y11569145D01*
X10524572Y11565108D01*
X10524573Y11565108D01*
X10395020Y11488491D01*
X10395017Y11488489D01*
X10388193Y11484453D01*
X10270547Y11366807D01*
X10266511Y11359983D01*
X10266509Y11359980D01*
X10258370Y11346217D01*
X10185855Y11223601D01*
X10139438Y11063831D01*
X10136500Y11026502D01*
X10136500Y10674500D01*
X10116498Y10606379D01*
X10062842Y10559886D01*
X10010500Y10548500D01*
X9229924Y10548500D01*
X9161803Y10568502D01*
X9140829Y10585405D01*
X8940405Y10785829D01*
X8906379Y10848141D01*
X8903500Y10874924D01*
X8903500Y11805400D01*
X8900337Y11835883D01*
X8893238Y11904308D01*
X8893237Y11904312D01*
X8892526Y11911166D01*
X8875306Y11962782D01*
X8838868Y12071998D01*
X8836550Y12078946D01*
X8743478Y12229348D01*
X8618303Y12354305D01*
X8588617Y12372604D01*
X8473968Y12443275D01*
X8473966Y12443276D01*
X8467738Y12447115D01*
X8338018Y12490141D01*
X8306389Y12500632D01*
X8306387Y12500632D01*
X8299861Y12502797D01*
X8293025Y12503497D01*
X8293022Y12503498D01*
X8249969Y12507909D01*
X8195400Y12513500D01*
X6994600Y12513500D01*
X6991354Y12513163D01*
X6991350Y12513163D01*
X6895692Y12503238D01*
X6895688Y12503237D01*
X6888834Y12502526D01*
X6882298Y12500345D01*
X6882296Y12500345D01*
X6750194Y12456272D01*
X6721054Y12446550D01*
X6570652Y12353478D01*
X6445695Y12228303D01*
X6441855Y12222073D01*
X6441854Y12222072D01*
X6413774Y12176517D01*
X6352885Y12077738D01*
X6347915Y12062754D01*
X6299959Y11918169D01*
X6297203Y11909861D01*
X6296503Y11903025D01*
X6296502Y11903022D01*
X6294748Y11885901D01*
X6286500Y11805400D01*
X6286500Y9604600D01*
X6286837Y9601354D01*
X6286837Y9601350D01*
X6295572Y9517169D01*
X6297474Y9498834D01*
X6353450Y9331054D01*
X6446522Y9180652D01*
X6571697Y9055695D01*
X6642171Y9012254D01*
X6689663Y8959483D01*
X6701087Y8889411D01*
X6672813Y8824288D01*
X6642359Y8797852D01*
X6570652Y8753478D01*
X6445695Y8628303D01*
X6441855Y8622073D01*
X6441854Y8622072D01*
X6356765Y8484032D01*
X6352885Y8477738D01*
X6297203Y8309861D01*
X6286500Y8205400D01*
X6286500Y6004600D01*
X4759971Y6004600D01*
X4947724Y6192353D01*
X4592756Y6547322D01*
X4237788Y6192354D01*
X3106776Y6192354D01*
X3107631Y6988738D01*
X3905631Y6988738D01*
X4028485Y7111593D01*
X5157027Y7111593D01*
X5488500Y6780120D01*
X5488500Y7443066D01*
X5157027Y7111593D01*
X4028485Y7111593D01*
X3905894Y7234184D01*
X3905631Y6988738D01*
X3107631Y6988738D01*
X3108749Y8030831D01*
X4237788Y8030831D01*
X4592756Y7675863D01*
X4947724Y8030832D01*
X4592757Y8385799D01*
X4237788Y8030831D01*
X3108749Y8030831D01*
X3109606Y8829190D01*
X3907606Y8829190D01*
X4028486Y8950070D01*
X5157026Y8950070D01*
X5511994Y8595102D01*
X5570451Y8653559D01*
X5595462Y8728964D01*
X5597963Y8735832D01*
X5621353Y8794685D01*
X5624250Y8801398D01*
X5636583Y8827847D01*
X5639864Y8834382D01*
X5669919Y8890141D01*
X5673573Y8896473D01*
X5678747Y8904867D01*
X5674870Y8911133D01*
X5671205Y8917459D01*
X5641061Y8973150D01*
X5637769Y8979676D01*
X5625389Y9006103D01*
X5622480Y9012814D01*
X5598981Y9071640D01*
X5596467Y9078505D01*
X5540491Y9246285D01*
X5538491Y9252875D01*
X5528808Y9288226D01*
X5511995Y9305039D01*
X5157026Y8950070D01*
X4028486Y8950070D01*
X3907865Y9070691D01*
X3907606Y8829190D01*
X3109606Y8829190D01*
X3110722Y9869309D01*
X4237788Y9869309D01*
X4592757Y9514341D01*
X4947724Y9869308D01*
X4592756Y10224277D01*
X4237788Y9869309D01*
X3110722Y9869309D01*
X3111581Y10669643D01*
X3909581Y10669643D01*
X4028485Y10788547D01*
X5157027Y10788547D01*
X5488500Y10457074D01*
X5488500Y11120020D01*
X5157027Y10788547D01*
X4028485Y10788547D01*
X3909835Y10907197D01*
X3909581Y10669643D01*
X3111581Y10669643D01*
X3112694Y11707786D01*
X4237788Y11707786D01*
X4592756Y11352818D01*
X4947724Y11707787D01*
X4592757Y12062754D01*
X4237788Y11707786D01*
X3112694Y11707786D01*
X3113555Y12510096D01*
X3911555Y12510096D01*
X4028485Y12627026D01*
X5157027Y12627026D01*
X5511995Y12272057D01*
X5612602Y12372664D01*
X5621354Y12394685D01*
X5624250Y12401398D01*
X5636583Y12427847D01*
X5639864Y12434382D01*
X5669919Y12490141D01*
X5673573Y12496473D01*
X5766383Y12647038D01*
X5770398Y12653148D01*
X5799392Y12694595D01*
X5678916Y12815071D01*
X9286262Y12815071D01*
X9307258Y12794111D01*
X9312281Y12788797D01*
X9354439Y12741520D01*
X9359145Y12735924D01*
X9377271Y12713054D01*
X9381643Y12707196D01*
X9418033Y12655370D01*
X9422058Y12649268D01*
X9477144Y12560250D01*
X9543919Y12627025D01*
X9543918Y12627026D01*
X10672460Y12627026D01*
X10882986Y12416500D01*
X11171871Y12416500D01*
X11382396Y12627025D01*
X12510937Y12627025D01*
X12751116Y12386846D01*
X12765244Y12383513D01*
X12771465Y12381877D01*
X12929741Y12335894D01*
X13089753Y12495905D01*
X13089421Y12502233D01*
X13089291Y12505527D01*
X13088543Y12534092D01*
X13088500Y12537390D01*
X13088500Y12540329D01*
X13085842Y12591046D01*
X13085669Y12597640D01*
X13085669Y12654779D01*
X13085842Y12661371D01*
X13087220Y12687676D01*
X13087737Y12694253D01*
X13088500Y12701513D01*
X13088500Y12759399D01*
X12865906Y12981993D01*
X12510937Y12627025D01*
X11382396Y12627025D01*
X11027427Y12981993D01*
X10672460Y12627026D01*
X9543918Y12627026D01*
X9320491Y12850453D01*
X9314082Y12843240D01*
X9309068Y12837917D01*
X9286262Y12815071D01*
X5678916Y12815071D01*
X5511994Y12981993D01*
X5157027Y12627026D01*
X4028485Y12627026D01*
X3911806Y12743705D01*
X3911555Y12510096D01*
X3113555Y12510096D01*
X3114667Y13546264D01*
X4237788Y13546264D01*
X4592756Y13191296D01*
X4947724Y13546265D01*
X4669389Y13824600D01*
X6286500Y13824600D01*
X6286837Y13821354D01*
X6286837Y13821350D01*
X6288706Y13803343D01*
X6297474Y13718834D01*
X6299655Y13712298D01*
X6299655Y13712296D01*
X6307524Y13688710D01*
X6353450Y13551054D01*
X6446522Y13400652D01*
X6571697Y13275695D01*
X6577927Y13271855D01*
X6577928Y13271854D01*
X6715090Y13187306D01*
X6722262Y13182885D01*
X6740005Y13177000D01*
X6883611Y13129368D01*
X6883613Y13129368D01*
X6890139Y13127203D01*
X6896975Y13126503D01*
X6896978Y13126502D01*
X6940031Y13122091D01*
X6994600Y13116500D01*
X8195400Y13116500D01*
X8198646Y13116837D01*
X8198650Y13116837D01*
X8294308Y13126762D01*
X8294312Y13126763D01*
X8301166Y13127474D01*
X8307702Y13129655D01*
X8307704Y13129655D01*
X8449613Y13177000D01*
X8468946Y13183450D01*
X8619348Y13276522D01*
X8643169Y13300385D01*
X11837578Y13300385D01*
X11946667Y13191296D01*
X12301635Y13546264D01*
X12261740Y13586158D01*
X12239344Y13567892D01*
X12218542Y13550313D01*
X12215820Y13548077D01*
X12179431Y13519028D01*
X12110160Y13462532D01*
X12105296Y13458760D01*
X12062359Y13427103D01*
X12057315Y13423570D01*
X12048009Y13417387D01*
X12047645Y13417274D01*
X12046573Y13416501D01*
X12041500Y13413028D01*
X12039186Y13411525D01*
X12036848Y13409972D01*
X12031634Y13406690D01*
X12030598Y13406073D01*
X12030255Y13405726D01*
X12020892Y13399646D01*
X12015651Y13396422D01*
X11969566Y13369600D01*
X11964172Y13366635D01*
X11884748Y13325464D01*
X11837578Y13300385D01*
X8643169Y13300385D01*
X8744305Y13401697D01*
X8751290Y13413028D01*
X8833275Y13546032D01*
X8833276Y13546034D01*
X8837115Y13552262D01*
X8892797Y13720139D01*
X8901322Y13803343D01*
X8928163Y13869070D01*
X8986278Y13909852D01*
X9026666Y13916500D01*
X10983157Y13916500D01*
X10996764Y13915763D01*
X11028262Y13912341D01*
X11028267Y13912341D01*
X11034388Y13911676D01*
X11060638Y13913973D01*
X11084388Y13916050D01*
X11089214Y13916379D01*
X11091686Y13916500D01*
X11094769Y13916500D01*
X11106738Y13917674D01*
X11137506Y13920690D01*
X11138819Y13920812D01*
X11183084Y13924685D01*
X11231413Y13928913D01*
X11236532Y13930400D01*
X11241833Y13930920D01*
X11330834Y13957791D01*
X11331967Y13958126D01*
X11415414Y13982370D01*
X11415418Y13982372D01*
X11421336Y13984091D01*
X11426068Y13986544D01*
X11431169Y13988084D01*
X11457594Y14002134D01*
X11513260Y14031731D01*
X11514426Y14032343D01*
X11591453Y14072271D01*
X11596926Y14075108D01*
X11601089Y14078431D01*
X11605796Y14080934D01*
X11677918Y14139755D01*
X11678774Y14140446D01*
X11717973Y14171738D01*
X11720477Y14174242D01*
X11721195Y14174884D01*
X11725528Y14178585D01*
X11759062Y14205935D01*
X11788288Y14241264D01*
X11796279Y14250045D01*
X12200829Y14654595D01*
X12263141Y14688621D01*
X12289924Y14691500D01*
X12511502Y14691500D01*
X12513950Y14691693D01*
X12513958Y14691693D01*
X12542421Y14693933D01*
X12542426Y14693934D01*
X12548831Y14694438D01*
X12648769Y14723472D01*
X12700988Y14738643D01*
X12700990Y14738644D01*
X12708601Y14740855D01*
X12805781Y14798327D01*
X12844980Y14821509D01*
X12844983Y14821511D01*
X12851807Y14825547D01*
X12969453Y14943193D01*
X12973489Y14950017D01*
X12973491Y14950020D01*
X13050108Y15079573D01*
X13054145Y15086399D01*
X13100562Y15246169D01*
X13103500Y15283498D01*
X13103500Y15716502D01*
X13103307Y15718958D01*
X13101067Y15747421D01*
X13101066Y15747426D01*
X13100562Y15753831D01*
X13071528Y15853769D01*
X13056357Y15905988D01*
X13056356Y15905990D01*
X13054145Y15913601D01*
X12969453Y16056807D01*
X12966513Y16059747D01*
X12941180Y16124266D01*
X12955079Y16193889D01*
X12967126Y16212636D01*
X12973090Y16220324D01*
X13049648Y16349779D01*
X13055893Y16364210D01*
X13094939Y16498605D01*
X13094899Y16512706D01*
X13087630Y16516000D01*
X10158122Y16516000D01*
X10144591Y16512027D01*
X10143456Y16504129D01*
X10184107Y16364210D01*
X10190352Y16349779D01*
X10266911Y16220323D01*
X10272871Y16212640D01*
X10298820Y16146556D01*
X10284922Y16076933D01*
X10274580Y16060840D01*
X10270547Y16056807D01*
X10266511Y16049983D01*
X10266509Y16049980D01*
X10234207Y15995360D01*
X10182314Y15946908D01*
X10125754Y15933500D01*
X9026638Y15933500D01*
X8958517Y15953502D01*
X8912024Y16007158D01*
X8901311Y16046497D01*
X8901007Y16049432D01*
X8895061Y16106737D01*
X8893238Y16124307D01*
X8893237Y16124310D01*
X8892526Y16131166D01*
X8887392Y16146556D01*
X8838868Y16291998D01*
X8836550Y16298946D01*
X8743478Y16449348D01*
X8618303Y16574305D01*
X8547829Y16617746D01*
X8500337Y16670517D01*
X8488913Y16740589D01*
X8517187Y16805712D01*
X8547642Y16832149D01*
X8619348Y16876522D01*
X8631601Y16888796D01*
X8737139Y16994518D01*
X8799422Y17028597D01*
X8826312Y17031500D01*
X10108602Y17031500D01*
X10142785Y17024115D01*
X10144423Y17024000D01*
X13081878Y17024000D01*
X13095409Y17027973D01*
X13096544Y17035871D01*
X13055893Y17175790D01*
X13049648Y17190221D01*
X12973089Y17319677D01*
X12967129Y17327360D01*
X12941180Y17393444D01*
X12955078Y17463067D01*
X12965421Y17479161D01*
X12969453Y17483193D01*
X13054145Y17626399D01*
X13100562Y17786169D01*
X13102516Y17810986D01*
X13103307Y17821042D01*
X13103307Y17821050D01*
X13103500Y17823498D01*
X13103500Y18256502D01*
X13103307Y18258958D01*
X13101067Y18287421D01*
X13101066Y18287426D01*
X13100562Y18293831D01*
X13058977Y18436968D01*
X13056357Y18445988D01*
X13056356Y18445990D01*
X13054145Y18453601D01*
X12969453Y18596807D01*
X12966771Y18599489D01*
X12941498Y18663861D01*
X12955400Y18733484D01*
X12965572Y18749312D01*
X12969453Y18753193D01*
X13054145Y18896399D01*
X13057178Y18906837D01*
X13078295Y18979526D01*
X13100562Y19056169D01*
X13103500Y19093498D01*
X13103500Y19526502D01*
X13100562Y19563831D01*
X13059210Y19706166D01*
X13056357Y19715988D01*
X13056356Y19715990D01*
X13054145Y19723601D01*
X12998311Y19818011D01*
X12973491Y19859980D01*
X12973489Y19859983D01*
X12969453Y19866807D01*
X12851807Y19984453D01*
X12844983Y19988489D01*
X12844980Y19988491D01*
X12715427Y20065108D01*
X12715428Y20065108D01*
X12708601Y20069145D01*
X12700990Y20071356D01*
X12700988Y20071357D01*
X12637736Y20089733D01*
X12548831Y20115562D01*
X12542426Y20116066D01*
X12542421Y20116067D01*
X12513958Y20118307D01*
X12513950Y20118307D01*
X12511502Y20118500D01*
X10728498Y20118500D01*
X10726050Y20118307D01*
X10726042Y20118307D01*
X10697579Y20116067D01*
X10697574Y20116066D01*
X10691169Y20115562D01*
X10602264Y20089733D01*
X10539012Y20071357D01*
X10539010Y20071356D01*
X10531399Y20069145D01*
X10524572Y20065108D01*
X10524573Y20065108D01*
X10395020Y19988491D01*
X10395017Y19988489D01*
X10388193Y19984453D01*
X10270547Y19866807D01*
X10266511Y19859983D01*
X10266509Y19859980D01*
X10241689Y19818011D01*
X10185855Y19723601D01*
X10183644Y19715990D01*
X10183643Y19715988D01*
X10180790Y19706166D01*
X10139438Y19563831D01*
X10136500Y19526502D01*
X10136500Y19174500D01*
X10116498Y19106379D01*
X10062842Y19059886D01*
X10010500Y19048500D01*
X9029500Y19048500D01*
X8961379Y19068502D01*
X8914886Y19122158D01*
X8903500Y19174500D01*
X8903500Y19625400D01*
X8903163Y19628650D01*
X8893238Y19724308D01*
X8893237Y19724312D01*
X8892526Y19731166D01*
X8836550Y19898946D01*
X8743478Y20049348D01*
X8618303Y20174305D01*
X8606819Y20181384D01*
X8473968Y20263275D01*
X8473966Y20263276D01*
X8467738Y20267115D01*
X8307254Y20320345D01*
X8306389Y20320632D01*
X8306387Y20320632D01*
X8299861Y20322797D01*
X8293025Y20323497D01*
X8293022Y20323498D01*
X8249969Y20327909D01*
X8195400Y20333500D01*
X6994600Y20333500D01*
X6991354Y20333163D01*
X6991350Y20333163D01*
X6895692Y20323238D01*
X6895688Y20323237D01*
X6888834Y20322526D01*
X6882298Y20320345D01*
X6882296Y20320345D01*
X6792595Y20290418D01*
X6721054Y20266550D01*
X6570652Y20173478D01*
X6565479Y20168296D01*
X6546521Y20149305D01*
X6445695Y20048303D01*
X6441855Y20042073D01*
X6441854Y20042072D01*
X6396949Y19969222D01*
X6352885Y19897738D01*
X6297203Y19729861D01*
X6296503Y19723025D01*
X6296502Y19723022D01*
X6290381Y19663275D01*
X6286500Y19625400D01*
X6286500Y17424600D01*
X6286837Y17421354D01*
X6286837Y17421350D01*
X6296647Y17326807D01*
X6297474Y17318834D01*
X6299655Y17312298D01*
X6299655Y17312296D01*
X6319238Y17253599D01*
X6353450Y17151054D01*
X6446522Y17000652D01*
X6571697Y16875695D01*
X6642171Y16832254D01*
X6689663Y16779483D01*
X6701087Y16709411D01*
X6672813Y16644288D01*
X6642359Y16617852D01*
X6570652Y16573478D01*
X6565479Y16568296D01*
X6546180Y16548963D01*
X6445695Y16448303D01*
X6441855Y16442073D01*
X6441854Y16442072D01*
X6356733Y16303980D01*
X6352885Y16297738D01*
X6297203Y16129861D01*
X6296503Y16123025D01*
X6296502Y16123022D01*
X6288662Y16046497D01*
X6286500Y16025400D01*
X6286500Y13824600D01*
X4669389Y13824600D01*
X4592757Y13901232D01*
X4237788Y13546264D01*
X3114667Y13546264D01*
X3115530Y14350547D01*
X3913530Y14350547D01*
X4028485Y14465502D01*
X5157027Y14465502D01*
X5488500Y14134029D01*
X5488500Y14796975D01*
X5157027Y14465502D01*
X4028485Y14465502D01*
X3913776Y14580211D01*
X3913530Y14350547D01*
X3115530Y14350547D01*
X3116639Y15384742D01*
X4237788Y15384742D01*
X4592757Y15029774D01*
X4947724Y15384741D01*
X4592756Y15739710D01*
X4237788Y15384742D01*
X3116639Y15384742D01*
X3117504Y16191000D01*
X3915505Y16191000D01*
X4028485Y16303980D01*
X5157027Y16303980D01*
X5488500Y15972507D01*
X5488500Y16025400D01*
X5488541Y16028615D01*
X5489252Y16056468D01*
X5489375Y16059681D01*
X5490031Y16072524D01*
X5490236Y16075736D01*
X5492369Y16103534D01*
X5492656Y16106737D01*
X5503359Y16211198D01*
X5504246Y16218011D01*
X5513534Y16276820D01*
X5514791Y16283578D01*
X5520542Y16310402D01*
X5522165Y16317078D01*
X5537796Y16374509D01*
X5539780Y16381086D01*
X5595462Y16548963D01*
X5597963Y16555832D01*
X5602840Y16568104D01*
X5511995Y16658949D01*
X5157027Y16303980D01*
X4028485Y16303980D01*
X3915746Y16416719D01*
X3915505Y16191000D01*
X3117504Y16191000D01*
X3118612Y17223219D01*
X4237788Y17223219D01*
X4592756Y16868251D01*
X4947724Y17223220D01*
X4592757Y17578187D01*
X4237788Y17223219D01*
X3118612Y17223219D01*
X3119479Y18031452D01*
X3917479Y18031452D01*
X4028485Y18142459D01*
X5157027Y18142459D01*
X5488500Y17810986D01*
X5488500Y18473932D01*
X5157027Y18142459D01*
X4028485Y18142459D01*
X3917717Y18253227D01*
X3917479Y18031452D01*
X3119479Y18031452D01*
X3120584Y19061697D01*
X4237788Y19061697D01*
X4592757Y18706729D01*
X4947724Y19061696D01*
X4592756Y19416665D01*
X4237788Y19061697D01*
X3120584Y19061697D01*
X3121453Y19871904D01*
X3919454Y19871904D01*
X4028485Y19980935D01*
X5157027Y19980935D01*
X5489059Y19648903D01*
X5489252Y19656468D01*
X5489375Y19659681D01*
X5490031Y19672524D01*
X5490236Y19675736D01*
X5492369Y19703534D01*
X5492656Y19706737D01*
X5503359Y19811198D01*
X5504246Y19818011D01*
X5513534Y19876820D01*
X5514791Y19883578D01*
X5520542Y19910402D01*
X5522165Y19917078D01*
X5537796Y19974509D01*
X5539780Y19981086D01*
X5595462Y20148963D01*
X5597963Y20155832D01*
X5621353Y20214685D01*
X5624250Y20221398D01*
X5624966Y20222933D01*
X5511995Y20335904D01*
X5157027Y19980935D01*
X4028485Y19980935D01*
X3919687Y20089733D01*
X3919454Y19871904D01*
X3121453Y19871904D01*
X3122556Y20900175D01*
X4237788Y20900175D01*
X4592757Y20545207D01*
X4947724Y20900174D01*
X6076266Y20900174D01*
X6135099Y20841341D01*
X6144630Y20848033D01*
X6150732Y20852058D01*
X6228486Y20900174D01*
X9753221Y20900174D01*
X9982036Y20671359D01*
X10125184Y20756016D01*
X10132119Y20759829D01*
X10193204Y20790954D01*
X10200365Y20794324D01*
X10229351Y20806868D01*
X10236712Y20809782D01*
X10301236Y20833013D01*
X10308765Y20835460D01*
X10435164Y20872182D01*
X10463157Y20900175D01*
X13430176Y20900175D01*
X13785145Y20545207D01*
X14140112Y20900174D01*
X14095052Y20945234D01*
X15313713Y20945234D01*
X15319490Y20946782D01*
X15367819Y20962485D01*
X15374144Y20964359D01*
X15429348Y20979151D01*
X15435763Y20980691D01*
X15461531Y20986168D01*
X15468018Y20987370D01*
X15492745Y20991286D01*
X15517211Y20996487D01*
X15523699Y20997690D01*
X15549718Y21001811D01*
X15556258Y21002672D01*
X15613094Y21008646D01*
X15619669Y21009163D01*
X15670397Y21011822D01*
X15673329Y21012130D01*
X15676606Y21012431D01*
X15705109Y21014674D01*
X15708402Y21014889D01*
X15721573Y21015579D01*
X15724867Y21015709D01*
X15753432Y21016457D01*
X15756730Y21016500D01*
X15759668Y21016500D01*
X17223456Y21016500D01*
X17700742Y21016500D01*
X19061934Y21016500D01*
X19539220Y21016500D01*
X20900412Y21016500D01*
X21377698Y21016500D01*
X21139055Y21255143D01*
X20900412Y21016500D01*
X19539220Y21016500D01*
X19300577Y21255143D01*
X19061934Y21016500D01*
X17700742Y21016500D01*
X17462099Y21255143D01*
X17223456Y21016500D01*
X15759668Y21016500D01*
X15810385Y21019158D01*
X15816979Y21019331D01*
X15859434Y21019331D01*
X15623622Y21255143D01*
X15313713Y20945234D01*
X14095052Y20945234D01*
X13785144Y21255143D01*
X13430176Y20900175D01*
X10463157Y20900175D01*
X10446832Y20916500D01*
X11608024Y20916500D01*
X12285310Y20916500D01*
X11946667Y21255143D01*
X11608024Y20916500D01*
X10446832Y20916500D01*
X10108189Y21255143D01*
X9753221Y20900174D01*
X6228486Y20900174D01*
X6301134Y20945130D01*
X6307459Y20948795D01*
X6363150Y20978939D01*
X6369676Y20982231D01*
X6396103Y20994611D01*
X6402814Y20997520D01*
X6461640Y21021019D01*
X6468505Y21023533D01*
X6614227Y21072150D01*
X6554877Y21131500D01*
X8146068Y21131500D01*
X8195400Y21131500D01*
X8198615Y21131459D01*
X8226468Y21130748D01*
X8229681Y21130625D01*
X8242524Y21129969D01*
X8245736Y21129764D01*
X8273534Y21127631D01*
X8276737Y21127344D01*
X8381198Y21116641D01*
X8388011Y21115754D01*
X8413055Y21111799D01*
X8269711Y21255143D01*
X8146068Y21131500D01*
X6554877Y21131500D01*
X6431234Y21255143D01*
X6076266Y20900174D01*
X4947724Y20900174D01*
X4592756Y21255143D01*
X4237788Y20900175D01*
X3122556Y20900175D01*
X3123005Y21318323D01*
X3124505Y21337569D01*
X3126866Y21352738D01*
X3128248Y21361615D01*
X3126253Y21376871D01*
X3125510Y21402195D01*
X3126694Y21418741D01*
X3137594Y21571158D01*
X3140152Y21588953D01*
X3157742Y21669814D01*
X3181556Y21779283D01*
X3186620Y21796531D01*
X3195155Y21819414D01*
X5157027Y21819414D01*
X5511995Y21464445D01*
X5866963Y21819413D01*
X6995504Y21819413D01*
X7350472Y21464445D01*
X7705439Y21819413D01*
X8833982Y21819413D01*
X9188950Y21464445D01*
X9543918Y21819414D01*
X10672460Y21819414D01*
X11027428Y21464445D01*
X11382396Y21819413D01*
X12510937Y21819413D01*
X12865905Y21464445D01*
X13220872Y21819413D01*
X14349415Y21819413D01*
X14704383Y21464445D01*
X15059351Y21819414D01*
X16187893Y21819414D01*
X16542861Y21464445D01*
X16897829Y21819413D01*
X18026370Y21819413D01*
X18381338Y21464445D01*
X18736306Y21819414D01*
X19864848Y21819414D01*
X20219816Y21464445D01*
X20574784Y21819413D01*
X20574783Y21819414D01*
X21703326Y21819414D01*
X21963388Y21559352D01*
X21971238Y21574759D01*
X21974384Y21580554D01*
X21999775Y21624534D01*
X22022847Y21669814D01*
X22025996Y21675612D01*
X22054575Y21725111D01*
X22058021Y21730735D01*
X22072368Y21752827D01*
X22076103Y21758262D01*
X22090814Y21778510D01*
X22104443Y21799497D01*
X22108180Y21804934D01*
X22123664Y21826246D01*
X22127679Y21831479D01*
X22163645Y21875894D01*
X22167929Y21880909D01*
X22201922Y21918663D01*
X22203772Y21920947D01*
X22205878Y21923479D01*
X22224465Y21945240D01*
X22226642Y21947722D01*
X22235468Y21957523D01*
X22237706Y21959944D01*
X22254761Y21977915D01*
X22058294Y22174382D01*
X21703326Y21819414D01*
X20574783Y21819414D01*
X20219815Y22174381D01*
X19864848Y21819414D01*
X18736306Y21819414D01*
X18381339Y22174381D01*
X18026370Y21819413D01*
X16897829Y21819413D01*
X16560498Y22156744D01*
X16509256Y22140777D01*
X16187893Y21819414D01*
X15059351Y21819414D01*
X14862820Y22015945D01*
X14547345Y22017343D01*
X14349415Y21819413D01*
X13220872Y21819413D01*
X13220873Y21819414D01*
X13016156Y22024131D01*
X12716981Y22025457D01*
X12510937Y21819413D01*
X11382396Y21819413D01*
X11169492Y22032317D01*
X10886617Y22033571D01*
X10672460Y21819414D01*
X9543918Y21819414D01*
X9322829Y22040503D01*
X9056254Y22041685D01*
X8833982Y21819413D01*
X7705439Y21819413D01*
X7705440Y21819414D01*
X7476165Y22048689D01*
X7225890Y22049799D01*
X6995504Y21819413D01*
X5866963Y21819413D01*
X5629501Y22056875D01*
X5395525Y22057912D01*
X5157027Y21819414D01*
X3195155Y21819414D01*
X3216221Y21875894D01*
X3254692Y21979038D01*
X3262159Y21995386D01*
X3273386Y22015945D01*
X3355504Y22166331D01*
X3365222Y22181454D01*
X3481953Y22337386D01*
X3493727Y22350972D01*
X3631455Y22488697D01*
X3645041Y22500470D01*
X3655956Y22508641D01*
X17337142Y22508641D01*
X17462099Y22383684D01*
X17817066Y22738652D01*
X18945609Y22738652D01*
X19300577Y22383684D01*
X19655545Y22738653D01*
X20784087Y22738653D01*
X21139055Y22383684D01*
X21494023Y22738652D01*
X21139054Y23093620D01*
X20784087Y22738653D01*
X19655545Y22738653D01*
X19300578Y23093620D01*
X18945609Y22738652D01*
X17817066Y22738652D01*
X17817067Y22738653D01*
X17749217Y22806503D01*
X17514745Y22622804D01*
X17511712Y22620501D01*
X17485138Y22600948D01*
X17482038Y22598739D01*
X17469516Y22590096D01*
X17466353Y22587982D01*
X17438664Y22570080D01*
X17435438Y22568063D01*
X17337142Y22508641D01*
X3655956Y22508641D01*
X3800970Y22617194D01*
X3816095Y22626914D01*
X3987053Y22720260D01*
X4003394Y22727722D01*
X4185904Y22795790D01*
X4203150Y22800854D01*
X4393481Y22842253D01*
X4411271Y22844811D01*
X4573340Y22856397D01*
X4590420Y22855687D01*
X4590420Y22855688D01*
X4599396Y22855578D01*
X4608266Y22854197D01*
X4617170Y22855361D01*
X4617171Y22855361D01*
X4638433Y22858140D01*
X4655323Y22859202D01*
X15540910Y22810948D01*
X15561253Y22809203D01*
X15577648Y22806445D01*
X15577655Y22806444D01*
X15582448Y22805638D01*
X15588801Y22805561D01*
X15590142Y22805544D01*
X15590145Y22805544D01*
X15595000Y22805485D01*
X15599805Y22806173D01*
X15602425Y22806344D01*
X15607769Y22806888D01*
X15688406Y22811765D01*
X15894123Y22824208D01*
X15894128Y22824209D01*
X15897920Y22824438D01*
X16060309Y22854197D01*
X16192671Y22878453D01*
X16192678Y22878455D01*
X16196423Y22879141D01*
X16486156Y22969426D01*
X16762894Y23093976D01*
X16766151Y23095945D01*
X16766155Y23095947D01*
X16955020Y23210121D01*
X17022601Y23250975D01*
X17038588Y23263500D01*
X17207407Y23395762D01*
X18288499Y23395762D01*
X18381338Y23302923D01*
X18736306Y23657892D01*
X19864848Y23657892D01*
X20219816Y23302923D01*
X20574784Y23657891D01*
X20574783Y23657892D01*
X21703326Y23657892D01*
X22058294Y23302923D01*
X22413262Y23657891D01*
X27218758Y23657891D01*
X27573726Y23302923D01*
X27928693Y23657891D01*
X29057236Y23657891D01*
X29412204Y23302923D01*
X29767172Y23657892D01*
X29412205Y24012859D01*
X29057236Y23657891D01*
X27928693Y23657891D01*
X27928694Y23657892D01*
X27573727Y24012859D01*
X27218758Y23657891D01*
X22413262Y23657891D01*
X22058293Y24012859D01*
X21703326Y23657892D01*
X20574783Y23657892D01*
X20219815Y24012859D01*
X19864848Y23657892D01*
X18736306Y23657892D01*
X18554898Y23839300D01*
X18547930Y23823817D01*
X18546317Y23820373D01*
X18531881Y23790722D01*
X18530162Y23787323D01*
X18523091Y23773850D01*
X18521271Y23770505D01*
X18505067Y23741775D01*
X18503148Y23738490D01*
X18346151Y23478782D01*
X18344132Y23475554D01*
X18326212Y23447838D01*
X18324095Y23444670D01*
X18315451Y23432148D01*
X18313242Y23429049D01*
X18293707Y23402502D01*
X18291408Y23399475D01*
X18288499Y23395762D01*
X17207407Y23395762D01*
X17258495Y23435787D01*
X17258500Y23435792D01*
X17261490Y23438134D01*
X17476077Y23652723D01*
X17543271Y23738490D01*
X17660887Y23888616D01*
X17660893Y23888624D01*
X17663235Y23891614D01*
X17820232Y24151322D01*
X17944780Y24428060D01*
X17991231Y24577130D01*
X18945609Y24577130D01*
X19300578Y24222162D01*
X19655545Y24577129D01*
X20784087Y24577129D01*
X21139054Y24222162D01*
X21306004Y24389112D01*
X21269307Y24393488D01*
X21245290Y24398769D01*
X21058778Y24459370D01*
X21036244Y24469215D01*
X20865055Y24564889D01*
X20847442Y24577130D01*
X22622564Y24577130D01*
X22977533Y24222162D01*
X23332500Y24577129D01*
X24461042Y24577129D01*
X24816009Y24222162D01*
X25170977Y24577129D01*
X26299520Y24577129D01*
X26654487Y24222162D01*
X27009456Y24577130D01*
X28137997Y24577130D01*
X28492966Y24222162D01*
X28847933Y24577129D01*
X28492965Y24932098D01*
X28137997Y24577130D01*
X27009456Y24577130D01*
X26654488Y24932098D01*
X26299520Y24577129D01*
X25170977Y24577129D01*
X25170978Y24577130D01*
X24816010Y24932098D01*
X24461042Y24577129D01*
X23332500Y24577129D01*
X22977532Y24932098D01*
X22622564Y24577130D01*
X20847442Y24577130D01*
X20844862Y24578923D01*
X20812998Y24606041D01*
X20784087Y24577129D01*
X19655545Y24577129D01*
X19300577Y24932098D01*
X18945609Y24577130D01*
X17991231Y24577130D01*
X18035063Y24717794D01*
X18068449Y24899981D01*
X18089078Y25012552D01*
X18089079Y25012556D01*
X18089764Y25016297D01*
X18106219Y25288373D01*
X18107736Y25301671D01*
X18107769Y25301869D01*
X18107769Y25301870D01*
X18108576Y25306666D01*
X18108729Y25319218D01*
X18108039Y25324038D01*
X18104756Y25346966D01*
X18103484Y25364779D01*
X18103435Y25496368D01*
X19864848Y25496368D01*
X20219815Y25141401D01*
X20386168Y25307754D01*
X20386111Y25308064D01*
X20370299Y25496369D01*
X23541803Y25496369D01*
X23896772Y25141401D01*
X24251739Y25496368D01*
X25380281Y25496368D01*
X25735248Y25141401D01*
X26090217Y25496369D01*
X27218758Y25496369D01*
X27573727Y25141401D01*
X27928694Y25496368D01*
X27573726Y25851337D01*
X27218758Y25496369D01*
X26090217Y25496369D01*
X25735249Y25851337D01*
X25380281Y25496368D01*
X24251739Y25496368D01*
X23896771Y25851337D01*
X23541803Y25496369D01*
X20370299Y25496369D01*
X20369701Y25503487D01*
X20370044Y25528075D01*
X20387495Y25683658D01*
X20219816Y25851337D01*
X19864848Y25496368D01*
X18103435Y25496368D01*
X18103091Y26415607D01*
X18945609Y26415607D01*
X19300577Y26060639D01*
X19645145Y26405208D01*
X22632963Y26405208D01*
X22977532Y26060639D01*
X23310894Y26394001D01*
X23054000Y26394001D01*
X23040532Y26394723D01*
X22967681Y26402555D01*
X24474094Y26402555D01*
X24816010Y26060639D01*
X25170978Y26415607D01*
X25170977Y26415608D01*
X26299520Y26415608D01*
X26654488Y26060639D01*
X26987349Y26393500D01*
X26649600Y26393500D01*
X26646385Y26393541D01*
X26618532Y26394252D01*
X26615319Y26394375D01*
X26602476Y26395031D01*
X26599264Y26395236D01*
X26571466Y26397369D01*
X26568263Y26397656D01*
X26463802Y26408359D01*
X26456989Y26409246D01*
X26398180Y26418534D01*
X26391422Y26419791D01*
X26364598Y26425542D01*
X26357922Y26427165D01*
X26321099Y26437187D01*
X26299520Y26415608D01*
X25170977Y26415608D01*
X25019547Y26567038D01*
X24981637Y26546518D01*
X24975110Y26543225D01*
X24948683Y26530845D01*
X24941973Y26527937D01*
X24883145Y26504437D01*
X24876279Y26501922D01*
X24708610Y26445984D01*
X24702019Y26443984D01*
X24644472Y26428222D01*
X24637783Y26426585D01*
X24610910Y26420782D01*
X24604145Y26419513D01*
X24545245Y26410126D01*
X24538417Y26409229D01*
X24474094Y26402555D01*
X22967681Y26402555D01*
X22924474Y26407200D01*
X22911159Y26409357D01*
X22858817Y26420743D01*
X22852265Y26422354D01*
X22795897Y26437818D01*
X22794217Y26438514D01*
X22735323Y26421221D01*
X22717757Y26417399D01*
X22632963Y26405208D01*
X19645145Y26405208D01*
X19655545Y26415608D01*
X19300578Y26770575D01*
X18945609Y26415607D01*
X18103091Y26415607D01*
X18102404Y28254085D01*
X18945609Y28254085D01*
X19300577Y27899117D01*
X19304365Y27902905D01*
X20542001Y27902905D01*
X20542338Y27896386D01*
X20552257Y27800794D01*
X20555149Y27787400D01*
X20606588Y27633216D01*
X20612761Y27620038D01*
X20698063Y27482193D01*
X20707099Y27470792D01*
X20821829Y27356261D01*
X20833240Y27347249D01*
X20971243Y27262184D01*
X20984424Y27256037D01*
X21138710Y27204862D01*
X21152086Y27201995D01*
X21246438Y27192328D01*
X21252854Y27192000D01*
X22527885Y27192000D01*
X22543124Y27196475D01*
X22544329Y27197865D01*
X22546000Y27205548D01*
X22546000Y27210116D01*
X23054000Y27210116D01*
X23058475Y27194877D01*
X23059865Y27193672D01*
X23067548Y27192001D01*
X24347095Y27192001D01*
X24353614Y27192338D01*
X24449206Y27202257D01*
X24462600Y27205149D01*
X24616784Y27256588D01*
X24629962Y27262761D01*
X24767807Y27348063D01*
X24779208Y27357099D01*
X24893739Y27471829D01*
X24902751Y27483240D01*
X24987816Y27621243D01*
X24993963Y27634424D01*
X25045138Y27788710D01*
X25048005Y27802086D01*
X25057672Y27896438D01*
X25058000Y27902854D01*
X25058000Y28227885D01*
X25053525Y28243124D01*
X25052135Y28244329D01*
X25044452Y28246000D01*
X23072115Y28246000D01*
X23056876Y28241525D01*
X23055671Y28240135D01*
X23054000Y28232452D01*
X23054000Y27210116D01*
X22546000Y27210116D01*
X22546000Y28227885D01*
X22541525Y28243124D01*
X22540135Y28244329D01*
X22532452Y28246000D01*
X20560116Y28246000D01*
X20544877Y28241525D01*
X20543672Y28240135D01*
X20542001Y28232452D01*
X20542001Y27902905D01*
X19304365Y27902905D01*
X19655545Y28254086D01*
X19300578Y28609053D01*
X18945609Y28254085D01*
X18102404Y28254085D01*
X18102210Y28772115D01*
X20542000Y28772115D01*
X20546475Y28756876D01*
X20547865Y28755671D01*
X20555548Y28754000D01*
X22527885Y28754000D01*
X22543124Y28758475D01*
X22544329Y28759865D01*
X22546000Y28767548D01*
X22546000Y28772115D01*
X23054000Y28772115D01*
X23058475Y28756876D01*
X23059865Y28755671D01*
X23067548Y28754000D01*
X25039884Y28754000D01*
X25055123Y28758475D01*
X25056328Y28759865D01*
X25057999Y28767548D01*
X25057999Y29097095D01*
X25057662Y29103614D01*
X25047743Y29199206D01*
X25044851Y29212600D01*
X24993412Y29366784D01*
X24987239Y29379962D01*
X24901937Y29517807D01*
X24892901Y29529208D01*
X24778171Y29643739D01*
X24766760Y29652751D01*
X24628757Y29737816D01*
X24615576Y29743963D01*
X24461290Y29795138D01*
X24447914Y29798005D01*
X24353562Y29807672D01*
X24347145Y29808000D01*
X23072115Y29808000D01*
X23056876Y29803525D01*
X23055671Y29802135D01*
X23054000Y29794452D01*
X23054000Y28772115D01*
X22546000Y28772115D01*
X22546000Y29789884D01*
X22541525Y29805123D01*
X22540135Y29806328D01*
X22532452Y29807999D01*
X21252905Y29807999D01*
X21246386Y29807662D01*
X21150794Y29797743D01*
X21137400Y29794851D01*
X20983216Y29743412D01*
X20970038Y29737239D01*
X20832193Y29651937D01*
X20820792Y29642901D01*
X20706261Y29528171D01*
X20697249Y29516760D01*
X20612184Y29378757D01*
X20606037Y29365576D01*
X20554862Y29211290D01*
X20551995Y29197914D01*
X20542328Y29103562D01*
X20542000Y29097145D01*
X20542000Y28772115D01*
X18102210Y28772115D01*
X18101716Y30092563D01*
X18945609Y30092563D01*
X19300578Y29737595D01*
X19655545Y30092562D01*
X31814953Y30092562D01*
X32169920Y29737595D01*
X32524889Y30092563D01*
X32169921Y30447531D01*
X31814953Y30092562D01*
X19655545Y30092562D01*
X19300577Y30447531D01*
X18945609Y30092563D01*
X18101716Y30092563D01*
X18101372Y31011801D01*
X19864848Y31011801D01*
X20219815Y30656834D01*
X20574783Y31011801D01*
X21703326Y31011801D01*
X22058293Y30656834D01*
X22413262Y31011802D01*
X23541803Y31011802D01*
X23896772Y30656834D01*
X24251739Y31011801D01*
X25380281Y31011801D01*
X25735248Y30656834D01*
X26090217Y31011802D01*
X27218758Y31011802D01*
X27573727Y30656834D01*
X27928694Y31011801D01*
X27928693Y31011802D01*
X29057236Y31011802D01*
X29412205Y30656834D01*
X29767172Y31011801D01*
X30895714Y31011801D01*
X31250681Y30656834D01*
X31605650Y31011802D01*
X31250682Y31366770D01*
X30895714Y31011801D01*
X29767172Y31011801D01*
X29412204Y31366770D01*
X29057236Y31011802D01*
X27928693Y31011802D01*
X27573726Y31366770D01*
X27218758Y31011802D01*
X26090217Y31011802D01*
X25735249Y31366770D01*
X25380281Y31011801D01*
X24251739Y31011801D01*
X23896771Y31366770D01*
X23541803Y31011802D01*
X22413262Y31011802D01*
X22058294Y31366770D01*
X21703326Y31011801D01*
X20574783Y31011801D01*
X20574784Y31011802D01*
X20219816Y31366770D01*
X19864848Y31011801D01*
X18101372Y31011801D01*
X18101028Y31931040D01*
X18945609Y31931040D01*
X19300577Y31576072D01*
X19655545Y31931041D01*
X20784087Y31931041D01*
X21139055Y31576072D01*
X21494023Y31931040D01*
X22622564Y31931040D01*
X22977532Y31576072D01*
X23332500Y31931041D01*
X24461042Y31931041D01*
X24816010Y31576072D01*
X25170978Y31931040D01*
X25170977Y31931041D01*
X26299520Y31931041D01*
X26654488Y31576072D01*
X27009456Y31931040D01*
X28137997Y31931040D01*
X28492965Y31576072D01*
X28847933Y31931041D01*
X29976475Y31931041D01*
X30331443Y31576072D01*
X30686411Y31931040D01*
X30686410Y31931041D01*
X31814953Y31931041D01*
X32169921Y31576072D01*
X32524889Y31931040D01*
X32169920Y32286008D01*
X31814953Y31931041D01*
X30686410Y31931041D01*
X30331442Y32286008D01*
X29976475Y31931041D01*
X28847933Y31931041D01*
X28492966Y32286008D01*
X28137997Y31931040D01*
X27009456Y31931040D01*
X26654487Y32286008D01*
X26299520Y31931041D01*
X25170977Y31931041D01*
X24816009Y32286008D01*
X24461042Y31931041D01*
X23332500Y31931041D01*
X22977533Y32286008D01*
X22622564Y31931040D01*
X21494023Y31931040D01*
X21139054Y32286008D01*
X20784087Y31931041D01*
X19655545Y31931041D01*
X19300578Y32286008D01*
X18945609Y31931040D01*
X18101028Y31931040D01*
X18100684Y32850280D01*
X19864848Y32850280D01*
X20219816Y32495311D01*
X20574784Y32850279D01*
X20574783Y32850280D01*
X21703326Y32850280D01*
X22058294Y32495311D01*
X22413262Y32850279D01*
X23541803Y32850279D01*
X23896771Y32495311D01*
X24251739Y32850280D01*
X25380281Y32850280D01*
X25735249Y32495311D01*
X26090217Y32850279D01*
X27218758Y32850279D01*
X27573726Y32495311D01*
X27928693Y32850279D01*
X29057236Y32850279D01*
X29412204Y32495311D01*
X29767172Y32850280D01*
X30895714Y32850280D01*
X31250682Y32495311D01*
X31605650Y32850279D01*
X31250681Y33205247D01*
X30895714Y32850280D01*
X29767172Y32850280D01*
X29412205Y33205247D01*
X29057236Y32850279D01*
X27928693Y32850279D01*
X27928694Y32850280D01*
X27573727Y33205247D01*
X27218758Y32850279D01*
X26090217Y32850279D01*
X25735248Y33205247D01*
X25380281Y32850280D01*
X24251739Y32850280D01*
X23896772Y33205247D01*
X23541803Y32850279D01*
X22413262Y32850279D01*
X22058293Y33205247D01*
X21703326Y32850280D01*
X20574783Y32850280D01*
X20219815Y33205247D01*
X19864848Y32850280D01*
X18100684Y32850280D01*
X18100400Y33610110D01*
X18101900Y33629539D01*
X18104190Y33644252D01*
X18105572Y33653128D01*
X18103577Y33668385D01*
X18102834Y33693709D01*
X18108257Y33769518D01*
X18945610Y33769518D01*
X19300578Y33414550D01*
X19655546Y33769518D01*
X20784086Y33769518D01*
X21139054Y33414550D01*
X21494022Y33769518D01*
X22622565Y33769518D01*
X22977533Y33414550D01*
X23332501Y33769518D01*
X24461041Y33769518D01*
X24816009Y33414550D01*
X25170977Y33769518D01*
X26299519Y33769518D01*
X26654487Y33414550D01*
X27009455Y33769518D01*
X28137998Y33769518D01*
X28492966Y33414550D01*
X28847934Y33769518D01*
X29976474Y33769518D01*
X30331442Y33414550D01*
X30686410Y33769518D01*
X31814952Y33769518D01*
X32169920Y33414550D01*
X32524888Y33769518D01*
X32169920Y34124486D01*
X31814952Y33769518D01*
X30686410Y33769518D01*
X30331442Y34124486D01*
X29976474Y33769518D01*
X28847934Y33769518D01*
X28492966Y34124486D01*
X28137998Y33769518D01*
X27009455Y33769518D01*
X26654487Y34124486D01*
X26299519Y33769518D01*
X25170977Y33769518D01*
X24816009Y34124486D01*
X24461041Y33769518D01*
X23332501Y33769518D01*
X22977533Y34124486D01*
X22622565Y33769518D01*
X21494022Y33769518D01*
X21139054Y34124486D01*
X20784086Y33769518D01*
X19655546Y33769518D01*
X19300578Y34124486D01*
X18945610Y33769518D01*
X18108257Y33769518D01*
X18114920Y33862677D01*
X18117478Y33880470D01*
X18135284Y33962325D01*
X18158883Y34070809D01*
X18163948Y34088054D01*
X18232019Y34270557D01*
X18239486Y34286909D01*
X18274752Y34351495D01*
X18332838Y34457872D01*
X18342552Y34472986D01*
X18452687Y34620111D01*
X18459281Y34628919D01*
X18471054Y34642505D01*
X18608788Y34780239D01*
X18622374Y34792012D01*
X18778302Y34908739D01*
X18793425Y34918458D01*
X18964388Y35011813D01*
X18980741Y35019281D01*
X19163236Y35087349D01*
X19180484Y35092414D01*
X19241846Y35105763D01*
X19370820Y35133821D01*
X19388605Y35136379D01*
X19448028Y35140629D01*
X19550426Y35147953D01*
X19568720Y35147193D01*
X19576738Y35147095D01*
X19585610Y35145714D01*
X19616954Y35149813D01*
X19633370Y35150875D01*
X26413016Y35146094D01*
G37*
%TD.AperFunction*%
%TA.AperFunction,Conductor*%
G36*
X18033621Y14471498D02*
G01*
X18080114Y14417842D01*
X18091500Y14365500D01*
X18091500Y11498950D01*
X18071498Y11430829D01*
X18017842Y11384336D01*
X17947568Y11374232D01*
X17882988Y11403726D01*
X17876405Y11409855D01*
X17801807Y11484453D01*
X17794983Y11488489D01*
X17794980Y11488491D01*
X17665427Y11565108D01*
X17665428Y11565108D01*
X17658601Y11569145D01*
X17650990Y11571356D01*
X17650988Y11571357D01*
X17598769Y11586528D01*
X17498831Y11615562D01*
X17492426Y11616066D01*
X17492421Y11616067D01*
X17463958Y11618307D01*
X17463950Y11618307D01*
X17461502Y11618500D01*
X17098503Y11618500D01*
X17030382Y11638502D01*
X17009408Y11655405D01*
X16962057Y11702756D01*
X16928031Y11765068D01*
X16933096Y11835883D01*
X16975643Y11892719D01*
X17011276Y11911375D01*
X17161784Y11961588D01*
X17174962Y11967761D01*
X17312807Y12053063D01*
X17324208Y12062099D01*
X17438739Y12176829D01*
X17447751Y12188240D01*
X17532816Y12326243D01*
X17538963Y12339424D01*
X17590138Y12493710D01*
X17593005Y12507086D01*
X17602672Y12601438D01*
X17603000Y12607854D01*
X17603000Y13032885D01*
X17598525Y13048124D01*
X17597135Y13049329D01*
X17589452Y13051000D01*
X16304500Y13051000D01*
X16236379Y13071002D01*
X16189886Y13124658D01*
X16178500Y13177000D01*
X16178500Y13433000D01*
X16198502Y13501121D01*
X16252158Y13547614D01*
X16304500Y13559000D01*
X17584884Y13559000D01*
X17600123Y13563475D01*
X17601328Y13564865D01*
X17602999Y13572548D01*
X17602999Y14002095D01*
X17602662Y14008614D01*
X17592743Y14104206D01*
X17589851Y14117600D01*
X17538412Y14271784D01*
X17532239Y14284960D01*
X17523429Y14299198D01*
X17504592Y14367650D01*
X17525754Y14435419D01*
X17580195Y14480990D01*
X17630574Y14491500D01*
X17965500Y14491500D01*
X18033621Y14471498D01*
G37*
%TD.AperFunction*%
%TD*%
M02*
