%TF.GenerationSoftware,KiCad,Pcbnew,(6.0.7-1)-1*%
%TF.CreationDate,2022-10-13T15:16:57+02:00*%
%TF.ProjectId,tr707minus10v_kicad,74723730-376d-4696-9e75-733130765f6b,rev?*%
%TF.SameCoordinates,Original*%
%TF.FileFunction,Copper,L1,Top*%
%TF.FilePolarity,Positive*%
%FSLAX46Y46*%
G04 Gerber Fmt 4.6, Leading zero omitted, Abs format (unit mm)*
G04 Created by KiCad (PCBNEW (6.0.7-1)-1) date 2022-10-13 15:16:57*
%MOMM*%
%LPD*%
G01*
G04 APERTURE LIST*
G04 Aperture macros list*
%AMRoundRect*
0 Rectangle with rounded corners*
0 $1 Rounding radius*
0 $2 $3 $4 $5 $6 $7 $8 $9 X,Y pos of 4 corners*
0 Add a 4 corners polygon primitive as box body*
4,1,4,$2,$3,$4,$5,$6,$7,$8,$9,$2,$3,0*
0 Add four circle primitives for the rounded corners*
1,1,$1+$1,$2,$3*
1,1,$1+$1,$4,$5*
1,1,$1+$1,$6,$7*
1,1,$1+$1,$8,$9*
0 Add four rect primitives between the rounded corners*
20,1,$1+$1,$2,$3,$4,$5,0*
20,1,$1+$1,$4,$5,$6,$7,0*
20,1,$1+$1,$6,$7,$8,$9,0*
20,1,$1+$1,$8,$9,$2,$3,0*%
%AMFreePoly0*
4,1,22,0.500000,-0.750000,0.000000,-0.750000,0.000000,-0.745033,-0.079941,-0.743568,-0.215256,-0.701293,-0.333266,-0.622738,-0.424486,-0.514219,-0.481581,-0.384460,-0.499164,-0.250000,-0.500000,-0.250000,-0.500000,0.250000,-0.499164,0.250000,-0.499963,0.256109,-0.478152,0.396186,-0.417904,0.524511,-0.324060,0.630769,-0.204165,0.706417,-0.067858,0.745374,0.000000,0.744959,0.000000,0.750000,
0.500000,0.750000,0.500000,-0.750000,0.500000,-0.750000,$1*%
%AMFreePoly1*
4,1,20,0.000000,0.744959,0.073905,0.744508,0.209726,0.703889,0.328688,0.626782,0.421226,0.519385,0.479903,0.390333,0.500000,0.250000,0.500000,-0.250000,0.499851,-0.262216,0.476331,-0.402017,0.414519,-0.529596,0.319384,-0.634700,0.198574,-0.708877,0.061801,-0.746166,0.000000,-0.745033,0.000000,-0.750000,-0.500000,-0.750000,-0.500000,0.750000,0.000000,0.750000,0.000000,0.744959,
0.000000,0.744959,$1*%
G04 Aperture macros list end*
%TA.AperFunction,SMDPad,CuDef*%
%ADD10FreePoly0,270.000000*%
%TD*%
%TA.AperFunction,SMDPad,CuDef*%
%ADD11FreePoly1,270.000000*%
%TD*%
%TA.AperFunction,SMDPad,CuDef*%
%ADD12FreePoly1,0.000000*%
%TD*%
%TA.AperFunction,SMDPad,CuDef*%
%ADD13FreePoly0,0.000000*%
%TD*%
%TA.AperFunction,SMDPad,CuDef*%
%ADD14R,1.800000X2.500000*%
%TD*%
%TA.AperFunction,SMDPad,CuDef*%
%ADD15RoundRect,0.250000X-0.550000X1.500000X-0.550000X-1.500000X0.550000X-1.500000X0.550000X1.500000X0*%
%TD*%
%TA.AperFunction,SMDPad,CuDef*%
%ADD16RoundRect,0.250000X-1.750000X-1.000000X1.750000X-1.000000X1.750000X1.000000X-1.750000X1.000000X0*%
%TD*%
%TA.AperFunction,SMDPad,CuDef*%
%ADD17RoundRect,0.250000X-0.650000X0.412500X-0.650000X-0.412500X0.650000X-0.412500X0.650000X0.412500X0*%
%TD*%
%TA.AperFunction,SMDPad,CuDef*%
%ADD18RoundRect,0.150000X-0.150000X0.825000X-0.150000X-0.825000X0.150000X-0.825000X0.150000X0.825000X0*%
%TD*%
%TA.AperFunction,ComponentPad*%
%ADD19R,2.000000X2.000000*%
%TD*%
%TA.AperFunction,ComponentPad*%
%ADD20C,2.000000*%
%TD*%
%TA.AperFunction,ComponentPad*%
%ADD21R,1.700000X1.700000*%
%TD*%
%TA.AperFunction,ViaPad*%
%ADD22C,0.800000*%
%TD*%
%TA.AperFunction,Conductor*%
%ADD23C,1.000000*%
%TD*%
G04 APERTURE END LIST*
D10*
%TO.P,JP2,1,A*%
%TO.N,-10V*%
X5500000Y7300000D03*
D11*
%TO.P,JP2,2,B*%
%TO.N,Net-(JP2-Pad2)*%
X5500000Y6000000D03*
%TD*%
D12*
%TO.P,JP1,2,B*%
%TO.N,+12V*%
X32650000Y7500000D03*
D13*
%TO.P,JP1,1,A*%
%TO.N,Net-(C1-Pad1)*%
X31350000Y7500000D03*
%TD*%
D14*
%TO.P,D1,2,A*%
%TO.N,+12V*%
X32000000Y15000000D03*
%TO.P,D1,1,K*%
%TO.N,Net-(C1-Pad1)*%
X32000000Y11000000D03*
%TD*%
D15*
%TO.P,C7,2*%
%TO.N,Net-(C7-Pad2)*%
X16500000Y17300000D03*
%TO.P,C7,1*%
%TO.N,Net-(C7-Pad1)*%
X16500000Y22700000D03*
%TD*%
%TO.P,C6,2*%
%TO.N,Net-(C6-Pad2)*%
X9000000Y17300000D03*
%TO.P,C6,1*%
%TO.N,Net-(U1-Pad2)*%
X9000000Y22700000D03*
%TD*%
%TO.P,C2,2*%
%TO.N,GND*%
X30500000Y19800000D03*
%TO.P,C2,1*%
%TO.N,Net-(C1-Pad1)*%
X30500000Y25200000D03*
%TD*%
D16*
%TO.P,C3,2*%
%TO.N,-10V*%
X32000000Y33500000D03*
%TO.P,C3,1*%
%TO.N,GND*%
X24000000Y33500000D03*
%TD*%
D17*
%TO.P,C4,2*%
%TO.N,GND*%
X22500000Y18937500D03*
%TO.P,C4,1*%
%TO.N,-10V*%
X22500000Y22062500D03*
%TD*%
D18*
%TO.P,U2,8,V+*%
%TO.N,Net-(C1-Pad1)*%
X19405000Y8525000D03*
%TO.P,U2,7,OSC*%
%TO.N,unconnected-(U2-Pad7)*%
X18135000Y8525000D03*
%TO.P,U2,6,LV*%
%TO.N,unconnected-(U2-Pad6)*%
X16865000Y8525000D03*
%TO.P,U2,5,VOUT*%
%TO.N,-10V*%
X15595000Y8525000D03*
%TO.P,U2,4,CAP-*%
%TO.N,Net-(C7-Pad2)*%
X15595000Y13475000D03*
%TO.P,U2,3,GND*%
%TO.N,GND*%
X16865000Y13475000D03*
%TO.P,U2,2,CAP+*%
%TO.N,Net-(C7-Pad1)*%
X18135000Y13475000D03*
%TO.P,U2,1,NC*%
%TO.N,unconnected-(U2-Pad1)*%
X19405000Y13475000D03*
%TD*%
%TO.P,U1,8,V+*%
%TO.N,Net-(C1-Pad1)*%
X11905000Y8525000D03*
%TO.P,U1,7,OSC*%
%TO.N,unconnected-(U1-Pad7)*%
X10635000Y8525000D03*
%TO.P,U1,6,LV*%
%TO.N,unconnected-(U1-Pad6)*%
X9365000Y8525000D03*
%TO.P,U1,5,VOUT*%
%TO.N,Net-(JP2-Pad2)*%
X8095000Y8525000D03*
%TO.P,U1,4,CAP-*%
%TO.N,Net-(C6-Pad2)*%
X8095000Y13475000D03*
%TO.P,U1,3,GND*%
%TO.N,GND*%
X9365000Y13475000D03*
%TO.P,U1,2,CAP+*%
%TO.N,Net-(U1-Pad2)*%
X10635000Y13475000D03*
%TO.P,U1,1,NC*%
%TO.N,unconnected-(U1-Pad1)*%
X11905000Y13475000D03*
%TD*%
D19*
%TO.P,C5,1*%
%TO.N,GND*%
X36550000Y10107562D03*
D20*
%TO.P,C5,2*%
%TO.N,-10V*%
X36550000Y15107562D03*
%TD*%
D17*
%TO.P,C1,2*%
%TO.N,GND*%
X25500000Y18937500D03*
%TO.P,C1,1*%
%TO.N,Net-(C1-Pad1)*%
X25500000Y22062500D03*
%TD*%
D21*
%TO.P,J1,1,Pin_1*%
%TO.N,-10V*%
X22595000Y9905000D03*
%TD*%
%TO.P,J3,1,Pin_1*%
%TO.N,unconnected-(J3-Pad1)*%
X27595000Y9905000D03*
%TD*%
%TO.P,J4,1,Pin_1*%
%TO.N,unconnected-(J4-Pad1)*%
X27595000Y15405000D03*
%TD*%
%TO.P,J5,1,Pin_1*%
%TO.N,+12V*%
X24595000Y25905000D03*
%TD*%
%TO.P,J2,1,Pin_1*%
%TO.N,GND*%
X22595000Y15405000D03*
%TD*%
D22*
%TO.N,GND*%
X8117314Y11807532D03*
X16580991Y11609164D03*
X22500000Y31500000D03*
X24000000Y31500000D03*
X37000000Y12000000D03*
X36000000Y12000000D03*
X23000000Y14000000D03*
X22500000Y20500000D03*
X24000000Y15000000D03*
X19000000Y40000000D03*
X35000000Y39000000D03*
X36000000Y6000000D03*
X3500000Y7000000D03*
X5000000Y25000000D03*
X18000000Y27000000D03*
X22000000Y14000000D03*
X25500000Y20500000D03*
X31000000Y22500000D03*
%TD*%
D23*
%TO.N,Net-(C1-Pad1)*%
X13774281Y5999993D02*
G75*
G02*
X12452500Y6547500I19J1869307D01*
G01*
X19530363Y6530356D02*
G75*
G03*
X19917500Y7465000I-934663J934644D01*
G01*
X12410573Y6589411D02*
G75*
G02*
X11905000Y7810000I1220627J1220589D01*
G01*
X18351229Y5999988D02*
G75*
G03*
X19458750Y6458750I-29J1566312D01*
G01*
%TO.N,Net-(U1-Pad2)*%
X10634991Y19908881D02*
G75*
G03*
X9817499Y21882499I-2791091J19D01*
G01*
%TO.N,Net-(C6-Pad2)*%
X8095014Y15755069D02*
G75*
G02*
X8547501Y16847499I1544886J31D01*
G01*
%TO.N,Net-(C7-Pad2)*%
X15595014Y15755069D02*
G75*
G02*
X16047501Y16847499I1544886J31D01*
G01*
%TO.N,Net-(C7-Pad1)*%
X18134991Y19908881D02*
G75*
G03*
X17317499Y21882499I-2791091J19D01*
G01*
X18135000Y19908881D02*
X18135000Y13475000D01*
X17317500Y21882500D02*
X16500000Y22700000D01*
%TO.N,Net-(U1-Pad2)*%
X10635000Y19908881D02*
X10635000Y13475000D01*
X9817500Y21882500D02*
X9000000Y22700000D01*
%TO.N,Net-(C6-Pad2)*%
X8095000Y15755069D02*
X8095000Y13475000D01*
X8547500Y16847500D02*
X9000000Y17300000D01*
%TO.N,Net-(C7-Pad2)*%
X15595000Y15755069D02*
X15595000Y13475000D01*
X16047500Y16847500D02*
X16500000Y17300000D01*
%TO.N,Net-(C1-Pad1)*%
X19530359Y6530360D02*
X19458750Y6458750D01*
X19917500Y7465000D02*
X19917500Y8012500D01*
X12452500Y6547500D02*
X12410581Y6589419D01*
X13774281Y6000000D02*
X18351229Y6000000D01*
X11905000Y7810000D02*
X11905000Y8525000D01*
X27361304Y18389442D02*
G75*
G02*
X27362501Y18413863I16920596J-817142D01*
G01*
X27361303Y18389442D02*
X25937126Y16965265D01*
X25053470Y7500000D02*
X21154784Y7500000D01*
X19917500Y8012500D02*
X19725701Y8204299D01*
X25907581Y16596774D02*
G75*
G02*
X25937127Y16815561I955719J-17674D01*
G01*
X19917505Y8012505D02*
G75*
G03*
X21154784Y7500000I1237295J1237295D01*
G01*
X25657409Y7750165D02*
G75*
G03*
X25907574Y8354104I-603909J603935D01*
G01*
X25053470Y7500020D02*
G75*
G03*
X25657413Y7750161I30J854080D01*
G01*
X27362500Y21131250D02*
X27362500Y18413863D01*
X25907574Y16596774D02*
X25907574Y8354104D01*
X25937126Y16965265D02*
X25937126Y16815561D01*
%TO.N,-10V*%
X15700000Y10200000D02*
X22300000Y10200000D01*
X22300000Y10200000D02*
X22595000Y9905000D01*
X15700000Y10200000D02*
X14774246Y10200000D01*
X15595000Y8525000D02*
X15595000Y10095000D01*
X15595000Y10095000D02*
X15700000Y10200000D01*
%TO.N,Net-(JP2-Pad2)*%
X5500000Y6000000D02*
X6500000Y6000000D01*
X6500000Y6000000D02*
X8000000Y7500000D01*
%TO.N,-10V*%
X5500021Y8442549D02*
G75*
G02*
X6014745Y9685255I1757379J51D01*
G01*
X6014731Y9685269D02*
G75*
G02*
X7257451Y10200000I1242669J-1242669D01*
G01*
X14625753Y10200000D02*
X14774246Y10200000D01*
X14625753Y10200000D02*
X7257451Y10200000D01*
X5500000Y8442549D02*
X5500000Y7300000D01*
%TO.N,Net-(C1-Pad1)*%
X31675000Y11325000D02*
G75*
G02*
X31675000Y10675000I-325000J-325000D01*
G01*
X30099989Y16155026D02*
G75*
G02*
X30450000Y17000000I1195011J-26D01*
G01*
X31225000Y17350012D02*
G75*
G03*
X30499479Y17049480I0J-1026012D01*
G01*
X29500000Y24200000D02*
G75*
G02*
X31500000Y24200000I1000000J-1000000D01*
G01*
X26431250Y22062455D02*
G75*
G03*
X28020993Y22720994I-50J2248245D01*
G01*
X26431250Y22062500D02*
G75*
G02*
X27362500Y21131250I50J-931200D01*
G01*
X28020976Y22721011D02*
G75*
G03*
X27362500Y21131250I1589724J-1589711D01*
G01*
X31350009Y9890381D02*
G75*
G02*
X31675001Y10674999I1109591J19D01*
G01*
X31225000Y17349989D02*
G75*
G03*
X31950520Y17650521I0J1026011D01*
G01*
X32499994Y21785787D02*
G75*
G03*
X31500000Y24200000I-3414194J13D01*
G01*
X30100000Y12750000D02*
G75*
G03*
X30250000Y12600000I150000J0D01*
G01*
X30250000Y12600009D02*
G75*
G02*
X30506066Y12493934I0J-362109D01*
G01*
X32075012Y17774988D02*
G75*
G03*
X32500000Y18801041I-1026012J1026012D01*
G01*
%TO.N,+12V*%
X29378679Y28499991D02*
G75*
G02*
X33000000Y27000000I21J-5121291D01*
G01*
X33324998Y8175002D02*
G75*
G03*
X34000000Y9804595I-1629598J1629598D01*
G01*
X25892488Y27202512D02*
G75*
G02*
X29024942Y28500000I3132412J-3132412D01*
G01*
X33249990Y16250010D02*
G75*
G03*
X34500000Y19267767I-3017790J3017790D01*
G01*
X33000000Y14000000D02*
G75*
G02*
X33000000Y16000000I1000000J1000000D01*
G01*
X33999994Y11585787D02*
G75*
G03*
X33000000Y14000000I-3414194J13D01*
G01*
X34499991Y23378680D02*
G75*
G03*
X33000000Y27000000I-5121291J20D01*
G01*
%TO.N,-10V*%
X22499990Y25652534D02*
G75*
G02*
X24093792Y29500291I5441610J-34D01*
G01*
X30046751Y33499953D02*
G75*
G02*
X33381155Y32118845I49J-4715553D01*
G01*
X20899988Y19331130D02*
G75*
G02*
X21700000Y21262500I2731412J-30D01*
G01*
X21747487Y10752487D02*
G75*
G02*
X20900000Y12798546I2046013J2046013D01*
G01*
X36550010Y26696037D02*
G75*
G03*
X34956206Y30543792I-5441610J-37D01*
G01*
X21699991Y21262509D02*
G75*
G03*
X22500000Y23193871I-1931391J1931391D01*
G01*
X26712313Y32118879D02*
G75*
G02*
X30046751Y33500000I3334387J-3334479D01*
G01*
%TO.N,GND*%
X30500023Y21646447D02*
G75*
G02*
X30750001Y22249999I853477J53D01*
G01*
%TO.N,Net-(C1-Pad1)*%
X31675000Y11325000D02*
X30506066Y12493934D01*
X31950520Y17650521D02*
X32075000Y17775000D01*
X30449999Y17000001D02*
X30499479Y17049480D01*
X30100000Y16155026D02*
X30100000Y12750000D01*
X32500000Y18801041D02*
X32500000Y21785787D01*
X31350000Y9890381D02*
X31350000Y7500000D01*
%TO.N,+12V*%
X34000000Y9804595D02*
X34000000Y11585787D01*
X33325000Y8175000D02*
X32650000Y7500000D01*
X33250000Y16250000D02*
X33000000Y16000000D01*
X34500000Y19267767D02*
X34500000Y23378680D01*
X29378679Y28500000D02*
X29024942Y28500000D01*
X25892500Y27202500D02*
X24595000Y25905000D01*
%TO.N,GND*%
X31000000Y22500000D02*
X30750000Y22250000D01*
X30500000Y21646447D02*
X30500000Y19800000D01*
%TO.N,-10V*%
X36550000Y26696037D02*
X36550000Y15107562D01*
X33381155Y32118845D02*
X34956207Y30543793D01*
X21747500Y10752500D02*
X22595000Y9905000D01*
X20900000Y19331130D02*
X20900000Y12798546D01*
X22500000Y25652534D02*
X22500000Y23193871D01*
X24093792Y29500291D02*
X26712347Y32118845D01*
%TO.N,Net-(C1-Pad1)*%
X26431250Y22062500D02*
X25500000Y22062500D01*
X29499999Y24200001D02*
X28020993Y22720994D01*
%TD*%
%TA.AperFunction,Conductor*%
%TO.N,GND*%
G36*
X36055804Y41575787D02*
G01*
X36070637Y41573477D01*
X36070641Y41573477D01*
X36079510Y41572096D01*
X36094766Y41574091D01*
X36120089Y41574834D01*
X36211731Y41568281D01*
X36289056Y41562751D01*
X36306852Y41560193D01*
X36497187Y41518789D01*
X36514436Y41513724D01*
X36696935Y41445656D01*
X36713288Y41438188D01*
X36884247Y41344839D01*
X36899370Y41335120D01*
X37008164Y41253679D01*
X37055302Y41218392D01*
X37068889Y41206618D01*
X37206615Y41068892D01*
X37218388Y41055306D01*
X37335117Y40899374D01*
X37344836Y40884251D01*
X37438187Y40713293D01*
X37445653Y40696946D01*
X37495495Y40563314D01*
X37513723Y40514440D01*
X37518788Y40497191D01*
X37560192Y40306856D01*
X37562750Y40289061D01*
X37570569Y40179738D01*
X37574325Y40127215D01*
X37573572Y40109109D01*
X37573472Y40100940D01*
X37572090Y40092066D01*
X37573254Y40083163D01*
X37573254Y40083161D01*
X37576339Y40059564D01*
X37577401Y40043597D01*
X37611577Y28301760D01*
X37591774Y28233581D01*
X37538254Y28186932D01*
X37468009Y28176624D01*
X37403343Y28205929D01*
X37363492Y28270232D01*
X37345052Y28342480D01*
X37305437Y28497685D01*
X37301729Y28512213D01*
X37301728Y28512216D01*
X37301174Y28514387D01*
X37300471Y28516501D01*
X37300466Y28516516D01*
X37156383Y28949409D01*
X37155675Y28951537D01*
X37153367Y28957111D01*
X36980217Y29375127D01*
X36980215Y29375132D01*
X36979361Y29377193D01*
X36912503Y29510759D01*
X36878783Y29578122D01*
X36773131Y29789187D01*
X36764357Y29803976D01*
X36539183Y30183484D01*
X36538035Y30185419D01*
X36516207Y30216857D01*
X36276547Y30562034D01*
X36276544Y30562038D01*
X36275272Y30563870D01*
X36273879Y30565598D01*
X36273869Y30565612D01*
X35987585Y30920869D01*
X35987579Y30920876D01*
X35986180Y30922612D01*
X35705807Y31223754D01*
X35698467Y31232386D01*
X35694669Y31237282D01*
X35694668Y31237283D01*
X35692504Y31240073D01*
X35690041Y31242606D01*
X35675232Y31257835D01*
X35675227Y31257840D01*
X35672776Y31260360D01*
X35638889Y31288195D01*
X35629770Y31296465D01*
X35374615Y31551620D01*
X36627920Y31551620D01*
X36804629Y31374911D01*
X36803604Y31727304D01*
X36627920Y31551620D01*
X35374615Y31551620D01*
X34545405Y32380829D01*
X34511380Y32443141D01*
X34508500Y32469924D01*
X34508500Y32470859D01*
X35708681Y32470859D01*
X36063650Y32115891D01*
X36418617Y32470858D01*
X36063649Y32825827D01*
X35708681Y32470859D01*
X34508500Y32470859D01*
X34508500Y33582976D01*
X35306500Y33582976D01*
X35306500Y33197220D01*
X35499377Y33390097D01*
X36627920Y33390097D01*
X36799263Y33218754D01*
X36798269Y33560446D01*
X36627920Y33390097D01*
X35499377Y33390097D01*
X35499378Y33390098D01*
X35306500Y33582976D01*
X34508500Y33582976D01*
X34508500Y34309336D01*
X35708681Y34309336D01*
X36063649Y33954368D01*
X36418617Y34309337D01*
X36063650Y34664304D01*
X35708681Y34309336D01*
X34508500Y34309336D01*
X34508500Y34550400D01*
X34505187Y34582329D01*
X34498238Y34649308D01*
X34498237Y34649312D01*
X34497526Y34656166D01*
X34441550Y34823946D01*
X34348478Y34974348D01*
X34223303Y35099305D01*
X34217072Y35103146D01*
X34078968Y35188275D01*
X34078966Y35188276D01*
X34072738Y35192115D01*
X33962811Y35228576D01*
X33911389Y35245632D01*
X33911387Y35245632D01*
X33904861Y35247797D01*
X33898025Y35248497D01*
X33898022Y35248498D01*
X33854969Y35252909D01*
X33800400Y35258500D01*
X30199600Y35258500D01*
X30196354Y35258163D01*
X30196350Y35258163D01*
X30100692Y35248238D01*
X30100688Y35248237D01*
X30093834Y35247526D01*
X30087298Y35245345D01*
X30087296Y35245345D01*
X30070928Y35239884D01*
X29926054Y35191550D01*
X29775652Y35098478D01*
X29650695Y34973303D01*
X29646855Y34967073D01*
X29646854Y34967072D01*
X29602849Y34895682D01*
X29557885Y34822738D01*
X29502203Y34654861D01*
X29501503Y34648025D01*
X29501502Y34648022D01*
X29494771Y34582329D01*
X29467929Y34516602D01*
X29409814Y34475821D01*
X29384235Y34470046D01*
X29153077Y34442689D01*
X29150627Y34442399D01*
X29148206Y34441918D01*
X29148203Y34441917D01*
X28711892Y34355134D01*
X28711886Y34355132D01*
X28709470Y34354652D01*
X28276557Y34232564D01*
X27854557Y34076886D01*
X27852325Y34075857D01*
X27852320Y34075855D01*
X27448310Y33889610D01*
X27448304Y33889607D01*
X27446072Y33888578D01*
X27053622Y33668801D01*
X27051558Y33667422D01*
X27051550Y33667417D01*
X26925172Y33582976D01*
X26679624Y33418911D01*
X26494592Y33273048D01*
X26428715Y33246585D01*
X26416590Y33246000D01*
X24272115Y33246000D01*
X24256876Y33241525D01*
X24255671Y33240135D01*
X24254000Y33232452D01*
X24254000Y31760116D01*
X24258475Y31744877D01*
X24259865Y31743672D01*
X24267548Y31742001D01*
X24605078Y31742001D01*
X24673199Y31721999D01*
X24719692Y31668343D01*
X24729796Y31598069D01*
X24700302Y31533489D01*
X24694173Y31526906D01*
X23431400Y30264133D01*
X23419531Y30253668D01*
X23397509Y30236586D01*
X23377223Y30216857D01*
X23371844Y30210309D01*
X23366720Y30204450D01*
X23063818Y29879110D01*
X22939481Y29724816D01*
X22776130Y29522110D01*
X22776120Y29522096D01*
X22774727Y29520368D01*
X22773455Y29518536D01*
X22773452Y29518532D01*
X22613648Y29288370D01*
X22511963Y29141916D01*
X22276868Y28745684D01*
X22224540Y28641147D01*
X22160488Y28513186D01*
X22070638Y28333690D01*
X22069784Y28331629D01*
X22069782Y28331624D01*
X21897766Y27916343D01*
X21894324Y27908034D01*
X21868234Y27829646D01*
X21749533Y27473013D01*
X21749528Y27472998D01*
X21748825Y27470884D01*
X21748271Y27468713D01*
X21748270Y27468710D01*
X21739867Y27435787D01*
X21634883Y27024468D01*
X21634487Y27022273D01*
X21634485Y27022264D01*
X21567905Y26653245D01*
X21553077Y26571062D01*
X21552836Y26568822D01*
X21552835Y26568814D01*
X21504807Y26122103D01*
X21503825Y26112974D01*
X21498693Y25969305D01*
X21489132Y25701663D01*
X21488219Y25690376D01*
X21487456Y25684332D01*
X21487455Y25684319D01*
X21487015Y25680835D01*
X21486620Y25652540D01*
X21486962Y25649052D01*
X21490899Y25608898D01*
X21491500Y25596603D01*
X21491500Y23257699D01*
X21490715Y23243653D01*
X21488133Y23220632D01*
X21486719Y23208031D01*
X21486437Y23208063D01*
X21466414Y23143226D01*
X21427678Y23105673D01*
X21396248Y23086223D01*
X21375652Y23073478D01*
X21250695Y22948303D01*
X21246855Y22942073D01*
X21246854Y22942072D01*
X21173488Y22823050D01*
X21157885Y22797738D01*
X21155581Y22790791D01*
X21120856Y22686097D01*
X21102203Y22629861D01*
X21101503Y22623025D01*
X21101502Y22623022D01*
X21094483Y22554511D01*
X21091500Y22525400D01*
X21091500Y22142352D01*
X21071498Y22074231D01*
X21060232Y22059274D01*
X21022550Y22016306D01*
X21008953Y22003504D01*
X21009160Y22003266D01*
X21006493Y22000948D01*
X21003719Y21998796D01*
X20994297Y21989634D01*
X20993507Y21989003D01*
X20992854Y21988231D01*
X20983432Y21979068D01*
X20970142Y21962888D01*
X20965702Y21957771D01*
X20914539Y21901937D01*
X20765600Y21739399D01*
X20765593Y21739391D01*
X20763735Y21737363D01*
X20564930Y21478277D01*
X20563457Y21475965D01*
X20563455Y21475962D01*
X20485477Y21353562D01*
X20389462Y21202849D01*
X20238667Y20913177D01*
X20220709Y20869824D01*
X20114741Y20613999D01*
X20114736Y20613986D01*
X20113692Y20611465D01*
X20015488Y20300009D01*
X20014894Y20297331D01*
X20014894Y20297330D01*
X19972846Y20107672D01*
X19944802Y19981179D01*
X19941466Y19955842D01*
X19904985Y19678757D01*
X19902173Y19657402D01*
X19898351Y19569886D01*
X19890519Y19390552D01*
X19889646Y19380265D01*
X19887015Y19359436D01*
X19886620Y19331141D01*
X19886962Y19327653D01*
X19890899Y19287498D01*
X19891500Y19275203D01*
X19891500Y15055782D01*
X19871498Y14987661D01*
X19817842Y14941168D01*
X19747568Y14931064D01*
X19730348Y14934785D01*
X19665011Y14953767D01*
X19665007Y14953768D01*
X19658831Y14955562D01*
X19652426Y14956066D01*
X19652421Y14956067D01*
X19623958Y14958307D01*
X19623950Y14958307D01*
X19621502Y14958500D01*
X19269500Y14958500D01*
X19201379Y14978502D01*
X19154886Y15032158D01*
X19143500Y15084500D01*
X19143500Y19837154D01*
X19144494Y19852947D01*
X19147543Y19877078D01*
X19147543Y19877083D01*
X19147985Y19880579D01*
X19148380Y19908874D01*
X19146425Y19928820D01*
X19145944Y19935614D01*
X19145549Y19944672D01*
X19132641Y20240349D01*
X19126671Y20285702D01*
X19089694Y20566576D01*
X19089693Y20566582D01*
X19089335Y20569301D01*
X19017524Y20893227D01*
X19014609Y20902474D01*
X18918585Y21207026D01*
X18918584Y21207030D01*
X18917754Y21209661D01*
X18790785Y21516196D01*
X18784531Y21528211D01*
X18638846Y21808070D01*
X18638845Y21808071D01*
X18637582Y21810498D01*
X18629244Y21823587D01*
X18460791Y22088004D01*
X18460790Y22088005D01*
X18459311Y22090327D01*
X18257331Y22353555D01*
X18252129Y22359232D01*
X20081621Y22359232D01*
X20170218Y22270635D01*
X20173556Y22274440D01*
X20175388Y22276483D01*
X20293500Y22405379D01*
X20293500Y22525400D01*
X20293541Y22528615D01*
X20294252Y22556468D01*
X20294375Y22559681D01*
X20295031Y22572524D01*
X20295039Y22572650D01*
X20081621Y22359232D01*
X18252129Y22359232D01*
X18072994Y22554723D01*
X18066332Y22562620D01*
X18053796Y22578781D01*
X18034068Y22599068D01*
X18000180Y22626904D01*
X17991061Y22635173D01*
X17845405Y22780829D01*
X17811379Y22843141D01*
X17808500Y22869924D01*
X17808500Y23278471D01*
X19162383Y23278471D01*
X19517351Y22923502D01*
X19872319Y23278470D01*
X19517350Y23633438D01*
X19162383Y23278471D01*
X17808500Y23278471D01*
X17808500Y24250400D01*
X17801004Y24322649D01*
X17798238Y24349308D01*
X17798237Y24349312D01*
X17797526Y24356166D01*
X17783545Y24398074D01*
X17743868Y24516998D01*
X17741550Y24523946D01*
X17737713Y24530146D01*
X18575580Y24530146D01*
X18579711Y24511019D01*
X18580980Y24504254D01*
X18590368Y24445351D01*
X18591265Y24438523D01*
X18602239Y24332757D01*
X18602534Y24329511D01*
X18604719Y24301382D01*
X18604929Y24298136D01*
X18605602Y24285132D01*
X18605728Y24281878D01*
X18606458Y24253658D01*
X18606500Y24250400D01*
X18606500Y23851129D01*
X18953080Y24197709D01*
X20081621Y24197709D01*
X20436589Y23842741D01*
X20693500Y24099652D01*
X20693500Y24295767D01*
X20436590Y24552677D01*
X20081621Y24197709D01*
X18953080Y24197709D01*
X18598111Y24552677D01*
X18575580Y24530146D01*
X17737713Y24530146D01*
X17648478Y24674348D01*
X17523303Y24799305D01*
X17508719Y24808295D01*
X17378968Y24888275D01*
X17378966Y24888276D01*
X17372738Y24892115D01*
X17286608Y24920683D01*
X17211389Y24945632D01*
X17211387Y24945632D01*
X17204861Y24947797D01*
X17198025Y24948497D01*
X17198022Y24948498D01*
X17149034Y24953517D01*
X17100400Y24958500D01*
X15899600Y24958500D01*
X15896354Y24958163D01*
X15896350Y24958163D01*
X15800692Y24948238D01*
X15800688Y24948237D01*
X15793834Y24947526D01*
X15787298Y24945345D01*
X15787296Y24945345D01*
X15692868Y24913841D01*
X15626054Y24891550D01*
X15475652Y24798478D01*
X15350695Y24673303D01*
X15346855Y24667073D01*
X15346854Y24667072D01*
X15272760Y24546869D01*
X15257885Y24522738D01*
X15202203Y24354861D01*
X15201503Y24348025D01*
X15201502Y24348022D01*
X15197091Y24304969D01*
X15191500Y24250400D01*
X15191500Y21149600D01*
X15191837Y21146354D01*
X15191837Y21146350D01*
X15201676Y21051522D01*
X15202474Y21043834D01*
X15258450Y20876054D01*
X15351522Y20725652D01*
X15476697Y20600695D01*
X15482927Y20596855D01*
X15482928Y20596854D01*
X15606385Y20520754D01*
X15627262Y20507885D01*
X15707005Y20481436D01*
X15788611Y20454368D01*
X15788613Y20454368D01*
X15795139Y20452203D01*
X15801975Y20451503D01*
X15801978Y20451502D01*
X15845031Y20447091D01*
X15899600Y20441500D01*
X16948177Y20441500D01*
X17016298Y20421498D01*
X17062791Y20367842D01*
X17071756Y20340080D01*
X17109631Y20149662D01*
X17111782Y20133322D01*
X17123414Y19955842D01*
X17122899Y19933556D01*
X17121719Y19923037D01*
X17122235Y19916893D01*
X17126058Y19871360D01*
X17126500Y19860818D01*
X17126500Y19684500D01*
X17106498Y19616379D01*
X17052842Y19569886D01*
X17000500Y19558500D01*
X15899600Y19558500D01*
X15896354Y19558163D01*
X15896350Y19558163D01*
X15800692Y19548238D01*
X15800688Y19548237D01*
X15793834Y19547526D01*
X15787298Y19545345D01*
X15787296Y19545345D01*
X15655194Y19501272D01*
X15626054Y19491550D01*
X15475652Y19398478D01*
X15350695Y19273303D01*
X15257885Y19122738D01*
X15202203Y18954861D01*
X15191500Y18850400D01*
X15191500Y17454854D01*
X15171498Y17386733D01*
X15159452Y17370895D01*
X15140433Y17349613D01*
X14974472Y17115711D01*
X14835745Y16864698D01*
X14834396Y16861442D01*
X14834392Y16861433D01*
X14727351Y16603006D01*
X14727348Y16602998D01*
X14725995Y16599731D01*
X14646602Y16324141D01*
X14646010Y16320656D01*
X14646009Y16320652D01*
X14619077Y16162121D01*
X14598567Y16041395D01*
X14585978Y15817157D01*
X14585185Y15808449D01*
X14582014Y15783344D01*
X14581620Y15755049D01*
X14581964Y15751544D01*
X14585898Y15711428D01*
X14586500Y15699130D01*
X14586500Y13425231D01*
X14586800Y13422175D01*
X14586800Y13422168D01*
X14587546Y13414564D01*
X14600920Y13278167D01*
X14658084Y13088831D01*
X14750934Y12914204D01*
X14754828Y12909430D01*
X14754829Y12909428D01*
X14758143Y12905365D01*
X14785697Y12839934D01*
X14786500Y12825729D01*
X14786500Y12583498D01*
X14786693Y12581050D01*
X14786693Y12581042D01*
X14788858Y12553539D01*
X14789438Y12546169D01*
X14835855Y12386399D01*
X14839892Y12379573D01*
X14916509Y12250020D01*
X14916511Y12250017D01*
X14920547Y12243193D01*
X15038193Y12125547D01*
X15045016Y12121512D01*
X15045020Y12121509D01*
X15132549Y12069745D01*
X15181399Y12040855D01*
X15189010Y12038644D01*
X15189012Y12038643D01*
X15241231Y12023472D01*
X15341169Y11994438D01*
X15347574Y11993934D01*
X15347579Y11993933D01*
X15376042Y11991693D01*
X15376050Y11991693D01*
X15378498Y11991500D01*
X15811502Y11991500D01*
X15813950Y11991693D01*
X15813958Y11991693D01*
X15842421Y11993933D01*
X15842426Y11993934D01*
X15848831Y11994438D01*
X15948769Y12023472D01*
X16000988Y12038643D01*
X16000990Y12038644D01*
X16008601Y12040855D01*
X16151807Y12125547D01*
X16154747Y12128487D01*
X16219271Y12153821D01*
X16288894Y12139920D01*
X16307640Y12127871D01*
X16315323Y12121911D01*
X16444779Y12045352D01*
X16459210Y12039107D01*
X16593605Y12000061D01*
X16607706Y12000101D01*
X16611000Y12007370D01*
X16611000Y13603000D01*
X16631002Y13671121D01*
X16684658Y13717614D01*
X16737000Y13729000D01*
X16993000Y13729000D01*
X17061121Y13708998D01*
X17107614Y13655342D01*
X17119000Y13603000D01*
X17119000Y12013122D01*
X17122973Y11999591D01*
X17130871Y11998456D01*
X17270790Y12039107D01*
X17285221Y12045352D01*
X17414676Y12121910D01*
X17422364Y12127874D01*
X17488449Y12153821D01*
X17558072Y12139920D01*
X17574158Y12129582D01*
X17578193Y12125547D01*
X17721399Y12040855D01*
X17729010Y12038644D01*
X17729012Y12038643D01*
X17781231Y12023472D01*
X17881169Y11994438D01*
X17887574Y11993934D01*
X17887579Y11993933D01*
X17916042Y11991693D01*
X17916050Y11991693D01*
X17918498Y11991500D01*
X18351502Y11991500D01*
X18353950Y11991693D01*
X18353958Y11991693D01*
X18382421Y11993933D01*
X18382426Y11993934D01*
X18388831Y11994438D01*
X18488769Y12023472D01*
X18540988Y12038643D01*
X18540990Y12038644D01*
X18548601Y12040855D01*
X18691807Y12125547D01*
X18694489Y12128229D01*
X18758861Y12153502D01*
X18828484Y12139600D01*
X18844312Y12129428D01*
X18848193Y12125547D01*
X18991399Y12040855D01*
X18999010Y12038644D01*
X18999012Y12038643D01*
X19051231Y12023472D01*
X19151169Y11994438D01*
X19157574Y11993934D01*
X19157579Y11993933D01*
X19186042Y11991693D01*
X19186050Y11991693D01*
X19188498Y11991500D01*
X19621502Y11991500D01*
X19623950Y11991693D01*
X19623958Y11991693D01*
X19652421Y11993933D01*
X19652426Y11993934D01*
X19658831Y11994438D01*
X19744845Y12019427D01*
X19810992Y12038644D01*
X19810995Y12038645D01*
X19812281Y12039019D01*
X19812282Y12039019D01*
X19818601Y12040855D01*
X19818897Y12039836D01*
X19882151Y12047642D01*
X19946129Y12016862D01*
X19984741Y11950578D01*
X20020856Y11787666D01*
X20021677Y11785061D01*
X20021680Y11785051D01*
X20122491Y11465311D01*
X20123315Y11462699D01*
X20140802Y11420482D01*
X20156444Y11382717D01*
X20164033Y11312127D01*
X20132253Y11248641D01*
X20071195Y11212414D01*
X20040035Y11208500D01*
X15761840Y11208500D01*
X15748232Y11209237D01*
X15716736Y11212659D01*
X15716732Y11212659D01*
X15710611Y11213324D01*
X15674160Y11210135D01*
X15660946Y11208979D01*
X15649965Y11208500D01*
X7329191Y11208500D01*
X7313396Y11209494D01*
X7289274Y11212542D01*
X7289272Y11212542D01*
X7285775Y11212984D01*
X7271877Y11213179D01*
X7261003Y11213331D01*
X7260998Y11213331D01*
X7257480Y11213380D01*
X7228952Y11210583D01*
X7222851Y11210135D01*
X7167550Y11207420D01*
X6989125Y11198660D01*
X6989117Y11198659D01*
X6986037Y11198508D01*
X6717208Y11158638D01*
X6714200Y11157885D01*
X6714197Y11157884D01*
X6585395Y11125623D01*
X6453581Y11092608D01*
X6248327Y11019171D01*
X6219595Y11008891D01*
X6197696Y11001056D01*
X6194899Y10999733D01*
X5954808Y10886182D01*
X5954800Y10886178D01*
X5952018Y10884862D01*
X5949373Y10883277D01*
X5949368Y10883274D01*
X5721573Y10746742D01*
X5718912Y10745147D01*
X5500623Y10583255D01*
X5498338Y10581184D01*
X5498327Y10581175D01*
X5348014Y10444939D01*
X5340623Y10438739D01*
X5318464Y10421551D01*
X5315947Y10419103D01*
X5315942Y10419099D01*
X5305861Y10409295D01*
X5298177Y10401823D01*
X5295934Y10399092D01*
X5279992Y10379685D01*
X5275989Y10375046D01*
X5116761Y10199364D01*
X5114920Y10196882D01*
X5114917Y10196878D01*
X4984906Y10021575D01*
X4954871Y9981077D01*
X4953277Y9978417D01*
X4953276Y9978416D01*
X4832134Y9776298D01*
X4815156Y9747972D01*
X4813827Y9745162D01*
X4700291Y9505103D01*
X4700287Y9505093D01*
X4698964Y9502296D01*
X4607412Y9246413D01*
X4606663Y9243423D01*
X4606661Y9243416D01*
X4543708Y8992070D01*
X4541383Y8982788D01*
X4501513Y8713961D01*
X4501362Y8710879D01*
X4501361Y8710872D01*
X4491440Y8508810D01*
X4490599Y8499201D01*
X4487572Y8475231D01*
X4487014Y8470815D01*
X4486620Y8442520D01*
X4490410Y8403876D01*
X4490898Y8398904D01*
X4491500Y8386605D01*
X4491500Y8020608D01*
X4471498Y7952487D01*
X4459429Y7936624D01*
X4448773Y7924707D01*
X4448768Y7924701D01*
X4445782Y7921361D01*
X4443296Y7917626D01*
X4443295Y7917625D01*
X4369309Y7806477D01*
X4366419Y7802136D01*
X4303711Y7670667D01*
X4302374Y7666388D01*
X4302373Y7666385D01*
X4286156Y7614477D01*
X4261001Y7533961D01*
X4237713Y7390179D01*
X4237631Y7385699D01*
X4235217Y7253993D01*
X4235088Y7246980D01*
X4235641Y7242535D01*
X4235878Y7238056D01*
X4235751Y7238049D01*
X4236271Y7229661D01*
X4236271Y6800000D01*
X4238559Y6768014D01*
X4240867Y6735746D01*
X4241500Y6726889D01*
X4250937Y6694752D01*
X4252167Y6690562D01*
X4255988Y6637132D01*
X4236271Y6500000D01*
X4236271Y6012678D01*
X4236250Y6010370D01*
X4235088Y5946980D01*
X4235641Y5942541D01*
X4252090Y5810491D01*
X4253093Y5802435D01*
X4290766Y5664255D01*
X4292548Y5660138D01*
X4292549Y5660134D01*
X4346044Y5536515D01*
X4348612Y5530580D01*
X4423552Y5408528D01*
X4426415Y5405080D01*
X4426416Y5405078D01*
X4457703Y5367393D01*
X4516592Y5296460D01*
X4571524Y5246738D01*
X4584380Y5235101D01*
X4621461Y5174558D01*
X4619923Y5103578D01*
X4580255Y5044697D01*
X4515050Y5016609D01*
X4490838Y5016007D01*
X4392544Y5023036D01*
X4374749Y5025594D01*
X4184411Y5066998D01*
X4167167Y5072061D01*
X4016461Y5128270D01*
X3984665Y5140129D01*
X3968313Y5147597D01*
X3797352Y5240947D01*
X3782228Y5250666D01*
X3626297Y5367393D01*
X3612710Y5379166D01*
X3474978Y5516896D01*
X3463205Y5530482D01*
X3448518Y5550102D01*
X3378132Y5644125D01*
X3346473Y5686416D01*
X3336754Y5701540D01*
X3243403Y5872499D01*
X3235942Y5888835D01*
X3167865Y6071352D01*
X3162804Y6088593D01*
X3121398Y6278933D01*
X3118839Y6296726D01*
X3115128Y6348612D01*
X3107525Y6454903D01*
X3108616Y6477758D01*
X3108154Y6477799D01*
X3108588Y6482643D01*
X3109397Y6487448D01*
X3109550Y6500000D01*
X3105638Y6527318D01*
X3104366Y6545304D01*
X3106242Y8434568D01*
X3107452Y9653301D01*
X3905453Y9653301D01*
X3947608Y9771122D01*
X3948686Y9774022D01*
X3952148Y9782998D01*
X3905628Y9829519D01*
X3905453Y9653301D01*
X3107452Y9653301D01*
X3108779Y10989887D01*
X3906780Y10989887D01*
X4245259Y11328366D01*
X3907451Y11666174D01*
X3906780Y10989887D01*
X3108779Y10989887D01*
X3110028Y12247604D01*
X4454562Y12247604D01*
X4809529Y11892637D01*
X5164498Y12247605D01*
X6293039Y12247605D01*
X6593716Y11946928D01*
X6597082Y11947512D01*
X6600137Y11948004D01*
X6662542Y11957259D01*
X6648984Y11980184D01*
X6645171Y11987119D01*
X6614046Y12048204D01*
X6610676Y12055365D01*
X6598132Y12084351D01*
X6595218Y12091712D01*
X6571987Y12156236D01*
X6569540Y12163765D01*
X6523123Y12323535D01*
X6521487Y12329755D01*
X6508694Y12383979D01*
X6507378Y12390273D01*
X6502763Y12415540D01*
X6501769Y12421894D01*
X6497798Y12452364D01*
X6293039Y12247605D01*
X5164498Y12247605D01*
X4809530Y12602573D01*
X4454562Y12247604D01*
X3110028Y12247604D01*
X3110607Y12830191D01*
X3908607Y12830191D01*
X4245259Y13166843D01*
X5373800Y13166843D01*
X5728768Y12811875D01*
X6083736Y13166844D01*
X5728769Y13521811D01*
X5373800Y13166843D01*
X4245259Y13166843D01*
X3909275Y13502826D01*
X3908607Y12830191D01*
X3110607Y12830191D01*
X3111854Y14086083D01*
X4454562Y14086083D01*
X4809530Y13731114D01*
X5164498Y14086082D01*
X4809529Y14441050D01*
X4454562Y14086083D01*
X3111854Y14086083D01*
X3112434Y14670497D01*
X3910435Y14670497D01*
X4245259Y15005321D01*
X5373800Y15005321D01*
X5728768Y14650353D01*
X6083736Y15005322D01*
X5728769Y15360289D01*
X5373800Y15005321D01*
X4245259Y15005321D01*
X3911099Y15339481D01*
X3910435Y14670497D01*
X3112434Y14670497D01*
X3113680Y15924559D01*
X4454562Y15924559D01*
X4809529Y15569592D01*
X4994987Y15755049D01*
X7081620Y15755049D01*
X7081964Y15751544D01*
X7085898Y15711428D01*
X7086500Y15699130D01*
X7086500Y13425231D01*
X7086800Y13422175D01*
X7086800Y13422168D01*
X7087546Y13414564D01*
X7100920Y13278167D01*
X7158084Y13088831D01*
X7250934Y12914204D01*
X7254828Y12909430D01*
X7254829Y12909428D01*
X7258143Y12905365D01*
X7285697Y12839934D01*
X7286500Y12825729D01*
X7286500Y12583498D01*
X7286693Y12581050D01*
X7286693Y12581042D01*
X7288858Y12553539D01*
X7289438Y12546169D01*
X7335855Y12386399D01*
X7339892Y12379573D01*
X7416509Y12250020D01*
X7416511Y12250017D01*
X7420547Y12243193D01*
X7538193Y12125547D01*
X7545016Y12121512D01*
X7545020Y12121509D01*
X7632549Y12069745D01*
X7681399Y12040855D01*
X7689010Y12038644D01*
X7689012Y12038643D01*
X7741231Y12023472D01*
X7841169Y11994438D01*
X7847574Y11993934D01*
X7847579Y11993933D01*
X7876042Y11991693D01*
X7876050Y11991693D01*
X7878498Y11991500D01*
X8311502Y11991500D01*
X8313950Y11991693D01*
X8313958Y11991693D01*
X8342421Y11993933D01*
X8342426Y11993934D01*
X8348831Y11994438D01*
X8448769Y12023472D01*
X8500988Y12038643D01*
X8500990Y12038644D01*
X8508601Y12040855D01*
X8651807Y12125547D01*
X8654747Y12128487D01*
X8719271Y12153821D01*
X8788894Y12139920D01*
X8807640Y12127871D01*
X8815323Y12121911D01*
X8944779Y12045352D01*
X8959210Y12039107D01*
X9093605Y12000061D01*
X9107706Y12000101D01*
X9111000Y12007370D01*
X9111000Y13603000D01*
X9131002Y13671121D01*
X9184658Y13717614D01*
X9237000Y13729000D01*
X9493000Y13729000D01*
X9561121Y13708998D01*
X9607614Y13655342D01*
X9619000Y13603000D01*
X9619000Y12013122D01*
X9622973Y11999591D01*
X9630871Y11998456D01*
X9770790Y12039107D01*
X9785221Y12045352D01*
X9914676Y12121910D01*
X9922364Y12127874D01*
X9988449Y12153821D01*
X10058072Y12139920D01*
X10074158Y12129582D01*
X10078193Y12125547D01*
X10221399Y12040855D01*
X10229010Y12038644D01*
X10229012Y12038643D01*
X10281231Y12023472D01*
X10381169Y11994438D01*
X10387574Y11993934D01*
X10387579Y11993933D01*
X10416042Y11991693D01*
X10416050Y11991693D01*
X10418498Y11991500D01*
X10851502Y11991500D01*
X10853950Y11991693D01*
X10853958Y11991693D01*
X10882421Y11993933D01*
X10882426Y11993934D01*
X10888831Y11994438D01*
X10988769Y12023472D01*
X11040988Y12038643D01*
X11040990Y12038644D01*
X11048601Y12040855D01*
X11191807Y12125547D01*
X11194489Y12128229D01*
X11258861Y12153502D01*
X11328484Y12139600D01*
X11344312Y12129428D01*
X11348193Y12125547D01*
X11491399Y12040855D01*
X11499010Y12038644D01*
X11499012Y12038643D01*
X11551231Y12023472D01*
X11651169Y11994438D01*
X11657574Y11993934D01*
X11657579Y11993933D01*
X11686042Y11991693D01*
X11686050Y11991693D01*
X11688498Y11991500D01*
X12121502Y11991500D01*
X12123950Y11991693D01*
X12123958Y11991693D01*
X12152421Y11993933D01*
X12152426Y11993934D01*
X12158831Y11994438D01*
X12258769Y12023472D01*
X12310988Y12038643D01*
X12310990Y12038644D01*
X12318601Y12040855D01*
X12367451Y12069745D01*
X12454980Y12121509D01*
X12454984Y12121512D01*
X12461807Y12125547D01*
X12579453Y12243193D01*
X12582062Y12247604D01*
X13646950Y12247604D01*
X13888054Y12006500D01*
X14115782Y12006500D01*
X14128709Y12019427D01*
X14114046Y12048204D01*
X14110676Y12055365D01*
X14098132Y12084351D01*
X14095218Y12091712D01*
X14071987Y12156236D01*
X14069540Y12163765D01*
X14023123Y12323535D01*
X14021487Y12329755D01*
X14008694Y12383979D01*
X14007378Y12390273D01*
X14002763Y12415540D01*
X14001769Y12421894D01*
X13994566Y12477157D01*
X13993897Y12483556D01*
X13990959Y12520885D01*
X13990789Y12523357D01*
X13989526Y12544785D01*
X13989405Y12547258D01*
X13989017Y12557144D01*
X13988944Y12559614D01*
X13988524Y12581027D01*
X13988500Y12583498D01*
X13988500Y12589154D01*
X13646950Y12247604D01*
X12582062Y12247604D01*
X12583489Y12250017D01*
X12583491Y12250020D01*
X12660108Y12379573D01*
X12664145Y12386399D01*
X12710562Y12546169D01*
X12711143Y12553539D01*
X12713307Y12581042D01*
X12713307Y12581050D01*
X12713500Y12583498D01*
X12713500Y14086083D01*
X13646950Y14086083D01*
X13788500Y13944533D01*
X13788500Y14227633D01*
X13646950Y14086083D01*
X12713500Y14086083D01*
X12713500Y14366502D01*
X12710562Y14403831D01*
X12664145Y14563601D01*
X12594268Y14681757D01*
X12583491Y14699980D01*
X12583489Y14699983D01*
X12579453Y14706807D01*
X12461807Y14824453D01*
X12454983Y14828489D01*
X12454980Y14828491D01*
X12325427Y14905108D01*
X12325428Y14905108D01*
X12318601Y14909145D01*
X12310990Y14911356D01*
X12310988Y14911357D01*
X12258769Y14926528D01*
X12158831Y14955562D01*
X12152426Y14956066D01*
X12152421Y14956067D01*
X12123958Y14958307D01*
X12123950Y14958307D01*
X12121502Y14958500D01*
X11769500Y14958500D01*
X11701379Y14978502D01*
X11654886Y15032158D01*
X11643500Y15084500D01*
X11643500Y15346205D01*
X13068595Y15346205D01*
X13143723Y15271077D01*
X13149142Y15265308D01*
X13194485Y15213877D01*
X13199530Y15207778D01*
X13218888Y15182822D01*
X13223541Y15176418D01*
X13262083Y15119706D01*
X13266324Y15113022D01*
X13351016Y14969816D01*
X13354829Y14962881D01*
X13368458Y14936132D01*
X13437647Y15005321D01*
X13082678Y15360289D01*
X13068595Y15346205D01*
X11643500Y15346205D01*
X11643500Y15924559D01*
X13646950Y15924559D01*
X13783994Y15787515D01*
X13784091Y15794454D01*
X13784189Y15797972D01*
X13785465Y15828443D01*
X13785662Y15831957D01*
X13786643Y15845991D01*
X13786937Y15849497D01*
X13789912Y15879848D01*
X13790304Y15883347D01*
X13790543Y15885239D01*
X13801423Y16079032D01*
X13646950Y15924559D01*
X11643500Y15924559D01*
X11643500Y16843798D01*
X12727711Y16843798D01*
X13082678Y16488831D01*
X13437647Y16843799D01*
X13082679Y17198767D01*
X12727711Y16843798D01*
X11643500Y16843798D01*
X11643500Y17763037D01*
X13646950Y17763037D01*
X14001917Y17408070D01*
X14356886Y17763038D01*
X14001918Y18118006D01*
X13646950Y17763037D01*
X11643500Y17763037D01*
X11643500Y18682277D01*
X12727711Y18682277D01*
X13082679Y18327308D01*
X13437647Y18682276D01*
X13082678Y19037244D01*
X12727711Y18682277D01*
X11643500Y18682277D01*
X11643500Y19601516D01*
X13646950Y19601516D01*
X14001918Y19246547D01*
X14356886Y19601515D01*
X14001917Y19956483D01*
X13646950Y19601516D01*
X11643500Y19601516D01*
X11643500Y19837154D01*
X11644494Y19852947D01*
X11647543Y19877078D01*
X11647543Y19877083D01*
X11647985Y19880579D01*
X11648380Y19908874D01*
X11646425Y19928820D01*
X11645944Y19935614D01*
X11645549Y19944672D01*
X11632641Y20240349D01*
X11626671Y20285702D01*
X11595726Y20520754D01*
X12727710Y20520754D01*
X13082678Y20165786D01*
X13437646Y20520754D01*
X13082678Y20875722D01*
X12727710Y20520754D01*
X11595726Y20520754D01*
X11589694Y20566576D01*
X11589693Y20566582D01*
X11589335Y20569301D01*
X11517524Y20893227D01*
X11514609Y20902474D01*
X11418585Y21207026D01*
X11418584Y21207030D01*
X11417754Y21209661D01*
X11290785Y21516196D01*
X11284531Y21528211D01*
X11191452Y21707014D01*
X12075493Y21707014D01*
X12155011Y21515037D01*
X12156036Y21512485D01*
X12164676Y21490266D01*
X12165645Y21487691D01*
X12169404Y21477362D01*
X12170315Y21474772D01*
X12177966Y21452232D01*
X12178820Y21449620D01*
X12262532Y21184116D01*
X12518408Y21439992D01*
X13646950Y21439992D01*
X14001917Y21085025D01*
X14356886Y21439993D01*
X14001918Y21794961D01*
X13646950Y21439992D01*
X12518408Y21439992D01*
X12163440Y21794961D01*
X12075493Y21707014D01*
X11191452Y21707014D01*
X11138846Y21808070D01*
X11138845Y21808071D01*
X11137582Y21810498D01*
X11129244Y21823587D01*
X10960791Y22088004D01*
X10960790Y22088005D01*
X10959311Y22090327D01*
X10757331Y22353555D01*
X10752130Y22359231D01*
X12727711Y22359231D01*
X13082678Y22004264D01*
X13437647Y22359232D01*
X13082679Y22714200D01*
X12727711Y22359231D01*
X10752130Y22359231D01*
X10572994Y22554723D01*
X10566332Y22562620D01*
X10553796Y22578781D01*
X10534068Y22599068D01*
X10500180Y22626904D01*
X10491061Y22635173D01*
X10345405Y22780829D01*
X10311379Y22843141D01*
X10308500Y22869924D01*
X10308500Y23278470D01*
X11808472Y23278470D01*
X12163440Y22923502D01*
X12518408Y23278471D01*
X13646950Y23278471D01*
X14001918Y22923502D01*
X14356886Y23278470D01*
X14001917Y23633438D01*
X13646950Y23278471D01*
X12518408Y23278471D01*
X12163441Y23633438D01*
X11808472Y23278470D01*
X10308500Y23278470D01*
X10308500Y24250400D01*
X10301004Y24322649D01*
X10298238Y24349308D01*
X10298237Y24349312D01*
X10297526Y24356166D01*
X10283545Y24398074D01*
X10281773Y24403386D01*
X11094911Y24403386D01*
X11102239Y24332757D01*
X11102534Y24329511D01*
X11104719Y24301382D01*
X11104929Y24298136D01*
X11105602Y24285132D01*
X11105728Y24281878D01*
X11106458Y24253658D01*
X11106500Y24250400D01*
X11106500Y23980442D01*
X11244201Y23842741D01*
X11599169Y24197710D01*
X12727711Y24197710D01*
X13082679Y23842741D01*
X13437647Y24197709D01*
X13082678Y24552677D01*
X12727711Y24197710D01*
X11599169Y24197710D01*
X11244202Y24552677D01*
X11094911Y24403386D01*
X10281773Y24403386D01*
X10243868Y24516998D01*
X10241550Y24523946D01*
X10148478Y24674348D01*
X10023303Y24799305D01*
X10008719Y24808295D01*
X9878968Y24888275D01*
X9878966Y24888276D01*
X9872738Y24892115D01*
X9786608Y24920683D01*
X9711389Y24945632D01*
X9711387Y24945632D01*
X9704861Y24947797D01*
X9698025Y24948497D01*
X9698022Y24948498D01*
X9649034Y24953517D01*
X9600400Y24958500D01*
X8399600Y24958500D01*
X8396354Y24958163D01*
X8396350Y24958163D01*
X8300692Y24948238D01*
X8300688Y24948237D01*
X8293834Y24947526D01*
X8287298Y24945345D01*
X8287296Y24945345D01*
X8192868Y24913841D01*
X8126054Y24891550D01*
X7975652Y24798478D01*
X7850695Y24673303D01*
X7846855Y24667073D01*
X7846854Y24667072D01*
X7772760Y24546869D01*
X7757885Y24522738D01*
X7702203Y24354861D01*
X7701503Y24348025D01*
X7701502Y24348022D01*
X7697091Y24304969D01*
X7691500Y24250400D01*
X7691500Y21149600D01*
X7691837Y21146354D01*
X7691837Y21146350D01*
X7701676Y21051522D01*
X7702474Y21043834D01*
X7758450Y20876054D01*
X7851522Y20725652D01*
X7976697Y20600695D01*
X7982927Y20596855D01*
X7982928Y20596854D01*
X8106385Y20520754D01*
X8127262Y20507885D01*
X8207005Y20481436D01*
X8288611Y20454368D01*
X8288613Y20454368D01*
X8295139Y20452203D01*
X8301975Y20451503D01*
X8301978Y20451502D01*
X8345031Y20447091D01*
X8399600Y20441500D01*
X9448177Y20441500D01*
X9516298Y20421498D01*
X9562791Y20367842D01*
X9571756Y20340080D01*
X9609631Y20149662D01*
X9611782Y20133322D01*
X9623414Y19955842D01*
X9622899Y19933556D01*
X9621719Y19923037D01*
X9622235Y19916893D01*
X9626058Y19871360D01*
X9626500Y19860818D01*
X9626500Y19684500D01*
X9606498Y19616379D01*
X9552842Y19569886D01*
X9500500Y19558500D01*
X8399600Y19558500D01*
X8396354Y19558163D01*
X8396350Y19558163D01*
X8300692Y19548238D01*
X8300688Y19548237D01*
X8293834Y19547526D01*
X8287298Y19545345D01*
X8287296Y19545345D01*
X8155194Y19501272D01*
X8126054Y19491550D01*
X7975652Y19398478D01*
X7850695Y19273303D01*
X7757885Y19122738D01*
X7702203Y18954861D01*
X7691500Y18850400D01*
X7691500Y17454854D01*
X7671498Y17386733D01*
X7659452Y17370895D01*
X7640433Y17349613D01*
X7474472Y17115711D01*
X7335745Y16864698D01*
X7334396Y16861442D01*
X7334392Y16861433D01*
X7227351Y16603006D01*
X7227348Y16602998D01*
X7225995Y16599731D01*
X7146602Y16324141D01*
X7146010Y16320656D01*
X7146009Y16320652D01*
X7119077Y16162121D01*
X7098567Y16041395D01*
X7085978Y15817157D01*
X7085185Y15808449D01*
X7082014Y15783344D01*
X7081620Y15755049D01*
X4994987Y15755049D01*
X5164498Y15924560D01*
X4809530Y16279528D01*
X4454562Y15924559D01*
X3113680Y15924559D01*
X3114262Y16510803D01*
X3912263Y16510803D01*
X4245259Y16843799D01*
X5373800Y16843799D01*
X5728769Y16488831D01*
X6083736Y16843798D01*
X5728768Y17198767D01*
X5373800Y16843799D01*
X4245259Y16843799D01*
X3912923Y17176135D01*
X3912263Y16510803D01*
X3114262Y16510803D01*
X3115505Y17763037D01*
X4454562Y17763037D01*
X4809529Y17408070D01*
X5164498Y17763038D01*
X6293039Y17763038D01*
X6648008Y17408070D01*
X6838864Y17598926D01*
X6893500Y17675929D01*
X6893500Y17872513D01*
X6648007Y18118006D01*
X6293039Y17763038D01*
X5164498Y17763038D01*
X4809530Y18118006D01*
X4454562Y17763037D01*
X3115505Y17763037D01*
X3116089Y18351107D01*
X3914090Y18351107D01*
X4245259Y18682276D01*
X5373800Y18682276D01*
X5728768Y18327308D01*
X6083736Y18682277D01*
X5728769Y19037244D01*
X5373800Y18682276D01*
X4245259Y18682276D01*
X3914747Y19012788D01*
X3914090Y18351107D01*
X3116089Y18351107D01*
X3117331Y19601516D01*
X4454562Y19601516D01*
X4809530Y19246547D01*
X5164498Y19601515D01*
X6293039Y19601515D01*
X6648007Y19246547D01*
X7002975Y19601516D01*
X6648008Y19956483D01*
X6293039Y19601515D01*
X5164498Y19601515D01*
X4809529Y19956483D01*
X4454562Y19601516D01*
X3117331Y19601516D01*
X3117917Y20191412D01*
X3915917Y20191412D01*
X4245258Y20520754D01*
X5373801Y20520754D01*
X5728769Y20165786D01*
X6083737Y20520754D01*
X5728769Y20875722D01*
X5373801Y20520754D01*
X4245258Y20520754D01*
X3916571Y20849442D01*
X3915917Y20191412D01*
X3117917Y20191412D01*
X3119157Y21439992D01*
X4454562Y21439992D01*
X4809529Y21085025D01*
X5164498Y21439993D01*
X6293039Y21439993D01*
X6648008Y21085025D01*
X6893500Y21330517D01*
X6893500Y21549468D01*
X6648007Y21794961D01*
X6293039Y21439993D01*
X5164498Y21439993D01*
X4809530Y21794961D01*
X4454562Y21439992D01*
X3119157Y21439992D01*
X3119744Y22031718D01*
X3917744Y22031718D01*
X4245259Y22359232D01*
X5373800Y22359232D01*
X5728769Y22004264D01*
X6083736Y22359231D01*
X5728768Y22714200D01*
X5373800Y22359232D01*
X4245259Y22359232D01*
X3918394Y22686097D01*
X3917744Y22031718D01*
X3119744Y22031718D01*
X3120982Y23278471D01*
X4454562Y23278471D01*
X4809530Y22923502D01*
X5164498Y23278470D01*
X6293039Y23278470D01*
X6648007Y22923502D01*
X6893500Y23168995D01*
X6893500Y23387946D01*
X6648008Y23633438D01*
X6293039Y23278470D01*
X5164498Y23278470D01*
X4809529Y23633438D01*
X4454562Y23278471D01*
X3120982Y23278471D01*
X3121572Y23872022D01*
X3919572Y23872022D01*
X4065580Y24018030D01*
X5553479Y24018030D01*
X5728768Y23842741D01*
X6083736Y24197710D01*
X5927449Y24353997D01*
X5916480Y24338447D01*
X5788338Y24189993D01*
X5770531Y24173035D01*
X5615994Y24052297D01*
X5595230Y24039120D01*
X5553479Y24018030D01*
X4065580Y24018030D01*
X4226882Y24179332D01*
X4195516Y24206026D01*
X4178434Y24223715D01*
X4056621Y24377405D01*
X4043300Y24398074D01*
X4041616Y24401352D01*
X3920219Y24522749D01*
X3919572Y23872022D01*
X3121572Y23872022D01*
X3122808Y25116948D01*
X6293039Y25116948D01*
X6648007Y24761980D01*
X7002974Y25116948D01*
X11808472Y25116948D01*
X12163440Y24761980D01*
X12518408Y25116949D01*
X13646950Y25116949D01*
X14001918Y24761980D01*
X14356886Y25116948D01*
X14356885Y25116949D01*
X19162383Y25116949D01*
X19517351Y24761980D01*
X19872319Y25116948D01*
X19517350Y25471916D01*
X19162383Y25116949D01*
X14356885Y25116949D01*
X14001917Y25471916D01*
X13646950Y25116949D01*
X12518408Y25116949D01*
X12163441Y25471916D01*
X11808472Y25116948D01*
X7002974Y25116948D01*
X7002975Y25116949D01*
X6648008Y25471916D01*
X6293039Y25116948D01*
X3122808Y25116948D01*
X3123008Y25318342D01*
X3124507Y25337588D01*
X3128248Y25361615D01*
X3126253Y25376871D01*
X3125510Y25402195D01*
X3127514Y25430208D01*
X3137594Y25571158D01*
X3140152Y25588953D01*
X3154747Y25656045D01*
X3181556Y25779283D01*
X3186620Y25796531D01*
X3235179Y25926721D01*
X3254692Y25979038D01*
X3262159Y25995386D01*
X3272439Y26014211D01*
X3295640Y26056699D01*
X5394312Y26056699D01*
X5426650Y26046689D01*
X5449320Y26037160D01*
X5621828Y25943885D01*
X5642214Y25930134D01*
X5793319Y25805129D01*
X5810647Y25787680D01*
X5821690Y25774140D01*
X6083737Y26036187D01*
X7212277Y26036187D01*
X7567245Y25681219D01*
X7922214Y26036187D01*
X9050755Y26036187D01*
X9330442Y25756500D01*
X9481005Y25756500D01*
X9758053Y26033548D01*
X10891873Y26033548D01*
X11244202Y25681219D01*
X11588345Y26025362D01*
X12738535Y26025362D01*
X13082678Y25681219D01*
X13418635Y26017175D01*
X14585200Y26017175D01*
X14921157Y25681219D01*
X15254149Y26014211D01*
X14585200Y26017175D01*
X13418635Y26017175D01*
X13423784Y26022324D01*
X12738535Y26025362D01*
X11588345Y26025362D01*
X11593421Y26030438D01*
X10891873Y26033548D01*
X9758053Y26033548D01*
X9760692Y26036187D01*
X16404666Y26036187D01*
X16684353Y25756500D01*
X16834916Y25756500D01*
X17007185Y25928769D01*
X18350561Y25928769D01*
X18598111Y25681219D01*
X18953080Y26036187D01*
X20081621Y26036187D01*
X20436590Y25681219D01*
X20699276Y25943905D01*
X20705641Y26122103D01*
X20436589Y26391155D01*
X20081621Y26036187D01*
X18953080Y26036187D01*
X18793404Y26195863D01*
X18788338Y26189993D01*
X18770531Y26173035D01*
X18615994Y26052297D01*
X18595230Y26039120D01*
X18420184Y25950699D01*
X18397258Y25941807D01*
X18350561Y25928769D01*
X17007185Y25928769D01*
X17114603Y26036187D01*
X16879451Y26271339D01*
X16813666Y26241731D01*
X16810174Y26240222D01*
X16779727Y26227610D01*
X16776193Y26226208D01*
X16761967Y26220812D01*
X16758387Y26219516D01*
X16727186Y26208748D01*
X16723566Y26207559D01*
X16509256Y26140777D01*
X16404666Y26036187D01*
X9760692Y26036187D01*
X9758306Y26038573D01*
X9056253Y26041685D01*
X9050755Y26036187D01*
X7922214Y26036187D01*
X7911642Y26046759D01*
X7225889Y26049799D01*
X7212277Y26036187D01*
X6083737Y26036187D01*
X6064979Y26054945D01*
X5395525Y26057912D01*
X5394312Y26056699D01*
X3295640Y26056699D01*
X3355504Y26166331D01*
X3365222Y26181454D01*
X3394686Y26220812D01*
X3481954Y26337387D01*
X3493727Y26350972D01*
X3631455Y26488697D01*
X3645041Y26500470D01*
X3800970Y26617194D01*
X3816095Y26626914D01*
X3864319Y26653245D01*
X3987053Y26720260D01*
X4003394Y26727722D01*
X4185904Y26795790D01*
X4203150Y26800854D01*
X4393481Y26842253D01*
X4411271Y26844811D01*
X4573340Y26856397D01*
X4590420Y26855687D01*
X4590420Y26855688D01*
X4599396Y26855578D01*
X4608266Y26854197D01*
X4617170Y26855361D01*
X4617171Y26855361D01*
X4638433Y26858140D01*
X4655323Y26859202D01*
X15540910Y26810948D01*
X15561253Y26809203D01*
X15577648Y26806445D01*
X15577655Y26806444D01*
X15582448Y26805638D01*
X15588801Y26805561D01*
X15590142Y26805544D01*
X15590145Y26805544D01*
X15595000Y26805485D01*
X15599805Y26806173D01*
X15602425Y26806344D01*
X15607769Y26806888D01*
X15688406Y26811765D01*
X15894123Y26824208D01*
X15894128Y26824209D01*
X15897920Y26824438D01*
X16063932Y26854861D01*
X16192671Y26878453D01*
X16192678Y26878455D01*
X16196423Y26879141D01*
X16441225Y26955425D01*
X19162383Y26955425D01*
X19517350Y26600458D01*
X19872319Y26955426D01*
X19517351Y27310394D01*
X19162383Y26955425D01*
X16441225Y26955425D01*
X16486156Y26969426D01*
X16762894Y27093976D01*
X16766151Y27095945D01*
X16766155Y27095947D01*
X16993120Y27233153D01*
X17022601Y27250975D01*
X17042263Y27266379D01*
X17258495Y27435787D01*
X17258500Y27435792D01*
X17261490Y27438134D01*
X17476077Y27652723D01*
X17478433Y27655730D01*
X17660887Y27888616D01*
X17660893Y27888624D01*
X17663235Y27891614D01*
X17700055Y27952522D01*
X18605855Y27952522D01*
X18621828Y27943885D01*
X18642214Y27930134D01*
X18793319Y27805129D01*
X18810647Y27787680D01*
X18835555Y27757140D01*
X18953080Y27874665D01*
X20081621Y27874665D01*
X20436590Y27519697D01*
X20791557Y27874664D01*
X20436589Y28229633D01*
X20081621Y27874665D01*
X18953080Y27874665D01*
X18688473Y28139272D01*
X18688014Y28138062D01*
X18686610Y28134523D01*
X18673987Y28104048D01*
X18672478Y28100555D01*
X18605855Y27952522D01*
X17700055Y27952522D01*
X17820232Y28151322D01*
X17944780Y28428060D01*
X18035063Y28717794D01*
X18049010Y28793904D01*
X19162383Y28793904D01*
X19517351Y28438935D01*
X19872319Y28793903D01*
X21000860Y28793903D01*
X21281337Y28513426D01*
X21333382Y28639074D01*
X21334263Y28641147D01*
X21342051Y28659037D01*
X21342968Y28661092D01*
X21346705Y28669274D01*
X21347657Y28671310D01*
X21356060Y28688872D01*
X21357047Y28690889D01*
X21509416Y28995284D01*
X21355829Y29148871D01*
X21000860Y28793903D01*
X19872319Y28793903D01*
X19517350Y29148871D01*
X19162383Y28793904D01*
X18049010Y28793904D01*
X18053322Y28817433D01*
X18089078Y29012552D01*
X18089079Y29012556D01*
X18089764Y29016297D01*
X18094731Y29098413D01*
X18106219Y29288370D01*
X18107736Y29301671D01*
X18107769Y29301869D01*
X18107769Y29301870D01*
X18108576Y29306666D01*
X18108729Y29319218D01*
X18104758Y29346944D01*
X18103486Y29364762D01*
X18103483Y29377193D01*
X18103386Y29713142D01*
X20081621Y29713142D01*
X20436589Y29358174D01*
X20791557Y29713143D01*
X20436590Y30068110D01*
X20081621Y29713142D01*
X18103386Y29713142D01*
X18103119Y30632380D01*
X19162383Y30632380D01*
X19517350Y30277413D01*
X19872319Y30632381D01*
X21000860Y30632381D01*
X21355829Y30277413D01*
X21710796Y30632380D01*
X21355828Y30987349D01*
X21000860Y30632381D01*
X19872319Y30632381D01*
X19517351Y30987349D01*
X19162383Y30632380D01*
X18103119Y30632380D01*
X18102853Y31551620D01*
X20081621Y31551620D01*
X20436590Y31196652D01*
X20791557Y31551619D01*
X20436589Y31906588D01*
X20081621Y31551620D01*
X18102853Y31551620D01*
X18102587Y32470858D01*
X19162383Y32470858D01*
X19517350Y32115891D01*
X19854365Y32452905D01*
X21492001Y32452905D01*
X21492338Y32446386D01*
X21502257Y32350794D01*
X21505149Y32337400D01*
X21556588Y32183216D01*
X21562761Y32170038D01*
X21648063Y32032193D01*
X21657099Y32020792D01*
X21771829Y31906261D01*
X21783240Y31897249D01*
X21921243Y31812184D01*
X21934424Y31806037D01*
X22088710Y31754862D01*
X22102086Y31751995D01*
X22196438Y31742328D01*
X22202854Y31742000D01*
X23727885Y31742000D01*
X23743124Y31746475D01*
X23744329Y31747865D01*
X23746000Y31755548D01*
X23746000Y33227885D01*
X23741525Y33243124D01*
X23740135Y33244329D01*
X23732452Y33246000D01*
X21510116Y33246000D01*
X21494877Y33241525D01*
X21493672Y33240135D01*
X21492001Y33232452D01*
X21492001Y32452905D01*
X19854365Y32452905D01*
X19872319Y32470859D01*
X19517351Y32825827D01*
X19162383Y32470858D01*
X18102587Y32470858D01*
X18102321Y33390097D01*
X20081621Y33390097D01*
X20436589Y33035129D01*
X20698794Y33297334D01*
X20707200Y33375526D01*
X20709357Y33388841D01*
X20720743Y33441183D01*
X20722354Y33447735D01*
X20724844Y33456811D01*
X20436590Y33745065D01*
X20081621Y33390097D01*
X18102321Y33390097D01*
X18102210Y33772115D01*
X21492000Y33772115D01*
X21496475Y33756876D01*
X21497865Y33755671D01*
X21505548Y33754000D01*
X23727885Y33754000D01*
X23743124Y33758475D01*
X23744329Y33759865D01*
X23746000Y33767548D01*
X23746000Y33772115D01*
X24254000Y33772115D01*
X24258475Y33756876D01*
X24259865Y33755671D01*
X24267548Y33754000D01*
X26489884Y33754000D01*
X26505123Y33758475D01*
X26506328Y33759865D01*
X26507999Y33767548D01*
X26507999Y34547095D01*
X26507662Y34553614D01*
X26497743Y34649206D01*
X26494851Y34662600D01*
X26443412Y34816784D01*
X26437239Y34829962D01*
X26351937Y34967807D01*
X26342901Y34979208D01*
X26228171Y35093739D01*
X26216760Y35102751D01*
X26078757Y35187816D01*
X26065576Y35193963D01*
X25961222Y35228576D01*
X27435532Y35228576D01*
X27768426Y34895682D01*
X27838381Y34921488D01*
X28145468Y35228575D01*
X27937368Y35436674D01*
X34997542Y35436674D01*
X35023033Y35400370D01*
X35027058Y35394268D01*
X35120130Y35243866D01*
X35123795Y35237541D01*
X35153939Y35181850D01*
X35157231Y35175324D01*
X35169611Y35148897D01*
X35172520Y35142186D01*
X35196019Y35083360D01*
X35198533Y35076495D01*
X35235749Y34964946D01*
X35499377Y35228575D01*
X36627920Y35228575D01*
X36793896Y35062599D01*
X36792933Y35393587D01*
X36627920Y35228575D01*
X35499377Y35228575D01*
X35499378Y35228576D01*
X35144411Y35583543D01*
X34997542Y35436674D01*
X27937368Y35436674D01*
X27790499Y35583543D01*
X27435532Y35228576D01*
X25961222Y35228576D01*
X25911290Y35245138D01*
X25897914Y35248005D01*
X25803562Y35257672D01*
X25797145Y35258000D01*
X24272115Y35258000D01*
X24256876Y35253525D01*
X24255671Y35252135D01*
X24254000Y35244452D01*
X24254000Y33772115D01*
X23746000Y33772115D01*
X23746000Y35239884D01*
X23741525Y35255123D01*
X23740135Y35256328D01*
X23732452Y35257999D01*
X22202905Y35257999D01*
X22196386Y35257662D01*
X22100794Y35247743D01*
X22087400Y35244851D01*
X21933216Y35193412D01*
X21920038Y35187239D01*
X21782193Y35101937D01*
X21770792Y35092901D01*
X21656261Y34978171D01*
X21647249Y34966760D01*
X21562184Y34828757D01*
X21556037Y34815576D01*
X21504862Y34661290D01*
X21501995Y34647914D01*
X21492328Y34553562D01*
X21492000Y34547145D01*
X21492000Y33772115D01*
X18102210Y33772115D01*
X18102054Y34309337D01*
X19162383Y34309337D01*
X19517351Y33954368D01*
X19872319Y34309336D01*
X19517350Y34664304D01*
X19162383Y34309337D01*
X18102054Y34309337D01*
X18101787Y35228575D01*
X20081621Y35228575D01*
X20436589Y34873607D01*
X20791557Y35228576D01*
X20436590Y35583543D01*
X20081621Y35228575D01*
X18101787Y35228575D01*
X18101521Y36147813D01*
X19162383Y36147813D01*
X19517350Y35792846D01*
X19872319Y36147814D01*
X21000860Y36147814D01*
X21355829Y35792846D01*
X21710796Y36147813D01*
X22839338Y36147813D01*
X22931152Y36055999D01*
X23457459Y36055999D01*
X23549274Y36147814D01*
X24677815Y36147814D01*
X24769629Y36056000D01*
X25295938Y36056000D01*
X25387751Y36147813D01*
X25387750Y36147814D01*
X26516293Y36147814D01*
X26871262Y35792846D01*
X27226229Y36147813D01*
X28354771Y36147813D01*
X28709738Y35792846D01*
X29064707Y36147814D01*
X30193248Y36147814D01*
X30284562Y36056500D01*
X30811871Y36056500D01*
X30903184Y36147813D01*
X32031726Y36147813D01*
X32123039Y36056500D01*
X32650349Y36056500D01*
X32741662Y36147813D01*
X33870204Y36147813D01*
X33975255Y36042762D01*
X33986198Y36041641D01*
X33993011Y36040754D01*
X34051820Y36031466D01*
X34058578Y36030209D01*
X34085402Y36024458D01*
X34092078Y36022835D01*
X34149509Y36007204D01*
X34156086Y36005220D01*
X34323963Y35949538D01*
X34330832Y35947037D01*
X34365561Y35933235D01*
X34580140Y36147814D01*
X35708681Y36147814D01*
X36063650Y35792846D01*
X36418617Y36147813D01*
X36063649Y36502782D01*
X35708681Y36147814D01*
X34580140Y36147814D01*
X34225172Y36502782D01*
X33870204Y36147813D01*
X32741662Y36147813D01*
X32386694Y36502781D01*
X32031726Y36147813D01*
X30903184Y36147813D01*
X30548216Y36502782D01*
X30193248Y36147814D01*
X29064707Y36147814D01*
X28709739Y36502782D01*
X28354771Y36147813D01*
X27226229Y36147813D01*
X26871261Y36502782D01*
X26516293Y36147814D01*
X25387750Y36147814D01*
X25032783Y36502782D01*
X24677815Y36147814D01*
X23549274Y36147814D01*
X23194306Y36502782D01*
X22839338Y36147813D01*
X21710796Y36147813D01*
X21355828Y36502782D01*
X21000860Y36147814D01*
X19872319Y36147814D01*
X19517351Y36502782D01*
X19162383Y36147813D01*
X18101521Y36147813D01*
X18101254Y37067053D01*
X20081621Y37067053D01*
X20436590Y36712085D01*
X20791557Y37067052D01*
X20791556Y37067053D01*
X21920099Y37067053D01*
X22275068Y36712085D01*
X22630035Y37067052D01*
X23758577Y37067052D01*
X24113544Y36712085D01*
X24468513Y37067053D01*
X25597054Y37067053D01*
X25952023Y36712085D01*
X26306990Y37067052D01*
X27435532Y37067052D01*
X27790499Y36712085D01*
X28145467Y37067052D01*
X29274010Y37067052D01*
X29628977Y36712085D01*
X29983946Y37067053D01*
X31112487Y37067053D01*
X31467456Y36712085D01*
X31822423Y37067052D01*
X32950965Y37067052D01*
X33305932Y36712085D01*
X33660901Y37067053D01*
X34789442Y37067053D01*
X35144411Y36712085D01*
X35499378Y37067052D01*
X35499377Y37067053D01*
X36627920Y37067053D01*
X36788529Y36906444D01*
X36787597Y37226730D01*
X36627920Y37067053D01*
X35499377Y37067053D01*
X35144410Y37422021D01*
X34789442Y37067053D01*
X33660901Y37067053D01*
X33305933Y37422021D01*
X32950965Y37067052D01*
X31822423Y37067052D01*
X31467455Y37422021D01*
X31112487Y37067053D01*
X29983946Y37067053D01*
X29628978Y37422021D01*
X29274010Y37067052D01*
X28145467Y37067052D01*
X28145468Y37067053D01*
X27790500Y37422021D01*
X27435532Y37067052D01*
X26306990Y37067052D01*
X25952022Y37422021D01*
X25597054Y37067053D01*
X24468513Y37067053D01*
X24113545Y37422021D01*
X23758577Y37067052D01*
X22630035Y37067052D01*
X22275067Y37422021D01*
X21920099Y37067053D01*
X20791556Y37067053D01*
X20436589Y37422021D01*
X20081621Y37067053D01*
X18101254Y37067053D01*
X18100988Y37986292D01*
X19162383Y37986292D01*
X19517351Y37631323D01*
X19872319Y37986291D01*
X21000860Y37986291D01*
X21355828Y37631323D01*
X21710796Y37986292D01*
X22839338Y37986292D01*
X23194306Y37631323D01*
X23549274Y37986291D01*
X24677815Y37986291D01*
X25032783Y37631323D01*
X25387750Y37986291D01*
X26516293Y37986291D01*
X26871261Y37631323D01*
X27226229Y37986292D01*
X28354771Y37986292D01*
X28709739Y37631323D01*
X29064707Y37986291D01*
X30193248Y37986291D01*
X30548216Y37631323D01*
X30903184Y37986292D01*
X32031726Y37986292D01*
X32386694Y37631324D01*
X32741662Y37986292D01*
X33870204Y37986292D01*
X34225172Y37631323D01*
X34554909Y37961060D01*
X34536244Y37969215D01*
X34505690Y37986291D01*
X35708681Y37986291D01*
X36063649Y37631323D01*
X36418617Y37986292D01*
X36063650Y38341259D01*
X35708681Y37986291D01*
X34505690Y37986291D01*
X34365055Y38064889D01*
X34344862Y38078923D01*
X34195516Y38206026D01*
X34178434Y38223715D01*
X34147127Y38263215D01*
X33870204Y37986292D01*
X32741662Y37986292D01*
X32386694Y38341260D01*
X32031726Y37986292D01*
X30903184Y37986292D01*
X30548217Y38341259D01*
X30193248Y37986291D01*
X29064707Y37986291D01*
X28709738Y38341259D01*
X28354771Y37986292D01*
X27226229Y37986292D01*
X26871262Y38341259D01*
X26516293Y37986291D01*
X25387750Y37986291D01*
X25387751Y37986292D01*
X25032784Y38341259D01*
X24677815Y37986291D01*
X23549274Y37986291D01*
X23194305Y38341259D01*
X22839338Y37986292D01*
X21710796Y37986292D01*
X21355829Y38341259D01*
X21000860Y37986291D01*
X19872319Y37986291D01*
X19517350Y38341259D01*
X19162383Y37986292D01*
X18100988Y37986292D01*
X18100825Y38550562D01*
X18100722Y38905530D01*
X20081621Y38905530D01*
X20436589Y38550562D01*
X20791556Y38905530D01*
X21920099Y38905530D01*
X22275067Y38550562D01*
X22630035Y38905531D01*
X23758577Y38905531D01*
X24113545Y38550562D01*
X24468513Y38905530D01*
X25597054Y38905530D01*
X25952022Y38550562D01*
X26306990Y38905531D01*
X27435532Y38905531D01*
X27790500Y38550562D01*
X28145468Y38905530D01*
X28145467Y38905531D01*
X29274010Y38905531D01*
X29628978Y38550562D01*
X29983946Y38905530D01*
X31112487Y38905530D01*
X31467455Y38550562D01*
X31822423Y38905531D01*
X32950965Y38905531D01*
X33305933Y38550562D01*
X33660901Y38905530D01*
X36627920Y38905530D01*
X36783163Y38750287D01*
X36782262Y39059871D01*
X36627920Y38905530D01*
X33660901Y38905530D01*
X33305932Y39260498D01*
X32950965Y38905531D01*
X31822423Y38905531D01*
X31467456Y39260498D01*
X31112487Y38905530D01*
X29983946Y38905530D01*
X29628977Y39260498D01*
X29274010Y38905531D01*
X28145467Y38905531D01*
X27790499Y39260498D01*
X27435532Y38905531D01*
X26306990Y38905531D01*
X25952023Y39260498D01*
X25597054Y38905530D01*
X24468513Y38905530D01*
X24113544Y39260498D01*
X23758577Y38905531D01*
X22630035Y38905531D01*
X22275068Y39260498D01*
X21920099Y38905530D01*
X20791556Y38905530D01*
X20791557Y38905531D01*
X20436590Y39260498D01*
X20081621Y38905530D01*
X18100722Y38905530D01*
X18100456Y39824769D01*
X21000860Y39824769D01*
X21355828Y39469801D01*
X21710796Y39824770D01*
X22839338Y39824770D01*
X23194306Y39469801D01*
X23549274Y39824769D01*
X24677815Y39824769D01*
X25032783Y39469801D01*
X25387750Y39824769D01*
X26516293Y39824769D01*
X26871261Y39469801D01*
X27226229Y39824770D01*
X28354771Y39824770D01*
X28709739Y39469801D01*
X29064707Y39824769D01*
X30193248Y39824769D01*
X30548216Y39469801D01*
X30903184Y39824770D01*
X32031726Y39824770D01*
X32386694Y39469802D01*
X32741662Y39824770D01*
X33870204Y39824770D01*
X34062955Y39632018D01*
X34074372Y39648692D01*
X34200429Y39798921D01*
X34217999Y39816127D01*
X34263038Y39852339D01*
X35736252Y39852339D01*
X35793319Y39805129D01*
X35810647Y39787680D01*
X35934595Y39635705D01*
X35948203Y39615223D01*
X35982239Y39551211D01*
X36063649Y39469801D01*
X36418617Y39824770D01*
X36063650Y40179737D01*
X35736252Y39852339D01*
X34263038Y39852339D01*
X34370835Y39939010D01*
X34391412Y39952475D01*
X34431485Y39973425D01*
X34225172Y40179738D01*
X33870204Y39824770D01*
X32741662Y39824770D01*
X32386694Y40179738D01*
X32031726Y39824770D01*
X30903184Y39824770D01*
X30548217Y40179737D01*
X30193248Y39824769D01*
X29064707Y39824769D01*
X28709738Y40179737D01*
X28354771Y39824770D01*
X27226229Y39824770D01*
X26871262Y40179737D01*
X26516293Y39824769D01*
X25387750Y39824769D01*
X25387751Y39824770D01*
X25032784Y40179737D01*
X24677815Y39824769D01*
X23549274Y39824769D01*
X23194305Y40179737D01*
X22839338Y39824770D01*
X21710796Y39824770D01*
X21355829Y40179737D01*
X21000860Y39824769D01*
X18100456Y39824769D01*
X18100395Y40036473D01*
X18101895Y40055893D01*
X18104191Y40070637D01*
X18104191Y40070642D01*
X18105572Y40079511D01*
X18103577Y40094768D01*
X18102834Y40120090D01*
X18114918Y40289053D01*
X18117476Y40306848D01*
X18158880Y40497182D01*
X18163946Y40514432D01*
X18232011Y40696919D01*
X18239479Y40713272D01*
X18239491Y40713293D01*
X18256263Y40744008D01*
X20081621Y40744008D01*
X20436590Y40389040D01*
X20791557Y40744007D01*
X20791556Y40744008D01*
X21920099Y40744008D01*
X22275068Y40389040D01*
X22630036Y40744008D01*
X23758576Y40744008D01*
X24113544Y40389040D01*
X24468513Y40744008D01*
X25597054Y40744008D01*
X25952023Y40389040D01*
X26306991Y40744008D01*
X27435531Y40744008D01*
X27790499Y40389040D01*
X28145467Y40744007D01*
X29274010Y40744007D01*
X29628977Y40389040D01*
X29983946Y40744008D01*
X31112487Y40744008D01*
X31467456Y40389040D01*
X31822423Y40744007D01*
X32950965Y40744007D01*
X33305932Y40389040D01*
X33660901Y40744008D01*
X34789442Y40744008D01*
X35144411Y40389040D01*
X35499379Y40744008D01*
X35464100Y40779287D01*
X34824721Y40779287D01*
X34789442Y40744008D01*
X33660901Y40744008D01*
X33625623Y40779286D01*
X32986244Y40779286D01*
X32950965Y40744007D01*
X31822423Y40744007D01*
X31822424Y40744008D01*
X31787146Y40779286D01*
X31147765Y40779286D01*
X31112487Y40744008D01*
X29983946Y40744008D01*
X29948668Y40779286D01*
X29309288Y40779285D01*
X29274010Y40744007D01*
X28145467Y40744007D01*
X28145468Y40744008D01*
X28110191Y40779285D01*
X27470808Y40779285D01*
X27435531Y40744008D01*
X26306991Y40744008D01*
X26271714Y40779285D01*
X25632330Y40779284D01*
X25597054Y40744008D01*
X24468513Y40744008D01*
X24433237Y40779284D01*
X23793852Y40779284D01*
X23758576Y40744008D01*
X22630036Y40744008D01*
X22594760Y40779284D01*
X21955375Y40779284D01*
X21920099Y40744008D01*
X20791556Y40744008D01*
X20756281Y40779283D01*
X20116896Y40779283D01*
X20081621Y40744008D01*
X18256263Y40744008D01*
X18275526Y40779286D01*
X18332828Y40884225D01*
X18342547Y40899349D01*
X18342566Y40899374D01*
X18459279Y41055281D01*
X18471044Y41068857D01*
X18608776Y41206584D01*
X18622363Y41218357D01*
X18778295Y41335082D01*
X18793420Y41344801D01*
X18964367Y41438139D01*
X18980720Y41445607D01*
X19162416Y41513370D01*
X19163224Y41513671D01*
X19180469Y41518734D01*
X19370804Y41560132D01*
X19388583Y41562688D01*
X19550740Y41574280D01*
X19567736Y41573573D01*
X19567736Y41573584D01*
X19576712Y41573474D01*
X19585584Y41572092D01*
X19594488Y41573256D01*
X19594527Y41573261D01*
X19617163Y41576220D01*
X19633494Y41577283D01*
X27126335Y41577285D01*
X36036419Y41577287D01*
X36055804Y41575787D01*
G37*
%TD.AperFunction*%
%TA.AperFunction,Conductor*%
G36*
X35466612Y17859224D02*
G01*
X35520763Y17813309D01*
X35541500Y17744057D01*
X35541500Y16288118D01*
X35521498Y16219997D01*
X35497332Y16192308D01*
X35480031Y16177531D01*
X35325824Y15996978D01*
X35323245Y15992770D01*
X35323241Y15992764D01*
X35229883Y15840418D01*
X35201760Y15794525D01*
X35199867Y15789955D01*
X35199865Y15789951D01*
X35146815Y15661876D01*
X35110895Y15575156D01*
X35055465Y15344273D01*
X35036835Y15107562D01*
X35055465Y14870851D01*
X35056619Y14866044D01*
X35056620Y14866038D01*
X35091640Y14720171D01*
X35110895Y14639968D01*
X35112788Y14635397D01*
X35112789Y14635395D01*
X35198201Y14429192D01*
X35201760Y14420599D01*
X35204346Y14416379D01*
X35323241Y14222360D01*
X35323245Y14222354D01*
X35325824Y14218146D01*
X35447018Y14076246D01*
X35472109Y14046869D01*
X35480031Y14037593D01*
X35660584Y13883386D01*
X35664792Y13880807D01*
X35664798Y13880803D01*
X35807192Y13793544D01*
X35863037Y13759322D01*
X35867607Y13757429D01*
X35867611Y13757427D01*
X36075974Y13671121D01*
X36082406Y13668457D01*
X36137034Y13655342D01*
X36308476Y13614182D01*
X36308482Y13614181D01*
X36313289Y13613027D01*
X36550000Y13594397D01*
X36786711Y13613027D01*
X36791518Y13614181D01*
X36791524Y13614182D01*
X36962966Y13655342D01*
X37017594Y13668457D01*
X37024026Y13671121D01*
X37232389Y13757427D01*
X37232393Y13757429D01*
X37236963Y13759322D01*
X37292808Y13793544D01*
X37435202Y13880803D01*
X37435208Y13880807D01*
X37439416Y13883386D01*
X37443171Y13886593D01*
X37443175Y13886596D01*
X37445975Y13888988D01*
X37510764Y13918019D01*
X37580964Y13907414D01*
X37634287Y13860540D01*
X37653805Y13793545D01*
X37659776Y11741926D01*
X37639974Y11673750D01*
X37586454Y11627101D01*
X37533778Y11615562D01*
X36822115Y11615562D01*
X36806876Y11611087D01*
X36805671Y11609697D01*
X36804000Y11602014D01*
X36804000Y8617678D01*
X36808475Y8602439D01*
X36809865Y8601234D01*
X36817548Y8599563D01*
X37543289Y8599563D01*
X37611410Y8579561D01*
X37657903Y8525905D01*
X37669288Y8473930D01*
X37671298Y7783369D01*
X37674834Y6568414D01*
X37673335Y6548663D01*
X37671966Y6539867D01*
X37669788Y6525881D01*
X37671783Y6510629D01*
X37672526Y6485303D01*
X37664201Y6368901D01*
X37660441Y6316335D01*
X37657883Y6298541D01*
X37616479Y6108207D01*
X37611414Y6090957D01*
X37543344Y5908455D01*
X37535878Y5892107D01*
X37442525Y5721145D01*
X37432814Y5706034D01*
X37429450Y5701540D01*
X37316084Y5550102D01*
X37304311Y5536515D01*
X37166578Y5398783D01*
X37152991Y5387010D01*
X36997063Y5270285D01*
X36981940Y5260566D01*
X36810983Y5167218D01*
X36794630Y5159750D01*
X36612131Y5091683D01*
X36594882Y5086618D01*
X36517960Y5069885D01*
X36404546Y5045214D01*
X36386756Y5042657D01*
X36224820Y5031077D01*
X36207126Y5031813D01*
X36198630Y5031917D01*
X36189760Y5033298D01*
X36180858Y5032134D01*
X36157988Y5029144D01*
X36141731Y5028081D01*
X27042743Y5022433D01*
X19551499Y5017783D01*
X19483366Y5037743D01*
X19436840Y5091370D01*
X19426692Y5161637D01*
X19456145Y5226236D01*
X19490472Y5254061D01*
X19502242Y5260566D01*
X19723253Y5382716D01*
X19959104Y5550063D01*
X19961735Y5552414D01*
X19961741Y5552419D01*
X20128879Y5701784D01*
X20135614Y5707393D01*
X20152251Y5720298D01*
X20155031Y5722454D01*
X20157548Y5724902D01*
X20157553Y5724906D01*
X20172792Y5739726D01*
X20175318Y5742182D01*
X20193681Y5764537D01*
X20213820Y5784121D01*
X20223860Y5791909D01*
X20223861Y5791910D01*
X20226647Y5794071D01*
X20246934Y5813799D01*
X20251784Y5819703D01*
X25864477Y5819703D01*
X26299951Y5819973D01*
X26299242Y5820682D01*
X27443281Y5820682D01*
X28137288Y5821113D01*
X28136577Y5821824D01*
X29282902Y5821824D01*
X29974626Y5822253D01*
X29628978Y6167901D01*
X29282902Y5821824D01*
X28136577Y5821824D01*
X27790500Y6167901D01*
X27443281Y5820682D01*
X26299242Y5820682D01*
X26177857Y5942067D01*
X26120685Y5913875D01*
X26116960Y5912113D01*
X26084423Y5897371D01*
X26080640Y5895731D01*
X26065413Y5889424D01*
X26061575Y5887907D01*
X26028126Y5875319D01*
X26024245Y5873931D01*
X25864477Y5819703D01*
X20251784Y5819703D01*
X20252006Y5819973D01*
X20263559Y5834039D01*
X20266972Y5838023D01*
X20300301Y5875319D01*
X20420485Y6009808D01*
X20571940Y6223266D01*
X20665948Y6393365D01*
X26855101Y6393365D01*
X26871262Y6377204D01*
X27226229Y6732171D01*
X28354771Y6732171D01*
X28709738Y6377204D01*
X29064707Y6732172D01*
X28709739Y7087140D01*
X28354771Y6732171D01*
X27226229Y6732171D01*
X27192100Y6766301D01*
X27174662Y6741969D01*
X27172204Y6738656D01*
X27162170Y6725581D01*
X27159609Y6722354D01*
X27136955Y6694752D01*
X27134288Y6691610D01*
X26999894Y6538369D01*
X26990598Y6527052D01*
X26988326Y6524363D01*
X26968311Y6501340D01*
X26965964Y6498717D01*
X26956444Y6488365D01*
X26954029Y6485811D01*
X26932786Y6463967D01*
X26930299Y6461480D01*
X26910012Y6441752D01*
X26907457Y6439335D01*
X26885033Y6418715D01*
X26882413Y6416373D01*
X26871796Y6407143D01*
X26869106Y6404869D01*
X26855101Y6393365D01*
X20665948Y6393365D01*
X20695410Y6446673D01*
X20745867Y6496619D01*
X20815317Y6511357D01*
X20824173Y6510362D01*
X20846450Y6507057D01*
X20881036Y6501926D01*
X20881040Y6501926D01*
X20884091Y6501473D01*
X20887176Y6501321D01*
X20887180Y6501321D01*
X20982880Y6496619D01*
X21088660Y6491422D01*
X21098255Y6490581D01*
X21126480Y6487015D01*
X21154775Y6486620D01*
X21198420Y6490899D01*
X21210713Y6491500D01*
X24981724Y6491500D01*
X24997521Y6490506D01*
X25025139Y6487016D01*
X25038265Y6486832D01*
X25049910Y6486669D01*
X25049916Y6486669D01*
X25053434Y6486620D01*
X25056943Y6486964D01*
X25056944Y6486964D01*
X25071236Y6488365D01*
X25079207Y6489146D01*
X25083259Y6489478D01*
X25169613Y6495135D01*
X25297076Y6503485D01*
X25536550Y6551111D01*
X25767759Y6629588D01*
X25798474Y6644734D01*
X25983042Y6735746D01*
X25983048Y6735750D01*
X25986746Y6737573D01*
X26189764Y6873219D01*
X26320113Y6987526D01*
X26325959Y6992349D01*
X26350895Y7011690D01*
X26350909Y7011702D01*
X26353678Y7013850D01*
X26358269Y7018314D01*
X26362867Y7022786D01*
X26373965Y7033578D01*
X26390139Y7053268D01*
X26392750Y7056343D01*
X26529271Y7212010D01*
X26531607Y7214674D01*
X26531608Y7214675D01*
X26534330Y7217779D01*
X26544440Y7232909D01*
X26667693Y7417363D01*
X26667697Y7417370D01*
X26669985Y7420794D01*
X26714085Y7510218D01*
X27576724Y7510218D01*
X27790499Y7296443D01*
X28145467Y7651410D01*
X29274010Y7651410D01*
X29538271Y7387149D01*
X29538271Y7665545D01*
X29537587Y7694833D01*
X29537562Y7699315D01*
X29539342Y7844958D01*
X29539477Y7849436D01*
X29541332Y7888227D01*
X29541626Y7892701D01*
X29543117Y7910545D01*
X29543500Y7914322D01*
X29543500Y7920900D01*
X29274010Y7651410D01*
X28145467Y7651410D01*
X28145468Y7651411D01*
X28048379Y7748500D01*
X27645736Y7748500D01*
X27639133Y7715306D01*
X27638262Y7711272D01*
X27630146Y7676469D01*
X27629144Y7672471D01*
X27624878Y7656551D01*
X27623746Y7652588D01*
X27613376Y7618403D01*
X27612115Y7614477D01*
X27576724Y7510218D01*
X26714085Y7510218D01*
X26777980Y7639780D01*
X26856466Y7870989D01*
X26859895Y7888227D01*
X26903295Y8106411D01*
X26903295Y8106414D01*
X26904101Y8110464D01*
X26915440Y8283471D01*
X26916164Y8291023D01*
X26920117Y8322310D01*
X26920118Y8322322D01*
X26920559Y8325814D01*
X26920954Y8354109D01*
X26916675Y8397747D01*
X26916074Y8410043D01*
X26916074Y8420500D01*
X26936076Y8488621D01*
X26989732Y8535114D01*
X27042074Y8546500D01*
X28493134Y8546500D01*
X28555316Y8553255D01*
X28691705Y8604385D01*
X28808261Y8691739D01*
X28895615Y8808295D01*
X28946745Y8944684D01*
X28953500Y9006866D01*
X28953500Y10803134D01*
X28946745Y10865316D01*
X28895615Y11001705D01*
X28808261Y11118261D01*
X28691705Y11205615D01*
X28555316Y11256745D01*
X28493134Y11263500D01*
X27042074Y11263500D01*
X26973953Y11283502D01*
X26927460Y11337158D01*
X26916074Y11389500D01*
X26916074Y12888301D01*
X27714074Y12888301D01*
X27790500Y12811875D01*
X28145468Y13166843D01*
X28063811Y13248500D01*
X27714074Y13248500D01*
X27714074Y12888301D01*
X26916074Y12888301D01*
X26916074Y13920500D01*
X26936076Y13988621D01*
X26989732Y14035114D01*
X27042074Y14046500D01*
X28493134Y14046500D01*
X28555316Y14053255D01*
X28691705Y14104385D01*
X28808261Y14191739D01*
X28864675Y14267012D01*
X28921533Y14309526D01*
X28992351Y14314552D01*
X29054645Y14280492D01*
X29088635Y14218161D01*
X29091500Y14191446D01*
X29091500Y12813819D01*
X29090715Y12799775D01*
X29086719Y12764149D01*
X29087235Y12758003D01*
X29087235Y12758002D01*
X29087671Y12752806D01*
X29087549Y12750000D01*
X29087075Y12750000D01*
X29087392Y12746376D01*
X29088924Y12728864D01*
X29104742Y12548060D01*
X29157208Y12352256D01*
X29159531Y12347275D01*
X29159531Y12347274D01*
X29240551Y12173524D01*
X29240554Y12173519D01*
X29242877Y12168537D01*
X29275807Y12121509D01*
X29351701Y12013122D01*
X29359148Y12002486D01*
X29502486Y11859148D01*
X29506994Y11855991D01*
X29506997Y11855989D01*
X29608307Y11785051D01*
X29668538Y11742877D01*
X29673520Y11740554D01*
X29673525Y11740551D01*
X29833028Y11666174D01*
X29852256Y11657208D01*
X29875466Y11650989D01*
X29907483Y11642410D01*
X29963966Y11609799D01*
X30261639Y11312127D01*
X30554595Y11019171D01*
X30588620Y10956858D01*
X30591500Y10930075D01*
X30591500Y10921592D01*
X30575778Y10860644D01*
X30549966Y10813941D01*
X30549957Y10813922D01*
X30548253Y10810839D01*
X30546901Y10807576D01*
X30546900Y10807573D01*
X30458569Y10594319D01*
X30458566Y10594311D01*
X30457213Y10591044D01*
X30391355Y10362437D01*
X30351508Y10127894D01*
X30351310Y10124362D01*
X30342204Y9962172D01*
X30341409Y9953444D01*
X30337015Y9918659D01*
X30336620Y9890364D01*
X30336964Y9886859D01*
X30340898Y9846742D01*
X30341500Y9834444D01*
X30341500Y7872040D01*
X30340000Y7852656D01*
X30337283Y7835205D01*
X30337228Y7830738D01*
X30337228Y7830733D01*
X30336879Y7802136D01*
X30335503Y7689562D01*
X30336063Y7685277D01*
X30336271Y7678240D01*
X30336271Y7288953D01*
X30336273Y7288953D01*
X30336682Y7285986D01*
X30335504Y7189562D01*
X30336085Y7185120D01*
X30336085Y7185117D01*
X30346912Y7102317D01*
X30354074Y7047548D01*
X30393245Y6907252D01*
X30450928Y6776159D01*
X30481596Y6726889D01*
X30524480Y6657994D01*
X30527897Y6652504D01*
X30530779Y6649076D01*
X30530780Y6649074D01*
X30615184Y6548663D01*
X30620054Y6542869D01*
X30728639Y6445782D01*
X30732372Y6443297D01*
X30732376Y6443294D01*
X30831662Y6377204D01*
X30847864Y6366419D01*
X30979333Y6303711D01*
X30983612Y6302374D01*
X30983615Y6302373D01*
X31058642Y6278933D01*
X31116039Y6261001D01*
X31120463Y6260284D01*
X31120465Y6260284D01*
X31157597Y6254270D01*
X31259821Y6237713D01*
X31326782Y6236486D01*
X31398539Y6235170D01*
X31398541Y6235170D01*
X31403020Y6235088D01*
X31407465Y6235641D01*
X31411944Y6235878D01*
X31411951Y6235751D01*
X31420339Y6236271D01*
X31850000Y6236271D01*
X31881986Y6238559D01*
X31916373Y6241018D01*
X31916374Y6241018D01*
X31923111Y6241500D01*
X31959440Y6252167D01*
X32012868Y6255988D01*
X32150000Y6236271D01*
X32637322Y6236271D01*
X32639630Y6236250D01*
X32703020Y6235088D01*
X32730382Y6238496D01*
X32843128Y6252540D01*
X32843132Y6252541D01*
X32847565Y6253093D01*
X32985745Y6290766D01*
X32989862Y6292548D01*
X32989866Y6292549D01*
X33115296Y6346827D01*
X33115301Y6346829D01*
X33119420Y6348612D01*
X33213930Y6406641D01*
X34254609Y6406641D01*
X34580140Y6732172D01*
X34508545Y6803767D01*
X34362772Y6657994D01*
X34353777Y6629810D01*
X34352340Y6625568D01*
X34339230Y6589027D01*
X34337642Y6584836D01*
X34330999Y6568206D01*
X34329262Y6564074D01*
X34313586Y6528554D01*
X34311705Y6524489D01*
X34254609Y6406641D01*
X33213930Y6406641D01*
X33241472Y6423552D01*
X33265252Y6443294D01*
X33350093Y6513730D01*
X33350095Y6513732D01*
X33353540Y6516592D01*
X33449654Y6622776D01*
X33452162Y6626494D01*
X33528599Y6739817D01*
X33528602Y6739822D01*
X33531107Y6743536D01*
X33542137Y6766301D01*
X33569158Y6822075D01*
X33593554Y6872428D01*
X33637838Y7011188D01*
X33639188Y7019208D01*
X33641354Y7032086D01*
X33676512Y7100277D01*
X33982247Y7406013D01*
X35034841Y7406013D01*
X35144411Y7296443D01*
X35499379Y7651411D01*
X36627920Y7651411D01*
X36874397Y7404935D01*
X36873243Y7801563D01*
X36804000Y7801563D01*
X36790532Y7802285D01*
X36779933Y7803424D01*
X36627920Y7651411D01*
X35499379Y7651411D01*
X35334822Y7815968D01*
X35300063Y7821964D01*
X35137932Y7551465D01*
X35136308Y7548829D01*
X35121961Y7526174D01*
X35120274Y7523582D01*
X35113404Y7513301D01*
X35111657Y7510755D01*
X35096235Y7488857D01*
X35094423Y7486350D01*
X35034841Y7406013D01*
X33982247Y7406013D01*
X33987398Y7411164D01*
X33999268Y7421629D01*
X34018309Y7436399D01*
X34021281Y7438704D01*
X34041568Y7458432D01*
X34051191Y7470147D01*
X34055178Y7474767D01*
X34259549Y7700256D01*
X34295330Y7748500D01*
X34451621Y7959234D01*
X34453464Y7961719D01*
X34455047Y7964360D01*
X34455053Y7964369D01*
X34619233Y8238288D01*
X34620816Y8240929D01*
X34622132Y8243711D01*
X34758676Y8532407D01*
X34758680Y8532416D01*
X34759996Y8535199D01*
X34869662Y8841694D01*
X34870138Y8841524D01*
X34907771Y8898956D01*
X34972611Y8927876D01*
X35042792Y8917151D01*
X35096034Y8870184D01*
X35099956Y8863515D01*
X35105210Y8853919D01*
X35181715Y8751838D01*
X35194276Y8739277D01*
X35296351Y8662776D01*
X35311946Y8654238D01*
X35432394Y8609084D01*
X35447649Y8605457D01*
X35498514Y8599931D01*
X35505328Y8599562D01*
X36277885Y8599562D01*
X36293124Y8604037D01*
X36294329Y8605427D01*
X36296000Y8613110D01*
X36296000Y11597446D01*
X36291525Y11612685D01*
X36290135Y11613890D01*
X36282452Y11615561D01*
X35505331Y11615561D01*
X35498510Y11615191D01*
X35447648Y11609667D01*
X35432396Y11606041D01*
X35311946Y11560886D01*
X35296352Y11552348D01*
X35214603Y11491081D01*
X35148097Y11466233D01*
X35078714Y11481286D01*
X35028484Y11531460D01*
X35013383Y11585781D01*
X35013380Y11585781D01*
X35013380Y11585783D01*
X35012498Y11594779D01*
X35012018Y11601567D01*
X35011999Y11602014D01*
X35008867Y11673750D01*
X34995984Y11968854D01*
X34995983Y11968865D01*
X34995863Y11971615D01*
X34945455Y12354511D01*
X34861867Y12731557D01*
X34848987Y12772409D01*
X34802563Y12919645D01*
X34745735Y13099883D01*
X34597943Y13456685D01*
X34419617Y13799249D01*
X34342372Y13920500D01*
X34226949Y14101676D01*
X34212112Y14124966D01*
X34103118Y14267011D01*
X33978673Y14429192D01*
X33978668Y14429198D01*
X33977009Y14431360D01*
X33910892Y14503514D01*
X33751052Y14677949D01*
X33744399Y14685835D01*
X33736296Y14696281D01*
X33727134Y14705703D01*
X33726503Y14706493D01*
X33725731Y14707146D01*
X33716568Y14716568D01*
X33711256Y14720931D01*
X33691269Y14741592D01*
X33658741Y14783983D01*
X33642294Y14812469D01*
X33614459Y14879669D01*
X33605946Y14911440D01*
X33602032Y14941168D01*
X33596452Y14983555D01*
X33596452Y15016447D01*
X33598521Y15032158D01*
X33605946Y15088560D01*
X33614459Y15120330D01*
X33642294Y15187531D01*
X33658737Y15216012D01*
X33689105Y15255587D01*
X33701219Y15269207D01*
X33701677Y15269652D01*
X33706493Y15273497D01*
X33739963Y15313103D01*
X33747105Y15320870D01*
X33912399Y15486165D01*
X33924269Y15496630D01*
X33943494Y15511542D01*
X33943496Y15511544D01*
X33946281Y15513704D01*
X33966568Y15533432D01*
X33968801Y15536151D01*
X33968807Y15536157D01*
X33973165Y15541462D01*
X33978001Y15547011D01*
X34245741Y15836650D01*
X34245746Y15836656D01*
X34247423Y15838470D01*
X34504105Y16164069D01*
X34510591Y16173775D01*
X34733069Y16506736D01*
X34733070Y16506738D01*
X34734450Y16508803D01*
X34761018Y16556243D01*
X34935825Y16868380D01*
X34935831Y16868392D01*
X34937038Y16870547D01*
X34941648Y16880545D01*
X35109587Y17244832D01*
X35109589Y17244836D01*
X35110619Y17247071D01*
X35117560Y17265885D01*
X35253266Y17633725D01*
X35253270Y17633736D01*
X35254124Y17636052D01*
X35255520Y17641000D01*
X35289938Y17763038D01*
X35294231Y17778259D01*
X35331973Y17838393D01*
X35396234Y17868575D01*
X35466612Y17859224D01*
G37*
%TD.AperFunction*%
%TA.AperFunction,Conductor*%
G36*
X24056251Y21515678D02*
G01*
X24108263Y21467353D01*
X24119491Y21442824D01*
X24151413Y21347145D01*
X24158450Y21326054D01*
X24251522Y21175652D01*
X24376697Y21050695D01*
X24382927Y21046855D01*
X24382928Y21046854D01*
X24520090Y20962306D01*
X24527262Y20957885D01*
X24607005Y20931436D01*
X24688611Y20904368D01*
X24688613Y20904368D01*
X24695139Y20902203D01*
X24701975Y20901503D01*
X24701978Y20901502D01*
X24745031Y20897091D01*
X24799600Y20891500D01*
X26200400Y20891500D01*
X26215000Y20893015D01*
X26284821Y20880148D01*
X26336602Y20831575D01*
X26354000Y20767687D01*
X26354000Y20231828D01*
X26333998Y20163707D01*
X26280342Y20117214D01*
X26215156Y20106484D01*
X26203558Y20107672D01*
X26197145Y20108000D01*
X25772115Y20108000D01*
X25756876Y20103525D01*
X25755671Y20102135D01*
X25754000Y20094452D01*
X25754000Y18809500D01*
X25733998Y18741379D01*
X25680342Y18694886D01*
X25628000Y18683500D01*
X25372000Y18683500D01*
X25303879Y18703502D01*
X25257386Y18757158D01*
X25246000Y18809500D01*
X25246000Y20089884D01*
X25241525Y20105123D01*
X25240135Y20106328D01*
X25232452Y20107999D01*
X24802905Y20107999D01*
X24796386Y20107662D01*
X24700794Y20097743D01*
X24687400Y20094851D01*
X24533216Y20043412D01*
X24520038Y20037239D01*
X24382193Y19951937D01*
X24370792Y19942901D01*
X24256261Y19828171D01*
X24247249Y19816760D01*
X24162184Y19678757D01*
X24156037Y19665576D01*
X24119625Y19555799D01*
X24079194Y19497439D01*
X24013629Y19470203D01*
X23943748Y19482737D01*
X23891736Y19531062D01*
X23880508Y19555592D01*
X23843413Y19666782D01*
X23837239Y19679962D01*
X23751937Y19817807D01*
X23742901Y19829208D01*
X23628171Y19943739D01*
X23616760Y19952751D01*
X23478757Y20037816D01*
X23465576Y20043963D01*
X23311290Y20095138D01*
X23297914Y20098005D01*
X23203562Y20107672D01*
X23197145Y20108000D01*
X22772115Y20108000D01*
X22756876Y20103525D01*
X22755671Y20102135D01*
X22754000Y20094452D01*
X22754000Y17785116D01*
X22758475Y17769877D01*
X22759865Y17768672D01*
X22767548Y17767001D01*
X23197095Y17767001D01*
X23203614Y17767338D01*
X23299206Y17777257D01*
X23312600Y17780149D01*
X23466784Y17831588D01*
X23479962Y17837761D01*
X23617807Y17923063D01*
X23629208Y17932099D01*
X23743739Y18046829D01*
X23752751Y18058240D01*
X23837816Y18196243D01*
X23843963Y18209424D01*
X23880375Y18319201D01*
X23920806Y18377561D01*
X23986371Y18404797D01*
X24056252Y18392263D01*
X24108264Y18343938D01*
X24119492Y18319408D01*
X24156587Y18208218D01*
X24162761Y18195038D01*
X24248063Y18057193D01*
X24257099Y18045792D01*
X24371829Y17931261D01*
X24383240Y17922249D01*
X24521243Y17837184D01*
X24534424Y17831037D01*
X24688710Y17779862D01*
X24702086Y17776995D01*
X24796438Y17767328D01*
X24802854Y17767000D01*
X25023093Y17767000D01*
X25091214Y17746998D01*
X25137707Y17693342D01*
X25147811Y17623068D01*
X25119615Y17560009D01*
X25104931Y17542510D01*
X25104928Y17542506D01*
X25100972Y17537791D01*
X25098404Y17533121D01*
X25095023Y17529004D01*
X25079493Y17500040D01*
X25051149Y17447179D01*
X25050520Y17446020D01*
X25008664Y17369884D01*
X25008661Y17369876D01*
X25005693Y17364478D01*
X25004081Y17359396D01*
X25001564Y17354702D01*
X24974364Y17265734D01*
X24974044Y17264706D01*
X24945891Y17175959D01*
X24945297Y17170663D01*
X24943739Y17165567D01*
X24938362Y17112627D01*
X24934344Y17073078D01*
X24934215Y17071872D01*
X24928626Y17022038D01*
X24928626Y17018511D01*
X24928571Y17017526D01*
X24928124Y17011846D01*
X24923752Y16968803D01*
X24924332Y16962672D01*
X24926487Y16939872D01*
X24925913Y16911151D01*
X24906426Y16766848D01*
X24906289Y16764443D01*
X24906288Y16764437D01*
X24902376Y16695965D01*
X24901274Y16685052D01*
X24896118Y16649531D01*
X24895285Y16643794D01*
X24894367Y16615511D01*
X24898679Y16561217D01*
X24899074Y16551242D01*
X24899074Y8634500D01*
X24879072Y8566379D01*
X24825416Y8519886D01*
X24773074Y8508500D01*
X23922822Y8508500D01*
X23854701Y8528502D01*
X23808208Y8582158D01*
X23798104Y8652432D01*
X23821996Y8710065D01*
X23890229Y8801108D01*
X23890230Y8801110D01*
X23895615Y8808295D01*
X23946745Y8944684D01*
X23953500Y9006866D01*
X23953500Y10803134D01*
X23946745Y10865316D01*
X23895615Y11001705D01*
X23808261Y11118261D01*
X23691705Y11205615D01*
X23555316Y11256745D01*
X23493134Y11263500D01*
X22714924Y11263500D01*
X22646803Y11283502D01*
X22625829Y11300405D01*
X22505752Y11420482D01*
X22496375Y11430968D01*
X22477843Y11454183D01*
X22477842Y11454184D01*
X22474003Y11458993D01*
X22469303Y11462964D01*
X22469299Y11462969D01*
X22451834Y11477728D01*
X22438431Y11490887D01*
X22411157Y11521987D01*
X22303466Y11644786D01*
X22293439Y11657854D01*
X22165625Y11849142D01*
X22157384Y11863416D01*
X22115913Y11947512D01*
X22055632Y12069753D01*
X22049330Y12084965D01*
X21989954Y12259890D01*
X22851623Y12259890D01*
X22853610Y12255860D01*
X22898975Y12187967D01*
X23025442Y12061500D01*
X23363169Y12061500D01*
X23549274Y12247605D01*
X23194306Y12602573D01*
X22851623Y12259890D01*
X21989954Y12259890D01*
X21975378Y12302830D01*
X21971113Y12318749D01*
X21963466Y12357198D01*
X21944537Y12452364D01*
X21926234Y12544384D01*
X21924083Y12560725D01*
X21911580Y12751529D01*
X21912095Y12773812D01*
X21912593Y12778253D01*
X21913281Y12784381D01*
X21912356Y12795405D01*
X21908942Y12836064D01*
X21908500Y12846605D01*
X21908500Y13165077D01*
X23760344Y13165077D01*
X24101074Y12824347D01*
X24101074Y13421480D01*
X24097446Y13419144D01*
X24089746Y13414564D01*
X24058411Y13397408D01*
X24050403Y13393388D01*
X23979856Y13361051D01*
X23971584Y13357609D01*
X23936003Y13344270D01*
X23830051Y13238318D01*
X23788338Y13189993D01*
X23770530Y13173035D01*
X23760344Y13165077D01*
X21908500Y13165077D01*
X21908500Y13921000D01*
X21928502Y13989121D01*
X21982158Y14035614D01*
X22034500Y14047000D01*
X22322885Y14047000D01*
X22338124Y14051475D01*
X22339329Y14052865D01*
X22341000Y14060548D01*
X22341000Y14065116D01*
X22849000Y14065116D01*
X22853475Y14049877D01*
X22854865Y14048672D01*
X22862548Y14047001D01*
X23489669Y14047001D01*
X23496490Y14047371D01*
X23547352Y14052895D01*
X23562604Y14056521D01*
X23683054Y14101676D01*
X23698649Y14110214D01*
X23800724Y14186715D01*
X23813285Y14199276D01*
X23889786Y14301351D01*
X23898324Y14316946D01*
X23943478Y14437394D01*
X23947105Y14452649D01*
X23952631Y14503514D01*
X23953000Y14510328D01*
X23953000Y15132885D01*
X23948525Y15148124D01*
X23947135Y15149329D01*
X23939452Y15151000D01*
X22867115Y15151000D01*
X22851876Y15146525D01*
X22850671Y15145135D01*
X22849000Y15137452D01*
X22849000Y14065116D01*
X22341000Y14065116D01*
X22341000Y15677115D01*
X22849000Y15677115D01*
X22853475Y15661876D01*
X22854865Y15660671D01*
X22862548Y15659000D01*
X23934884Y15659000D01*
X23950123Y15663475D01*
X23951328Y15664865D01*
X23952999Y15672548D01*
X23952999Y16299669D01*
X23952629Y16306490D01*
X23947105Y16357352D01*
X23943479Y16372604D01*
X23898324Y16493054D01*
X23889786Y16508649D01*
X23813285Y16610724D01*
X23800724Y16623285D01*
X23698649Y16699786D01*
X23683054Y16708324D01*
X23562606Y16753478D01*
X23547351Y16757105D01*
X23496486Y16762631D01*
X23489672Y16763000D01*
X22867115Y16763000D01*
X22851876Y16758525D01*
X22850671Y16757135D01*
X22849000Y16749452D01*
X22849000Y15677115D01*
X22341000Y15677115D01*
X22341000Y16744884D01*
X22336525Y16760123D01*
X22335135Y16761328D01*
X22327452Y16762999D01*
X22034500Y16762999D01*
X21966379Y16783001D01*
X21919886Y16836657D01*
X21908500Y16888999D01*
X21908500Y17641000D01*
X21928502Y17709121D01*
X21982158Y17755614D01*
X22034500Y17767000D01*
X22227885Y17767000D01*
X22243124Y17771475D01*
X22244329Y17772865D01*
X22246000Y17780548D01*
X22246000Y20089884D01*
X22241525Y20105123D01*
X22223807Y20120476D01*
X22185423Y20180203D01*
X22185423Y20251199D01*
X22201554Y20285702D01*
X22259937Y20373079D01*
X22269964Y20386148D01*
X22377399Y20508655D01*
X22391044Y20521504D01*
X22390842Y20521736D01*
X22393503Y20524050D01*
X22396281Y20526204D01*
X22405703Y20535366D01*
X22406493Y20535997D01*
X22407146Y20536769D01*
X22416568Y20545932D01*
X22430004Y20562289D01*
X22434457Y20567420D01*
X22634391Y20785609D01*
X22634398Y20785617D01*
X22636256Y20787645D01*
X22678120Y20842204D01*
X22735459Y20884071D01*
X22778083Y20891500D01*
X23200400Y20891500D01*
X23203646Y20891837D01*
X23203650Y20891837D01*
X23299308Y20901762D01*
X23299312Y20901763D01*
X23306166Y20902474D01*
X23312702Y20904655D01*
X23312704Y20904655D01*
X23444806Y20948728D01*
X23473946Y20958450D01*
X23624348Y21051522D01*
X23749305Y21176697D01*
X23763922Y21200410D01*
X23838275Y21321032D01*
X23838276Y21321034D01*
X23842115Y21327262D01*
X23880376Y21442615D01*
X23920805Y21500974D01*
X23986369Y21528211D01*
X24056251Y21515678D01*
G37*
%TD.AperFunction*%
%TA.AperFunction,Conductor*%
G36*
X29781289Y22956796D02*
G01*
X29788607Y22954369D01*
X29788611Y22954368D01*
X29795139Y22952203D01*
X29801975Y22951503D01*
X29801978Y22951502D01*
X29845031Y22947091D01*
X29899600Y22941500D01*
X31100400Y22941500D01*
X31103652Y22941837D01*
X31106890Y22942005D01*
X31106932Y22941200D01*
X31173359Y22928953D01*
X31226807Y22877446D01*
X31249834Y22835782D01*
X31255965Y22823050D01*
X31353787Y22586883D01*
X31358453Y22573548D01*
X31429221Y22327910D01*
X31432365Y22314136D01*
X31439756Y22270635D01*
X31458880Y22158072D01*
X31450570Y22087564D01*
X31405460Y22032741D01*
X31337871Y22011009D01*
X31294993Y22017375D01*
X31211293Y22045137D01*
X31197914Y22048005D01*
X31103562Y22057672D01*
X31097145Y22058000D01*
X30772115Y22058000D01*
X30756876Y22053525D01*
X30755671Y22052135D01*
X30754000Y22044452D01*
X30754000Y19672000D01*
X30733998Y19603879D01*
X30680342Y19557386D01*
X30628000Y19546000D01*
X29210116Y19546000D01*
X29194877Y19541525D01*
X29193672Y19540135D01*
X29192001Y19532452D01*
X29192001Y18252905D01*
X29192338Y18246386D01*
X29202257Y18150794D01*
X29205149Y18137400D01*
X29256588Y17983216D01*
X29262761Y17970038D01*
X29348063Y17832193D01*
X29357099Y17820792D01*
X29471829Y17706261D01*
X29483240Y17697249D01*
X29510878Y17680213D01*
X29558371Y17627441D01*
X29569795Y17557370D01*
X29547523Y17500042D01*
X29426301Y17329197D01*
X29424595Y17326109D01*
X29424593Y17326107D01*
X29382189Y17249383D01*
X29306586Y17112593D01*
X29305232Y17109324D01*
X29305229Y17109318D01*
X29244485Y16962672D01*
X29211875Y16883946D01*
X29210896Y16880547D01*
X29210895Y16880545D01*
X29158944Y16700229D01*
X29143358Y16646133D01*
X29142766Y16642646D01*
X29142765Y16642644D01*
X29126315Y16545834D01*
X29095184Y16482027D01*
X29034498Y16445180D01*
X28963525Y16446991D01*
X28904798Y16486886D01*
X28896661Y16498915D01*
X28895615Y16501705D01*
X28888797Y16510803D01*
X28813642Y16611081D01*
X28808261Y16618261D01*
X28691705Y16705615D01*
X28555316Y16756745D01*
X28493134Y16763500D01*
X27465787Y16763500D01*
X27397666Y16783502D01*
X27351173Y16837158D01*
X27341069Y16907432D01*
X27370563Y16972012D01*
X27376691Y16978595D01*
X28011334Y17613239D01*
X28026301Y17626031D01*
X28034578Y17632052D01*
X28087466Y17689236D01*
X28090873Y17692778D01*
X28109612Y17711517D01*
X28119478Y17723529D01*
X28124339Y17729104D01*
X28164683Y17772724D01*
X28164688Y17772731D01*
X28168867Y17777249D01*
X28172092Y17782498D01*
X28179968Y17795317D01*
X28189959Y17809333D01*
X28199496Y17820944D01*
X28203405Y17825703D01*
X28234384Y17883478D01*
X28238069Y17889890D01*
X28258633Y17923363D01*
X28272395Y17945765D01*
X28274538Y17951537D01*
X28274541Y17951544D01*
X28279772Y17965636D01*
X28286849Y17981324D01*
X28293955Y17994577D01*
X28293956Y17994581D01*
X28296865Y18000005D01*
X28308378Y18037664D01*
X28316033Y18062700D01*
X28318403Y18069709D01*
X28339077Y18125404D01*
X28339077Y18125405D01*
X28341221Y18131180D01*
X28342201Y18137252D01*
X28342203Y18137261D01*
X28344597Y18152105D01*
X28348496Y18168881D01*
X28352887Y18183243D01*
X28354690Y18189140D01*
X28356751Y18209424D01*
X28361317Y18254380D01*
X28362277Y18261692D01*
X28372722Y18326432D01*
X28372503Y18332589D01*
X28372678Y18335397D01*
X28372775Y18342354D01*
X28372836Y18343307D01*
X28373827Y18349394D01*
X28373483Y18359490D01*
X28373400Y18361941D01*
X28373971Y18378953D01*
X28374055Y18379776D01*
X28374055Y18379780D01*
X28374677Y18385904D01*
X28371758Y18416786D01*
X28371272Y18424346D01*
X28371073Y18430178D01*
X28371000Y18434475D01*
X28371000Y20072115D01*
X29192000Y20072115D01*
X29196475Y20056876D01*
X29197865Y20055671D01*
X29205548Y20054000D01*
X30227885Y20054000D01*
X30243124Y20058475D01*
X30244329Y20059865D01*
X30246000Y20067548D01*
X30246000Y22039884D01*
X30241525Y22055123D01*
X30240135Y22056328D01*
X30232452Y22057999D01*
X29902905Y22057999D01*
X29896386Y22057662D01*
X29800794Y22047743D01*
X29787400Y22044851D01*
X29633216Y21993412D01*
X29620038Y21987239D01*
X29482193Y21901937D01*
X29470792Y21892901D01*
X29356261Y21778171D01*
X29347249Y21766760D01*
X29262184Y21628757D01*
X29256037Y21615576D01*
X29204862Y21461290D01*
X29201995Y21447914D01*
X29192328Y21353562D01*
X29192000Y21347145D01*
X29192000Y20072115D01*
X28371000Y20072115D01*
X28371000Y21059496D01*
X28371994Y21075294D01*
X28375042Y21099410D01*
X28375042Y21099413D01*
X28375483Y21102901D01*
X28375668Y21116121D01*
X28375781Y21117124D01*
X28375697Y21118128D01*
X28375880Y21131196D01*
X28374256Y21147768D01*
X28374043Y21169939D01*
X28385481Y21315324D01*
X28388574Y21334854D01*
X28413814Y21439992D01*
X28429355Y21504733D01*
X28435464Y21523534D01*
X28437402Y21528211D01*
X28502321Y21684943D01*
X28511295Y21702556D01*
X28567920Y21794961D01*
X28602573Y21851511D01*
X28614192Y21867506D01*
X28700449Y21968501D01*
X28713602Y21981769D01*
X28714502Y21982551D01*
X28717294Y21984717D01*
X28723229Y21990489D01*
X28725051Y21992260D01*
X28725052Y21992261D01*
X28726697Y21993861D01*
X28727489Y21994494D01*
X28728144Y21995269D01*
X28737580Y22004446D01*
X28765394Y22038309D01*
X28773664Y22047430D01*
X29652530Y22926297D01*
X29714843Y22960322D01*
X29781289Y22956796D01*
G37*
%TD.AperFunction*%
%TD*%
M02*
